<svg id="Capa_1" data-name="Capa 1" xmlns="http://www.w3.org/2000/svg" xmlns:xlink="http://www.w3.org/1999/xlink" viewBox="0 0 850.39 850.39"><defs><style>.cls-1{fill:none;}.cls-2{fill:#1d1d1b;}.cls-3{fill:url(#Motivo_nuevo);}</style><pattern id="Motivo_nuevo" data-name="Motivo nuevo" width="365.61" height="263.76" patternTransform="translate(-84.81 -310.38) scale(1.06)" patternUnits="userSpaceOnUse" viewBox="0 0 365.61 263.76"><rect class="cls-1" width="365.61" height="263.76"/><polygon class="cls-2" points="342.64 153.34 339.68 153.32 337.98 155.76 337.07 152.93 334.23 152.07 336.64 150.34 336.58 147.37 338.98 149.13 341.78 148.15 340.85 150.97 342.64 153.34"/><polygon class="cls-2" points="144.22 153.34 141.25 153.32 139.55 155.76 138.65 152.93 135.81 152.07 138.22 150.34 138.16 147.37 140.55 149.13 143.36 148.15 142.43 150.97 144.22 153.34"/><polygon class="cls-2" points="342.64 11.61 339.68 11.59 337.98 14.03 337.07 11.2 334.23 10.34 336.64 8.61 336.58 5.64 338.98 7.39 341.78 6.42 340.85 9.24 342.64 11.61"/><polygon class="cls-2" points="144.22 11.61 141.25 11.59 139.55 14.03 138.65 11.2 135.81 10.34 138.22 8.61 138.16 5.64 140.55 7.39 143.36 6.42 142.43 9.24 144.22 11.61"/><polygon class="cls-2" points="212 167.19 209.33 168.48 208.89 171.42 206.83 169.28 203.9 169.76 205.29 167.14 203.93 164.51 206.85 165.03 208.94 162.91 209.35 165.85 212 167.19"/><path class="cls-2" d="M203.82,157.78a1,1,0,1,1-1.36-.47A1,1,0,0,1,203.82,157.78Z"/><path class="cls-2" d="M213.37,177.19a1,1,0,1,1-1.36-.47A1,1,0,0,1,213.37,177.19Z"/><polygon class="cls-2" points="13.58 167.19 10.91 168.48 10.46 171.42 8.4 169.28 5.47 169.76 6.87 167.14 5.5 164.51 8.43 165.03 10.52 162.91 10.92 165.85 13.58 167.19"/><path class="cls-2" d="M5.39,157.78A1,1,0,1,1,4,157.31,1,1,0,0,1,5.39,157.78Z"/><path class="cls-2" d="M15,177.19a1,1,0,1,1-1.36-.47A1,1,0,0,1,15,177.19Z"/><polygon class="cls-2" points="212 25.45 209.33 26.75 208.89 29.69 206.83 27.55 203.9 28.03 205.29 25.41 203.93 22.77 206.85 23.29 208.94 21.18 209.35 24.12 212 25.45"/><path class="cls-2" d="M203.82,16a1,1,0,1,1-1.36-.46A1,1,0,0,1,203.82,16Z"/><path class="cls-2" d="M213.37,35.45A1,1,0,1,1,212,35,1,1,0,0,1,213.37,35.45Z"/><polygon class="cls-2" points="13.58 25.45 10.91 26.75 10.46 29.69 8.4 27.55 5.47 28.03 6.87 25.41 5.5 22.77 8.43 23.29 10.52 21.18 10.92 24.12 13.58 25.45"/><path class="cls-2" d="M5.39,16A1,1,0,1,1,4,15.58,1,1,0,0,1,5.39,16Z"/><path class="cls-2" d="M15,35.45A1,1,0,1,1,13.59,35,1,1,0,0,1,15,35.45Z"/><path class="cls-2" d="M286.49,251.6a1,1,0,1,1-1-1A1,1,0,0,1,286.49,251.6Z"/><path class="cls-2" d="M88.06,251.6a1,1,0,0,1-2,0,1,1,0,1,1,2,0Z"/><path class="cls-2" d="M286.49,109.86a1,1,0,1,1-1-1A1,1,0,0,1,286.49,109.86Z"/><path class="cls-2" d="M88.06,109.86a1,1,0,1,1-1-1A1,1,0,0,1,88.06,109.86Z"/><path class="cls-2" d="M316.11,169a1,1,0,1,1-1-1A1,1,0,0,1,316.11,169Z"/><path class="cls-2" d="M117.68,169a1,1,0,1,1-1-1A1,1,0,0,1,117.68,169Z"/><path class="cls-2" d="M316.11,27.21a1,1,0,1,1-1-1A1,1,0,0,1,316.11,27.21Z"/><path class="cls-2" d="M117.68,27.21a1,1,0,1,1-1-1A1,1,0,0,1,117.68,27.21Z"/><path class="cls-2" d="M361.66,159a1,1,0,1,1,1.44,0A1,1,0,0,1,361.66,159Z"/><path class="cls-2" d="M346.64,143.46a1,1,0,1,1,1.44,0A1,1,0,0,1,346.64,143.46Z"/><path class="cls-2" d="M163.24,159a1,1,0,0,1,1.46-1.41,1,1,0,1,1-1.46,1.41Z"/><path class="cls-2" d="M148.21,143.46a1,1,0,1,1,1.44,0A1,1,0,0,1,148.21,143.46Z"/><path class="cls-2" d="M361.66,17.26a1,1,0,0,1,0-1.44,1,1,0,0,1,1.44,0,1,1,0,0,1,0,1.43A1,1,0,0,1,361.66,17.26Z"/><path class="cls-2" d="M346.64,1.72a1,1,0,0,1,0-1.43,1,1,0,1,1,0,1.43Z"/><path class="cls-2" d="M163.24,17.26a1,1,0,0,1,0-1.44,1,1,0,0,1,1.41,1.46A1,1,0,0,1,163.24,17.26Z"/><path class="cls-2" d="M148.21,1.72a1,1,0,0,1,0-1.43,1,1,0,0,1,1.44,0,1,1,0,0,1-1.47,1.41Z"/><polygon class="cls-2" points="279.06 205.41 276.66 203.67 273.86 204.67 274.77 201.84 272.96 199.49 275.93 199.48 277.61 197.03 278.54 199.86 281.38 200.7 278.98 202.45 279.06 205.41"/><path class="cls-2" d="M284.88,208.63a1,1,0,0,1,1.18-1.65,1,1,0,0,1,.24,1.42A1,1,0,0,1,284.88,208.63Z"/><path class="cls-2" d="M267.29,196.07a1,1,0,1,1,1.42-.24A1,1,0,0,1,267.29,196.07Z"/><polygon class="cls-2" points="80.64 205.41 78.23 203.67 75.43 204.67 76.35 201.84 74.54 199.49 77.51 199.48 79.19 197.03 80.11 199.86 82.96 200.7 80.56 202.45 80.64 205.41"/><path class="cls-2" d="M86.45,208.63A1,1,0,0,1,87.64,207a1,1,0,0,1,.23,1.42A1,1,0,0,1,86.45,208.63Z"/><path class="cls-2" d="M68.87,196.07a1,1,0,1,1,1.42-.24A1,1,0,0,1,68.87,196.07Z"/><polygon class="cls-2" points="279.06 63.68 276.66 61.94 273.86 62.93 274.77 60.11 272.96 57.75 275.93 57.75 277.61 55.3 278.54 58.12 281.38 58.97 278.98 60.71 279.06 63.68"/><path class="cls-2" d="M284.88,66.9a1,1,0,0,1,1.18-1.65,1,1,0,1,1-1.18,1.65Z"/><path class="cls-2" d="M267.29,54.33a1,1,0,0,1,1.19-1.65,1,1,0,0,1,.23,1.42A1,1,0,0,1,267.29,54.33Z"/><polygon class="cls-2" points="80.64 63.68 78.23 61.94 75.43 62.93 76.35 60.11 74.54 57.75 77.51 57.75 79.19 55.3 80.11 58.12 82.96 58.97 80.56 60.71 80.64 63.68"/><path class="cls-2" d="M86.45,66.9a1,1,0,1,1,1.42-.23A1,1,0,0,1,86.45,66.9Z"/><path class="cls-2" d="M68.87,54.33a1,1,0,1,1,1.18-1.65,1,1,0,0,1,.24,1.42A1,1,0,0,1,68.87,54.33Z"/><polygon class="cls-2" points="237.84 243.23 235.42 244.95 235.47 247.92 233.09 246.16 230.28 247.12 231.22 244.3 229.43 241.93 232.4 241.96 234.11 239.53 235 242.36 237.84 243.23"/><path class="cls-2" d="M242.75,238.74a1,1,0,1,1,.22-1.42A1,1,0,0,1,242.75,238.74Z"/><path class="cls-2" d="M225.23,251.4a1,1,0,1,1,.23-1.42A1,1,0,0,1,225.23,251.4Z"/><polygon class="cls-2" points="39.41 243.23 37 244.95 37.05 247.92 34.66 246.16 31.85 247.12 32.79 244.3 31.01 241.93 33.98 241.96 35.68 239.53 36.58 242.36 39.41 243.23"/><path class="cls-2" d="M44.32,238.74a1,1,0,1,1,.23-1.42A1,1,0,0,1,44.32,238.74Z"/><path class="cls-2" d="M26.8,251.4A1,1,0,1,1,27,250,1,1,0,0,1,26.8,251.4Z"/><polygon class="cls-2" points="237.84 101.5 235.42 103.22 235.47 106.19 233.09 104.42 230.28 105.39 231.22 102.57 229.43 100.2 232.4 100.22 234.11 97.79 235 100.62 237.84 101.5"/><path class="cls-2" d="M242.75,97a1,1,0,1,1,.22-1.42A1,1,0,0,1,242.75,97Z"/><path class="cls-2" d="M225.23,109.67A1,1,0,0,1,224,108a1,1,0,0,1,1.19,1.65Z"/><polygon class="cls-2" points="39.41 101.5 37 103.22 37.05 106.19 34.66 104.42 31.85 105.39 32.79 102.57 31.01 100.2 33.98 100.22 35.68 97.79 36.58 100.62 39.41 101.5"/><path class="cls-2" d="M44.32,97a1,1,0,0,1-1.42-.23,1,1,0,1,1,1.42.23Z"/><path class="cls-2" d="M26.8,109.67a1,1,0,0,1-1.42-.23,1,1,0,0,1,.23-1.42,1,1,0,1,1,1.19,1.65Z"/><polygon class="cls-2" points="358.17 229.87 355.21 230.1 353.73 232.67 352.59 229.93 349.68 229.31 351.94 227.38 351.63 224.43 354.16 225.98 356.88 224.77 356.19 227.66 358.17 229.87"/><path class="cls-2" d="M364.68,228.54a1,1,0,1,1,.93-1.1A1,1,0,0,1,364.68,228.54Z"/><path class="cls-2" d="M343.15,230.39a1,1,0,1,1,.93-1.1A1,1,0,0,1,343.15,230.39Z"/><polygon class="cls-2" points="159.75 229.87 156.78 230.1 155.3 232.67 154.16 229.93 151.26 229.31 153.51 227.38 153.21 224.43 155.74 225.98 158.45 224.77 157.76 227.66 159.75 229.87"/><path class="cls-2" d="M166.26,228.54a1,1,0,1,1,.93-1.1A1,1,0,0,1,166.26,228.54Z"/><path class="cls-2" d="M144.72,230.39a1,1,0,0,1-.17-2,1,1,0,1,1,.17,2Z"/><polygon class="cls-2" points="358.17 88.14 355.21 88.37 353.73 90.94 352.59 88.2 349.68 87.58 351.94 85.65 351.63 82.7 354.16 84.25 356.88 83.04 356.19 85.93 358.17 88.14"/><path class="cls-2" d="M364.68,86.81a1,1,0,1,1,.93-1.1A1,1,0,0,1,364.68,86.81Z"/><path class="cls-2" d="M343.15,88.66a1,1,0,1,1,.93-1.1A1,1,0,0,1,343.15,88.66Z"/><polygon class="cls-2" points="159.75 88.14 156.78 88.37 155.3 90.94 154.16 88.2 151.26 87.58 153.51 85.65 153.21 82.7 155.74 84.25 158.45 83.04 157.76 85.93 159.75 88.14"/><path class="cls-2" d="M166.26,86.81a1,1,0,1,1,.93-1.1A1,1,0,0,1,166.26,86.81Z"/><path class="cls-2" d="M144.72,88.66a1,1,0,1,1,.93-1.1A1,1,0,0,1,144.72,88.66Z"/><polygon class="cls-2" points="204.22 207.97 202.07 207.2 200.21 208.54 200.28 206.25 198.43 204.9 200.62 204.26 201.34 202.08 202.63 203.97 204.92 203.98 203.52 205.79 204.22 207.97"/><polygon class="cls-2" points="5.8 207.97 3.64 207.2 1.78 208.54 1.85 206.25 0 204.9 2.2 204.26 2.91 202.08 4.21 203.97 6.49 203.98 5.1 205.79 5.8 207.97"/><polygon class="cls-2" points="204.22 66.24 202.07 65.47 200.21 66.81 200.28 64.52 198.43 63.17 200.62 62.52 201.34 60.35 202.63 62.24 204.92 62.25 203.52 64.06 204.22 66.24"/><polygon class="cls-2" points="5.8 66.24 3.64 65.47 1.78 66.81 1.85 64.52 0 63.17 2.2 62.52 2.91 60.35 4.21 62.24 6.49 62.25 5.1 64.06 5.8 66.24"/><polygon class="cls-2" points="271.03 153.78 269.23 153.14 267.68 154.26 267.74 152.35 266.2 151.22 268.03 150.69 268.62 148.87 269.7 150.45 271.61 150.45 270.44 151.96 271.03 153.78"/><polygon class="cls-2" points="72.6 153.78 70.8 153.14 69.26 154.26 69.31 152.35 67.77 151.22 69.6 150.69 70.2 148.87 71.27 150.45 73.18 150.45 72.02 151.96 72.6 153.78"/><polygon class="cls-2" points="271.03 12.05 269.23 11.41 267.68 12.52 267.74 10.62 266.2 9.49 268.03 8.95 268.62 7.14 269.7 8.71 271.61 8.72 270.44 10.23 271.03 12.05"/><polygon class="cls-2" points="72.6 12.05 70.8 11.41 69.26 12.52 69.31 10.62 67.77 9.49 69.6 8.95 70.2 7.14 71.27 8.71 73.18 8.72 72.02 10.23 72.6 12.05"/><polygon class="cls-2" points="341.66 263.44 340.46 263.01 339.43 263.76 339.47 262.49 338.44 261.74 339.66 261.38 340.06 260.17 340.77 261.22 342.05 261.22 341.27 262.23 341.66 263.44"/><polygon class="cls-2" points="143.23 263.44 142.04 263.01 141 263.76 141.04 262.49 140.01 261.74 141.24 261.38 141.63 260.17 142.35 261.22 143.62 261.22 142.84 262.23 143.23 263.44"/><polygon class="cls-2" points="341.66 121.71 340.46 121.28 339.43 122.03 339.47 120.75 338.44 120 339.66 119.65 340.06 118.44 340.77 119.49 342.05 119.49 341.27 120.5 341.66 121.71"/><polygon class="cls-2" points="143.23 121.71 142.04 121.28 141 122.03 141.04 120.75 140.01 120 141.24 119.65 141.63 118.44 142.35 119.49 143.62 119.49 142.84 120.5 143.23 121.71"/></pattern></defs><rect class="cls-3" x="127.56" y="9.73" width="599.72" height="823"/></svg>