<svg id="Capa_1" data-name="Capa 1" xmlns="http://www.w3.org/2000/svg" viewBox="0 0 850.39 850.39"><defs><style>.cls-1{fill:#1d1d1b;}</style></defs><polygon class="cls-1" points="146.93 175.39 154.33 175.39 150.63 167.99 156.04 167.99 141.24 151.77 146.93 163.58 141.24 163.58 146.93 175.39"/><polygon class="cls-1" points="201.01 118.75 185.92 104.23 193.47 104.23 187.35 92.28 202.15 107.65 195.32 107.93 201.01 118.75"/><polygon class="cls-1" points="386.46 332.65 371.37 318.14 378.92 318.14 372.8 306.18 387.6 321.55 380.77 321.84 386.46 332.65"/><polygon class="cls-1" points="709.82 424.05 694.73 409.54 702.27 409.54 696.15 397.58 710.96 412.95 704.13 413.24 709.82 424.05"/><polygon class="cls-1" points="253.38 132.98 258.79 132.98 265.05 118.75 257.37 119.89 265.05 107.65 263.91 107.65 251.96 122.16 258.5 123.3 253.38 132.98"/><polygon class="cls-1" points="744.53 278.56 749.94 278.56 756.2 264.33 748.51 265.47 756.2 253.23 755.06 253.23 743.11 267.75 749.65 268.89 744.53 278.56"/><polygon class="cls-1" points="218.09 210.68 222.93 206.13 222.93 192.47 216.09 195.88 216.09 181.37 210.97 204.71 216.95 199.87 218.09 210.68"/><polygon class="cls-1" points="278.25 431.52 271.67 430.59 263.8 419.42 271.36 418.28 263 406.41 280.62 422.54 272.95 422.03 278.25 431.52"/><polygon class="cls-1" points="171.12 275.58 184.78 259.07 177.95 259.07 182.51 246.54 169.41 262.77 177.1 263.05 171.12 275.58"/><polygon class="cls-1" points="406.1 113.63 419.76 97.12 412.93 97.12 417.49 84.6 404.39 100.82 412.08 101.1 406.1 113.63"/><polygon class="cls-1" points="365.82 269.11 379.49 252.6 372.65 252.6 377.21 240.08 364.12 256.3 371.8 256.59 365.82 269.11"/><polygon class="cls-1" points="75.58 377.4 63.3 359.84 70.11 360.39 66.58 347.54 78.32 364.77 70.64 364.44 75.58 377.4"/><polygon class="cls-1" points="238.83 51.99 256.48 39.84 249.91 37.97 257.71 27.17 240.69 39.2 248 41.57 238.83 51.99"/><polygon class="cls-1" points="306.29 366.45 292.49 350.06 299.32 350 294.66 337.51 307.89 353.63 300.2 353.98 306.29 366.45"/><polygon class="cls-1" points="209.44 367.27 215.93 346.84 209.59 349.4 209.12 336.08 203.06 356.03 210.29 353.42 209.44 367.27"/><polygon class="cls-1" points="261.07 265.9 253.38 279.85 255.37 279.85 251.96 285.82 255.09 285.82 249.97 292.37 255.52 290.38 261.07 279.13 258.5 279.13 261.07 275.58 258.5 275.58 261.07 265.9"/><polygon class="cls-1" points="124.24 53.01 108.57 50.2 109.2 52.08 102.45 50.76 103.45 53.73 95.61 50.97 99.28 55.59 111.7 57.25 110.88 54.82 115.07 56.11 114.25 53.68 124.24 53.01"/><polygon class="cls-1" points="686.7 291.66 671.02 288.84 671.66 290.73 664.91 289.41 665.91 292.38 658.07 289.62 661.73 294.24 674.16 295.9 673.34 293.47 677.53 294.76 676.71 292.33 686.7 291.66"/><polygon class="cls-1" points="159.84 363.06 152.16 377 154.15 377 150.73 382.98 153.86 382.98 148.74 389.53 154.29 387.54 159.84 376.29 157.28 376.29 159.84 372.74 157.28 372.74 159.84 363.06"/><polygon class="cls-1" points="311.73 72.64 319.42 86.59 317.43 86.59 320.84 92.56 317.71 92.56 322.83 99.11 317.28 97.12 311.73 85.88 314.29 85.88 311.73 82.32 314.29 82.32 311.73 72.64"/><polygon class="cls-1" points="99.39 309.44 103.95 309.44 109.93 294.64 103.81 295.21 108.5 281.55 97.4 300.05 103.66 298.63 99.39 309.44"/><polygon class="cls-1" points="53.43 134.66 57.01 131.84 70.87 139.76 65.71 143.1 77.86 150.92 57.68 143.27 63.48 140.51 53.43 134.66"/><polygon class="cls-1" points="339.69 134.66 343.27 131.84 357.13 139.76 351.97 143.1 364.12 150.92 343.94 143.27 349.74 140.51 339.69 134.66"/><polygon class="cls-1" points="95.58 224.76 91.02 224.91 84.57 210.31 90.7 210.68 85.56 197.18 97.26 215.31 90.96 214.09 95.58 224.76"/><polygon class="cls-1" points="801.73 377.4 789.45 359.84 796.26 360.39 792.74 347.54 804.47 364.77 796.79 364.44 801.73 377.4"/><polygon class="cls-1" points="850.39 53.01 834.72 50.2 835.36 52.08 828.6 50.76 829.61 53.73 821.76 50.97 825.43 55.59 837.86 57.25 837.03 54.82 841.23 56.11 840.41 53.68 850.39 53.01"/><polygon class="cls-1" points="825.55 309.44 830.1 309.44 836.08 294.64 829.96 295.21 834.65 281.55 823.55 300.05 829.82 298.63 825.55 309.44"/><polygon class="cls-1" points="779.58 134.66 783.16 131.84 797.02 139.76 791.86 143.1 804.01 150.92 783.84 143.27 789.63 140.51 779.58 134.66"/><polygon class="cls-1" points="821.73 224.76 817.18 224.91 810.72 210.31 816.86 210.68 811.72 197.18 823.41 215.31 817.11 214.09 821.73 224.76"/><polygon class="cls-1" points="301.25 233.26 296.7 233.41 290.25 218.81 296.38 219.18 291.24 205.67 302.94 223.8 296.64 222.59 301.25 233.26"/><polygon class="cls-1" points="691.36 373.45 686.81 373.6 680.35 359 686.49 359.37 681.35 345.86 693.04 363.99 686.74 362.77 691.36 373.45"/><polygon class="cls-1" points="713.85 79.57 709.3 79.72 702.84 65.12 708.98 65.49 703.84 51.99 715.54 70.12 709.23 68.9 713.85 79.57"/><polygon class="cls-1" points="432.85 183.44 440.25 183.44 436.55 176.04 441.96 176.04 427.16 159.82 432.85 171.63 427.16 171.63 432.85 183.44"/><polygon class="cls-1" points="352.86 37.94 351.42 45.2 359.4 43.01 358.35 48.31 377.14 36.94 364.45 40.23 365.55 34.65 352.86 37.94"/><polygon class="cls-1" points="712.39 168.09 710.96 175.35 718.93 173.16 717.88 178.46 736.67 167.09 723.98 170.38 725.09 164.8 712.39 168.09"/><polygon class="cls-1" points="486.93 126.8 471.85 112.28 479.39 112.28 473.27 100.33 488.07 115.7 481.24 115.98 486.93 126.8"/><polygon class="cls-1" points="539.31 141.03 544.72 141.03 550.98 126.8 543.29 127.94 550.98 115.7 549.84 115.7 537.88 130.22 544.43 131.35 539.31 141.03"/><polygon class="cls-1" points="504.01 218.74 508.85 214.18 508.85 200.52 502.02 203.94 502.02 189.42 496.9 212.76 502.88 207.92 504.01 218.74"/><polygon class="cls-1" points="564.17 439.58 557.6 438.64 549.73 427.47 557.28 426.33 548.92 414.46 566.55 430.59 558.88 430.08 564.17 439.58"/><polygon class="cls-1" points="457.05 283.63 470.71 267.12 463.88 267.12 468.43 254.6 455.34 270.82 463.03 271.1 457.05 283.63"/><polygon class="cls-1" points="524.76 60.04 542.41 47.89 535.84 46.03 543.64 35.22 526.61 47.25 533.93 49.63 524.76 60.04"/><polygon class="cls-1" points="592.21 374.5 578.41 358.11 585.24 358.05 580.58 345.56 593.81 361.68 586.13 362.03 592.21 374.5"/><polygon class="cls-1" points="495.37 375.32 501.85 354.89 495.52 357.45 495.05 344.14 488.99 364.08 496.22 361.47 495.37 375.32"/><polygon class="cls-1" points="546.99 273.95 539.31 287.9 541.3 287.9 537.88 293.88 541.02 293.88 535.89 300.42 541.44 298.43 546.99 287.19 544.43 287.19 546.99 283.63 544.43 283.63 546.99 273.95"/><polygon class="cls-1" points="390.59 384.35 382.9 398.29 384.89 398.29 381.48 404.27 384.61 404.27 379.49 410.82 385.04 408.82 390.59 397.58 388.02 397.58 390.59 394.02 388.02 394.02 390.59 384.35"/><polygon class="cls-1" points="597.66 80.69 605.34 94.64 603.35 94.64 606.77 100.62 603.64 100.62 608.76 107.16 603.21 105.17 597.66 93.93 600.22 93.93 597.66 90.37 600.22 90.37 597.66 80.69"/><polygon class="cls-1" points="625.62 142.71 629.19 139.89 643.05 147.81 637.89 151.15 650.04 158.97 629.87 151.32 635.67 148.56 625.62 142.71"/><polygon class="cls-1" points="674.49 216.55 678.06 213.73 691.92 221.65 686.76 224.99 698.91 232.81 678.74 225.16 684.53 222.4 674.49 216.55"/><polygon class="cls-1" points="587.18 241.31 582.63 241.46 576.17 226.86 582.31 227.23 577.17 213.73 588.87 231.86 582.56 230.64 587.18 241.31"/><polygon class="cls-1" points="93.5 559.04 100.9 559.04 97.2 551.64 102.61 551.64 87.8 535.41 93.5 547.23 87.8 547.23 93.5 559.04"/><polygon class="cls-1" points="147.58 502.4 132.49 487.88 140.03 487.88 133.91 475.93 148.72 491.3 141.89 491.58 147.58 502.4"/><polygon class="cls-1" points="333.03 716.3 317.94 701.78 325.49 701.78 319.37 689.83 334.17 705.2 327.34 705.48 333.03 716.3"/><polygon class="cls-1" points="656.39 807.7 641.3 793.18 648.84 793.18 642.72 781.23 657.52 796.6 650.69 796.88 656.39 807.7"/><polygon class="cls-1" points="199.95 516.63 205.36 516.63 211.62 502.4 203.94 503.53 211.62 491.3 210.48 491.3 198.53 505.81 205.07 506.95 199.95 516.63"/><polygon class="cls-1" points="691.1 662.21 696.51 662.21 702.77 647.98 695.08 649.12 702.77 636.88 701.63 636.88 689.67 651.39 696.22 652.53 691.1 662.21"/><polygon class="cls-1" points="164.66 594.33 169.49 589.77 169.49 576.11 162.66 579.53 162.66 565.01 157.54 588.35 163.52 583.51 164.66 594.33"/><polygon class="cls-1" points="224.82 815.17 218.24 814.24 210.37 803.06 217.92 801.92 209.57 790.05 227.19 806.19 219.52 805.67 224.82 815.17"/><polygon class="cls-1" points="117.69 659.22 131.35 642.71 124.52 642.71 129.08 630.19 115.98 646.42 123.67 646.7 117.69 659.22"/><polygon class="cls-1" points="352.67 497.28 366.33 480.77 359.5 480.77 364.05 468.24 350.96 484.47 358.64 484.75 352.67 497.28"/><polygon class="cls-1" points="312.39 652.76 326.06 636.25 319.22 636.25 323.78 623.73 310.68 639.95 318.37 640.24 312.39 652.76"/><polygon class="cls-1" points="22.15 761.05 9.87 743.49 16.68 744.04 13.15 731.19 24.89 748.42 17.2 748.08 22.15 761.05"/><polygon class="cls-1" points="185.4 435.64 203.05 423.49 196.48 421.62 204.28 410.82 187.26 422.85 194.57 425.22 185.4 435.64"/><polygon class="cls-1" points="252.86 750.1 239.05 733.7 245.89 733.64 241.22 721.16 254.46 737.27 246.77 737.62 252.86 750.1"/><polygon class="cls-1" points="156.01 750.92 162.5 730.49 156.16 733.05 155.69 719.73 149.63 739.68 156.86 737.06 156.01 750.92"/><polygon class="cls-1" points="207.64 649.55 199.95 663.49 201.94 663.49 198.53 669.47 201.66 669.47 196.53 676.02 202.09 674.02 207.64 662.78 205.07 662.78 207.64 659.22 205.07 659.22 207.64 649.55"/><polygon class="cls-1" points="70.81 436.65 55.14 433.84 55.77 435.73 49.02 434.41 50.02 437.38 42.18 434.62 45.84 439.24 58.27 440.89 57.45 438.47 61.64 439.75 60.82 437.33 70.81 436.65"/><polygon class="cls-1" points="633.27 675.3 617.59 672.49 618.23 674.38 611.48 673.06 612.48 676.02 604.63 673.27 608.3 677.89 620.73 679.54 619.91 677.12 624.1 678.4 623.28 675.98 633.27 675.3"/><polygon class="cls-1" points="106.41 746.71 98.72 760.65 100.72 760.65 97.3 766.63 100.43 766.63 95.31 773.18 100.86 771.18 106.41 759.94 103.85 759.94 106.41 756.38 103.85 756.38 106.41 746.71"/><polygon class="cls-1" points="258.3 456.29 265.99 470.24 263.99 470.24 267.41 476.21 264.28 476.21 269.4 482.76 263.85 480.77 258.3 469.52 260.86 469.52 258.3 465.97 260.86 465.97 258.3 456.29"/><polygon class="cls-1" points="45.96 693.09 50.52 693.09 56.49 678.29 50.38 678.86 55.07 665.2 43.97 683.7 50.23 682.27 45.96 693.09"/><polygon class="cls-1" points="0 518.3 3.58 515.49 17.43 523.41 12.28 526.75 24.42 534.57 4.25 526.91 10.05 524.15 0 518.3"/><polygon class="cls-1" points="286.26 518.3 289.84 515.49 303.69 523.41 298.54 526.75 310.68 534.57 290.51 526.91 296.31 524.15 286.26 518.3"/><polygon class="cls-1" points="42.15 608.41 37.59 608.55 31.14 593.96 37.27 594.33 32.13 580.82 43.83 598.95 37.53 597.74 42.15 608.41"/><polygon class="cls-1" points="748.3 761.05 736.02 743.49 742.83 744.04 739.3 731.19 751.04 748.42 743.36 748.08 748.3 761.05"/><polygon class="cls-1" points="796.96 436.65 781.29 433.84 781.93 435.73 775.17 434.41 776.17 437.38 768.33 434.62 772 439.24 784.43 440.89 783.6 438.47 787.79 439.75 786.98 437.33 796.96 436.65"/><polygon class="cls-1" points="772.12 693.09 776.67 693.09 782.65 678.29 776.53 678.86 781.22 665.2 770.12 683.7 776.38 682.27 772.12 693.09"/><polygon class="cls-1" points="726.15 518.3 729.73 515.49 743.59 523.41 738.43 526.75 750.58 534.57 730.4 526.91 736.2 524.15 726.15 518.3"/><polygon class="cls-1" points="768.3 608.41 763.75 608.55 757.29 593.96 763.42 594.33 758.28 580.82 769.98 598.95 763.68 597.74 768.3 608.41"/><polygon class="cls-1" points="247.82 616.9 243.27 617.05 236.82 602.45 242.95 602.82 237.81 589.32 249.51 607.45 243.21 606.23 247.82 616.9"/><polygon class="cls-1" points="637.93 757.09 633.38 757.24 626.92 742.64 633.06 743.01 627.91 729.51 639.61 747.64 633.31 746.42 637.93 757.09"/><polygon class="cls-1" points="660.42 463.22 655.87 463.37 649.41 448.77 655.55 449.14 650.41 435.64 662.11 453.77 655.8 452.55 660.42 463.22"/><polygon class="cls-1" points="379.42 567.09 386.82 567.09 383.12 559.69 388.53 559.69 373.73 543.47 379.42 555.28 373.73 555.28 379.42 567.09"/><polygon class="cls-1" points="658.96 551.74 657.52 559 665.5 556.8 664.45 562.11 683.24 550.74 670.55 554.03 671.66 548.45 658.96 551.74"/><polygon class="cls-1" points="433.5 510.45 418.42 495.93 425.96 495.93 419.84 483.98 434.64 499.35 427.81 499.63 433.5 510.45"/><polygon class="cls-1" points="485.88 524.68 491.29 524.68 497.55 510.45 489.86 511.59 497.55 499.35 496.41 499.35 484.45 513.86 491 515 485.88 524.68"/><polygon class="cls-1" points="450.58 602.38 455.42 597.83 455.42 584.17 448.59 587.58 448.59 573.06 443.47 596.41 449.44 591.57 450.58 602.38"/><polygon class="cls-1" points="510.74 823.22 504.17 822.29 496.3 811.12 503.85 809.98 495.49 798.11 513.12 814.24 505.45 813.73 510.74 823.22"/><polygon class="cls-1" points="403.62 667.27 417.28 650.77 410.45 650.77 415 638.24 401.91 654.47 409.6 654.75 403.62 667.27"/><polygon class="cls-1" points="471.33 443.69 488.98 431.54 482.41 429.67 490.21 418.87 473.18 430.9 480.5 433.27 471.33 443.69"/><polygon class="cls-1" points="538.78 758.15 524.98 741.75 531.81 741.7 527.15 729.21 540.38 745.33 532.7 745.67 538.78 758.15"/><polygon class="cls-1" points="441.94 758.97 448.42 738.54 442.09 741.1 441.62 727.78 435.56 747.73 442.79 745.12 441.94 758.97"/><polygon class="cls-1" points="493.56 657.6 485.88 671.54 487.87 671.54 484.45 677.52 487.58 677.52 482.46 684.07 488.01 682.08 493.56 670.83 491 670.83 493.56 667.27 491 667.27 493.56 657.6"/><polygon class="cls-1" points="337.16 767.99 329.47 781.94 331.46 781.94 328.05 787.92 331.18 787.92 326.06 794.46 331.61 792.47 337.16 781.23 334.59 781.23 337.16 777.67 334.59 777.67 337.16 767.99"/><polygon class="cls-1" points="544.23 464.34 551.91 478.29 549.92 478.29 553.34 484.26 550.21 484.26 555.33 490.81 549.78 488.82 544.23 477.58 546.79 477.58 544.23 474.02 546.79 474.02 544.23 464.34"/><polygon class="cls-1" points="572.19 526.36 575.76 523.54 589.62 531.46 584.46 534.8 596.61 542.62 576.44 534.97 582.24 532.21 572.19 526.36"/><polygon class="cls-1" points="621.05 600.19 624.63 597.37 638.49 605.29 633.33 608.64 645.48 616.46 625.31 608.8 631.1 606.04 621.05 600.19"/><polygon class="cls-1" points="533.75 624.96 529.2 625.1 522.74 610.51 528.88 610.88 523.74 597.37 535.44 615.5 529.13 614.28 533.75 624.96"/></svg>