<svg xmlns="http://www.w3.org/2000/svg" viewBox="0 0 850.39 850.39"><defs><style>.cls-1{fill:#4a8bab;}</style></defs><g id="Capa_2" data-name="Capa 2"><path class="cls-1" d="M46.39,75.87a6.83,6.83,0,0,1-1.27-1.14,4,4,0,0,1-.95-1.06c-.23-.56.22-1.44-.11-2-.13-.21-.46-.3-.56-.52a1,1,0,0,1-.07-.5c0,.06,1.12.51,1.24.61,0-.24.17-1.32,0-1.47a7.21,7.21,0,0,0,.92.55,12.38,12.38,0,0,0,2.29.94,7.61,7.61,0,0,1,1.74,1.2,11.74,11.74,0,0,1,1.91,1.6c.16.19.36.84.73.65a8.81,8.81,0,0,0,1.68-1.5,26.15,26.15,0,0,1,2.22-1.87c.64-.48,1.25-1,2.08-.67.28.11,1.58.3,1.38.71,0,0-.2.4-.24.52s-1.25,2.09-1.25,2.09l2-1.49.08.12-.24.36-3.42,3.78s-.2.24-.36.48a2.42,2.42,0,0,1-.52.61c-.2.16-.2.12-.2.36s-.32.12,0,.32,1.93,1.85,1.93,1.85a.4.4,0,0,1,.16.4,5,5,0,0,0,0,.6c0,.08.52.42.59.57a1.25,1.25,0,0,1,.05.81c-.05.34,0,1.25-.28,1.48s-.75,0-1-.16h-.2l0,.84s0,.16-.16,0-4.82-3.94-4.82-3.94-1.73,1.41-2,1.65-1.29,1.45-1.29,1.45-.36.32-.52.32c-.4,0-.28.11-.54.27s-.14.15-.35.15-.29-.12-.35-.08a5.7,5.7,0,0,0,.6-.58c-.13,0-2.21-.2-2.21-.2l-.45.72h-.72l3-3.78,0-.2-1.77,1.69c-.26.25-.63.39-.9.64s-.64.68-1,.6a8,8,0,0,1,1-1.12c.7-.79,1.5-1.5,2.19-2.3.48-.56,2.4-2.34,1.06-2.93a25.48,25.48,0,0,1-2.82-2c-.15-.11-1.26-1.46-1.34-1.35.12-.17.41-.3.58-.09l.84,1,1.13.85Z"/><path class="cls-1" d="M190.93,34.41a7.21,7.21,0,0,1,1.24,1.17,4,4,0,0,1,.92,1.1c.22.56-.26,1.43,0,2,.12.21.45.31.54.53a.82.82,0,0,1,0,.51c0-.06-1.09-.55-1.21-.65,0,.24-.22,1.31-.05,1.46a7.6,7.6,0,0,0-.9-.57c-2-1.34-4.29-1.95-5.83-3.91-.15-.2-.33-.85-.71-.68a8.77,8.77,0,0,0-1.72,1.45A24.8,24.8,0,0,1,181,38.58c-.65.46-1.27,1-2.09.6-.28-.12-1.58-.34-1.36-.75,0,0,.21-.39.26-.51s1.31-2.05,1.31-2.05l-2.06,1.42-.07-.12.25-.35,3.53-3.68s.2-.23.37-.47a2.81,2.81,0,0,1,.54-.59c.21-.15.21-.11.21-.35s.33-.11,0-.32-1.87-1.91-1.87-1.91c-.24-.15-.1-.48-.19-.7s-.43-.44-.63-.65c-.35-.39-.09-.81,0-1.24s.05-1,.43-1.29.75,0,1,.2h.2V25s0-.16.16,0,4.7,4.08,4.7,4.08l3.35-3s.37-.31.53-.3c.4,0,.29-.11.55-.26s.14-.14.36-.14c.07,0,.28.14.34.1a4.42,4.42,0,0,0-.61.56c.13,0,2.2.26,2.2.26l.46-.71h.25l.48,0-3.09,3.68,0,.21,1.81-1.64c.27-.24.64-.37.92-.62s.66-.65,1-.56a8,8,0,0,1-1,1.09c-.72.76-1.54,1.45-2.26,2.23-.49.54-2.46,2.27-1.14,2.89A25.36,25.36,0,0,1,192.68,35c.15.12,1.22,1.5,1.31,1.39a.39.39,0,0,1-.59.08l-.81-1-1.1-.88Z"/><path class="cls-1" d="M165.94,14.18a5.43,5.43,0,0,1,.45-1.26,3,3,0,0,1,.5-1c.34-.34,1.11-.27,1.39-.65s.09-.91.69-.79a.22.22,0,0,1,0,.14c-.16.14-.21.95-.23,1,.36-.14,1.18-.83,1-.06a11.37,11.37,0,0,0-.22,2.55,7.2,7.2,0,0,1-.27,1.65,6.62,6.62,0,0,1-.58,1.67c-.1.18-.51.51-.26.72a6.46,6.46,0,0,0,1.58.78A21.29,21.29,0,0,1,172,20c.54.33,1.09.62,1.09,1.32,0,.23.25,1.23-.11,1.2,0,0-.35,0-.45,0s-1.88-.3-1.88-.3l1.66,1-.06.09-.33-.07-3.74-1.38s-.23-.07-.46-.12a2.56,2.56,0,0,1-.59-.2c-.17-.1-.14-.11-.32,0s-.18-.2-.23.09-.78,1.94-.78,1.94c0,.22-.62.8-.72,1-.17.37-.55.31-.89.37s-.71.26-1.06.09-.2-.54-.17-.78l-.06-.14-.6.27s-.11.05,0-.11,1.45-4.65,1.45-4.65l-3.19-1.46s-.34-.17-.39-.29c-.11-.29-.16-.17-.35-.31s-.15-.06-.21-.22,0-.24,0-.27a3.05,3.05,0,0,0,.59.26c0-.09-.5-1.66-.5-1.66l-.65-.11-.07-.18-.14-.35,1.19.35c.51.15,1.28.58,1.8.48,0-.42-.69-.51-1-.65s-.46-.34-.73-.46-.68-.27-.72-.55a6,6,0,0,1,1.1.38c.77.28,1.52.65,2.31.92.54.19,2.39,1.06,2.43-.08a19.28,19.28,0,0,1,.67-2.64c0-.15.69-1.34.59-1.37.16,0,.33.21.23.4l-.48.9-.29,1.06Z"/><path class="cls-1" d="M240.58,228.25a6.88,6.88,0,0,1-1.28-1.14,3.94,3.94,0,0,1-.94-1.06c-.24-.55.21-1.44-.11-2-.14-.21-.47-.3-.57-.51a1,1,0,0,1-.06-.51c0,.06,1.11.51,1.23.61,0-.24.18-1.32,0-1.46a8.65,8.65,0,0,0,.93.54,12.74,12.74,0,0,0,2.86,1.31c.51.17.76.61,1.16.93a9.24,9.24,0,0,0,1,.68,5,5,0,0,1,1,.81c.16.2.36.84.73.66a8.87,8.87,0,0,0,1.68-1.51,26.44,26.44,0,0,1,2.22-1.87c.64-.48,1.24-1,2.07-.67.28.11,1.59.29,1.38.7,0,0-.2.41-.24.53s-1.24,2.09-1.24,2.09l2-1.49.08.12-.24.36-3.41,3.78s-.2.24-.36.48a2.42,2.42,0,0,1-.52.61c-.2.16-.2.12-.2.36s-.32.12,0,.32,1.93,1.85,1.93,1.85c.24.14.12.48.21.7s.45.42.65.63c.37.38.11.8,0,1.23s0,1-.39,1.3-.75,0-1-.16h-.2l0,.84s0,.16-.16,0-4.83-3.93-4.83-3.93l-3.25,3.1s-.36.32-.52.32c-.4,0-.28.11-.54.27s-.14.15-.36.15c-.06,0-.28-.12-.34-.08a5.7,5.7,0,0,0,.6-.58c-.13,0-2.22-.2-2.22-.2l-.44.72h-.72l3-3.78,0-.2-1.77,1.69c-.26.25-.62.39-.89.65s-.65.67-1,.59a7.87,7.87,0,0,1,1-1.12c.7-.78,1.49-1.5,2.19-2.3.48-.56,2.39-2.34,1-2.93a25.65,25.65,0,0,1-2.82-2c-.15-.12-1.26-1.47-1.35-1.35.13-.17.42-.3.59-.1l.84,1,1.13.84Z"/><path class="cls-1" d="M266.83,240.56a5.44,5.44,0,0,1,1.09.78,3.16,3.16,0,0,1,.83.75c.23.41-.05,1.13.25,1.5s.85.34.58.88a.22.22,0,0,1-.14,0c-.1-.19-.87-.47-.87-.49,0,.39.48,1.36-.22,1a12.25,12.25,0,0,0-2.39-.9,9.41,9.41,0,0,1-3-1.71c-.14-.14-.35-.62-.62-.44a6.73,6.73,0,0,0-1.18,1.31,20.27,20.27,0,0,1-1.57,1.64c-.45.43-.88.88-1.55.69-.23-.06-1.26-.09-1.14-.43,0,0,.13-.33.15-.42s.79-1.73.79-1.73l-1.44,1.32-.07-.08.16-.31,2.33-3.22a4.48,4.48,0,0,0,.24-.41,2.21,2.21,0,0,1,.36-.51c.14-.14.14-.11.12-.3s.24-.12,0-.25-1.66-1.27-1.66-1.27c-.2-.1-.6-.82-.78-1s-.16-.61-.12-.95-.06-.76.19-1.05.59-.05.8.05l.16,0-.1-.65s0-.13.12,0,4.09,2.66,4.09,2.66l2.26-2.69s.26-.28.38-.29c.31,0,.21-.11.4-.26s.09-.12.26-.15.24.08.27,0a5.78,5.78,0,0,0-.41.5l1.74,0,.28-.6.19,0,.37,0-.66,1.06c-.27.44-.89,1.07-.93,1.6.4.1.67-.53.88-.78s.46-.36.65-.58.44-.58.71-.54a6.14,6.14,0,0,1-.65.95c-.48.67-1,1.29-1.51,2-.33.48-1.67,2-.58,2.37a19.69,19.69,0,0,1,2.37,1.35c.13.08,1.1,1,1.16.94-.08.14-.3.27-.45.12l-.74-.71-1-.56Z"/><path class="cls-1" d="M33.64,268.75a7.12,7.12,0,0,1,.29,1.68,4,4,0,0,1,.07,1.42c-.16.59-1.06,1-1.13,1.6,0,.24.18.52.12.75a.86.86,0,0,1-.26.43s-.56-1.09-.59-1.24c-.13.2-1,.92-.92,1.14a7,7,0,0,0-.37-1,13.47,13.47,0,0,0-1.42-2.81,3.78,3.78,0,0,1-.32-1.45c-.09-.38-.21-.76-.33-1.13a4.78,4.78,0,0,1-.24-1.24c0-.25.24-.88-.17-1a8.44,8.44,0,0,0-2.24.12,25.71,25.71,0,0,1-2.91.08c-.8,0-1.59,0-2-.77-.15-.27-1.06-1.22-.65-1.42l.52-.25c.11-.07,2.28-.86,2.28-.86l-2.5-.09v-.15l.42-.13,5-.82a5.89,5.89,0,0,0,.59-.15,2.45,2.45,0,0,1,.78-.15c.26,0,.23,0,.38-.15s.33.1.2-.25-.35-2.65-.35-2.65c-.1-.27.21-.45.27-.68a2.53,2.53,0,0,0-.11-.9c-.05-.52.41-.7.75-1s.63-.73,1.12-.77.58.48.69.76l.15.13.5-.69s.1-.12.12.1,1.32,6.09,1.32,6.09l4.47-.39a1.5,1.5,0,0,1,.61.08c.31.25.29.09.59.12s.2,0,.37.11.15.27.22.28a4.39,4.39,0,0,0-.83.08c.1.08,1.6,1.53,1.6,1.53l.8-.28.19.15.38.3-4.69,1.09-.09.19,2.44-.22c.35,0,.73.08,1.1.06s.92-.13,1.14.15a7.89,7.89,0,0,1-1.45.27c-1,.18-2.11.23-3.15.43-.73.13-3.33.33-2.65,1.62a26.06,26.06,0,0,1,.92,3.36c0,.19.07,1.94.21,1.9-.2.06-.51,0-.52-.29l0-1.31L34,269.23Z"/><path class="cls-1" d="M21.06,251.24a5.44,5.44,0,0,1,1.09.78,3.28,3.28,0,0,1,.82.75c.23.41,0,1.14.24,1.51s.85.34.57.88a.16.16,0,0,1-.13,0c-.1-.19-.86-.46-.87-.48,0,.39.48,1.36-.22,1a12.28,12.28,0,0,0-2.39-.91,6.88,6.88,0,0,1-1.51-.7,6.76,6.76,0,0,1-1.45-1c-.15-.14-.35-.63-.63-.45a6.67,6.67,0,0,0-1.18,1.3,20.39,20.39,0,0,1-1.58,1.64c-.46.42-.88.87-1.56.68-.22-.06-1.26-.1-1.13-.43,0,0,.13-.33.15-.43s.8-1.73.8-1.73l-1.45,1.32-.07-.09.16-.3,2.35-3.21a4.31,4.31,0,0,0,.25-.41,1.92,1.92,0,0,1,.35-.51c.15-.14.15-.11.13-.29s.24-.13,0-.26-1.66-1.28-1.66-1.28c-.2-.09-.59-.82-.77-1s-.15-.62-.12-1-.05-.76.21-1,.58-.05.79,0h.16l-.1-.66s0-.12.12,0,4.08,2.68,4.08,2.68L18.77,245s.25-.28.38-.3c.31,0,.21-.11.4-.25s.09-.13.26-.15.23.08.27,0a3.64,3.64,0,0,0-.41.5l1.74,0,.28-.6.19,0,.37,0-.66,1.05c-.28.45-.9,1.08-.95,1.6.4.1.68-.52.89-.77s.46-.36.65-.58.44-.57.72-.54a6.26,6.26,0,0,1-.67,1c-.48.67-1,1.28-1.52,2-.32.47-1.67,2-.58,2.36a19.74,19.74,0,0,1,2.35,1.36c.13.08,1.11,1,1.16.95-.08.14-.3.26-.45.12l-.73-.72-.95-.56Z"/><path class="cls-1" d="M119.14,209.76a5.38,5.38,0,0,1,1.08.78,3.11,3.11,0,0,1,.82.75c.23.41-.05,1.14.24,1.51s.85.34.58.88a.17.17,0,0,1-.14,0c-.1-.19-.86-.46-.86-.48,0,.39.47,1.36-.23,1a12.28,12.28,0,0,0-2.39-.91,7.37,7.37,0,0,1-1.51-.7,7,7,0,0,1-1.45-1c-.14-.14-.35-.63-.62-.45a6.72,6.72,0,0,0-1.19,1.3,18.8,18.8,0,0,1-1.58,1.64c-.45.42-.88.87-1.55.68-.23-.06-1.26-.1-1.13-.44,0,0,.12-.32.14-.42s.8-1.73.8-1.73l-1.44,1.32-.07-.09.15-.3,2.36-3.21s.13-.21.24-.41a1.94,1.94,0,0,1,.36-.51c.14-.14.14-.11.12-.3s.25-.12,0-.25-1.65-1.28-1.65-1.28c-.2-.09-.6-.82-.77-1-.32-.27-.16-.62-.12-1s-.06-.76.2-1,.58-.05.8,0h.15l-.1-.66s0-.12.13,0,4.07,2.68,4.07,2.68l2.28-2.68s.26-.27.38-.29c.31,0,.21-.11.4-.26s.1-.12.27-.14.23.08.27,0a3.83,3.83,0,0,0-.42.5l1.74,0,.28-.6.19,0,.38,0-.67,1c-.28.45-.9,1.07-.94,1.6.4.1.67-.52.89-.77s.45-.36.64-.58.45-.58.72-.54a6.2,6.2,0,0,1-.66,1c-.48.67-1,1.28-1.52,2-.33.48-1.68,2-.59,2.37a19.22,19.22,0,0,1,2.36,1.36c.13.08,1.1,1,1.16.95-.09.14-.3.26-.45.12l-.74-.72-.94-.56Z"/><path class="cls-1" d="M133.64,362.24a7,7,0,0,1-1.47.88,3.92,3.92,0,0,1-1.29.58c-.61.06-1.31-.63-1.9-.47-.24.06-.42.35-.66.38a.86.86,0,0,1-.5-.09c.05,0,.82-.91,1-1-.23,0-1.21-.56-1.4-.44a7.76,7.76,0,0,0,.8-.72c1.5-1.28,2.6-3.06,4.36-4,.29-.16,1.87-.67,1.82-1a8.44,8.44,0,0,0-.94-2.05,28.58,28.58,0,0,1-1.12-2.68c-.27-.75-.58-1.48,0-2.17.19-.24.75-1.43,1.08-1.11,0,0,.33.31.43.38s1.62,1.81,1.62,1.81l-.82-2.36.14,0,.27.34,2.59,4.39s.18.26.36.48a2.92,2.92,0,0,1,.42.68c.09.24,0,.23.28.3s0,.35.31.1,2.34-1.29,2.34-1.29c.21-.19.49,0,.73,0s.53-.29.79-.42c.48-.24.81.13,1.19.34s.92.31,1.12.77-.23.71-.46.91l-.06.19.82.21s.16.05,0,.15-5.2,3.44-5.2,3.44l2,4a1.57,1.57,0,0,1,.16.59c-.12.38,0,.3.1.6s.09.17,0,.38-.2.24-.18.3a4.52,4.52,0,0,0-.38-.74c0,.13-.85,2.05-.85,2.05l.56.64-.07.23-.14.46-2.72-4-.21,0,1.09,2.19c.16.32.18.71.35,1s.45.82.27,1.12a7.28,7.28,0,0,1-.78-1.25c-.54-.91-1-1.88-1.54-2.78-.39-.63-1.52-3-2.48-1.88a26.28,26.28,0,0,1-2.8,2.08c-.15.11-1.77.77-1.69.88-.13-.17-.16-.48.08-.58l1.22-.51,1.14-.82Z"/><path class="cls-1" d="M116.36,360.71a5.46,5.46,0,0,1,.46-1.26,3.21,3.21,0,0,1,.51-1c.33-.33,1.1-.25,1.38-.63s.11-.91.7-.79a.17.17,0,0,1,0,.14c-.16.14-.22.95-.24,1,.37-.14,1.19-.82,1-.05a12,12,0,0,0-.24,2.54,7.2,7.2,0,0,1-.27,1.65,6.93,6.93,0,0,1-.6,1.67c-.1.18-.51.51-.27.72a6.9,6.9,0,0,0,1.58.8,20.36,20.36,0,0,1,2,1.08c.53.33,1.07.62,1.07,1.32,0,.23.24,1.24-.12,1.21a4,4,0,0,0-.45,0c-.1,0-1.88-.31-1.88-.31l1.66,1-.06.09-.34-.07-3.72-1.41s-.24-.08-.46-.13a1.66,1.66,0,0,1-.59-.21c-.17-.1-.14-.11-.32,0s-.18-.2-.23.09-.8,1.94-.8,1.94c0,.22-.63.79-.72,1-.17.38-.55.31-.89.37s-.71.25-1.06.08-.21-.55-.17-.78l-.06-.14-.6.27s-.12,0,0-.12,1.49-4.64,1.49-4.64l-3.19-1.49s-.33-.17-.38-.28c-.11-.3-.16-.18-.35-.32s-.15-.06-.21-.22,0-.24,0-.27a5.27,5.27,0,0,0,.59.27c0-.09-.48-1.67-.48-1.67l-.65-.11-.07-.18-.14-.35,1.19.36c.5.15,1.28.58,1.8.48,0-.41-.69-.51-1-.65s-.46-.34-.73-.47-.67-.27-.71-.55a7.08,7.08,0,0,1,1.09.39c.77.29,1.52.66,2.3.94.54.19,2.39,1.08,2.43-.07a20.07,20.07,0,0,1,.69-2.63c0-.15.71-1.34.6-1.37.16,0,.34.22.24.4l-.49.9-.3,1.06Z"/><path class="cls-1" d="M344.66,397.06a7.17,7.17,0,0,1-1.46.88,4,4,0,0,1-1.3.59c-.6.06-1.31-.63-1.89-.47-.24.06-.43.36-.66.38a.93.93,0,0,1-.5-.08s.81-.91.94-1c-.23-.05-1.21-.56-1.39-.44a7.68,7.68,0,0,0,.79-.71c1.33-1.14,2.28-2.83,3.77-3.76.48-.3,2.22-1.23,2.12-1.86a4.47,4.47,0,0,0-.66-1.5,27.18,27.18,0,0,1-1.13-2.68c-.27-.76-.58-1.48,0-2.18.19-.23.75-1.43,1.08-1.11,0,0,.32.31.43.39s1.62,1.8,1.62,1.8l-.82-2.35.14,0,.27.34,2.6,4.38a5.69,5.69,0,0,0,.35.49,2.66,2.66,0,0,1,.43.68c.09.24.05.23.28.3s0,.34.31.09,2.33-1.29,2.33-1.29c.22-.19.49,0,.73,0s.54-.3.8-.43c.47-.24.8.13,1.19.35s.91.31,1.12.76-.23.71-.46.91l-.06.19.82.21s.16.05-.05.16-5.19,3.44-5.19,3.44l2,4s.2.44.15.6c-.12.38,0,.3.1.6s.1.17,0,.38-.21.24-.18.3a7,7,0,0,0-.38-.74c0,.12-.85,2.05-.85,2.05l.56.64-.07.23-.14.46-2.73-4-.2,0,1.09,2.19c.16.32.18.71.35,1.05s.45.81.27,1.12a7.78,7.78,0,0,1-.78-1.26c-.54-.9-1-1.87-1.55-2.77-.39-.63-1.52-3-2.48-1.88a26.36,26.36,0,0,1-2.79,2.08c-.16.12-1.78.78-1.69.89-.13-.17-.16-.48.08-.58l1.21-.51,1.14-.83Z"/><path class="cls-1" d="M371,378.58a5.13,5.13,0,0,1,1.09.77,3.16,3.16,0,0,1,.83.75c.23.41-.05,1.14.25,1.51s.85.34.58.88a.22.22,0,0,1-.14,0c-.1-.19-.87-.46-.87-.48,0,.39.48,1.36-.22,1a11.64,11.64,0,0,0-2.39-.9,8,8,0,0,1-1.52-.7,6.61,6.61,0,0,1-1.45-1c-.15-.14-.36-.63-.63-.45a7,7,0,0,0-1.18,1.31,22.2,22.2,0,0,1-1.57,1.65c-.45.42-.88.87-1.55.69-.23-.06-1.26-.1-1.13-.43,0,0,.12-.33.14-.43S362,381,362,381l-1.44,1.33-.07-.09.16-.3,2.33-3.23a3.69,3.69,0,0,0,.24-.4,2.07,2.07,0,0,1,.36-.52c.14-.14.14-.11.12-.3s.24-.12,0-.25-1.66-1.27-1.66-1.27c-.2-.09-.6-.82-.78-1s-.16-.62-.12-1-.06-.75.2-1,.58-.06.79,0l.16,0-.1-.65s0-.12.12,0,4.09,2.65,4.09,2.65l2.26-2.68s.26-.28.38-.3c.31,0,.21-.11.4-.26s.09-.12.26-.14.24.07.28,0a3.83,3.83,0,0,0-.42.5l1.74,0,.28-.61.19,0,.37,0-.66,1.06c-.27.44-.89,1.08-.93,1.61.4.09.67-.53.88-.79s.46-.35.65-.57.44-.58.71-.55a5.57,5.57,0,0,1-.66.95c-.47.67-1,1.29-1.5,2-.33.47-1.67,2-.58,2.36a20.94,20.94,0,0,1,2.37,1.36c.13.07,1.1,1,1.16.93-.08.15-.3.27-.45.13l-.74-.71-.95-.56Z"/><path class="cls-1" d="M352.5,43.18a5.16,5.16,0,0,1,1.08.79,3.13,3.13,0,0,1,.82.76c.22.41-.06,1.13.23,1.51s.85.34.57.88a.17.17,0,0,1-.14,0c-.1-.19-.86-.47-.86-.49,0,.39.47,1.37-.23,1a12.5,12.5,0,0,0-2.38-.93,7.41,7.41,0,0,1-1.51-.71,7.06,7.06,0,0,1-1.45-1c-.14-.14-.34-.63-.62-.45a6.66,6.66,0,0,0-1.19,1.29,18.8,18.8,0,0,1-1.59,1.63c-.46.42-.89.87-1.56.67-.22-.06-1.26-.1-1.13-.44,0,0,.13-.33.15-.42s.81-1.72.81-1.72l-1.45,1.31-.07-.09.16-.3,2.37-3.2s.14-.21.25-.41a1.88,1.88,0,0,1,.36-.51c.14-.14.14-.1.12-.29s.25-.12,0-.25-1.64-1.3-1.64-1.3c-.2-.09-.6-.82-.77-1s-.15-.62-.11-1-.05-.75.21-1,.58,0,.79.06l.16,0-.1-.65s0-.13.13,0,4.05,2.7,4.05,2.7l2.3-2.65s.26-.28.38-.29c.32,0,.21-.11.4-.26s.1-.12.27-.14.23.08.27,0a4.84,4.84,0,0,0-.42.5l1.74,0,.29-.59.19,0,.37,0-.67,1.05c-.28.44-.91,1.07-1,1.6.41.1.68-.53.9-.78s.46-.35.65-.57.45-.57.72-.53a5.55,5.55,0,0,1-.67.94c-.48.67-1.05,1.28-1.53,2-.33.47-1.69,2-.6,2.35a22.15,22.15,0,0,1,2.35,1.39c.13.08,1.1,1,1.15.95-.08.14-.3.26-.45.11l-.73-.71-.94-.57Z"/><path class="cls-1" d="M223.2,133.44a5.43,5.43,0,0,1,1.07.8,3.1,3.1,0,0,1,.81.76c.22.42-.07,1.14.22,1.51s.84.36.56.89a.18.18,0,0,1-.14,0c-.09-.19-.85-.47-.85-.5,0,.4.45,1.37-.24,1a11.48,11.48,0,0,0-2.38-1,7.16,7.16,0,0,1-1.5-.73,6.39,6.39,0,0,1-1.43-1c-.15-.14-.34-.63-.62-.46a6.41,6.41,0,0,0-1.2,1.29,20.38,20.38,0,0,1-1.61,1.61c-.46.42-.89.86-1.56.66-.23-.06-1.26-.11-1.13-.45,0,0,.13-.33.15-.42s.83-1.72.83-1.72l-1.46,1.3-.07-.09.16-.3,2.4-3.18s.14-.2.25-.4a2.14,2.14,0,0,1,.36-.5c.15-.14.15-.11.13-.3s.25-.12,0-.25-1.63-1.31-1.63-1.31c-.2-.09-.59-.82-.76-1s-.14-.62-.1-1-.05-.76.22-1,.58,0,.79.06l.16,0-.09-.65s0-.13.12,0,4,2.73,4,2.73l2.33-2.64s.26-.27.38-.28c.31,0,.21-.11.4-.25s.1-.12.27-.14.23.07.27,0a3.84,3.84,0,0,0-.42.49h1.73l.3-.59.19,0,.37,0c-.22.35-.45.7-.68,1s-.92,1.06-1,1.59c.4.1.68-.52.9-.76s.46-.35.66-.57.45-.57.73-.53a6.24,6.24,0,0,1-.68.94c-.49.66-1.06,1.27-1.55,1.94-.34.47-1.71,2-.62,2.35a21,21,0,0,1,2.33,1.41c.13.08,1.09,1.05,1.15,1-.09.14-.3.26-.45.11l-.73-.72-.93-.58Z"/><path class="cls-1" d="M403,161.14a5.11,5.11,0,0,1,1.08.78,3,3,0,0,1,.82.76c.23.41-.06,1.14.23,1.51s.85.35.57.88a.19.19,0,0,1-.13,0c-.1-.19-.86-.47-.86-.49,0,.39.46,1.36-.23,1a11.7,11.7,0,0,0-2.39-.92,7.45,7.45,0,0,1-1.51-.72,6.32,6.32,0,0,1-1.44-1c-.15-.14-.35-.62-.62-.45a6.72,6.72,0,0,0-1.19,1.3,22.12,22.12,0,0,1-1.59,1.62c-.46.43-.89.87-1.56.68-.23-.07-1.26-.11-1.13-.44,0,0,.12-.33.15-.43s.81-1.72.81-1.72l-1.46,1.31-.07-.09.16-.3,2.38-3.2s.13-.2.24-.4a2.21,2.21,0,0,1,.36-.51c.14-.14.15-.11.13-.3s.24-.12,0-.25-1.65-1.29-1.65-1.29c-.2-.1-.59-.82-.76-1s-.16-.62-.12-1-.05-.76.21-1,.59-.05.8.05l.16,0-.1-.65s0-.12.12,0,4.06,2.7,4.06,2.7l2.3-2.66s.25-.28.38-.29c.31,0,.21-.11.4-.26s.09-.12.26-.14.24.08.28,0a3.16,3.16,0,0,0-.42.5h1.73l.29-.6.19,0,.38,0-.68,1c-.28.45-.9,1.07-.95,1.6.4.1.68-.52.89-.77s.46-.35.65-.57.45-.58.73-.54a7,7,0,0,1-.67.94c-.49.67-1.05,1.28-1.53,2-.34.47-1.69,2-.6,2.36a20.47,20.47,0,0,1,2.34,1.38c.13.08,1.1,1.05,1.16.95-.09.14-.3.26-.45.12l-.74-.72-.94-.57Z"/><path class="cls-1" d="M359.26,269.8a5.16,5.16,0,0,1,1.08.79,3.28,3.28,0,0,1,.82.75c.22.42-.06,1.14.23,1.51s.85.35.57.89a.22.22,0,0,1-.14,0c-.1-.19-.86-.47-.86-.49,0,.39.47,1.36-.23,1a12.47,12.47,0,0,0-2.38-.92,7.45,7.45,0,0,1-1.51-.72,6.37,6.37,0,0,1-1.45-1c-.14-.14-.34-.62-.62-.45a7,7,0,0,0-1.19,1.3A20.34,20.34,0,0,1,352,274c-.46.42-.89.86-1.56.67-.22-.07-1.26-.11-1.13-.44,0,0,.13-.33.15-.43s.81-1.72.81-1.72l-1.45,1.31-.07-.09.16-.3,2.37-3.2s.14-.2.25-.4a1.73,1.73,0,0,1,.36-.51c.14-.14.14-.11.13-.3s.24-.12,0-.25-1.64-1.29-1.64-1.29c-.2-.09-.6-.82-.77-1s-.15-.62-.11-1,0-.75.21-1,.58-.05.79,0h.16l-.1-.66s0-.12.13,0,4.05,2.7,4.05,2.7l2.3-2.66s.26-.28.38-.29c.32,0,.21-.1.4-.25s.1-.12.27-.14.23.07.27,0a4.87,4.87,0,0,0-.42.49h1.74l.29-.6.19,0,.37,0-.67,1.05c-.28.44-.91,1.06-1,1.59.41.1.68-.52.9-.77s.46-.35.65-.57.45-.58.72-.54a5.63,5.63,0,0,1-.67,1c-.48.66-1,1.28-1.53,1.95-.33.47-1.69,2-.6,2.36a19.9,19.9,0,0,1,2.35,1.38c.13.08,1.1,1,1.15.95-.08.14-.3.27-.45.12l-.73-.72-.94-.57Z"/><path class="cls-1" d="M236.51,359.92a5.39,5.39,0,0,1,1.09.77,3.29,3.29,0,0,1,.83.74c.23.42-.05,1.14.25,1.51s.85.34.58.88a.18.18,0,0,1-.14,0c-.1-.19-.86-.46-.86-.48,0,.39.48,1.36-.22,1a11.7,11.7,0,0,0-2.4-.89,7.41,7.41,0,0,1-1.52-.69,6.92,6.92,0,0,1-1.46-1c-.14-.14-.35-.62-.62-.45a6.44,6.44,0,0,0-1.17,1.32,22.2,22.2,0,0,1-1.57,1.65c-.46.43-.88.88-1.55.69-.23-.06-1.26-.09-1.14-.42,0,0,.12-.33.15-.43s.78-1.73.78-1.73l-1.43,1.33-.07-.09.15-.3,2.33-3.24a3.69,3.69,0,0,0,.24-.4,2.15,2.15,0,0,1,.35-.52c.14-.14.15-.11.13-.3s.24-.12,0-.25-1.66-1.26-1.66-1.26c-.2-.1-.61-.82-.78-1-.32-.27-.16-.62-.13-1s-.06-.76.2-1,.58-.05.79,0l.16,0-.11-.65s0-.13.13,0,4.09,2.64,4.09,2.64l2.26-2.69s.25-.28.38-.29c.31,0,.21-.11.4-.26s.09-.12.26-.15.23.07.27,0a4.58,4.58,0,0,0-.41.5l1.74,0,.28-.6.19,0,.37,0-.66,1.06c-.27.44-.89,1.08-.93,1.61.4.09.67-.53.88-.79s.46-.36.64-.58.45-.58.72-.54a5.57,5.57,0,0,1-.66.95c-.47.67-1,1.29-1.5,2-.32.47-1.66,2-.57,2.36a21.17,21.17,0,0,1,2.37,1.35c.13.08,1.11,1,1.17.94-.08.14-.3.26-.45.12l-.74-.71L237,360Z"/><path class="cls-1" d="M17.58,384.41a5.51,5.51,0,0,1,1.09.77,3.16,3.16,0,0,1,.83.75c.23.41,0,1.14.26,1.51s.85.33.58.87a.22.22,0,0,1-.14,0c-.1-.19-.87-.46-.87-.48,0,.39.49,1.36-.21,1a11.92,11.92,0,0,0-2.4-.89,7.45,7.45,0,0,1-1.52-.7,6.92,6.92,0,0,1-1.46-1c-.14-.14-.35-.62-.62-.44a7,7,0,0,0-1.18,1.31,22.18,22.18,0,0,1-1.56,1.65c-.46.43-.88.88-1.56.7-.22-.06-1.25-.09-1.13-.43,0,0,.12-.33.14-.43s.79-1.73.79-1.73l-1.44,1.33-.07-.09.16-.3,2.33-3.23s.13-.21.23-.41a2.21,2.21,0,0,1,.36-.51c.14-.14.14-.11.12-.3s.24-.12,0-.25-1.66-1.27-1.66-1.27c-.2-.09-.6-.81-.78-1s-.16-.62-.12-1-.07-.75.19-1,.59-.06.8,0l.16,0-.11-.65s0-.12.13,0S13,380.85,13,380.85l2.26-2.69s.25-.28.38-.3c.31,0,.2-.11.39-.26s.1-.12.27-.14.23.07.27,0a3.5,3.5,0,0,0-.41.5l1.73,0,.28-.6.19,0,.38,0-.66,1.05c-.28.45-.89,1.08-.93,1.61.4.1.67-.53.88-.78s.45-.36.64-.58.44-.58.72-.55a6.2,6.2,0,0,1-.66.95c-.48.68-1,1.3-1.5,2-.33.48-1.66,2-.57,2.37A19.69,19.69,0,0,1,19,384.7c.13.07,1.11,1,1.16.93-.08.14-.29.27-.44.12l-.75-.7-.95-.56Z"/><path class="cls-1" d="M46.39,513.38a6.77,6.77,0,0,1-1.27-1.13,4,4,0,0,1-.95-1.07c-.23-.55.22-1.44-.11-1.95-.13-.21-.46-.29-.56-.51a1,1,0,0,1-.07-.5s1.12.5,1.24.6c0-.24.17-1.32,0-1.46a8.6,8.6,0,0,0,.92.55,13.11,13.11,0,0,0,2.29.94A7.56,7.56,0,0,1,49.62,510a12.27,12.27,0,0,1,1.91,1.6c.16.2.36.84.73.66a9.17,9.17,0,0,0,1.68-1.5,28.28,28.28,0,0,1,2.22-1.88c.64-.48,1.25-1,2.08-.66.28.11,1.58.29,1.38.7,0,0-.2.4-.24.52s-1.25,2.09-1.25,2.09l2-1.48.08.12-.24.36-3.42,3.78s-.2.24-.36.48a2.56,2.56,0,0,1-.52.6c-.2.16-.2.12-.2.37s-.32.12,0,.32S57.41,518,57.41,518a.4.4,0,0,1,.16.4,5,5,0,0,0,0,.6c0,.08.52.42.59.56a1.28,1.28,0,0,1,.05.82c-.05.34,0,1.24-.28,1.48s-.75,0-1-.17h-.2l0,.85s0,.16-.16,0-4.82-3.94-4.82-3.94-1.73,1.41-2,1.65-1.29,1.44-1.29,1.44-.36.33-.52.33c-.4,0-.28.11-.54.27s-.14.14-.35.15-.29-.13-.35-.09a4.84,4.84,0,0,0,.6-.58c-.13,0-2.21-.2-2.21-.2l-.45.73h-.72l3-3.78,0-.2L45.11,520c-.26.24-.63.39-.9.64s-.64.68-1,.59a8.57,8.57,0,0,1,1-1.11c.7-.79,1.5-1.5,2.19-2.3.48-.56,2.4-2.34,1.06-2.93a25.48,25.48,0,0,1-2.82-2c-.15-.12-1.26-1.47-1.34-1.35.12-.17.41-.3.58-.1l.84,1,1.13.84Z"/><path class="cls-1" d="M190.93,471.93a7.21,7.21,0,0,1,1.24,1.17,4.11,4.11,0,0,1,.92,1.09c.22.57-.26,1.43,0,1.95.12.22.45.32.54.54a.78.78,0,0,1,0,.5c0-.06-1.09-.54-1.21-.64,0,.24-.22,1.31-.05,1.46a9.22,9.22,0,0,0-.9-.58c-2-1.33-4.29-1.95-5.83-3.91-.15-.2-.33-.85-.71-.67a8.44,8.44,0,0,0-1.72,1.45,26.51,26.51,0,0,1-2.28,1.8c-.65.47-1.27,1-2.09.6-.28-.11-1.58-.33-1.36-.74,0,0,.21-.39.26-.51s1.31-2.06,1.31-2.06l-2.06,1.43-.07-.12.25-.36,3.53-3.67s.2-.24.37-.47a2.81,2.81,0,0,1,.54-.59c.21-.15.21-.11.21-.35s.33-.12,0-.33-1.87-1.9-1.87-1.9c-.24-.16-.1-.48-.19-.71s-.43-.43-.63-.65c-.35-.39-.09-.81,0-1.23s.05-1,.43-1.29.75,0,1,.2h.2v-.84s0-.16.16,0,4.7,4.08,4.7,4.08l3.35-3s.37-.31.53-.31c.4,0,.29-.1.55-.26s.14-.13.36-.13c.07,0,.28.13.34.09a5.16,5.16,0,0,0-.61.56l2.2.27.46-.71h.73l-3.09,3.69,0,.2,1.81-1.63c.27-.24.64-.38.92-.62s.66-.66,1-.56a7.93,7.93,0,0,1-1,1.08c-.72.77-1.54,1.46-2.26,2.24-.49.54-2.46,2.26-1.14,2.89a25.52,25.52,0,0,1,2.75,2.13c.15.12,1.22,1.51,1.31,1.4-.13.16-.42.28-.59.07l-.81-1-1.1-.88Z"/><path class="cls-1" d="M165.94,451.69a5.36,5.36,0,0,1,.45-1.25,3.13,3.13,0,0,1,.5-1c.34-.33,1.11-.26,1.39-.64s.09-.91.69-.8a.23.23,0,0,1,0,.14c-.16.15-.21,1-.23,1,.36-.13,1.18-.82,1-.05a11.33,11.33,0,0,0-.22,2.54,7.2,7.2,0,0,1-.27,1.65,6.56,6.56,0,0,1-.58,1.68c-.1.17-.51.5-.26.72a6.46,6.46,0,0,0,1.58.78,21.29,21.29,0,0,1,2,1.07c.54.32,1.09.61,1.09,1.31,0,.24.25,1.24-.11,1.21,0,0-.35,0-.45,0s-1.88-.3-1.88-.3l1.66,1-.06.09-.33-.07-3.74-1.38a3.37,3.37,0,0,0-.46-.12,2.17,2.17,0,0,1-.59-.21c-.17-.1-.14-.11-.32,0s-.18-.2-.23.1-.78,1.93-.78,1.93c0,.22-.62.81-.72,1-.17.38-.55.32-.89.38s-.71.26-1.06.09-.2-.55-.17-.78l-.06-.15-.6.28s-.11,0,0-.12,1.45-4.65,1.45-4.65l-3.19-1.46s-.34-.17-.39-.28c-.11-.29-.16-.18-.35-.32s-.15,0-.21-.21,0-.25,0-.27a3.83,3.83,0,0,0,.59.26c0-.09-.5-1.66-.5-1.66L159,453l-.07-.17-.14-.35,1.19.35a4.76,4.76,0,0,0,1.8.47c0-.41-.69-.5-1-.64s-.46-.34-.73-.46-.68-.28-.72-.55a6,6,0,0,1,1.1.38c.77.28,1.52.65,2.31.92.54.19,2.39,1.06,2.43-.08a19.28,19.28,0,0,1,.67-2.64c0-.15.69-1.35.59-1.38.16,0,.33.22.23.4l-.48.91-.29,1.06Z"/><path class="cls-1" d="M240.58,665.77a7.26,7.26,0,0,1-1.28-1.14,4.1,4.1,0,0,1-.94-1.06c-.24-.56.21-1.44-.11-2-.14-.21-.47-.3-.57-.51a1,1,0,0,1-.06-.51c0,.06,1.11.51,1.23.61,0-.24.18-1.32,0-1.47a7.32,7.32,0,0,0,.93.55,13.69,13.69,0,0,0,2.86,1.31c.51.17.76.6,1.16.93s.63.46,1,.68a4.64,4.64,0,0,1,1,.81c.16.2.36.84.73.65a8.81,8.81,0,0,0,1.68-1.5,26.56,26.56,0,0,1,2.22-1.88c.64-.48,1.24-1,2.07-.66.28.11,1.59.29,1.38.7,0,0-.2.4-.24.52s-1.24,2.09-1.24,2.09l2-1.49.08.12-.24.37-3.41,3.78s-.2.24-.36.48a2.84,2.84,0,0,1-.52.61c-.2.16-.2.12-.2.36s-.32.12,0,.32,1.93,1.84,1.93,1.84c.24.15.12.48.21.7s.45.43.65.63c.37.38.11.81,0,1.24s0,1-.39,1.3-.75,0-1-.17h-.2l0,.85s0,.16-.16,0-4.83-3.94-4.83-3.94l-3.25,3.1s-.36.32-.52.33c-.4,0-.28.11-.54.27s-.14.14-.36.15c-.06,0-.28-.13-.34-.08a5.64,5.64,0,0,0,.6-.59c-.13,0-2.22-.19-2.22-.19l-.44.72h-.72l3-3.78,0-.2-1.77,1.69c-.26.25-.62.39-.89.64s-.65.68-1,.6a7.35,7.35,0,0,1,1-1.12c.7-.79,1.49-1.5,2.19-2.3.48-.56,2.39-2.34,1-2.93a25.65,25.65,0,0,1-2.82-2c-.15-.12-1.26-1.47-1.35-1.36.13-.17.42-.3.59-.09l.84,1,1.13.85Z"/><path class="cls-1" d="M266.83,678.08a5.44,5.44,0,0,1,1.09.78,3,3,0,0,1,.83.74c.23.41-.05,1.14.25,1.51s.85.34.58.88a.17.17,0,0,1-.14,0c-.1-.19-.87-.46-.87-.48,0,.39.48,1.36-.22,1a11.64,11.64,0,0,0-2.39-.9,9.94,9.94,0,0,1-3-1.71c-.14-.14-.35-.62-.62-.45a7,7,0,0,0-1.18,1.31,20.4,20.4,0,0,1-1.57,1.65c-.45.43-.88.88-1.55.69-.23-.06-1.26-.09-1.14-.43,0,0,.13-.33.15-.43s.79-1.73.79-1.73l-1.44,1.33-.07-.09.16-.3,2.33-3.23a3.69,3.69,0,0,0,.24-.4,2.52,2.52,0,0,1,.36-.52c.14-.14.14-.11.12-.29s.24-.13,0-.25-1.66-1.28-1.66-1.28c-.2-.09-.6-.81-.78-1s-.16-.62-.12-1-.06-.75.19-1,.59-.06.8,0h.16l-.1-.66s0-.12.12,0,4.09,2.65,4.09,2.65l2.26-2.68s.26-.28.38-.29c.31,0,.21-.11.4-.26s.09-.13.26-.15.24.07.27,0a4.58,4.58,0,0,0-.41.5l1.74,0,.28-.6.19,0,.37,0-.66,1c-.27.45-.89,1.08-.93,1.61.4.09.67-.53.88-.78s.46-.36.65-.58.44-.58.71-.55a5.69,5.69,0,0,1-.65.95c-.48.68-1,1.3-1.51,2-.33.47-1.67,2-.58,2.36a20.94,20.94,0,0,1,2.37,1.36c.13.08,1.1,1,1.16.94-.08.14-.3.26-.45.12l-.74-.71-1-.56Z"/><path class="cls-1" d="M33.64,706.26a7.29,7.29,0,0,1,.29,1.69,4,4,0,0,1,.07,1.42c-.16.58-1.06,1-1.13,1.59,0,.25.18.53.12.75a.89.89,0,0,1-.26.44s-.56-1.09-.59-1.24c-.13.2-1,.92-.92,1.14a7.66,7.66,0,0,0-.37-1,14,14,0,0,0-1.42-2.81,3.69,3.69,0,0,1-.32-1.44c-.09-.38-.21-.76-.33-1.14a4.7,4.7,0,0,1-.24-1.23c0-.26.24-.88-.17-1a8.88,8.88,0,0,0-2.24.13,28.28,28.28,0,0,1-2.91.08c-.8,0-1.59,0-2-.78-.15-.26-1.06-1.22-.65-1.41,0,0,.41-.19.52-.26s2.28-.85,2.28-.85l-2.5-.1v-.14l.42-.13,5-.82.59-.15a2.45,2.45,0,0,1,.78-.15c.26,0,.23,0,.38-.16s.33.11.2-.25-.35-2.65-.35-2.65c-.1-.26.21-.44.27-.67a2.53,2.53,0,0,0-.11-.9c-.05-.53.41-.7.75-1s.63-.74,1.12-.77.58.48.69.76l.15.12.5-.68s.1-.12.12.1,1.32,6.09,1.32,6.09l4.47-.39a1.65,1.65,0,0,1,.61.07c.31.26.29.09.59.13s.2,0,.37.1.15.28.22.28a5.24,5.24,0,0,0-.83.09c.1.08,1.6,1.53,1.6,1.53l.8-.29.19.15.38.3L36.41,702l-.09.18,2.44-.21c.35,0,.73.08,1.1.05s.92-.12,1.14.16a7.87,7.87,0,0,1-1.45.26c-1,.18-2.11.24-3.15.43-.73.14-3.33.34-2.65,1.63a25.64,25.64,0,0,1,.92,3.36,10.67,10.67,0,0,0,.21,1.9c-.2,0-.51,0-.52-.29l0-1.32L34,706.74Z"/><path class="cls-1" d="M21.06,688.75a5.5,5.5,0,0,1,1.09.79,3.28,3.28,0,0,1,.82.75c.23.41,0,1.13.24,1.51s.85.34.57.88a.16.16,0,0,1-.13,0c-.1-.19-.86-.47-.87-.49,0,.39.48,1.37-.22,1a12.28,12.28,0,0,0-2.39-.91,7.41,7.41,0,0,1-1.51-.71,6.42,6.42,0,0,1-1.45-1c-.15-.14-.35-.62-.63-.45a7,7,0,0,0-1.18,1.31A22.07,22.07,0,0,1,13.82,693c-.46.43-.88.88-1.56.69-.22-.07-1.26-.1-1.13-.44,0,0,.13-.33.15-.43s.8-1.72.8-1.72l-1.45,1.32-.07-.09.16-.3,2.35-3.21s.14-.21.25-.41a1.92,1.92,0,0,1,.35-.51c.15-.14.15-.11.13-.3s.24-.12,0-.25-1.66-1.28-1.66-1.28c-.2-.1-.59-.82-.77-1s-.15-.62-.12-1-.05-.75.21-1,.58-.05.79,0l.16,0-.1-.65s0-.13.12,0,4.08,2.67,4.08,2.67l2.28-2.67s.25-.28.38-.29c.31,0,.21-.11.4-.26s.09-.12.26-.14.23.07.27,0a4.4,4.4,0,0,0-.41.49l1.74,0,.28-.6.19,0,.37,0-.66,1.05c-.28.44-.9,1.07-.95,1.6.4.1.68-.53.89-.78s.46-.35.65-.57.44-.58.72-.54a6.26,6.26,0,0,1-.67,1c-.48.66-1,1.28-1.52,2-.32.47-1.67,2-.58,2.36a21,21,0,0,1,2.35,1.37c.13.08,1.11,1,1.16.94-.08.15-.3.27-.45.12l-.73-.71-.95-.57Z"/><path class="cls-1" d="M119.14,647.27a5.81,5.81,0,0,1,1.08.78,3.15,3.15,0,0,1,.82.76c.23.41-.05,1.13.24,1.5s.85.35.58.89a.22.22,0,0,1-.14,0c-.1-.19-.86-.47-.86-.49,0,.39.47,1.37-.23,1a12.28,12.28,0,0,0-2.39-.91,7.41,7.41,0,0,1-1.51-.71,6.66,6.66,0,0,1-1.45-1c-.14-.14-.35-.62-.62-.45a7.08,7.08,0,0,0-1.19,1.31,20.21,20.21,0,0,1-1.58,1.63c-.45.43-.88.88-1.55.69-.23-.07-1.26-.1-1.13-.44,0,0,.12-.33.14-.43s.8-1.72.8-1.72L108.71,651l-.07-.09.15-.3,2.36-3.22s.13-.2.24-.4a1.94,1.94,0,0,1,.36-.51c.14-.14.14-.11.12-.3s.25-.12,0-.25-1.65-1.28-1.65-1.28c-.2-.1-.6-.82-.77-1-.32-.26-.16-.62-.12-1s-.06-.75.2-1,.58,0,.8,0l.15,0-.1-.65s0-.13.13,0,4.07,2.67,4.07,2.67l2.28-2.67s.26-.28.38-.29c.31,0,.21-.11.4-.26s.1-.12.27-.14.23.07.27,0a4.68,4.68,0,0,0-.42.49l1.74,0,.28-.6.19,0,.38,0-.67,1.05c-.28.44-.9,1.07-.94,1.6.4.1.67-.53.89-.78s.45-.35.64-.57.45-.58.72-.54a6.11,6.11,0,0,1-.66.94c-.48.67-1,1.29-1.52,2-.33.47-1.68,2-.59,2.36a20.41,20.41,0,0,1,2.36,1.37c.13.08,1.1,1,1.16.94-.09.15-.3.27-.45.12l-.74-.71-.94-.57Z"/><path class="cls-1" d="M133.64,799.75a7,7,0,0,1-1.47.88,4,4,0,0,1-1.29.59c-.61.06-1.31-.63-1.9-.48-.24.07-.42.36-.66.39a1,1,0,0,1-.5-.09c.05,0,.82-.91,1-1-.23,0-1.21-.56-1.4-.44a9,9,0,0,0,.8-.71c1.5-1.29,2.6-3.06,4.36-4,.29-.17,1.87-.68,1.82-1a8.44,8.44,0,0,0-.94-2.05c-.41-.87-.8-1.78-1.12-2.68s-.58-1.48,0-2.18c.19-.23.75-1.43,1.08-1.11,0,0,.33.31.43.39S135.4,788,135.4,788l-.82-2.36.14,0,.27.34,2.59,4.38s.18.27.36.49a2.92,2.92,0,0,1,.42.68c.09.24,0,.23.28.3s0,.34.31.09,2.34-1.29,2.34-1.29c.21-.19.49,0,.73,0s.53-.3.79-.43c.48-.24.81.13,1.19.35s.92.31,1.12.76-.23.71-.46.91l-.06.19.82.22s.16,0,0,.15-5.2,3.43-5.2,3.43l2,4a1.58,1.58,0,0,1,.16.6c-.12.38,0,.3.1.59s.09.18,0,.39-.2.23-.18.3a4.52,4.52,0,0,0-.38-.74c0,.12-.85,2-.85,2l.56.64-.07.23-.14.46-2.72-4-.21,0,1.09,2.19c.16.32.18.72.35,1s.45.82.27,1.12a7.78,7.78,0,0,1-.78-1.26c-.54-.9-1-1.87-1.54-2.77-.39-.63-1.52-3-2.48-1.88a25.92,25.92,0,0,1-2.8,2.07c-.15.12-1.77.77-1.69.89a.39.39,0,0,1,.08-.59l1.22-.5,1.14-.83Z"/><path class="cls-1" d="M116.36,798.23a5.3,5.3,0,0,1,.46-1.26,3,3,0,0,1,.51-1c.33-.33,1.1-.26,1.38-.64s.11-.91.7-.79a.17.17,0,0,1,0,.14c-.16.15-.22,1-.24,1,.37-.14,1.19-.82,1,0a12,12,0,0,0-.24,2.54,7.2,7.2,0,0,1-.27,1.65,7.09,7.09,0,0,1-.6,1.67c-.1.17-.51.5-.27.72a6.87,6.87,0,0,0,1.58.79,20.46,20.46,0,0,1,2,1.09c.53.32,1.07.62,1.07,1.32,0,.23.24,1.23-.12,1.2,0,0-.35,0-.45,0s-1.88-.31-1.88-.31l1.66,1-.06.1-.34-.08-3.72-1.41-.46-.12a2.17,2.17,0,0,1-.59-.21c-.17-.1-.14-.11-.32,0s-.18-.2-.23.09-.8,1.93-.8,1.93c0,.22-.63.8-.72,1-.17.37-.55.31-.89.37s-.71.25-1.06.08-.21-.55-.17-.78l-.06-.15-.6.27s-.12,0,0-.11,1.49-4.64,1.49-4.64l-3.19-1.49s-.33-.17-.38-.29c-.11-.29-.16-.17-.35-.31s-.15-.06-.21-.22,0-.24,0-.27a3.69,3.69,0,0,0,.59.26c0-.09-.48-1.66-.48-1.66l-.65-.12-.07-.17-.14-.35,1.19.36c.5.15,1.28.58,1.8.48,0-.41-.69-.51-1-.65s-.46-.34-.73-.47-.67-.28-.71-.55a5.46,5.46,0,0,1,1.09.39c.77.28,1.52.66,2.3.94.54.19,2.39,1.07,2.43-.07a20.07,20.07,0,0,1,.69-2.63c0-.15.71-1.34.6-1.37.16,0,.34.21.24.4,0,0-.49.9-.49.9l-.3,1.06Z"/><path class="cls-1" d="M344.66,834.58a7.17,7.17,0,0,1-1.46.88,4,4,0,0,1-1.3.59c-.6.06-1.31-.63-1.89-.47-.24.06-.43.35-.66.38a.93.93,0,0,1-.5-.08s.81-.92.94-1c-.23,0-1.21-.56-1.39-.44a6.75,6.75,0,0,0,.79-.72c1.33-1.14,2.28-2.82,3.77-3.75.48-.3,2.22-1.24,2.12-1.87a4.56,4.56,0,0,0-.66-1.5,25.29,25.29,0,0,1-1.13-2.68c-.27-.75-.58-1.48,0-2.17.19-.24.75-1.43,1.08-1.11a5.24,5.24,0,0,0,.43.38c.1.08,1.62,1.81,1.62,1.81l-.82-2.36.14,0,.27.34,2.6,4.38s.17.26.35.49a2.62,2.62,0,0,1,.43.67c.09.24.05.23.28.3s0,.35.31.1,2.33-1.3,2.33-1.3c.22-.19.49,0,.73,0s.54-.3.8-.43c.47-.24.8.13,1.19.34s.91.31,1.12.76-.23.72-.46.92l-.06.19.82.21s.16.05-.05.15-5.19,3.44-5.19,3.44l2,4s.2.44.15.6c-.12.38,0,.3.1.59s.1.18,0,.39c0,.06-.21.23-.18.3a7,7,0,0,0-.38-.74c0,.12-.85,2.05-.85,2.05l.56.64-.07.23-.14.46-2.73-4-.2,0,1.09,2.19c.16.32.18.71.35,1s.45.82.27,1.12a7.28,7.28,0,0,1-.78-1.25c-.54-.91-1-1.88-1.55-2.78-.39-.62-1.52-3-2.48-1.87a26.36,26.36,0,0,1-2.79,2.08c-.16.11-1.78.77-1.69.89a.39.39,0,0,1,.08-.59l1.21-.51,1.14-.82Z"/><path class="cls-1" d="M371,816.09a5.17,5.17,0,0,1,1.09.78,3.16,3.16,0,0,1,.83.75c.23.41-.05,1.13.25,1.5s.85.34.58.88a.22.22,0,0,1-.14,0c-.1-.19-.87-.46-.87-.49,0,.39.48,1.36-.22,1a12.25,12.25,0,0,0-2.39-.9,7.41,7.41,0,0,1-1.52-.69,7,7,0,0,1-1.45-1c-.15-.14-.36-.62-.63-.44a6.73,6.73,0,0,0-1.18,1.31,20.27,20.27,0,0,1-1.57,1.64c-.45.43-.88.88-1.55.69-.23-.06-1.26-.09-1.13-.43,0,0,.12-.33.14-.42s.79-1.73.79-1.73l-1.44,1.32-.07-.08.16-.3,2.33-3.23a4.48,4.48,0,0,0,.24-.41,2.21,2.21,0,0,1,.36-.51c.14-.14.14-.11.12-.3s.24-.12,0-.25-1.66-1.27-1.66-1.27c-.2-.1-.6-.82-.78-1s-.16-.61-.12-1-.06-.76.2-1,.58,0,.79,0l.16,0-.1-.65s0-.13.12,0,4.09,2.66,4.09,2.66l2.26-2.69s.26-.28.38-.29c.31,0,.21-.11.4-.26s.09-.12.26-.15.24.08.28,0a4.63,4.63,0,0,0-.42.5l1.74,0,.28-.6.19,0,.37,0-.66,1.06c-.27.44-.89,1.07-.93,1.6.4.1.67-.53.88-.78s.46-.36.65-.58.44-.58.71-.54a5.57,5.57,0,0,1-.66,1c-.47.67-1,1.29-1.5,2-.33.48-1.67,2-.58,2.37a19.69,19.69,0,0,1,2.37,1.35c.13.08,1.1,1,1.16.94-.08.14-.3.27-.45.12l-.74-.71-.95-.56Z"/><path class="cls-1" d="M352.5,480.7a5.16,5.16,0,0,1,1.08.79,3.28,3.28,0,0,1,.82.75c.22.42-.06,1.14.23,1.51s.85.35.57.89a.17.17,0,0,1-.14,0c-.1-.19-.86-.47-.86-.49,0,.39.47,1.36-.23,1a12.47,12.47,0,0,0-2.38-.92,7.41,7.41,0,0,1-1.51-.71,6.74,6.74,0,0,1-1.45-1c-.14-.13-.34-.62-.62-.45a7,7,0,0,0-1.19,1.3,20.34,20.34,0,0,1-1.59,1.63c-.46.42-.89.86-1.56.67-.22-.06-1.26-.11-1.13-.44,0,0,.13-.33.15-.43s.81-1.72.81-1.72l-1.45,1.31-.07-.09.16-.3,2.37-3.2s.14-.2.25-.4a1.73,1.73,0,0,1,.36-.51c.14-.14.14-.11.12-.3s.25-.11,0-.25-1.64-1.29-1.64-1.29c-.2-.09-.6-.82-.77-1s-.15-.62-.11-1-.05-.75.21-1,.58-.05.79.05h.16l-.1-.66s0-.12.13,0,4.05,2.7,4.05,2.7l2.3-2.66s.26-.27.38-.29c.32,0,.21-.1.4-.25s.1-.12.27-.14.23.07.27,0a6.32,6.32,0,0,0-.42.49h1.74l.29-.6.19,0,.37,0-.67,1c-.28.44-.91,1.06-1,1.59.41.1.68-.52.9-.77s.46-.35.65-.57.45-.58.72-.54a5.63,5.63,0,0,1-.67.95c-.48.66-1.05,1.28-1.53,1.95-.33.47-1.69,2-.6,2.36a20.77,20.77,0,0,1,2.35,1.38c.13.08,1.1,1.05,1.15.95-.08.15-.3.27-.45.12l-.73-.72-.94-.57Z"/><path class="cls-1" d="M223.2,571a5.37,5.37,0,0,1,1.07.79,3.14,3.14,0,0,1,.81.77c.22.41-.07,1.13.22,1.51s.84.35.56.89a.18.18,0,0,1-.14,0c-.09-.19-.85-.48-.85-.5,0,.39.45,1.37-.24,1a12,12,0,0,0-2.38-.94,8.3,8.3,0,0,1-1.5-.73,6.39,6.39,0,0,1-1.43-1c-.15-.14-.34-.63-.62-.46a6.41,6.41,0,0,0-1.2,1.29,22.23,22.23,0,0,1-1.61,1.61c-.46.42-.89.86-1.56.66-.23-.07-1.26-.12-1.13-.45,0,0,.13-.33.15-.43s.83-1.71.83-1.71l-1.46,1.3-.07-.09.16-.3,2.4-3.18s.14-.2.25-.4a2.21,2.21,0,0,1,.36-.51c.15-.14.15-.1.13-.29s.25-.12,0-.25-1.63-1.31-1.63-1.31c-.2-.1-.59-.83-.76-1s-.14-.62-.1-1-.05-.75.22-1,.58,0,.79.06h.16l-.09-.66s0-.12.12,0,4,2.74,4,2.74l2.33-2.64s.26-.27.38-.29c.31,0,.21-.1.4-.25s.1-.12.27-.14.23.08.27,0a3.84,3.84,0,0,0-.42.49h1.73l.3-.59.19,0,.37,0-.68,1c-.28.44-.92,1.06-1,1.59.4.1.68-.52.9-.77s.46-.35.66-.56.45-.57.73-.53a5.69,5.69,0,0,1-.68.93c-.49.67-1.06,1.28-1.55,1.95-.34.47-1.71,2-.62,2.35a21.24,21.24,0,0,1,2.33,1.4c.13.08,1.09,1.06,1.15,1-.09.14-.3.26-.45.12l-.73-.73-.93-.58Z"/><path class="cls-1" d="M403,598.65a5.16,5.16,0,0,1,1.08.79,2.85,2.85,0,0,1,.82.76c.23.41-.06,1.13.23,1.51s.85.34.57.88a.15.15,0,0,1-.13,0c-.1-.19-.86-.47-.86-.49,0,.39.46,1.37-.23,1a11.73,11.73,0,0,0-2.39-.93,7.41,7.41,0,0,1-1.51-.71,7,7,0,0,1-1.44-1c-.15-.14-.35-.63-.62-.45a6.66,6.66,0,0,0-1.19,1.29,22.26,22.26,0,0,1-1.59,1.63c-.46.42-.89.87-1.56.67-.23-.06-1.26-.1-1.13-.44l.15-.42c0-.1.81-1.72.81-1.72l-1.46,1.31-.07-.09.16-.3,2.38-3.2s.13-.21.24-.41a2.44,2.44,0,0,1,.36-.51c.14-.14.15-.1.13-.29s.24-.12,0-.25-1.65-1.3-1.65-1.3c-.2-.09-.59-.82-.76-1s-.16-.62-.12-1-.05-.75.21-1,.59,0,.8.06l.16,0-.1-.65s0-.13.12,0,4.06,2.7,4.06,2.7l2.3-2.65s.25-.28.38-.29c.31,0,.21-.11.4-.26s.09-.12.26-.14.24.08.28,0a3.16,3.16,0,0,0-.42.5l1.73,0,.29-.59.19,0,.38,0-.68,1.05c-.28.44-.9,1.07-.95,1.6.4.1.68-.53.89-.78s.46-.35.65-.57.45-.57.73-.53a7,7,0,0,1-.67.94c-.49.67-1.05,1.28-1.53,2-.34.47-1.69,2-.6,2.35a21.81,21.81,0,0,1,2.34,1.39c.13.08,1.1,1,1.16.95-.09.14-.3.26-.45.11l-.74-.71-.94-.57Z"/><path class="cls-1" d="M359.26,707.32a5.11,5.11,0,0,1,1.08.78,3.31,3.31,0,0,1,.82.76c.22.41-.06,1.13.23,1.51s.85.35.57.88a.22.22,0,0,1-.14,0c-.1-.2-.86-.47-.86-.5,0,.39.47,1.37-.23,1a11.84,11.84,0,0,0-2.38-.92,7.45,7.45,0,0,1-1.51-.72,7.06,7.06,0,0,1-1.45-1c-.14-.14-.34-.63-.62-.45a7,7,0,0,0-1.19,1.29,17.48,17.48,0,0,1-1.59,1.63c-.46.43-.89.87-1.56.68-.22-.07-1.26-.11-1.13-.45a4.35,4.35,0,0,0,.15-.42c0-.1.81-1.72.81-1.72l-1.45,1.31-.07-.09.16-.3,2.37-3.2s.14-.2.25-.4a1.73,1.73,0,0,1,.36-.51c.14-.14.14-.11.13-.3s.24-.12,0-.25-1.64-1.29-1.64-1.29c-.2-.1-.6-.83-.77-1s-.15-.62-.11-1,0-.76.21-1,.58,0,.79,0l.16,0-.1-.65s0-.13.13,0,4.05,2.7,4.05,2.7L357,701s.26-.28.38-.29c.32,0,.21-.11.4-.26s.1-.12.27-.14.23.08.27,0a4.84,4.84,0,0,0-.42.5h1.74l.29-.6.19,0,.37,0-.67,1c-.28.44-.91,1.07-1,1.6.41.1.68-.52.9-.77s.46-.36.65-.57.45-.58.72-.54a5.55,5.55,0,0,1-.67.94c-.48.67-1,1.28-1.53,2-.33.47-1.69,2-.6,2.36a19.9,19.9,0,0,1,2.35,1.38c.13.08,1.1,1,1.15,1-.08.14-.3.26-.45.12s-.73-.72-.73-.72l-.94-.57Z"/><path class="cls-1" d="M236.51,797.43a5.44,5.44,0,0,1,1.09.78,3.11,3.11,0,0,1,.83.74c.23.41-.05,1.14.25,1.51s.85.33.58.87a.23.23,0,0,1-.14,0c-.1-.19-.86-.46-.86-.48,0,.39.48,1.36-.22,1a11.7,11.7,0,0,0-2.4-.89,7.45,7.45,0,0,1-1.52-.7,6.92,6.92,0,0,1-1.46-1c-.14-.13-.35-.62-.62-.44a6.65,6.65,0,0,0-1.17,1.31,20.4,20.4,0,0,1-1.57,1.65c-.46.43-.88.88-1.55.7-.23-.06-1.26-.09-1.14-.43,0,0,.12-.33.15-.43s.78-1.73.78-1.73l-1.43,1.33-.07-.08.15-.31,2.33-3.23a3.3,3.3,0,0,0,.24-.41,1.92,1.92,0,0,1,.35-.51c.14-.14.15-.11.13-.3s.24-.12,0-.25-1.66-1.27-1.66-1.27c-.2-.09-.61-.81-.78-1-.32-.26-.16-.61-.13-1s-.06-.75.2-1,.58-.06.79,0l.16,0-.11-.65s0-.12.13,0,4.09,2.64,4.09,2.64l2.26-2.69s.25-.28.38-.3c.31,0,.21-.1.4-.26s.09-.12.26-.14.23.07.27,0a5.7,5.7,0,0,0-.41.51l1.74,0,.28-.6.19,0,.37,0-.66,1.06c-.27.44-.89,1.08-.93,1.6.4.1.67-.53.88-.78s.46-.36.64-.58.45-.58.72-.55a5.57,5.57,0,0,1-.66.95c-.47.68-1,1.3-1.5,2-.32.48-1.66,2-.57,2.37a19.69,19.69,0,0,1,2.37,1.35c.13.07,1.11,1,1.17.93-.08.14-.3.27-.45.13l-.74-.71-.95-.56Z"/><path class="cls-1" d="M17.58,821.93a5.13,5.13,0,0,1,1.09.77,3.16,3.16,0,0,1,.83.75c.23.41,0,1.13.26,1.5s.85.34.58.88a.17.17,0,0,1-.14,0c-.1-.19-.87-.45-.87-.48,0,.39.49,1.36-.21,1a12.56,12.56,0,0,0-2.4-.89,7.41,7.41,0,0,1-1.52-.69,6.92,6.92,0,0,1-1.46-1c-.14-.14-.35-.62-.62-.45a7.09,7.09,0,0,0-1.18,1.32c-.49.57-1,1.13-1.56,1.65s-.88.88-1.56.69c-.22-.06-1.25-.09-1.13-.42,0,0,.12-.33.14-.43s.79-1.73.79-1.73l-1.44,1.33-.07-.09.16-.3,2.33-3.24s.13-.2.23-.4a2.52,2.52,0,0,1,.36-.52c.14-.14.14-.11.12-.29s.24-.13,0-.25-1.66-1.27-1.66-1.27c-.2-.1-.6-.82-.78-1s-.16-.62-.12-1-.07-.75.19-1,.59-.05.8,0l.16,0-.11-.65s0-.13.13,0S13,818.36,13,818.36l2.26-2.69s.25-.28.38-.29c.31,0,.2-.11.39-.26s.1-.12.27-.15.23.08.27,0a3.5,3.5,0,0,0-.41.5l1.73,0,.28-.61.19,0,.38,0-.66,1.06c-.28.45-.89,1.08-.93,1.61.4.09.67-.53.88-.79s.45-.35.64-.58.44-.58.72-.54a6.2,6.2,0,0,1-.66.95c-.48.67-1,1.29-1.5,2-.33.47-1.66,2-.57,2.36A21.17,21.17,0,0,1,19,822.21c.13.08,1.11,1,1.16.94-.08.14-.29.26-.44.12l-.75-.71L18,822Z"/><path class="cls-1" d="M483.91,75.87a6.88,6.88,0,0,1-1.28-1.14,3.92,3.92,0,0,1-.94-1.06c-.24-.56.21-1.44-.11-2-.13-.21-.47-.3-.56-.52a.86.86,0,0,1-.07-.5c0,.06,1.11.51,1.23.61,0-.24.18-1.32,0-1.47a6.58,6.58,0,0,0,.92.55,12.58,12.58,0,0,0,2.28.94,7.66,7.66,0,0,1,1.75,1.2,12.66,12.66,0,0,1,1.91,1.6c.16.19.36.84.73.65a8.81,8.81,0,0,0,1.68-1.5,24.67,24.67,0,0,1,2.22-1.87c.64-.48,1.24-1,2.07-.67.28.11,1.59.3,1.38.71,0,0-.2.4-.24.52s-1.24,2.09-1.24,2.09l2-1.49.08.12-.24.36-3.42,3.78s-.2.24-.36.48a2.27,2.27,0,0,1-.53.61c-.2.16-.2.12-.2.36s-.32.12,0,.32,1.93,1.85,1.93,1.85a.4.4,0,0,1,.16.4,5,5,0,0,0,0,.6c0,.08.53.42.6.57a1.25,1.25,0,0,1,0,.81c0,.34,0,1.25-.27,1.48s-.75,0-1-.16h-.2l0,.84s0,.16-.16,0-4.83-3.94-4.83-3.94-1.72,1.41-2,1.65S486,84.15,486,84.15s-.36.32-.52.32c-.4,0-.28.11-.54.27s-.14.15-.36.15c-.07,0-.29-.12-.34-.08a4.66,4.66,0,0,0,.59-.58c-.12,0-2.21-.2-2.21-.2l-.44.72h-.72l3-3.78,0-.2-1.77,1.69c-.26.25-.62.39-.89.64s-.65.68-1,.6a6.9,6.9,0,0,1,1-1.12c.7-.79,1.5-1.5,2.19-2.3.48-.56,2.39-2.34,1.05-2.93a26.16,26.16,0,0,1-2.81-2c-.15-.11-1.26-1.46-1.35-1.35.13-.17.42-.3.59-.09,0,0,.84,1,.84,1l1.13.85Z"/><path class="cls-1" d="M628.45,34.41a7.21,7.21,0,0,1,1.24,1.17,4,4,0,0,1,.91,1.1c.22.56-.25,1.43,0,2,.13.21.46.31.55.53a1,1,0,0,1,0,.51c0-.06-1.1-.55-1.21-.65,0,.24-.22,1.31,0,1.46a7.72,7.72,0,0,0-.91-.57c-2-1.34-4.28-1.95-5.82-3.91-.16-.2-.33-.85-.71-.68a8.77,8.77,0,0,0-1.72,1.45,26.23,26.23,0,0,1-2.28,1.81c-.66.46-1.27,1-2.09.6-.28-.12-1.58-.34-1.36-.75,0,0,.21-.39.25-.51s1.31-2.05,1.31-2.05l-2,1.42-.08-.12.25-.35,3.53-3.68a5.65,5.65,0,0,0,.38-.47,2.57,2.57,0,0,1,.54-.59c.2-.15.2-.11.21-.35s.33-.11,0-.32-1.87-1.91-1.87-1.91c-.24-.15-.1-.48-.19-.7s-.43-.44-.63-.65c-.35-.39-.09-.81,0-1.24s.06-1,.44-1.29.75,0,1,.2h.2V25s0-.16.16,0,4.7,4.08,4.7,4.08l3.35-3s.37-.31.53-.3c.4,0,.28-.11.55-.26s.14-.14.36-.14c.06,0,.28.14.33.1a6,6,0,0,0-.61.56c.13,0,2.21.26,2.21.26l.46-.71h.24l.48,0-3.08,3.68,0,.21,1.82-1.64c.27-.24.64-.37.92-.62s.66-.65,1-.56a7.35,7.35,0,0,1-1,1.09c-.73.76-1.54,1.45-2.26,2.23-.5.54-2.47,2.27-1.14,2.89A26.41,26.41,0,0,1,630.2,35c.15.12,1.22,1.5,1.3,1.39-.12.17-.42.28-.58.08l-.81-1-1.1-.88Z"/><path class="cls-1" d="M603.46,14.18a5.43,5.43,0,0,1,.45-1.26,3,3,0,0,1,.5-1c.33-.34,1.11-.27,1.38-.65s.1-.91.69-.79a.22.22,0,0,1,0,.14c-.16.14-.22.95-.24,1,.37-.14,1.18-.83,1-.06a12.67,12.67,0,0,0-.22,2.55,7.18,7.18,0,0,1-.26,1.65,7,7,0,0,1-.58,1.67c-.1.18-.51.51-.27.72a6.46,6.46,0,0,0,1.58.78,21.46,21.46,0,0,1,2,1.07c.53.33,1.08.62,1.08,1.32,0,.23.25,1.23-.1,1.2,0,0-.35,0-.45,0s-1.88-.3-1.88-.3l1.66,1-.06.09-.34-.07-3.73-1.38-.46-.12a2.56,2.56,0,0,1-.59-.2c-.17-.1-.14-.11-.32,0s-.18-.2-.23.09-.78,1.94-.78,1.94c0,.22-.63.8-.72,1-.17.37-.55.31-.89.37s-.71.26-1.06.09-.21-.54-.17-.78l-.06-.14-.6.27s-.12.05-.05-.11,1.46-4.65,1.46-4.65l-3.2-1.46s-.33-.17-.38-.29c-.12-.29-.16-.17-.36-.31s-.14-.06-.21-.22,0-.24,0-.27a3.38,3.38,0,0,0,.6.26c0-.09-.5-1.66-.5-1.66l-.65-.11-.07-.18-.15-.35,1.2.35c.5.15,1.28.58,1.8.48,0-.42-.69-.51-1-.65s-.47-.34-.73-.46-.68-.27-.72-.55a6.12,6.12,0,0,1,1.09.38c.78.28,1.53.65,2.31.92.55.19,2.4,1.06,2.43-.08a20.89,20.89,0,0,1,.67-2.64c0-.15.7-1.34.59-1.37.16,0,.34.21.24.4l-.48.9-.29,1.06Z"/><path class="cls-1" d="M678.1,228.25a6.88,6.88,0,0,1-1.28-1.14,3.82,3.82,0,0,1-1-1.06c-.23-.55.22-1.44-.11-2-.13-.21-.46-.3-.56-.51a1,1,0,0,1-.07-.51c0,.06,1.12.51,1.24.61,0-.24.17-1.32,0-1.46a7.64,7.64,0,0,0,.92.54,13,13,0,0,0,2.87,1.31c.5.17.75.61,1.15.93a10.45,10.45,0,0,0,1,.68,5,5,0,0,1,1,.81c.16.2.35.84.73.66a8.52,8.52,0,0,0,1.67-1.51,28.15,28.15,0,0,1,2.22-1.87c.64-.48,1.24-1,2.07-.67.29.11,1.59.29,1.39.7,0,0-.2.41-.24.53s-1.25,2.09-1.25,2.09l2-1.49.08.12-.24.36-3.41,3.78s-.2.24-.36.48a2.42,2.42,0,0,1-.52.61c-.2.16-.2.12-.2.36s-.33.12,0,.32,1.93,1.85,1.93,1.85c.24.14.11.48.21.7s.44.42.64.63c.37.38.12.8,0,1.23s0,1-.4,1.3-.74,0-1-.16h-.2l0,.84s0,.16-.16,0-4.83-3.93-4.83-3.93l-3.25,3.1s-.36.32-.52.32c-.4,0-.28.11-.54.27s-.14.15-.36.15c-.07,0-.29-.12-.34-.08a4.66,4.66,0,0,0,.59-.58c-.13,0-2.21-.2-2.21-.2l-.44.72h-.72l3-3.78,0-.2-1.77,1.69c-.26.25-.62.39-.9.65s-.64.67-1,.59a8.48,8.48,0,0,1,1-1.12c.7-.78,1.5-1.5,2.19-2.3.48-.56,2.4-2.34,1.06-2.93a25.65,25.65,0,0,1-2.82-2c-.16-.12-1.27-1.47-1.35-1.35.12-.17.41-.3.58-.1l.85,1,1.13.84Z"/><path class="cls-1" d="M704.35,240.56a5.44,5.44,0,0,1,1.09.78,3.11,3.11,0,0,1,.82.75c.23.41,0,1.13.25,1.5s.85.34.58.88a.23.23,0,0,1-.14,0c-.1-.19-.86-.47-.86-.49,0,.39.48,1.36-.22,1a12.5,12.5,0,0,0-2.39-.9,7.17,7.17,0,0,1-1.52-.69,7.08,7.08,0,0,1-1.46-1c-.14-.14-.35-.62-.62-.44a6.73,6.73,0,0,0-1.18,1.31,20.27,20.27,0,0,1-1.57,1.64c-.46.43-.88.88-1.55.69-.23-.06-1.26-.09-1.14-.43,0,0,.12-.33.14-.42s.8-1.73.8-1.73l-1.44,1.32-.07-.08.15-.31,2.34-3.22a4.48,4.48,0,0,0,.24-.41,1.73,1.73,0,0,1,.36-.51c.14-.14.14-.11.12-.3s.24-.12,0-.25-1.65-1.27-1.65-1.27c-.21-.1-.61-.82-.78-1-.32-.26-.16-.61-.13-.95s-.06-.76.2-1.05.59-.05.8.05l.15,0-.1-.65s0-.13.13,0,4.08,2.66,4.08,2.66L702,234.3s.25-.28.38-.29c.31,0,.21-.11.4-.26s.09-.12.26-.15.23.08.27,0a5.78,5.78,0,0,0-.41.5l1.74,0,.28-.6.19,0,.37,0-.66,1.06c-.28.44-.89,1.07-.94,1.6.41.1.68-.53.89-.78s.45-.36.64-.58.45-.58.72-.54a6.2,6.2,0,0,1-.66.95c-.48.67-1,1.29-1.51,2-.33.48-1.66,2-.57,2.37a20.23,20.23,0,0,1,2.36,1.35c.13.08,1.11,1,1.16.94-.08.14-.29.27-.44.12l-.74-.71-1-.56Z"/><path class="cls-1" d="M471.15,268.75a6.23,6.23,0,0,1,.29,1.68,4,4,0,0,1,.08,1.42c-.17.59-1.07,1-1.13,1.6,0,.24.18.52.12.75a1,1,0,0,1-.27.43c.05,0-.55-1.09-.58-1.24-.14.2-1,.92-.92,1.14a7.09,7.09,0,0,0-.38-1,12.57,12.57,0,0,0-1.42-2.81,4,4,0,0,1-.32-1.45,11.16,11.16,0,0,0-.32-1.13,4.79,4.79,0,0,1-.25-1.24c0-.25.25-.88-.16-1a8.53,8.53,0,0,0-2.25.12,25.71,25.71,0,0,1-2.91.08c-.8,0-1.58,0-2-.77-.15-.27-1.06-1.22-.64-1.42l.52-.25c.1-.07,2.27-.86,2.27-.86l-2.49-.09v-.15l.41-.13,5-.82a5.36,5.36,0,0,0,.58-.15,2.56,2.56,0,0,1,.79-.15c.26,0,.23,0,.38-.15s.33.1.2-.25-.35-2.65-.35-2.65c-.1-.27.2-.45.27-.68a3.08,3.08,0,0,0-.11-.9c-.05-.52.41-.7.75-1s.62-.73,1.12-.77.58.48.68.76l.16.13.49-.69s.1-.12.13.1,1.31,6.09,1.31,6.09l4.48-.39a1.5,1.5,0,0,1,.61.08c.31.25.28.09.59.12s.19,0,.37.11.14.27.21.28a4.27,4.27,0,0,0-.82.08c.1.08,1.6,1.53,1.6,1.53l.8-.28.19.15.37.3-4.68,1.09-.09.19,2.43-.22c.36,0,.73.08,1.1.06s.93-.13,1.15.15a8,8,0,0,1-1.46.27c-1,.18-2.1.23-3.15.43-.72.13-3.33.33-2.64,1.62a27.42,27.42,0,0,1,.91,3.36,11.56,11.56,0,0,0,.21,1.9c-.2.06-.5,0-.51-.29l0-1.31-.36-1.36Z"/><path class="cls-1" d="M458.58,251.24a5.11,5.11,0,0,1,1.08.78,3,3,0,0,1,.82.75c.23.41-.05,1.14.25,1.51s.85.34.57.88a.18.18,0,0,1-.14,0c-.1-.19-.86-.46-.86-.48,0,.39.47,1.36-.22,1a12.53,12.53,0,0,0-2.39-.91,9.51,9.51,0,0,1-3-1.72c-.14-.14-.35-.63-.62-.45a6.37,6.37,0,0,0-1.18,1.3,22.28,22.28,0,0,1-1.58,1.64c-.46.42-.89.87-1.56.68-.23-.06-1.26-.1-1.13-.43,0,0,.12-.33.14-.43s.8-1.73.8-1.73l-1.44,1.32-.07-.09.16-.3,2.35-3.21a3.3,3.3,0,0,0,.24-.41,2.21,2.21,0,0,1,.36-.51c.14-.14.15-.11.13-.29s.24-.13,0-.26-1.65-1.28-1.65-1.28c-.2-.09-.6-.82-.77-1s-.16-.62-.12-1-.06-.76.2-1,.59-.05.8,0h.16l-.1-.66s0-.12.12,0,4.07,2.68,4.07,2.68l2.28-2.67s.26-.28.39-.3c.31,0,.2-.11.39-.25s.1-.13.27-.15.23.08.27,0a3.64,3.64,0,0,0-.41.5l1.73,0,.29-.6.18,0,.38,0c-.22.35-.44.7-.67,1.05s-.9,1.08-.94,1.6c.4.1.67-.52.89-.77s.45-.36.64-.58.45-.57.72-.54a6.2,6.2,0,0,1-.66,1c-.48.67-1,1.28-1.52,2-.33.47-1.67,2-.58,2.36a19.74,19.74,0,0,1,2.35,1.36c.13.08,1.1,1,1.16.95-.08.14-.3.26-.45.12l-.74-.72-.94-.56Z"/><path class="cls-1" d="M556.65,209.76a5.44,5.44,0,0,1,1.09.78,3.28,3.28,0,0,1,.82.75c.23.41,0,1.14.24,1.51s.85.34.57.88a.16.16,0,0,1-.13,0c-.1-.19-.86-.46-.87-.48,0,.39.48,1.36-.22,1a12.28,12.28,0,0,0-2.39-.91,7.37,7.37,0,0,1-1.51-.7,6.76,6.76,0,0,1-1.45-1c-.15-.14-.35-.63-.63-.45a6.67,6.67,0,0,0-1.18,1.3,20.39,20.39,0,0,1-1.58,1.64c-.46.42-.88.87-1.56.68-.22-.06-1.26-.1-1.13-.44,0,0,.12-.32.15-.42s.8-1.73.8-1.73l-1.45,1.32-.07-.09.16-.3,2.35-3.21s.14-.21.25-.41a1.92,1.92,0,0,1,.35-.51c.15-.14.15-.11.13-.3s.24-.12,0-.25-1.65-1.28-1.65-1.28c-.21-.09-.6-.82-.78-1s-.15-.62-.12-1-.05-.76.21-1,.58-.05.79,0H548l-.1-.66s0-.12.12,0,4.08,2.68,4.08,2.68l2.28-2.68s.25-.27.38-.29c.31,0,.21-.11.4-.26s.09-.12.26-.14.23.08.27,0a3.64,3.64,0,0,0-.41.5l1.74,0,.28-.6.19,0,.37,0-.66,1c-.28.45-.9,1.07-.95,1.6.4.1.68-.52.89-.77s.46-.36.65-.58.44-.58.72-.54a6.2,6.2,0,0,1-.66,1c-.49.67-1.05,1.28-1.53,2-.33.48-1.67,2-.58,2.37a19.74,19.74,0,0,1,2.35,1.36c.13.08,1.11,1,1.16.95-.08.14-.3.26-.44.12l-.74-.72-.95-.56Z"/><path class="cls-1" d="M571.15,362.24a6.67,6.67,0,0,1-1.46.88,4,4,0,0,1-1.3.58c-.6.06-1.31-.63-1.89-.47-.24.06-.43.35-.66.38a.85.85,0,0,1-.5-.09s.82-.91.95-1c-.24,0-1.21-.56-1.4-.44a7.76,7.76,0,0,0,.8-.72c1.5-1.28,2.6-3.06,4.35-4,.29-.16,1.88-.67,1.82-1a8.8,8.8,0,0,0-.93-2.05,26.21,26.21,0,0,1-1.13-2.68c-.27-.75-.58-1.48,0-2.17.19-.24.75-1.43,1.08-1.11a5.24,5.24,0,0,0,.43.38c.1.07,1.62,1.81,1.62,1.81l-.82-2.36.14,0,.27.34,2.59,4.39s.17.26.35.48a2.37,2.37,0,0,1,.42.68c.1.24.06.23.29.3s0,.35.31.1,2.34-1.29,2.34-1.29c.21-.19.49,0,.72,0s.54-.29.8-.42c.47-.24.8.13,1.19.34s.91.31,1.12.77-.24.71-.46.91l-.06.19.82.21s.15.05-.05.15-5.2,3.44-5.2,3.44l2,4s.2.44.15.59c-.12.38,0,.3.1.6s.1.17,0,.38-.21.24-.18.3a7,7,0,0,0-.38-.74c0,.13-.85,2.05-.85,2.05l.56.64-.07.23-.15.46-2.72-4-.2,0,1.08,2.19c.16.32.19.71.35,1s.46.82.27,1.12a7.23,7.23,0,0,1-.77-1.25c-.55-.91-1-1.88-1.55-2.78-.39-.63-1.52-3-2.48-1.88a26.36,26.36,0,0,1-2.79,2.08c-.16.11-1.78.77-1.69.88-.13-.17-.17-.48.08-.58l1.21-.51,1.14-.82Z"/><path class="cls-1" d="M553.87,360.71a5.5,5.5,0,0,1,.47-1.26,3.18,3.18,0,0,1,.5-1c.34-.33,1.11-.25,1.39-.63s.1-.91.7-.79a.22.22,0,0,1,0,.14c-.16.14-.22.95-.24,1,.37-.14,1.19-.82,1-.05a12,12,0,0,0-.24,2.54,7.21,7.21,0,0,1-.28,1.65,6.51,6.51,0,0,1-.59,1.67c-.1.18-.51.51-.27.72a6.83,6.83,0,0,0,1.57.8,19.28,19.28,0,0,1,2,1.08c.53.33,1.08.62,1.07,1.32,0,.23.24,1.24-.11,1.21a4,4,0,0,0-.45,0c-.1,0-1.88-.31-1.88-.31l1.66,1-.07.09-.33-.07-3.73-1.41s-.23-.08-.45-.13a1.66,1.66,0,0,1-.59-.21c-.17-.1-.14-.11-.32,0s-.18-.2-.23.09-.8,1.94-.8,1.94c0,.22-.63.79-.72,1-.18.38-.56.31-.9.37s-.71.25-1.06.08-.2-.55-.16-.78l-.06-.14-.6.27s-.12,0,0-.12,1.49-4.64,1.49-4.64l-3.18-1.49s-.34-.17-.38-.28c-.12-.3-.16-.18-.36-.32s-.14-.06-.21-.22,0-.24,0-.27a4,4,0,0,0,.59.27c0-.09-.48-1.67-.48-1.67l-.66-.11-.07-.18-.13-.35,1.19.36c.5.15,1.27.58,1.79.48,0-.41-.68-.51-1-.65s-.47-.34-.73-.47-.67-.27-.71-.55a7.08,7.08,0,0,1,1.09.39c.77.29,1.52.66,2.3.94.54.19,2.38,1.08,2.43-.07a20.07,20.07,0,0,1,.69-2.63c0-.15.71-1.34.6-1.37.16,0,.33.22.23.4l-.49.9-.29,1.06Z"/><path class="cls-1" d="M782.18,397.06a7,7,0,0,1-1.47.88,3.86,3.86,0,0,1-1.29.59c-.6.06-1.31-.63-1.9-.47-.24.06-.42.36-.65.38a1,1,0,0,1-.51-.08c.06,0,.82-.91.95-1-.24-.05-1.21-.56-1.4-.44a9,9,0,0,0,.8-.71c1.32-1.14,2.28-2.83,3.77-3.76.48-.3,2.22-1.23,2.11-1.86a4.65,4.65,0,0,0-.65-1.5,27.18,27.18,0,0,1-1.13-2.68c-.27-.76-.58-1.48,0-2.18.18-.23.74-1.43,1.08-1.11,0,0,.32.31.42.39s1.63,1.8,1.63,1.8L783.1,383l.13,0,.28.34,2.6,4.38a5.69,5.69,0,0,0,.35.49,2.61,2.61,0,0,1,.42.68c.1.24.06.23.29.3s0,.34.31.09,2.33-1.29,2.33-1.29c.21-.19.49,0,.73,0s.54-.3.79-.43c.48-.24.81.13,1.19.35s.92.31,1.13.76-.24.71-.46.91l-.06.19.82.21s.15.05-.05.16-5.19,3.44-5.19,3.44l2,4a1.58,1.58,0,0,1,.16.6c-.12.38,0,.3.1.6s.09.17,0,.38-.21.24-.19.3a5.6,5.6,0,0,0-.37-.74c0,.12-.85,2.05-.85,2.05l.56.64-.07.23-.14.46-2.73-4-.21,0,1.09,2.19c.16.32.19.71.35,1.05s.46.81.28,1.12a7.78,7.78,0,0,1-.78-1.26c-.55-.9-1-1.87-1.55-2.77-.39-.63-1.53-3-2.48-1.88a26.36,26.36,0,0,1-2.79,2.08c-.16.12-1.78.78-1.7.89-.12-.17-.16-.48.09-.58l1.21-.51,1.14-.83Z"/><path class="cls-1" d="M808.52,378.58a5.39,5.39,0,0,1,1.09.77,3.11,3.11,0,0,1,.82.75c.23.41,0,1.14.25,1.51s.85.34.58.88a.24.24,0,0,1-.14,0c-.1-.19-.86-.46-.86-.48,0,.39.48,1.36-.22,1a11.87,11.87,0,0,0-2.39-.9,7.75,7.75,0,0,1-1.52-.7,6.67,6.67,0,0,1-1.46-1c-.14-.14-.35-.63-.62-.45a7,7,0,0,0-1.18,1.31,22.2,22.2,0,0,1-1.57,1.65c-.46.42-.88.87-1.55.69-.23-.06-1.26-.1-1.14-.43,0,0,.12-.33.15-.43s.79-1.73.79-1.73l-1.44,1.33-.07-.09.15-.3,2.34-3.23a3.69,3.69,0,0,0,.24-.4,1.66,1.66,0,0,1,.36-.52c.14-.14.14-.11.12-.3s.24-.12,0-.25-1.65-1.27-1.65-1.27c-.21-.09-.61-.82-.78-1s-.16-.62-.12-1-.07-.75.19-1,.59-.06.8,0l.16,0-.11-.65s0-.12.13,0,4.08,2.65,4.08,2.65l2.27-2.68s.25-.28.38-.3c.31,0,.21-.11.4-.26s.09-.12.26-.14.23.07.27,0a4.58,4.58,0,0,0-.41.5l1.74,0,.28-.61.19,0,.37,0-.66,1.06c-.28.44-.89,1.08-.94,1.61.41.09.68-.53.89-.79s.45-.35.64-.57.45-.58.72-.55a6.2,6.2,0,0,1-.66.95c-.48.67-1,1.29-1.51,2-.32.47-1.66,2-.57,2.36a20.63,20.63,0,0,1,2.36,1.36c.13.07,1.11,1,1.16.93-.08.15-.29.27-.44.13l-.74-.71-.95-.56Z"/><path class="cls-1" d="M790,43.18a5.74,5.74,0,0,1,1.08.79,2.94,2.94,0,0,1,.81.76c.23.41,0,1.13.24,1.51s.84.34.56.88a.16.16,0,0,1-.13,0c-.1-.19-.86-.47-.86-.49,0,.39.46,1.37-.23,1a12.34,12.34,0,0,0-2.39-.93,7.09,7.09,0,0,1-1.5-.71,6.8,6.8,0,0,1-1.45-1c-.14-.14-.35-.63-.62-.45a6.66,6.66,0,0,0-1.19,1.29,22.26,22.26,0,0,1-1.59,1.63c-.46.42-.89.87-1.56.67-.23-.06-1.26-.1-1.13-.44l.15-.42c0-.1.81-1.72.81-1.72l-1.45,1.31-.07-.09.16-.3,2.37-3.2s.13-.21.24-.41a2.44,2.44,0,0,1,.36-.51c.15-.14.15-.1.13-.29s.24-.12,0-.25-1.65-1.3-1.65-1.3c-.2-.09-.59-.82-.76-1-.32-.27-.16-.62-.12-1s-.05-.75.21-1,.59,0,.8.06l.15,0-.09-.65s0-.13.12,0,4.06,2.7,4.06,2.7l2.3-2.65s.25-.28.38-.29c.31,0,.21-.11.4-.26s.1-.12.26-.14.24.08.28,0a3.16,3.16,0,0,0-.42.5l1.73,0,.29-.59.19,0,.38,0c-.23.35-.45.7-.67,1.05s-.91,1.07-1,1.6c.4.1.68-.53.89-.78s.46-.35.65-.57.45-.57.73-.53a7,7,0,0,1-.67.94c-.49.67-1.05,1.28-1.53,2-.34.47-1.69,2-.6,2.35a22.15,22.15,0,0,1,2.35,1.39c.13.08,1.09,1,1.15.95-.09.14-.3.26-.45.11l-.73-.71-.94-.57Z"/><path class="cls-1" d="M660.71,133.44a5.21,5.21,0,0,1,1.08.8,3.1,3.1,0,0,1,.81.76c.22.42-.07,1.14.22,1.51s.84.36.56.89a.17.17,0,0,1-.14,0c-.1-.19-.85-.47-.86-.5,0,.4.46,1.37-.23,1a11.94,11.94,0,0,0-2.38-1,10,10,0,0,1-2.94-1.77c-.14-.14-.34-.63-.61-.46A6.75,6.75,0,0,0,655,136a20.26,20.26,0,0,1-1.6,1.61c-.46.42-.9.86-1.57.66-.22-.06-1.25-.11-1.12-.45,0,0,.13-.33.15-.42s.83-1.72.83-1.72l-1.47,1.3-.07-.09.16-.3,2.4-3.18s.14-.2.25-.4a1.91,1.91,0,0,1,.37-.5c.14-.14.15-.11.13-.3s.24-.12,0-.25-1.63-1.31-1.63-1.31c-.2-.09-.59-.82-.76-1s-.15-.62-.11-1,0-.76.22-1,.59,0,.8.06l.15,0-.09-.65s0-.13.13,0,4,2.73,4,2.73l2.32-2.64s.26-.27.39-.28c.31,0,.21-.11.4-.25s.1-.12.26-.14.24.07.28,0a3.16,3.16,0,0,0-.42.49h1.73l.29-.59.19,0,.38,0-.68,1c-.29.44-.92,1.06-1,1.59.4.1.68-.52.9-.76s.46-.35.65-.57.46-.57.73-.53a6.24,6.24,0,0,1-.68.94c-.49.66-1.06,1.27-1.54,1.94-.34.47-1.71,2-.62,2.35a21,21,0,0,1,2.33,1.41c.13.08,1.09,1.05,1.14,1-.08.14-.3.26-.44.11l-.73-.72-.94-.58Z"/><path class="cls-1" d="M840.51,161.14a5.11,5.11,0,0,1,1.08.78,3.31,3.31,0,0,1,.82.76c.22.41-.06,1.14.23,1.51s.85.35.57.88a.22.22,0,0,1-.14,0c-.09-.19-.86-.47-.86-.49,0,.39.47,1.36-.23,1a11.84,11.84,0,0,0-2.38-.92,7.45,7.45,0,0,1-1.51-.72,6.37,6.37,0,0,1-1.45-1c-.14-.14-.34-.62-.61-.45a6.46,6.46,0,0,0-1.2,1.3,18.69,18.69,0,0,1-1.59,1.62c-.46.43-.89.87-1.56.68-.22-.07-1.26-.11-1.13-.44,0,0,.13-.33.15-.43s.81-1.72.81-1.72l-1.45,1.31-.07-.09.16-.3,2.37-3.2s.14-.2.25-.4a1.73,1.73,0,0,1,.36-.51c.14-.14.14-.11.13-.3s.24-.12,0-.25-1.64-1.29-1.64-1.29c-.2-.1-.6-.82-.77-1s-.15-.62-.11-1-.05-.76.21-1,.58-.05.79.05l.16,0-.1-.65s0-.12.13,0,4.05,2.7,4.05,2.7l2.3-2.66s.26-.28.39-.29c.31,0,.21-.11.4-.26s.09-.12.26-.14.23.08.27,0a4.84,4.84,0,0,0-.42.5h1.74l.29-.6.19,0,.37,0-.67,1c-.28.45-.91,1.07-1,1.6.4.1.67-.52.89-.77s.46-.35.65-.57.45-.58.72-.54a5.55,5.55,0,0,1-.67.94c-.48.67-1.05,1.28-1.53,2-.33.47-1.68,2-.6,2.36a19.9,19.9,0,0,1,2.35,1.38c.13.08,1.1,1.05,1.15.95-.08.14-.3.26-.45.12l-.73-.72-.94-.57Z"/><path class="cls-1" d="M796.78,269.8a5.74,5.74,0,0,1,1.08.79,3.07,3.07,0,0,1,.81.75c.23.42,0,1.14.24,1.51s.84.35.57.89a.22.22,0,0,1-.14,0c-.1-.19-.86-.47-.86-.49,0,.39.46,1.36-.23,1a12.31,12.31,0,0,0-2.39-.92,7.72,7.72,0,0,1-1.51-.72,6.32,6.32,0,0,1-1.44-1c-.14-.14-.34-.62-.62-.45a7,7,0,0,0-1.19,1.3,22.21,22.21,0,0,1-1.59,1.63c-.46.42-.89.86-1.56.67-.23-.07-1.26-.11-1.13-.44,0,0,.12-.33.15-.43s.81-1.72.81-1.72l-1.45,1.31-.07-.09.16-.3,2.37-3.2a3.69,3.69,0,0,0,.24-.4,2.21,2.21,0,0,1,.36-.51c.15-.14.15-.11.13-.3s.24-.12,0-.25-1.65-1.29-1.65-1.29c-.2-.09-.59-.82-.76-1-.32-.27-.15-.62-.12-1s-.05-.75.21-1,.59-.05.8,0h.16l-.1-.66s0-.12.13,0,4.05,2.7,4.05,2.7l2.3-2.66s.26-.28.38-.29c.31,0,.21-.1.4-.25s.1-.12.27-.14.23.07.27,0a3.16,3.16,0,0,0-.42.49h1.74l.28-.6.19,0,.38,0c-.23.35-.45.7-.67,1.05s-.91,1.06-1,1.59c.4.1.68-.52.9-.77s.45-.35.64-.57.45-.58.73-.54a6.26,6.26,0,0,1-.67,1c-.49.66-1.05,1.28-1.53,1.95-.33.47-1.69,2-.6,2.36a20.77,20.77,0,0,1,2.35,1.38c.13.08,1.09,1,1.15.95-.08.14-.3.27-.45.12l-.73-.72-.94-.57Z"/><path class="cls-1" d="M674,359.92a5.13,5.13,0,0,1,1.09.77,3,3,0,0,1,.83.74c.23.42,0,1.14.26,1.51s.85.34.58.88a.17.17,0,0,1-.14,0c-.1-.19-.87-.46-.87-.48,0,.39.49,1.36-.21,1a11.92,11.92,0,0,0-2.4-.89,7.41,7.41,0,0,1-1.52-.69,6.92,6.92,0,0,1-1.46-1c-.14-.14-.35-.62-.62-.45a6.79,6.79,0,0,0-1.18,1.32,22.06,22.06,0,0,1-1.56,1.65c-.46.43-.88.88-1.56.69-.22-.06-1.25-.09-1.13-.42,0,0,.12-.33.14-.43s.79-1.73.79-1.73l-1.43,1.33-.08-.09.16-.3,2.33-3.24s.13-.2.23-.4a2.52,2.52,0,0,1,.36-.52c.14-.14.14-.11.12-.3s.24-.12,0-.25-1.67-1.26-1.67-1.26c-.2-.1-.6-.82-.78-1s-.16-.62-.12-1-.06-.76.19-1,.59-.05.8,0l.16,0-.11-.65s0-.13.13,0,4.09,2.64,4.09,2.64l2.26-2.69s.25-.28.38-.29c.31,0,.2-.11.39-.26s.1-.12.27-.15.23.07.27,0a3,3,0,0,0-.41.5l1.73,0,.28-.6.19,0,.38,0-.66,1.06c-.28.44-.89,1.08-.93,1.61.4.09.67-.53.88-.79s.45-.36.64-.58.44-.58.72-.54a6.2,6.2,0,0,1-.66.95c-.48.67-1,1.29-1.5,2-.33.47-1.66,2-.57,2.36a21.17,21.17,0,0,1,2.37,1.35c.13.08,1.11,1,1.16.94-.08.14-.29.26-.44.12l-.75-.71-.95-.56Z"/><path class="cls-1" d="M455.1,384.41a5.82,5.82,0,0,1,1.09.77,3.16,3.16,0,0,1,.83.75c.23.41,0,1.14.25,1.51s.85.33.58.87a.23.23,0,0,1-.14,0c-.09-.19-.86-.46-.86-.48,0,.39.48,1.36-.22,1a11.83,11.83,0,0,0-2.39-.89,7.21,7.21,0,0,1-1.52-.7,6.44,6.44,0,0,1-1.46-1c-.15-.14-.36-.62-.63-.44a6.65,6.65,0,0,0-1.17,1.31,20.4,20.4,0,0,1-1.57,1.65c-.45.43-.88.88-1.55.7-.23-.06-1.26-.09-1.13-.43,0,0,.12-.33.14-.43s.78-1.73.78-1.73l-1.43,1.33-.07-.09.16-.3,2.32-3.23a4.48,4.48,0,0,0,.24-.41,1.92,1.92,0,0,1,.35-.51c.15-.14.15-.11.13-.3s.24-.12,0-.25-1.66-1.27-1.66-1.27c-.2-.09-.61-.81-.78-1-.32-.26-.16-.62-.13-1s-.06-.75.2-1,.58-.06.79,0l.16,0-.1-.65s0-.12.12,0,4.09,2.64,4.09,2.64l2.26-2.69s.26-.28.38-.3c.31,0,.21-.11.4-.26s.09-.12.26-.14.24.07.27,0a5.78,5.78,0,0,0-.41.5l1.74,0,.28-.6.19,0,.37,0-.66,1.05c-.27.45-.89,1.08-.93,1.61.4.1.67-.53.89-.78s.45-.36.64-.58.44-.58.71-.55a6.14,6.14,0,0,1-.65.95c-.48.68-1,1.3-1.51,2-.32.48-1.66,2-.56,2.37a20.23,20.23,0,0,1,2.36,1.35c.13.07,1.11,1,1.17.93-.08.14-.3.27-.45.12l-.74-.7-.95-.56Z"/><path class="cls-1" d="M483.91,513.38a6.83,6.83,0,0,1-1.28-1.13,4,4,0,0,1-.94-1.07c-.24-.55.21-1.44-.11-1.95-.13-.21-.47-.29-.56-.51a.88.88,0,0,1-.07-.5s1.11.5,1.23.6c0-.24.18-1.32,0-1.46a7.71,7.71,0,0,0,.92.55,13.34,13.34,0,0,0,2.28.94,7.62,7.62,0,0,1,1.75,1.19,13.28,13.28,0,0,1,1.91,1.6c.16.2.36.84.73.66a9.17,9.17,0,0,0,1.68-1.5,26.56,26.56,0,0,1,2.22-1.88c.64-.48,1.24-1,2.07-.66.28.11,1.59.29,1.38.7,0,0-.2.4-.24.52s-1.24,2.09-1.24,2.09l2-1.48.08.12-.24.36-3.42,3.78s-.2.24-.36.48a2.38,2.38,0,0,1-.53.6c-.2.16-.2.12-.2.37s-.32.12,0,.32,1.93,1.85,1.93,1.85a.4.4,0,0,1,.16.4,5,5,0,0,0,0,.6c0,.08.53.42.6.56a1.28,1.28,0,0,1,0,.82c0,.34,0,1.24-.27,1.48s-.75,0-1-.17h-.2l0,.85s0,.16-.16,0-4.83-3.94-4.83-3.94-1.72,1.41-2,1.65-1.29,1.44-1.29,1.44-.36.33-.52.33c-.4,0-.28.11-.54.27s-.14.14-.36.15c-.07,0-.29-.13-.34-.09a4.07,4.07,0,0,0,.59-.58c-.12,0-2.21-.2-2.21-.2l-.44.73h-.72l3-3.78,0-.2L482.62,520c-.26.24-.62.39-.89.64s-.65.68-1,.59a7.28,7.28,0,0,1,1-1.11c.7-.79,1.5-1.5,2.19-2.3.48-.56,2.39-2.34,1.05-2.93a26.16,26.16,0,0,1-2.81-2c-.15-.12-1.26-1.47-1.35-1.35.13-.17.42-.3.59-.1l.84,1,1.13.84Z"/><path class="cls-1" d="M628.45,471.93a7.21,7.21,0,0,1,1.24,1.17,4.07,4.07,0,0,1,.91,1.09c.22.57-.25,1.43,0,1.95.13.22.46.32.55.54a1,1,0,0,1,0,.5c0-.06-1.1-.54-1.21-.64,0,.24-.22,1.31,0,1.46a9.38,9.38,0,0,0-.91-.58c-2-1.33-4.28-1.95-5.82-3.91-.16-.2-.33-.85-.71-.67a8.44,8.44,0,0,0-1.72,1.45,28.16,28.16,0,0,1-2.28,1.8c-.66.47-1.27,1-2.09.6-.28-.11-1.58-.33-1.36-.74,0,0,.21-.39.25-.51s1.31-2.06,1.31-2.06l-2,1.43-.08-.12.25-.36,3.53-3.67s.21-.24.38-.47a2.57,2.57,0,0,1,.54-.59c.2-.15.2-.11.21-.35s.33-.12,0-.33-1.87-1.9-1.87-1.9c-.24-.16-.1-.48-.19-.71s-.43-.43-.63-.65c-.35-.39-.09-.81,0-1.23s.06-1,.44-1.29.75,0,1,.2h.2v-.84s0-.16.16,0,4.7,4.08,4.7,4.08l3.35-3s.37-.31.53-.31c.4,0,.28-.1.55-.26s.14-.13.36-.13c.06,0,.28.13.33.09a7.48,7.48,0,0,0-.61.56l2.21.27.46-.71h.72l-3.08,3.69,0,.2,1.82-1.63c.27-.24.64-.38.92-.62s.66-.66,1-.56a7.28,7.28,0,0,1-1,1.08c-.73.77-1.54,1.46-2.26,2.24-.5.54-2.47,2.26-1.14,2.89a26.58,26.58,0,0,1,2.75,2.13c.15.12,1.22,1.51,1.3,1.4-.12.16-.42.28-.58.07l-.81-1-1.1-.88Z"/><path class="cls-1" d="M603.46,451.69a5.36,5.36,0,0,1,.45-1.25,3.13,3.13,0,0,1,.5-1c.33-.33,1.11-.26,1.38-.64s.1-.91.69-.8a.23.23,0,0,1,0,.14c-.16.15-.22,1-.24,1,.37-.13,1.18-.82,1-.05a12.63,12.63,0,0,0-.22,2.54,7.18,7.18,0,0,1-.26,1.65,7,7,0,0,1-.58,1.68c-.1.17-.51.5-.27.72a6.46,6.46,0,0,0,1.58.78,21.46,21.46,0,0,1,2,1.07c.53.32,1.08.61,1.08,1.31,0,.24.25,1.24-.1,1.21,0,0-.35,0-.45,0s-1.88-.3-1.88-.3l1.66,1-.06.09-.34-.07-3.73-1.38a3.93,3.93,0,0,0-.46-.12,2.17,2.17,0,0,1-.59-.21c-.17-.1-.14-.11-.32,0s-.18-.2-.23.1-.78,1.93-.78,1.93c0,.22-.63.81-.72,1-.17.38-.55.32-.89.38s-.71.26-1.06.09-.21-.55-.17-.78l-.06-.15-.6.28s-.12,0-.05-.12,1.46-4.65,1.46-4.65l-3.2-1.46s-.33-.17-.38-.28c-.12-.29-.16-.18-.36-.32s-.14,0-.21-.21,0-.25,0-.27a4.34,4.34,0,0,0,.6.26c0-.09-.5-1.66-.5-1.66l-.65-.12-.07-.17-.15-.35,1.2.35a4.72,4.72,0,0,0,1.8.47c0-.41-.69-.5-1-.64s-.47-.34-.73-.46-.68-.28-.72-.55a6.12,6.12,0,0,1,1.09.38c.78.28,1.53.65,2.31.92.55.19,2.4,1.06,2.43-.08a20.89,20.89,0,0,1,.67-2.64c0-.15.7-1.35.59-1.38.16,0,.34.22.24.4l-.48.91-.29,1.06Z"/><path class="cls-1" d="M678.1,665.77a7.26,7.26,0,0,1-1.28-1.14,4,4,0,0,1-1-1.06c-.23-.56.22-1.44-.11-2-.13-.21-.46-.3-.56-.51a1,1,0,0,1-.07-.51c0,.06,1.12.51,1.24.61,0-.24.17-1.32,0-1.47a6.58,6.58,0,0,0,.92.55,14,14,0,0,0,2.87,1.31c.5.17.75.6,1.15.93s.64.46,1,.68a4.69,4.69,0,0,1,1,.81c.16.2.35.84.73.65a8.47,8.47,0,0,0,1.67-1.5,28.28,28.28,0,0,1,2.22-1.88c.64-.48,1.24-1,2.07-.66.29.11,1.59.29,1.39.7,0,0-.2.4-.24.52s-1.25,2.09-1.25,2.09l2-1.49.08.12-.24.37-3.41,3.78s-.2.24-.36.48a2.84,2.84,0,0,1-.52.61c-.2.16-.2.12-.2.36s-.33.12,0,.32,1.93,1.84,1.93,1.84c.24.15.11.48.21.7s.44.43.64.63c.37.38.12.81,0,1.24s0,1-.4,1.3-.74,0-1-.17h-.2l0,.85s0,.16-.16,0-4.83-3.94-4.83-3.94L680.2,674s-.36.32-.52.33c-.4,0-.28.11-.54.27s-.14.14-.36.15c-.07,0-.29-.13-.34-.08a4.63,4.63,0,0,0,.59-.59c-.13,0-2.21-.19-2.21-.19l-.44.72h-.72l3-3.78,0-.2-1.77,1.69c-.26.25-.62.39-.9.64s-.64.68-1,.6a7.88,7.88,0,0,1,1-1.12c.7-.79,1.5-1.5,2.19-2.3.48-.56,2.4-2.34,1.06-2.93a25.65,25.65,0,0,1-2.82-2c-.16-.12-1.27-1.47-1.35-1.36.12-.17.41-.3.58-.09l.85,1,1.13.85Z"/><path class="cls-1" d="M704.35,678.08a5.44,5.44,0,0,1,1.09.78,2.92,2.92,0,0,1,.82.74c.23.41,0,1.14.25,1.51s.85.34.58.88a.18.18,0,0,1-.14,0c-.1-.19-.86-.46-.86-.48,0,.39.48,1.36-.22,1a11.87,11.87,0,0,0-2.39-.9,6.74,6.74,0,0,1-1.52-.7,6.67,6.67,0,0,1-1.46-1c-.14-.14-.35-.62-.62-.45a7,7,0,0,0-1.18,1.31,20.4,20.4,0,0,1-1.57,1.65c-.46.43-.88.88-1.55.69-.23-.06-1.26-.09-1.14-.43,0,0,.12-.33.14-.43s.8-1.73.8-1.73l-1.44,1.33-.07-.09.15-.3,2.34-3.23a3.69,3.69,0,0,0,.24-.4,1.93,1.93,0,0,1,.36-.52c.14-.14.14-.11.12-.29s.24-.13,0-.25-1.65-1.28-1.65-1.28c-.21-.09-.61-.81-.78-1-.32-.26-.16-.62-.13-1s-.06-.75.2-1,.59-.06.8,0h.15l-.1-.66s0-.12.13,0,4.08,2.65,4.08,2.65l2.27-2.68s.25-.28.38-.29c.31,0,.21-.11.4-.26s.09-.13.26-.15.23.07.27,0a4.58,4.58,0,0,0-.41.5l1.74,0,.28-.6.19,0,.37,0-.66,1c-.28.45-.89,1.08-.94,1.61.41.09.68-.53.89-.78s.45-.36.64-.58.45-.58.72-.55a5.75,5.75,0,0,1-.66.95c-.48.68-1,1.3-1.51,2-.33.47-1.66,2-.57,2.36a21.56,21.56,0,0,1,2.36,1.36c.13.08,1.11,1,1.16.94-.08.14-.29.26-.44.12l-.74-.71-1-.56Z"/><path class="cls-1" d="M471.15,706.26a6.37,6.37,0,0,1,.29,1.69,4,4,0,0,1,.08,1.42c-.17.58-1.07,1-1.13,1.59,0,.25.18.53.12.75a1,1,0,0,1-.27.44c.05,0-.55-1.09-.58-1.24-.14.2-1,.92-.92,1.14a7.72,7.72,0,0,0-.38-1,13,13,0,0,0-1.42-2.81,3.88,3.88,0,0,1-.32-1.44c-.08-.38-.2-.76-.32-1.14a4.72,4.72,0,0,1-.25-1.23c0-.26.25-.88-.16-1a9,9,0,0,0-2.25.13,28.28,28.28,0,0,1-2.91.08c-.8,0-1.58,0-2-.78-.15-.26-1.06-1.22-.64-1.41,0,0,.41-.19.52-.26s2.27-.85,2.27-.85l-2.49-.1v-.14l.41-.13,5-.82s.31-.07.58-.15a2.56,2.56,0,0,1,.79-.15c.26,0,.23,0,.38-.16s.33.11.2-.25-.35-2.65-.35-2.65c-.1-.26.2-.44.27-.67a3.08,3.08,0,0,0-.11-.9c-.05-.53.41-.7.75-1s.62-.74,1.12-.77.58.48.68.76l.16.12.49-.68s.1-.12.13.1,1.31,6.09,1.31,6.09l4.48-.39a1.65,1.65,0,0,1,.61.07c.31.26.28.09.59.13s.19,0,.37.1.14.28.21.28a5.1,5.1,0,0,0-.82.09c.1.08,1.6,1.53,1.6,1.53l.8-.29.19.15.37.3-4.68,1.1-.09.18,2.43-.21c.36,0,.73.08,1.1.05s.93-.12,1.15.16a8,8,0,0,1-1.46.26c-1,.18-2.1.24-3.15.43-.72.14-3.33.34-2.64,1.63a27,27,0,0,1,.91,3.36,11.69,11.69,0,0,0,.21,1.9c-.2,0-.5,0-.51-.29l0-1.32-.36-1.36Z"/><path class="cls-1" d="M458.58,688.75a5.16,5.16,0,0,1,1.08.79,3,3,0,0,1,.82.75c.23.41-.05,1.13.25,1.51s.85.34.57.88a.18.18,0,0,1-.14,0c-.1-.19-.86-.47-.86-.49,0,.39.47,1.37-.22,1a12.53,12.53,0,0,0-2.39-.91,7.49,7.49,0,0,1-1.52-.71,6.66,6.66,0,0,1-1.45-1c-.14-.14-.35-.62-.62-.45a6.7,6.7,0,0,0-1.18,1.31c-.5.56-1,1.12-1.58,1.63s-.89.88-1.56.69c-.23-.07-1.26-.1-1.13-.44,0,0,.12-.33.14-.43s.8-1.72.8-1.72l-1.44,1.32-.07-.09.16-.3,2.35-3.21a4.48,4.48,0,0,0,.24-.41,2.21,2.21,0,0,1,.36-.51c.14-.14.15-.11.13-.3s.24-.12,0-.25-1.65-1.28-1.65-1.28c-.2-.1-.6-.82-.77-1s-.16-.62-.12-1-.06-.75.2-1,.59-.05.8,0l.16,0-.1-.65s0-.13.12,0,4.07,2.67,4.07,2.67l2.28-2.67s.26-.28.39-.29c.31,0,.2-.11.39-.26s.1-.12.27-.14.23.07.27,0a4.4,4.4,0,0,0-.41.49l1.73,0,.29-.6.18,0,.38,0c-.22.35-.44.7-.67,1.05s-.9,1.07-.94,1.6c.4.1.67-.53.89-.78s.45-.35.64-.57.45-.58.72-.54a6.2,6.2,0,0,1-.66,1c-.48.66-1,1.28-1.52,2-.33.47-1.67,2-.58,2.36a21,21,0,0,1,2.35,1.37c.13.08,1.1,1,1.16.94-.08.15-.3.27-.45.12l-.74-.71-.94-.57Z"/><path class="cls-1" d="M556.65,647.27a5.87,5.87,0,0,1,1.09.78,3.31,3.31,0,0,1,.82.76c.23.41,0,1.13.24,1.5s.85.35.57.89a.21.21,0,0,1-.13,0c-.1-.19-.86-.47-.87-.49,0,.39.48,1.37-.22,1a12.28,12.28,0,0,0-2.39-.91,7.41,7.41,0,0,1-1.51-.71,6.42,6.42,0,0,1-1.45-1c-.15-.14-.35-.62-.63-.45A7,7,0,0,0,551,649.9a22.07,22.07,0,0,1-1.58,1.63c-.46.43-.88.88-1.56.69-.22-.07-1.26-.1-1.13-.44,0,0,.12-.33.15-.43s.8-1.72.8-1.72L546.22,651l-.07-.09.16-.3,2.35-3.22s.14-.2.25-.4a1.92,1.92,0,0,1,.35-.51c.15-.14.15-.11.13-.3s.24-.12,0-.25-1.65-1.28-1.65-1.28c-.21-.1-.6-.82-.78-1s-.15-.62-.12-1-.05-.75.21-1,.58,0,.79,0l.16,0-.1-.65s0-.13.12,0,4.08,2.67,4.08,2.67l2.28-2.67s.25-.28.38-.29c.31,0,.21-.11.4-.26s.09-.12.26-.14.23.07.27,0a4.4,4.4,0,0,0-.41.49l1.74,0,.28-.6.19,0,.37,0-.66,1.05c-.28.44-.9,1.07-.95,1.6.4.1.68-.53.89-.78s.46-.35.65-.57.44-.58.72-.54a6.11,6.11,0,0,1-.66.94c-.49.67-1.05,1.29-1.53,2-.33.47-1.67,2-.58,2.36a21,21,0,0,1,2.35,1.37c.13.08,1.11,1,1.16.94-.08.15-.3.27-.44.12l-.74-.71-.95-.57Z"/><path class="cls-1" d="M571.15,799.75a6.67,6.67,0,0,1-1.46.88,4,4,0,0,1-1.3.59c-.6.06-1.31-.63-1.89-.48-.24.07-.43.36-.66.39a.93.93,0,0,1-.5-.09s.82-.91.95-1c-.24,0-1.21-.56-1.4-.44a9,9,0,0,0,.8-.71c1.5-1.29,2.6-3.06,4.35-4,.29-.17,1.88-.68,1.82-1a8.8,8.8,0,0,0-.93-2.05,27.18,27.18,0,0,1-1.13-2.68c-.27-.76-.58-1.48,0-2.18.19-.23.75-1.43,1.08-1.11,0,0,.32.31.43.39s1.62,1.81,1.62,1.81l-.82-2.36.14,0,.27.34,2.59,4.38a5.69,5.69,0,0,0,.35.49,2.37,2.37,0,0,1,.42.68c.1.24.06.23.29.3s0,.34.31.09,2.34-1.29,2.34-1.29c.21-.19.49,0,.72,0s.54-.3.8-.43c.47-.24.8.13,1.19.35s.91.31,1.12.76-.24.71-.46.91l-.06.19.82.22s.15,0-.05.15-5.2,3.43-5.2,3.43l2,4s.2.44.15.6c-.12.38,0,.3.1.59s.1.18,0,.39-.21.23-.18.3a7,7,0,0,0-.38-.74c0,.12-.85,2-.85,2l.56.64-.07.23-.15.46-2.72-4-.2,0,1.08,2.19c.16.32.19.72.35,1s.46.82.27,1.12a7.72,7.72,0,0,1-.77-1.26c-.55-.9-1-1.87-1.55-2.77-.39-.63-1.52-3-2.48-1.88a26,26,0,0,1-2.79,2.07c-.16.12-1.78.77-1.69.89-.13-.17-.17-.48.08-.59l1.21-.5,1.14-.83Z"/><path class="cls-1" d="M553.87,798.23a5.33,5.33,0,0,1,.47-1.26,3,3,0,0,1,.5-1c.34-.33,1.11-.26,1.39-.64s.1-.91.7-.79a.23.23,0,0,1,0,.14c-.16.15-.22,1-.24,1,.37-.14,1.19-.82,1,0a12,12,0,0,0-.24,2.54,7.21,7.21,0,0,1-.28,1.65,6.64,6.64,0,0,1-.59,1.67c-.1.17-.51.5-.27.72a6.8,6.8,0,0,0,1.57.79,19.36,19.36,0,0,1,2,1.09c.53.32,1.08.62,1.07,1.32,0,.23.24,1.23-.11,1.2,0,0-.35,0-.45,0s-1.88-.31-1.88-.31l1.66,1-.07.1-.33-.08-3.73-1.41-.45-.12a2.17,2.17,0,0,1-.59-.21c-.17-.1-.14-.11-.32,0s-.18-.2-.23.09-.8,1.93-.8,1.93c0,.22-.63.8-.72,1-.18.37-.56.31-.9.37s-.71.25-1.06.08-.2-.55-.16-.78l-.06-.15-.6.27s-.12,0,0-.11,1.49-4.64,1.49-4.64l-3.18-1.49s-.34-.17-.38-.29c-.12-.29-.16-.17-.36-.31s-.14-.06-.21-.22,0-.24,0-.27a3.05,3.05,0,0,0,.59.26c0-.09-.48-1.66-.48-1.66l-.66-.12-.07-.17-.13-.35,1.19.36c.5.15,1.27.58,1.79.48,0-.41-.68-.51-1-.65s-.47-.34-.73-.47-.67-.28-.71-.55a5.46,5.46,0,0,1,1.09.39c.77.28,1.52.66,2.3.94.54.19,2.38,1.07,2.43-.07a20.07,20.07,0,0,1,.69-2.63c0-.15.71-1.34.6-1.37.16,0,.33.21.23.4l-.49.9-.29,1.06Z"/><path class="cls-1" d="M782.18,834.58a7,7,0,0,1-1.47.88,3.86,3.86,0,0,1-1.29.59c-.6.06-1.31-.63-1.9-.47-.24.06-.42.35-.65.38a1,1,0,0,1-.51-.08c.06,0,.82-.92.95-1-.24,0-1.21-.56-1.4-.44a7.76,7.76,0,0,0,.8-.72c1.32-1.14,2.28-2.82,3.77-3.75.48-.3,2.22-1.24,2.11-1.87a4.75,4.75,0,0,0-.65-1.5,25.29,25.29,0,0,1-1.13-2.68c-.27-.75-.58-1.48,0-2.17.18-.24.74-1.43,1.08-1.11,0,0,.32.31.42.38s1.63,1.81,1.63,1.81l-.82-2.36.13,0,.28.34,2.6,4.38s.17.26.35.49a2.57,2.57,0,0,1,.42.67c.1.24.06.23.29.3s0,.35.31.1,2.33-1.3,2.33-1.3c.21-.19.49,0,.73,0s.54-.3.79-.43c.48-.24.81.13,1.19.34s.92.31,1.13.76-.24.72-.46.92l-.06.19.82.21s.15.05-.05.15-5.19,3.44-5.19,3.44l2,4a1.58,1.58,0,0,1,.16.6c-.12.38,0,.3.1.59s.09.18,0,.39c0,.06-.21.23-.19.3a5.6,5.6,0,0,0-.37-.74c0,.12-.85,2.05-.85,2.05l.56.64-.07.23-.14.46-2.73-4-.21,0,1.09,2.19c.16.32.19.71.35,1s.46.82.28,1.12a7.28,7.28,0,0,1-.78-1.25c-.55-.91-1-1.88-1.55-2.78-.39-.62-1.53-3-2.48-1.87a26.36,26.36,0,0,1-2.79,2.08c-.16.11-1.78.77-1.7.89-.12-.17-.16-.48.09-.59l1.21-.51,1.14-.82Z"/><path class="cls-1" d="M808.52,816.09a5.44,5.44,0,0,1,1.09.78,3.11,3.11,0,0,1,.82.75c.23.41,0,1.13.25,1.5s.85.34.58.88a.23.23,0,0,1-.14,0c-.1-.19-.86-.46-.86-.49,0,.39.48,1.36-.22,1a12.5,12.5,0,0,0-2.39-.9,7.17,7.17,0,0,1-1.52-.69,7.08,7.08,0,0,1-1.46-1c-.14-.14-.35-.62-.62-.44a6.73,6.73,0,0,0-1.18,1.31,20.27,20.27,0,0,1-1.57,1.64c-.46.43-.88.88-1.55.69-.23-.06-1.26-.09-1.14-.43l.15-.42c0-.1.79-1.73.79-1.73l-1.44,1.32-.07-.08.15-.3,2.34-3.23a4.48,4.48,0,0,0,.24-.41,1.73,1.73,0,0,1,.36-.51c.14-.14.14-.11.12-.3s.24-.12,0-.25-1.65-1.27-1.65-1.27c-.21-.1-.61-.82-.78-1s-.16-.61-.12-1-.07-.76.19-1,.59,0,.8,0l.16,0-.11-.65s0-.13.13,0,4.08,2.66,4.08,2.66l2.27-2.69s.25-.28.38-.29c.31,0,.21-.11.4-.26s.09-.12.26-.15.23.08.27,0a5.78,5.78,0,0,0-.41.5l1.74,0,.28-.6.19,0,.37,0L809,810c-.28.44-.89,1.07-.94,1.6.41.1.68-.53.89-.78s.45-.36.64-.58.45-.58.72-.54a6.2,6.2,0,0,1-.66,1c-.48.67-1,1.29-1.51,2-.32.48-1.66,2-.57,2.37a19.41,19.41,0,0,1,2.36,1.35c.13.08,1.11,1,1.16.94-.08.14-.29.27-.44.12l-.74-.71-.95-.56Z"/><path class="cls-1" d="M790,480.7a5.74,5.74,0,0,1,1.08.79,3.07,3.07,0,0,1,.81.75c.23.42,0,1.14.24,1.51s.84.35.56.89a.16.16,0,0,1-.13,0c-.1-.19-.86-.47-.86-.49,0,.39.46,1.36-.23,1a12.31,12.31,0,0,0-2.39-.92,7.09,7.09,0,0,1-1.5-.71,6.51,6.51,0,0,1-1.45-1c-.14-.13-.35-.62-.62-.45a7,7,0,0,0-1.19,1.3c-.5.56-1,1.12-1.59,1.63s-.89.86-1.56.67c-.23-.06-1.26-.11-1.13-.44,0,0,.12-.33.15-.43S781,483,781,483l-1.45,1.31-.07-.09.16-.3,2.37-3.2s.13-.2.24-.4a2.21,2.21,0,0,1,.36-.51c.15-.14.15-.11.13-.3s.24-.11,0-.25-1.65-1.29-1.65-1.29c-.2-.09-.59-.82-.76-1-.32-.27-.16-.62-.12-1s-.05-.75.21-1,.59-.05.8.05h.15l-.09-.66s0-.12.12,0,4.06,2.7,4.06,2.7l2.3-2.66s.25-.27.38-.29c.31,0,.21-.1.4-.25s.1-.12.26-.14.24.07.28,0a3.71,3.71,0,0,0-.42.49h1.73l.29-.6.19,0,.38,0c-.23.35-.45.7-.67,1s-.91,1.06-1,1.59c.4.1.68-.52.89-.77s.46-.35.65-.57.45-.58.73-.54a7.06,7.06,0,0,1-.67.95c-.49.66-1.05,1.28-1.53,1.95-.34.47-1.69,2-.6,2.36a20.77,20.77,0,0,1,2.35,1.38c.13.08,1.09,1.05,1.15.95-.09.15-.3.27-.45.12l-.73-.72-.94-.57Z"/><path class="cls-1" d="M660.71,571a5.16,5.16,0,0,1,1.08.79,3.14,3.14,0,0,1,.81.77c.22.41-.07,1.13.22,1.51s.84.35.56.89a.17.17,0,0,1-.14,0c-.1-.19-.85-.48-.86-.5,0,.39.46,1.37-.23,1a12.54,12.54,0,0,0-2.38-.94,7.7,7.7,0,0,1-1.5-.73,6.68,6.68,0,0,1-1.44-1c-.14-.14-.34-.63-.61-.46A6.75,6.75,0,0,0,655,573.5a22.09,22.09,0,0,1-1.6,1.61c-.46.42-.9.86-1.57.66-.22-.07-1.25-.12-1.12-.45,0,0,.13-.33.15-.43s.83-1.71.83-1.71l-1.47,1.3-.07-.09.16-.3,2.4-3.18s.14-.2.25-.4a2,2,0,0,1,.37-.51c.14-.14.15-.1.13-.29s.24-.12,0-.25-1.63-1.31-1.63-1.31c-.2-.1-.59-.83-.76-1s-.15-.62-.11-1,0-.75.22-1,.59,0,.8.06h.15l-.09-.66s0-.12.13,0,4,2.74,4,2.74l2.32-2.64s.26-.27.39-.29c.31,0,.21-.1.4-.25s.1-.12.26-.14.24.08.28,0a3.16,3.16,0,0,0-.42.49h1.73l.29-.59.19,0,.38,0c-.23.34-.46.69-.68,1s-.92,1.06-1,1.59c.4.1.68-.52.9-.77s.46-.35.65-.56.46-.57.73-.53a5.69,5.69,0,0,1-.68.93c-.49.67-1.06,1.28-1.54,1.95-.34.47-1.71,2-.62,2.35a21.24,21.24,0,0,1,2.33,1.4c.13.08,1.09,1.06,1.14,1-.08.14-.3.26-.44.12l-.73-.73-.94-.58Z"/><path class="cls-1" d="M840.51,598.65a5.16,5.16,0,0,1,1.08.79,3.13,3.13,0,0,1,.82.76c.22.41-.06,1.13.23,1.51s.85.34.57.88a.17.17,0,0,1-.14,0c-.09-.19-.86-.47-.86-.49,0,.39.47,1.37-.23,1a11.87,11.87,0,0,0-2.38-.93,7.41,7.41,0,0,1-1.51-.71,7.06,7.06,0,0,1-1.45-1c-.14-.14-.34-.63-.61-.45a6.41,6.41,0,0,0-1.2,1.29,18.8,18.8,0,0,1-1.59,1.63c-.46.42-.89.87-1.56.67-.22-.06-1.26-.1-1.13-.44,0,0,.13-.33.15-.42s.81-1.72.81-1.72l-1.45,1.31-.07-.09.16-.3,2.37-3.2s.14-.21.25-.41a1.88,1.88,0,0,1,.36-.51c.14-.14.14-.1.13-.29s.24-.12,0-.25-1.64-1.3-1.64-1.3c-.2-.09-.6-.82-.77-1s-.15-.62-.11-1-.05-.75.21-1,.58,0,.79.06l.16,0-.1-.65s0-.13.13,0S836,595,836,595l2.3-2.65s.26-.28.39-.29c.31,0,.21-.11.4-.26s.09-.12.26-.14.23.08.27,0a4.84,4.84,0,0,0-.42.5l1.74,0,.29-.59.19,0,.37,0-.67,1.05c-.28.44-.91,1.07-1,1.6.4.1.67-.53.89-.78s.46-.35.65-.57.45-.57.72-.53a5.55,5.55,0,0,1-.67.94c-.48.67-1.05,1.28-1.53,2-.33.47-1.68,2-.6,2.35a21.16,21.16,0,0,1,2.35,1.39c.13.08,1.1,1,1.15.95-.08.14-.3.26-.45.11l-.73-.71-.94-.57Z"/><path class="cls-1" d="M796.78,707.32a5.68,5.68,0,0,1,1.08.78,3.1,3.1,0,0,1,.81.76c.23.41,0,1.13.24,1.51s.84.35.57.88a.22.22,0,0,1-.14,0c-.1-.2-.86-.47-.86-.5,0,.39.46,1.37-.23,1a11.7,11.7,0,0,0-2.39-.92,7.72,7.72,0,0,1-1.51-.72,7,7,0,0,1-1.44-1c-.14-.14-.34-.63-.62-.45a7,7,0,0,0-1.19,1.29,18.84,18.84,0,0,1-1.59,1.63c-.46.43-.89.87-1.56.68-.23-.07-1.26-.11-1.13-.45,0,0,.12-.32.15-.42s.81-1.72.81-1.72l-1.45,1.31-.07-.09.16-.3,2.37-3.2a3.69,3.69,0,0,0,.24-.4,2.21,2.21,0,0,1,.36-.51c.15-.14.15-.11.13-.3s.24-.12,0-.25-1.65-1.29-1.65-1.29c-.2-.1-.59-.83-.76-1-.32-.27-.15-.62-.12-1s-.05-.76.21-1,.59,0,.8,0l.16,0L788,701s0-.13.13,0,4.05,2.7,4.05,2.7l2.3-2.66s.26-.28.38-.29c.31,0,.21-.11.4-.26s.1-.12.27-.14.23.08.27,0a3.16,3.16,0,0,0-.42.5h1.74l.28-.6.19,0,.38,0c-.23.35-.45.7-.67,1s-.91,1.07-1,1.6c.4.1.68-.52.9-.77s.45-.36.64-.57.45-.58.73-.54a6.18,6.18,0,0,1-.67.94c-.49.67-1.05,1.28-1.53,2-.33.47-1.69,2-.6,2.36a20.77,20.77,0,0,1,2.35,1.38c.13.08,1.09,1,1.15,1-.08.14-.3.26-.45.12l-.73-.72-.94-.57Z"/><path class="cls-1" d="M674,797.43a5.17,5.17,0,0,1,1.09.78,2.83,2.83,0,0,1,.83.74c.23.41,0,1.14.26,1.51s.85.33.58.87a.22.22,0,0,1-.14,0c-.1-.19-.87-.46-.87-.48,0,.39.49,1.36-.21,1a11.92,11.92,0,0,0-2.4-.89,7.45,7.45,0,0,1-1.52-.7,6.92,6.92,0,0,1-1.46-1c-.14-.13-.35-.62-.62-.44a7,7,0,0,0-1.18,1.31,20.28,20.28,0,0,1-1.56,1.65c-.46.43-.88.88-1.56.7-.22-.06-1.25-.09-1.13-.43,0,0,.12-.33.14-.43s.79-1.73.79-1.73l-1.43,1.33-.08-.08.16-.31,2.33-3.23a4.1,4.1,0,0,0,.23-.41,2.21,2.21,0,0,1,.36-.51c.14-.14.14-.11.12-.3s.24-.12,0-.25-1.67-1.27-1.67-1.27c-.2-.09-.6-.81-.78-1s-.16-.61-.12-1-.06-.75.19-1,.59-.06.8,0l.16,0-.11-.65s0-.12.13,0,4.09,2.64,4.09,2.64l2.26-2.69s.25-.28.38-.3c.31,0,.2-.1.39-.26s.1-.12.27-.14.23.07.27,0a3.49,3.49,0,0,0-.41.51l1.73,0,.28-.6.19,0,.38,0-.66,1.06c-.28.44-.89,1.08-.93,1.6.4.1.67-.53.88-.78s.45-.36.64-.58.44-.58.72-.55a6.2,6.2,0,0,1-.66.95c-.48.68-1,1.3-1.5,2-.33.48-1.66,2-.57,2.37a19.69,19.69,0,0,1,2.37,1.35c.13.07,1.11,1,1.16.93-.08.14-.29.27-.44.13l-.75-.71-.95-.56Z"/><path class="cls-1" d="M455.1,821.93a5.39,5.39,0,0,1,1.09.77,3.16,3.16,0,0,1,.83.75c.23.41,0,1.13.25,1.5s.85.34.58.88a.18.18,0,0,1-.14,0c-.09-.19-.86-.45-.86-.48,0,.39.48,1.36-.22,1a12.47,12.47,0,0,0-2.39-.89,7.17,7.17,0,0,1-1.52-.69,6.44,6.44,0,0,1-1.46-1c-.15-.14-.36-.62-.63-.45a6.71,6.71,0,0,0-1.17,1.32,22.2,22.2,0,0,1-1.57,1.65c-.45.43-.88.88-1.55.69-.23-.06-1.26-.09-1.13-.42,0,0,.12-.33.14-.43s.78-1.73.78-1.73l-1.43,1.33-.07-.09.16-.3,2.32-3.24a3.69,3.69,0,0,0,.24-.4,2.15,2.15,0,0,1,.35-.52c.15-.14.15-.11.13-.29s.24-.13,0-.25-1.66-1.27-1.66-1.27c-.2-.1-.61-.82-.78-1-.32-.27-.16-.62-.13-1s-.06-.75.2-1,.58-.05.79,0l.16,0-.1-.65s0-.13.12,0,4.09,2.64,4.09,2.64l2.26-2.69s.26-.28.38-.29c.31,0,.21-.11.4-.26s.09-.12.26-.15.24.08.27,0a5.78,5.78,0,0,0-.41.5l1.74,0,.28-.61.19,0,.37,0-.66,1.06c-.27.45-.89,1.08-.93,1.61.4.09.67-.53.89-.79s.45-.35.64-.58.44-.58.71-.54a6.14,6.14,0,0,1-.65.95c-.48.67-1,1.29-1.51,2-.32.47-1.66,2-.56,2.36a21.81,21.81,0,0,1,2.36,1.35c.13.08,1.11,1,1.17.94-.08.14-.3.26-.45.12l-.74-.71-.95-.55Z"/></g></svg>