<svg xmlns="http://www.w3.org/2000/svg" viewBox="0 0 850.39 850.39"><defs><style>.cls-1{fill:none;stroke:#000;stroke-linecap:round;}</style></defs><g id="Capa_2" data-name="Capa 2"><path class="cls-1" d="M295,122c0-.55-.27-1.09-.32-1.66s0-1.23,0-1.84a13.94,13.94,0,0,1,.2-4c.16-.48,1.2-1.7,1.42-.69a11.49,11.49,0,0,1-.14,2.55,8.15,8.15,0,0,0,.95,3.24"/><path class="cls-1" d="M297.27,121.86a2.29,2.29,0,0,0,1.56-.5c.55-.53,1.13-1.8,0-2a4.22,4.22,0,0,0-1.66.21c-.74.18-.73.6-1.1,1.2a9.27,9.27,0,0,1-.92,1.56"/><path class="cls-1" d="M297.27,123.46a2.48,2.48,0,0,1,.2-1.48"/><path class="cls-1" d="M296.81,119.14c-.45.16-.7.52-1.23.53"/><path class="cls-1" d="M294.75,123.42a16.67,16.67,0,0,0,.3,3.82,9,9,0,0,1-.34,4.17"/><path class="cls-1" d="M297.14,119.55c.14-.66.19-1.41.37-2.06.14-.5.47-.93.58-1.44a5.52,5.52,0,0,1,1.15-2.6c.65-.73,1.36-.36,1.24.58-.08.62-.37,1.14-.49,1.73a19.24,19.24,0,0,1-.83,3.5"/><path class="cls-1" d="M299.53,120.17c.62-.1.6.92.49,1.31a5.36,5.36,0,0,1-.9,1.53c-.32.42-.72,1-1.31.65a1.07,1.07,0,0,1-.3-1.43"/><path class="cls-1" d="M300.4,121.86c.88,0,.94.91.94,1.6a4.59,4.59,0,0,1-.11,2.12,16.26,16.26,0,0,0-1.08,2.12c-.21.69-.07,1.43-1.06,1.06-.66-.24-.91-.64-1.7-.64"/><path class="cls-1" d="M298.91,124.2c-.27.52.38.69.75.51s.53-.71.78-1.08"/><path class="cls-1" d="M300.27,125.73a.75.75,0,0,1-.86-.83"/><path class="cls-1" d="M297.35,125.77c-.28.36-.66,1-1.11,1.07"/><path class="cls-1" d="M298.83,126.3a.11.11,0,0,1,0,.09"/><path class="cls-1" d="M300.35,132.27a7.8,7.8,0,0,1-.28-2.23,3.08,3.08,0,0,1-.09-1.47"/><path class="cls-1" d="M125.24,391.65c0,.56-.27,1.09-.32,1.66s0,1.23,0,1.84a13.94,13.94,0,0,0,.2,4c.15.49,1.2,1.7,1.42.69a12,12,0,0,0-.14-2.54,8.2,8.2,0,0,1,1-3.25"/><path class="cls-1" d="M127.54,391.78a2.29,2.29,0,0,1,1.57.49c.55.54,1.13,1.81,0,2a4.22,4.22,0,0,1-1.66-.21c-.74-.18-.73-.59-1.1-1.19a9,9,0,0,0-.92-1.57"/><path class="cls-1" d="M127.54,390.17a2.48,2.48,0,0,0,.21,1.48"/><path class="cls-1" d="M127.09,394.49c-.45-.16-.7-.52-1.23-.53"/><path class="cls-1" d="M125,390.21a16.71,16.71,0,0,1,.3-3.82,9.05,9.05,0,0,0-.34-4.17"/><path class="cls-1" d="M127.42,394.08c.14.66.19,1.41.37,2.06s.47.94.58,1.44a5.48,5.48,0,0,0,1.15,2.6c.65.73,1.36.37,1.24-.58-.08-.61-.37-1.13-.49-1.73a19.64,19.64,0,0,0-.83-3.5"/><path class="cls-1" d="M129.81,393.46c.62.1.6-.92.49-1.31a5.6,5.6,0,0,0-.9-1.53c-.32-.42-.72-1-1.31-.65a1.08,1.08,0,0,0-.3,1.44"/><path class="cls-1" d="M130.67,391.78c.89,0,1-.91,1-1.61a4.54,4.54,0,0,0-.12-2.11,19.35,19.35,0,0,1-1.08-2.13c-.2-.68-.06-1.43-1.06-1.06-.65.25-.9.64-1.69.65"/><path class="cls-1" d="M129.19,389.43c-.27-.52.38-.69.75-.51s.53.71.77,1.09"/><path class="cls-1" d="M130.55,387.91a.75.75,0,0,0-.86.82"/><path class="cls-1" d="M127.63,387.86c-.28-.36-.66-1-1.12-1.07"/><path class="cls-1" d="M129.11,387.33a.09.09,0,0,0,0-.08"/><path class="cls-1" d="M130.63,381.36a7.46,7.46,0,0,0-.29,2.23,3.2,3.2,0,0,0-.08,1.47"/><path class="cls-1" d="M367,9.14c-.2-.52-.2-1.1-.38-1.64a17,17,0,0,0-.74-1.69A13.58,13.58,0,0,0,364,2.2c-.33-.38-1.78-1.07-1.57-.05a11.27,11.27,0,0,0,1.15,2.27,8.12,8.12,0,0,1,.44,3.35"/><path class="cls-1" d="M364.8,10a2.26,2.26,0,0,1-1.63.18c-.73-.27-1.77-1.2-.77-1.82A4.13,4.13,0,0,1,364,7.84c.76-.14.91.25,1.5.65A8.67,8.67,0,0,0,367,9.55"/><path class="cls-1" d="M365.45,11.43c-.22-.48-.37-1-.79-1.27"/><path class="cls-1" d="M364.11,7.29c.48,0,.86.19,1.35,0"/><path class="cls-1" d="M367.73,10.38A17.24,17.24,0,0,1,369,14a9,9,0,0,0,2,3.68"/><path class="cls-1" d="M364,7.8c-.39-.54-.74-1.21-1.17-1.74S362,5.4,361.7,5a5.46,5.46,0,0,0-2.11-1.91c-.88-.41-1.39.21-.89,1,.32.53.79.89,1.14,1.39A19.07,19.07,0,0,0,362,8.35"/><path class="cls-1" d="M362,9.33c-.6.16-.18,1.09.08,1.4a5.47,5.47,0,0,0,1.45,1c.45.26,1.05.62,1.46.07a1.07,1.07,0,0,0-.31-1.43"/><path class="cls-1" d="M361.93,11.22c-.8.36-.5,1.22-.21,1.85s.37,1.38.95,1.89a16.91,16.91,0,0,1,1.85,1.51c.47.54.64,1.29,1.4.54.5-.49.57-1,1.29-1.27"/><path class="cls-1" d="M364.24,12.77c.46.37-.07.78-.48.76s-.77-.43-1.15-.67"/><path class="cls-1" d="M363.61,14.71a.75.75,0,0,0,.46-1.1"/><path class="cls-1" d="M366.3,13.57c.4.22,1,.63,1.45.53"/><path class="cls-1" d="M365.16,14.66a.11.11,0,0,0,.07.06"/><path class="cls-1" d="M366.18,20.74a7.43,7.43,0,0,0-.64-2.16c-.12-.42-.19-1.08-.52-1.38"/><path class="cls-1" d="M150.8,107.44c-.58,0-.91,1.08-1.37,1.35a3.13,3.13,0,0,1-2.42.14c-.59-.23-1.14-.48-1.72-.71a3,3,0,0,0-1.74-.4,1.06,1.06,0,0,0-.7,1.43c.25.59,1.3.79,1.86.87a4.76,4.76,0,0,1,3.38,2.31,1.91,1.91,0,0,0,1,.9,3.94,3.94,0,0,0,1.9,0"/><path class="cls-1" d="M153.44,106.29a9.54,9.54,0,0,1,.37-3,12.19,12.19,0,0,0,.37-2.32c0-.44-.14-1.64-.84-1a4.37,4.37,0,0,0-.81,2,19.27,19.27,0,0,0-.29,2.3c0,.42-.19,2.08-1,1.52-.46-.34-.26-1.43-.17-1.89a8,8,0,0,0,0-2c0-.35,0-.72,0-1.07s-.24-.51-.42-.81c-1.51-.34-1.11,5.26-1.11,5.92s.14,1.26.17,1.89c0,.24,0,.47,0,.7"/><path class="cls-1" d="M155.74,109.59a9.07,9.07,0,0,0,1.87-2.59c.24-.45.74-.66,1-1.12s-.15-1.23-.73-1.08-1,.86-1.32,1.24-1,1.06-1.47,1.6a6.59,6.59,0,0,1,.64-2.79c.22-.52.33-1.07.5-1.57s.74-2.21-.32-1.89c-.35.1-.72,1-.9,1.36a13.42,13.42,0,0,1-1.45,2.59"/><path class="cls-1" d="M151.75,108.6c.64.58.53,1.45.53,2.3"/><path class="cls-1" d="M155.78,109.5a2.87,2.87,0,0,0-.32,1.43,3,3,0,0,1-.5,1.35c-.43.65-1.33,1.8-2.14.85"/><path class="cls-1" d="M153.89,118.73c0-.51-.29-.88-.32-1.37a16.57,16.57,0,0,1,.11-2.11c0-.33.22-.94,0-1.25s-.43-.27-.64-.42-.38-.48-.6-.7"/><path class="cls-1" d="M152.37,114.73a1.18,1.18,0,0,1,1.23.25"/><path class="cls-1" d="M148.82,113.54c.32,1.56-.72,3-1,4.53"/><path class="cls-1" d="M154.14,113.33c-.35.19-.25.59-.33.83"/><path class="cls-1" d="M301.34,279.38c-.58,0-.91-1.08-1.37-1.35a3.13,3.13,0,0,0-2.42-.13c-.59.23-1.14.48-1.71.71a3.09,3.09,0,0,1-1.74.4,1.05,1.05,0,0,1-.7-1.44c.24-.58,1.29-.78,1.85-.86a4.83,4.83,0,0,0,3.39-2.31,1.91,1.91,0,0,1,1-.91,4.2,4.2,0,0,1,1.9,0"/><path class="cls-1" d="M304,280.53a9.57,9.57,0,0,0,.37,3,12.19,12.19,0,0,1,.37,2.32c0,.44-.14,1.64-.84,1a4.42,4.42,0,0,1-.81-2,21.43,21.43,0,0,1-.29-2.31c0-.42-.19-2.07-1-1.51-.46.33-.26,1.43-.17,1.88a8,8,0,0,1,0,2c0,.36,0,.72,0,1.07s-.23.52-.42.82c-1.51.34-1.1-5.26-1.1-5.92s.13-1.27.16-1.9c0-.23,0-.47,0-.7"/><path class="cls-1" d="M306.28,277.24a9,9,0,0,1,1.87,2.58c.24.45.74.67,1,1.13s-.14,1.22-.73,1.07-1-.86-1.32-1.23c-.48-.54-1-1.06-1.47-1.6a6.62,6.62,0,0,0,.64,2.79c.22.52.33,1.06.5,1.57s.74,2.2-.32,1.88c-.34-.1-.71-1-.9-1.36a12.91,12.91,0,0,0-1.45-2.59"/><path class="cls-1" d="M302.29,278.23c.64-.59.53-1.45.53-2.31"/><path class="cls-1" d="M306.32,277.32a2.84,2.84,0,0,1-.32-1.43,3.12,3.12,0,0,0-.5-1.35c-.42-.64-1.33-1.8-2.14-.84"/><path class="cls-1" d="M304.43,268.1c0,.51-.29.88-.32,1.37a18.64,18.64,0,0,0,.11,2.11c0,.33.22.94,0,1.24s-.43.27-.64.43-.38.48-.6.7"/><path class="cls-1" d="M302.91,272.09a1.16,1.16,0,0,0,1.23-.24"/><path class="cls-1" d="M299.37,273.29c.31-1.57-.73-3.05-1-4.53"/><path class="cls-1" d="M304.68,273.49c-.35-.19-.25-.59-.33-.82"/><path class="cls-1" d="M92.61,36.11a41.39,41.39,0,0,0,1.64-3.86,2.91,2.91,0,0,0,.27-1c0-.22,0-.74-.13-.91-.35-.36-1,1.05-1.17,1.36a17.63,17.63,0,0,0-1.71,3.42c-.12.09-.22.26-.34.35a3.72,3.72,0,0,1-.37-2.26c0-.89-.08-1.77-.06-2.66,0-.66-.2-1.27-1-1.23-.63,0-.65.73-.69,1.26-.09,1.3-.1,2.58-.1,3.9v.72"/><path class="cls-1" d="M89.33,39.09a.42.42,0,0,1,0-.27s.06,0,.09,0c.24-.35.56-.64.55-1.12"/><path class="cls-1" d="M87.14,47.05a6,6,0,0,1,.31-1.41c.08-.39.17-.8.24-1.21a4.57,4.57,0,0,0,0-1.28c-.1-.67-.39-1.3-.47-2a8.79,8.79,0,0,1,.06-2.29,2.81,2.81,0,0,1,.84-1.47,7.94,7.94,0,0,0,.58-.72c.13-.16.27-.53.45-.62.45-.24,1.14.17,1.58.22s1.88.35,1.12,1.16c-.23.24-1.55.84-1.7.27"/><path class="cls-1" d="M91.17,43.26A11.52,11.52,0,0,0,90.69,39"/><path class="cls-1" d="M92.1,40.35c.65.2.38,1,.54,1.47"/><path class="cls-1" d="M89,30.3c-.31-.48-.88-.31-1.17.13a3.88,3.88,0,0,0-.37,2c0,1.44-.07,2.87-.07,4.29v.37"/><path class="cls-1" d="M94.18,32.56a.41.41,0,0,1,.61.11,1.34,1.34,0,0,1,.14.88c0,.39-.18.78-.24,1.16s0,.67,0,1c-.1.69-.46,1.28-.61,1.94a8.87,8.87,0,0,0-.13,1.87v2.54a2,2,0,0,1-.47,1.35,3.6,3.6,0,0,0-.66,1.73c0,.94,0,1.89,0,2.84"/><path class="cls-1" d="M248.46,26.71c.31-.68.54-1.38.87-2.05a10.57,10.57,0,0,0,1-2.06,2.4,2.4,0,0,0-.72-1.91c-.19-.2-.36-.32-.53-.51s-.44-.59-.7-.85-.76-.57-1.08-.93a7.41,7.41,0,0,0-1.13-1.11c-.32-.23-1.47-.56-1.45-1,.06-1,1.35-1,2.1-.86a9.07,9.07,0,0,1,2.51,1.51c.46.29.86.44,1.27-.06a3.12,3.12,0,0,0,.49-1.64,35.22,35.22,0,0,1,.68-3.74c.1-.48.52-2.39,1.23-2.27s.65,1.45.62,1.91a19.67,19.67,0,0,1-.49,2.52,1.94,1.94,0,0,0-.07,1.09c.15.41.5.8.68,1.2"/><path class="cls-1" d="M252.72,21.74a3.45,3.45,0,0,0-.61.3,1.61,1.61,0,0,1-.65.1"/><path class="cls-1" d="M255.9,17.54c.67-.21,1.44.45,1.09,1.15a1.31,1.31,0,0,1-.68.49,3.59,3.59,0,0,0-.65.45c-.35.27-.63.7-1,.93s-1.42.33-1.3-.25"/><path class="cls-1" d="M255,15.71a1.33,1.33,0,0,1,.1-.62c.25-.52.67-.93,1-1.45.4-.68.84-1.31,1.24-2,.19-.32.34-.67.5-1,.35-.75-.1-1.42-.89-.93a4,4,0,0,0-1.14,1.47c-.29.49-.74.89-1,1.38a8.56,8.56,0,0,1-.79,1.17c-.24.33-.49,1.06-.95.95"/><path class="cls-1" d="M255.81,17.41l.15-.07a1.2,1.2,0,0,0-.47-1.29c-.55-.31-1,.21-1.38.5a5.3,5.3,0,0,0-1.8,2.52,2,2,0,0,0-.14,1.11.58.58,0,0,0,.83.25A5.46,5.46,0,0,1,254.24,19c.47-.49,1-.95,1.48-1.39"/><path class="cls-1" d="M254.14,22.51a1.86,1.86,0,0,0-.15-1.67"/><path class="cls-1" d="M255.26,22a2.07,2.07,0,0,0-.56-1.39"/><path class="cls-1" d="M256.68,19.08c.58.3.27,1.11,0,1.52s-.41.85-.63,1.29a5,5,0,0,1-1.22,1.46,1.5,1.5,0,0,1-1.52.21,1.86,1.86,0,0,1-.53-.19"/><path class="cls-1" d="M253.5,28.56c.26-1,.6-2.09.8-3.16.07-.4.4-1.18.15-1.56"/><path class="cls-1" d="M255,23.34c-.15.23-.42.48-.37.77"/><path class="cls-1" d="M95.13,246.1c-.31-.68-.54-1.38-.87-2a11.23,11.23,0,0,1-1-2.06,2.44,2.44,0,0,1,.73-1.91c.19-.2.35-.32.53-.51s.44-.59.69-.86.76-.56,1.09-.92a7.83,7.83,0,0,1,1.12-1.11c.33-.23,1.48-.56,1.45-1-.06-1-1.34-1-2.1-.86a9,9,0,0,0-2.5,1.51c-.46.29-.87.44-1.27-.06a3.12,3.12,0,0,1-.49-1.64,38,38,0,0,0-.68-3.74c-.1-.48-.52-2.39-1.23-2.27s-.65,1.45-.62,1.91a19.67,19.67,0,0,0,.49,2.52,1.85,1.85,0,0,1,.06,1.09c-.15.41-.49.8-.67,1.2"/><path class="cls-1" d="M90.86,241.12a4.48,4.48,0,0,1,.62.31,1.58,1.58,0,0,0,.65.1"/><path class="cls-1" d="M87.68,236.92c-.66-.21-1.43.46-1.09,1.15.13.27.44.37.68.5a3.34,3.34,0,0,1,.66.45,12.13,12.13,0,0,0,1,.92c.25.16,1.42.34,1.3-.24"/><path class="cls-1" d="M88.55,235.1a1.33,1.33,0,0,0-.1-.62c-.25-.52-.67-.93-1-1.45-.4-.68-.85-1.31-1.25-2a10.26,10.26,0,0,1-.49-1c-.35-.75.1-1.42.89-.93a4,4,0,0,1,1.14,1.47c.29.49.74.89,1,1.38a7.68,7.68,0,0,0,.78,1.17c.25.33.49,1.06.95,1"/><path class="cls-1" d="M87.78,236.8l-.15-.07a1.19,1.19,0,0,1,.47-1.29c.55-.31,1,.21,1.37.5a5.24,5.24,0,0,1,1.8,2.52,1.93,1.93,0,0,1,.14,1.11.56.56,0,0,1-.82.25,5.46,5.46,0,0,0-1.24-1.44c-.47-.49-1-.95-1.48-1.39"/><path class="cls-1" d="M89.44,241.9a1.86,1.86,0,0,1,.16-1.67"/><path class="cls-1" d="M88.33,241.4a2,2,0,0,1,.56-1.39"/><path class="cls-1" d="M86.91,238.47c-.58.3-.27,1.11,0,1.52s.41.84.63,1.29a4.88,4.88,0,0,0,1.22,1.46,1.5,1.5,0,0,0,1.52.21,2,2,0,0,0,.53-.19"/><path class="cls-1" d="M90.09,248c-.26-1-.6-2.09-.8-3.16-.08-.4-.4-1.18-.16-1.57"/><path class="cls-1" d="M88.64,242.73c.15.23.41.48.37.77"/><path class="cls-1" d="M396.87,142.16c-.31.68-.54,1.38-.87,2.05a10.57,10.57,0,0,0-1,2.06,2.43,2.43,0,0,0,.72,1.91c.19.2.36.32.53.51s.44.59.7.85.76.57,1.08.93a6.91,6.91,0,0,0,1.13,1.1c.32.24,1.47.57,1.45,1-.06,1-1.35,1.05-2.1.86A9.07,9.07,0,0,1,396,152c-.46-.29-.86-.44-1.27.06a3.12,3.12,0,0,0-.49,1.64,35.22,35.22,0,0,1-.68,3.74c-.1.48-.52,2.39-1.23,2.27s-.65-1.45-.62-1.91a19.67,19.67,0,0,1,.49-2.52,1.94,1.94,0,0,0,.07-1.09c-.15-.41-.5-.8-.68-1.2"/><path class="cls-1" d="M392.61,147.13a3.45,3.45,0,0,0,.61-.3,1.46,1.46,0,0,1,.65-.1"/><path class="cls-1" d="M389.43,151.33c-.67.21-1.44-.45-1.09-1.15a1.31,1.31,0,0,1,.68-.49,3.59,3.59,0,0,0,.65-.45c.35-.27.63-.7,1-.93s1.42-.33,1.3.25"/><path class="cls-1" d="M390.29,153.16a1.33,1.33,0,0,1-.1.62c-.25.52-.67.93-1,1.45-.4.68-.84,1.31-1.24,2-.19.32-.34.67-.5,1-.35.75.1,1.42.89.93a4,4,0,0,0,1.14-1.47c.29-.49.74-.89,1-1.38a8.56,8.56,0,0,1,.79-1.17c.24-.33.49-1.06.95-.95"/><path class="cls-1" d="M389.52,151.46l-.15.07a1.2,1.2,0,0,0,.47,1.29c.55.31,1-.21,1.38-.5a5.3,5.3,0,0,0,1.8-2.52,2,2,0,0,0,.14-1.11.58.58,0,0,0-.83-.25,5.46,5.46,0,0,1-1.24,1.44c-.47.49-1,1-1.48,1.39"/><path class="cls-1" d="M391.19,146.36a1.86,1.86,0,0,0,.15,1.67"/><path class="cls-1" d="M390.07,146.86a2.07,2.07,0,0,0,.56,1.39"/><path class="cls-1" d="M388.65,149.79c-.58-.3-.27-1.11,0-1.52s.41-.85.63-1.29a5,5,0,0,1,1.22-1.46,1.5,1.5,0,0,1,1.52-.21,1.86,1.86,0,0,1,.53.19"/><path class="cls-1" d="M391.84,140.31c-.27,1.05-.61,2.09-.81,3.16-.07.4-.4,1.18-.15,1.56"/><path class="cls-1" d="M390.38,145.53c.15-.23.42-.48.37-.77"/><path class="cls-1" d="M207.17,206.39V205c0-1.57-1.33-2.57-2.06-3.89-.36-.66-.7-1.34-1-2-.22-.5-.31-1.06-.55-1.55s-.55-.77-.77-1.17-.14-.4.3-.51a1.17,1.17,0,0,1,1,.23c.41.31.44.95.67,1.4.69,1.28,1.27.29,1.34-.6a19.35,19.35,0,0,1,.06-2.53,9.24,9.24,0,0,0,.21-2c0-.52-.17-1.61.53-1.56.91.06.58,1.94.58,2.59,0,1,0,2.08,0,3.13"/><path class="cls-1" d="M207.34,200.09c.61,0,.8.6,1.07,1"/><path class="cls-1" d="M209.07,196.76a37.29,37.29,0,0,0,.24-4.37c0-.7.28-3-.9-2.13-.11.43-.42.87-.55,1.31a6.83,6.83,0,0,0-.07,1.86,12.23,12.23,0,0,1-.29,2.09"/><path class="cls-1" d="M210.67,197c0-1,.37-2,.37-3a10.83,10.83,0,0,0,.09-1.26c0-.34-.09-.74-.14-1-.08-.47-.25-1.2-.76-.57a2.67,2.67,0,0,0-.38,1.35c-.15,1.42-.58,2.95-.78,4.33"/><path class="cls-1" d="M210.79,196.06a13.11,13.11,0,0,1,.79-2.52c.12-.44.75-1.14.92-.39a6.78,6.78,0,0,1-.14,1.34,9.26,9.26,0,0,1-.33,2.35c-.34,1.39-.53,2.88-.74,4.32-.16,1.14-.77,2.07-.82,3.21,0,.61,0,1.22-.05,1.82a6.51,6.51,0,0,0,0,1,3.16,3.16,0,0,0,.17,1"/><path class="cls-1" d="M217.51,351c-.59,0-.92,1.07-1.37,1.35a3.13,3.13,0,0,1-2.42.13c-.59-.23-1.14-.48-1.72-.71a3.09,3.09,0,0,0-1.74-.4,1.05,1.05,0,0,0-.7,1.44c.24.58,1.3.78,1.85.86A4.83,4.83,0,0,1,214.8,356a1.93,1.93,0,0,0,1,.91,4.16,4.16,0,0,0,1.89,0"/><path class="cls-1" d="M220.14,349.89a9.57,9.57,0,0,1,.37-3,11.45,11.45,0,0,0,.37-2.32c0-.44-.14-1.64-.83-1a4.55,4.55,0,0,0-.82,2,19.18,19.18,0,0,0-.28,2.31c0,.42-.2,2.07-1,1.51-.47-.33-.27-1.43-.18-1.88a7.57,7.57,0,0,0,0-2c0-.36,0-.72,0-1.07s-.23-.52-.42-.82c-1.5-.34-1.1,5.26-1.1,5.92s.13,1.27.16,1.9c0,.23,0,.46,0,.7"/><path class="cls-1" d="M222.45,353.18a8.81,8.81,0,0,0,1.86-2.58c.25-.45.74-.67,1-1.13s-.15-1.22-.73-1.07-1,.85-1.32,1.23c-.49.54-1,1.06-1.48,1.6a6.63,6.63,0,0,1,.65-2.79c.21-.52.33-1.06.49-1.57s.75-2.2-.32-1.88c-.34.1-.71,1-.9,1.36a12.91,12.91,0,0,1-1.45,2.59"/><path class="cls-1" d="M218.45,352.19c.64.59.54,1.45.54,2.31"/><path class="cls-1" d="M222.49,353.1a2.85,2.85,0,0,0-.33,1.43,3.12,3.12,0,0,1-.5,1.35c-.42.64-1.33,1.8-2.14.84"/><path class="cls-1" d="M220.59,362.32c0-.51-.28-.88-.32-1.37,0-.69.08-1.42.11-2.11,0-.33.22-.94.05-1.24s-.42-.27-.63-.43-.39-.48-.61-.7"/><path class="cls-1" d="M219.07,358.33a1.18,1.18,0,0,1,1.24.24"/><path class="cls-1" d="M215.53,357.13c.31,1.57-.73,3.05-1,4.53"/><path class="cls-1" d="M220.84,356.93c-.34.19-.25.58-.33.82"/><path class="cls-1" d="M389.07,348.88a36.64,36.64,0,0,0,1.64-3.86,2.73,2.73,0,0,0,.28-1c0-.23,0-.75-.13-.92-.35-.36-1,1.05-1.18,1.36a17.63,17.63,0,0,0-1.71,3.42c-.12.09-.21.26-.34.35a3.72,3.72,0,0,1-.37-2.26c0-.89-.08-1.77-.06-2.66,0-.66-.2-1.27-1-1.23-.62,0-.64.73-.68,1.26-.1,1.3-.11,2.58-.11,3.9v.72"/><path class="cls-1" d="M385.79,351.86a.5.5,0,0,1,0-.27s.06,0,.09,0c.25-.35.57-.64.55-1.12"/><path class="cls-1" d="M383.6,359.82a6.06,6.06,0,0,1,.31-1.41c.09-.39.17-.8.24-1.21a4.91,4.91,0,0,0,0-1.27c-.1-.68-.39-1.31-.48-2a8.37,8.37,0,0,1,.07-2.29,2.74,2.74,0,0,1,.84-1.47c.2-.22.39-.48.58-.71s.26-.54.44-.63c.45-.24,1.14.17,1.58.22s1.88.35,1.12,1.16c-.23.24-1.54.84-1.7.27"/><path class="cls-1" d="M387.64,356a11.52,11.52,0,0,0-.48-4.28"/><path class="cls-1" d="M388.56,353.12c.66.21.38,1,.55,1.47"/><path class="cls-1" d="M385.41,343.07c-.31-.48-.88-.31-1.17.13a4,4,0,0,0-.36,2c0,1.44-.07,2.87-.07,4.29v.37"/><path class="cls-1" d="M390.64,345.33a.41.41,0,0,1,.61.11,1.4,1.4,0,0,1,.15.88c0,.39-.19.78-.24,1.16s0,.67,0,1c-.11.69-.46,1.28-.61,1.94a8.29,8.29,0,0,0-.14,1.88v2.53a2.07,2.07,0,0,1-.46,1.35,3.61,3.61,0,0,0-.67,1.73c0,.94,0,1.89,0,2.84"/><path class="cls-1" d="M659.13,122c0-.55-.27-1.09-.32-1.66s0-1.23,0-1.84a13.94,13.94,0,0,1,.2-4c.16-.48,1.2-1.7,1.42-.69a10.92,10.92,0,0,1-.14,2.55,8.15,8.15,0,0,0,1,3.24"/><path class="cls-1" d="M661.44,121.86a2.29,2.29,0,0,0,1.56-.5c.55-.53,1.13-1.8,0-2a4.22,4.22,0,0,0-1.66.21c-.74.18-.73.6-1.1,1.2a8.65,8.65,0,0,1-.92,1.56"/><path class="cls-1" d="M661.44,123.46a2.48,2.48,0,0,1,.2-1.48"/><path class="cls-1" d="M661,119.14c-.44.16-.7.52-1.23.53"/><path class="cls-1" d="M658.92,123.42a16.67,16.67,0,0,0,.3,3.82,9,9,0,0,1-.34,4.17"/><path class="cls-1" d="M661.31,119.55c.14-.66.19-1.41.37-2.06.14-.5.47-.93.58-1.44a5.52,5.52,0,0,1,1.15-2.6c.65-.73,1.36-.36,1.24.58-.08.62-.37,1.14-.49,1.73a19.24,19.24,0,0,1-.83,3.5"/><path class="cls-1" d="M663.7,120.17c.62-.1.6.92.49,1.31a5.36,5.36,0,0,1-.9,1.53c-.32.42-.72,1-1.31.65a1.07,1.07,0,0,1-.3-1.43"/><path class="cls-1" d="M664.57,121.86c.88,0,.94.91.94,1.6a4.59,4.59,0,0,1-.11,2.12,17.61,17.61,0,0,0-1.08,2.12c-.21.69-.06,1.43-1.06,1.06-.66-.24-.91-.64-1.7-.64"/><path class="cls-1" d="M663.08,124.2c-.27.52.38.69.75.51s.53-.71.78-1.08"/><path class="cls-1" d="M664.44,125.73a.75.75,0,0,1-.86-.83"/><path class="cls-1" d="M661.52,125.77c-.28.36-.66,1-1.11,1.07"/><path class="cls-1" d="M663,126.3a.11.11,0,0,1,0,.09"/><path class="cls-1" d="M664.52,132.27a7.8,7.8,0,0,1-.28-2.23,3.21,3.21,0,0,1-.09-1.47"/><path class="cls-1" d="M489.41,391.65c0,.56-.27,1.09-.32,1.66s0,1.23,0,1.84a13.94,13.94,0,0,0,.2,4c.16.49,1.2,1.7,1.42.69a12,12,0,0,0-.14-2.54,8.2,8.2,0,0,1,.95-3.25"/><path class="cls-1" d="M491.71,391.78a2.29,2.29,0,0,1,1.57.49c.55.54,1.13,1.81,0,2a4.22,4.22,0,0,1-1.66-.21c-.74-.18-.73-.59-1.1-1.19a9,9,0,0,0-.92-1.57"/><path class="cls-1" d="M491.71,390.17a2.48,2.48,0,0,0,.21,1.48"/><path class="cls-1" d="M491.26,394.49c-.45-.16-.7-.52-1.23-.53"/><path class="cls-1" d="M489.2,390.21a16.71,16.71,0,0,1,.3-3.82,9.05,9.05,0,0,0-.34-4.17"/><path class="cls-1" d="M491.59,394.08c.14.66.19,1.41.37,2.06s.47.94.58,1.44a5.48,5.48,0,0,0,1.15,2.6c.65.73,1.36.37,1.24-.58-.08-.61-.37-1.13-.49-1.73a19.64,19.64,0,0,0-.83-3.5"/><path class="cls-1" d="M494,393.46c.62.1.6-.92.49-1.31a5.36,5.36,0,0,0-.9-1.53c-.32-.42-.72-1-1.31-.65a1.08,1.08,0,0,0-.3,1.44"/><path class="cls-1" d="M494.84,391.78c.89,0,1-.91,1-1.61a4.68,4.68,0,0,0-.11-2.11,17.81,17.81,0,0,1-1.09-2.13c-.2-.68-.06-1.43-1-1.06-.66.25-.91.64-1.7.65"/><path class="cls-1" d="M493.36,389.43c-.27-.52.38-.69.75-.51s.53.71.78,1.09"/><path class="cls-1" d="M494.72,387.91a.75.75,0,0,0-.86.82"/><path class="cls-1" d="M491.8,387.86c-.28-.36-.66-1-1.11-1.07"/><path class="cls-1" d="M493.28,387.33a.09.09,0,0,0,0-.08"/><path class="cls-1" d="M494.8,381.36a7.15,7.15,0,0,0-.28,2.23,3.08,3.08,0,0,0-.09,1.47"/><path class="cls-1" d="M731.13,9.14c-.2-.52-.2-1.1-.38-1.64s-.49-1.14-.73-1.69A13.91,13.91,0,0,0,728.2,2.2c-.33-.38-1.78-1.07-1.57-.05a12.41,12.41,0,0,0,1.15,2.27,8.12,8.12,0,0,1,.44,3.35"/><path class="cls-1" d="M729,10a2.26,2.26,0,0,1-1.63.18c-.73-.27-1.77-1.2-.77-1.82a4.13,4.13,0,0,1,1.59-.48c.76-.14.91.25,1.5.65a8.67,8.67,0,0,0,1.47,1.06"/><path class="cls-1" d="M729.62,11.43c-.22-.48-.37-1-.79-1.27"/><path class="cls-1" d="M728.28,7.29c.48,0,.86.19,1.35,0"/><path class="cls-1" d="M731.9,10.38A16.69,16.69,0,0,1,733.17,14a9,9,0,0,0,2,3.68"/><path class="cls-1" d="M728.15,7.8c-.39-.54-.74-1.21-1.17-1.74s-.8-.66-1.11-1.08a5.46,5.46,0,0,0-2.11-1.91c-.88-.41-1.39.21-.89,1,.32.53.79.89,1.14,1.39a19.07,19.07,0,0,0,2.18,2.86"/><path class="cls-1" d="M726.21,9.33c-.6.16-.17,1.09.08,1.4a5.47,5.47,0,0,0,1.45,1c.46.26,1,.62,1.46.07a1.07,1.07,0,0,0-.31-1.43"/><path class="cls-1" d="M726.1,11.22c-.8.36-.49,1.22-.21,1.85s.37,1.38,1,1.89a16.91,16.91,0,0,1,1.85,1.51c.47.54.64,1.29,1.4.54.5-.49.57-1,1.29-1.27"/><path class="cls-1" d="M728.41,12.77c.46.37-.07.78-.48.76s-.77-.43-1.15-.67"/><path class="cls-1" d="M727.78,14.71a.75.75,0,0,0,.46-1.1"/><path class="cls-1" d="M730.47,13.57c.4.22,1,.63,1.45.53"/><path class="cls-1" d="M729.33,14.66a.11.11,0,0,0,.07.06"/><path class="cls-1" d="M730.35,20.74a7.43,7.43,0,0,0-.64-2.16c-.12-.42-.19-1.08-.52-1.38"/><path class="cls-1" d="M515,107.44c-.58,0-.91,1.08-1.37,1.35a3.13,3.13,0,0,1-2.42.14c-.59-.23-1.14-.48-1.72-.71a3,3,0,0,0-1.74-.4,1.06,1.06,0,0,0-.7,1.43c.25.59,1.3.79,1.86.87a4.76,4.76,0,0,1,3.38,2.31,1.91,1.91,0,0,0,1,.9,3.94,3.94,0,0,0,1.9,0"/><path class="cls-1" d="M517.61,106.29a9.54,9.54,0,0,1,.37-3,12.19,12.19,0,0,0,.37-2.32c0-.44-.14-1.64-.84-1a4.37,4.37,0,0,0-.81,2,21.57,21.57,0,0,0-.29,2.3c0,.42-.19,2.08-1,1.52-.46-.34-.26-1.43-.17-1.89a8,8,0,0,0,0-2c0-.35,0-.72,0-1.07s-.24-.51-.42-.81c-1.51-.34-1.11,5.26-1.11,5.92s.14,1.26.17,1.89c0,.24,0,.47,0,.7"/><path class="cls-1" d="M519.91,109.59a9.07,9.07,0,0,0,1.87-2.59c.24-.45.74-.66,1-1.12s-.15-1.23-.73-1.08-1,.86-1.32,1.24l-1.47,1.6a6.59,6.59,0,0,1,.64-2.79c.22-.52.33-1.07.5-1.57s.74-2.21-.32-1.89c-.34.1-.72,1-.9,1.36a13.42,13.42,0,0,1-1.45,2.59"/><path class="cls-1" d="M515.92,108.6c.64.58.53,1.45.53,2.3"/><path class="cls-1" d="M520,109.5a2.87,2.87,0,0,0-.32,1.43,3,3,0,0,1-.5,1.35c-.42.65-1.33,1.8-2.14.85"/><path class="cls-1" d="M518.06,118.73c0-.51-.29-.88-.32-1.37a16.57,16.57,0,0,1,.11-2.11c0-.33.22-.94,0-1.25s-.43-.27-.64-.42-.38-.48-.6-.7"/><path class="cls-1" d="M516.54,114.73a1.18,1.18,0,0,1,1.23.25"/><path class="cls-1" d="M513,113.54c.32,1.56-.72,3-1,4.53"/><path class="cls-1" d="M518.31,113.33c-.35.19-.25.59-.33.83"/><path class="cls-1" d="M665.51,279.38c-.58,0-.91-1.08-1.37-1.35a3.13,3.13,0,0,0-2.42-.13c-.58.23-1.14.48-1.71.71a3.09,3.09,0,0,1-1.74.4,1.05,1.05,0,0,1-.7-1.44c.24-.58,1.29-.78,1.85-.86a4.83,4.83,0,0,0,3.39-2.31,1.91,1.91,0,0,1,1-.91,4.2,4.2,0,0,1,1.9,0"/><path class="cls-1" d="M668.15,280.53a9.57,9.57,0,0,0,.37,3,11.45,11.45,0,0,1,.37,2.32c0,.44-.14,1.64-.83,1a4.43,4.43,0,0,1-.82-2,21.43,21.43,0,0,1-.29-2.31c0-.42-.19-2.07-1-1.51-.46.33-.26,1.43-.17,1.88a8,8,0,0,1,0,2c0,.36,0,.72,0,1.07s-.23.52-.42.82c-1.51.34-1.1-5.26-1.1-5.92s.13-1.27.16-1.9c0-.23,0-.47,0-.7"/><path class="cls-1" d="M670.45,277.24a8.84,8.84,0,0,1,1.87,2.58c.24.45.74.67,1,1.13s-.14,1.22-.73,1.07-1-.86-1.32-1.23c-.48-.54-1-1.06-1.47-1.6a6.77,6.77,0,0,0,.64,2.79c.22.52.33,1.06.5,1.57s.74,2.2-.32,1.88c-.34-.1-.71-1-.9-1.36a12.91,12.91,0,0,0-1.45-2.59"/><path class="cls-1" d="M666.46,278.23c.64-.59.53-1.45.53-2.31"/><path class="cls-1" d="M670.5,277.32a2.75,2.75,0,0,1-.33-1.43,3.12,3.12,0,0,0-.5-1.35c-.42-.64-1.33-1.8-2.14-.84"/><path class="cls-1" d="M668.6,268.1c0,.51-.29.88-.32,1.37a18.64,18.64,0,0,0,.11,2.11c0,.33.22.94.05,1.24s-.43.27-.64.43-.38.48-.6.7"/><path class="cls-1" d="M667.08,272.09a1.16,1.16,0,0,0,1.23-.24"/><path class="cls-1" d="M663.54,273.29c.31-1.57-.73-3.05-1-4.53"/><path class="cls-1" d="M668.85,273.49c-.35-.19-.25-.59-.33-.82"/><path class="cls-1" d="M456.78,36.11a41.39,41.39,0,0,0,1.64-3.86,2.91,2.91,0,0,0,.27-1c0-.22,0-.74-.13-.91-.35-.36-1,1.05-1.17,1.36a17.63,17.63,0,0,0-1.71,3.42c-.12.09-.22.26-.34.35a3.72,3.72,0,0,1-.37-2.26c0-.89-.08-1.77-.06-2.66,0-.66-.2-1.27-1-1.23-.63,0-.65.73-.69,1.26-.09,1.3-.1,2.58-.1,3.9v.72"/><path class="cls-1" d="M453.5,39.09a.42.42,0,0,1,0-.27s.06,0,.09,0c.24-.35.56-.64.55-1.12"/><path class="cls-1" d="M451.31,47.05a6,6,0,0,1,.31-1.41c.08-.39.17-.8.24-1.21a4.57,4.57,0,0,0,0-1.28c-.1-.67-.39-1.3-.47-2a8.79,8.79,0,0,1,.06-2.29,2.81,2.81,0,0,1,.84-1.47,7.94,7.94,0,0,0,.58-.72c.13-.16.27-.53.45-.62.45-.24,1.14.17,1.58.22s1.88.35,1.12,1.16c-.23.24-1.55.84-1.7.27"/><path class="cls-1" d="M455.34,43.26a11.52,11.52,0,0,0-.48-4.28"/><path class="cls-1" d="M456.27,40.35c.65.2.38,1,.54,1.47"/><path class="cls-1" d="M453.12,30.3c-.31-.48-.88-.31-1.17.13a3.88,3.88,0,0,0-.37,2c0,1.44-.07,2.87-.07,4.29v.37"/><path class="cls-1" d="M458.35,32.56a.41.41,0,0,1,.61.11,1.34,1.34,0,0,1,.14.88c0,.39-.18.78-.24,1.16s0,.67,0,1c-.1.69-.46,1.28-.6,1.94a8.25,8.25,0,0,0-.14,1.87v2.54a2,2,0,0,1-.47,1.35,3.6,3.6,0,0,0-.66,1.73c-.05.94,0,1.89,0,2.84"/><path class="cls-1" d="M612.63,26.71c.31-.68.54-1.38.87-2.05a10.57,10.57,0,0,0,1-2.06,2.4,2.4,0,0,0-.72-1.91c-.19-.2-.36-.32-.53-.51s-.44-.59-.7-.85-.76-.57-1.08-.93a7.83,7.83,0,0,0-1.12-1.11c-.33-.23-1.48-.56-1.46-1,.06-1,1.35-1,2.1-.86a9.07,9.07,0,0,1,2.51,1.51c.46.29.86.44,1.27-.06a3.12,3.12,0,0,0,.49-1.64,35.22,35.22,0,0,1,.68-3.74c.1-.48.52-2.39,1.23-2.27s.65,1.45.62,1.91a19.67,19.67,0,0,1-.49,2.52,1.94,1.94,0,0,0-.07,1.09c.15.41.5.8.68,1.2"/><path class="cls-1" d="M616.89,21.74a3.83,3.83,0,0,0-.61.3,1.61,1.61,0,0,1-.65.1"/><path class="cls-1" d="M620.07,17.54c.67-.21,1.44.45,1.09,1.15a1.31,1.31,0,0,1-.68.49,3.59,3.59,0,0,0-.65.45c-.34.27-.63.7-1,.93s-1.42.33-1.3-.25"/><path class="cls-1" d="M619.21,15.71a1.33,1.33,0,0,1,.1-.62c.25-.52.67-.93,1-1.45.4-.68.85-1.31,1.24-2,.19-.32.34-.67.5-1,.35-.75-.1-1.42-.89-.93A4,4,0,0,0,620,11.19c-.29.49-.74.89-1,1.38a8.56,8.56,0,0,1-.79,1.17c-.24.33-.49,1.06-1,.95"/><path class="cls-1" d="M620,17.41l.15-.07a1.2,1.2,0,0,0-.47-1.29c-.55-.31-1,.21-1.38.5a5.22,5.22,0,0,0-1.79,2.52,1.85,1.85,0,0,0-.14,1.11.56.56,0,0,0,.82.25A5.46,5.46,0,0,1,618.41,19c.47-.49,1-.95,1.48-1.39"/><path class="cls-1" d="M618.31,22.51a1.86,1.86,0,0,0-.15-1.67"/><path class="cls-1" d="M619.43,22a2.07,2.07,0,0,0-.56-1.39"/><path class="cls-1" d="M620.85,19.08c.58.3.27,1.11,0,1.52s-.41.85-.63,1.29A5,5,0,0,1,619,23.35a1.5,1.5,0,0,1-1.52.21,1.86,1.86,0,0,1-.53-.19"/><path class="cls-1" d="M617.67,28.56c.26-1,.6-2.09.8-3.16.07-.4.4-1.18.15-1.56"/><path class="cls-1" d="M619.12,23.34c-.15.23-.42.48-.37.77"/><path class="cls-1" d="M459.3,246.1c-.31-.68-.54-1.38-.87-2a10.57,10.57,0,0,1-1-2.06,2.4,2.4,0,0,1,.72-1.91c.19-.2.35-.32.53-.51s.44-.59.7-.86.75-.56,1.08-.92a7.83,7.83,0,0,1,1.12-1.11c.33-.23,1.48-.56,1.45-1-.06-1-1.34-1-2.1-.86a9,9,0,0,0-2.5,1.51c-.46.29-.87.44-1.27-.06a3.12,3.12,0,0,1-.49-1.64,38,38,0,0,0-.68-3.74c-.1-.48-.52-2.39-1.23-2.27s-.65,1.45-.62,1.91a19.67,19.67,0,0,0,.49,2.52,1.94,1.94,0,0,1,.07,1.09c-.16.41-.5.8-.68,1.2"/><path class="cls-1" d="M455,241.12a5,5,0,0,1,.61.31,1.61,1.61,0,0,0,.65.1"/><path class="cls-1" d="M451.85,236.92c-.66-.21-1.43.46-1.08,1.15.12.27.43.37.68.5a3.59,3.59,0,0,1,.65.45,12.13,12.13,0,0,0,1,.92c.25.16,1.42.34,1.3-.24"/><path class="cls-1" d="M452.72,235.1a1.33,1.33,0,0,0-.1-.62c-.25-.52-.67-.93-1-1.45-.4-.68-.85-1.31-1.25-2-.19-.32-.33-.67-.49-1-.35-.75.1-1.42.89-.93a4,4,0,0,1,1.14,1.47c.29.49.74.89,1,1.38a8.5,8.5,0,0,0,.78,1.17c.25.33.5,1.06,1,1"/><path class="cls-1" d="M452,236.8l-.15-.07a1.19,1.19,0,0,1,.47-1.29c.55-.31,1,.21,1.38.5a5.28,5.28,0,0,1,1.79,2.52,1.93,1.93,0,0,1,.14,1.11.56.56,0,0,1-.82.25,5.46,5.46,0,0,0-1.24-1.44c-.47-.49-1-.95-1.48-1.39"/><path class="cls-1" d="M453.61,241.9a1.86,1.86,0,0,1,.16-1.67"/><path class="cls-1" d="M452.5,241.4a2.07,2.07,0,0,1,.56-1.39"/><path class="cls-1" d="M451.08,238.47c-.58.3-.27,1.11,0,1.52s.41.84.63,1.29a5,5,0,0,0,1.22,1.46,1.5,1.5,0,0,0,1.52.21,2,2,0,0,0,.53-.19"/><path class="cls-1" d="M454.26,248c-.26-1-.6-2.09-.8-3.16-.08-.4-.4-1.18-.15-1.57"/><path class="cls-1" d="M452.81,242.73c.15.23.41.48.37.77"/><path class="cls-1" d="M761,142.16c-.31.68-.54,1.38-.87,2.05a10.57,10.57,0,0,0-1,2.06,2.43,2.43,0,0,0,.72,1.91c.19.2.36.32.53.51s.44.59.7.85.76.57,1.09.93a6.48,6.48,0,0,0,1.12,1.1c.32.24,1.47.57,1.45,1-.06,1-1.35,1.05-2.1.86a9.07,9.07,0,0,1-2.51-1.51c-.46-.29-.86-.44-1.27.06a3.12,3.12,0,0,0-.49,1.64,35.22,35.22,0,0,1-.68,3.74c-.1.48-.52,2.39-1.23,2.27s-.65-1.45-.62-1.91a21.56,21.56,0,0,1,.49-2.52,1.94,1.94,0,0,0,.07-1.09c-.15-.41-.5-.8-.68-1.2"/><path class="cls-1" d="M756.78,147.13a3.45,3.45,0,0,0,.61-.3,1.46,1.46,0,0,1,.65-.1"/><path class="cls-1" d="M753.6,151.33c-.67.21-1.44-.45-1.09-1.15.13-.26.44-.37.68-.49a3.59,3.59,0,0,0,.65-.45c.35-.27.63-.7,1-.93s1.42-.33,1.3.25"/><path class="cls-1" d="M754.46,153.16a1.33,1.33,0,0,1-.1.62c-.25.52-.67.93-1,1.45-.4.68-.84,1.31-1.24,2-.19.32-.34.67-.5,1-.35.75.1,1.42.89.93a4,4,0,0,0,1.14-1.47c.29-.49.74-.89,1-1.38a8.56,8.56,0,0,1,.79-1.17c.24-.33.49-1.06.95-.95"/><path class="cls-1" d="M753.69,151.46l-.15.07a1.2,1.2,0,0,0,.47,1.29c.55.31,1-.21,1.38-.5a5.3,5.3,0,0,0,1.8-2.52,2,2,0,0,0,.14-1.11.58.58,0,0,0-.83-.25,5.46,5.46,0,0,1-1.24,1.44c-.47.49-1,1-1.48,1.39"/><path class="cls-1" d="M755.36,146.36a1.86,1.86,0,0,0,.15,1.67"/><path class="cls-1" d="M754.25,146.86a2,2,0,0,0,.55,1.39"/><path class="cls-1" d="M752.82,149.79c-.58-.3-.27-1.11,0-1.52s.4-.85.62-1.29a5,5,0,0,1,1.22-1.46,1.5,1.5,0,0,1,1.52-.21,1.86,1.86,0,0,1,.53.19"/><path class="cls-1" d="M756,140.31c-.27,1.05-.61,2.09-.81,3.16-.07.4-.4,1.18-.15,1.56"/><path class="cls-1" d="M754.55,145.53c.15-.23.42-.48.37-.77"/><path class="cls-1" d="M571.34,206.39V205c0-1.57-1.33-2.57-2.06-3.89-.36-.66-.7-1.34-1-2-.22-.5-.31-1.06-.55-1.55s-.55-.77-.77-1.17-.14-.4.3-.51a1.17,1.17,0,0,1,1,.23c.42.31.44.95.67,1.4.69,1.28,1.27.29,1.35-.6a17.75,17.75,0,0,1,.05-2.53,9.24,9.24,0,0,0,.21-2c0-.52-.17-1.61.53-1.56.91.06.58,1.94.58,2.59,0,1,0,2.08,0,3.13"/><path class="cls-1" d="M571.51,200.09c.61,0,.8.6,1.07,1"/><path class="cls-1" d="M573.24,196.76a37.29,37.29,0,0,0,.24-4.37c0-.7.28-3-.9-2.13-.11.43-.42.87-.55,1.31a7.25,7.25,0,0,0-.07,1.86,12.23,12.23,0,0,1-.29,2.09"/><path class="cls-1" d="M574.84,197c0-1,.37-2,.37-3a10.83,10.83,0,0,0,.09-1.26c0-.34-.09-.74-.14-1-.08-.47-.25-1.2-.76-.57a2.67,2.67,0,0,0-.38,1.35c-.15,1.42-.57,2.95-.78,4.33"/><path class="cls-1" d="M575,196.06a12.41,12.41,0,0,1,.78-2.52c.12-.44.75-1.14.92-.39a6.78,6.78,0,0,1-.14,1.34,9.26,9.26,0,0,1-.33,2.35c-.34,1.39-.53,2.88-.74,4.32-.16,1.14-.77,2.07-.82,3.21,0,.61,0,1.22,0,1.82a5.43,5.43,0,0,0,0,1,2.91,2.91,0,0,0,.16,1"/><path class="cls-1" d="M581.68,351c-.59,0-.91,1.07-1.37,1.35a3.13,3.13,0,0,1-2.42.13c-.59-.23-1.14-.48-1.72-.71a3.09,3.09,0,0,0-1.74-.4,1.05,1.05,0,0,0-.7,1.44c.24.58,1.3.78,1.85.86A4.81,4.81,0,0,1,579,356a1.93,1.93,0,0,0,1,.91,4.16,4.16,0,0,0,1.89,0"/><path class="cls-1" d="M584.31,349.89a9.57,9.57,0,0,1,.37-3,11.45,11.45,0,0,0,.37-2.32c0-.44-.14-1.64-.83-1a4.55,4.55,0,0,0-.82,2,19.18,19.18,0,0,0-.28,2.31c0,.42-.2,2.07-1,1.51-.47-.33-.27-1.43-.17-1.88a7.57,7.57,0,0,0-.05-2c0-.36,0-.72,0-1.07s-.23-.52-.42-.82c-1.5-.34-1.1,5.26-1.1,5.92s.13,1.27.16,1.9c0,.23,0,.46,0,.7"/><path class="cls-1" d="M586.62,353.18a9,9,0,0,0,1.87-2.58c.24-.45.73-.67,1-1.13s-.15-1.22-.73-1.07-1,.85-1.32,1.23c-.48.54-1,1.06-1.48,1.6a6.63,6.63,0,0,1,.65-2.79c.21-.52.33-1.06.49-1.57s.75-2.2-.32-1.88c-.34.1-.71,1-.9,1.36a12.44,12.44,0,0,1-1.45,2.59"/><path class="cls-1" d="M582.62,352.19c.64.59.54,1.45.54,2.31"/><path class="cls-1" d="M586.66,353.1a2.85,2.85,0,0,0-.33,1.43,3.12,3.12,0,0,1-.5,1.35c-.42.64-1.33,1.8-2.14.84"/><path class="cls-1" d="M584.76,362.32c0-.51-.28-.88-.32-1.37,0-.69.08-1.42.11-2.11,0-.33.22-.94.05-1.24s-.42-.27-.63-.43a4.44,4.44,0,0,1-.6-.7"/><path class="cls-1" d="M583.24,358.33a1.18,1.18,0,0,1,1.24.24"/><path class="cls-1" d="M579.7,357.13c.31,1.57-.73,3.05-1,4.53"/><path class="cls-1" d="M585,356.93c-.34.19-.25.58-.33.82"/><path class="cls-1" d="M753.24,348.88a36.64,36.64,0,0,0,1.64-3.86,2.73,2.73,0,0,0,.28-1c0-.23,0-.75-.13-.92-.35-.36-1,1.05-1.18,1.36a17.63,17.63,0,0,0-1.71,3.42c-.12.09-.21.26-.34.35a3.72,3.72,0,0,1-.37-2.26c0-.89-.08-1.77,0-2.66,0-.66-.21-1.27-1-1.23-.62,0-.64.73-.68,1.26-.1,1.3-.11,2.58-.11,3.9v.72"/><path class="cls-1" d="M750,351.86a.5.5,0,0,1,0-.27s.06,0,.09,0c.25-.35.57-.64.55-1.12"/><path class="cls-1" d="M747.77,359.82a6.06,6.06,0,0,1,.31-1.41c.09-.39.17-.8.24-1.21a4.16,4.16,0,0,0,0-1.27c-.1-.68-.39-1.31-.48-2a8.37,8.37,0,0,1,.07-2.29,2.74,2.74,0,0,1,.84-1.47c.2-.22.39-.48.58-.71s.26-.54.44-.63c.45-.24,1.14.17,1.58.22s1.88.35,1.12,1.16c-.23.24-1.54.84-1.7.27"/><path class="cls-1" d="M751.81,356a11.52,11.52,0,0,0-.48-4.28"/><path class="cls-1" d="M752.73,353.12c.66.21.38,1,.55,1.47"/><path class="cls-1" d="M749.58,343.07c-.31-.48-.88-.31-1.17.13a4,4,0,0,0-.36,2c0,1.44-.07,2.87-.07,4.29v.37"/><path class="cls-1" d="M754.81,345.33a.41.41,0,0,1,.61.11,1.4,1.4,0,0,1,.15.88c-.05.39-.19.78-.24,1.16s0,.67,0,1c-.11.69-.46,1.28-.61,1.94a8.29,8.29,0,0,0-.14,1.88v2.53a2.07,2.07,0,0,1-.46,1.35,3.61,3.61,0,0,0-.67,1.73c0,.94,0,1.89,0,2.84"/><path class="cls-1" d="M295,570.19c0-.55-.27-1.09-.32-1.66s0-1.23,0-1.84a13.94,13.94,0,0,1,.2-4c.16-.48,1.2-1.7,1.42-.69a11.49,11.49,0,0,1-.14,2.55,8.15,8.15,0,0,0,.95,3.24"/><path class="cls-1" d="M297.27,570.07a2.29,2.29,0,0,0,1.56-.5c.55-.53,1.13-1.8,0-2a4.22,4.22,0,0,0-1.66.21c-.74.18-.73.6-1.1,1.2a9.27,9.27,0,0,1-.92,1.56"/><path class="cls-1" d="M297.27,571.67a2.48,2.48,0,0,1,.2-1.48"/><path class="cls-1" d="M296.81,567.35c-.45.16-.7.52-1.23.53"/><path class="cls-1" d="M294.75,571.63a16.67,16.67,0,0,0,.3,3.82,9,9,0,0,1-.34,4.17"/><path class="cls-1" d="M297.14,567.76c.14-.66.19-1.41.37-2.06s.47-.93.58-1.44a5.52,5.52,0,0,1,1.15-2.6c.65-.73,1.36-.36,1.24.58-.08.62-.37,1.14-.49,1.73a19.24,19.24,0,0,1-.83,3.5"/><path class="cls-1" d="M299.53,568.38c.62-.1.6.92.49,1.31a5.36,5.36,0,0,1-.9,1.53c-.32.42-.72,1-1.31.65a1.07,1.07,0,0,1-.3-1.43"/><path class="cls-1" d="M300.4,570.07c.88,0,.94.91.94,1.6a4.59,4.59,0,0,1-.11,2.12,16.26,16.26,0,0,0-1.08,2.12c-.21.69-.07,1.44-1.06,1.06-.66-.24-.91-.64-1.7-.64"/><path class="cls-1" d="M298.91,572.41c-.27.52.38.69.75.51s.53-.71.78-1.08"/><path class="cls-1" d="M300.27,573.94a.75.75,0,0,1-.86-.83"/><path class="cls-1" d="M297.35,574c-.28.36-.66,1-1.11,1.07"/><path class="cls-1" d="M298.83,574.51a.11.11,0,0,1,0,.09"/><path class="cls-1" d="M300.35,580.48a7.8,7.8,0,0,1-.28-2.23,3.08,3.08,0,0,1-.09-1.47"/><path class="cls-1" d="M125.24,839.86c0,.56-.27,1.09-.32,1.66s0,1.23,0,1.84a13.94,13.94,0,0,0,.2,4c.15.49,1.2,1.7,1.42.69a12,12,0,0,0-.14-2.54,8.2,8.2,0,0,1,1-3.25"/><path class="cls-1" d="M127.54,840a2.29,2.29,0,0,1,1.57.49c.55.54,1.13,1.81,0,2a4.22,4.22,0,0,1-1.66-.21c-.74-.18-.73-.59-1.1-1.19a9,9,0,0,0-.92-1.57"/><path class="cls-1" d="M127.54,838.38a2.47,2.47,0,0,0,.21,1.48"/><path class="cls-1" d="M127.09,842.7c-.45-.16-.7-.52-1.23-.53"/><path class="cls-1" d="M125,838.42a16.71,16.71,0,0,1,.3-3.82,9.05,9.05,0,0,0-.34-4.17"/><path class="cls-1" d="M127.42,842.29c.14.66.19,1.41.37,2.06s.47.94.58,1.44a5.48,5.48,0,0,0,1.15,2.6c.65.73,1.36.37,1.24-.58-.08-.61-.37-1.13-.49-1.73a19.64,19.64,0,0,0-.83-3.5"/><path class="cls-1" d="M129.81,841.67c.62.1.6-.92.49-1.31a5.41,5.41,0,0,0-.9-1.52c-.32-.43-.72-1-1.31-.66a1.08,1.08,0,0,0-.3,1.44"/><path class="cls-1" d="M130.67,840c.89,0,1-.91,1-1.61a4.54,4.54,0,0,0-.12-2.11,19.35,19.35,0,0,1-1.08-2.13c-.2-.68-.06-1.43-1.06-1.06-.65.25-.9.64-1.69.65"/><path class="cls-1" d="M129.19,837.64c-.27-.52.38-.69.75-.51s.53.71.77,1.09"/><path class="cls-1" d="M130.55,836.12a.75.75,0,0,0-.86.82"/><path class="cls-1" d="M127.63,836.07c-.28-.36-.66-1-1.12-1.07"/><path class="cls-1" d="M129.11,835.54a.09.09,0,0,0,0-.08"/><path class="cls-1" d="M130.63,829.57a7.46,7.46,0,0,0-.29,2.23,3.2,3.2,0,0,0-.08,1.47"/><path class="cls-1" d="M367,457.35c-.2-.52-.2-1.11-.38-1.64a17,17,0,0,0-.74-1.69,13.58,13.58,0,0,0-1.81-3.61c-.33-.38-1.78-1.07-1.57-.05a11.27,11.27,0,0,0,1.15,2.27,8.12,8.12,0,0,1,.44,3.35"/><path class="cls-1" d="M364.8,458.17a2.26,2.26,0,0,1-1.63.18c-.73-.27-1.77-1.2-.77-1.82a4.13,4.13,0,0,1,1.59-.48c.76-.14.91.25,1.5.65a8.67,8.67,0,0,0,1.47,1.06"/><path class="cls-1" d="M365.45,459.64c-.22-.48-.37-1-.79-1.27"/><path class="cls-1" d="M364.11,455.5c.48,0,.86.19,1.35,0"/><path class="cls-1" d="M367.73,458.59A17.24,17.24,0,0,1,369,462.2a9,9,0,0,0,2,3.68"/><path class="cls-1" d="M364,456c-.39-.54-.74-1.21-1.17-1.74s-.8-.66-1.11-1.08a5.46,5.46,0,0,0-2.11-1.91c-.88-.41-1.39.21-.89,1,.32.53.79.89,1.14,1.39a19.07,19.07,0,0,0,2.18,2.86"/><path class="cls-1" d="M362,457.54c-.6.16-.18,1.09.08,1.4a5.47,5.47,0,0,0,1.45,1c.45.26,1.05.62,1.46.07a1.07,1.07,0,0,0-.31-1.43"/><path class="cls-1" d="M361.93,459.43c-.8.36-.5,1.22-.21,1.85s.37,1.38.95,1.89a16.91,16.91,0,0,1,1.85,1.51c.47.55.64,1.29,1.4.54.5-.49.57-1,1.29-1.27"/><path class="cls-1" d="M364.24,461c.46.37-.07.78-.48.76s-.77-.43-1.15-.67"/><path class="cls-1" d="M363.61,462.92a.75.75,0,0,0,.46-1.1"/><path class="cls-1" d="M366.3,461.78c.4.23,1,.63,1.45.53"/><path class="cls-1" d="M365.16,462.87a.11.11,0,0,0,.07.06"/><path class="cls-1" d="M366.18,469a7.43,7.43,0,0,0-.64-2.16c-.12-.42-.19-1.08-.52-1.38"/><path class="cls-1" d="M150.8,555.65c-.58,0-.91,1.08-1.37,1.35a3.13,3.13,0,0,1-2.42.14c-.59-.23-1.14-.48-1.72-.71a3,3,0,0,0-1.74-.4,1.06,1.06,0,0,0-.7,1.43c.25.59,1.3.79,1.86.87a4.76,4.76,0,0,1,3.38,2.31,1.91,1.91,0,0,0,1,.9,3.94,3.94,0,0,0,1.9,0"/><path class="cls-1" d="M153.44,554.5a9.54,9.54,0,0,1,.37-3,12.19,12.19,0,0,0,.37-2.32c0-.44-.14-1.64-.84-1a4.37,4.37,0,0,0-.81,2,19.27,19.27,0,0,0-.29,2.3c0,.42-.19,2.08-1,1.52-.46-.34-.26-1.43-.17-1.89a8,8,0,0,0,0-2c0-.35,0-.71,0-1.07s-.24-.51-.42-.81c-1.51-.34-1.11,5.26-1.11,5.92s.14,1.26.17,1.89c0,.24,0,.47,0,.7"/><path class="cls-1" d="M155.74,557.8a9.07,9.07,0,0,0,1.87-2.59c.24-.45.74-.66,1-1.12s-.15-1.23-.73-1.08-1,.86-1.32,1.24-1,1.06-1.47,1.6a6.59,6.59,0,0,1,.64-2.79c.22-.52.33-1.07.5-1.57s.74-2.21-.32-1.89c-.35.1-.72,1-.9,1.36a13.42,13.42,0,0,1-1.45,2.59"/><path class="cls-1" d="M151.75,556.81c.64.58.53,1.45.53,2.3"/><path class="cls-1" d="M155.78,557.71a2.87,2.87,0,0,0-.32,1.43,3,3,0,0,1-.5,1.35c-.43.65-1.33,1.8-2.14.85"/><path class="cls-1" d="M153.89,566.94c0-.51-.29-.88-.32-1.37a16.57,16.57,0,0,1,.11-2.11c0-.33.22-.94,0-1.25s-.43-.27-.64-.42-.38-.48-.6-.7"/><path class="cls-1" d="M152.37,562.94a1.18,1.18,0,0,1,1.23.25"/><path class="cls-1" d="M148.82,561.75c.32,1.56-.72,3-1,4.53"/><path class="cls-1" d="M154.14,561.54c-.35.19-.25.59-.33.83"/><path class="cls-1" d="M301.34,727.59c-.58,0-.91-1.08-1.37-1.35a3.13,3.13,0,0,0-2.42-.13c-.59.23-1.14.48-1.71.71a3.09,3.09,0,0,1-1.74.4,1.05,1.05,0,0,1-.7-1.44c.24-.58,1.29-.78,1.85-.86a4.83,4.83,0,0,0,3.39-2.31,1.91,1.91,0,0,1,1-.91,4.2,4.2,0,0,1,1.9,0"/><path class="cls-1" d="M304,728.74a9.57,9.57,0,0,0,.37,3,12.19,12.19,0,0,1,.37,2.32c0,.44-.14,1.64-.84,1a4.42,4.42,0,0,1-.81-2,21.43,21.43,0,0,1-.29-2.31c0-.42-.19-2.07-1-1.51-.46.33-.26,1.43-.17,1.88a8,8,0,0,1,0,2c0,.36,0,.72,0,1.07s-.23.52-.42.82c-1.51.34-1.1-5.26-1.1-5.92s.13-1.27.16-1.9c0-.23,0-.47,0-.7"/><path class="cls-1" d="M306.28,725.45a9,9,0,0,1,1.87,2.58c.24.45.74.67,1,1.13s-.14,1.22-.73,1.07-1-.86-1.32-1.23c-.48-.54-1-1.06-1.47-1.6a6.62,6.62,0,0,0,.64,2.79c.22.52.33,1.06.5,1.57s.74,2.2-.32,1.88c-.34-.1-.71-1-.9-1.36a12.91,12.91,0,0,0-1.45-2.59"/><path class="cls-1" d="M302.29,726.44c.64-.59.53-1.45.53-2.31"/><path class="cls-1" d="M306.32,725.53a2.84,2.84,0,0,1-.32-1.43,3.12,3.12,0,0,0-.5-1.35c-.42-.64-1.33-1.8-2.14-.84"/><path class="cls-1" d="M304.43,716.31c0,.51-.29.88-.32,1.37a18.64,18.64,0,0,0,.11,2.11c0,.33.22.94,0,1.24s-.43.27-.64.43-.38.48-.6.7"/><path class="cls-1" d="M302.91,720.3a1.16,1.16,0,0,0,1.23-.24"/><path class="cls-1" d="M299.37,721.5c.31-1.57-.73-3-1-4.53"/><path class="cls-1" d="M304.68,721.7c-.35-.19-.25-.59-.33-.82"/><path class="cls-1" d="M92.61,484.32a41.39,41.39,0,0,0,1.64-3.86,2.91,2.91,0,0,0,.27-1c0-.22,0-.74-.13-.91-.35-.36-1,1.05-1.17,1.36a17.63,17.63,0,0,0-1.71,3.42c-.12.09-.22.26-.34.35a3.72,3.72,0,0,1-.37-2.26c0-.89-.08-1.77-.06-2.66,0-.66-.2-1.27-1-1.24-.63,0-.65.74-.69,1.27-.09,1.3-.1,2.58-.1,3.9v.72"/><path class="cls-1" d="M89.33,487.3a.42.42,0,0,1,0-.27s.06,0,.09,0c.24-.35.56-.64.55-1.12"/><path class="cls-1" d="M87.14,495.26a6,6,0,0,1,.31-1.41c.08-.39.17-.8.24-1.21a4.57,4.57,0,0,0,0-1.28c-.1-.67-.39-1.3-.47-2a8.79,8.79,0,0,1,.06-2.29,2.81,2.81,0,0,1,.84-1.47,7.94,7.94,0,0,0,.58-.72c.13-.16.27-.53.45-.62.45-.24,1.14.17,1.58.22s1.88.35,1.12,1.16c-.23.24-1.55.84-1.7.27"/><path class="cls-1" d="M91.17,491.47a11.52,11.52,0,0,0-.48-4.28"/><path class="cls-1" d="M92.1,488.56c.65.2.38,1,.54,1.47"/><path class="cls-1" d="M89,478.51c-.31-.48-.88-.31-1.17.13a3.88,3.88,0,0,0-.37,2c0,1.44-.07,2.87-.07,4.29v.37"/><path class="cls-1" d="M94.18,480.77a.41.41,0,0,1,.61.11,1.34,1.34,0,0,1,.14.88c0,.39-.18.78-.24,1.16s0,.67,0,1c-.1.69-.46,1.28-.61,1.94a8.87,8.87,0,0,0-.13,1.87v2.54a2,2,0,0,1-.47,1.35,3.6,3.6,0,0,0-.66,1.73c0,.94,0,1.89,0,2.84"/><path class="cls-1" d="M248.46,474.92c.31-.68.54-1.38.87-2.05a10.57,10.57,0,0,0,1-2.06,2.4,2.4,0,0,0-.72-1.91c-.19-.2-.36-.32-.53-.51s-.44-.59-.7-.85-.76-.57-1.08-.93a7.41,7.41,0,0,0-1.13-1.11c-.32-.23-1.47-.56-1.45-1,.06-1,1.35-1.05,2.1-.86a9.07,9.07,0,0,1,2.51,1.51c.46.29.86.44,1.27-.06a3.12,3.12,0,0,0,.49-1.64,35.22,35.22,0,0,1,.68-3.74c.1-.48.52-2.39,1.23-2.27s.65,1.45.62,1.91a19.67,19.67,0,0,1-.49,2.52,1.94,1.94,0,0,0-.07,1.09c.15.41.5.8.68,1.2"/><path class="cls-1" d="M252.72,470a3.45,3.45,0,0,0-.61.3,1.61,1.61,0,0,1-.65.1"/><path class="cls-1" d="M255.9,465.75c.67-.21,1.44.45,1.09,1.15a1.31,1.31,0,0,1-.68.49,3.59,3.59,0,0,0-.65.45c-.35.27-.63.7-1,.93s-1.42.33-1.3-.25"/><path class="cls-1" d="M255,463.92a1.33,1.33,0,0,1,.1-.62c.25-.52.67-.93,1-1.45.4-.68.84-1.31,1.24-2,.19-.32.34-.67.5-1,.35-.75-.1-1.42-.89-.93a4,4,0,0,0-1.14,1.47c-.29.49-.74.89-1,1.38A8.56,8.56,0,0,1,254,462c-.24.33-.49,1.06-.95.95"/><path class="cls-1" d="M255.81,465.62l.15-.07a1.2,1.2,0,0,0-.47-1.29c-.55-.31-1,.21-1.38.5a5.3,5.3,0,0,0-1.8,2.52,2,2,0,0,0-.14,1.11.58.58,0,0,0,.83.25,5.46,5.46,0,0,1,1.24-1.44c.47-.49,1-.95,1.48-1.39"/><path class="cls-1" d="M254.14,470.72a1.86,1.86,0,0,0-.15-1.67"/><path class="cls-1" d="M255.26,470.22a2.07,2.07,0,0,0-.56-1.39"/><path class="cls-1" d="M256.68,467.29c.58.3.27,1.11,0,1.52s-.41.85-.63,1.29a5,5,0,0,1-1.22,1.46,1.5,1.5,0,0,1-1.52.21,1.86,1.86,0,0,1-.53-.19"/><path class="cls-1" d="M253.5,476.77c.26-1,.6-2.09.8-3.16.07-.4.4-1.18.15-1.56"/><path class="cls-1" d="M255,471.55c-.15.23-.42.48-.37.77"/><path class="cls-1" d="M95.13,694.31c-.31-.68-.54-1.38-.87-2a11.23,11.23,0,0,1-1-2.06,2.44,2.44,0,0,1,.73-1.91c.19-.2.35-.32.53-.51s.44-.59.69-.86.76-.56,1.09-.92a7.83,7.83,0,0,1,1.12-1.11c.33-.23,1.48-.56,1.45-1-.06-1-1.34-1-2.1-.86a9,9,0,0,0-2.5,1.51c-.46.29-.87.44-1.27-.06a3.12,3.12,0,0,1-.49-1.64,38,38,0,0,0-.68-3.74c-.1-.48-.52-2.39-1.23-2.27s-.65,1.45-.62,1.91a19.67,19.67,0,0,0,.49,2.52,1.85,1.85,0,0,1,.06,1.09c-.15.41-.49.8-.67,1.2"/><path class="cls-1" d="M90.86,689.33a4.48,4.48,0,0,1,.62.31,1.58,1.58,0,0,0,.65.1"/><path class="cls-1" d="M87.68,685.13a.88.88,0,0,0-1.09,1.16c.13.26.44.37.68.49a3.34,3.34,0,0,1,.66.45,12.13,12.13,0,0,0,1,.92c.25.16,1.42.34,1.3-.24"/><path class="cls-1" d="M88.55,683.31a1.33,1.33,0,0,0-.1-.62c-.25-.52-.67-.93-1-1.45-.4-.68-.85-1.31-1.25-2a10.26,10.26,0,0,1-.49-1c-.35-.75.1-1.42.89-.93a4,4,0,0,1,1.14,1.47c.29.49.74.89,1,1.38a7.68,7.68,0,0,0,.78,1.17c.25.33.49,1.06.95.95"/><path class="cls-1" d="M87.78,685l-.15-.07a1.19,1.19,0,0,1,.47-1.29c.55-.31,1,.21,1.37.5a5.24,5.24,0,0,1,1.8,2.52,1.93,1.93,0,0,1,.14,1.11.56.56,0,0,1-.82.25,5.46,5.46,0,0,0-1.24-1.44c-.47-.49-1-1-1.48-1.39"/><path class="cls-1" d="M89.44,690.11a1.86,1.86,0,0,1,.16-1.67"/><path class="cls-1" d="M88.33,689.61a2,2,0,0,1,.56-1.39"/><path class="cls-1" d="M86.91,686.68c-.58.3-.27,1.11,0,1.52s.41.84.63,1.29A4.88,4.88,0,0,0,88.72,691a1.5,1.5,0,0,0,1.52.21,2,2,0,0,0,.53-.19"/><path class="cls-1" d="M90.09,696.16c-.26-1-.6-2.09-.8-3.16-.08-.4-.4-1.18-.16-1.57"/><path class="cls-1" d="M88.64,690.94c.15.23.41.48.37.77"/><path class="cls-1" d="M396.87,590.37c-.31.68-.54,1.38-.87,2a10.57,10.57,0,0,0-1,2.06,2.43,2.43,0,0,0,.72,1.91c.19.2.36.32.53.51s.44.59.7.85.76.57,1.08.93a6.91,6.91,0,0,0,1.13,1.1c.32.24,1.47.57,1.45,1-.06,1-1.35,1.05-2.1.86a9.07,9.07,0,0,1-2.51-1.51c-.46-.29-.86-.44-1.27.06a3.12,3.12,0,0,0-.49,1.64,35.22,35.22,0,0,1-.68,3.74c-.1.48-.52,2.39-1.23,2.27s-.65-1.45-.62-1.91a20.16,20.16,0,0,1,.49-2.53,1.9,1.9,0,0,0,.07-1.08c-.15-.41-.5-.8-.68-1.2"/><path class="cls-1" d="M392.61,595.34a3.45,3.45,0,0,0,.61-.3,1.61,1.61,0,0,1,.65-.1"/><path class="cls-1" d="M389.43,599.54c-.67.21-1.44-.45-1.09-1.15a1.31,1.31,0,0,1,.68-.49,3.59,3.59,0,0,0,.65-.45c.35-.27.63-.7,1-.93s1.42-.33,1.3.25"/><path class="cls-1" d="M390.29,601.37a1.33,1.33,0,0,1-.1.62c-.25.52-.67.93-1,1.45-.4.68-.84,1.31-1.24,2-.19.32-.34.67-.5,1-.35.75.1,1.42.89.93a4,4,0,0,0,1.14-1.47c.29-.49.74-.89,1-1.38a8.56,8.56,0,0,1,.79-1.17c.24-.33.49-1.06.95-1"/><path class="cls-1" d="M389.52,599.67l-.15.07a1.2,1.2,0,0,0,.47,1.29c.55.31,1-.21,1.38-.5A5.3,5.3,0,0,0,393,598a2,2,0,0,0,.14-1.11.58.58,0,0,0-.83-.25,5.46,5.46,0,0,1-1.24,1.44c-.47.49-1,.95-1.48,1.39"/><path class="cls-1" d="M391.19,594.57a1.86,1.86,0,0,0,.15,1.67"/><path class="cls-1" d="M390.07,595.07a2.07,2.07,0,0,0,.56,1.39"/><path class="cls-1" d="M388.65,598c-.58-.3-.27-1.11,0-1.52s.41-.85.63-1.29a5,5,0,0,1,1.22-1.46,1.5,1.5,0,0,1,1.52-.21,1.86,1.86,0,0,1,.53.19"/><path class="cls-1" d="M391.84,588.52c-.27,1.05-.61,2.09-.81,3.16-.07.4-.4,1.18-.15,1.56"/><path class="cls-1" d="M390.38,593.74c.15-.23.42-.48.37-.77"/><path class="cls-1" d="M207.17,654.6v-1.4c0-1.57-1.33-2.57-2.06-3.89-.36-.66-.7-1.34-1-2-.22-.5-.31-1.06-.55-1.55s-.55-.77-.77-1.17-.14-.4.3-.51a1.17,1.17,0,0,1,1,.23c.41.31.44,1,.67,1.4.69,1.28,1.27.29,1.34-.6a19.35,19.35,0,0,1,.06-2.53,9.24,9.24,0,0,0,.21-2c0-.52-.17-1.61.53-1.56.91.06.58,1.94.58,2.59,0,1,0,2.08,0,3.13"/><path class="cls-1" d="M207.34,648.3c.61,0,.8.6,1.07,1"/><path class="cls-1" d="M209.07,645a37.29,37.29,0,0,0,.24-4.37c0-.7.28-3-.9-2.13-.11.43-.42.87-.55,1.31a6.83,6.83,0,0,0-.07,1.86,12.23,12.23,0,0,1-.29,2.09"/><path class="cls-1" d="M210.67,645.17c0-1,.37-2,.37-3a10.83,10.83,0,0,0,.09-1.26c0-.34-.09-.74-.14-1-.08-.47-.25-1.2-.76-.57a2.67,2.67,0,0,0-.38,1.35c-.15,1.42-.58,3-.78,4.33"/><path class="cls-1" d="M210.79,644.27a13.11,13.11,0,0,1,.79-2.52c.12-.44.75-1.14.92-.39a6.78,6.78,0,0,1-.14,1.34,9.26,9.26,0,0,1-.33,2.35c-.34,1.39-.53,2.88-.74,4.32-.16,1.14-.77,2.07-.82,3.21,0,.61,0,1.22-.05,1.82a6.51,6.51,0,0,0,0,1,3.16,3.16,0,0,0,.17,1"/><path class="cls-1" d="M217.51,799.25c-.59,0-.92,1.08-1.37,1.35a3.13,3.13,0,0,1-2.42.13c-.59-.23-1.14-.48-1.72-.71a3.09,3.09,0,0,0-1.74-.4,1.05,1.05,0,0,0-.7,1.44c.24.58,1.3.78,1.85.86a4.83,4.83,0,0,1,3.39,2.31,1.93,1.93,0,0,0,1,.91,4.16,4.16,0,0,0,1.89,0"/><path class="cls-1" d="M220.14,798.1a9.57,9.57,0,0,1,.37-3,11.45,11.45,0,0,0,.37-2.32c0-.44-.14-1.64-.83-1a4.55,4.55,0,0,0-.82,2A19.18,19.18,0,0,0,219,796c0,.42-.2,2.07-1,1.51-.47-.33-.27-1.43-.18-1.88a7.57,7.57,0,0,0,0-2c0-.36,0-.72,0-1.07s-.23-.52-.42-.82c-1.5-.34-1.1,5.26-1.1,5.92s.13,1.27.16,1.9c0,.23,0,.47,0,.7"/><path class="cls-1" d="M222.45,801.39a8.81,8.81,0,0,0,1.86-2.58c.25-.45.74-.67,1-1.13s-.15-1.22-.73-1.07-1,.86-1.32,1.23c-.49.54-1,1.06-1.48,1.6a6.63,6.63,0,0,1,.65-2.79c.21-.52.33-1.06.49-1.57s.75-2.2-.32-1.88c-.34.1-.71,1-.9,1.36a12.91,12.91,0,0,1-1.45,2.59"/><path class="cls-1" d="M218.45,800.4c.64.59.54,1.45.54,2.31"/><path class="cls-1" d="M222.49,801.31a2.85,2.85,0,0,0-.33,1.43,3.12,3.12,0,0,1-.5,1.35c-.42.64-1.33,1.8-2.14.84"/><path class="cls-1" d="M220.59,810.53c0-.51-.28-.88-.32-1.37,0-.69.08-1.42.11-2.11,0-.33.22-.94.05-1.24s-.42-.27-.63-.43-.39-.48-.61-.7"/><path class="cls-1" d="M219.07,806.54a1.18,1.18,0,0,1,1.24.24"/><path class="cls-1" d="M215.53,805.34c.31,1.57-.73,3-1,4.53"/><path class="cls-1" d="M220.84,805.14c-.34.19-.25.59-.33.82"/><path class="cls-1" d="M389.07,797.09a36.64,36.64,0,0,0,1.64-3.86,2.73,2.73,0,0,0,.28-1c0-.23,0-.75-.13-.92-.35-.36-1,1.05-1.18,1.36a17.63,17.63,0,0,0-1.71,3.42c-.12.09-.21.26-.34.35a3.72,3.72,0,0,1-.37-2.26c0-.88-.08-1.77-.06-2.66,0-.66-.2-1.27-1-1.23-.62,0-.64.73-.68,1.26-.1,1.3-.11,2.58-.11,3.9v.72"/><path class="cls-1" d="M385.79,800.07a.5.5,0,0,1,0-.27s.06,0,.09,0c.25-.35.57-.64.55-1.12"/><path class="cls-1" d="M383.6,808a6.06,6.06,0,0,1,.31-1.41c.09-.39.17-.8.24-1.21a4.91,4.91,0,0,0,0-1.27c-.1-.68-.39-1.31-.48-2a8.37,8.37,0,0,1,.07-2.29,2.74,2.74,0,0,1,.84-1.47c.2-.22.39-.48.58-.71s.26-.54.44-.63c.45-.24,1.14.17,1.58.22s1.88.35,1.12,1.16c-.23.24-1.54.84-1.7.27"/><path class="cls-1" d="M387.64,804.24a11.45,11.45,0,0,0-.48-4.27"/><path class="cls-1" d="M388.56,801.33c.66.21.38,1,.55,1.47"/><path class="cls-1" d="M385.41,791.28c-.31-.48-.88-.31-1.17.13a4,4,0,0,0-.36,2c0,1.44-.07,2.87-.07,4.29v.37"/><path class="cls-1" d="M390.64,793.54a.41.41,0,0,1,.61.11,1.41,1.41,0,0,1,.15.88c0,.39-.19.78-.24,1.16s0,.67,0,1c-.11.69-.46,1.28-.61,1.94a8.29,8.29,0,0,0-.14,1.88V803a2.07,2.07,0,0,1-.46,1.35,3.61,3.61,0,0,0-.67,1.73c0,.94,0,1.89,0,2.84"/><path class="cls-1" d="M659.13,570.19c0-.55-.27-1.09-.32-1.66s0-1.23,0-1.84a13.94,13.94,0,0,1,.2-4c.16-.48,1.2-1.7,1.42-.69a10.92,10.92,0,0,1-.14,2.55,8.15,8.15,0,0,0,1,3.24"/><path class="cls-1" d="M661.44,570.07a2.29,2.29,0,0,0,1.56-.5c.55-.53,1.13-1.8,0-2a4.22,4.22,0,0,0-1.66.21c-.74.18-.73.6-1.1,1.2a8.65,8.65,0,0,1-.92,1.56"/><path class="cls-1" d="M661.44,571.67a2.48,2.48,0,0,1,.2-1.48"/><path class="cls-1" d="M661,567.35c-.44.16-.7.52-1.23.53"/><path class="cls-1" d="M658.92,571.63a16.67,16.67,0,0,0,.3,3.82,9,9,0,0,1-.34,4.17"/><path class="cls-1" d="M661.31,567.76c.14-.66.19-1.41.37-2.06s.47-.93.58-1.44a5.52,5.52,0,0,1,1.15-2.6c.65-.73,1.36-.36,1.24.58-.08.62-.37,1.14-.49,1.73a19.24,19.24,0,0,1-.83,3.5"/><path class="cls-1" d="M663.7,568.38c.62-.1.6.92.49,1.31a5.36,5.36,0,0,1-.9,1.53c-.32.42-.72,1-1.31.65a1.07,1.07,0,0,1-.3-1.43"/><path class="cls-1" d="M664.57,570.07c.88,0,.94.91.94,1.6a4.59,4.59,0,0,1-.11,2.12,17.61,17.61,0,0,0-1.08,2.12c-.21.69-.06,1.44-1.06,1.06-.66-.24-.91-.64-1.7-.64"/><path class="cls-1" d="M663.08,572.41c-.27.52.38.69.75.51s.53-.71.78-1.08"/><path class="cls-1" d="M664.44,573.94a.75.75,0,0,1-.86-.83"/><path class="cls-1" d="M661.52,574c-.28.36-.66,1-1.11,1.07"/><path class="cls-1" d="M663,574.51a.11.11,0,0,1,0,.09"/><path class="cls-1" d="M664.52,580.48a7.8,7.8,0,0,1-.28-2.23,3.21,3.21,0,0,1-.09-1.47"/><path class="cls-1" d="M489.41,839.86c0,.56-.27,1.09-.32,1.66s0,1.23,0,1.84a13.94,13.94,0,0,0,.2,4c.16.49,1.2,1.7,1.42.69a12,12,0,0,0-.14-2.54,8.2,8.2,0,0,1,.95-3.25"/><path class="cls-1" d="M491.71,840a2.29,2.29,0,0,1,1.57.49c.55.54,1.13,1.81,0,2a4.22,4.22,0,0,1-1.66-.21c-.74-.18-.73-.59-1.1-1.19a9,9,0,0,0-.92-1.57"/><path class="cls-1" d="M491.71,838.38a2.47,2.47,0,0,0,.21,1.48"/><path class="cls-1" d="M491.26,842.7c-.45-.16-.7-.52-1.23-.53"/><path class="cls-1" d="M489.2,838.42a16.71,16.71,0,0,1,.3-3.82,9.05,9.05,0,0,0-.34-4.17"/><path class="cls-1" d="M491.59,842.29c.14.66.19,1.41.37,2.06s.47.94.58,1.44a5.48,5.48,0,0,0,1.15,2.6c.65.73,1.36.37,1.24-.58-.08-.61-.37-1.13-.49-1.73a19.64,19.64,0,0,0-.83-3.5"/><path class="cls-1" d="M494,841.67c.62.1.6-.92.49-1.31a5.18,5.18,0,0,0-.9-1.52c-.32-.43-.72-1-1.31-.66a1.08,1.08,0,0,0-.3,1.44"/><path class="cls-1" d="M494.84,840c.89,0,1-.91,1-1.61a4.68,4.68,0,0,0-.11-2.11,17.81,17.81,0,0,1-1.09-2.13c-.2-.68-.06-1.43-1-1.06-.66.25-.91.64-1.7.65"/><path class="cls-1" d="M493.36,837.64c-.27-.52.38-.69.75-.51s.53.71.78,1.09"/><path class="cls-1" d="M494.72,836.12a.75.75,0,0,0-.86.82"/><path class="cls-1" d="M491.8,836.07c-.28-.36-.66-1-1.11-1.07"/><path class="cls-1" d="M493.28,835.54a.09.09,0,0,0,0-.08"/><path class="cls-1" d="M494.8,829.57a7.15,7.15,0,0,0-.28,2.23,3.08,3.08,0,0,0-.09,1.47"/><path class="cls-1" d="M731.13,457.35c-.2-.52-.2-1.11-.38-1.64s-.49-1.14-.73-1.69a13.91,13.91,0,0,0-1.82-3.61c-.33-.38-1.78-1.07-1.57-.05a12.41,12.41,0,0,0,1.15,2.27,8.12,8.12,0,0,1,.44,3.35"/><path class="cls-1" d="M729,458.17a2.26,2.26,0,0,1-1.63.18c-.73-.27-1.77-1.2-.77-1.82a4.13,4.13,0,0,1,1.59-.48c.76-.14.91.25,1.5.65a8.67,8.67,0,0,0,1.47,1.06"/><path class="cls-1" d="M729.62,459.64c-.22-.48-.37-1-.79-1.27"/><path class="cls-1" d="M728.28,455.5c.48,0,.86.19,1.35,0"/><path class="cls-1" d="M731.9,458.59a16.69,16.69,0,0,1,1.27,3.61,9,9,0,0,0,2,3.68"/><path class="cls-1" d="M728.15,456c-.39-.54-.74-1.21-1.17-1.74s-.8-.66-1.11-1.08a5.46,5.46,0,0,0-2.11-1.91c-.88-.41-1.39.21-.89,1,.32.53.79.89,1.14,1.39a19.07,19.07,0,0,0,2.18,2.86"/><path class="cls-1" d="M726.21,457.54c-.6.16-.17,1.09.08,1.4a5.47,5.47,0,0,0,1.45,1c.46.26,1,.62,1.46.07a1.07,1.07,0,0,0-.31-1.43"/><path class="cls-1" d="M726.1,459.43c-.8.36-.49,1.22-.21,1.85s.37,1.38,1,1.89a16.91,16.91,0,0,1,1.85,1.51c.47.55.64,1.29,1.4.54.5-.49.57-1,1.29-1.27"/><path class="cls-1" d="M728.41,461c.46.37-.07.78-.48.76s-.77-.43-1.15-.67"/><path class="cls-1" d="M727.78,462.92a.75.75,0,0,0,.46-1.1"/><path class="cls-1" d="M730.47,461.78c.4.23,1,.63,1.45.53"/><path class="cls-1" d="M729.33,462.87a.11.11,0,0,0,.07.06"/><path class="cls-1" d="M730.35,469a7.43,7.43,0,0,0-.64-2.16c-.12-.42-.19-1.08-.52-1.38"/><path class="cls-1" d="M515,555.65c-.58,0-.91,1.08-1.37,1.35a3.13,3.13,0,0,1-2.42.14c-.59-.23-1.14-.48-1.72-.71a3,3,0,0,0-1.74-.4,1.06,1.06,0,0,0-.7,1.43c.25.59,1.3.79,1.86.87a4.76,4.76,0,0,1,3.38,2.31,1.91,1.91,0,0,0,1,.9,3.94,3.94,0,0,0,1.9,0"/><path class="cls-1" d="M517.61,554.5a9.54,9.54,0,0,1,.37-3,12.19,12.19,0,0,0,.37-2.32c0-.44-.14-1.64-.84-1a4.37,4.37,0,0,0-.81,2,21.57,21.57,0,0,0-.29,2.3c0,.42-.19,2.08-1,1.52-.46-.34-.26-1.43-.17-1.89a8,8,0,0,0,0-2c0-.35,0-.71,0-1.07s-.24-.51-.42-.81c-1.51-.34-1.11,5.26-1.11,5.92s.14,1.26.17,1.89c0,.24,0,.47,0,.7"/><path class="cls-1" d="M519.91,557.8a9.07,9.07,0,0,0,1.87-2.59c.24-.45.74-.66,1-1.12s-.15-1.23-.73-1.08-1,.86-1.32,1.24l-1.47,1.6a6.59,6.59,0,0,1,.64-2.79c.22-.52.33-1.07.5-1.57s.74-2.21-.32-1.89c-.34.1-.72,1-.9,1.36a13.42,13.42,0,0,1-1.45,2.59"/><path class="cls-1" d="M515.92,556.81c.64.58.53,1.45.53,2.3"/><path class="cls-1" d="M520,557.71a2.87,2.87,0,0,0-.32,1.43,3,3,0,0,1-.5,1.35c-.42.65-1.33,1.8-2.14.85"/><path class="cls-1" d="M518.06,566.94c0-.51-.29-.88-.32-1.37a16.57,16.57,0,0,1,.11-2.11c0-.33.22-.94,0-1.25s-.43-.27-.64-.42-.38-.48-.6-.7"/><path class="cls-1" d="M516.54,562.94a1.18,1.18,0,0,1,1.23.25"/><path class="cls-1" d="M513,561.75c.32,1.56-.72,3-1,4.53"/><path class="cls-1" d="M518.31,561.54c-.35.19-.25.59-.33.83"/><path class="cls-1" d="M665.51,727.59c-.58,0-.91-1.08-1.37-1.35a3.13,3.13,0,0,0-2.42-.13c-.58.23-1.14.48-1.71.71a3.09,3.09,0,0,1-1.74.4,1.05,1.05,0,0,1-.7-1.44c.24-.58,1.29-.78,1.85-.86a4.83,4.83,0,0,0,3.39-2.31,1.91,1.91,0,0,1,1-.91,4.2,4.2,0,0,1,1.9,0"/><path class="cls-1" d="M668.15,728.74a9.57,9.57,0,0,0,.37,3,11.45,11.45,0,0,1,.37,2.32c0,.44-.14,1.64-.83,1a4.43,4.43,0,0,1-.82-2,21.43,21.43,0,0,1-.29-2.31c0-.42-.19-2.07-1-1.51-.46.33-.26,1.43-.17,1.88a8,8,0,0,1,0,2c0,.36,0,.72,0,1.07s-.23.52-.42.82c-1.51.34-1.1-5.26-1.1-5.92s.13-1.27.16-1.9c0-.23,0-.47,0-.7"/><path class="cls-1" d="M670.45,725.45a8.84,8.84,0,0,1,1.87,2.58c.24.45.74.67,1,1.13s-.14,1.22-.73,1.07-1-.86-1.32-1.23c-.48-.54-1-1.06-1.47-1.6a6.77,6.77,0,0,0,.64,2.79c.22.52.33,1.06.5,1.57s.74,2.2-.32,1.88c-.34-.1-.71-1-.9-1.36a12.91,12.91,0,0,0-1.45-2.59"/><path class="cls-1" d="M666.46,726.44c.64-.59.53-1.45.53-2.31"/><path class="cls-1" d="M670.5,725.53a2.75,2.75,0,0,1-.33-1.43,3.12,3.12,0,0,0-.5-1.35c-.42-.64-1.33-1.8-2.14-.84"/><path class="cls-1" d="M668.6,716.31c0,.51-.29.88-.32,1.37a18.64,18.64,0,0,0,.11,2.11c0,.33.22.94.05,1.24s-.43.27-.64.43-.38.48-.6.7"/><path class="cls-1" d="M667.08,720.3a1.16,1.16,0,0,0,1.23-.24"/><path class="cls-1" d="M663.54,721.5c.31-1.57-.73-3-1-4.53"/><path class="cls-1" d="M668.85,721.7c-.35-.19-.25-.59-.33-.82"/><path class="cls-1" d="M456.78,484.32a41.39,41.39,0,0,0,1.64-3.86,2.91,2.91,0,0,0,.27-1c0-.22,0-.74-.13-.91-.35-.36-1,1.05-1.17,1.36a17.63,17.63,0,0,0-1.71,3.42c-.12.09-.22.26-.34.35a3.72,3.72,0,0,1-.37-2.26c0-.89-.08-1.77-.06-2.66,0-.66-.2-1.27-1-1.24-.63,0-.65.74-.69,1.27-.09,1.3-.1,2.58-.1,3.9v.72"/><path class="cls-1" d="M453.5,487.3a.42.42,0,0,1,0-.27s.06,0,.09,0c.24-.35.56-.64.55-1.12"/><path class="cls-1" d="M451.31,495.26a6,6,0,0,1,.31-1.41c.08-.39.17-.8.24-1.21a4.57,4.57,0,0,0,0-1.28c-.1-.67-.39-1.3-.47-2a8.79,8.79,0,0,1,.06-2.29,2.81,2.81,0,0,1,.84-1.47,7.94,7.94,0,0,0,.58-.72c.13-.16.27-.53.45-.62.45-.24,1.14.17,1.58.22s1.88.35,1.12,1.16c-.23.24-1.55.84-1.7.27"/><path class="cls-1" d="M455.34,491.47a11.52,11.52,0,0,0-.48-4.28"/><path class="cls-1" d="M456.27,488.56c.65.2.38,1,.54,1.47"/><path class="cls-1" d="M453.12,478.51c-.31-.48-.88-.31-1.17.13a3.88,3.88,0,0,0-.37,2c0,1.44-.07,2.87-.07,4.29v.37"/><path class="cls-1" d="M458.35,480.77a.41.41,0,0,1,.61.11,1.34,1.34,0,0,1,.14.88c0,.39-.18.78-.24,1.16s0,.67,0,1c-.1.69-.46,1.28-.6,1.94a8.25,8.25,0,0,0-.14,1.87v2.54a2,2,0,0,1-.47,1.35,3.6,3.6,0,0,0-.66,1.73c-.05.94,0,1.89,0,2.84"/><path class="cls-1" d="M612.63,474.92c.31-.68.54-1.38.87-2.05a10.57,10.57,0,0,0,1-2.06,2.4,2.4,0,0,0-.72-1.91c-.19-.2-.36-.32-.53-.51s-.44-.59-.7-.85-.76-.57-1.08-.93a7.83,7.83,0,0,0-1.12-1.11c-.33-.23-1.48-.56-1.46-1,.06-1,1.35-1.05,2.1-.86a9.07,9.07,0,0,1,2.51,1.51c.46.29.86.44,1.27-.06a3.12,3.12,0,0,0,.49-1.64,35.22,35.22,0,0,1,.68-3.74c.1-.48.52-2.39,1.23-2.27s.65,1.45.62,1.91a19.67,19.67,0,0,1-.49,2.52,1.94,1.94,0,0,0-.07,1.09c.15.41.5.8.68,1.2"/><path class="cls-1" d="M616.89,470a3.83,3.83,0,0,0-.61.3,1.61,1.61,0,0,1-.65.1"/><path class="cls-1" d="M620.07,465.75c.67-.21,1.44.45,1.09,1.15a1.31,1.31,0,0,1-.68.49,3.59,3.59,0,0,0-.65.45c-.34.27-.63.7-1,.93s-1.42.33-1.3-.25"/><path class="cls-1" d="M619.21,463.92a1.33,1.33,0,0,1,.1-.62c.25-.52.67-.93,1-1.45.4-.68.85-1.31,1.24-2,.19-.32.34-.67.5-1,.35-.75-.1-1.42-.89-.93A4,4,0,0,0,620,459.4c-.29.49-.74.89-1,1.38a8.56,8.56,0,0,1-.79,1.17c-.24.33-.49,1.06-1,.95"/><path class="cls-1" d="M620,465.62l.15-.07a1.2,1.2,0,0,0-.47-1.29c-.55-.31-1,.21-1.38.5a5.22,5.22,0,0,0-1.79,2.52,1.85,1.85,0,0,0-.14,1.11.56.56,0,0,0,.82.25,5.46,5.46,0,0,1,1.24-1.44c.47-.49,1-.95,1.48-1.39"/><path class="cls-1" d="M618.31,470.72a1.86,1.86,0,0,0-.15-1.67"/><path class="cls-1" d="M619.43,470.22a2.07,2.07,0,0,0-.56-1.39"/><path class="cls-1" d="M620.85,467.29c.58.3.27,1.11,0,1.52s-.41.85-.63,1.29a5,5,0,0,1-1.22,1.46,1.5,1.5,0,0,1-1.52.21,1.86,1.86,0,0,1-.53-.19"/><path class="cls-1" d="M617.67,476.77c.26-1,.6-2.09.8-3.16.07-.4.4-1.18.15-1.56"/><path class="cls-1" d="M619.12,471.55c-.15.23-.42.48-.37.77"/><path class="cls-1" d="M459.3,694.31c-.31-.68-.54-1.38-.87-2a10.57,10.57,0,0,1-1-2.06,2.4,2.4,0,0,1,.72-1.91c.19-.2.35-.32.53-.51s.44-.59.7-.86.75-.56,1.08-.92a7.83,7.83,0,0,1,1.12-1.11c.33-.23,1.48-.56,1.45-1-.06-1-1.34-1-2.1-.86a9,9,0,0,0-2.5,1.51c-.46.29-.87.44-1.27-.06a3.12,3.12,0,0,1-.49-1.64,38,38,0,0,0-.68-3.74c-.1-.48-.52-2.39-1.23-2.27s-.65,1.45-.62,1.91a19.67,19.67,0,0,0,.49,2.52,1.94,1.94,0,0,1,.07,1.09c-.16.41-.5.8-.68,1.2"/><path class="cls-1" d="M455,689.33a5,5,0,0,1,.61.31,1.61,1.61,0,0,0,.65.1"/><path class="cls-1" d="M451.85,685.13a.87.87,0,0,0-1.08,1.16c.12.26.43.37.68.49a3.59,3.59,0,0,1,.65.45,12.13,12.13,0,0,0,1,.92c.25.16,1.42.34,1.3-.24"/><path class="cls-1" d="M452.72,683.31a1.33,1.33,0,0,0-.1-.62c-.25-.52-.67-.93-1-1.45-.4-.68-.85-1.31-1.25-2-.19-.32-.33-.67-.49-1-.35-.75.1-1.42.89-.93a4,4,0,0,1,1.14,1.47c.29.49.74.89,1,1.38a8.5,8.5,0,0,0,.78,1.17c.25.33.5,1.06,1,.95"/><path class="cls-1" d="M452,685l-.15-.07a1.19,1.19,0,0,1,.47-1.29c.55-.31,1,.21,1.38.5a5.28,5.28,0,0,1,1.79,2.52,1.93,1.93,0,0,1,.14,1.11.56.56,0,0,1-.82.25,5.46,5.46,0,0,0-1.24-1.44c-.47-.49-1-1-1.48-1.39"/><path class="cls-1" d="M453.61,690.11a1.86,1.86,0,0,1,.16-1.67"/><path class="cls-1" d="M452.5,689.61a2.07,2.07,0,0,1,.56-1.39"/><path class="cls-1" d="M451.08,686.68c-.58.3-.27,1.11,0,1.52s.41.84.63,1.29a5,5,0,0,0,1.22,1.46,1.5,1.5,0,0,0,1.52.21,2,2,0,0,0,.53-.19"/><path class="cls-1" d="M454.26,696.16c-.26-1-.6-2.09-.8-3.16-.08-.4-.4-1.18-.15-1.57"/><path class="cls-1" d="M452.81,690.94c.15.23.41.48.37.77"/><path class="cls-1" d="M761,590.37c-.31.68-.54,1.38-.87,2a10.57,10.57,0,0,0-1,2.06,2.43,2.43,0,0,0,.72,1.91c.19.2.36.32.53.51s.44.59.7.85.76.57,1.09.93a6.48,6.48,0,0,0,1.12,1.1c.32.24,1.47.57,1.45,1-.06,1-1.35,1.05-2.1.86a9.07,9.07,0,0,1-2.51-1.51c-.46-.29-.86-.44-1.27.06a3.12,3.12,0,0,0-.49,1.64,35.22,35.22,0,0,1-.68,3.74c-.1.48-.52,2.39-1.23,2.27s-.65-1.45-.62-1.91a22.14,22.14,0,0,1,.49-2.53,1.9,1.9,0,0,0,.07-1.08c-.15-.41-.5-.8-.68-1.2"/><path class="cls-1" d="M756.78,595.34a3.45,3.45,0,0,0,.61-.3,1.61,1.61,0,0,1,.65-.1"/><path class="cls-1" d="M753.6,599.54c-.67.21-1.44-.45-1.09-1.15.13-.26.44-.37.68-.49a3.59,3.59,0,0,0,.65-.45c.35-.27.63-.7,1-.93s1.42-.33,1.3.25"/><path class="cls-1" d="M754.46,601.37a1.33,1.33,0,0,1-.1.62c-.25.52-.67.93-1,1.45-.4.68-.84,1.31-1.24,2-.19.32-.34.67-.5,1-.35.75.1,1.42.89.93a4,4,0,0,0,1.14-1.47c.29-.49.74-.89,1-1.38a8.56,8.56,0,0,1,.79-1.17c.24-.33.49-1.06.95-1"/><path class="cls-1" d="M753.69,599.67l-.15.07A1.2,1.2,0,0,0,754,601c.55.31,1-.21,1.38-.5a5.3,5.3,0,0,0,1.8-2.52,2,2,0,0,0,.14-1.11.58.58,0,0,0-.83-.25,5.46,5.46,0,0,1-1.24,1.44c-.47.49-1,.95-1.48,1.39"/><path class="cls-1" d="M755.36,594.57a1.86,1.86,0,0,0,.15,1.67"/><path class="cls-1" d="M754.25,595.07a2,2,0,0,0,.55,1.39"/><path class="cls-1" d="M752.82,598c-.58-.3-.27-1.11,0-1.52s.4-.85.62-1.29a5,5,0,0,1,1.22-1.46,1.5,1.5,0,0,1,1.52-.21,1.86,1.86,0,0,1,.53.19"/><path class="cls-1" d="M756,588.52c-.27,1.05-.61,2.09-.81,3.16-.07.4-.4,1.18-.15,1.56"/><path class="cls-1" d="M754.55,593.74c.15-.23.42-.48.37-.77"/><path class="cls-1" d="M571.34,654.6v-1.4c0-1.57-1.33-2.57-2.06-3.89-.36-.66-.7-1.34-1-2-.22-.5-.31-1.06-.55-1.55s-.55-.77-.77-1.17-.14-.4.3-.51a1.17,1.17,0,0,1,1,.23c.42.31.44,1,.67,1.4.69,1.28,1.27.29,1.35-.6a17.75,17.75,0,0,1,.05-2.53,9.24,9.24,0,0,0,.21-2c0-.52-.17-1.61.53-1.56.91.06.58,1.94.58,2.59,0,1,0,2.08,0,3.13"/><path class="cls-1" d="M571.51,648.3c.61,0,.8.6,1.07,1"/><path class="cls-1" d="M573.24,645a37.29,37.29,0,0,0,.24-4.37c0-.7.28-3-.9-2.13-.11.43-.42.87-.55,1.31a7.25,7.25,0,0,0-.07,1.86,12.23,12.23,0,0,1-.29,2.09"/><path class="cls-1" d="M574.84,645.17c0-1,.37-2,.37-3a10.83,10.83,0,0,0,.09-1.26c0-.34-.09-.74-.14-1-.08-.47-.25-1.2-.76-.57a2.67,2.67,0,0,0-.38,1.35c-.15,1.42-.57,3-.78,4.33"/><path class="cls-1" d="M575,644.27a12.41,12.41,0,0,1,.78-2.52c.12-.44.75-1.14.92-.39a6.78,6.78,0,0,1-.14,1.34,9.26,9.26,0,0,1-.33,2.35c-.34,1.39-.53,2.88-.74,4.32-.16,1.14-.77,2.07-.82,3.21,0,.61,0,1.22,0,1.82a5.43,5.43,0,0,0,0,1,2.91,2.91,0,0,0,.16,1"/><path class="cls-1" d="M581.68,799.25c-.59,0-.91,1.08-1.37,1.35a3.13,3.13,0,0,1-2.42.13c-.59-.23-1.14-.48-1.72-.71a3.09,3.09,0,0,0-1.74-.4,1.05,1.05,0,0,0-.7,1.44c.24.58,1.3.78,1.85.86a4.81,4.81,0,0,1,3.39,2.31,1.93,1.93,0,0,0,1,.91,4.16,4.16,0,0,0,1.89,0"/><path class="cls-1" d="M584.31,798.1a9.57,9.57,0,0,1,.37-3,11.45,11.45,0,0,0,.37-2.32c0-.44-.14-1.64-.83-1a4.55,4.55,0,0,0-.82,2,19.18,19.18,0,0,0-.28,2.31c0,.42-.2,2.07-1,1.51-.47-.33-.27-1.43-.17-1.88a7.57,7.57,0,0,0-.05-2c0-.36,0-.72,0-1.07s-.23-.52-.42-.82c-1.5-.34-1.1,5.26-1.1,5.92s.13,1.27.16,1.9c0,.23,0,.47,0,.7"/><path class="cls-1" d="M586.62,801.39a9,9,0,0,0,1.87-2.58c.24-.45.73-.67,1-1.13s-.15-1.22-.73-1.07-1,.86-1.32,1.23c-.48.54-1,1.06-1.48,1.6a6.63,6.63,0,0,1,.65-2.79c.21-.52.33-1.06.49-1.57s.75-2.2-.32-1.88c-.34.1-.71,1-.9,1.36a12.44,12.44,0,0,1-1.45,2.59"/><path class="cls-1" d="M582.62,800.4c.64.59.54,1.45.54,2.31"/><path class="cls-1" d="M586.66,801.31a2.85,2.85,0,0,0-.33,1.43,3.12,3.12,0,0,1-.5,1.35c-.42.64-1.33,1.8-2.14.84"/><path class="cls-1" d="M584.76,810.53c0-.51-.28-.88-.32-1.37,0-.69.08-1.42.11-2.11,0-.33.22-.94.05-1.24s-.42-.27-.63-.43a4.44,4.44,0,0,1-.6-.7"/><path class="cls-1" d="M583.24,806.54a1.18,1.18,0,0,1,1.24.24"/><path class="cls-1" d="M579.7,805.34c.31,1.57-.73,3-1,4.53"/><path class="cls-1" d="M585,805.14c-.34.19-.25.59-.33.82"/><path class="cls-1" d="M753.24,797.09a36.64,36.64,0,0,0,1.64-3.86,2.73,2.73,0,0,0,.28-1c0-.23,0-.75-.13-.92-.35-.36-1,1.05-1.18,1.36a17.63,17.63,0,0,0-1.71,3.42c-.12.09-.21.26-.34.35a3.72,3.72,0,0,1-.37-2.26c0-.88-.08-1.77,0-2.66,0-.66-.21-1.27-1-1.23-.62,0-.64.73-.68,1.26-.1,1.3-.11,2.58-.11,3.9v.72"/><path class="cls-1" d="M750,800.07a.5.5,0,0,1,0-.27s.06,0,.09,0c.25-.35.57-.64.55-1.12"/><path class="cls-1" d="M747.77,808a6.06,6.06,0,0,1,.31-1.41c.09-.39.17-.8.24-1.21a4.16,4.16,0,0,0,0-1.27c-.1-.68-.39-1.31-.48-2a8.37,8.37,0,0,1,.07-2.29,2.74,2.74,0,0,1,.84-1.47c.2-.22.39-.48.58-.71s.26-.54.44-.63c.45-.24,1.14.17,1.58.22s1.88.35,1.12,1.16c-.23.24-1.54.84-1.7.27"/><path class="cls-1" d="M751.81,804.24a11.45,11.45,0,0,0-.48-4.27"/><path class="cls-1" d="M752.73,801.33c.66.21.38,1,.55,1.47"/><path class="cls-1" d="M749.58,791.28c-.31-.48-.88-.31-1.17.13a4,4,0,0,0-.36,2c0,1.44-.07,2.87-.07,4.29v.37"/><path class="cls-1" d="M754.81,793.54a.41.41,0,0,1,.61.11,1.41,1.41,0,0,1,.15.88c-.05.39-.19.78-.24,1.16s0,.67,0,1c-.11.69-.46,1.28-.61,1.94a8.29,8.29,0,0,0-.14,1.88V803a2.07,2.07,0,0,1-.46,1.35,3.61,3.61,0,0,0-.67,1.73c0,.94,0,1.89,0,2.84"/></g></svg>