<svg xmlns="http://www.w3.org/2000/svg" viewBox="0 0 850.39 850.39"><defs><style>.cls-1{fill:#1d1d1b;}</style></defs><g id="Capa_2" data-name="Capa 2"><path class="cls-1" d="M162.54,101.84c3.67.63,10.57,2.24,13.94,0,3.77-2.5,3-9.13,1.4-12.62-2.92-6.37-6.72-9.47-13.32-12-4.76-1.8-10.88-4.45-14.55-8-3.82-3.76-4.91-9-7.65-13.45a26.41,26.41,0,0,0-9.92-9.14C127.22,43.59,118,39.47,112,42c-6.18,2.57-10.94,10.28-12.31,16.48-.75,3.42-.34,8.07,1.69,10.84s5.1,4.37,7.3,7c5.1,6.14,10.55,12.08,15.82,18.24,2.32,2.72,3.64,6.22,6.08,8.78a45.55,45.55,0,0,0,9,7.15c2.88,1.68,6.17,3.26,9.64,2.35,4.48-1.18,2-5.78,3-9C153.43,99.58,159.5,101.32,162.54,101.84Z"/><path class="cls-1" d="M229.52,132.77c3.69.07,9.08,2,12-1.38,2.22-2.63,1.3-6.2-1.38-8.26-6-4.63-7.61-5.16-5.44-12.63,1.56-5.38,2.09-10.31-3.41-13.5a18.08,18.08,0,0,0-9.93-2.68c-5.68.32-10.12,4.93-15,7.3a10.25,10.25,0,0,1-7.29.68c-5.34-1.27-12.59-3.86-17.32.47-3.78,3.47-3.48,8.29-4.21,12.89-.48,3-2.73,5.18-3.88,7.93-.92,2.17.23,4.62-.47,6.84-.8,2.53-2.39,3.17-4.61,4.45-3,1.71-6.48,3.45-7.93,6.52a7.69,7.69,0,0,0,2,9.07c5.55,4.78,14.34,2.52,20.06,6.83,3,2.27,3.47,4,7.72,4,4.46,0,7.7-3,11.29-5.31,4.05-2.59,8.14-3.17,12.43-5.2,3.92-1.86,6.43-6.08,8.49-9.88C224.27,138,225.34,132.69,229.52,132.77Z"/><path class="cls-1" d="M415.55,26.88c3.95,1.22,5.74,4.73,9.09,6.78,1.46.89,3,1.62,4.53,2.39.8.4,4,1.55,4.31,2.4.89,2.72-1.83,3.75-2.33,6.15-.61,2.94.39,5.21-1.58,7.66a24.73,24.73,0,0,0-4.41,7c-1,2.87-.81,6.12-1.73,9-.6,1.84-1.73,4.62-3.51,5.66-4.48,2.61-11.56,1.94-16.08-.2A33.77,33.77,0,0,1,398,69.9c-1.8-1.34-3.92-2.33-5.75-3.71-4.66-3.52-7.76-9.3-8.79-15.13-.61-3.46-1.62-6.71-1.62-10.28,0-2.9,1.25-5,2.71-7.37,2.78-4.42,9.79-8.09,15.26-6.3,2.21.72,3.94,2.64,6.33,2.13C409.36,28.54,411.88,25.76,415.55,26.88Z"/><path class="cls-1" d="M423.71,130.63c8.22-.7,17.81-3.38,20.91-10.29,3.31-7.36,1.34-11.75-.52-19.16-1.68-6.66-9.47-14.86-16.42-16.11-2.79-.51-6.56-.65-9.07.89-2.83,1.74-4.58,5-6.57,7.54a23.85,23.85,0,0,1-8.18,6.88c-6.35,3.5-10.95-4.27-16.7-5.34-5-.93-12.1,1.8-15.12,5.75-2.76,3.61-3.06,8.35-2.83,12.71.22,4-.66,8.61-.06,12.52,1.17,7.61,10.56,18.44,19,14.52,4.95-2.31,8-7.91,13.09-9.8,4.87-1.81,10.35-.22,15.33,0A52.05,52.05,0,0,0,423.71,130.63Z"/><path class="cls-1" d="M235.89,155.36c-6.56,0-13.12,5.54-17.6,10.13-5.26,5.39-10.07,9-17.72,8-6.22-.82-10.25-.59-11.95,6.49-1.49,6.19,2,13.43,6.63,17.47,4.84,4.26,11,7.25,17,9.62,5,2,11.8,2.66,17.16,1,7.12-2.23,11.48-7.35,15.65-13.25,5.74-2,10.36-7.6,9.2-13.9-.68-3.74-2.87-4.71-5.2-7.11s-3.08-5.83-3.83-9C244.08,160,241.35,155.36,235.89,155.36Z"/><path class="cls-1" d="M148.73,217.7c5.4-2.63,12.45-4.76,15.68-10.19,2.65-4.47,7.67-9.51,8.82-14.73,1.26-5.72-.52-12.43-5.41-16-6-4.31-13.8-3.56-19.68.52-6.23,4.32-11.56,8.93-18.25,12.64-5.49,3-15.85,3.83-18.94,9.81s2.26,5.33,5.42,7.89c1.35,1.09,1.64,3.06,2.13,4.81a15.56,15.56,0,0,0,2,4.59c5.27,1.3,10.73-4.19,15.69-1.92,2.2,1,3,3,5.37,3.55A11.51,11.51,0,0,0,148.73,217.7Z"/><path class="cls-1" d="M424.74,208.38c-1.28,1.41-.33,3.47-.62,5.12a10.46,10.46,0,0,1-2.64,5,14.1,14.1,0,0,1-6.1,4.32c-3.62,1.41-7.34,2.37-10.84,4.13s-7,5-11.06,5.36c-6,.55-6.4-3.59-9.52-7.08-2.83-3.16-7.14-4.93-9.32-8.69-4.21-7.26-.57-14.86-2-22.38-1-5.6-3.4-11,.15-16.19,2.71-4,7.34-5.11,11.82-6.19,7.29-1.76,11.69-5.34,16.89-10.39,5-4.91,12-10.24,19.24-6.29,3.46,1.88,4.07,7.44,4.22,11,.1,2.56-.39,4.8.94,6.93,2.82,4.52,10.19,2.87,12.22,8,2.58,6.46-2.56,10.27-7.24,12.78-2,1-4.87,3.36-4.12,6.15.53,2,3.61,3.39,2.62,5.92C428.64,207.82,425.85,207.16,424.74,208.38Z"/><path class="cls-1" d="M213.17,243.79c-1.13-5.34-4.28-10.85-7.16-15.37s-4.46-9.84-9.21-12.93a50.94,50.94,0,0,0-6.45-3.62c-3.46-1.59-10.73-4.72-14.18-2.37-3.89,2.64-5.61,8.71-9.44,12-3.5,3-8.69,5.82-9.39,10.49-.54,3.55,2.09,7.24,1.17,10.61-1.08,3.94-6,6-5.3,11,1.09,7.16,11.08,9.38,17.18,7.9,6.89-1.67,12.59-5,19.87-3.36,5.45,1.22,9.48,4.63,15.07,1.79C213,255.93,214.47,250,213.17,243.79Z"/><path class="cls-1" d="M258.83,247.36a17.19,17.19,0,0,1-6-4.34c-6.67-8.78-3.15-22.73-18.75-15.88-4.91,2.16-6.06,5.83-6.3,10.9-.39,8.13-.61,12-4.67,19.38s-6,38.33,8.38,35.7c7.88-1.45,8.31-9.2,13.12-14.37h0c6.69-7.15,22.84-4.54,27.35-13C278,254.37,266.89,251.44,258.83,247.36Z"/><path class="cls-1" d="M428.59,649.43a17.08,17.08,0,0,1-6-4.35c-6.67-8.77-3.15-22.72-18.75-15.87-4.91,2.16-6.06,5.83-6.3,10.9-.39,8.13-.6,12-4.67,19.38s-6,38.33,8.38,35.69c7.88-1.44,8.31-9.19,13.13-14.36h0c6.69-7.16,22.84-4.54,27.35-13C447.76,656.44,436.65,653.51,428.59,649.43Z"/><path class="cls-1" d="M298.92,173.75a10.37,10.37,0,0,0,5.2,2.6c6,.74,9.66-3.2,15.11-4,2.79-.43,5.28,0,6-3.67.76-4.14-2.48-5.1-4.54-7.35a30.46,30.46,0,0,1-5.65-8.16c-1.4-2.84-3.88-4.51-6.19-6.52-1.92-1.67-2.91-3.48-4.57-5.3-4.2-4.62-10.79-7.66-16.09-10.79-7.1-4.18-17.34-9.41-26.75-6.31l-.11.52c-4.43,1.34-1.41,8.41-2.73,11.74-1.89,4.78-3,7.83,1.29,11.57,1.82,1.59,2.92,2.41,4,4.81s.24,3.64.64,6.29c.63,4.26,8.54,9.09,12.55,9.83,0,.17.07.35.11.52,5.65,2.48,9.26-.39,14.77.22C294.77,170,296.78,172,298.92,173.75Z"/><path class="cls-1" d="M263.1,205.09c.2-.24.41-.5.63-.75,4-4.59,8.91-8.31,12.84-12.93,2.37-2.79,3.8-7.33,6.39-9.72,6.87-6.32,13.21.07,19.76,3.23,1.16.56,2.84.3,4.07.68,9.68,2.93,13.23,18.38,4.36,24.28-5.82,3.87-10.74,9.48-17.11,12.48-7.27,3.41-12.29.33-19.58.69-5.55.27-11,4.43-14.82-2.26C256.87,215.88,259.92,209,263.1,205.09Z"/><path class="cls-1" d="M93.34,607.16q.3-.37.63-.75c4-4.59,8.91-8.32,12.84-12.94,2.37-2.78,3.8-7.33,6.39-9.71,6.87-6.32,13.21.06,19.76,3.23,1.16.56,2.84.3,4.07.67,9.68,2.93,13.23,18.39,4.36,24.29-5.82,3.87-10.74,9.48-17.11,12.47-7.28,3.42-12.29.33-19.58.69-5.55.28-11,4.44-14.82-2.25C87.11,618,90.16,611,93.34,607.16Z"/><path class="cls-1" d="M378.12,73.42c-1.29,4.6-6.87,6.69-8,11.33-.64,2.68,1.25,5,1,7.57-.36,3-3.39,4.48-6,5.9-5.8,3.18-11.37,7-16.66,10.23-.08.3,0,.54-.11.84-3,1.43-6,3.55-9.32,2.18-3.12-1.28-3.42-4.48-5.77-6.23-2.55-1.89-7.29-.78-10.47-.94a42.57,42.57,0,0,1-16.87-4.67c-7.87-4.29-1.76-11.6,3.71-14.87,3.2-1.91,6.73-3.18,8.74-6.22,2.66-4,.84-7.71,1.64-12.16,1-5.46,6.12-5.47,9.51-8.43,2.93-2.55,1.85-7.39,3.49-10.67,1.8-3.57,5.54-6.44,9.06-8.21,5.92-3,13.34-2.29,18,2.44,2.63,2.7,3.62,6.11,5.54,9.23,1.58,2.57,3.86,4.58,6,6.67C376.22,61.92,380.06,66.53,378.12,73.42Z"/><path class="cls-1" d="M351.06,130.39c1.08.51,2.2,1.1,3.38,1.78,9.61,5.55,18.69,24.36,10.33,34.41-6.43,7.72-22.45,9.06-26.09-1.26a87.5,87.5,0,0,0-10.74-21.49c-3.12-4.36-9.88-9.7-7.5-15.89,2.31-6,8-1.82,12.3-1.46C339.85,127.07,344.84,127.46,351.06,130.39Z"/><path class="cls-1" d="M363.53,203.9c1.47,4.87,7.39,10.27,6.33,15.75-.56,2.9-3.5,4.83-5,7.28-1.83,2.95-1.56,6.08-2.57,9.12-.49,1.48-5.18,6.63-6.87,7.29-3.06,1.2-6.57-2-8.57-3.84-2.43-2.27-4-3.78-7.72-4.46-4.48-.83-8.29-.38-11.06-4.73-3.92-6.16.57-11.4,1.12-17.65a27.38,27.38,0,0,0,0-7.18c-.39-1.8-1.51-2.86-1.54-4.73-.09-4.73,4-5.36,7.9-5.36,3.14,0,5.34,0,8.1,1.33a19.72,19.72,0,0,0,5.75,2.14c3.11.38,5.55-1.28,8.49,0,2.49,1.08,5.17,3.5,5.38,6.31"/><path class="cls-1" d="M85.4,236.91c-2.4,5.3-.19,9.84.07,15.2s-1.07,12.82,2.9,17c2.52,2.69,5.86,1.64,9.28,2.28,3.08.57,5.21,2.14,8,3,3.18,1,9.71-.93,12.28-3.42,1.83-1.79,2.13-5.63,4-8,4.48-5.55,12.55-7.84,17.39-13.21,2.49-2.75,4.53-7.13,2.59-10.72-3-5.53-13.54-4.49-14.92-10.59-3.2-2.54-4.68-3.59-8.78-2.74-3.16.66-6,2.47-9.32,2.57-5.09.16-9.17-4.22-14.29-1.36A23.42,23.42,0,0,0,85.4,236.91Z"/><path class="cls-1" d="M291.81,85c3-3.45,8.36-6.19,9.36-11a8.36,8.36,0,0,0,0-2.12c-.35-3-3-6.43-4.82-8.82-2-2.61-5.39-3.77-8.12-5.47a66.78,66.78,0,0,0-10-5.34c-6.11-2.47-14.36-3.9-20.74-1.64-7.05,2.49-14.94,6.93-19.59,12.92-3.71,4.79-5.24,12.14-1.54,17.38,1.75,2.47,3.89,3.53,6.42,5.23a16.44,16.44,0,0,1,5.89,7.12c1.12,2.94,1.56,6.18,3.59,8.76,1.84,2.32,5.91,4.32,8.71,4.86,4.11.79,8,1.39,11.73,3.1a22,22,0,0,1,3.41,2.47,10.85,10.85,0,0,0,4.66,1.47,8.19,8.19,0,0,0,7.93-3.85c1.78-3.24.3-6.86.07-10.24a46.51,46.51,0,0,1,.13-9.73C289.23,87.89,290.33,86.74,291.81,85Z"/><path class="cls-1" d="M291.8,430.69c-3,2.92-8,5.7-12.42,4.64-3.4-.82-4.26-4.1-7.1-5.67-7.1-3.93-13.21,3.67-17.87-5.66-2-3.94-3.3-9.39-4.83-13.72s-2.39-9.41,2.27-12.44c5.19-3.37,9.73,3.2,15.4.72,7.78-3.4,12.42-10.83,21.95-6.72,3.06,1.32,5.14,5.09,8.17,6.73,2.42,1.31,5.88,1.15,8.48,2.32s6.07,3.63,6.16,6.54c.16,5.17-6.23,6-9.45,8.5C297.51,419.8,296.19,426.34,291.8,430.69Z"/><path class="cls-1" d="M140.12,435.31c8.57-6.76,14.1-13.65,7.41-24.53-3.46-5.63-9.7-5.59-13.26-10.89s-12.22-11.91-17.5-2.74c-2.12,3.68-.06,9.93-.57,14.07-1.27,10.47-20,26-2.81,33.1,7.35,3,10.54-.78,17-3.92C133.64,438.83,137.14,437.67,140.12,435.31Z"/><path class="cls-1" d="M290.66,265a16.92,16.92,0,0,1,1.52,4.76c1.8,12.05-7.26,24.82,4.23,34.5,2.32,2,6.61,2.81,9,5.38,3.18,3.39,3.18,9.67,7.56,11.87,6,3,14-3.72,17.33-9,6.56-10.59,7.21-40.51,2.78-51.21-2.58-6.25-8.41-8.88-13.54-12.61-5.6-4.07-4.36-12.55-9.19-17.45-4.55-4.62-11.78-1.37-16.36,2.07-3.54,2.65-1.61,5.88-3.74,8.91-4.79,6.84-7.62,3.64-4.64,13.14C286.77,258.94,289.07,261.72,290.66,265Z"/><path class="cls-1" d="M397,277.44c9.42-6.26,19.77-13.75,11-24.61-3.39-4.2-10.49-3.38-15.14-2.69-4,.6-6.87,2.09-10.78-.35-4.23-2.65-4-6.71-9.56-7.55-9.17-1.4-9.58,9-14.62,14.17-10,10.25-2.37,27.87,4.71,38.29,3.72,5.47,8.65,8.27,14.64,4.15,5-3.46,6-9.82,10-14.09C389.37,282.43,393.12,280,397,277.44Z"/><path class="cls-1" d="M438.07,322.17A18.54,18.54,0,0,0,440,316c1.41-9.42-3.23-21.3-9-28.64-7.22-9.2-15.3-14.94-19-.12-1.78,7.06-.66,5.69-7.58,8.31-7.84,3-17.89,2-24.73,7.41-12,9.47,0,18.23,9.08,22.77,3.47,1.73,7.27,3,10.07,5.78,3.71,3.71,3.66,8.84,6.44,12.88,8.27,12,14.69-5.13,18.15-11.52,2.39-4.42,6.63-3.46,10.2-5.85A13.45,13.45,0,0,0,438.07,322.17Z"/><path class="cls-1" d="M381,373.47c1.54-5.5,0-12.86-.12-17.34-.2-5.68,1.58-11.74-.11-17s-6.62-8.95-10.58-12.75c-6.51-6.24-6.46-16.08-11.56-22.69-10.43-13.53-15.24,14.57-17.1,20.34-1.67,5.2-5.17,11.52-3.1,17.29,2.86,8,8.79,11.5,9.39,20.57.55,8.24-1.9,18.3,7,23.18,7.33,4,6.72-2.12,11.92-5.09,3-1.71,5.87,1.09,8.92-.12A9,9,0,0,0,381,373.47Z"/><path class="cls-1" d="M434.29,422c.41-.35.8-.67,1.17-1,4.8-3.86,6.31-7.73,5.61-13.94-1.11-9.76-14.87-12.52-14.44-21.81.16-3.61,5.05-6.22,2.6-10.28-1.64-2.71-6.09-2.25-8.64-3.52-4.33-2.15-4.7-5.61-8-8.54-11.07-9.82-16.64,4.87-19,13.12-2.83,10.12-10,12.43-18.66,17.39-3.61,8.44-2.35,9.72,3.23,17.39,3.06,4.21,3.63,9.71,9.39,12,6.69,2.65,14.63.56,21,2.83,4.59,1.64,6.3,8.23,11.81,6.29C424.76,430.42,430.45,425.22,434.29,422Z"/><path class="cls-1" d="M311.16,388.61c7,3.88,18.69,7.77,25.32,2.47,9.89-7.91-.26-18-3.19-26.13-3.18-8.88.08-18.33-9-24.32-8.31-5.49-14.78-5.5-23.08-.23-9.8,6.23-7.88,13.61-12.43,22.54-3.11,6.08-13.28,13.26-2.67,19.85,3.45,2.14,8.13.85,11.91.86,5.8,0,6.94,1.19,11.35,3.91C309.93,387.91,310.53,388.26,311.16,388.61Z"/><path class="cls-1" d="M192.13,422.81a6.12,6.12,0,0,0-.77-.38c-8.57-3.58-18.94,9.91-25.56.34-6.31-9.12-1.93-22.1,5.72-28.68,3.62-3.11,7.79-5.69,12.67-6,8.76-.63,9.53,10.5,14.55,15.33s15.22,4.73,15.81,13.13c.31,4.52-3.55,9.85-7.5,11.78C199.82,431.82,197.82,426.1,192.13,422.81Z"/><path class="cls-1" d="M133.69,386c2.73,3.65,5.88,7.6,10.73,7.29,7.58-.47,8.75-17.6,9.66-23.29,1.73-10.73-6.52-18.32-17.24-18.31-4.87,0-11,1-15.76,0-6-1.28-6.24-6.86-12.06-9-8.65-3.14-10.26,8.63-16.15,12.89-13.37,9.68,14.38,19.81,22.55,19.37,7.82-.43,11.24,2.57,15.75,7.8C132,383.76,132.82,384.89,133.69,386Z"/><path class="cls-1" d="M187.44,300.86c1,8.11-1.34,16.55,2.24,24.86,2.59,6,7.31,14.46,13.78,17,9.07,3.54,12.28-5.58,18.37-10.28s12.21-6.1,13.87-14.8c2.24-11.73-6.91-14.82-15-19.88-12-7.47-17.34-32-34.61-24.33-9.3,4.14-9,8.46-2.85,16.55A21.52,21.52,0,0,1,187.44,300.86Z"/><path class="cls-1" d="M280.24,306.15c-.73-5.63-.8-11.53-1.12-17-6-3.67-8.17-7.25-16-2.27-6.08,3.86-9.48,12.15-10.66,18.94-2.38,13.6,5.43,21.5,9.87,33.37,2.55,6.8,3.61,19.52,13.25,12.28,3.11-2.34,13.41-13.12,14.32-16.74,1.54-6.14-4.64-12.09-6.86-17.36A43,43,0,0,1,280.24,306.15Z"/><path class="cls-1" d="M120.9,667.08a16.92,16.92,0,0,1,1.52,4.76c1.79,12-7.26,24.82,4.23,34.5,2.32,2,6.61,2.81,9,5.37,3.18,3.4,3.18,9.67,7.56,11.88,6,3,14-3.72,17.32-9.05,6.57-10.59,7.22-40.52,2.79-51.22-2.58-6.25-8.41-8.87-13.55-12.6-5.6-4.07-4.35-12.56-9.18-17.46-4.56-4.61-11.78-1.37-16.36,2.07-3.54,2.66-1.61,5.89-3.74,8.92-4.8,6.84-7.62,3.64-4.64,13.14C117,661,119.31,663.79,120.9,667.08Z"/><path class="cls-1" d="M110.48,708.22c-.73-5.63-.81-11.54-1.13-17.05-6-3.67-8.17-7.26-16-2.28-6.09,3.87-9.48,12.15-10.67,19-2.37,13.6,5.44,21.49,9.88,33.37,2.55,6.8,3.61,19.52,13.25,12.28,3.11-2.34,13.41-13.12,14.32-16.74,1.54-6.14-4.64-12.09-6.86-17.36A43,43,0,0,1,110.48,708.22Z"/><path class="cls-1" d="M259,366.68c-.19-.4-.37-.8-.57-1.19-1.9-3.8-5.26-6.73-7.12-10.44-2-3.94-1.39-8.68-5.07-11.76s-11.63-2.72-15.75-.9c-.4.17-.8.36-1.2.56l-.42.23c-4.88,2.5-10.28,3.46-15.06,6.19-3.27,1.87-3.93,2.16-8.13,2.1-3.11-.05-6.37-.33-9.3.9-4.13,1.72-6.56,5.83-10.13,8.31-13.14,9.14,2.19,14.38,10.67,17.61,4.45,1.69,7.52,2.59,10.39,6.42,3.66,4.88,4.49,12,10.19,15.44,7.14,4.32,12.83-.46,17.21-5.86s5.53-5.79,12.57-7.66C258.37,383.69,264.44,378.67,259,366.68Z"/><path class="cls-1" d="M361.89,824.87a7.85,7.85,0,0,0-.77-.37c-8.57-3.59-18.94,9.91-25.56.34-6.3-9.13-1.93-22.1,5.72-28.68,3.62-3.11,7.8-5.69,12.67-6,8.76-.63,9.53,10.5,14.55,15.33s15.22,4.72,15.81,13.12c.31,4.53-3.55,9.85-7.5,11.78C369.58,833.89,367.59,828.16,361.89,824.87Z"/><path class="cls-1" d="M428.76,768.75c-.18-.4-.37-.8-.57-1.19-1.9-3.81-5.26-6.74-7.12-10.44-2-3.94-1.38-8.68-5.07-11.76s-11.63-2.73-15.75-.9c-.4.17-.8.35-1.2.56l-.42.23c-4.87,2.5-10.27,3.45-15.06,6.19-3.27,1.87-3.93,2.16-8.13,2.1-3.11,0-6.37-.33-9.3.9-4.13,1.72-6.56,5.82-10.13,8.31-13.14,9.14,2.19,14.37,10.68,17.61,4.44,1.69,7.51,2.59,10.38,6.42,3.66,4.87,4.49,12,10.19,15.43,7.14,4.33,12.83-.45,17.22-5.86S410,790.57,417,788.7C428.13,785.75,434.21,780.74,428.76,768.75Z"/><path class="cls-1" d="M174,303.65c-1-5.8-3-12.08-6.74-16-5.08-5.27-13.2-6.49-17.71-12.26-4.17-5.34-3.32-11.41-12.77-10.69-11.71.9-6.67,14.23-13.82,19.53-4,3-9.41,2-10.14,8.79-.56,5.34,4.88,9.22,4.47,14.54-.43,5.67-6.23,12.64,2,15.26,3.51,1.12,5.44-.91,8.94,1.18,4.09,2.43,5.1,7.51,8.31,10.73,4,4,8.59,6.3,11.95,11.44,2.44,3.72,4.56,10.08,9.14,11.22,11.77,2.9,6.75-11.7,12-15.81,4-3.11,6.12-.57,5.82-6.41-.17-3.18-2.27-5-3.45-7.76-3.44-8.1,3.13-11,2.63-18.49C174.53,307.29,174.33,305.5,174,303.65Z"/><path class="cls-1" d="M332.3,503.91c3.68.62,10.57,2.23,13.94,0,3.78-2.5,3-9.13,1.4-12.62-2.92-6.37-6.72-9.47-13.31-12-4.77-1.8-10.89-4.45-14.56-8.05-3.82-3.76-4.91-9-7.65-13.46a26.51,26.51,0,0,0-9.91-9.13c-5.23-3-14.48-7.15-20.44-4.67-6.18,2.58-10.94,10.29-12.3,16.49-.76,3.42-.35,8.07,1.68,10.84s5.1,4.37,7.3,7c5.1,6.14,10.55,12.07,15.82,18.24,2.32,2.71,3.64,6.22,6.08,8.78a45.51,45.51,0,0,0,9,7.14c2.88,1.69,6.17,3.27,9.64,2.36,4.48-1.18,2-5.78,3-9.05C323.19,501.65,329.26,503.39,332.3,503.91Z"/><path class="cls-1" d="M399.28,534.84c3.69.07,9.08,2,12-1.38,2.21-2.63,1.29-6.2-1.39-8.27-6-4.62-7.61-5.16-5.44-12.62,1.56-5.38,2.09-10.31-3.41-13.5a18.14,18.14,0,0,0-9.92-2.69c-5.69.32-10.13,4.93-15,7.31a10.22,10.22,0,0,1-7.3.67c-5.34-1.27-12.59-3.85-17.32.48-3.78,3.46-3.48,8.29-4.21,12.89-.48,3-2.72,5.18-3.88,7.92-.92,2.17.23,4.63-.47,6.85-.8,2.52-2.39,3.17-4.61,4.45-3,1.71-6.48,3.45-7.93,6.51a7.73,7.73,0,0,0,2,9.08c5.56,4.77,14.34,2.52,20.06,6.83,3,2.27,3.48,4,7.73,4,4.45,0,7.69-3,11.28-5.32,4-2.59,8.14-3.16,12.43-5.2,3.92-1.85,6.43-6.08,8.49-9.87C394,540,395.1,534.76,399.28,534.84Z"/><path class="cls-1" d="M245.79,429c4,1.22,5.74,4.73,9.09,6.77,1.46.89,3,1.62,4.53,2.4.8.4,4,1.55,4.31,2.39.89,2.73-1.83,3.76-2.33,6.16-.61,2.94.39,5.21-1.58,7.66a24.73,24.73,0,0,0-4.41,7c-1,2.87-.81,6.12-1.74,9-.59,1.85-1.72,4.63-3.5,5.66-4.48,2.62-11.56,1.95-16.08-.19a33.77,33.77,0,0,1-5.87-3.78c-1.8-1.35-3.92-2.33-5.75-3.71-4.66-3.52-7.76-9.3-8.79-15.13-.61-3.46-1.62-6.71-1.62-10.28,0-2.9,1.24-5,2.71-7.37,2.78-4.42,9.78-8.09,15.26-6.3,2.21.72,3.94,2.64,6.33,2.13C239.6,430.61,242.12,427.83,245.79,429Z"/><path class="cls-1" d="M254,532.7c8.21-.7,17.81-3.38,20.91-10.3,3.31-7.35,1.34-11.74-.52-19.15-1.68-6.66-9.48-14.86-16.42-16.12-2.79-.5-6.57-.64-9.07.9-2.83,1.74-4.58,5-6.57,7.54a23.85,23.85,0,0,1-8.18,6.88c-6.35,3.5-10.95-4.28-16.7-5.34-5-.93-12.1,1.8-15.13,5.75-2.76,3.61-3.05,8.35-2.82,12.71.22,4-.67,8.61-.06,12.52,1.17,7.6,10.56,18.44,19,14.51,5-2.31,8-7.9,13.09-9.79,4.87-1.82,10.34-.22,15.33,0A53.71,53.71,0,0,0,254,532.7Z"/><path class="cls-1" d="M316.29,558.91c-1-4.06-2.42-8.14-1.58-12.54,1.19-6.19,4.33-14.44-.5-19.89-5-5.64-11.21-1.82-17.23-.35-2.37.58-5,.63-7.13,2.08-2.33,1.61-2.82,4.44-5.05,6s-5.21,1.31-7.8,1.06c-4.22-.42-9.18-1.2-13.26.3-5.43,2-7.27,10.23-3.68,14.45,4.69,5.52,15.42,5.38,18.25,12.36,1.93,4.74.05,10.12,5,13.62s12.86,5.52,18.6,4.18,14.45-7.6,15.16-14A20.76,20.76,0,0,0,316.29,558.91Z"/><path class="cls-1" d="M146.53,156.84c-1-4.05-2.42-8.13-1.58-12.54,1.19-6.19,4.33-14.44-.5-19.89-5-5.64-11.21-1.82-17.23-.34-2.37.58-5,.62-7.13,2.07-2.33,1.61-2.83,4.44-5,6s-5.21,1.31-7.8,1.05c-4.22-.42-9.18-1.2-13.26.3-5.43,2-7.27,10.23-3.69,14.45,4.7,5.52,15.43,5.39,18.26,12.36,1.93,4.74,0,10.13,5,13.63s12.85,5.51,18.6,4.17,14.44-7.6,15.16-14A20.76,20.76,0,0,0,146.53,156.84Z"/><path class="cls-1" d="M405.66,557.43c-6.57,0-13.12,5.54-17.61,10.13-5.26,5.39-10.07,9-17.71,8-6.23-.82-10.26-.59-12,6.49-1.48,6.18,2.05,13.43,6.63,17.47,4.85,4.26,11,7.25,17,9.61,5,2,11.8,2.66,17.16,1,7.13-2.24,11.48-7.35,15.65-13.25,5.74-2,10.36-7.61,9.21-13.9-.69-3.75-2.88-4.72-5.21-7.11s-3.08-5.83-3.83-9C413.84,562,411.12,557.43,405.66,557.43Z"/><path class="cls-1" d="M318.49,619.77c5.4-2.63,12.45-4.76,15.68-10.19,2.65-4.47,7.67-9.51,8.82-14.74,1.26-5.71-.52-12.43-5.41-16-6-4.31-13.8-3.56-19.68.52-6.23,4.31-11.56,8.93-18.25,12.63-5.49,3.05-15.85,3.84-18.94,9.81s2.26,5.34,5.42,7.89c1.35,1.1,1.64,3.06,2.13,4.82a15.68,15.68,0,0,0,2,4.59c5.27,1.3,10.73-4.19,15.69-1.92,2.2,1,3,3,5.37,3.55A11.51,11.51,0,0,0,318.49,619.77Z"/><path class="cls-1" d="M255,610.44c-1.29,1.41-.33,3.48-.63,5.12a10.39,10.39,0,0,1-2.63,5,14.1,14.1,0,0,1-6.1,4.32c-3.62,1.41-7.34,2.37-10.84,4.12s-7,5-11.06,5.36c-6,.56-6.41-3.59-9.52-7.08-2.83-3.16-7.14-4.92-9.33-8.68-4.21-7.26-.56-14.86-2-22.38-1-5.6-3.4-11,.14-16.2,2.71-4,7.35-5.1,11.83-6.18,7.28-1.76,11.68-5.34,16.88-10.39s12-10.24,19.25-6.3c3.45,1.89,4.07,7.45,4.21,11,.11,2.56-.38,4.81,1,6.94,2.82,4.51,10.19,2.86,12.22,7.95,2.58,6.46-2.56,10.27-7.24,12.78-2,1.05-4.87,3.36-4.12,6.15.53,2,3.6,3.38,2.62,5.91C258.88,609.89,256.09,609.23,255,610.44Z"/><path class="cls-1" d="M382.93,645.86c-1.12-5.34-4.28-10.85-7.16-15.37s-4.46-9.84-9.21-12.93a50.94,50.94,0,0,0-6.45-3.62c-3.46-1.59-10.73-4.72-14.18-2.38-3.88,2.65-5.6,8.72-9.44,12-3.49,3-8.69,5.83-9.39,10.49-.53,3.56,2.1,7.25,1.17,10.62-1.08,3.94-6,5.94-5.3,11,1.09,7.16,11.08,9.38,17.18,7.9,6.89-1.67,12.59-5,19.87-3.37,5.45,1.22,9.48,4.64,15.07,1.79C382.81,658,384.23,652,382.93,645.86Z"/><path class="cls-1" d="M129.16,575.81a10.3,10.3,0,0,0,5.2,2.61c6,.74,9.66-3.2,15.1-4,2.79-.43,5.29,0,6-3.67.77-4.14-2.47-5.1-4.53-7.35a30.46,30.46,0,0,1-5.65-8.16c-1.4-2.84-3.88-4.52-6.2-6.53-1.91-1.66-2.9-3.47-4.56-5.3-4.2-4.61-10.8-7.66-16.1-10.78-7.09-4.18-17.33-9.41-26.74-6.31,0,.17-.07.35-.11.52-4.43,1.34-1.41,8.41-2.73,11.74-1.9,4.78-3,7.82,1.28,11.57,1.83,1.59,2.93,2.41,4,4.81s.25,3.63.65,6.29c.63,4.25,8.54,9.09,12.55,9.82,0,.18.07.35.11.53,5.65,2.48,9.25-.4,14.76.22C125,572.1,127,574.09,129.16,575.81Z"/><path class="cls-1" d="M208.36,475.49c-1.3,4.59-6.87,6.68-8,11.33-.64,2.68,1.25,5.05,1,7.57-.36,3-3.39,4.48-6,5.9-5.8,3.18-11.37,7-16.67,10.23-.07.29,0,.54-.1.83-3,1.44-6,3.55-9.32,2.18-3.12-1.27-3.42-4.47-5.78-6.23-2.54-1.89-7.28-.78-10.47-.93a42.52,42.52,0,0,1-16.86-4.67c-7.88-4.29-1.76-11.61,3.7-14.87,3.21-1.91,6.74-3.18,8.75-6.23,2.66-4,.84-7.7,1.64-12.15,1-5.47,6.12-5.48,9.51-8.43,2.93-2.55,1.84-7.39,3.49-10.67,1.79-3.58,5.54-6.44,9.06-8.21,5.92-3,13.34-2.3,18,2.44,2.63,2.69,3.62,6.11,5.54,9.23a35.78,35.78,0,0,0,6,6.66C206.46,464,210.3,468.6,208.36,475.49Z"/><path class="cls-1" d="M181.29,532.45c1.09.52,2.21,1.1,3.39,1.79,9.6,5.54,18.69,24.36,10.32,34.4-6.42,7.73-22.45,9.07-26.08-1.25a87.67,87.67,0,0,0-10.74-21.49c-3.12-4.36-9.88-9.7-7.5-15.89,2.31-6,8-1.82,12.3-1.46C170.09,529.14,175.08,529.52,181.29,532.45Z"/><path class="cls-1" d="M193.77,606c1.47,4.87,7.39,10.27,6.33,15.75-.56,2.9-3.5,4.83-5,7.27-1.83,3-1.56,6.09-2.57,9.13-.5,1.48-5.18,6.63-6.87,7.29-3.07,1.19-6.57-2-8.57-3.84-2.43-2.27-4-3.78-7.72-4.47-4.49-.83-8.29-.37-11.07-4.72-3.92-6.16.58-11.41,1.13-17.65a27.38,27.38,0,0,0,0-7.18c-.39-1.8-1.51-2.86-1.54-4.73-.09-4.74,4-5.36,7.9-5.36,3.14,0,5.34,0,8.1,1.33a19.88,19.88,0,0,0,5.75,2.13c3.11.39,5.55-1.27,8.49,0,2.48,1.07,5.16,3.5,5.38,6.31"/><path class="cls-1" d="M255.16,639c-2.4,5.3-.19,9.83.07,15.2s-1.07,12.82,2.9,17c2.52,2.68,5.86,1.64,9.29,2.28,3.07.57,5.21,2.14,8,3,3.18,1,9.72-.93,12.28-3.42,1.83-1.79,2.13-5.63,4-8,4.48-5.55,12.55-7.84,17.4-13.21,2.48-2.76,4.52-7.13,2.58-10.72-3-5.53-13.54-4.5-14.91-10.59-3.21-2.54-4.69-3.6-8.79-2.74-3.16.65-6,2.47-9.32,2.57-5.09.15-9.17-4.22-14.29-1.36A23.42,23.42,0,0,0,255.16,639Z"/><path class="cls-1" d="M363,427.32c5.1,17.83,33.81,8.86,36.68,21.53,1.44,6.37-6.56,13.58-7.88,19.72-1.39,6.48,1.76,13.95-7.52,15.18C370.51,485.57,360.32,473.61,351,466c-10-8.2-24.9-6.94-34.34-15.38-2.06-1.85-2.46-4.86-2.35-7.51.19-4.84,11.13-7.81,13.21-13.94,2.62-7.77,1.11-22.31,11.67-24s15.62,11.37,21.27,17.3h0a11.15,11.15,0,0,1,2.5,4.86Z"/><path class="cls-1" d="M193.2,25.26c5.1,17.83,33.82,8.85,36.68,21.52,1.45,6.38-6.56,13.58-7.87,19.72-1.39,6.48,1.76,14-7.52,15.18-13.75,1.82-23.93-10.14-33.26-17.77-10-8.21-24.9-6.94-34.34-15.39-2.06-1.85-2.46-4.86-2.35-7.51.19-4.84,11.13-7.81,13.2-13.94,2.63-7.77,1.12-22.3,11.67-24S185,14.44,190.69,20.37h0a11.21,11.21,0,0,1,2.51,4.87Z"/><path class="cls-1" d="M122.05,487.09c3-3.45,8.36-6.19,9.36-10.95a8,8,0,0,0,0-2.13c-.34-3-3-6.42-4.81-8.81-2-2.61-5.39-3.77-8.12-5.47a65.93,65.93,0,0,0-10-5.35c-6.11-2.46-14.36-3.89-20.74-1.64-7,2.49-14.94,6.93-19.59,12.93-3.71,4.79-5.24,12.14-1.54,17.38,1.75,2.47,3.89,3.53,6.42,5.23a16.44,16.44,0,0,1,5.89,7.12c1.11,2.93,1.55,6.18,3.59,8.75,1.84,2.33,5.91,4.33,8.71,4.87,4.11.79,8,1.39,11.73,3.1a20.72,20.72,0,0,1,3.41,2.47,11,11,0,0,0,4.66,1.47,8.22,8.22,0,0,0,7.93-3.85c1.78-3.24.3-6.86.07-10.24a46.51,46.51,0,0,1,.13-9.73C119.47,490,120.57,488.8,122.05,487.09Z"/><path class="cls-1" d="M122,832.76c-3,2.92-8,5.7-12.42,4.64-3.4-.82-4.26-4.1-7.1-5.67-7.11-3.94-13.21,3.67-17.87-5.66-2-4-3.3-9.39-4.83-13.73s-2.39-9.4,2.27-12.43c5.19-3.37,9.73,3.2,15.4.72,7.78-3.4,12.41-10.84,22-6.73,3.06,1.33,5.14,5.1,8.17,6.74,2.42,1.31,5.87,1.15,8.47,2.32s6.08,3.63,6.17,6.53c.16,5.18-6.23,6-9.45,8.51C127.75,821.87,126.43,828.41,122,832.76Z"/><path class="cls-1" d="M309.88,837.38c8.58-6.76,14.1-13.65,7.41-24.53-3.46-5.63-9.7-5.6-13.26-10.9s-12.21-11.9-17.5-2.74c-2.12,3.68-.06,9.94-.57,14.08-1.27,10.47-20,26-2.81,33.09,7.35,3,10.54-.77,17-3.91C303.4,840.9,306.9,839.73,309.88,837.38Z"/><path class="cls-1" d="M227.27,679.51c9.42-6.26,19.77-13.75,11-24.61-3.4-4.2-10.49-3.38-15.14-2.69-4,.6-6.87,2.09-10.78-.36-4.24-2.64-4-6.7-9.56-7.55-9.17-1.39-9.58,9-14.63,14.18-10,10.25-2.36,27.86,4.72,38.29,3.72,5.47,8.64,8.26,14.63,4.15,5-3.46,6-9.82,10-14.09C219.61,684.5,223.36,682.11,227.27,679.51Z"/><path class="cls-1" d="M268.31,724.24a18.53,18.53,0,0,0,1.94-6.22c1.41-9.41-3.23-21.29-9-28.63-7.22-9.2-15.3-14.94-19-.12-1.79,7.06-.67,5.69-7.59,8.31-7.83,3-17.88,2-24.72,7.41-12,9.47,0,18.23,9.08,22.77,3.47,1.72,7.27,3,10.07,5.78,3.71,3.71,3.66,8.84,6.44,12.88,8.27,12,14.68-5.14,18.14-11.53,2.4-4.42,6.63-3.45,10.21-5.85A13.34,13.34,0,0,0,268.31,724.24Z"/><path class="cls-1" d="M211.19,775.53c1.54-5.49,0-12.86-.12-17.33-.2-5.68,1.58-11.74-.11-17s-6.62-8.95-10.58-12.75c-6.51-6.24-6.47-16.08-11.56-22.69-10.44-13.53-15.24,14.57-17.1,20.34-1.67,5.2-5.17,11.52-3.1,17.29,2.86,8,8.78,11.5,9.39,20.57.55,8.24-1.9,18.3,7,23.18,7.32,4,6.72-2.12,11.92-5.09,3-1.71,5.87,1.08,8.92-.12A9,9,0,0,0,211.19,775.53Z"/><path class="cls-1" d="M264.53,824.06c.41-.35.8-.67,1.17-1,4.8-3.86,6.31-7.73,5.61-13.94-1.11-9.76-14.87-12.52-14.44-21.81.16-3.61,5.05-6.22,2.59-10.28-1.63-2.72-6.08-2.25-8.63-3.52-4.33-2.16-4.7-5.61-8-8.54-11.06-9.83-16.63,4.86-18.94,13.11-2.83,10.13-10,12.43-18.66,17.4-3.61,8.44-2.35,9.72,3.23,17.39,3.06,4.21,3.63,9.71,9.39,12,6.69,2.64,14.63.55,21,2.83,4.59,1.64,6.3,8.22,11.8,6.29C255,832.49,260.68,827.29,264.53,824.06Z"/><path class="cls-1" d="M141.4,790.67c7,3.88,18.69,7.78,25.32,2.48,9.88-7.92-.26-18-3.19-26.13-3.19-8.88.08-18.33-9-24.32-8.31-5.49-14.78-5.5-23.08-.23-9.8,6.22-7.89,13.61-12.44,22.53-3.1,6.09-13.27,13.27-2.66,19.86,3.45,2.14,8.13.85,11.9.85,5.81,0,6.95,1.19,11.36,3.92C140.17,790,140.76,790.32,141.4,790.67Z"/><path class="cls-1" d="M303.45,788.11c2.73,3.65,5.88,7.59,10.73,7.29,7.58-.47,8.75-17.6,9.67-23.29,1.72-10.73-6.52-18.33-17.24-18.31-4.88,0-11,1-15.77,0-6-1.28-6.23-6.87-12.06-9-8.65-3.15-10.25,8.62-16.15,12.89-13.37,9.68,14.38,19.81,22.55,19.37,7.82-.43,11.24,2.57,15.76,7.8C301.76,785.83,302.58,787,303.45,788.11Z"/><path class="cls-1" d="M357.2,702.93c1,8.11-1.34,16.55,2.24,24.86,2.6,6,7.31,14.46,13.78,17,9.08,3.54,12.28-5.57,18.37-10.27s12.21-6.1,13.87-14.81c2.24-11.73-6.91-14.81-15-19.87-12-7.47-17.34-32-34.61-24.33-9.3,4.13-9,8.46-2.85,16.55A21.48,21.48,0,0,1,357.2,702.93Z"/><path class="cls-1" d="M343.79,705.72c-1-5.8-3-12.08-6.74-16-5.08-5.27-13.2-6.48-17.7-12.25-4.17-5.35-3.32-11.41-12.78-10.69-11.7.9-6.67,14.23-13.82,19.53-4.05,3-9.41,2-10.13,8.79-.57,5.34,4.87,9.21,4.47,14.54-.44,5.66-6.23,12.64,2,15.26,3.51,1.12,5.44-.91,8.95,1.17,4.08,2.43,5.09,7.52,8.3,10.74,4,4,8.59,6.29,12,11.44,2.43,3.72,4.55,10.08,9.14,11.21,11.76,2.91,6.74-11.69,12-15.8,4-3.11,6.12-.57,5.82-6.41-.17-3.19-2.27-5-3.45-7.76-3.43-8.1,3.13-11,2.64-18.49C344.29,709.36,344.09,707.57,343.79,705.72Z"/><path class="cls-1" d="M502.06,101.84c3.68.63,10.57,2.24,13.95,0,3.77-2.5,3-9.13,1.39-12.62-2.91-6.37-6.72-9.47-13.31-12-4.76-1.8-10.89-4.45-14.55-8-3.83-3.76-4.92-9-7.66-13.45A26.46,26.46,0,0,0,472,46.61c-5.22-3-14.48-7.14-20.44-4.66-6.18,2.57-10.94,10.28-12.3,16.48-.76,3.42-.35,8.07,1.68,10.84s5.11,4.37,7.31,7c5.09,6.14,10.55,12.08,15.81,18.24,2.32,2.72,3.64,6.22,6.08,8.78a45.62,45.62,0,0,0,9,7.15c2.87,1.68,6.16,3.26,9.63,2.35,4.48-1.18,2-5.78,3-9C493,99.58,499,101.32,502.06,101.84Z"/><path class="cls-1" d="M569,132.77c3.69.07,9.08,2,12-1.38,2.21-2.63,1.29-6.2-1.39-8.26-6-4.63-7.6-5.16-5.44-12.63,1.56-5.38,2.09-10.31-3.4-13.5a18.08,18.08,0,0,0-9.93-2.68c-5.69.32-10.13,4.93-15,7.3a10.28,10.28,0,0,1-7.3.68c-5.34-1.27-12.59-3.86-17.32.47-3.78,3.47-3.48,8.29-4.21,12.89-.48,3-2.72,5.18-3.88,7.93-.91,2.17.23,4.62-.47,6.84-.8,2.53-2.39,3.17-4.61,4.45-3,1.71-6.48,3.45-7.93,6.52a7.72,7.72,0,0,0,2,9.07c5.56,4.78,14.34,2.52,20.06,6.83,3,2.27,3.48,4,7.73,4,4.45,0,7.69-3,11.28-5.31,4-2.59,8.14-3.17,12.43-5.2,3.92-1.86,6.44-6.08,8.5-9.88C563.8,138,564.86,132.69,569,132.77Z"/><path class="cls-1" d="M755.07,26.88c3.95,1.22,5.74,4.73,9.09,6.78,1.46.89,3,1.62,4.54,2.39.79.4,4,1.55,4.3,2.4.9,2.72-1.83,3.75-2.33,6.15-.6,2.94.4,5.21-1.58,7.66a25.19,25.19,0,0,0-4.41,7c-1,2.87-.8,6.12-1.73,9-.6,1.84-1.73,4.62-3.5,5.66-4.48,2.61-11.57,1.94-16.08-.2a33,33,0,0,1-5.87-3.78c-1.81-1.34-3.92-2.33-5.76-3.71A24.59,24.59,0,0,1,723,51.06c-.61-3.46-1.62-6.71-1.61-10.28,0-2.9,1.24-5,2.71-7.37,2.77-4.42,9.78-8.09,15.25-6.3,2.21.72,4,2.64,6.33,2.13C748.88,28.54,751.41,25.76,755.07,26.88Z"/><path class="cls-1" d="M763.24,130.63c8.21-.7,17.8-3.38,20.91-10.29,3.3-7.36,1.34-11.75-.53-19.16-1.68-6.66-9.47-14.86-16.42-16.11-2.79-.51-6.56-.65-9.06.89-2.84,1.74-4.59,5-6.57,7.54a23.85,23.85,0,0,1-8.18,6.88c-6.36,3.5-11-4.27-16.7-5.34-5-.93-12.11,1.8-15.13,5.75-2.76,3.61-3.06,8.35-2.83,12.71.22,4-.66,8.61-.06,12.52,1.17,7.61,10.56,18.44,19,14.52,5-2.31,8-7.91,13.09-9.8,4.87-1.81,10.35-.22,15.34,0A52.08,52.08,0,0,0,763.24,130.63Z"/><path class="cls-1" d="M575.42,155.36c-6.57,0-13.12,5.54-17.61,10.13-5.26,5.39-10.07,9-17.71,8-6.23-.82-10.26-.59-12,6.49-1.48,6.19,2.05,13.43,6.63,17.47,4.85,4.26,11,7.25,17,9.62,5,2,11.81,2.66,17.16,1,7.13-2.23,11.49-7.35,15.65-13.25,5.74-2,10.36-7.6,9.21-13.9-.69-3.74-2.88-4.71-5.21-7.11s-3.08-5.83-3.82-9C583.6,160,580.88,155.36,575.42,155.36Z"/><path class="cls-1" d="M488.25,217.7c5.4-2.63,12.46-4.76,15.68-10.19,2.65-4.47,7.68-9.51,8.83-14.73,1.25-5.72-.53-12.43-5.42-16-6-4.31-13.8-3.56-19.68.52-6.23,4.32-11.56,8.93-18.25,12.64-5.49,3-15.85,3.83-18.94,9.81s2.26,5.33,5.42,7.89c1.36,1.09,1.64,3.06,2.13,4.81a15.56,15.56,0,0,0,2,4.59c5.27,1.3,10.73-4.19,15.7-1.92,2.2,1,2.95,3,5.36,3.55A11.5,11.5,0,0,0,488.25,217.7Z"/><path class="cls-1" d="M764.27,208.38c-1.29,1.41-.34,3.47-.63,5.12a10.46,10.46,0,0,1-2.64,5,14.07,14.07,0,0,1-6.09,4.32c-3.62,1.41-7.34,2.37-10.85,4.13s-7,5-11.06,5.36c-6,.55-6.4-3.59-9.52-7.08-2.82-3.16-7.14-4.93-9.32-8.69-4.21-7.26-.57-14.86-2-22.38-1-5.6-3.39-11,.15-16.19,2.71-4,7.34-5.11,11.83-6.19,7.28-1.76,11.68-5.34,16.88-10.39s12-10.24,19.25-6.29c3.45,1.88,4.06,7.44,4.21,11,.1,2.56-.39,4.8,1,6.93,2.82,4.52,10.19,2.87,12.22,8,2.58,6.46-2.56,10.27-7.25,12.78-2,1-4.86,3.36-4.11,6.15.53,2,3.6,3.39,2.62,5.92C768.17,207.82,765.37,207.16,764.27,208.38Z"/><path class="cls-1" d="M552.69,243.79c-1.12-5.34-4.28-10.85-7.16-15.37s-4.46-9.84-9.21-12.93a50.94,50.94,0,0,0-6.45-3.62c-3.46-1.59-10.72-4.72-14.17-2.37-3.89,2.64-5.61,8.71-9.44,12-3.5,3-8.69,5.82-9.4,10.49-.53,3.55,2.1,7.24,1.17,10.61-1.07,3.94-6,6-5.29,11,1.08,7.16,11.07,9.38,17.18,7.9,6.88-1.67,12.58-5,19.86-3.36,5.45,1.22,9.48,4.63,15.08,1.79C552.57,255.93,554,250,552.69,243.79Z"/><path class="cls-1" d="M598.35,247.36a17.19,17.19,0,0,1-6-4.34c-6.66-8.78-3.15-22.73-18.75-15.88-4.91,2.16-6.06,5.83-6.3,10.9-.38,8.13-.6,12-4.67,19.38s-6,38.33,8.38,35.7c7.88-1.45,8.31-9.2,13.13-14.37h0c6.69-7.15,22.84-4.54,27.35-13C617.53,254.37,606.41,251.44,598.35,247.36Z"/><path class="cls-1" d="M768.11,649.43a17.08,17.08,0,0,1-6-4.35c-6.66-8.77-3.15-22.72-18.74-15.87-4.91,2.16-6.06,5.83-6.31,10.9-.38,8.13-.6,12-4.67,19.38s-6,38.33,8.39,35.69c7.87-1.44,8.3-9.19,13.12-14.36h0c6.68-7.16,22.84-4.54,27.35-13C787.29,656.44,776.17,653.51,768.11,649.43Z"/><path class="cls-1" d="M638.44,173.75a10.4,10.4,0,0,0,5.21,2.6c6,.74,9.66-3.2,15.1-4,2.79-.43,5.29,0,6-3.67.76-4.14-2.48-5.1-4.53-7.35a30.26,30.26,0,0,1-5.66-8.16c-1.39-2.84-3.87-4.51-6.19-6.52-1.92-1.67-2.91-3.48-4.57-5.3-4.19-4.62-10.79-7.66-16.09-10.79-7.09-4.18-17.33-9.41-26.75-6.31l-.1.52c-4.44,1.34-1.41,8.41-2.73,11.74-1.9,4.78-3,7.83,1.28,11.57,1.82,1.59,2.93,2.41,4,4.81s.25,3.64.64,6.29c.63,4.26,8.54,9.09,12.56,9.83,0,.17.07.35.1.52,5.65,2.48,9.26-.39,14.77.22C634.3,170,636.3,172,638.44,173.75Z"/><path class="cls-1" d="M602.62,205.09l.64-.75c4-4.59,8.9-8.31,12.84-12.93,2.37-2.79,3.8-7.33,6.39-9.72,6.87-6.32,13.2.07,19.75,3.23,1.16.56,2.85.3,4.07.68,9.69,2.93,13.24,18.38,4.36,24.28-5.82,3.87-10.74,9.48-17.11,12.48-7.27,3.41-12.28.33-19.57.69-5.56.27-11,4.43-14.82-2.26C596.4,215.88,599.45,209,602.62,205.09Z"/><path class="cls-1" d="M432.86,607.16c.2-.25.41-.5.64-.75,4-4.59,8.9-8.32,12.84-12.94,2.36-2.78,3.8-7.33,6.39-9.71,6.87-6.32,13.2.06,19.75,3.23,1.16.56,2.85.3,4.07.67,9.68,2.93,13.24,18.39,4.36,24.29-5.82,3.87-10.74,9.48-17.11,12.47-7.27,3.42-12.28.33-19.57.69-5.56.28-11.05,4.44-14.82-2.25C426.63,618,429.68,611,432.86,607.16Z"/><path class="cls-1" d="M717.64,73.42c-1.29,4.6-6.86,6.69-8,11.33-.64,2.68,1.24,5,1,7.57-.35,3-3.39,4.48-6,5.9-5.8,3.18-11.37,7-16.66,10.23-.08.3,0,.54-.11.84-3,1.43-6,3.55-9.31,2.18-3.13-1.28-3.42-4.48-5.78-6.23-2.54-1.89-7.28-.78-10.47-.94a42.52,42.52,0,0,1-16.86-4.67c-7.88-4.29-1.77-11.6,3.7-14.87,3.2-1.91,6.74-3.18,8.75-6.22,2.65-4,.83-7.71,1.63-12.16,1-5.46,6.13-5.47,9.52-8.43,2.93-2.55,1.84-7.39,3.49-10.67,1.79-3.57,5.54-6.44,9.05-8.21,5.92-3,13.34-2.29,18,2.44,2.63,2.7,3.62,6.11,5.54,9.23,1.58,2.57,3.86,4.58,6,6.67C715.75,61.92,719.58,66.53,717.64,73.42Z"/><path class="cls-1" d="M690.58,130.39c1.08.51,2.21,1.1,3.39,1.78,9.6,5.55,18.68,24.36,10.32,34.41-6.43,7.72-22.45,9.06-26.09-1.26a87.15,87.15,0,0,0-10.74-21.49c-3.11-4.36-9.87-9.7-7.5-15.89,2.31-6,8-1.82,12.3-1.46C679.38,127.07,684.36,127.46,690.58,130.39Z"/><path class="cls-1" d="M703.06,203.9c1.47,4.87,7.38,10.27,6.32,15.75-.56,2.9-3.5,4.83-5,7.28-1.83,2.95-1.55,6.08-2.57,9.12-.49,1.48-5.17,6.63-6.87,7.29-3.06,1.2-6.56-2-8.57-3.84-2.42-2.27-4-3.78-7.72-4.46-4.48-.83-8.29-.38-11.06-4.73-3.92-6.16.58-11.4,1.13-17.65a27.82,27.82,0,0,0-.05-7.18c-.39-1.8-1.5-2.86-1.54-4.73-.08-4.73,4-5.36,7.91-5.36,3.14,0,5.33,0,8.1,1.33a19.66,19.66,0,0,0,5.74,2.14c3.12.38,5.56-1.28,8.5,0,2.48,1.08,5.16,3.5,5.37,6.31"/><path class="cls-1" d="M424.93,236.91c-2.41,5.3-.19,9.84.07,15.2s-1.07,12.82,2.9,17c2.51,2.69,5.86,1.64,9.28,2.28,3.07.57,5.21,2.14,8,3,3.18,1,9.71-.93,12.27-3.42,1.84-1.79,2.13-5.63,4-8,4.48-5.55,12.56-7.84,17.4-13.21,2.48-2.75,4.53-7.13,2.58-10.72-3-5.53-13.54-4.49-14.91-10.59-3.21-2.54-4.69-3.59-8.79-2.74-3.16.66-6,2.47-9.32,2.57-5.08.16-9.17-4.22-14.29-1.36A23.39,23.39,0,0,0,424.93,236.91Z"/><path class="cls-1" d="M631.33,85c3-3.45,8.36-6.19,9.36-11a7.92,7.92,0,0,0,0-2.12c-.35-3-3-6.43-4.81-8.82-2-2.61-5.4-3.77-8.13-5.47a67.16,67.16,0,0,0-10-5.34c-6.12-2.47-14.36-3.9-20.74-1.64-7,2.49-14.94,6.93-19.6,12.92-3.71,4.79-5.23,12.14-1.53,17.38,1.74,2.47,3.88,3.53,6.41,5.23a16.44,16.44,0,0,1,5.89,7.12c1.12,2.94,1.56,6.18,3.59,8.76,1.84,2.32,5.91,4.32,8.71,4.86,4.12.79,8,1.39,11.74,3.1a22.44,22.44,0,0,1,3.41,2.47,10.81,10.81,0,0,0,4.65,1.47,8.18,8.18,0,0,0,7.93-3.85c1.78-3.24.31-6.86.07-10.24a47.2,47.2,0,0,1,.13-9.73C628.75,87.89,629.86,86.74,631.33,85Z"/><path class="cls-1" d="M631.32,430.69c-3,2.92-8,5.7-12.42,4.64-3.4-.82-4.26-4.1-7.09-5.67-7.11-3.93-13.22,3.67-17.87-5.66-2-3.94-3.3-9.39-4.83-13.72s-2.4-9.41,2.27-12.44c5.19-3.37,9.72,3.2,15.39.72,7.79-3.4,12.42-10.83,22-6.72,3.07,1.32,5.14,5.09,8.17,6.73,2.42,1.31,5.88,1.15,8.48,2.32s6.07,3.63,6.16,6.54c.16,5.17-6.22,6-9.45,8.5C637,419.8,635.71,426.34,631.32,430.69Z"/><path class="cls-1" d="M479.64,435.31c8.58-6.76,14.1-13.65,7.41-24.53-3.46-5.63-9.69-5.59-13.25-10.89s-12.22-11.91-17.51-2.74c-2.12,3.68-.06,9.93-.57,14.07-1.27,10.47-20.05,26-2.81,33.1,7.35,3,10.54-.78,17-3.92C473.16,438.83,476.66,437.67,479.64,435.31Z"/><path class="cls-1" d="M630.18,265a16.3,16.3,0,0,1,1.52,4.76c1.8,12.05-7.26,24.82,4.23,34.5,2.33,2,6.62,2.81,9,5.38,3.18,3.39,3.19,9.67,7.56,11.87,6,3,14-3.72,17.33-9,6.56-10.59,7.21-40.51,2.79-51.21-2.59-6.25-8.41-8.88-13.55-12.61-5.6-4.07-4.35-12.55-9.19-17.45-4.55-4.62-11.77-1.37-16.36,2.07-3.54,2.65-1.6,5.88-3.73,8.91-4.8,6.84-7.63,3.64-4.64,13.14C626.29,258.94,628.59,261.72,630.18,265Z"/><path class="cls-1" d="M736.55,277.44c9.42-6.26,19.78-13.75,11-24.61-3.4-4.2-10.5-3.38-15.15-2.69-4,.6-6.87,2.09-10.78-.35-4.23-2.65-4-6.71-9.56-7.55-9.16-1.4-9.58,9-14.62,14.17-10,10.25-2.37,27.87,4.72,38.29,3.72,5.47,8.64,8.27,14.63,4.15,5-3.46,6-9.82,10-14.09C728.9,282.43,732.64,280,736.55,277.44Z"/><path class="cls-1" d="M777.59,322.17a18.54,18.54,0,0,0,1.94-6.21c1.42-9.42-3.22-21.3-9-28.64-7.22-9.2-15.3-14.94-19-.12-1.78,7.06-.66,5.69-7.58,8.31-7.83,3-17.89,2-24.72,7.41-12,9.47,0,18.23,9.08,22.77,3.47,1.73,7.26,3,10.06,5.78,3.71,3.71,3.67,8.84,6.45,12.88,8.26,12,14.68-5.13,18.14-11.52,2.39-4.42,6.63-3.46,10.21-5.85A13.51,13.51,0,0,0,777.59,322.17Z"/><path class="cls-1" d="M720.48,373.47c1.54-5.5,0-12.86-.12-17.34-.2-5.68,1.57-11.74-.11-17s-6.63-8.95-10.59-12.75c-6.51-6.24-6.46-16.08-11.56-22.69C687.67,290.12,682.87,318.22,681,324c-1.68,5.2-5.17,11.52-3.11,17.29,2.86,8,8.79,11.5,9.4,20.57.55,8.24-1.9,18.3,6.94,23.18,7.33,4,6.73-2.12,11.92-5.09,3-1.71,5.88,1.09,8.93-.12A9,9,0,0,0,720.48,373.47Z"/><path class="cls-1" d="M773.81,422c.41-.35.81-.67,1.17-1,4.81-3.86,6.32-7.73,5.61-13.94-1.1-9.76-14.86-12.52-14.44-21.81.17-3.61,5.06-6.22,2.6-10.28-1.64-2.71-6.09-2.25-8.64-3.52-4.32-2.15-4.69-5.61-8-8.54-11.06-9.82-16.64,4.87-18.94,13.12-2.83,10.12-10,12.43-18.67,17.39-3.61,8.44-2.35,9.72,3.23,17.39,3.07,4.21,3.63,9.71,9.4,12,6.68,2.65,14.62.56,21,2.83,4.6,1.64,6.31,8.23,11.81,6.29C764.29,430.42,770,425.22,773.81,422Z"/><path class="cls-1" d="M650.68,388.61c7.06,3.88,18.7,7.77,25.32,2.47,9.89-7.91-.25-18-3.18-26.13-3.19-8.88.07-18.33-9-24.32-8.32-5.49-14.79-5.5-23.09-.23-9.8,6.23-7.88,13.61-12.43,22.54-3.1,6.08-13.28,13.26-2.66,19.85,3.44,2.14,8.12.85,11.9.86,5.8,0,7,1.19,11.36,3.91C649.45,387.91,650.05,388.26,650.68,388.61Z"/><path class="cls-1" d="M531.65,422.81a6,6,0,0,0-.76-.38c-8.58-3.58-18.95,9.91-25.57.34-6.3-9.12-1.92-22.1,5.72-28.68,3.62-3.11,7.8-5.69,12.67-6,8.76-.63,9.53,10.5,14.55,15.33s15.22,4.73,15.81,13.13c.32,4.52-3.55,9.85-7.5,11.78C539.34,431.82,537.35,426.1,531.65,422.81Z"/><path class="cls-1" d="M473.21,386c2.73,3.65,5.88,7.6,10.73,7.29,7.59-.47,8.75-17.6,9.67-23.29,1.72-10.73-6.52-18.32-17.24-18.31-4.88,0-11,1-15.77,0-6-1.28-6.23-6.86-12.06-9-8.65-3.14-10.25,8.63-16.14,12.89C419,365.32,446.77,375.45,454.94,375c7.82-.43,11.25,2.57,15.76,7.8C471.52,383.76,472.34,384.89,473.21,386Z"/><path class="cls-1" d="M527,300.86c1,8.11-1.34,16.55,2.25,24.86,2.59,6,7.3,14.46,13.78,17,9.07,3.54,12.27-5.58,18.36-10.28s12.21-6.1,13.87-14.8c2.24-11.73-6.91-14.82-15-19.88-12-7.47-17.34-32-34.6-24.33-9.31,4.14-9,8.46-2.85,16.55A21.5,21.5,0,0,1,527,300.86Z"/><path class="cls-1" d="M619.76,306.15c-.73-5.63-.8-11.53-1.12-17-6-3.67-8.17-7.25-16-2.27-6.08,3.86-9.47,12.15-10.66,18.94-2.38,13.6,5.43,21.5,9.88,33.37,2.55,6.8,3.61,19.52,13.24,12.28,3.12-2.34,13.41-13.12,14.32-16.74,1.54-6.14-4.64-12.09-6.86-17.36A43,43,0,0,1,619.76,306.15Z"/><path class="cls-1" d="M460.42,667.08a16.3,16.3,0,0,1,1.52,4.76c1.8,12-7.26,24.82,4.23,34.5,2.32,2,6.61,2.81,9,5.37,3.18,3.4,3.18,9.67,7.56,11.88,6,3,14-3.72,17.33-9.05,6.56-10.59,7.21-40.52,2.79-51.22-2.59-6.25-8.42-8.87-13.55-12.6-5.6-4.07-4.36-12.56-9.19-17.46-4.55-4.61-11.78-1.37-16.36,2.07-3.54,2.66-1.6,5.89-3.73,8.92-4.8,6.84-7.63,3.64-4.64,13.14C456.53,661,458.83,663.79,460.42,667.08Z"/><path class="cls-1" d="M450,708.22c-.73-5.63-.8-11.54-1.12-17.05-6-3.67-8.17-7.26-16-2.28-6.08,3.87-9.47,12.15-10.66,19-2.38,13.6,5.43,21.49,9.88,33.37,2.54,6.8,3.61,19.52,13.24,12.28,3.12-2.34,13.41-13.12,14.32-16.74,1.54-6.14-4.64-12.09-6.86-17.36A43,43,0,0,1,450,708.22Z"/><path class="cls-1" d="M598.52,366.68c-.18-.4-.37-.8-.57-1.19-1.9-3.8-5.26-6.73-7.12-10.44-2-3.94-1.38-8.68-5.06-11.76s-11.64-2.72-15.76-.9c-.4.17-.8.36-1.19.56l-.43.23c-4.87,2.5-10.27,3.46-15.06,6.19-3.27,1.87-3.93,2.16-8.13,2.1-3.11-.05-6.37-.33-9.3.9-4.13,1.72-6.55,5.83-10.13,8.31-13.14,9.14,2.19,14.38,10.68,17.61,4.44,1.69,7.52,2.59,10.39,6.42,3.65,4.88,4.48,12,10.18,15.44,7.14,4.32,12.83-.46,17.22-5.86s5.52-5.79,12.56-7.66C597.89,383.69,604,378.67,598.52,366.68Z"/><path class="cls-1" d="M701.41,824.87a7.66,7.66,0,0,0-.76-.37c-8.57-3.59-18.95,9.91-25.57.34-6.3-9.13-1.92-22.1,5.73-28.68,3.61-3.11,7.79-5.69,12.66-6,8.77-.63,9.53,10.5,14.55,15.33s15.22,4.72,15.81,13.12c.32,4.53-3.55,9.85-7.49,11.78C709.1,833.89,707.11,828.16,701.41,824.87Z"/><path class="cls-1" d="M768.28,768.75c-.18-.4-.37-.8-.56-1.19-1.91-3.81-5.26-6.74-7.12-10.44-2-3.94-1.39-8.68-5.07-11.76s-11.63-2.73-15.75-.9a13.08,13.08,0,0,0-1.2.56l-.43.23c-4.87,2.5-10.27,3.45-15.06,6.19-3.27,1.87-3.93,2.16-8.12,2.1-3.12,0-6.38-.33-9.31.9-4.12,1.72-6.55,5.82-10.13,8.31-13.14,9.14,2.19,14.37,10.68,17.61,4.44,1.69,7.52,2.59,10.39,6.42,3.66,4.87,4.48,12,10.18,15.43,7.14,4.33,12.83-.45,17.22-5.86s5.52-5.78,12.56-7.65C767.65,785.75,773.73,780.74,768.28,768.75Z"/><path class="cls-1" d="M513.55,303.65c-1-5.8-3-12.08-6.74-16-5.08-5.27-13.19-6.49-17.7-12.26-4.17-5.34-3.32-11.41-12.78-10.69-11.7.9-6.67,14.23-13.82,19.53-4.05,3-9.41,2-10.13,8.79-.57,5.34,4.87,9.22,4.47,14.54-.44,5.67-6.23,12.64,2,15.26,3.5,1.12,5.43-.91,8.94,1.18,4.09,2.43,5.09,7.51,8.3,10.73,4,4,8.59,6.3,12,11.44,2.43,3.72,4.55,10.08,9.14,11.22,11.76,2.9,6.74-11.7,12-15.81,4-3.11,6.12-.57,5.81-6.41-.17-3.18-2.27-5-3.45-7.76-3.43-8.1,3.13-11,2.64-18.49C514.05,307.29,513.85,305.5,513.55,303.65Z"/><path class="cls-1" d="M671.82,503.91c3.68.62,10.57,2.23,13.95,0,3.77-2.5,3-9.13,1.39-12.62-2.91-6.37-6.72-9.47-13.31-12-4.76-1.8-10.89-4.45-14.55-8.05-3.83-3.76-4.92-9-7.66-13.46a26.51,26.51,0,0,0-9.91-9.13c-5.22-3-14.48-7.15-20.44-4.67-6.18,2.58-10.94,10.29-12.3,16.49-.75,3.42-.35,8.07,1.69,10.84s5.1,4.37,7.3,7c5.09,6.14,10.55,12.07,15.82,18.24,2.31,2.71,3.63,6.22,6.07,8.78a45.86,45.86,0,0,0,9,7.14c2.87,1.69,6.17,3.27,9.63,2.36,4.48-1.18,2-5.78,3-9.05C662.72,501.65,668.79,503.39,671.82,503.91Z"/><path class="cls-1" d="M738.8,534.84c3.69.07,9.08,2,12-1.38,2.22-2.63,1.3-6.2-1.39-8.27-6-4.62-7.6-5.16-5.44-12.62,1.56-5.38,2.1-10.31-3.4-13.5a18.17,18.17,0,0,0-9.93-2.69c-5.69.32-10.13,4.93-15,7.31a10.22,10.22,0,0,1-7.3.67c-5.34-1.27-12.59-3.85-17.32.48-3.78,3.46-3.48,8.29-4.2,12.89-.48,3-2.73,5.18-3.89,7.92-.91,2.17.24,4.63-.47,6.85-.8,2.52-2.38,3.17-4.61,4.45-3,1.71-6.48,3.45-7.93,6.51a7.72,7.72,0,0,0,2,9.08c5.55,4.77,14.33,2.52,20,6.83,3,2.27,3.48,4,7.73,4,4.46,0,7.7-3,11.29-5.32,4-2.59,8.13-3.16,12.42-5.2,3.92-1.85,6.44-6.08,8.5-9.87C733.56,540,734.62,534.76,738.8,534.84Z"/><path class="cls-1" d="M585.31,429c4,1.22,5.74,4.73,9.09,6.77,1.46.89,3,1.62,4.53,2.4.8.4,4,1.55,4.31,2.39.9,2.73-1.83,3.76-2.33,6.16-.61,2.94.4,5.21-1.58,7.66a25.19,25.19,0,0,0-4.41,7c-1,2.87-.8,6.12-1.73,9-.6,1.85-1.73,4.63-3.51,5.66-4.48,2.62-11.56,1.95-16.08-.19a33.31,33.31,0,0,1-5.86-3.78c-1.81-1.35-3.92-2.33-5.76-3.71-4.66-3.52-7.76-9.3-8.79-15.13-.61-3.46-1.62-6.71-1.61-10.28,0-2.9,1.24-5,2.71-7.37,2.77-4.42,9.78-8.09,15.25-6.3,2.21.72,4,2.64,6.33,2.13C579.12,430.61,581.65,427.83,585.31,429Z"/><path class="cls-1" d="M593.47,532.7c8.22-.7,17.81-3.38,20.92-10.3,3.3-7.35,1.34-11.74-.53-19.15-1.68-6.66-9.47-14.86-16.42-16.12-2.79-.5-6.56-.64-9.06.9-2.84,1.74-4.59,5-6.58,7.54a23.73,23.73,0,0,1-8.17,6.88c-6.36,3.5-11-4.28-16.7-5.34-5-.93-12.11,1.8-15.13,5.75-2.76,3.61-3.06,8.35-2.83,12.71.22,4-.66,8.61-.06,12.52,1.17,7.6,10.56,18.44,19,14.51,5-2.31,8-7.9,13.09-9.79,4.87-1.82,10.35-.22,15.33,0A53.65,53.65,0,0,0,593.47,532.7Z"/><path class="cls-1" d="M655.81,558.91c-1-4.06-2.42-8.14-1.57-12.54,1.19-6.19,4.32-14.44-.51-19.89-5-5.64-11.2-1.82-17.22-.35-2.37.58-5,.63-7.14,2.08-2.32,1.61-2.82,4.44-5,6s-5.21,1.31-7.8,1.06c-4.21-.42-9.17-1.2-13.26.3-5.43,2-7.27,10.23-3.68,14.45,4.69,5.52,15.42,5.38,18.26,12.36,1.92,4.74,0,10.12,5,13.62s12.85,5.52,18.6,4.18,14.44-7.6,15.16-14A20.77,20.77,0,0,0,655.81,558.91Z"/><path class="cls-1" d="M486.05,156.84c-1-4.05-2.42-8.13-1.58-12.54,1.2-6.19,4.33-14.44-.5-19.89-5-5.64-11.2-1.82-17.23-.34-2.36.58-5,.62-7.13,2.07-2.32,1.61-2.82,4.44-5.05,6s-5.21,1.31-7.8,1.05c-4.22-.42-9.17-1.2-13.26.3-5.43,2-7.27,10.23-3.68,14.45,4.69,5.52,15.42,5.39,18.26,12.36,1.92,4.74,0,10.13,5,13.63s12.85,5.51,18.59,4.17,14.45-7.6,15.16-14A20.76,20.76,0,0,0,486.05,156.84Z"/><path class="cls-1" d="M745.18,557.43c-6.57,0-13.12,5.54-17.6,10.13-5.26,5.39-10.08,9-17.72,8-6.23-.82-10.25-.59-12,6.49-1.48,6.18,2.05,13.43,6.64,17.47,4.84,4.26,11,7.25,17,9.61,5,2,11.81,2.66,17.16,1,7.13-2.24,11.49-7.35,15.65-13.25,5.74-2,10.37-7.61,9.21-13.9-.69-3.75-2.88-4.72-5.2-7.11s-3.09-5.83-3.83-9C753.37,562,750.64,557.43,745.18,557.43Z"/><path class="cls-1" d="M658,619.77c5.41-2.63,12.46-4.76,15.68-10.19,2.66-4.47,7.68-9.51,8.83-14.74,1.26-5.71-.53-12.43-5.41-16-6-4.31-13.81-3.56-19.69.52-6.23,4.31-11.55,8.93-18.25,12.63-5.48,3.05-15.85,3.84-18.93,9.81s2.25,5.34,5.42,7.89c1.35,1.1,1.63,3.06,2.12,4.82a15.94,15.94,0,0,0,2,4.59c5.27,1.3,10.73-4.19,15.7-1.92,2.2,1,3,3,5.37,3.55A11.48,11.48,0,0,0,658,619.77Z"/><path class="cls-1" d="M594.51,610.44c-1.29,1.41-.34,3.48-.63,5.12a10.49,10.49,0,0,1-2.64,5,14,14,0,0,1-6.1,4.32c-3.61,1.41-7.34,2.37-10.84,4.12s-7,5-11.06,5.36c-6,.56-6.4-3.59-9.52-7.08-2.83-3.16-7.14-4.92-9.32-8.68-4.21-7.26-.57-14.86-2-22.38-1-5.6-3.4-11,.15-16.2,2.71-4,7.34-5.1,11.82-6.18,7.29-1.76,11.69-5.34,16.89-10.39s12-10.24,19.24-6.3c3.46,1.89,4.07,7.45,4.22,11,.1,2.56-.39,4.81.94,6.94,2.83,4.51,10.19,2.86,12.23,7.95,2.58,6.46-2.56,10.27-7.25,12.78-2,1.05-4.86,3.36-4.12,6.15.53,2,3.61,3.38,2.63,5.91C598.41,609.89,595.61,609.23,594.51,610.44Z"/><path class="cls-1" d="M722.45,645.86c-1.12-5.34-4.27-10.85-7.15-15.37s-4.46-9.84-9.21-12.93a51.06,51.06,0,0,0-6.46-3.62c-3.46-1.59-10.72-4.72-14.17-2.38-3.89,2.65-5.61,8.72-9.44,12-3.5,3-8.69,5.83-9.39,10.49-.54,3.56,2.09,7.25,1.17,10.62-1.08,3.94-6.06,5.94-5.3,11,1.08,7.16,11.07,9.38,17.18,7.9,6.88-1.67,12.59-5,19.87-3.37,5.45,1.22,9.48,4.64,15.07,1.79C722.33,658,723.75,652,722.45,645.86Z"/><path class="cls-1" d="M468.68,575.81a10.34,10.34,0,0,0,5.2,2.61c6,.74,9.67-3.2,15.11-4,2.79-.43,5.29,0,6-3.67.76-4.14-2.48-5.1-4.53-7.35a30.26,30.26,0,0,1-5.66-8.16c-1.4-2.84-3.87-4.52-6.19-6.53-1.92-1.66-2.91-3.47-4.57-5.3-4.2-4.61-10.79-7.66-16.09-10.78-7.09-4.18-17.33-9.41-26.75-6.31l-.11.52c-4.43,1.34-1.4,8.41-2.73,11.74-1.89,4.78-3,7.82,1.29,11.57,1.82,1.59,2.93,2.41,4,4.81s.25,3.63.64,6.29c.63,4.25,8.54,9.09,12.55,9.82,0,.18.07.35.11.53,5.65,2.48,9.26-.4,14.77.22C464.54,572.1,466.54,574.09,468.68,575.81Z"/><path class="cls-1" d="M547.88,475.49c-1.29,4.59-6.86,6.68-8,11.33-.64,2.68,1.24,5.05,1,7.57-.35,3-3.39,4.48-6,5.9-5.8,3.18-11.37,7-16.66,10.23-.08.29,0,.54-.11.83-3,1.44-6,3.55-9.32,2.18-3.12-1.27-3.41-4.47-5.77-6.23-2.54-1.89-7.28-.78-10.47-.93a42.61,42.61,0,0,1-16.87-4.67c-7.87-4.29-1.76-11.61,3.71-14.87,3.2-1.91,6.74-3.18,8.74-6.23,2.66-4,.84-7.7,1.64-12.15,1-5.47,6.13-5.48,9.51-8.43,2.94-2.55,1.85-7.39,3.49-10.67,1.8-3.58,5.55-6.44,9.06-8.21,5.92-3,13.34-2.3,18,2.44,2.63,2.69,3.62,6.11,5.54,9.23,1.58,2.57,3.86,4.58,6,6.66C546,464,549.82,468.6,547.88,475.49Z"/><path class="cls-1" d="M520.82,532.45c1.08.52,2.21,1.1,3.39,1.79,9.6,5.54,18.68,24.36,10.32,34.4-6.43,7.73-22.45,9.07-26.09-1.25A87,87,0,0,0,497.7,545.9c-3.12-4.36-9.88-9.7-7.5-15.89,2.31-6,8-1.82,12.3-1.46C509.62,529.14,514.6,529.52,520.82,532.45Z"/><path class="cls-1" d="M533.29,606c1.48,4.87,7.39,10.27,6.33,15.75-.56,2.9-3.5,4.83-5,7.27-1.83,3-1.55,6.09-2.57,9.13-.49,1.48-5.18,6.63-6.87,7.29-3.06,1.19-6.56-2-8.57-3.84-2.42-2.27-4-3.78-7.72-4.47-4.48-.83-8.29-.37-11.06-4.72-3.92-6.16.58-11.41,1.12-17.65a27.38,27.38,0,0,0,0-7.18c-.39-1.8-1.5-2.86-1.54-4.73-.09-4.74,4-5.36,7.9-5.36,3.15,0,5.34,0,8.11,1.33a19.93,19.93,0,0,0,5.74,2.13c3.11.39,5.56-1.27,8.49,0,2.49,1.07,5.17,3.5,5.38,6.31"/><path class="cls-1" d="M594.69,639c-2.4,5.3-.19,9.83.07,15.2s-1.07,12.82,2.9,17c2.52,2.68,5.86,1.64,9.28,2.28,3.07.57,5.21,2.14,8,3,3.18,1,9.71-.93,12.27-3.42,1.84-1.79,2.13-5.63,4-8,4.48-5.55,12.56-7.84,17.4-13.21,2.48-2.76,4.53-7.13,2.59-10.72-3-5.53-13.55-4.5-14.92-10.59-3.21-2.54-4.69-3.6-8.79-2.74-3.16.65-6,2.47-9.32,2.57-5.08.15-9.17-4.22-14.29-1.36A23.34,23.34,0,0,0,594.69,639Z"/><path class="cls-1" d="M702.49,427.32c5.1,17.83,33.81,8.86,36.68,21.53,1.44,6.37-6.56,13.58-7.88,19.72-1.38,6.48,1.77,13.95-7.52,15.18C710,485.57,699.85,473.61,690.52,466c-10-8.2-24.91-6.94-34.34-15.38-2.06-1.85-2.46-4.86-2.36-7.51.2-4.84,11.14-7.81,13.21-13.94,2.63-7.77,1.12-22.31,11.67-24s15.62,11.37,21.27,17.3h0a11.15,11.15,0,0,1,2.5,4.86Z"/><path class="cls-1" d="M532.73,25.26c5.1,17.83,33.81,8.85,36.68,21.52,1.44,6.38-6.56,13.58-7.88,19.72-1.39,6.48,1.76,14-7.52,15.18-13.74,1.82-23.92-10.14-33.25-17.77-10-8.21-24.91-6.94-34.34-15.39-2.07-1.85-2.46-4.86-2.36-7.51.19-4.84,11.13-7.81,13.21-13.94,2.63-7.77,1.11-22.3,11.67-24s15.62,11.38,21.27,17.31h0a11.19,11.19,0,0,1,2.5,4.87Z"/><path class="cls-1" d="M461.57,487.09c3-3.45,8.36-6.19,9.36-10.95a8,8,0,0,0,0-2.13c-.35-3-3-6.42-4.82-8.81-2-2.61-5.39-3.77-8.12-5.47a66.3,66.3,0,0,0-10-5.35c-6.12-2.46-14.37-3.89-20.74-1.64-7.05,2.49-14.95,6.93-19.6,12.93-3.71,4.79-5.23,12.14-1.53,17.38,1.74,2.47,3.88,3.53,6.41,5.23a16.44,16.44,0,0,1,5.89,7.12c1.12,2.93,1.56,6.18,3.59,8.75,1.84,2.33,5.91,4.33,8.71,4.87,4.11.79,8,1.39,11.74,3.1a21.07,21.07,0,0,1,3.4,2.47,11,11,0,0,0,4.66,1.47,8.2,8.2,0,0,0,7.93-3.85c1.78-3.24.3-6.86.07-10.24a46.51,46.51,0,0,1,.13-9.73C459,490,460.1,488.8,461.57,487.09Z"/><path class="cls-1" d="M461.56,832.76c-3,2.92-8,5.7-12.42,4.64-3.4-.82-4.26-4.1-7.09-5.67-7.11-3.94-13.22,3.67-17.88-5.66-2-4-3.3-9.39-4.83-13.73s-2.39-9.4,2.27-12.43c5.19-3.37,9.73,3.2,15.4.72,7.79-3.4,12.42-10.84,21.95-6.73,3.07,1.33,5.14,5.1,8.17,6.74,2.42,1.31,5.88,1.15,8.48,2.32s6.07,3.63,6.16,6.53c.16,5.18-6.22,6-9.45,8.51C467.27,821.87,466,828.41,461.56,832.76Z"/><path class="cls-1" d="M649.41,837.38c8.57-6.76,14.09-13.65,7.41-24.53-3.47-5.63-9.7-5.6-13.26-10.9s-12.22-11.9-17.51-2.74c-2.12,3.68-.06,9.94-.56,14.08-1.28,10.47-20.06,26-2.82,33.09,7.35,3,10.54-.77,17-3.91C642.93,840.9,646.42,839.73,649.41,837.38Z"/><path class="cls-1" d="M566.79,679.51c9.42-6.26,19.77-13.75,11-24.61-3.4-4.2-10.5-3.38-15.15-2.69-4,.6-6.87,2.09-10.78-.36-4.23-2.64-4-6.7-9.56-7.55-9.17-1.39-9.58,9-14.62,14.18-10,10.25-2.37,27.86,4.72,38.29,3.71,5.47,8.64,8.26,14.63,4.15,5-3.46,6-9.82,10-14.09C559.13,684.5,562.88,682.11,566.79,679.51Z"/><path class="cls-1" d="M607.83,724.24a18.53,18.53,0,0,0,1.94-6.22c1.42-9.41-3.22-21.29-9-28.63-7.22-9.2-15.3-14.94-19-.12-1.78,7.06-.66,5.69-7.58,8.31-7.84,3-17.89,2-24.73,7.41-12,9.47,0,18.23,9.09,22.77,3.46,1.72,7.26,3,10.06,5.78,3.71,3.71,3.66,8.84,6.44,12.88,8.27,12,14.69-5.14,18.15-11.53,2.39-4.42,6.63-3.45,10.2-5.85A13.34,13.34,0,0,0,607.83,724.24Z"/><path class="cls-1" d="M550.72,775.53c1.53-5.49,0-12.86-.13-17.33-.2-5.68,1.58-11.74-.1-17s-6.63-8.95-10.59-12.75c-6.51-6.24-6.46-16.08-11.56-22.69-10.43-13.53-15.24,14.57-17.1,20.34-1.67,5.2-5.17,11.52-3.1,17.29,2.86,8,8.79,11.5,9.39,20.57.56,8.24-1.89,18.3,7,23.18,7.33,4,6.72-2.12,11.92-5.09,3-1.71,5.87,1.08,8.92-.12A9,9,0,0,0,550.72,775.53Z"/><path class="cls-1" d="M604.05,824.06c.41-.35.8-.67,1.17-1,4.81-3.86,6.31-7.73,5.61-13.94-1.1-9.76-14.87-12.52-14.44-21.81.17-3.61,5.05-6.22,2.6-10.28-1.64-2.72-6.09-2.25-8.64-3.52-4.33-2.16-4.69-5.61-8-8.54-11.07-9.83-16.64,4.86-18.94,13.11-2.84,10.13-10,12.43-18.67,17.4-3.61,8.44-2.35,9.72,3.23,17.39,3.07,4.21,3.63,9.71,9.39,12,6.69,2.64,14.63.55,21,2.83,4.6,1.64,6.3,8.22,11.81,6.29C594.52,832.49,600.21,827.29,604.05,824.06Z"/><path class="cls-1" d="M480.92,790.67c7.05,3.88,18.7,7.78,25.32,2.48,9.89-7.92-.26-18-3.19-26.13-3.18-8.88.08-18.33-9-24.32-8.31-5.49-14.78-5.5-23.08-.23-9.8,6.22-7.88,13.61-12.43,22.53-3.11,6.09-13.28,13.27-2.67,19.86,3.45,2.14,8.13.85,11.91.85,5.8,0,6.94,1.19,11.36,3.92C479.69,790,480.29,790.32,480.92,790.67Z"/><path class="cls-1" d="M643,788.11c2.74,3.65,5.89,7.59,10.73,7.29,7.59-.47,8.75-17.6,9.67-23.29,1.72-10.73-6.52-18.33-17.24-18.31-4.88,0-11,1-15.77,0-6-1.28-6.23-6.87-12.06-9-8.65-3.15-10.25,8.62-16.14,12.89-13.38,9.68,14.37,19.81,22.54,19.37,7.82-.43,11.25,2.57,15.76,7.8C641.28,785.83,642.11,787,643,788.11Z"/><path class="cls-1" d="M696.73,702.93c1,8.11-1.35,16.55,2.24,24.86,2.59,6,7.3,14.46,13.78,17,9.07,3.54,12.28-5.57,18.36-10.27s12.21-6.1,13.87-14.81c2.24-11.73-6.91-14.81-15-19.87-12-7.47-17.34-32-34.6-24.33-9.31,4.13-9,8.46-2.85,16.55A21.48,21.48,0,0,1,696.73,702.93Z"/><path class="cls-1" d="M683.31,705.72c-1-5.8-3-12.08-6.74-16-5.08-5.27-13.19-6.48-17.7-12.25-4.17-5.35-3.32-11.41-12.78-10.69-11.7.9-6.67,14.23-13.81,19.53-4.06,3-9.42,2-10.14,8.79-.57,5.34,4.88,9.21,4.47,14.54-.43,5.66-6.23,12.64,2,15.26,3.5,1.12,5.43-.91,8.94,1.17,4.09,2.43,5.09,7.52,8.3,10.74,4,4,8.59,6.29,12,11.44,2.43,3.72,4.55,10.08,9.14,11.21,11.76,2.91,6.74-11.69,12-15.8,4-3.11,6.12-.57,5.81-6.41-.17-3.19-2.27-5-3.45-7.76-3.43-8.1,3.13-11,2.64-18.49C683.81,709.36,683.61,707.57,683.31,705.72Z"/></g></svg>