<svg id="Capa_1" data-name="Capa 1" xmlns="http://www.w3.org/2000/svg" viewBox="0 0 850.39 850.39"><g id="Capa_2" data-name="Capa 2"><path d="M232.7,38.13c5.93-2.4,13.14-1.35,18.68-4.72,5.1-3.1,7.92-9.53,7.92-15.52,0-10.25-8.17-19.51-19-16.54a6.84,6.84,0,0,0-2.81,1.12c-1.05,1,1,2.32,1.5,2.77,3.6,3.28,4.72,8.27,4.72,13A15.67,15.67,0,0,1,237,31.31c-1.94,1.3-4.53,1.7-6.78,2.08-6.65,1.1-9.87,1.32-9.87,1.32l.13.09c-7.16,1.55-12.57,8.75-12.57,17.41a19,19,0,0,0,5.26,13.27c4.38,4.59,11.07,4.23,16.83,5.19,6.65,1.11,9,3.54,9,3.54L248.43,72l-1.07-2.88-7.76-1.69c-3.74-.81-8.18-.66-11.3-3.27s-4.86-7.5-4.86-11.62A15.38,15.38,0,0,1,232.7,38.13Z"/><path d="M232.7,105.92c5.93-2.4,13.14-1.34,18.68-4.72,5.1-3.1,7.92-9.53,7.92-15.52,0-9.79-6.91-17.72-15.44-17.72a14.18,14.18,0,0,0-9.37,3.63A15.4,15.4,0,0,1,243.75,86,15.67,15.67,0,0,1,237,99.1c-1.94,1.3-4.53,1.7-6.78,2.08-6.65,1.1-9.87,1.32-9.87,1.32l.13.09c-7.16,1.55-12.57,8.75-12.57,17.41a19,19,0,0,0,5.26,13.27c4.38,4.59,11.07,4.23,16.83,5.19,6.65,1.11,9,3.54,9,3.54l9.44-2.21-1.07-2.88-7.76-1.69c-3.74-.81-8.18-.66-11.3-3.27s-4.86-7.5-4.86-11.62A15.38,15.38,0,0,1,232.7,105.92Z"/><path d="M232.7,173.71c5.93-2.4,13.14-1.34,18.68-4.72,5.1-3.1,7.92-9.53,7.92-15.52,0-9.79-6.91-17.72-15.44-17.72a14.18,14.18,0,0,0-9.37,3.63,15.4,15.4,0,0,1,9.26,14.42A15.67,15.67,0,0,1,237,166.89c-1.94,1.3-4.53,1.7-6.78,2.08-6.65,1.1-9.87,1.33-9.87,1.33l.13.09c-7.16,1.54-12.57,8.74-12.57,17.4a19,19,0,0,0,5.26,13.27c4.38,4.59,11.07,4.23,16.83,5.19,6.65,1.11,9,3.54,9,3.54l9.44-2.21-1.07-2.88L239.6,203c-3.74-.81-8.18-.66-11.3-3.27s-4.86-7.5-4.86-11.62A15.38,15.38,0,0,1,232.7,173.71Z"/><path d="M232.7,241.5c5.93-2.4,13.14-1.34,18.68-4.72,5.1-3.1,7.92-9.53,7.92-15.52,0-9.79-6.91-17.72-15.44-17.72a14.14,14.14,0,0,0-9.37,3.64,15.38,15.38,0,0,1,9.26,14.41A15.67,15.67,0,0,1,237,234.68c-1.94,1.3-4.53,1.7-6.78,2.08-6.65,1.1-9.87,1.33-9.87,1.33l.13.09c-7.16,1.54-12.57,8.74-12.57,17.4a19,19,0,0,0,5.26,13.27c4.38,4.59,11.07,4.23,16.83,5.19,6.65,1.11,9,3.54,9,3.54l9.44-2.21-1.07-2.88-7.76-1.69c-3.74-.81-8.18-.66-11.3-3.27s-4.86-7.5-4.86-11.62A15.39,15.39,0,0,1,232.7,241.5Z"/><path d="M267.54,105.92c5.93-2.4,13.13-1.34,18.68-4.72,5.09-3.1,7.92-9.53,7.92-15.52,0-9.79-6.92-17.72-15.45-17.72a14.16,14.16,0,0,0-9.36,3.63A15.42,15.42,0,0,1,278.59,86a15.67,15.67,0,0,1-6.77,13.09c-1.95,1.3-4.53,1.7-6.79,2.08-6.65,1.1-9.86,1.32-9.86,1.32l.12.09c-7.15,1.55-12.56,8.75-12.56,17.41A19,19,0,0,0,248,133.27c4.37,4.59,11.06,4.23,16.83,5.19,6.65,1.11,9,3.54,9,3.54l9.44-2.21-1.07-2.88-7.76-1.69c-3.74-.81-8.19-.66-11.3-3.27s-4.86-7.5-4.86-11.62A15.38,15.38,0,0,1,267.54,105.92Z"/><path d="M267.54,173.71c5.93-2.4,13.13-1.34,18.68-4.72,5.09-3.1,7.92-9.53,7.92-15.52,0-9.79-6.92-17.72-15.45-17.72a14.16,14.16,0,0,0-9.36,3.63,15.42,15.42,0,0,1,9.26,14.42,15.67,15.67,0,0,1-6.77,13.09c-1.95,1.3-4.53,1.7-6.79,2.08-6.65,1.1-9.86,1.33-9.86,1.33l.12.09c-7.15,1.54-12.56,8.74-12.56,17.4A19,19,0,0,0,248,201.06c4.37,4.59,11.06,4.23,16.83,5.19,6.65,1.11,9,3.54,9,3.54l9.44-2.21-1.07-2.88L274.44,203c-3.74-.81-8.19-.66-11.3-3.27s-4.86-7.5-4.86-11.62A15.38,15.38,0,0,1,267.54,173.71Z"/><path d="M267.54,241.5c5.93-2.4,13.13-1.34,18.68-4.72,5.09-3.1,7.92-9.53,7.92-15.52,0-9.79-6.92-17.72-15.45-17.72a14.12,14.12,0,0,0-9.36,3.64,15.39,15.39,0,0,1,9.26,14.41,15.67,15.67,0,0,1-6.77,13.09c-1.95,1.3-4.53,1.7-6.79,2.08-6.65,1.1-9.86,1.33-9.86,1.33l.12.09c-7.15,1.54-12.56,8.74-12.56,17.4A19,19,0,0,0,248,268.85c4.37,4.59,11.06,4.23,16.83,5.19,6.65,1.11,9,3.54,9,3.54l9.44-2.21-1.07-2.88-7.76-1.69c-3.74-.81-8.19-.66-11.3-3.27s-4.86-7.5-4.86-11.62A15.39,15.39,0,0,1,267.54,241.5Z"/><path d="M232.7,309.29c5.93-2.4,13.14-1.34,18.68-4.72,5.1-3.1,7.92-9.53,7.92-15.52,0-9.79-6.91-17.72-15.44-17.72a14.14,14.14,0,0,0-9.37,3.64,15.38,15.38,0,0,1,9.26,14.41A15.67,15.67,0,0,1,237,302.47c-1.94,1.3-4.53,1.7-6.78,2.08-6.65,1.11-9.87,1.33-9.87,1.33l.13.09c-7.16,1.54-12.57,8.74-12.57,17.4a19,19,0,0,0,5.26,13.27c4.38,4.59,11.07,4.23,16.83,5.19,6.65,1.11,9,3.54,9,3.54l9.44-2.21-1.07-2.88-7.76-1.69c-3.74-.8-8.18-.66-11.3-3.27s-4.86-7.5-4.86-11.62A15.39,15.39,0,0,1,232.7,309.29Z"/><path d="M267.54,309.29c5.93-2.4,13.13-1.34,18.68-4.72,5.09-3.1,7.92-9.53,7.92-15.52,0-9.79-6.92-17.72-15.45-17.72a14.12,14.12,0,0,0-9.36,3.64,15.39,15.39,0,0,1,9.26,14.41,15.67,15.67,0,0,1-6.77,13.09c-1.95,1.3-4.53,1.7-6.79,2.08-6.65,1.11-9.86,1.33-9.86,1.33l.12.09c-7.15,1.54-12.56,8.74-12.56,17.4A19,19,0,0,0,248,336.64c4.37,4.59,11.06,4.23,16.83,5.19,6.65,1.11,9,3.54,9,3.54l9.44-2.21-1.07-2.88-7.76-1.69c-3.74-.8-8.19-.66-11.3-3.27s-4.86-7.5-4.86-11.62A15.39,15.39,0,0,1,267.54,309.29Z"/><path d="M232.7,377.08c5.93-2.4,13.14-1.34,18.68-4.72,5.1-3.1,7.92-9.53,7.92-15.52,0-9.79-6.91-17.72-15.44-17.72a14.14,14.14,0,0,0-9.37,3.64,15.38,15.38,0,0,1,9.26,14.41A15.67,15.67,0,0,1,237,370.26c-1.94,1.3-4.53,1.7-6.78,2.08-6.65,1.1-9.87,1.33-9.87,1.33l.13.09c-7.16,1.54-12.57,8.74-12.57,17.4a19,19,0,0,0,5.26,13.27c2.88,3,7,3.93,11,4.45,2.42.32,11.8.65,12.7-.54,1.13-1.47-2.09-1.76-3-2.09a16.49,16.49,0,0,1-5.54-3.29,15.9,15.9,0,0,1,4.41-25.88Z"/><path d="M288.43,410.88a14.81,14.81,0,0,0-6-3.46,19.25,19.25,0,0,0-3.69-.56,30.35,30.35,0,0,1-4.26-.48c-3.74-.8-8.19-.66-11.3-3.27s-4.86-7.5-4.86-11.62a15.39,15.39,0,0,1,9.26-14.41c5.93-2.4,13.13-1.34,18.68-4.72,5.09-3.1,7.92-9.53,7.92-15.52,0-9.79-6.92-17.72-15.45-17.72a14.12,14.12,0,0,0-9.36,3.64,15.39,15.39,0,0,1,9.26,14.41,15.67,15.67,0,0,1-6.77,13.09c-1.95,1.3-4.53,1.7-6.79,2.08-6.65,1.1-9.86,1.33-9.86,1.33l.12.09c-7.15,1.54-12.56,8.74-12.56,17.4A19,19,0,0,0,248,404.43c4.37,4.59,11.06,4.23,16.83,5.19a24.15,24.15,0,0,1,6.55,2A15.63,15.63,0,0,1,278.59,425c0,5.26-1.27,10.59-5,13.37-2.21,2.1-5.76,2-5.64,2.32.51,1.41,3.65,2.1,6.75,2.22,3.65,0,7.46-.24,11.53-2.72,5.09-3.1,7.92-9.53,7.92-15.52A18.87,18.87,0,0,0,288.43,410.88Z"/><path d="M270.15,37c-.34-1-1.66-1.56-6.64-2.77a25.26,25.26,0,0,0-8.34.47l.12.09c-7.15,1.55-12.56,8.75-12.56,17.41A19,19,0,0,0,248,65.48c4.37,4.59,11.06,4.23,16.83,5.19,6.65,1.11,9,3.54,9,3.54L283.27,72l-1.07-2.88-7.76-1.69c-3.74-.81-8.19-.66-11.3-3.27s-4.86-7.5-4.86-11.62a15.54,15.54,0,0,1,8-13.83C267.49,38,270.39,37.71,270.15,37Z"/><path d="M232.7,444.87c5.93-2.4,13.14-1.34,18.68-4.72,5.1-3.1,7.92-9.53,7.92-15.52,0-10.25-8.17-19.51-19-16.54a6.84,6.84,0,0,0-2.81,1.12c-1.05,1,1,2.33,1.5,2.78,3.6,3.27,4.72,8.26,4.72,13A15.67,15.67,0,0,1,237,438.05c-1.94,1.3-4.53,1.7-6.78,2.08-6.65,1.11-9.87,1.33-9.87,1.33l.13.09c-7.16,1.54-12.57,8.74-12.57,17.4a19,19,0,0,0,5.26,13.28c4.38,4.58,11.07,4.22,16.83,5.18,6.65,1.11,9,3.54,9,3.54l9.44-2.21-1.07-2.88-7.76-1.69c-3.74-.8-8.18-.66-11.3-3.27s-4.86-7.5-4.86-11.62A15.39,15.39,0,0,1,232.7,444.87Z"/><path d="M232.7,512.66c5.93-2.4,13.14-1.34,18.68-4.72,5.1-3.1,7.92-9.53,7.92-15.52,0-9.79-6.91-17.72-15.44-17.72a14.14,14.14,0,0,0-9.37,3.64,15.38,15.38,0,0,1,9.26,14.41A15.67,15.67,0,0,1,237,505.84c-1.94,1.3-4.53,1.7-6.78,2.08-6.65,1.11-9.87,1.33-9.87,1.33l.13.09c-7.16,1.54-12.57,8.75-12.57,17.4A19,19,0,0,0,213.15,540c4.38,4.58,11.07,4.22,16.83,5.18,6.65,1.11,9,3.55,9,3.55l9.44-2.22-1.07-2.88L239.6,542c-3.74-.8-8.18-.66-11.3-3.27s-4.86-7.5-4.86-11.62A15.39,15.39,0,0,1,232.7,512.66Z"/><path d="M232.7,580.45c5.93-2.4,13.14-1.34,18.68-4.72,5.1-3.1,7.92-9.53,7.92-15.52,0-9.78-6.91-17.72-15.44-17.72a14.14,14.14,0,0,0-9.37,3.64,15.38,15.38,0,0,1,9.26,14.41A15.67,15.67,0,0,1,237,573.63c-1.94,1.3-4.53,1.7-6.78,2.08-6.65,1.11-9.87,1.33-9.87,1.33l.13.09c-7.16,1.54-12.57,8.75-12.57,17.4a19,19,0,0,0,5.26,13.28c4.38,4.58,11.07,4.22,16.83,5.18,6.65,1.11,9,3.55,9,3.55l9.44-2.22-1.07-2.88-7.76-1.69c-3.74-.8-8.18-.66-11.3-3.27s-4.86-7.5-4.86-11.62A15.39,15.39,0,0,1,232.7,580.45Z"/><path d="M232.7,648.24c5.93-2.4,13.14-1.34,18.68-4.71,5.1-3.11,7.92-9.54,7.92-15.53,0-9.78-6.91-17.72-15.44-17.72a14.14,14.14,0,0,0-9.37,3.64,15.38,15.38,0,0,1,9.26,14.41A15.67,15.67,0,0,1,237,641.42c-1.94,1.3-4.53,1.7-6.78,2.08-6.65,1.11-9.87,1.33-9.87,1.33l.13.09c-7.16,1.55-12.57,8.75-12.57,17.4a19,19,0,0,0,5.26,13.28c4.38,4.58,11.07,4.22,16.83,5.18,6.65,1.11,9,3.55,9,3.55l9.44-2.22-1.07-2.88-7.76-1.69c-3.74-.8-8.18-.66-11.3-3.27s-4.86-7.5-4.86-11.62A15.4,15.4,0,0,1,232.7,648.24Z"/><path d="M267.54,512.66c5.93-2.4,13.13-1.34,18.68-4.72,5.09-3.1,7.92-9.53,7.92-15.52,0-9.79-6.92-17.72-15.45-17.72a14.12,14.12,0,0,0-9.36,3.64,15.39,15.39,0,0,1,9.26,14.41,15.67,15.67,0,0,1-6.77,13.09c-1.95,1.3-4.53,1.7-6.79,2.08-6.65,1.11-9.86,1.33-9.86,1.33l.12.09c-7.15,1.54-12.56,8.75-12.56,17.4A19,19,0,0,0,248,540c4.37,4.58,11.06,4.22,16.83,5.18,6.65,1.11,9,3.55,9,3.55l9.44-2.22-1.07-2.88L274.44,542c-3.74-.8-8.19-.66-11.3-3.27s-4.86-7.5-4.86-11.62A15.39,15.39,0,0,1,267.54,512.66Z"/><path d="M267.54,580.45c5.93-2.4,13.13-1.34,18.68-4.72,5.09-3.1,7.92-9.53,7.92-15.52,0-9.78-6.92-17.72-15.45-17.72a14.12,14.12,0,0,0-9.36,3.64,15.39,15.39,0,0,1,9.26,14.41,15.67,15.67,0,0,1-6.77,13.09c-1.95,1.3-4.53,1.7-6.79,2.08-6.65,1.11-9.86,1.33-9.86,1.33l.12.09c-7.15,1.54-12.56,8.75-12.56,17.4A19,19,0,0,0,248,607.81c4.37,4.58,11.06,4.22,16.83,5.18,6.65,1.11,9,3.55,9,3.55l9.44-2.22-1.07-2.88-7.76-1.69c-3.74-.8-8.19-.66-11.3-3.27s-4.86-7.5-4.86-11.62A15.39,15.39,0,0,1,267.54,580.45Z"/><path d="M267.54,648.24c5.93-2.4,13.13-1.34,18.68-4.71,5.09-3.11,7.92-9.54,7.92-15.53,0-9.78-6.92-17.72-15.45-17.72a14.12,14.12,0,0,0-9.36,3.64,15.39,15.39,0,0,1,9.26,14.41,15.67,15.67,0,0,1-6.77,13.09c-1.95,1.3-4.53,1.7-6.79,2.08-6.65,1.11-9.86,1.33-9.86,1.33l.12.09c-7.15,1.55-12.56,8.75-12.56,17.4A19,19,0,0,0,248,675.6c4.37,4.58,11.06,4.22,16.83,5.18,6.65,1.11,9,3.55,9,3.55l9.44-2.22-1.07-2.88-7.76-1.69c-3.74-.8-8.19-.66-11.3-3.27s-4.86-7.5-4.86-11.62A15.4,15.4,0,0,1,267.54,648.24Z"/><path d="M232.7,716c5.93-2.4,13.14-1.34,18.68-4.71,5.1-3.11,7.92-9.54,7.92-15.53,0-9.78-6.91-17.71-15.44-17.71a14.13,14.13,0,0,0-9.37,3.63,15.39,15.39,0,0,1,9.26,14.41A15.67,15.67,0,0,1,237,709.21c-1.94,1.3-4.53,1.7-6.78,2.08-6.65,1.11-9.87,1.33-9.87,1.33l.13.09c-7.16,1.55-12.57,8.75-12.57,17.4a19,19,0,0,0,5.26,13.28c4.38,4.58,11.07,4.22,16.83,5.18,6.65,1.11,9,3.55,9,3.55l9.44-2.22L247.36,747c-2.59-.56-5.17-1.13-7.76-1.68-3.74-.81-8.18-.67-11.3-3.28s-4.86-7.5-4.86-11.62A15.4,15.4,0,0,1,232.7,716Z"/><path d="M267.54,716c5.93-2.4,13.13-1.34,18.68-4.71,5.09-3.11,7.92-9.54,7.92-15.53,0-9.78-6.92-17.71-15.45-17.71a14.11,14.11,0,0,0-9.36,3.63,15.4,15.4,0,0,1,9.26,14.41,15.67,15.67,0,0,1-6.77,13.09c-1.95,1.3-4.53,1.7-6.79,2.08-6.65,1.11-9.86,1.33-9.86,1.33l.12.09c-7.15,1.55-12.56,8.75-12.56,17.4A19,19,0,0,0,248,743.39c4.37,4.58,11.06,4.22,16.83,5.18,6.65,1.11,9,3.55,9,3.55l9.44-2.22L282.2,747c-2.59-.56-5.17-1.13-7.76-1.68-3.74-.81-8.19-.67-11.3-3.28s-4.86-7.5-4.86-11.62A15.4,15.4,0,0,1,267.54,716Z"/><path d="M232.7,783.82c5.93-2.4,13.14-1.34,18.68-4.71,5.1-3.11,7.92-9.54,7.92-15.53,0-9.78-6.91-17.72-15.44-17.72a14.14,14.14,0,0,0-9.37,3.64,15.38,15.38,0,0,1,9.26,14.41A15.67,15.67,0,0,1,237,777c-1.94,1.3-4.53,1.7-6.78,2.08-6.65,1.11-9.87,1.33-9.87,1.33l.13.09c-7.16,1.55-12.57,8.75-12.57,17.4a19,19,0,0,0,5.26,13.28c2.88,3,7,3.92,11,4.44,2.42.32,11.8.65,12.7-.54,1.13-1.47-2.09-1.76-3-2.09a16.49,16.49,0,0,1-5.54-3.29,15.9,15.9,0,0,1,4.41-25.88Z"/><path d="M288.43,817.62a14.67,14.67,0,0,0-6-3.45,19.27,19.27,0,0,0-3.69-.57,30.34,30.34,0,0,1-4.26-.47c-3.74-.81-8.19-.67-11.3-3.28s-4.86-7.5-4.86-11.62a15.4,15.4,0,0,1,9.26-14.41c5.93-2.4,13.13-1.34,18.68-4.71,5.09-3.11,7.92-9.54,7.92-15.53,0-9.78-6.92-17.72-15.45-17.72a14.12,14.12,0,0,0-9.36,3.64,15.39,15.39,0,0,1,9.26,14.41A15.67,15.67,0,0,1,271.82,777c-1.95,1.3-4.53,1.7-6.79,2.08-6.65,1.11-9.86,1.33-9.86,1.33l.12.09c-7.15,1.55-12.56,8.75-12.56,17.4A19,19,0,0,0,248,811.18c4.37,4.58,11.06,4.22,16.83,5.18a24.15,24.15,0,0,1,6.55,2,15.63,15.63,0,0,1,7.22,13.38c0,5.26-1.27,10.59-5,13.37-2.21,2.1-5.76,2-5.64,2.32.51,1.42,3.65,2.11,6.75,2.22,3.65,0,7.46-.24,11.53-2.71,5.09-3.11,7.92-9.54,7.92-15.53A18.87,18.87,0,0,0,288.43,817.62Z"/><path d="M270.15,443.75c-.34-1-1.66-1.55-6.64-2.77a25.07,25.07,0,0,0-8.34.48l.12.09c-7.15,1.54-12.56,8.74-12.56,17.4A19,19,0,0,0,248,472.23c4.37,4.58,11.06,4.22,16.83,5.18,6.65,1.11,9,3.54,9,3.54l9.44-2.21-1.07-2.88-7.76-1.69c-3.74-.8-8.19-.66-11.3-3.27s-4.86-7.5-4.86-11.62a15.55,15.55,0,0,1,8-13.83C267.49,444.75,270.39,444.46,270.15,443.75Z"/><path d="M302.37,38.13c5.93-2.4,13.14-1.35,18.68-4.72,5.1-3.1,7.92-9.53,7.92-15.52,0-10.25-8.17-19.51-19-16.54a6.89,6.89,0,0,0-2.82,1.12c-1.05,1,1,2.32,1.51,2.77,3.6,3.28,4.71,8.27,4.71,13a15.67,15.67,0,0,1-6.76,13.09c-2,1.3-4.53,1.7-6.79,2.08-6.65,1.1-9.87,1.32-9.87,1.32l.13.09c-7.15,1.55-12.57,8.75-12.57,17.41a19,19,0,0,0,5.26,13.27c4.38,4.59,11.07,4.23,16.84,5.19,6.65,1.11,9,3.54,9,3.54L318.1,72,317,69.12l-7.75-1.69c-3.75-.81-8.19-.66-11.31-3.27s-4.86-7.5-4.86-11.62A15.38,15.38,0,0,1,302.37,38.13Z"/><path d="M302.37,105.92c5.93-2.4,13.14-1.34,18.68-4.72,5.1-3.1,7.92-9.53,7.92-15.52C329,75.89,322.06,68,313.53,68a14.2,14.2,0,0,0-9.37,3.63A15.4,15.4,0,0,1,313.42,86a15.67,15.67,0,0,1-6.76,13.09c-2,1.3-4.53,1.7-6.79,2.08-6.65,1.1-9.87,1.32-9.87,1.32l.13.09c-7.15,1.55-12.57,8.75-12.57,17.41a19,19,0,0,0,5.26,13.27c4.38,4.59,11.07,4.23,16.84,5.19,6.65,1.11,9,3.54,9,3.54l9.43-2.21L317,136.91l-7.75-1.69c-3.75-.81-8.19-.66-11.31-3.27s-4.86-7.5-4.86-11.62A15.38,15.38,0,0,1,302.37,105.92Z"/><path d="M302.37,173.71c5.93-2.4,13.14-1.34,18.68-4.72,5.1-3.1,7.92-9.53,7.92-15.52,0-9.79-6.91-17.72-15.44-17.72a14.2,14.2,0,0,0-9.37,3.63,15.4,15.4,0,0,1,9.26,14.42,15.67,15.67,0,0,1-6.76,13.09c-2,1.3-4.53,1.7-6.79,2.08-6.65,1.1-9.87,1.33-9.87,1.33l.13.09c-7.15,1.54-12.57,8.74-12.57,17.4a19,19,0,0,0,5.26,13.27c4.38,4.59,11.07,4.23,16.84,5.19,6.65,1.11,9,3.54,9,3.54l9.43-2.21L317,204.7,309.28,203c-3.75-.81-8.19-.66-11.31-3.27s-4.86-7.5-4.86-11.62A15.38,15.38,0,0,1,302.37,173.71Z"/><path d="M302.37,241.5c5.93-2.4,13.14-1.34,18.68-4.72,5.1-3.1,7.92-9.53,7.92-15.52,0-9.79-6.91-17.72-15.44-17.72a14.16,14.16,0,0,0-9.37,3.64,15.38,15.38,0,0,1,9.26,14.41,15.67,15.67,0,0,1-6.76,13.09c-2,1.3-4.53,1.7-6.79,2.08-6.65,1.1-9.87,1.33-9.87,1.33l.13.09c-7.15,1.54-12.57,8.74-12.57,17.4a19,19,0,0,0,5.26,13.27c4.38,4.59,11.07,4.23,16.84,5.19,6.65,1.11,9,3.54,9,3.54l9.43-2.21L317,272.49l-7.75-1.69c-3.75-.81-8.19-.66-11.31-3.27s-4.86-7.5-4.86-11.62A15.39,15.39,0,0,1,302.37,241.5Z"/><path d="M337.21,105.92c5.93-2.4,13.14-1.34,18.68-4.72,5.1-3.1,7.92-9.53,7.92-15.52,0-9.79-6.91-17.72-15.44-17.72A14.18,14.18,0,0,0,339,71.59,15.4,15.4,0,0,1,348.26,86a15.67,15.67,0,0,1-6.77,13.09c-1.94,1.3-4.53,1.7-6.78,2.08-6.65,1.1-9.87,1.32-9.87,1.32l.13.09c-7.16,1.55-12.57,8.75-12.57,17.41a19,19,0,0,0,5.26,13.27c4.38,4.59,11.07,4.23,16.83,5.19,6.65,1.11,9,3.54,9,3.54l9.44-2.21-1.07-2.88-7.76-1.69c-3.74-.81-8.18-.66-11.3-3.27s-4.86-7.5-4.86-11.62A15.38,15.38,0,0,1,337.21,105.92Z"/><path d="M337.21,173.71c5.93-2.4,13.14-1.34,18.68-4.72,5.1-3.1,7.92-9.53,7.92-15.52,0-9.79-6.91-17.72-15.44-17.72a14.18,14.18,0,0,0-9.37,3.63,15.4,15.4,0,0,1,9.26,14.42,15.67,15.67,0,0,1-6.77,13.09c-1.94,1.3-4.53,1.7-6.78,2.08-6.65,1.1-9.87,1.33-9.87,1.33l.13.09c-7.16,1.54-12.57,8.74-12.57,17.4a19,19,0,0,0,5.26,13.27c4.38,4.59,11.07,4.23,16.83,5.19,6.65,1.11,9,3.54,9,3.54l9.44-2.21-1.07-2.88L344.11,203c-3.74-.81-8.18-.66-11.3-3.27s-4.86-7.5-4.86-11.62A15.38,15.38,0,0,1,337.21,173.71Z"/><path d="M337.21,241.5c5.93-2.4,13.14-1.34,18.68-4.72,5.1-3.1,7.92-9.53,7.92-15.52,0-9.79-6.91-17.72-15.44-17.72a14.14,14.14,0,0,0-9.37,3.64,15.38,15.38,0,0,1,9.26,14.41,15.67,15.67,0,0,1-6.77,13.09c-1.94,1.3-4.53,1.7-6.78,2.08-6.65,1.1-9.87,1.33-9.87,1.33l.13.09c-7.16,1.54-12.57,8.74-12.57,17.4a19,19,0,0,0,5.26,13.27c4.38,4.59,11.07,4.23,16.83,5.19,6.65,1.11,9,3.54,9,3.54l9.44-2.21-1.07-2.88-7.76-1.69c-3.74-.81-8.18-.66-11.3-3.27S328,260,328,255.91A15.39,15.39,0,0,1,337.21,241.5Z"/><path d="M302.37,309.29c5.93-2.4,13.14-1.34,18.68-4.72,5.1-3.1,7.92-9.53,7.92-15.52,0-9.79-6.91-17.72-15.44-17.72a14.16,14.16,0,0,0-9.37,3.64,15.38,15.38,0,0,1,9.26,14.41,15.67,15.67,0,0,1-6.76,13.09c-2,1.3-4.53,1.7-6.79,2.08-6.65,1.11-9.87,1.33-9.87,1.33l.13.09c-7.15,1.54-12.57,8.74-12.57,17.4a19,19,0,0,0,5.26,13.27c4.38,4.59,11.07,4.23,16.84,5.19,6.65,1.11,9,3.54,9,3.54l9.43-2.21L317,340.28l-7.75-1.69c-3.75-.8-8.19-.66-11.31-3.27s-4.86-7.5-4.86-11.62A15.39,15.39,0,0,1,302.37,309.29Z"/><path d="M337.21,309.29c5.93-2.4,13.14-1.34,18.68-4.72,5.1-3.1,7.92-9.53,7.92-15.52,0-9.79-6.91-17.72-15.44-17.72A14.14,14.14,0,0,0,339,275a15.38,15.38,0,0,1,9.26,14.41,15.67,15.67,0,0,1-6.77,13.09c-1.94,1.3-4.53,1.7-6.78,2.08-6.65,1.11-9.87,1.33-9.87,1.33l.13.09c-7.16,1.54-12.57,8.74-12.57,17.4a19,19,0,0,0,5.26,13.27c4.38,4.59,11.07,4.23,16.83,5.19,6.65,1.11,9,3.54,9,3.54l9.44-2.21-1.07-2.88-7.76-1.69c-3.74-.8-8.18-.66-11.3-3.27S328,327.82,328,323.7A15.39,15.39,0,0,1,337.21,309.29Z"/><path d="M302.37,377.08c5.93-2.4,13.14-1.34,18.68-4.72,5.1-3.1,7.92-9.53,7.92-15.52,0-9.79-6.91-17.72-15.44-17.72a14.16,14.16,0,0,0-9.37,3.64,15.38,15.38,0,0,1,9.26,14.41,15.67,15.67,0,0,1-6.76,13.09c-2,1.3-4.53,1.7-6.79,2.08-6.65,1.1-9.87,1.33-9.87,1.33l.13.09c-7.15,1.54-12.57,8.74-12.57,17.4a19,19,0,0,0,5.26,13.27c2.89,3,7,3.93,11,4.45,2.42.32,11.8.65,12.71-.54,1.12-1.47-2.09-1.76-3-2.09A16.44,16.44,0,0,1,298,403a15.9,15.9,0,0,1,4.41-25.88Z"/><path d="M358.1,410.88a14.81,14.81,0,0,0-6-3.46,19.25,19.25,0,0,0-3.69-.56,30.52,30.52,0,0,1-4.26-.48c-3.74-.8-8.18-.66-11.3-3.27s-4.86-7.5-4.86-11.62a15.39,15.39,0,0,1,9.26-14.41c5.93-2.4,13.14-1.34,18.68-4.72,5.1-3.1,7.92-9.53,7.92-15.52,0-9.79-6.91-17.72-15.44-17.72a14.14,14.14,0,0,0-9.37,3.64,15.38,15.38,0,0,1,9.26,14.41,15.67,15.67,0,0,1-6.77,13.09c-1.94,1.3-4.53,1.7-6.78,2.08-6.65,1.1-9.87,1.33-9.87,1.33l.13.09c-7.16,1.54-12.57,8.74-12.57,17.4a19,19,0,0,0,5.26,13.27c4.38,4.59,11.07,4.23,16.83,5.19a24.15,24.15,0,0,1,6.55,2A15.63,15.63,0,0,1,348.26,425c0,5.26-1.27,10.59-5,13.37-2.22,2.1-5.77,2-5.65,2.32.51,1.41,3.65,2.1,6.75,2.22,3.66,0,7.46-.24,11.53-2.72,5.1-3.1,7.92-9.53,7.92-15.52A18.83,18.83,0,0,0,358.1,410.88Z"/><path d="M339.82,37c-.34-1-1.66-1.56-6.64-2.77a25.26,25.26,0,0,0-8.34.47l.13.09c-7.16,1.55-12.57,8.75-12.57,17.41a19,19,0,0,0,5.26,13.27c4.38,4.59,11.07,4.23,16.83,5.19,6.65,1.11,9,3.54,9,3.54L352.94,72l-1.07-2.88-7.76-1.69c-3.74-.81-8.18-.66-11.3-3.27S328,56.66,328,52.54a15.54,15.54,0,0,1,8-13.83C337.17,38,340.06,37.71,339.82,37Z"/><path d="M302.37,444.87c5.93-2.4,13.14-1.34,18.68-4.72,5.1-3.1,7.92-9.53,7.92-15.52,0-10.25-8.17-19.51-19-16.54a6.89,6.89,0,0,0-2.82,1.12c-1.05,1,1,2.33,1.51,2.78,3.6,3.27,4.71,8.26,4.71,13a15.67,15.67,0,0,1-6.76,13.09c-2,1.3-4.53,1.7-6.79,2.08-6.65,1.11-9.87,1.33-9.87,1.33l.13.09c-7.15,1.54-12.57,8.74-12.57,17.4a19.05,19.05,0,0,0,5.26,13.28c4.38,4.58,11.07,4.22,16.84,5.18,6.65,1.11,9,3.54,9,3.54l9.43-2.21L317,475.86l-7.75-1.69c-3.75-.8-8.19-.66-11.31-3.27s-4.86-7.5-4.86-11.62A15.39,15.39,0,0,1,302.37,444.87Z"/><path d="M302.37,512.66c5.93-2.4,13.14-1.34,18.68-4.72,5.1-3.1,7.92-9.53,7.92-15.52,0-9.79-6.91-17.72-15.44-17.72a14.16,14.16,0,0,0-9.37,3.64,15.38,15.38,0,0,1,9.26,14.41,15.67,15.67,0,0,1-6.76,13.09c-2,1.3-4.53,1.7-6.79,2.08-6.65,1.11-9.87,1.33-9.87,1.33l.13.09c-7.15,1.54-12.57,8.75-12.57,17.4A19.05,19.05,0,0,0,282.82,540c4.38,4.58,11.07,4.22,16.84,5.18,6.65,1.11,9,3.55,9,3.55l9.43-2.22L317,543.65,309.28,542c-3.75-.8-8.19-.66-11.31-3.27s-4.86-7.5-4.86-11.62A15.39,15.39,0,0,1,302.37,512.66Z"/><path d="M302.37,580.45c5.93-2.4,13.14-1.34,18.68-4.72,5.1-3.1,7.92-9.53,7.92-15.52,0-9.78-6.91-17.72-15.44-17.72a14.16,14.16,0,0,0-9.37,3.64,15.38,15.38,0,0,1,9.26,14.41,15.67,15.67,0,0,1-6.76,13.09c-2,1.3-4.53,1.7-6.79,2.08C293.22,576.82,290,577,290,577l.13.09c-7.15,1.54-12.57,8.75-12.57,17.4a19.05,19.05,0,0,0,5.26,13.28c4.38,4.58,11.07,4.22,16.84,5.18,6.65,1.11,9,3.55,9,3.55l9.43-2.22L317,611.44l-7.75-1.69c-3.75-.8-8.19-.66-11.31-3.27s-4.86-7.5-4.86-11.62A15.39,15.39,0,0,1,302.37,580.45Z"/><path d="M302.37,648.24c5.93-2.4,13.14-1.34,18.68-4.71C326.15,640.42,329,634,329,628c0-9.78-6.91-17.72-15.44-17.72a14.16,14.16,0,0,0-9.37,3.64,15.38,15.38,0,0,1,9.26,14.41,15.67,15.67,0,0,1-6.76,13.09c-2,1.3-4.53,1.7-6.79,2.08-6.65,1.11-9.87,1.33-9.87,1.33l.13.09c-7.15,1.55-12.57,8.75-12.57,17.4a19.05,19.05,0,0,0,5.26,13.28c4.38,4.58,11.07,4.22,16.84,5.18,6.65,1.11,9,3.55,9,3.55l9.43-2.22L317,679.23l-7.75-1.69c-3.75-.8-8.19-.66-11.31-3.27s-4.86-7.5-4.86-11.62A15.4,15.4,0,0,1,302.37,648.24Z"/><path d="M337.21,512.66c5.93-2.4,13.14-1.34,18.68-4.72,5.1-3.1,7.92-9.53,7.92-15.52,0-9.79-6.91-17.72-15.44-17.72a14.14,14.14,0,0,0-9.37,3.64,15.38,15.38,0,0,1,9.26,14.41,15.67,15.67,0,0,1-6.77,13.09c-1.94,1.3-4.53,1.7-6.78,2.08-6.65,1.11-9.87,1.33-9.87,1.33l.13.09c-7.16,1.54-12.57,8.75-12.57,17.4A19,19,0,0,0,317.66,540c4.38,4.58,11.07,4.22,16.83,5.18,6.65,1.11,9,3.55,9,3.55l9.44-2.22-1.07-2.88L344.11,542c-3.74-.8-8.18-.66-11.3-3.27s-4.86-7.5-4.86-11.62A15.39,15.39,0,0,1,337.21,512.66Z"/><path d="M337.21,580.45c5.93-2.4,13.14-1.34,18.68-4.72,5.1-3.1,7.92-9.53,7.92-15.52,0-9.78-6.91-17.72-15.44-17.72a14.14,14.14,0,0,0-9.37,3.64,15.38,15.38,0,0,1,9.26,14.41,15.67,15.67,0,0,1-6.77,13.09c-1.94,1.3-4.53,1.7-6.78,2.08-6.65,1.11-9.87,1.33-9.87,1.33l.13.09c-7.16,1.54-12.57,8.75-12.57,17.4a19,19,0,0,0,5.26,13.28c4.38,4.58,11.07,4.22,16.83,5.18,6.65,1.11,9,3.55,9,3.55l9.44-2.22-1.07-2.88-7.76-1.69c-3.74-.8-8.18-.66-11.3-3.27S328,599,328,594.86A15.39,15.39,0,0,1,337.21,580.45Z"/><path d="M337.21,648.24c5.93-2.4,13.14-1.34,18.68-4.71,5.1-3.11,7.92-9.54,7.92-15.53,0-9.78-6.91-17.72-15.44-17.72a14.14,14.14,0,0,0-9.37,3.64,15.38,15.38,0,0,1,9.26,14.41,15.67,15.67,0,0,1-6.77,13.09c-1.94,1.3-4.53,1.7-6.78,2.08-6.65,1.11-9.87,1.33-9.87,1.33l.13.09c-7.16,1.55-12.57,8.75-12.57,17.4a19,19,0,0,0,5.26,13.28c4.38,4.58,11.07,4.22,16.83,5.18,6.65,1.11,9,3.55,9,3.55l9.44-2.22-1.07-2.88-7.76-1.69c-3.74-.8-8.18-.66-11.3-3.27s-4.86-7.5-4.86-11.62A15.4,15.4,0,0,1,337.21,648.24Z"/><path d="M302.37,716c5.93-2.4,13.14-1.34,18.68-4.71,5.1-3.11,7.92-9.54,7.92-15.53,0-9.78-6.91-17.71-15.44-17.71a14.15,14.15,0,0,0-9.37,3.63,15.39,15.39,0,0,1,9.26,14.41,15.67,15.67,0,0,1-6.76,13.09c-2,1.3-4.53,1.7-6.79,2.08-6.65,1.11-9.87,1.33-9.87,1.33l.13.09c-7.15,1.55-12.57,8.75-12.57,17.4a19.05,19.05,0,0,0,5.26,13.28c4.38,4.58,11.07,4.22,16.84,5.18,6.65,1.11,9,3.55,9,3.55l9.43-2.22L317,747l-7.75-1.68c-3.75-.81-8.19-.67-11.31-3.28s-4.86-7.5-4.86-11.62A15.4,15.4,0,0,1,302.37,716Z"/><path d="M337.21,716c5.93-2.4,13.14-1.34,18.68-4.71,5.1-3.11,7.92-9.54,7.92-15.53,0-9.78-6.91-17.71-15.44-17.71a14.13,14.13,0,0,0-9.37,3.63,15.39,15.39,0,0,1,9.26,14.41,15.67,15.67,0,0,1-6.77,13.09c-1.94,1.3-4.53,1.7-6.78,2.08-6.65,1.11-9.87,1.33-9.87,1.33l.13.09c-7.16,1.55-12.57,8.75-12.57,17.4a19,19,0,0,0,5.26,13.28c4.38,4.58,11.07,4.22,16.83,5.18,6.65,1.11,9,3.55,9,3.55l9.44-2.22L351.87,747c-2.59-.56-5.17-1.13-7.76-1.68-3.74-.81-8.18-.67-11.3-3.28s-4.86-7.5-4.86-11.62A15.4,15.4,0,0,1,337.21,716Z"/><path d="M302.37,783.82c5.93-2.4,13.14-1.34,18.68-4.71,5.1-3.11,7.92-9.54,7.92-15.53,0-9.78-6.91-17.72-15.44-17.72a14.16,14.16,0,0,0-9.37,3.64,15.38,15.38,0,0,1,9.26,14.41A15.67,15.67,0,0,1,306.66,777c-2,1.3-4.53,1.7-6.79,2.08-6.65,1.11-9.87,1.33-9.87,1.33l.13.09c-7.15,1.55-12.57,8.75-12.57,17.4a19.05,19.05,0,0,0,5.26,13.28c2.89,3,7,3.92,11,4.44,2.42.32,11.8.65,12.71-.54,1.12-1.47-2.09-1.76-3-2.09A16.44,16.44,0,0,1,298,809.7a15.9,15.9,0,0,1,4.41-25.88Z"/><path d="M358.1,817.62a14.67,14.67,0,0,0-6-3.45,19.27,19.27,0,0,0-3.69-.57,30.5,30.5,0,0,1-4.26-.47c-3.74-.81-8.18-.67-11.3-3.28s-4.86-7.5-4.86-11.62a15.4,15.4,0,0,1,9.26-14.41c5.93-2.4,13.14-1.34,18.68-4.71,5.1-3.11,7.92-9.54,7.92-15.53,0-9.78-6.91-17.72-15.44-17.72A14.14,14.14,0,0,0,339,749.5a15.38,15.38,0,0,1,9.26,14.41A15.67,15.67,0,0,1,341.49,777c-1.94,1.3-4.53,1.7-6.78,2.08-6.65,1.11-9.87,1.33-9.87,1.33l.13.09c-7.16,1.55-12.57,8.75-12.57,17.4a19,19,0,0,0,5.26,13.28c4.38,4.58,11.07,4.22,16.83,5.18a24.15,24.15,0,0,1,6.55,2,15.63,15.63,0,0,1,7.22,13.38c0,5.26-1.27,10.59-5,13.37-2.22,2.1-5.77,2-5.65,2.32.51,1.42,3.65,2.11,6.75,2.22,3.66,0,7.46-.24,11.53-2.71,5.1-3.11,7.92-9.54,7.92-15.53A18.83,18.83,0,0,0,358.1,817.62Z"/><path d="M339.82,443.75c-.34-1-1.66-1.55-6.64-2.77a25.07,25.07,0,0,0-8.34.48l.13.09c-7.16,1.54-12.57,8.74-12.57,17.4a19,19,0,0,0,5.26,13.28c4.38,4.58,11.07,4.22,16.83,5.18,6.65,1.11,9,3.54,9,3.54l9.44-2.21-1.07-2.88-7.76-1.69c-3.74-.8-8.18-.66-11.3-3.27S328,463.4,328,459.28a15.56,15.56,0,0,1,8-13.83C337.17,444.75,340.06,444.46,339.82,443.75Z"/><path d="M372.05,38.13c5.93-2.4,13.14-1.35,18.68-4.72,5.09-3.1,7.92-9.53,7.92-15.52,0-10.25-8.17-19.51-19-16.54a6.89,6.89,0,0,0-2.82,1.12c-1.05,1,1,2.32,1.51,2.77,3.6,3.28,4.72,8.27,4.72,13a15.67,15.67,0,0,1-6.77,13.09c-1.95,1.3-4.53,1.7-6.79,2.08-6.64,1.1-9.86,1.32-9.86,1.32l.12.09c-7.15,1.55-12.56,8.75-12.56,17.41a19,19,0,0,0,5.26,13.27c4.37,4.59,11.06,4.23,16.83,5.19,6.65,1.11,9,3.54,9,3.54L387.78,72l-1.07-2.88L379,67.43c-3.74-.81-8.19-.66-11.3-3.27s-4.86-7.5-4.86-11.62A15.38,15.38,0,0,1,372.05,38.13Z"/><path d="M372.05,105.92c5.93-2.4,13.14-1.34,18.68-4.72,5.09-3.1,7.92-9.53,7.92-15.52,0-9.79-6.92-17.72-15.45-17.72a14.16,14.16,0,0,0-9.36,3.63A15.42,15.42,0,0,1,383.1,86a15.67,15.67,0,0,1-6.77,13.09c-1.95,1.3-4.53,1.7-6.79,2.08-6.65,1.1-9.86,1.32-9.86,1.32l.12.09c-7.15,1.55-12.56,8.75-12.56,17.41a19,19,0,0,0,5.26,13.27c4.37,4.59,11.06,4.23,16.83,5.19,6.65,1.11,9,3.54,9,3.54l9.44-2.21-1.07-2.88L379,135.22c-3.74-.81-8.19-.66-11.3-3.27s-4.86-7.5-4.86-11.62A15.38,15.38,0,0,1,372.05,105.92Z"/><path d="M372.05,173.71c5.93-2.4,13.14-1.34,18.68-4.72,5.09-3.1,7.92-9.53,7.92-15.52,0-9.79-6.92-17.72-15.45-17.72a14.16,14.16,0,0,0-9.36,3.63,15.42,15.42,0,0,1,9.26,14.42,15.67,15.67,0,0,1-6.77,13.09c-1.95,1.3-4.53,1.7-6.79,2.08-6.65,1.1-9.86,1.33-9.86,1.33l.12.09c-7.15,1.54-12.56,8.74-12.56,17.4a19,19,0,0,0,5.26,13.27c4.37,4.59,11.06,4.23,16.83,5.19,6.65,1.11,9,3.54,9,3.54l9.44-2.21-1.07-2.88L379,203c-3.74-.81-8.19-.66-11.3-3.27s-4.86-7.5-4.86-11.62A15.38,15.38,0,0,1,372.05,173.71Z"/><path d="M372.05,241.5c5.93-2.4,13.14-1.34,18.68-4.72,5.09-3.1,7.92-9.53,7.92-15.52,0-9.79-6.92-17.72-15.45-17.72a14.12,14.12,0,0,0-9.36,3.64,15.39,15.39,0,0,1,9.26,14.41,15.67,15.67,0,0,1-6.77,13.09c-1.95,1.3-4.53,1.7-6.79,2.08-6.65,1.1-9.86,1.33-9.86,1.33l.12.09c-7.15,1.54-12.56,8.74-12.56,17.4a19,19,0,0,0,5.26,13.27c4.37,4.59,11.06,4.23,16.83,5.19,6.65,1.11,9,3.54,9,3.54l9.44-2.21-1.07-2.88L379,270.8c-3.74-.81-8.19-.66-11.3-3.27s-4.86-7.5-4.86-11.62A15.39,15.39,0,0,1,372.05,241.5Z"/><path d="M406.88,105.92c5.93-2.4,13.14-1.34,18.68-4.72,5.1-3.1,7.92-9.53,7.92-15.52C433.48,75.89,426.57,68,418,68a14.2,14.2,0,0,0-9.37,3.63A15.4,15.4,0,0,1,417.93,86a15.67,15.67,0,0,1-6.76,13.09c-1.95,1.3-4.53,1.7-6.79,2.08-6.65,1.1-9.87,1.32-9.87,1.32l.13.09c-7.15,1.55-12.57,8.75-12.57,17.41a19,19,0,0,0,5.26,13.27c4.38,4.59,11.07,4.23,16.84,5.19,6.65,1.11,9,3.54,9,3.54l9.43-2.21-1.07-2.88-7.75-1.69c-3.75-.81-8.19-.66-11.31-3.27s-4.86-7.5-4.86-11.62A15.38,15.38,0,0,1,406.88,105.92Z"/><path d="M406.88,173.71c5.93-2.4,13.14-1.34,18.68-4.72,5.1-3.1,7.92-9.53,7.92-15.52,0-9.79-6.91-17.72-15.44-17.72a14.2,14.2,0,0,0-9.37,3.63,15.4,15.4,0,0,1,9.26,14.42,15.67,15.67,0,0,1-6.76,13.09c-1.95,1.3-4.53,1.7-6.79,2.08-6.65,1.1-9.87,1.33-9.87,1.33l.13.09c-7.15,1.54-12.57,8.74-12.57,17.4a19,19,0,0,0,5.26,13.27c4.38,4.59,11.07,4.23,16.84,5.19,6.65,1.11,9,3.54,9,3.54l9.43-2.21-1.07-2.88L413.79,203c-3.75-.81-8.19-.66-11.31-3.27s-4.86-7.5-4.86-11.62A15.38,15.38,0,0,1,406.88,173.71Z"/><path d="M406.88,241.5c5.93-2.4,13.14-1.34,18.68-4.72,5.1-3.1,7.92-9.53,7.92-15.52,0-9.79-6.91-17.72-15.44-17.72a14.16,14.16,0,0,0-9.37,3.64,15.38,15.38,0,0,1,9.26,14.41,15.67,15.67,0,0,1-6.76,13.09c-1.95,1.3-4.53,1.7-6.79,2.08-6.65,1.1-9.87,1.33-9.87,1.33l.13.09c-7.15,1.54-12.57,8.74-12.57,17.4a19,19,0,0,0,5.26,13.27c4.38,4.59,11.07,4.23,16.84,5.19,6.65,1.11,9,3.54,9,3.54l9.43-2.21-1.07-2.88-7.75-1.69c-3.75-.81-8.19-.66-11.31-3.27s-4.86-7.5-4.86-11.62A15.39,15.39,0,0,1,406.88,241.5Z"/><path d="M372.05,309.29c5.93-2.4,13.14-1.34,18.68-4.72,5.09-3.1,7.92-9.53,7.92-15.52,0-9.79-6.92-17.72-15.45-17.72a14.12,14.12,0,0,0-9.36,3.64,15.39,15.39,0,0,1,9.26,14.41,15.67,15.67,0,0,1-6.77,13.09c-1.95,1.3-4.53,1.7-6.79,2.08-6.65,1.11-9.86,1.33-9.86,1.33l.12.09c-7.15,1.54-12.56,8.74-12.56,17.4a19,19,0,0,0,5.26,13.27c4.37,4.59,11.06,4.23,16.83,5.19,6.65,1.11,9,3.54,9,3.54l9.44-2.21-1.07-2.88L379,338.59c-3.74-.8-8.19-.66-11.3-3.27s-4.86-7.5-4.86-11.62A15.39,15.39,0,0,1,372.05,309.29Z"/><path d="M406.88,309.29c5.93-2.4,13.14-1.34,18.68-4.72,5.1-3.1,7.92-9.53,7.92-15.52,0-9.79-6.91-17.72-15.44-17.72a14.16,14.16,0,0,0-9.37,3.64,15.38,15.38,0,0,1,9.26,14.41,15.67,15.67,0,0,1-6.76,13.09c-1.95,1.3-4.53,1.7-6.79,2.08-6.65,1.11-9.87,1.33-9.87,1.33l.13.09c-7.15,1.54-12.57,8.74-12.57,17.4a19,19,0,0,0,5.26,13.27c4.38,4.59,11.07,4.23,16.84,5.19,6.65,1.11,9,3.54,9,3.54l9.43-2.21-1.07-2.88-7.75-1.69c-3.75-.8-8.19-.66-11.31-3.27s-4.86-7.5-4.86-11.62A15.39,15.39,0,0,1,406.88,309.29Z"/><path d="M372.05,377.08c5.93-2.4,13.14-1.34,18.68-4.72,5.09-3.1,7.92-9.53,7.92-15.52,0-9.79-6.92-17.72-15.45-17.72a14.12,14.12,0,0,0-9.36,3.64,15.39,15.39,0,0,1,9.26,14.41,15.67,15.67,0,0,1-6.77,13.09c-1.95,1.3-4.53,1.7-6.79,2.08-6.65,1.1-9.86,1.33-9.86,1.33l.12.09c-7.15,1.54-12.56,8.74-12.56,17.4a19,19,0,0,0,5.26,13.27c2.88,3,7,3.93,11,4.45,2.43.32,11.8.65,12.71-.54,1.13-1.47-2.09-1.76-3-2.09a16.44,16.44,0,0,1-5.55-3.29,15.91,15.91,0,0,1,4.42-25.88Z"/><path d="M427.78,410.88a14.84,14.84,0,0,0-6-3.46,19,19,0,0,0-3.69-.56,30.38,30.38,0,0,1-4.25-.48c-3.75-.8-8.19-.66-11.31-3.27s-4.86-7.5-4.86-11.62a15.4,15.4,0,0,1,9.26-14.41c5.93-2.4,13.14-1.34,18.68-4.72,5.1-3.1,7.92-9.53,7.92-15.52,0-9.79-6.91-17.72-15.44-17.72a14.16,14.16,0,0,0-9.37,3.64,15.38,15.38,0,0,1,9.26,14.41,15.67,15.67,0,0,1-6.76,13.09c-1.95,1.3-4.53,1.7-6.79,2.08-6.65,1.1-9.87,1.33-9.87,1.33l.13.09c-7.15,1.54-12.57,8.74-12.57,17.4a19,19,0,0,0,5.26,13.27c4.38,4.59,11.07,4.23,16.84,5.19a24.27,24.27,0,0,1,6.55,2A15.62,15.62,0,0,1,417.93,425c0,5.26-1.27,10.59-5,13.37-2.21,2.1-5.77,2-5.65,2.32.51,1.41,3.66,2.1,6.76,2.22,3.65,0,7.46-.24,11.52-2.72,5.1-3.1,7.92-9.53,7.92-15.52A18.86,18.86,0,0,0,427.78,410.88Z"/><path d="M409.5,37c-.35-1-1.67-1.56-6.64-2.77a25.35,25.35,0,0,0-8.35.47l.13.09c-7.15,1.55-12.57,8.75-12.57,17.41a19,19,0,0,0,5.26,13.27c4.38,4.59,11.07,4.23,16.84,5.19,6.65,1.11,9,3.54,9,3.54L422.61,72l-1.07-2.88-7.75-1.69c-3.75-.81-8.19-.66-11.31-3.27s-4.86-7.5-4.86-11.62a15.54,15.54,0,0,1,8-13.83C406.84,38,409.74,37.71,409.5,37Z"/><path d="M372.05,444.87c5.93-2.4,13.14-1.34,18.68-4.72,5.09-3.1,7.92-9.53,7.92-15.52,0-10.25-8.17-19.51-19-16.54a6.89,6.89,0,0,0-2.82,1.12c-1.05,1,1,2.33,1.51,2.78,3.6,3.27,4.72,8.26,4.72,13a15.67,15.67,0,0,1-6.77,13.09c-1.95,1.3-4.53,1.7-6.79,2.08-6.64,1.11-9.86,1.33-9.86,1.33l.12.09c-7.15,1.54-12.56,8.74-12.56,17.4a19,19,0,0,0,5.26,13.28c4.37,4.58,11.06,4.22,16.83,5.18,6.65,1.11,9,3.54,9,3.54l9.44-2.21-1.07-2.88L379,474.17c-3.74-.8-8.19-.66-11.3-3.27s-4.86-7.5-4.86-11.62A15.39,15.39,0,0,1,372.05,444.87Z"/><path d="M372.05,512.66c5.93-2.4,13.14-1.34,18.68-4.72,5.09-3.1,7.92-9.53,7.92-15.52,0-9.79-6.92-17.72-15.45-17.72a14.12,14.12,0,0,0-9.36,3.64,15.39,15.39,0,0,1,9.26,14.41,15.67,15.67,0,0,1-6.77,13.09c-1.95,1.3-4.53,1.7-6.79,2.08-6.65,1.11-9.86,1.33-9.86,1.33l.12.09c-7.15,1.54-12.56,8.75-12.56,17.4A19,19,0,0,0,352.5,540c4.37,4.58,11.06,4.22,16.83,5.18,6.65,1.11,9,3.55,9,3.55l9.44-2.22-1.07-2.88L379,542c-3.74-.8-8.19-.66-11.3-3.27s-4.86-7.5-4.86-11.62A15.39,15.39,0,0,1,372.05,512.66Z"/><path d="M372.05,580.45c5.93-2.4,13.14-1.34,18.68-4.72,5.09-3.1,7.92-9.53,7.92-15.52,0-9.78-6.92-17.72-15.45-17.72a14.12,14.12,0,0,0-9.36,3.64,15.39,15.39,0,0,1,9.26,14.41,15.67,15.67,0,0,1-6.77,13.09c-1.95,1.3-4.53,1.7-6.79,2.08-6.65,1.11-9.86,1.33-9.86,1.33l.12.09c-7.15,1.54-12.56,8.75-12.56,17.4a19,19,0,0,0,5.26,13.28c4.37,4.58,11.06,4.22,16.83,5.18,6.65,1.11,9,3.55,9,3.55l9.44-2.22-1.07-2.88L379,609.75c-3.74-.8-8.19-.66-11.3-3.27s-4.86-7.5-4.86-11.62A15.39,15.39,0,0,1,372.05,580.45Z"/><path d="M372.05,648.24c5.93-2.4,13.14-1.34,18.68-4.71,5.09-3.11,7.92-9.54,7.92-15.53,0-9.78-6.92-17.72-15.45-17.72a14.12,14.12,0,0,0-9.36,3.64,15.39,15.39,0,0,1,9.26,14.41,15.67,15.67,0,0,1-6.77,13.09c-1.95,1.3-4.53,1.7-6.79,2.08-6.65,1.11-9.86,1.33-9.86,1.33l.12.09c-7.15,1.55-12.56,8.75-12.56,17.4a19,19,0,0,0,5.26,13.28c4.37,4.58,11.06,4.22,16.83,5.18,6.65,1.11,9,3.55,9,3.55l9.44-2.22-1.07-2.88L379,677.54c-3.74-.8-8.19-.66-11.3-3.27s-4.86-7.5-4.86-11.62A15.4,15.4,0,0,1,372.05,648.24Z"/><path d="M406.88,512.66c5.93-2.4,13.14-1.34,18.68-4.72,5.1-3.1,7.92-9.53,7.92-15.52,0-9.79-6.91-17.72-15.44-17.72a14.16,14.16,0,0,0-9.37,3.64,15.38,15.38,0,0,1,9.26,14.41,15.67,15.67,0,0,1-6.76,13.09c-1.95,1.3-4.53,1.7-6.79,2.08-6.65,1.11-9.87,1.33-9.87,1.33l.13.09c-7.15,1.54-12.57,8.75-12.57,17.4A19.05,19.05,0,0,0,387.33,540c4.38,4.58,11.07,4.22,16.84,5.18,6.65,1.11,9,3.55,9,3.55l9.43-2.22-1.07-2.88L413.79,542c-3.75-.8-8.19-.66-11.31-3.27s-4.86-7.5-4.86-11.62A15.39,15.39,0,0,1,406.88,512.66Z"/><path d="M406.88,580.45c5.93-2.4,13.14-1.34,18.68-4.72,5.1-3.1,7.92-9.53,7.92-15.52,0-9.78-6.91-17.72-15.44-17.72a14.16,14.16,0,0,0-9.37,3.64,15.38,15.38,0,0,1,9.26,14.41,15.67,15.67,0,0,1-6.76,13.09c-1.95,1.3-4.53,1.7-6.79,2.08-6.65,1.11-9.87,1.33-9.87,1.33l.13.09c-7.15,1.54-12.57,8.75-12.57,17.4a19.05,19.05,0,0,0,5.26,13.28c4.38,4.58,11.07,4.22,16.84,5.18,6.65,1.11,9,3.55,9,3.55l9.43-2.22-1.07-2.88-7.75-1.69c-3.75-.8-8.19-.66-11.31-3.27s-4.86-7.5-4.86-11.62A15.39,15.39,0,0,1,406.88,580.45Z"/><path d="M406.88,648.24c5.93-2.4,13.14-1.34,18.68-4.71,5.1-3.11,7.92-9.54,7.92-15.53,0-9.78-6.91-17.72-15.44-17.72a14.16,14.16,0,0,0-9.37,3.64,15.38,15.38,0,0,1,9.26,14.41,15.67,15.67,0,0,1-6.76,13.09c-1.95,1.3-4.53,1.7-6.79,2.08-6.65,1.11-9.87,1.33-9.87,1.33l.13.09c-7.15,1.55-12.57,8.75-12.57,17.4a19.05,19.05,0,0,0,5.26,13.28c4.38,4.58,11.07,4.22,16.84,5.18,6.65,1.11,9,3.55,9,3.55l9.43-2.22-1.07-2.88-7.75-1.69c-3.75-.8-8.19-.66-11.31-3.27s-4.86-7.5-4.86-11.62A15.4,15.4,0,0,1,406.88,648.24Z"/><path d="M372.05,716c5.93-2.4,13.14-1.34,18.68-4.71,5.09-3.11,7.92-9.54,7.92-15.53,0-9.78-6.92-17.71-15.45-17.71a14.11,14.11,0,0,0-9.36,3.63,15.4,15.4,0,0,1,9.26,14.41,15.67,15.67,0,0,1-6.77,13.09c-1.95,1.3-4.53,1.7-6.79,2.08-6.65,1.11-9.86,1.33-9.86,1.33l.12.09c-7.15,1.55-12.56,8.75-12.56,17.4a19,19,0,0,0,5.26,13.28c4.37,4.58,11.06,4.22,16.83,5.18,6.65,1.11,9,3.55,9,3.55l9.44-2.22L386.71,747c-2.59-.56-5.17-1.13-7.76-1.68-3.74-.81-8.19-.67-11.3-3.28s-4.86-7.5-4.86-11.62A15.4,15.4,0,0,1,372.05,716Z"/><path d="M406.88,716c5.93-2.4,13.14-1.34,18.68-4.71,5.1-3.11,7.92-9.54,7.92-15.53,0-9.78-6.91-17.71-15.44-17.71a14.15,14.15,0,0,0-9.37,3.63,15.39,15.39,0,0,1,9.26,14.41,15.67,15.67,0,0,1-6.76,13.09c-1.95,1.3-4.53,1.7-6.79,2.08-6.65,1.11-9.87,1.33-9.87,1.33l.13.09c-7.15,1.55-12.57,8.75-12.57,17.4a19.05,19.05,0,0,0,5.26,13.28c4.38,4.58,11.07,4.22,16.84,5.18,6.65,1.11,9,3.55,9,3.55l9.43-2.22L421.54,747l-7.75-1.68c-3.75-.81-8.19-.67-11.31-3.28s-4.86-7.5-4.86-11.62A15.4,15.4,0,0,1,406.88,716Z"/><path d="M372.05,783.82c5.93-2.4,13.14-1.34,18.68-4.71,5.09-3.11,7.92-9.54,7.92-15.53,0-9.78-6.92-17.72-15.45-17.72a14.12,14.12,0,0,0-9.36,3.64,15.39,15.39,0,0,1,9.26,14.41A15.67,15.67,0,0,1,376.33,777c-1.95,1.3-4.53,1.7-6.79,2.08-6.65,1.11-9.86,1.33-9.86,1.33l.12.09c-7.15,1.55-12.56,8.75-12.56,17.4a19,19,0,0,0,5.26,13.28c2.88,3,7,3.92,11,4.44,2.43.32,11.8.65,12.71-.54,1.13-1.47-2.09-1.76-3-2.09a16.44,16.44,0,0,1-5.55-3.29,15.91,15.91,0,0,1,4.42-25.88Z"/><path d="M427.78,817.62a14.71,14.71,0,0,0-6-3.45,19,19,0,0,0-3.69-.57,30.36,30.36,0,0,1-4.25-.47c-3.75-.81-8.19-.67-11.31-3.28s-4.86-7.5-4.86-11.62a15.41,15.41,0,0,1,9.26-14.41c5.93-2.4,13.14-1.34,18.68-4.71,5.1-3.11,7.92-9.54,7.92-15.53,0-9.78-6.91-17.72-15.44-17.72a14.16,14.16,0,0,0-9.37,3.64,15.38,15.38,0,0,1,9.26,14.41A15.67,15.67,0,0,1,411.17,777c-1.95,1.3-4.53,1.7-6.79,2.08-6.65,1.11-9.87,1.33-9.87,1.33l.13.09c-7.15,1.55-12.57,8.75-12.57,17.4a19.05,19.05,0,0,0,5.26,13.28c4.38,4.58,11.07,4.22,16.84,5.18a24.27,24.27,0,0,1,6.55,2,15.62,15.62,0,0,1,7.21,13.38c0,5.26-1.27,10.59-5,13.37-2.21,2.1-5.77,2-5.65,2.32.51,1.42,3.66,2.11,6.76,2.22,3.65,0,7.46-.24,11.52-2.71,5.1-3.11,7.92-9.54,7.92-15.53A18.86,18.86,0,0,0,427.78,817.62Z"/><path d="M409.5,443.75c-.35-1-1.67-1.55-6.64-2.77a25.15,25.15,0,0,0-8.35.48l.13.09c-7.15,1.54-12.57,8.74-12.57,17.4a19.05,19.05,0,0,0,5.26,13.28c4.38,4.58,11.07,4.22,16.84,5.18,6.65,1.11,9,3.54,9,3.54l9.43-2.21-1.07-2.88-7.75-1.69c-3.75-.8-8.19-.66-11.31-3.27s-4.86-7.5-4.86-11.62a15.56,15.56,0,0,1,8-13.83C406.84,444.75,409.74,444.46,409.5,443.75Z"/><path d="M441.72,38.13c5.93-2.4,13.14-1.35,18.68-4.72,5.1-3.1,7.92-9.53,7.92-15.52,0-10.25-8.17-19.51-19-16.54a6.84,6.84,0,0,0-2.81,1.12c-1.05,1,1,2.32,1.5,2.77,3.6,3.28,4.72,8.27,4.72,13A15.67,15.67,0,0,1,446,31.31c-1.94,1.3-4.53,1.7-6.78,2.08-6.65,1.1-9.87,1.32-9.87,1.32l.13.09c-7.16,1.55-12.57,8.75-12.57,17.41a19,19,0,0,0,5.26,13.27c4.38,4.59,11.07,4.23,16.83,5.19,6.65,1.11,9,3.54,9,3.54L457.45,72l-1.07-2.88-7.76-1.69c-3.74-.81-8.18-.66-11.3-3.27s-4.86-7.5-4.86-11.62A15.38,15.38,0,0,1,441.72,38.13Z"/><path d="M441.72,105.92c5.93-2.4,13.14-1.34,18.68-4.72,5.1-3.1,7.92-9.53,7.92-15.52,0-9.79-6.91-17.72-15.44-17.72a14.18,14.18,0,0,0-9.37,3.63A15.4,15.4,0,0,1,452.77,86,15.67,15.67,0,0,1,446,99.1c-1.94,1.3-4.53,1.7-6.78,2.08-6.65,1.1-9.87,1.32-9.87,1.32l.13.09c-7.16,1.55-12.57,8.75-12.57,17.41a19,19,0,0,0,5.26,13.27c4.38,4.59,11.07,4.23,16.83,5.19,6.65,1.11,9,3.54,9,3.54l9.44-2.21-1.07-2.88-7.76-1.69c-3.74-.81-8.18-.66-11.3-3.27s-4.86-7.5-4.86-11.62A15.38,15.38,0,0,1,441.72,105.92Z"/><path d="M441.72,173.71c5.93-2.4,13.14-1.34,18.68-4.72,5.1-3.1,7.92-9.53,7.92-15.52,0-9.79-6.91-17.72-15.44-17.72a14.18,14.18,0,0,0-9.37,3.63,15.4,15.4,0,0,1,9.26,14.42A15.67,15.67,0,0,1,446,166.89c-1.94,1.3-4.53,1.7-6.78,2.08-6.65,1.1-9.87,1.33-9.87,1.33l.13.09c-7.16,1.54-12.57,8.74-12.57,17.4a19,19,0,0,0,5.26,13.27c4.38,4.59,11.07,4.23,16.83,5.19,6.65,1.11,9,3.54,9,3.54l9.44-2.21-1.07-2.88L448.62,203c-3.74-.81-8.18-.66-11.3-3.27s-4.86-7.5-4.86-11.62A15.38,15.38,0,0,1,441.72,173.71Z"/><path d="M441.72,241.5c5.93-2.4,13.14-1.34,18.68-4.72,5.1-3.1,7.92-9.53,7.92-15.52,0-9.79-6.91-17.72-15.44-17.72a14.14,14.14,0,0,0-9.37,3.64,15.38,15.38,0,0,1,9.26,14.41A15.67,15.67,0,0,1,446,234.68c-1.94,1.3-4.53,1.7-6.78,2.08-6.65,1.1-9.87,1.33-9.87,1.33l.13.09c-7.16,1.54-12.57,8.74-12.57,17.4a19,19,0,0,0,5.26,13.27c4.38,4.59,11.07,4.23,16.83,5.19,6.65,1.11,9,3.54,9,3.54l9.44-2.21-1.07-2.88-7.76-1.69c-3.74-.81-8.18-.66-11.3-3.27s-4.86-7.5-4.86-11.62A15.39,15.39,0,0,1,441.72,241.5Z"/><path d="M476.56,105.92c5.93-2.4,13.14-1.34,18.68-4.72,5.09-3.1,7.92-9.53,7.92-15.52,0-9.79-6.92-17.72-15.45-17.72a14.16,14.16,0,0,0-9.36,3.63A15.42,15.42,0,0,1,487.61,86a15.67,15.67,0,0,1-6.77,13.09c-1.95,1.3-4.53,1.7-6.79,2.08-6.64,1.1-9.86,1.32-9.86,1.32l.12.09c-7.15,1.55-12.56,8.75-12.56,17.41A19,19,0,0,0,457,133.27c4.37,4.59,11.06,4.23,16.83,5.19,6.65,1.11,9,3.54,9,3.54l9.44-2.21-1.07-2.88-7.76-1.69c-3.74-.81-8.19-.66-11.3-3.27s-4.86-7.5-4.86-11.62A15.38,15.38,0,0,1,476.56,105.92Z"/><path d="M476.56,173.71c5.93-2.4,13.14-1.34,18.68-4.72,5.09-3.1,7.92-9.53,7.92-15.52,0-9.79-6.92-17.72-15.45-17.72a14.16,14.16,0,0,0-9.36,3.63,15.42,15.42,0,0,1,9.26,14.42,15.67,15.67,0,0,1-6.77,13.09c-1.95,1.3-4.53,1.7-6.79,2.08-6.64,1.1-9.86,1.33-9.86,1.33l.12.09c-7.15,1.54-12.56,8.74-12.56,17.4A19,19,0,0,0,457,201.06c4.37,4.59,11.06,4.23,16.83,5.19,6.65,1.11,9,3.54,9,3.54l9.44-2.21-1.07-2.88L483.46,203c-3.74-.81-8.19-.66-11.3-3.27s-4.86-7.5-4.86-11.62A15.38,15.38,0,0,1,476.56,173.71Z"/><path d="M476.56,241.5c5.93-2.4,13.14-1.34,18.68-4.72,5.09-3.1,7.92-9.53,7.92-15.52,0-9.79-6.92-17.72-15.45-17.72a14.12,14.12,0,0,0-9.36,3.64,15.39,15.39,0,0,1,9.26,14.41,15.67,15.67,0,0,1-6.77,13.09c-1.95,1.3-4.53,1.7-6.79,2.08-6.64,1.1-9.86,1.33-9.86,1.33l.12.09c-7.15,1.54-12.56,8.74-12.56,17.4A19,19,0,0,0,457,268.85c4.37,4.59,11.06,4.23,16.83,5.19,6.65,1.11,9,3.54,9,3.54l9.44-2.21-1.07-2.88-7.76-1.69c-3.74-.81-8.19-.66-11.3-3.27s-4.86-7.5-4.86-11.62A15.39,15.39,0,0,1,476.56,241.5Z"/><path d="M441.72,309.29c5.93-2.4,13.14-1.34,18.68-4.72,5.1-3.1,7.92-9.53,7.92-15.52,0-9.79-6.91-17.72-15.44-17.72a14.14,14.14,0,0,0-9.37,3.64,15.38,15.38,0,0,1,9.26,14.41A15.67,15.67,0,0,1,446,302.47c-1.94,1.3-4.53,1.7-6.78,2.08-6.65,1.11-9.87,1.33-9.87,1.33l.13.09c-7.16,1.54-12.57,8.74-12.57,17.4a19,19,0,0,0,5.26,13.27c4.38,4.59,11.07,4.23,16.83,5.19,6.65,1.11,9,3.54,9,3.54l9.44-2.21-1.07-2.88-7.76-1.69c-3.74-.8-8.18-.66-11.3-3.27s-4.86-7.5-4.86-11.62A15.39,15.39,0,0,1,441.72,309.29Z"/><path d="M476.56,309.29c5.93-2.4,13.14-1.34,18.68-4.72,5.09-3.1,7.92-9.53,7.92-15.52,0-9.79-6.92-17.72-15.45-17.72a14.12,14.12,0,0,0-9.36,3.64,15.39,15.39,0,0,1,9.26,14.41,15.67,15.67,0,0,1-6.77,13.09c-1.95,1.3-4.53,1.7-6.79,2.08-6.64,1.11-9.86,1.33-9.86,1.33l.12.09c-7.15,1.54-12.56,8.74-12.56,17.4A19,19,0,0,0,457,336.64c4.37,4.59,11.06,4.23,16.83,5.19,6.65,1.11,9,3.54,9,3.54l9.44-2.21-1.07-2.88-7.76-1.69c-3.74-.8-8.19-.66-11.3-3.27s-4.86-7.5-4.86-11.62A15.39,15.39,0,0,1,476.56,309.29Z"/><path d="M441.72,377.08c5.93-2.4,13.14-1.34,18.68-4.72,5.1-3.1,7.92-9.53,7.92-15.52,0-9.79-6.91-17.72-15.44-17.72a14.14,14.14,0,0,0-9.37,3.64,15.38,15.38,0,0,1,9.26,14.41A15.67,15.67,0,0,1,446,370.26c-1.94,1.3-4.53,1.7-6.78,2.08-6.65,1.1-9.87,1.33-9.87,1.33l.13.09c-7.16,1.54-12.57,8.74-12.57,17.4a19,19,0,0,0,5.26,13.27c2.88,3,7,3.93,11,4.45,2.42.32,11.8.65,12.7-.54,1.13-1.47-2.09-1.76-3-2.09a16.44,16.44,0,0,1-5.55-3.29,15.9,15.9,0,0,1,4.41-25.88Z"/><path d="M497.45,410.88a14.81,14.81,0,0,0-6-3.46,19.25,19.25,0,0,0-3.69-.56,30.35,30.35,0,0,1-4.26-.48c-3.74-.8-8.19-.66-11.3-3.27s-4.86-7.5-4.86-11.62a15.39,15.39,0,0,1,9.26-14.41c5.93-2.4,13.14-1.34,18.68-4.72,5.09-3.1,7.92-9.53,7.92-15.52,0-9.79-6.92-17.72-15.45-17.72a14.12,14.12,0,0,0-9.36,3.64,15.38,15.38,0,0,1,9.26,14.41,15.67,15.67,0,0,1-6.77,13.09c-1.94,1.3-4.53,1.7-6.78,2.08-6.65,1.1-9.87,1.33-9.87,1.33l.12.09c-7.15,1.54-12.56,8.74-12.56,17.4A19,19,0,0,0,457,404.43c4.37,4.59,11.06,4.23,16.83,5.19a24.15,24.15,0,0,1,6.55,2A15.63,15.63,0,0,1,487.61,425c0,5.26-1.27,10.59-5,13.37-2.22,2.1-5.77,2-5.65,2.32.51,1.41,3.65,2.1,6.75,2.22,3.66,0,7.46-.24,11.53-2.72,5.09-3.1,7.92-9.53,7.92-15.52A18.87,18.87,0,0,0,497.45,410.88Z"/><path d="M479.17,37c-.34-1-1.66-1.56-6.64-2.77a25.26,25.26,0,0,0-8.34.47l.12.09c-7.15,1.55-12.56,8.75-12.56,17.41A19,19,0,0,0,457,65.48c4.37,4.59,11.06,4.23,16.83,5.19,6.65,1.11,9,3.54,9,3.54L492.29,72l-1.07-2.88-7.76-1.69c-3.74-.81-8.19-.66-11.3-3.27s-4.86-7.5-4.86-11.62a15.54,15.54,0,0,1,8-13.83C476.51,38,479.41,37.71,479.17,37Z"/><path d="M441.72,444.87c5.93-2.4,13.14-1.34,18.68-4.72,5.1-3.1,7.92-9.53,7.92-15.52,0-10.25-8.17-19.51-19-16.54a6.84,6.84,0,0,0-2.81,1.12c-1.05,1,1,2.33,1.5,2.78,3.6,3.27,4.72,8.26,4.72,13A15.67,15.67,0,0,1,446,438.05c-1.94,1.3-4.53,1.7-6.78,2.08-6.65,1.11-9.87,1.33-9.87,1.33l.13.09c-7.16,1.54-12.57,8.74-12.57,17.4a19,19,0,0,0,5.26,13.28c4.38,4.58,11.07,4.22,16.83,5.18,6.65,1.11,9,3.54,9,3.54l9.44-2.21-1.07-2.88-7.76-1.69c-3.74-.8-8.18-.66-11.3-3.27s-4.86-7.5-4.86-11.62A15.39,15.39,0,0,1,441.72,444.87Z"/><path d="M441.72,512.66c5.93-2.4,13.14-1.34,18.68-4.72,5.1-3.1,7.92-9.53,7.92-15.52,0-9.79-6.91-17.72-15.44-17.72a14.14,14.14,0,0,0-9.37,3.64,15.38,15.38,0,0,1,9.26,14.41A15.67,15.67,0,0,1,446,505.84c-1.94,1.3-4.53,1.7-6.78,2.08-6.65,1.11-9.87,1.33-9.87,1.33l.13.09c-7.16,1.54-12.57,8.75-12.57,17.4A19,19,0,0,0,422.17,540c4.38,4.58,11.07,4.22,16.83,5.18,6.65,1.11,9,3.55,9,3.55l9.44-2.22-1.07-2.88L448.62,542c-3.74-.8-8.18-.66-11.3-3.27s-4.86-7.5-4.86-11.62A15.39,15.39,0,0,1,441.72,512.66Z"/><path d="M441.72,580.45c5.93-2.4,13.14-1.34,18.68-4.72,5.1-3.1,7.92-9.53,7.92-15.52,0-9.78-6.91-17.72-15.44-17.72a14.14,14.14,0,0,0-9.37,3.64,15.38,15.38,0,0,1,9.26,14.41A15.67,15.67,0,0,1,446,573.63c-1.94,1.3-4.53,1.7-6.78,2.08-6.65,1.11-9.87,1.33-9.87,1.33l.13.09c-7.16,1.54-12.57,8.75-12.57,17.4a19,19,0,0,0,5.26,13.28c4.38,4.58,11.07,4.22,16.83,5.18,6.65,1.11,9,3.55,9,3.55l9.44-2.22-1.07-2.88-7.76-1.69c-3.74-.8-8.18-.66-11.3-3.27s-4.86-7.5-4.86-11.62A15.39,15.39,0,0,1,441.72,580.45Z"/><path d="M441.72,648.24c5.93-2.4,13.14-1.34,18.68-4.71,5.1-3.11,7.92-9.54,7.92-15.53,0-9.78-6.91-17.72-15.44-17.72a14.14,14.14,0,0,0-9.37,3.64,15.38,15.38,0,0,1,9.26,14.41A15.67,15.67,0,0,1,446,641.42c-1.94,1.3-4.53,1.7-6.78,2.08-6.65,1.11-9.87,1.33-9.87,1.33l.13.09c-7.16,1.55-12.57,8.75-12.57,17.4a19,19,0,0,0,5.26,13.28c4.38,4.58,11.07,4.22,16.83,5.18,6.65,1.11,9,3.55,9,3.55l9.44-2.22-1.07-2.88-7.76-1.69c-3.74-.8-8.18-.66-11.3-3.27s-4.86-7.5-4.86-11.62A15.4,15.4,0,0,1,441.72,648.24Z"/><path d="M476.56,512.66c5.93-2.4,13.14-1.34,18.68-4.72,5.09-3.1,7.92-9.53,7.92-15.52,0-9.79-6.92-17.72-15.45-17.72a14.12,14.12,0,0,0-9.36,3.64,15.39,15.39,0,0,1,9.26,14.41,15.67,15.67,0,0,1-6.77,13.09c-1.95,1.3-4.53,1.7-6.79,2.08-6.64,1.11-9.86,1.33-9.86,1.33l.12.09c-7.15,1.54-12.56,8.75-12.56,17.4A19,19,0,0,0,457,540c4.37,4.58,11.06,4.22,16.83,5.18,6.65,1.11,9,3.55,9,3.55l9.44-2.22-1.07-2.88L483.46,542c-3.74-.8-8.19-.66-11.3-3.27s-4.86-7.5-4.86-11.62A15.39,15.39,0,0,1,476.56,512.66Z"/><path d="M476.56,580.45c5.93-2.4,13.14-1.34,18.68-4.72,5.09-3.1,7.92-9.53,7.92-15.52,0-9.78-6.92-17.72-15.45-17.72a14.12,14.12,0,0,0-9.36,3.64,15.39,15.39,0,0,1,9.26,14.41,15.67,15.67,0,0,1-6.77,13.09c-1.95,1.3-4.53,1.7-6.79,2.08-6.64,1.11-9.86,1.33-9.86,1.33l.12.09c-7.15,1.54-12.56,8.75-12.56,17.4A19,19,0,0,0,457,607.81c4.37,4.58,11.06,4.22,16.83,5.18,6.65,1.11,9,3.55,9,3.55l9.44-2.22-1.07-2.88-7.76-1.69c-3.74-.8-8.19-.66-11.3-3.27s-4.86-7.5-4.86-11.62A15.39,15.39,0,0,1,476.56,580.45Z"/><path d="M476.56,648.24c5.93-2.4,13.14-1.34,18.68-4.71,5.09-3.11,7.92-9.54,7.92-15.53,0-9.78-6.92-17.72-15.45-17.72a14.12,14.12,0,0,0-9.36,3.64,15.39,15.39,0,0,1,9.26,14.41,15.67,15.67,0,0,1-6.77,13.09c-1.95,1.3-4.53,1.7-6.79,2.08-6.64,1.11-9.86,1.33-9.86,1.33l.12.09c-7.15,1.55-12.56,8.75-12.56,17.4A19,19,0,0,0,457,675.6c4.37,4.58,11.06,4.22,16.83,5.18,6.65,1.11,9,3.55,9,3.55l9.44-2.22-1.07-2.88-7.76-1.69c-3.74-.8-8.19-.66-11.3-3.27s-4.86-7.5-4.86-11.62A15.4,15.4,0,0,1,476.56,648.24Z"/><path d="M441.72,716c5.93-2.4,13.14-1.34,18.68-4.71,5.1-3.11,7.92-9.54,7.92-15.53,0-9.78-6.91-17.71-15.44-17.71a14.13,14.13,0,0,0-9.37,3.63,15.39,15.39,0,0,1,9.26,14.41A15.67,15.67,0,0,1,446,709.21c-1.94,1.3-4.53,1.7-6.78,2.08-6.65,1.11-9.87,1.33-9.87,1.33l.13.09c-7.16,1.55-12.57,8.75-12.57,17.4a19,19,0,0,0,5.26,13.28c4.38,4.58,11.07,4.22,16.83,5.18,6.65,1.11,9,3.55,9,3.55l9.44-2.22L456.38,747c-2.59-.56-5.17-1.13-7.76-1.68-3.74-.81-8.18-.67-11.3-3.28s-4.86-7.5-4.86-11.62A15.4,15.4,0,0,1,441.72,716Z"/><path d="M476.56,716c5.93-2.4,13.14-1.34,18.68-4.71,5.09-3.11,7.92-9.54,7.92-15.53,0-9.78-6.92-17.71-15.45-17.71a14.11,14.11,0,0,0-9.36,3.63,15.4,15.4,0,0,1,9.26,14.41,15.67,15.67,0,0,1-6.77,13.09c-1.95,1.3-4.53,1.7-6.79,2.08-6.64,1.11-9.86,1.33-9.86,1.33l.12.09c-7.15,1.55-12.56,8.75-12.56,17.4A19,19,0,0,0,457,743.39c4.37,4.58,11.06,4.22,16.83,5.18,6.65,1.11,9,3.55,9,3.55l9.44-2.22L491.22,747c-2.59-.56-5.17-1.13-7.76-1.68-3.74-.81-8.19-.67-11.3-3.28s-4.86-7.5-4.86-11.62A15.4,15.4,0,0,1,476.56,716Z"/><path d="M441.72,783.82c5.93-2.4,13.14-1.34,18.68-4.71,5.1-3.11,7.92-9.54,7.92-15.53,0-9.78-6.91-17.72-15.44-17.72a14.14,14.14,0,0,0-9.37,3.64,15.38,15.38,0,0,1,9.26,14.41A15.67,15.67,0,0,1,446,777c-1.94,1.3-4.53,1.7-6.78,2.08-6.65,1.11-9.87,1.33-9.87,1.33l.13.09c-7.16,1.55-12.57,8.75-12.57,17.4a19,19,0,0,0,5.26,13.28c2.88,3,7,3.92,11,4.44,2.42.32,11.8.65,12.7-.54,1.13-1.47-2.09-1.76-3-2.09a16.44,16.44,0,0,1-5.55-3.29,15.9,15.9,0,0,1,4.41-25.88Z"/><path d="M497.45,817.62a14.67,14.67,0,0,0-6-3.45,19.27,19.27,0,0,0-3.69-.57,30.34,30.34,0,0,1-4.26-.47c-3.74-.81-8.19-.67-11.3-3.28s-4.86-7.5-4.86-11.62a15.4,15.4,0,0,1,9.26-14.41c5.93-2.4,13.14-1.34,18.68-4.71,5.09-3.11,7.92-9.54,7.92-15.53,0-9.78-6.92-17.72-15.45-17.72a14.12,14.12,0,0,0-9.36,3.64,15.38,15.38,0,0,1,9.26,14.41A15.67,15.67,0,0,1,480.84,777c-1.94,1.3-4.53,1.7-6.78,2.08-6.65,1.11-9.87,1.33-9.87,1.33l.12.09c-7.15,1.55-12.56,8.75-12.56,17.4A19,19,0,0,0,457,811.18c4.37,4.58,11.06,4.22,16.83,5.18a24.15,24.15,0,0,1,6.55,2,15.63,15.63,0,0,1,7.22,13.38c0,5.26-1.27,10.59-5,13.37-2.22,2.1-5.77,2-5.65,2.32.51,1.42,3.65,2.11,6.75,2.22,3.66,0,7.46-.24,11.53-2.71,5.09-3.11,7.92-9.54,7.92-15.53A18.87,18.87,0,0,0,497.45,817.62Z"/><path d="M479.17,443.75c-.34-1-1.66-1.55-6.64-2.77a25.07,25.07,0,0,0-8.34.48l.12.09c-7.15,1.54-12.56,8.74-12.56,17.4A19,19,0,0,0,457,472.23c4.37,4.58,11.06,4.22,16.83,5.18,6.65,1.11,9,3.54,9,3.54l9.44-2.21-1.07-2.88-7.76-1.69c-3.74-.8-8.19-.66-11.3-3.27s-4.86-7.5-4.86-11.62a15.55,15.55,0,0,1,8-13.83C476.51,444.75,479.41,444.46,479.17,443.75Z"/><path d="M511.39,38.13c5.93-2.4,13.14-1.35,18.68-4.72,5.1-3.1,7.92-9.53,7.92-15.52,0-10.25-8.17-19.51-19-16.54a6.89,6.89,0,0,0-2.82,1.12c-1.05,1,1,2.32,1.51,2.77,3.6,3.28,4.71,8.27,4.71,13a15.67,15.67,0,0,1-6.76,13.09c-1.95,1.3-4.53,1.7-6.79,2.08-6.65,1.1-9.87,1.32-9.87,1.32l.13.09c-7.15,1.55-12.57,8.75-12.57,17.41a19,19,0,0,0,5.26,13.27c4.38,4.59,11.07,4.23,16.84,5.19,6.65,1.11,9,3.54,9,3.54L527.12,72l-1.07-2.88-7.75-1.69c-3.75-.81-8.19-.66-11.31-3.27s-4.86-7.5-4.86-11.62A15.39,15.39,0,0,1,511.39,38.13Z"/><path d="M511.39,105.92c5.93-2.4,13.14-1.34,18.68-4.72,5.1-3.1,7.92-9.53,7.92-15.52C538,75.89,531.08,68,522.55,68a14.2,14.2,0,0,0-9.37,3.63A15.4,15.4,0,0,1,522.44,86a15.67,15.67,0,0,1-6.76,13.09c-1.95,1.3-4.53,1.7-6.79,2.08-6.65,1.1-9.87,1.32-9.87,1.32l.13.09c-7.15,1.55-12.57,8.75-12.57,17.41a19,19,0,0,0,5.26,13.27c4.38,4.59,11.07,4.23,16.84,5.19,6.65,1.11,9,3.54,9,3.54l9.43-2.21-1.07-2.88-7.75-1.69c-3.75-.81-8.19-.66-11.31-3.27s-4.86-7.5-4.86-11.62A15.39,15.39,0,0,1,511.39,105.92Z"/><path d="M511.39,173.71c5.93-2.4,13.14-1.34,18.68-4.72,5.1-3.1,7.92-9.53,7.92-15.52,0-9.79-6.91-17.72-15.44-17.72a14.2,14.2,0,0,0-9.37,3.63,15.4,15.4,0,0,1,9.26,14.42,15.67,15.67,0,0,1-6.76,13.09c-1.95,1.3-4.53,1.7-6.79,2.08-6.65,1.1-9.87,1.33-9.87,1.33l.13.09c-7.15,1.54-12.57,8.74-12.57,17.4a19,19,0,0,0,5.26,13.27c4.38,4.59,11.07,4.23,16.84,5.19,6.65,1.11,9,3.54,9,3.54l9.43-2.21-1.07-2.88L518.3,203c-3.75-.81-8.19-.66-11.31-3.27s-4.86-7.5-4.86-11.62A15.39,15.39,0,0,1,511.39,173.71Z"/><path d="M511.39,241.5c5.93-2.4,13.14-1.34,18.68-4.72,5.1-3.1,7.92-9.53,7.92-15.52,0-9.79-6.91-17.72-15.44-17.72a14.16,14.16,0,0,0-9.37,3.64,15.38,15.38,0,0,1,9.26,14.41,15.67,15.67,0,0,1-6.76,13.09c-1.95,1.3-4.53,1.7-6.79,2.08-6.65,1.1-9.87,1.33-9.87,1.33l.13.09c-7.15,1.54-12.57,8.74-12.57,17.4a19,19,0,0,0,5.26,13.27c4.38,4.59,11.07,4.23,16.84,5.19,6.65,1.11,9,3.54,9,3.54l9.43-2.21-1.07-2.88-7.75-1.69c-3.75-.81-8.19-.66-11.31-3.27s-4.86-7.5-4.86-11.62A15.4,15.4,0,0,1,511.39,241.5Z"/><path d="M546.23,105.92c5.93-2.4,13.14-1.34,18.68-4.72,5.1-3.1,7.92-9.53,7.92-15.52,0-9.79-6.91-17.72-15.44-17.72A14.18,14.18,0,0,0,548,71.59,15.4,15.4,0,0,1,557.28,86a15.67,15.67,0,0,1-6.77,13.09c-1.94,1.3-4.53,1.7-6.78,2.08-6.65,1.1-9.87,1.32-9.87,1.32l.13.09c-7.16,1.55-12.57,8.75-12.57,17.41a19,19,0,0,0,5.26,13.27c4.38,4.59,11.07,4.23,16.83,5.19,6.65,1.11,9,3.54,9,3.54l9.44-2.21-1.07-2.88-7.76-1.69c-3.74-.81-8.18-.66-11.3-3.27s-4.86-7.5-4.86-11.62A15.38,15.38,0,0,1,546.23,105.92Z"/><path d="M546.23,173.71c5.93-2.4,13.14-1.34,18.68-4.72,5.1-3.1,7.92-9.53,7.92-15.52,0-9.79-6.91-17.72-15.44-17.72a14.18,14.18,0,0,0-9.37,3.63,15.4,15.4,0,0,1,9.26,14.42,15.67,15.67,0,0,1-6.77,13.09c-1.94,1.3-4.53,1.7-6.78,2.08-6.65,1.1-9.87,1.33-9.87,1.33l.13.09c-7.16,1.54-12.57,8.74-12.57,17.4a19,19,0,0,0,5.26,13.27c4.38,4.59,11.07,4.23,16.83,5.19,6.65,1.11,9,3.54,9,3.54l9.44-2.21-1.07-2.88L553.13,203c-3.74-.81-8.18-.66-11.3-3.27s-4.86-7.5-4.86-11.62A15.38,15.38,0,0,1,546.23,173.71Z"/><path d="M546.23,241.5c5.93-2.4,13.14-1.34,18.68-4.72,5.1-3.1,7.92-9.53,7.92-15.52,0-9.79-6.91-17.72-15.44-17.72a14.14,14.14,0,0,0-9.37,3.64,15.38,15.38,0,0,1,9.26,14.41,15.67,15.67,0,0,1-6.77,13.09c-1.94,1.3-4.53,1.7-6.78,2.08-6.65,1.1-9.87,1.33-9.87,1.33l.13.09c-7.16,1.54-12.57,8.74-12.57,17.4a19,19,0,0,0,5.26,13.27c4.38,4.59,11.07,4.23,16.83,5.19,6.65,1.11,9,3.54,9,3.54l9.44-2.21-1.07-2.88-7.76-1.69c-3.74-.81-8.18-.66-11.3-3.27S537,260,537,255.91A15.39,15.39,0,0,1,546.23,241.5Z"/><path d="M511.39,309.29c5.93-2.4,13.14-1.34,18.68-4.72,5.1-3.1,7.92-9.53,7.92-15.52,0-9.79-6.91-17.72-15.44-17.72a14.16,14.16,0,0,0-9.37,3.64,15.38,15.38,0,0,1,9.26,14.41,15.67,15.67,0,0,1-6.76,13.09c-1.95,1.3-4.53,1.7-6.79,2.08-6.65,1.11-9.87,1.33-9.87,1.33l.13.09c-7.15,1.54-12.57,8.74-12.57,17.4a19,19,0,0,0,5.26,13.27c4.38,4.59,11.07,4.23,16.84,5.19,6.65,1.11,9,3.54,9,3.54l9.43-2.21-1.07-2.88-7.75-1.69c-3.75-.8-8.19-.66-11.31-3.27s-4.86-7.5-4.86-11.62A15.4,15.4,0,0,1,511.39,309.29Z"/><path d="M546.23,309.29c5.93-2.4,13.14-1.34,18.68-4.72,5.1-3.1,7.92-9.53,7.92-15.52,0-9.79-6.91-17.72-15.44-17.72A14.14,14.14,0,0,0,548,275a15.38,15.38,0,0,1,9.26,14.41,15.67,15.67,0,0,1-6.77,13.09c-1.94,1.3-4.53,1.7-6.78,2.08-6.65,1.11-9.87,1.33-9.87,1.33l.13.09c-7.16,1.54-12.57,8.74-12.57,17.4a19,19,0,0,0,5.26,13.27c4.38,4.59,11.07,4.23,16.83,5.19,6.65,1.11,9,3.54,9,3.54l9.44-2.21-1.07-2.88-7.76-1.69c-3.74-.8-8.18-.66-11.3-3.27S537,327.82,537,323.7A15.39,15.39,0,0,1,546.23,309.29Z"/><path d="M511.39,377.08c5.93-2.4,13.14-1.34,18.68-4.72,5.1-3.1,7.92-9.53,7.92-15.52,0-9.79-6.91-17.72-15.44-17.72a14.16,14.16,0,0,0-9.37,3.64,15.38,15.38,0,0,1,9.26,14.41,15.67,15.67,0,0,1-6.76,13.09c-1.95,1.3-4.53,1.7-6.79,2.08-6.65,1.1-9.87,1.33-9.87,1.33l.13.09c-7.15,1.54-12.57,8.74-12.57,17.4a19,19,0,0,0,5.26,13.27c2.89,3,7,3.93,11,4.45,2.43.32,11.8.65,12.71-.54,1.12-1.47-2.09-1.76-3-2.09A16.44,16.44,0,0,1,507,403a15.9,15.9,0,0,1,4.41-25.88Z"/><path d="M567.12,410.88a14.81,14.81,0,0,0-6-3.46,19.25,19.25,0,0,0-3.69-.56,30.52,30.52,0,0,1-4.26-.48c-3.74-.8-8.18-.66-11.3-3.27s-4.86-7.5-4.86-11.62a15.39,15.39,0,0,1,9.26-14.41c5.93-2.4,13.14-1.34,18.68-4.72,5.1-3.1,7.92-9.53,7.92-15.52,0-9.79-6.91-17.72-15.44-17.72a14.14,14.14,0,0,0-9.37,3.64,15.38,15.38,0,0,1,9.26,14.41,15.67,15.67,0,0,1-6.77,13.09c-1.94,1.3-4.53,1.7-6.78,2.08-6.65,1.1-9.87,1.33-9.87,1.33l.13.09c-7.16,1.54-12.57,8.74-12.57,17.4a19,19,0,0,0,5.26,13.27c4.38,4.59,11.07,4.23,16.83,5.19a24.15,24.15,0,0,1,6.55,2A15.63,15.63,0,0,1,557.28,425c0,5.26-1.27,10.59-5,13.37-2.22,2.1-5.77,2-5.65,2.32.51,1.41,3.66,2.1,6.76,2.22,3.65,0,7.46-.24,11.52-2.72,5.1-3.1,7.92-9.53,7.92-15.52A18.83,18.83,0,0,0,567.12,410.88Z"/><path d="M548.85,37c-.35-1-1.67-1.56-6.65-2.77a25.26,25.26,0,0,0-8.34.47l.13.09c-7.16,1.55-12.57,8.75-12.57,17.41a19,19,0,0,0,5.26,13.27c4.38,4.59,11.07,4.23,16.83,5.19,6.65,1.11,9,3.54,9,3.54L562,72l-1.07-2.88-7.76-1.69c-3.74-.81-8.18-.66-11.3-3.27S537,56.66,537,52.54a15.54,15.54,0,0,1,8-13.83C546.19,38,549.08,37.71,548.85,37Z"/><path d="M511.39,444.87c5.93-2.4,13.14-1.34,18.68-4.72,5.1-3.1,7.92-9.53,7.92-15.52,0-10.25-8.17-19.51-19-16.54a6.89,6.89,0,0,0-2.82,1.12c-1.05,1,1,2.33,1.51,2.78,3.6,3.27,4.71,8.26,4.71,13a15.67,15.67,0,0,1-6.76,13.09c-1.95,1.3-4.53,1.7-6.79,2.08-6.65,1.11-9.87,1.33-9.87,1.33l.13.09c-7.15,1.54-12.57,8.74-12.57,17.4a19.05,19.05,0,0,0,5.26,13.28c4.38,4.58,11.07,4.22,16.84,5.18,6.65,1.11,9,3.54,9,3.54l9.43-2.21-1.07-2.88-7.75-1.69c-3.75-.8-8.19-.66-11.31-3.27s-4.86-7.5-4.86-11.62A15.4,15.4,0,0,1,511.39,444.87Z"/><path d="M511.39,512.66c5.93-2.4,13.14-1.34,18.68-4.72,5.1-3.1,7.92-9.53,7.92-15.52,0-9.79-6.91-17.72-15.44-17.72a14.16,14.16,0,0,0-9.37,3.64,15.38,15.38,0,0,1,9.26,14.41,15.67,15.67,0,0,1-6.76,13.09c-1.95,1.3-4.53,1.7-6.79,2.08-6.65,1.11-9.87,1.33-9.87,1.33l.13.09c-7.15,1.54-12.57,8.75-12.57,17.4A19.05,19.05,0,0,0,491.84,540c4.38,4.58,11.07,4.22,16.84,5.18,6.65,1.11,9,3.55,9,3.55l9.43-2.22-1.07-2.88L518.3,542c-3.75-.8-8.19-.66-11.31-3.27s-4.86-7.5-4.86-11.62A15.4,15.4,0,0,1,511.39,512.66Z"/><path d="M511.39,580.45c5.93-2.4,13.14-1.34,18.68-4.72,5.1-3.1,7.92-9.53,7.92-15.52,0-9.78-6.91-17.72-15.44-17.72a14.16,14.16,0,0,0-9.37,3.64,15.38,15.38,0,0,1,9.26,14.41,15.67,15.67,0,0,1-6.76,13.09c-1.95,1.3-4.53,1.7-6.79,2.08C502.24,576.82,499,577,499,577l.13.09c-7.15,1.54-12.57,8.75-12.57,17.4a19.05,19.05,0,0,0,5.26,13.28c4.38,4.58,11.07,4.22,16.84,5.18,6.65,1.11,9,3.55,9,3.55l9.43-2.22-1.07-2.88-7.75-1.69c-3.75-.8-8.19-.66-11.31-3.27s-4.86-7.5-4.86-11.62A15.4,15.4,0,0,1,511.39,580.45Z"/><path d="M511.39,648.24c5.93-2.4,13.14-1.34,18.68-4.71C535.17,640.42,538,634,538,628c0-9.78-6.91-17.72-15.44-17.72a14.16,14.16,0,0,0-9.37,3.64,15.38,15.38,0,0,1,9.26,14.41,15.67,15.67,0,0,1-6.76,13.09c-1.95,1.3-4.53,1.7-6.79,2.08-6.65,1.11-9.87,1.33-9.87,1.33l.13.09c-7.15,1.55-12.57,8.75-12.57,17.4a19.05,19.05,0,0,0,5.26,13.28c4.38,4.58,11.07,4.22,16.84,5.18,6.65,1.11,9,3.55,9,3.55l9.43-2.22-1.07-2.88-7.75-1.69c-3.75-.8-8.19-.66-11.31-3.27s-4.86-7.5-4.86-11.62A15.41,15.41,0,0,1,511.39,648.24Z"/><path d="M546.23,512.66c5.93-2.4,13.14-1.34,18.68-4.72,5.1-3.1,7.92-9.53,7.92-15.52,0-9.79-6.91-17.72-15.44-17.72a14.14,14.14,0,0,0-9.37,3.64,15.38,15.38,0,0,1,9.26,14.41,15.67,15.67,0,0,1-6.77,13.09c-1.94,1.3-4.53,1.7-6.78,2.08-6.65,1.11-9.87,1.33-9.87,1.33l.13.09c-7.16,1.54-12.57,8.75-12.57,17.4A19,19,0,0,0,526.68,540c4.38,4.58,11.07,4.22,16.83,5.18,6.65,1.11,9,3.55,9,3.55l9.44-2.22-1.07-2.88L553.13,542c-3.74-.8-8.18-.66-11.3-3.27s-4.86-7.5-4.86-11.62A15.39,15.39,0,0,1,546.23,512.66Z"/><path d="M546.23,580.45c5.93-2.4,13.14-1.34,18.68-4.72,5.1-3.1,7.92-9.53,7.92-15.52,0-9.78-6.91-17.72-15.44-17.72a14.14,14.14,0,0,0-9.37,3.64,15.38,15.38,0,0,1,9.26,14.41,15.67,15.67,0,0,1-6.77,13.09c-1.94,1.3-4.53,1.7-6.78,2.08-6.65,1.11-9.87,1.33-9.87,1.33l.13.09c-7.16,1.54-12.57,8.75-12.57,17.4a19,19,0,0,0,5.26,13.28c4.38,4.58,11.07,4.22,16.83,5.18,6.65,1.11,9,3.55,9,3.55l9.44-2.22-1.07-2.88-7.76-1.69c-3.74-.8-8.18-.66-11.3-3.27S537,599,537,594.86A15.39,15.39,0,0,1,546.23,580.45Z"/><path d="M546.23,648.24c5.93-2.4,13.14-1.34,18.68-4.71,5.1-3.11,7.92-9.54,7.92-15.53,0-9.78-6.91-17.72-15.44-17.72a14.14,14.14,0,0,0-9.37,3.64,15.38,15.38,0,0,1,9.26,14.41,15.67,15.67,0,0,1-6.77,13.09c-1.94,1.3-4.53,1.7-6.78,2.08-6.65,1.11-9.87,1.33-9.87,1.33l.13.09c-7.16,1.55-12.57,8.75-12.57,17.4a19,19,0,0,0,5.26,13.28c4.38,4.58,11.07,4.22,16.83,5.18,6.65,1.11,9,3.55,9,3.55l9.44-2.22-1.07-2.88-7.76-1.69c-3.74-.8-8.18-.66-11.3-3.27s-4.86-7.5-4.86-11.62A15.4,15.4,0,0,1,546.23,648.24Z"/><path d="M511.39,716c5.93-2.4,13.14-1.34,18.68-4.71,5.1-3.11,7.92-9.54,7.92-15.53,0-9.78-6.91-17.71-15.44-17.71a14.15,14.15,0,0,0-9.37,3.63,15.39,15.39,0,0,1,9.26,14.41,15.67,15.67,0,0,1-6.76,13.09c-1.95,1.3-4.53,1.7-6.79,2.08-6.65,1.11-9.87,1.33-9.87,1.33l.13.09c-7.15,1.55-12.57,8.75-12.57,17.4a19.05,19.05,0,0,0,5.26,13.28c4.38,4.58,11.07,4.22,16.84,5.18,6.65,1.11,9,3.55,9,3.55l9.43-2.22L526.05,747l-7.75-1.68c-3.75-.81-8.19-.67-11.31-3.28s-4.86-7.5-4.86-11.62A15.41,15.41,0,0,1,511.39,716Z"/><path d="M546.23,716c5.93-2.4,13.14-1.34,18.68-4.71,5.1-3.11,7.92-9.54,7.92-15.53,0-9.78-6.91-17.71-15.44-17.71a14.13,14.13,0,0,0-9.37,3.63,15.39,15.39,0,0,1,9.26,14.41,15.67,15.67,0,0,1-6.77,13.09c-1.94,1.3-4.53,1.7-6.78,2.08-6.65,1.11-9.87,1.33-9.87,1.33l.13.09c-7.16,1.55-12.57,8.75-12.57,17.4a19,19,0,0,0,5.26,13.28c4.38,4.58,11.07,4.22,16.83,5.18,6.65,1.11,9,3.55,9,3.55L562,749.9,560.89,747c-2.59-.56-5.17-1.13-7.76-1.68-3.74-.81-8.18-.67-11.3-3.28s-4.86-7.5-4.86-11.62A15.4,15.4,0,0,1,546.23,716Z"/><path d="M511.39,783.82c5.93-2.4,13.14-1.34,18.68-4.71,5.1-3.11,7.92-9.54,7.92-15.53,0-9.78-6.91-17.72-15.44-17.72a14.16,14.16,0,0,0-9.37,3.64,15.38,15.38,0,0,1,9.26,14.41A15.67,15.67,0,0,1,515.68,777c-1.95,1.3-4.53,1.7-6.79,2.08-6.65,1.11-9.87,1.33-9.87,1.33l.13.09c-7.15,1.55-12.57,8.75-12.57,17.4a19.05,19.05,0,0,0,5.26,13.28c2.89,3,7,3.92,11,4.44,2.43.32,11.8.65,12.71-.54,1.12-1.47-2.09-1.76-3-2.09A16.44,16.44,0,0,1,507,809.7a15.9,15.9,0,0,1,4.41-25.88Z"/><path d="M567.12,817.62a14.67,14.67,0,0,0-6-3.45,19.27,19.27,0,0,0-3.69-.57,30.5,30.5,0,0,1-4.26-.47c-3.74-.81-8.18-.67-11.3-3.28s-4.86-7.5-4.86-11.62a15.4,15.4,0,0,1,9.26-14.41c5.93-2.4,13.14-1.34,18.68-4.71,5.1-3.11,7.92-9.54,7.92-15.53,0-9.78-6.91-17.72-15.44-17.72A14.14,14.14,0,0,0,548,749.5a15.38,15.38,0,0,1,9.26,14.41A15.67,15.67,0,0,1,550.51,777c-1.94,1.3-4.53,1.7-6.78,2.08-6.65,1.11-9.87,1.33-9.87,1.33l.13.09c-7.16,1.55-12.57,8.75-12.57,17.4a19,19,0,0,0,5.26,13.28c4.38,4.58,11.07,4.22,16.83,5.18a24.15,24.15,0,0,1,6.55,2,15.63,15.63,0,0,1,7.22,13.38c0,5.26-1.27,10.59-5,13.37-2.22,2.1-5.77,2-5.65,2.32.51,1.42,3.66,2.11,6.76,2.22,3.65,0,7.46-.24,11.52-2.71,5.1-3.11,7.92-9.54,7.92-15.53A18.83,18.83,0,0,0,567.12,817.62Z"/><path d="M548.85,443.75c-.35-1-1.67-1.55-6.65-2.77a25.07,25.07,0,0,0-8.34.48l.13.09c-7.16,1.54-12.57,8.74-12.57,17.4a19,19,0,0,0,5.26,13.28c4.38,4.58,11.07,4.22,16.83,5.18,6.65,1.11,9,3.54,9,3.54l9.44-2.21-1.07-2.88-7.76-1.69c-3.74-.8-8.18-.66-11.3-3.27S537,463.4,537,459.28a15.56,15.56,0,0,1,8-13.83C546.19,444.75,549.08,444.46,548.85,443.75Z"/><path d="M581.07,38.13c5.93-2.4,13.14-1.35,18.68-4.72,5.09-3.1,7.92-9.53,7.92-15.52,0-10.25-8.17-19.51-19-16.54a6.94,6.94,0,0,0-2.82,1.12c-1,1,1,2.32,1.51,2.77,3.6,3.28,4.72,8.27,4.72,13a15.67,15.67,0,0,1-6.77,13.09c-1.94,1.3-4.53,1.7-6.78,2.08-6.65,1.1-9.87,1.32-9.87,1.32l.12.09c-7.15,1.55-12.56,8.75-12.56,17.41a19,19,0,0,0,5.26,13.27c4.37,4.59,11.06,4.23,16.83,5.19,6.65,1.11,9,3.54,9,3.54L596.8,72l-1.07-2.88L588,67.43c-3.74-.81-8.19-.66-11.3-3.27s-4.86-7.5-4.86-11.62A15.38,15.38,0,0,1,581.07,38.13Z"/><path d="M581.07,105.92c5.93-2.4,13.14-1.34,18.68-4.72,5.09-3.1,7.92-9.53,7.92-15.52,0-9.79-6.92-17.72-15.45-17.72a14.16,14.16,0,0,0-9.36,3.63A15.42,15.42,0,0,1,592.12,86a15.67,15.67,0,0,1-6.77,13.09c-1.94,1.3-4.53,1.7-6.78,2.08-6.65,1.1-9.87,1.32-9.87,1.32l.12.09c-7.15,1.55-12.56,8.75-12.56,17.41a19,19,0,0,0,5.26,13.27c4.37,4.59,11.06,4.23,16.83,5.19,6.65,1.11,9,3.54,9,3.54l9.44-2.21-1.07-2.88L588,135.22c-3.74-.81-8.19-.66-11.3-3.27s-4.86-7.5-4.86-11.62A15.38,15.38,0,0,1,581.07,105.92Z"/><path d="M581.07,173.71c5.93-2.4,13.14-1.34,18.68-4.72,5.09-3.1,7.92-9.53,7.92-15.52,0-9.79-6.92-17.72-15.45-17.72a14.16,14.16,0,0,0-9.36,3.63,15.42,15.42,0,0,1,9.26,14.42,15.67,15.67,0,0,1-6.77,13.09c-1.94,1.3-4.53,1.7-6.78,2.08-6.65,1.1-9.87,1.33-9.87,1.33l.12.09c-7.15,1.54-12.56,8.74-12.56,17.4a19,19,0,0,0,5.26,13.27c4.37,4.59,11.06,4.23,16.83,5.19,6.65,1.11,9,3.54,9,3.54l9.44-2.21-1.07-2.88L588,203c-3.74-.81-8.19-.66-11.3-3.27s-4.86-7.5-4.86-11.62A15.38,15.38,0,0,1,581.07,173.71Z"/><path d="M581.07,241.5c5.93-2.4,13.14-1.34,18.68-4.72,5.09-3.1,7.92-9.53,7.92-15.52,0-9.79-6.92-17.72-15.45-17.72a14.12,14.12,0,0,0-9.36,3.64,15.39,15.39,0,0,1,9.26,14.41,15.67,15.67,0,0,1-6.77,13.09c-1.94,1.3-4.53,1.7-6.78,2.08-6.65,1.1-9.87,1.33-9.87,1.33l.12.09c-7.15,1.54-12.56,8.74-12.56,17.4a19,19,0,0,0,5.26,13.27c4.37,4.59,11.06,4.23,16.83,5.19,6.65,1.11,9,3.54,9,3.54l9.44-2.21-1.07-2.88L588,270.8c-3.74-.81-8.19-.66-11.3-3.27s-4.86-7.5-4.86-11.62A15.39,15.39,0,0,1,581.07,241.5Z"/><path d="M615.91,105.92c5.92-2.4,13.13-1.34,18.67-4.72,5.1-3.1,7.92-9.53,7.92-15.52,0-9.79-6.91-17.72-15.44-17.72a14.2,14.2,0,0,0-9.37,3.63A15.4,15.4,0,0,1,627,86a15.67,15.67,0,0,1-6.76,13.09c-2,1.3-4.53,1.7-6.79,2.08-6.65,1.1-9.87,1.32-9.87,1.32l.13.09c-7.15,1.55-12.57,8.75-12.57,17.41a19,19,0,0,0,5.26,13.27c4.38,4.59,11.07,4.23,16.84,5.19,6.65,1.11,9,3.54,9,3.54l9.44-2.21-1.08-2.88-7.75-1.69c-3.75-.81-8.19-.66-11.31-3.27s-4.85-7.5-4.85-11.62A15.36,15.36,0,0,1,615.91,105.92Z"/><path d="M615.91,173.71c5.92-2.4,13.13-1.34,18.67-4.72,5.1-3.1,7.92-9.53,7.92-15.52,0-9.79-6.91-17.72-15.44-17.72a14.2,14.2,0,0,0-9.37,3.63A15.4,15.4,0,0,1,627,153.8a15.67,15.67,0,0,1-6.76,13.09c-2,1.3-4.53,1.7-6.79,2.08-6.65,1.1-9.87,1.33-9.87,1.33l.13.09c-7.15,1.54-12.57,8.74-12.57,17.4a19,19,0,0,0,5.26,13.27c4.38,4.59,11.07,4.23,16.84,5.19,6.65,1.11,9,3.54,9,3.54l9.44-2.21-1.08-2.88L622.81,203c-3.75-.81-8.19-.66-11.31-3.27s-4.85-7.5-4.85-11.62A15.36,15.36,0,0,1,615.91,173.71Z"/><path d="M615.91,241.5c5.92-2.4,13.13-1.34,18.67-4.72,5.1-3.1,7.92-9.53,7.92-15.52,0-9.79-6.91-17.72-15.44-17.72a14.16,14.16,0,0,0-9.37,3.64A15.38,15.38,0,0,1,627,221.59a15.67,15.67,0,0,1-6.76,13.09c-2,1.3-4.53,1.7-6.79,2.08-6.65,1.1-9.87,1.33-9.87,1.33l.13.09c-7.15,1.54-12.57,8.74-12.57,17.4a19,19,0,0,0,5.26,13.27c4.38,4.59,11.07,4.23,16.84,5.19,6.65,1.11,9,3.54,9,3.54l9.44-2.21-1.08-2.88-7.75-1.69c-3.75-.81-8.19-.66-11.31-3.27s-4.85-7.5-4.85-11.62A15.37,15.37,0,0,1,615.91,241.5Z"/><path d="M581.07,309.29c5.93-2.4,13.14-1.34,18.68-4.72,5.09-3.1,7.92-9.53,7.92-15.52,0-9.79-6.92-17.72-15.45-17.72a14.12,14.12,0,0,0-9.36,3.64,15.39,15.39,0,0,1,9.26,14.41,15.67,15.67,0,0,1-6.77,13.09c-1.94,1.3-4.53,1.7-6.78,2.08-6.65,1.11-9.87,1.33-9.87,1.33l.12.09c-7.15,1.54-12.56,8.74-12.56,17.4a19,19,0,0,0,5.26,13.27c4.37,4.59,11.06,4.23,16.83,5.19,6.65,1.11,9,3.54,9,3.54l9.44-2.21-1.07-2.88L588,338.59c-3.74-.8-8.19-.66-11.3-3.27s-4.86-7.5-4.86-11.62A15.39,15.39,0,0,1,581.07,309.29Z"/><path d="M615.91,309.29c5.92-2.4,13.13-1.34,18.67-4.72,5.1-3.1,7.92-9.53,7.92-15.52,0-9.79-6.91-17.72-15.44-17.72a14.16,14.16,0,0,0-9.37,3.64A15.38,15.38,0,0,1,627,289.38a15.67,15.67,0,0,1-6.76,13.09c-2,1.3-4.53,1.7-6.79,2.08-6.65,1.11-9.87,1.33-9.87,1.33l.13.09c-7.15,1.54-12.57,8.74-12.57,17.4a19,19,0,0,0,5.26,13.27c4.38,4.59,11.07,4.23,16.84,5.19,6.65,1.11,9,3.54,9,3.54l9.44-2.21-1.08-2.88-7.75-1.69c-3.75-.8-8.19-.66-11.31-3.27s-4.85-7.5-4.85-11.62A15.37,15.37,0,0,1,615.91,309.29Z"/><path d="M581.07,377.08c5.93-2.4,13.14-1.34,18.68-4.72,5.09-3.1,7.92-9.53,7.92-15.52,0-9.79-6.92-17.72-15.45-17.72a14.12,14.12,0,0,0-9.36,3.64,15.39,15.39,0,0,1,9.26,14.41,15.67,15.67,0,0,1-6.77,13.09c-1.94,1.3-4.53,1.7-6.78,2.08-6.65,1.1-9.87,1.33-9.87,1.33l.12.09c-7.15,1.54-12.56,8.74-12.56,17.4a19,19,0,0,0,5.26,13.27c2.88,3,7,3.93,11,4.45,2.42.32,11.79.65,12.7-.54,1.13-1.47-2.09-1.76-3-2.09a16.44,16.44,0,0,1-5.55-3.29,15.91,15.91,0,0,1,4.42-25.88Z"/><path d="M636.8,410.88a14.84,14.84,0,0,0-6-3.46,19,19,0,0,0-3.69-.56,30.38,30.38,0,0,1-4.25-.48c-3.75-.8-8.19-.66-11.31-3.27s-4.85-7.5-4.85-11.62a15.39,15.39,0,0,1,9.26-14.41c5.92-2.4,13.13-1.34,18.67-4.72,5.1-3.1,7.92-9.53,7.92-15.52,0-9.79-6.91-17.72-15.44-17.72a14.16,14.16,0,0,0-9.37,3.64A15.38,15.38,0,0,1,627,357.17a15.67,15.67,0,0,1-6.76,13.09c-2,1.3-4.53,1.7-6.79,2.08-6.65,1.1-9.86,1.33-9.86,1.33l.12.09c-7.15,1.54-12.57,8.74-12.57,17.4a19,19,0,0,0,5.26,13.27c4.38,4.59,11.07,4.23,16.84,5.19a24.27,24.27,0,0,1,6.55,2A15.62,15.62,0,0,1,627,425c0,5.26-1.27,10.59-5,13.37-2.21,2.1-5.77,2-5.64,2.32.5,1.41,3.65,2.1,6.75,2.22,3.65,0,7.46-.24,11.52-2.72,5.1-3.1,7.92-9.53,7.92-15.52A18.86,18.86,0,0,0,636.8,410.88Z"/><path d="M618.52,37c-.35-1-1.67-1.56-6.64-2.77a25.35,25.35,0,0,0-8.35.47l.13.09c-7.15,1.55-12.57,8.75-12.57,17.41a19,19,0,0,0,5.26,13.27c4.38,4.59,11.07,4.23,16.84,5.19,6.65,1.11,9,3.54,9,3.54L631.64,72l-1.08-2.88-7.75-1.69c-3.75-.81-8.19-.66-11.31-3.27s-4.85-7.5-4.85-11.62a15.54,15.54,0,0,1,8-13.83C615.86,38,618.76,37.71,618.52,37Z"/><path d="M581.07,444.87c5.93-2.4,13.14-1.34,18.68-4.72,5.09-3.1,7.92-9.53,7.92-15.52,0-10.25-8.17-19.51-19-16.54a6.94,6.94,0,0,0-2.82,1.12c-1,1,1,2.33,1.51,2.78,3.6,3.27,4.72,8.26,4.72,13a15.67,15.67,0,0,1-6.77,13.09c-1.94,1.3-4.53,1.7-6.78,2.08-6.65,1.11-9.87,1.33-9.87,1.33l.12.09c-7.15,1.54-12.56,8.74-12.56,17.4a19,19,0,0,0,5.26,13.28c4.37,4.58,11.06,4.22,16.83,5.18,6.65,1.11,9,3.54,9,3.54l9.44-2.21-1.07-2.88L588,474.17c-3.74-.8-8.19-.66-11.3-3.27s-4.86-7.5-4.86-11.62A15.39,15.39,0,0,1,581.07,444.87Z"/><path d="M581.07,512.66c5.93-2.4,13.14-1.34,18.68-4.72,5.09-3.1,7.92-9.53,7.92-15.52,0-9.79-6.92-17.72-15.45-17.72a14.12,14.12,0,0,0-9.36,3.64,15.39,15.39,0,0,1,9.26,14.41,15.67,15.67,0,0,1-6.77,13.09c-1.94,1.3-4.53,1.7-6.78,2.08-6.65,1.11-9.87,1.33-9.87,1.33l.12.09c-7.15,1.54-12.56,8.75-12.56,17.4A19,19,0,0,0,561.52,540c4.37,4.58,11.06,4.22,16.83,5.18,6.65,1.11,9,3.55,9,3.55l9.44-2.22-1.07-2.88L588,542c-3.74-.8-8.19-.66-11.3-3.27s-4.86-7.5-4.86-11.62A15.39,15.39,0,0,1,581.07,512.66Z"/><path d="M581.07,580.45c5.93-2.4,13.14-1.34,18.68-4.72,5.09-3.1,7.92-9.53,7.92-15.52,0-9.78-6.92-17.72-15.45-17.72a14.12,14.12,0,0,0-9.36,3.64,15.39,15.39,0,0,1,9.26,14.41,15.67,15.67,0,0,1-6.77,13.09c-1.94,1.3-4.53,1.7-6.78,2.08-6.65,1.11-9.87,1.33-9.87,1.33l.12.09c-7.15,1.54-12.56,8.75-12.56,17.4a19,19,0,0,0,5.26,13.28c4.37,4.58,11.06,4.22,16.83,5.18,6.65,1.11,9,3.55,9,3.55l9.44-2.22-1.07-2.88L588,609.75c-3.74-.8-8.19-.66-11.3-3.27s-4.86-7.5-4.86-11.62A15.39,15.39,0,0,1,581.07,580.45Z"/><path d="M581.07,648.24c5.93-2.4,13.14-1.34,18.68-4.71,5.09-3.11,7.92-9.54,7.92-15.53,0-9.78-6.92-17.72-15.45-17.72a14.12,14.12,0,0,0-9.36,3.64,15.39,15.39,0,0,1,9.26,14.41,15.67,15.67,0,0,1-6.77,13.09c-1.94,1.3-4.53,1.7-6.78,2.08-6.65,1.11-9.87,1.33-9.87,1.33l.12.09c-7.15,1.55-12.56,8.75-12.56,17.4a19,19,0,0,0,5.26,13.28c4.37,4.58,11.06,4.22,16.83,5.18,6.65,1.11,9,3.55,9,3.55l9.44-2.22-1.07-2.88L588,677.54c-3.74-.8-8.19-.66-11.3-3.27s-4.86-7.5-4.86-11.62A15.4,15.4,0,0,1,581.07,648.24Z"/><path d="M615.91,512.66c5.92-2.4,13.13-1.34,18.67-4.72,5.1-3.1,7.92-9.53,7.92-15.52,0-9.79-6.91-17.72-15.44-17.72a14.16,14.16,0,0,0-9.37,3.64A15.38,15.38,0,0,1,627,492.75a15.67,15.67,0,0,1-6.76,13.09c-2,1.3-4.53,1.7-6.79,2.08-6.65,1.11-9.87,1.33-9.87,1.33l.13.09c-7.15,1.54-12.57,8.75-12.57,17.4A19.05,19.05,0,0,0,596.35,540c4.38,4.58,11.07,4.22,16.84,5.18,6.65,1.11,9,3.55,9,3.55l9.44-2.22-1.08-2.88L622.81,542c-3.75-.8-8.19-.66-11.31-3.27s-4.85-7.5-4.85-11.62A15.37,15.37,0,0,1,615.91,512.66Z"/><path d="M615.91,580.45c5.92-2.4,13.13-1.34,18.67-4.72,5.1-3.1,7.92-9.53,7.92-15.52,0-9.78-6.91-17.72-15.44-17.72a14.16,14.16,0,0,0-9.37,3.64A15.38,15.38,0,0,1,627,560.54a15.67,15.67,0,0,1-6.76,13.09c-2,1.3-4.53,1.7-6.79,2.08-6.65,1.11-9.87,1.33-9.87,1.33l.13.09c-7.15,1.54-12.57,8.75-12.57,17.4a19.05,19.05,0,0,0,5.26,13.28c4.38,4.58,11.07,4.22,16.84,5.18,6.65,1.11,9,3.55,9,3.55l9.44-2.22-1.08-2.88-7.75-1.69c-3.75-.8-8.19-.66-11.31-3.27s-4.85-7.5-4.85-11.62A15.37,15.37,0,0,1,615.91,580.45Z"/><path d="M615.91,648.24c5.92-2.4,13.13-1.34,18.67-4.71,5.1-3.11,7.92-9.54,7.92-15.53,0-9.78-6.91-17.72-15.44-17.72a14.16,14.16,0,0,0-9.37,3.64A15.38,15.38,0,0,1,627,628.33a15.67,15.67,0,0,1-6.76,13.09c-2,1.3-4.53,1.7-6.79,2.08-6.65,1.11-9.87,1.33-9.87,1.33l.13.09c-7.15,1.55-12.57,8.75-12.57,17.4a19.05,19.05,0,0,0,5.26,13.28c4.38,4.58,11.07,4.22,16.84,5.18,6.65,1.11,9,3.55,9,3.55l9.44-2.22-1.08-2.88-7.75-1.69c-3.75-.8-8.19-.66-11.31-3.27s-4.85-7.5-4.85-11.62A15.38,15.38,0,0,1,615.91,648.24Z"/><path d="M581.07,716c5.93-2.4,13.14-1.34,18.68-4.71,5.09-3.11,7.92-9.54,7.92-15.53,0-9.78-6.92-17.71-15.45-17.71a14.11,14.11,0,0,0-9.36,3.63,15.4,15.4,0,0,1,9.26,14.41,15.67,15.67,0,0,1-6.77,13.09c-1.94,1.3-4.53,1.7-6.78,2.08-6.65,1.11-9.87,1.33-9.87,1.33l.12.09c-7.15,1.55-12.56,8.75-12.56,17.4a19,19,0,0,0,5.26,13.28c4.37,4.58,11.06,4.22,16.83,5.18,6.65,1.11,9,3.55,9,3.55l9.44-2.22L595.73,747c-2.59-.56-5.17-1.13-7.76-1.68-3.74-.81-8.19-.67-11.3-3.28s-4.86-7.5-4.86-11.62A15.4,15.4,0,0,1,581.07,716Z"/><path d="M615.91,716c5.92-2.4,13.13-1.34,18.67-4.71,5.1-3.11,7.92-9.54,7.92-15.53,0-9.78-6.91-17.71-15.44-17.71a14.15,14.15,0,0,0-9.37,3.63A15.39,15.39,0,0,1,627,696.12a15.67,15.67,0,0,1-6.76,13.09c-2,1.3-4.53,1.7-6.79,2.08-6.65,1.11-9.87,1.33-9.87,1.33l.13.09c-7.15,1.55-12.57,8.75-12.57,17.4a19.05,19.05,0,0,0,5.26,13.28c4.38,4.58,11.07,4.22,16.84,5.18,6.65,1.11,9,3.55,9,3.55l9.44-2.22L630.56,747l-7.75-1.68c-3.75-.81-8.19-.67-11.31-3.28s-4.85-7.5-4.85-11.62A15.38,15.38,0,0,1,615.91,716Z"/><path d="M581.07,783.82c5.93-2.4,13.14-1.34,18.68-4.71,5.09-3.11,7.92-9.54,7.92-15.53,0-9.78-6.92-17.72-15.45-17.72a14.12,14.12,0,0,0-9.36,3.64,15.39,15.39,0,0,1,9.26,14.41A15.67,15.67,0,0,1,585.35,777c-1.94,1.3-4.53,1.7-6.78,2.08-6.65,1.11-9.87,1.33-9.87,1.33l.12.09c-7.15,1.55-12.56,8.75-12.56,17.4a19,19,0,0,0,5.26,13.28c2.88,3,7,3.92,11,4.44,2.42.32,11.79.65,12.7-.54,1.13-1.47-2.09-1.76-3-2.09a16.44,16.44,0,0,1-5.55-3.29,15.91,15.91,0,0,1,4.42-25.88Z"/><path d="M636.8,817.62a14.71,14.71,0,0,0-6-3.45,19,19,0,0,0-3.69-.57,30.36,30.36,0,0,1-4.25-.47c-3.75-.81-8.19-.67-11.31-3.28s-4.85-7.5-4.85-11.62a15.4,15.4,0,0,1,9.26-14.41c5.92-2.4,13.13-1.34,18.67-4.71,5.1-3.11,7.92-9.54,7.92-15.53,0-9.78-6.91-17.72-15.44-17.72a14.16,14.16,0,0,0-9.37,3.64A15.38,15.38,0,0,1,627,763.91,15.67,15.67,0,0,1,620.19,777c-2,1.3-4.53,1.7-6.79,2.08-6.65,1.11-9.86,1.33-9.86,1.33l.12.09c-7.15,1.55-12.57,8.75-12.57,17.4a19.05,19.05,0,0,0,5.26,13.28c4.38,4.58,11.07,4.22,16.84,5.18a24.27,24.27,0,0,1,6.55,2A15.62,15.62,0,0,1,627,831.7c0,5.26-1.27,10.59-5,13.37-2.21,2.1-5.77,2-5.64,2.32.5,1.42,3.65,2.11,6.75,2.22,3.65,0,7.46-.24,11.52-2.71,5.1-3.11,7.92-9.54,7.92-15.53A18.86,18.86,0,0,0,636.8,817.62Z"/><path d="M618.52,443.75c-.35-1-1.67-1.55-6.64-2.77a25.15,25.15,0,0,0-8.35.48l.13.09c-7.15,1.54-12.57,8.74-12.57,17.4a19.05,19.05,0,0,0,5.26,13.28c4.38,4.58,11.07,4.22,16.84,5.18,6.65,1.11,9,3.54,9,3.54l9.44-2.21-1.08-2.88-7.75-1.69c-3.75-.8-8.19-.66-11.31-3.27s-4.85-7.5-4.85-11.62a15.55,15.55,0,0,1,8-13.83C615.86,444.75,618.76,444.46,618.52,443.75Z"/></g></svg>