<svg xmlns="http://www.w3.org/2000/svg" viewBox="0 0 850.39 850.39"><defs><style>.cls-1{fill:#1d1d1b;}</style></defs><g id="Capa_2" data-name="Capa 2"><polygon class="cls-1" points="211.54 156.09 214.24 166.86 221.96 158.88 218.91 169.56 229.58 166.51 221.6 174.23 232.37 176.92 221.6 179.62 229.58 187.34 218.91 184.29 221.96 194.96 214.24 186.98 211.54 197.75 208.84 186.98 201.12 194.96 204.18 184.29 193.5 187.34 201.48 179.62 190.71 176.92 201.48 174.23 193.5 166.51 204.18 169.56 201.12 158.88 208.84 166.86 211.54 156.09"/><polygon class="cls-1" points="42.51 332.03 45.21 342.8 52.93 334.82 49.88 345.5 60.55 342.45 52.58 350.17 63.35 352.87 52.58 355.56 60.55 363.28 49.88 360.23 52.93 370.9 45.21 362.93 42.51 373.7 39.82 362.93 32.1 370.9 35.15 360.23 24.47 363.28 32.45 355.56 21.68 352.87 32.45 350.17 24.47 342.45 35.15 345.5 32.1 334.82 39.82 342.8 42.51 332.03"/><polygon class="cls-1" points="370.01 233.59 372.71 244.36 380.43 236.38 377.38 247.06 388.05 244.01 380.07 251.73 390.85 254.42 380.07 257.12 388.05 264.84 377.38 261.79 380.43 272.46 372.71 264.49 370.01 275.26 367.32 264.49 359.6 272.46 362.65 261.79 351.97 264.84 359.95 257.12 349.18 254.42 359.95 251.73 351.97 244.01 362.65 247.06 359.6 236.38 367.32 244.36 370.01 233.59"/><polygon class="cls-1" points="279.21 378.91 281.91 389.68 289.63 381.7 286.58 392.38 297.25 389.33 289.27 397.05 300.04 399.74 289.27 402.44 297.25 410.16 286.58 407.11 289.63 417.78 281.91 409.8 279.21 420.57 276.51 409.8 268.8 417.78 271.85 407.11 261.17 410.16 269.15 402.44 258.38 399.74 269.15 397.05 261.17 389.33 271.85 392.38 268.8 381.7 276.51 389.68 279.21 378.91"/><polygon class="cls-1" points="32.26 102.24 34.95 113.01 42.67 105.03 39.62 115.7 50.3 112.65 42.32 120.37 53.09 123.07 42.32 125.76 50.3 133.48 39.62 130.43 42.67 141.11 34.95 133.13 32.26 143.9 29.56 133.13 21.84 141.11 24.89 130.43 14.22 133.48 22.2 125.76 11.43 123.07 22.2 120.37 14.22 112.65 24.89 115.7 21.84 105.03 29.56 113.01 32.26 102.24"/><polygon class="cls-1" points="211.54 532.46 214.24 543.23 221.96 535.25 218.91 545.93 229.58 542.88 221.6 550.6 232.37 553.29 221.6 555.99 229.58 563.71 218.91 560.66 221.96 571.33 214.24 563.35 211.54 574.12 208.84 563.35 201.12 571.33 204.18 560.66 193.5 563.71 201.48 555.99 190.71 553.29 201.48 550.6 193.5 542.88 204.18 545.93 201.12 535.25 208.84 543.23 211.54 532.46"/><polygon class="cls-1" points="42.51 708.4 45.21 719.17 52.93 711.2 49.88 721.87 60.55 718.82 52.58 726.54 63.35 729.24 52.58 731.93 60.55 739.65 49.88 736.6 52.93 747.28 45.21 739.29 42.51 750.07 39.82 739.29 32.1 747.28 35.15 736.6 24.47 739.65 32.45 731.93 21.68 729.24 32.45 726.54 24.47 718.82 35.15 721.87 32.1 711.19 39.82 719.17 42.51 708.4"/><polygon class="cls-1" points="370.01 609.96 372.71 620.73 380.43 612.75 377.38 623.43 388.05 620.38 380.07 628.1 390.85 630.79 380.07 633.49 388.05 641.21 377.38 638.16 380.43 648.84 372.71 640.86 370.01 651.63 367.32 640.86 359.6 648.84 362.65 638.16 351.97 641.21 359.95 633.49 349.18 630.79 359.95 628.1 351.97 620.38 362.65 623.43 359.6 612.75 367.32 620.73 370.01 609.96"/><polygon class="cls-1" points="279.21 755.28 281.91 766.05 289.63 758.07 286.58 768.75 297.25 765.7 289.27 773.42 300.04 776.11 289.27 778.81 297.25 786.53 286.58 783.48 289.63 794.15 281.91 786.17 279.21 796.95 276.51 786.17 268.8 794.15 271.85 783.48 261.17 786.53 269.15 778.81 258.38 776.11 269.15 773.42 261.17 765.7 271.85 768.75 268.8 758.07 276.51 766.05 279.21 755.28"/><polygon class="cls-1" points="32.26 478.61 34.95 489.38 42.67 481.4 39.62 492.07 50.3 489.02 42.32 496.74 53.09 499.44 42.32 502.13 50.3 509.86 39.62 506.8 42.67 517.48 34.95 509.5 32.26 520.27 29.56 509.5 21.84 517.48 24.89 506.8 14.22 509.86 22.2 502.13 11.43 499.44 22.2 496.74 14.22 489.02 24.89 492.07 21.84 481.4 29.56 489.38 32.26 478.61"/><polygon class="cls-1" points="638.09 156.09 640.79 166.86 648.51 158.88 645.46 169.56 656.13 166.51 648.15 174.23 658.92 176.92 648.15 179.62 656.13 187.34 645.46 184.29 648.51 194.96 640.79 186.98 638.09 197.75 635.4 186.98 627.68 194.96 630.73 184.29 620.05 187.34 628.03 179.62 617.26 176.92 628.03 174.23 620.05 166.51 630.73 169.56 627.68 158.88 635.4 166.86 638.09 156.09"/><polygon class="cls-1" points="469.07 332.03 471.76 342.8 479.48 334.82 476.43 345.5 487.11 342.45 479.13 350.17 489.9 352.87 479.13 355.56 487.11 363.28 476.43 360.23 479.48 370.9 471.76 362.93 469.07 373.7 466.37 362.93 458.65 370.9 461.7 360.23 451.03 363.28 459.01 355.56 448.24 352.87 459.01 350.17 451.03 342.45 461.7 345.5 458.65 334.82 466.37 342.8 469.07 332.03"/><polygon class="cls-1" points="796.57 233.59 799.26 244.36 806.98 236.38 803.93 247.06 814.61 244.01 806.63 251.73 817.4 254.42 806.63 257.12 814.61 264.84 803.93 261.79 806.98 272.46 799.26 264.49 796.57 275.26 793.87 264.49 786.15 272.46 789.2 261.79 778.52 264.84 786.5 257.12 775.73 254.42 786.5 251.73 778.52 244.01 789.2 247.06 786.15 236.38 793.87 244.36 796.57 233.59"/><polygon class="cls-1" points="705.76 378.91 708.46 389.68 716.18 381.7 713.13 392.38 723.8 389.33 715.83 397.05 726.6 399.74 715.83 402.44 723.8 410.16 713.13 407.11 716.18 417.78 708.46 409.8 705.76 420.57 703.07 409.8 695.35 417.78 698.4 407.11 687.72 410.16 695.7 402.44 684.93 399.74 695.7 397.05 687.72 389.33 698.4 392.38 695.35 381.7 703.07 389.68 705.76 378.91"/><polygon class="cls-1" points="458.81 102.24 461.51 113.01 469.23 105.03 466.18 115.7 476.85 112.65 468.87 120.37 479.64 123.07 468.87 125.76 476.85 133.48 466.18 130.43 469.23 141.11 461.51 133.13 458.81 143.9 456.11 133.13 448.39 141.11 451.44 130.43 440.77 133.48 448.75 125.76 437.98 123.07 448.75 120.37 440.77 112.65 451.44 115.7 448.39 105.03 456.11 113.01 458.81 102.24"/><polygon class="cls-1" points="638.09 532.46 640.79 543.23 648.51 535.25 645.46 545.93 656.13 542.88 648.15 550.6 658.92 553.29 648.15 555.99 656.13 563.71 645.46 560.66 648.51 571.33 640.79 563.35 638.09 574.12 635.4 563.35 627.68 571.33 630.73 560.66 620.05 563.71 628.03 555.99 617.26 553.29 628.03 550.6 620.05 542.88 630.73 545.93 627.68 535.25 635.4 543.23 638.09 532.46"/><polygon class="cls-1" points="469.07 708.4 471.76 719.17 479.48 711.2 476.43 721.87 487.11 718.82 479.13 726.54 489.9 729.24 479.13 731.93 487.11 739.65 476.43 736.6 479.48 747.28 471.76 739.29 469.07 750.07 466.37 739.29 458.65 747.28 461.7 736.6 451.03 739.65 459.01 731.93 448.24 729.24 459.01 726.54 451.03 718.82 461.7 721.87 458.65 711.19 466.37 719.17 469.07 708.4"/><polygon class="cls-1" points="796.57 609.96 799.26 620.73 806.98 612.75 803.93 623.43 814.61 620.38 806.63 628.1 817.4 630.79 806.63 633.49 814.61 641.21 803.93 638.16 806.98 648.84 799.26 640.86 796.57 651.63 793.87 640.86 786.15 648.84 789.2 638.16 778.52 641.21 786.5 633.49 775.73 630.79 786.5 628.1 778.52 620.38 789.2 623.43 786.15 612.75 793.87 620.73 796.57 609.96"/><polygon class="cls-1" points="705.76 755.28 708.46 766.05 716.18 758.07 713.13 768.75 723.8 765.7 715.83 773.42 726.6 776.11 715.83 778.81 723.8 786.53 713.13 783.48 716.18 794.15 708.46 786.17 705.76 796.95 703.07 786.17 695.35 794.15 698.4 783.48 687.72 786.53 695.7 778.81 684.93 776.11 695.7 773.42 687.72 765.7 698.4 768.75 695.35 758.07 703.07 766.05 705.76 755.28"/><polygon class="cls-1" points="458.81 478.61 461.51 489.38 469.23 481.4 466.18 492.07 476.85 489.02 468.87 496.74 479.64 499.44 468.87 502.13 476.85 509.86 466.18 506.8 469.23 517.48 461.51 509.5 458.81 520.27 456.11 509.5 448.39 517.48 451.44 506.8 440.77 509.86 448.75 502.13 437.98 499.44 448.75 496.74 440.77 489.02 451.44 492.07 448.39 481.4 456.11 489.38 458.81 478.61"/><polygon class="cls-1" points="161.8 142.1 153.22 141.3 147.69 147.91 145.8 139.51 137.81 136.3 145.22 131.9 145.8 123.3 152.27 129 160.63 126.89 157.21 134.8 161.8 142.1"/><polygon class="cls-1" points="99.43 146.88 93.63 143.48 87.54 146.33 88.99 139.76 84.4 134.85 91.09 134.2 94.34 128.31 97.03 134.47 103.63 135.75 98.61 140.21 99.43 146.88"/><polygon class="cls-1" points="206.48 107.58 203.48 103.74 198.62 104.02 201.35 99.98 199.58 95.44 204.26 96.8 208.03 93.71 208.19 98.58 212.29 101.21 207.71 102.87 206.48 107.58"/><polygon class="cls-1" points="268.33 106.14 263.9 102.88 258.7 104.69 260.44 99.46 257.11 95.07 262.62 95.11 265.76 90.59 267.43 95.83 272.69 97.43 268.23 100.64 268.33 106.14"/><polygon class="cls-1" points="40.57 201.07 37.58 197.22 32.72 197.5 35.45 193.47 33.68 188.93 38.36 190.28 42.13 187.19 42.29 192.06 46.39 194.69 41.81 196.35 40.57 201.07"/><polygon class="cls-1" points="274.92 173.6 271.24 170.4 266.52 171.62 268.43 167.13 265.81 163.01 270.67 163.44 273.77 159.68 274.86 164.44 279.4 166.23 275.22 168.73 274.92 173.6"/><path class="cls-1" d="M19.29,64.28A19.18,19.18,0,0,1,38.45,82.94,19.17,19.17,0,1,0,3.57,72c0,.17,0,.34,0,.52A19.15,19.15,0,0,1,19.29,64.28Z"/><path class="cls-1" d="M148.87,226a19.17,19.17,0,0,1,26.68-1.84,19.17,19.17,0,1,0-31.44,18.68l.39.33A19.13,19.13,0,0,1,148.87,226Z"/><polygon class="cls-1" points="419.06 190.49 410.48 189.69 404.95 196.31 403.06 187.9 395.07 184.69 402.48 180.29 403.06 171.7 409.53 177.39 417.88 175.28 414.47 183.2 419.06 190.49"/><polygon class="cls-1" points="265.76 247.41 257.18 246.62 251.66 253.23 249.77 244.82 241.77 241.61 249.18 237.22 249.76 228.62 256.24 234.31 264.59 232.21 261.18 240.12 265.76 247.41"/><polygon class="cls-1" points="327.1 230.85 323.07 228.1 318.53 229.87 319.9 225.19 316.82 221.41 321.69 221.26 324.34 217.17 325.98 221.76 330.69 223.01 326.83 225.99 327.1 230.85"/><polygon class="cls-1" points="332.35 68.91 327.92 65.65 322.72 67.45 324.45 62.23 321.13 57.84 326.63 57.87 329.78 53.36 331.45 58.6 336.71 60.2 332.24 63.41 332.35 68.91"/><polygon class="cls-1" points="389.64 132.27 385.79 129.29 381.14 130.77 382.79 126.19 379.94 122.23 384.82 122.38 387.7 118.45 389.07 123.13 393.69 124.65 389.67 127.4 389.64 132.27"/><polygon class="cls-1" points="132.82 309.78 129.14 306.58 124.42 307.8 126.33 303.31 123.71 299.2 128.57 299.62 131.68 295.87 132.77 300.62 137.3 302.41 133.13 304.92 132.82 309.78"/><path class="cls-1" d="M261.17,320.46a19.16,19.16,0,0,1-23.8,12.19,19.17,19.17,0,1,0,21.56-29.54l-.5-.15A19.14,19.14,0,0,1,261.17,320.46Z"/><path class="cls-1" d="M30,286.37A19.18,19.18,0,0,1,13.49,265.3a19.17,19.17,0,1,0,33.09,15.59c0-.18,0-.35.05-.52A19.14,19.14,0,0,1,30,286.37Z"/><polygon class="cls-1" points="204.18 308.26 199.89 305.75 195.39 307.85 196.46 303 193.06 299.36 198.01 298.88 200.42 294.52 202.41 299.08 207.29 300.03 203.57 303.33 204.18 308.26"/><polygon class="cls-1" points="328.82 338.57 324.53 336.05 320.03 338.16 321.1 333.3 317.7 329.67 322.65 329.19 325.06 324.83 327.05 329.39 331.93 330.33 328.21 333.64 328.82 338.57"/><path class="cls-1" d="M320.51,143.85a19.17,19.17,0,0,1,23.13-13.43,19.17,19.17,0,1,0-20,30.63l.5.13A19.15,19.15,0,0,1,320.51,143.85Z"/><path class="cls-1" d="M107.46,398a19.17,19.17,0,0,1-2.55-26.62,19.17,19.17,0,1,0,19.5,30.94l.32-.4A19.15,19.15,0,0,1,107.46,398Z"/><polygon class="cls-1" points="392.61 391.79 384.03 390.99 378.51 397.61 376.62 389.2 368.62 385.99 376.03 381.6 376.61 373 383.08 378.69 391.44 376.58 388.03 384.5 392.61 391.79"/><polygon class="cls-1" points="148.7 374.15 145.71 370.3 140.84 370.58 143.58 366.55 141.81 362.01 146.49 363.36 150.26 360.27 150.42 365.14 154.52 367.78 149.94 369.43 148.7 374.15"/><polygon class="cls-1" points="124.71 78.46 121.03 75.26 116.31 76.48 118.21 71.99 115.6 67.88 120.45 68.3 123.56 64.55 124.65 69.3 129.19 71.09 125.01 73.59 124.71 78.46"/><polygon class="cls-1" points="417.17 328.5 412.88 325.98 408.37 328.09 409.44 323.23 406.05 319.6 410.99 319.11 413.4 314.76 415.39 319.32 420.27 320.26 416.56 323.56 417.17 328.5"/><polygon class="cls-1" points="217.28 415.43 208.7 414.63 203.17 421.25 201.28 412.84 193.29 409.63 200.7 405.24 201.28 396.64 207.75 402.33 216.1 400.23 212.69 408.14 217.28 415.43"/><polygon class="cls-1" points="93.9 263.09 85.32 262.29 79.79 268.9 77.9 260.5 69.91 257.29 77.32 252.89 77.9 244.29 84.37 249.99 92.72 247.88 89.31 255.79 93.9 263.09"/><polygon class="cls-1" points="161.8 518.47 153.22 517.67 147.69 524.28 145.8 515.88 137.81 512.67 145.22 508.27 145.8 499.67 152.27 505.37 160.63 503.26 157.21 511.17 161.8 518.47"/><polygon class="cls-1" points="99.43 523.25 93.63 519.85 87.54 522.7 88.99 516.13 84.4 511.22 91.09 510.57 94.34 504.68 97.03 510.85 103.63 512.12 98.61 516.58 99.43 523.25"/><polygon class="cls-1" points="206.48 483.96 203.48 480.11 198.62 480.39 201.35 476.36 199.58 471.81 204.26 473.17 208.03 470.08 208.19 474.95 212.29 477.58 207.71 479.24 206.48 483.96"/><polygon class="cls-1" points="268.33 482.51 263.9 479.25 258.7 481.06 260.44 475.83 257.11 471.44 262.62 471.48 265.76 466.96 267.43 472.2 272.69 473.8 268.23 477.01 268.33 482.51"/><polygon class="cls-1" points="40.57 577.44 37.58 573.59 32.72 573.87 35.45 569.84 33.68 565.3 38.36 566.65 42.13 563.56 42.29 568.43 46.39 571.07 41.81 572.72 40.57 577.44"/><polygon class="cls-1" points="274.92 549.97 271.24 546.77 266.52 547.99 268.43 543.5 265.81 539.38 270.67 539.81 273.77 536.05 274.86 540.8 279.4 542.6 275.22 545.1 274.92 549.97"/><path class="cls-1" d="M19.29,440.65a19.18,19.18,0,0,1,19.16,18.66,19.17,19.17,0,1,0-34.88-11c0,.17,0,.34,0,.52A19.15,19.15,0,0,1,19.29,440.65Z"/><path class="cls-1" d="M148.87,602.36a19.17,19.17,0,0,1,26.68-1.85,19.17,19.17,0,1,0-31.44,18.68l.39.33A19.1,19.1,0,0,1,148.87,602.36Z"/><polygon class="cls-1" points="419.06 566.86 410.48 566.07 404.95 572.68 403.06 564.27 395.07 561.06 402.48 556.67 403.06 548.07 409.53 553.76 417.88 551.65 414.47 559.57 419.06 566.86"/><polygon class="cls-1" points="265.76 623.78 257.18 622.99 251.66 629.6 249.77 621.19 241.77 617.98 249.18 613.59 249.76 604.99 256.24 610.68 264.59 608.58 261.18 616.49 265.76 623.78"/><polygon class="cls-1" points="327.1 607.22 323.07 604.48 318.53 606.24 319.9 601.56 316.82 597.78 321.69 597.63 324.34 593.54 325.98 598.13 330.69 599.38 326.83 602.36 327.1 607.22"/><polygon class="cls-1" points="332.35 445.28 327.92 442.02 322.72 443.82 324.45 438.6 321.13 434.21 326.63 434.24 329.78 429.73 331.45 434.97 336.71 436.57 332.24 439.78 332.35 445.28"/><polygon class="cls-1" points="389.64 508.64 385.79 505.66 381.14 507.14 382.79 502.56 379.94 498.6 384.82 498.75 387.7 494.82 389.07 499.5 393.69 501.02 389.67 503.77 389.64 508.64"/><polygon class="cls-1" points="132.82 686.15 129.14 682.96 124.42 684.17 126.33 679.68 123.71 675.57 128.57 676 131.68 672.24 132.77 676.99 137.3 678.78 133.13 681.29 132.82 686.15"/><path class="cls-1" d="M261.17,696.83a19.18,19.18,0,0,1-23.8,12.2,19.17,19.17,0,1,0,21.56-29.55l-.5-.15A19.14,19.14,0,0,1,261.17,696.83Z"/><path class="cls-1" d="M30,662.74a19.17,19.17,0,0,1-16.48-21.07,19.17,19.17,0,1,0,33.09,15.59c0-.18,0-.35.05-.52A19.14,19.14,0,0,1,30,662.74Z"/><polygon class="cls-1" points="204.18 684.63 199.89 682.12 195.39 684.22 196.46 679.37 193.06 675.73 198.01 675.25 200.42 670.89 202.41 675.45 207.29 676.4 203.57 679.7 204.18 684.63"/><polygon class="cls-1" points="328.82 714.94 324.53 712.42 320.03 714.53 321.1 709.67 317.7 706.04 322.65 705.56 325.06 701.2 327.05 705.76 331.93 706.71 328.21 710.01 328.82 714.94"/><path class="cls-1" d="M320.51,520.22a19.17,19.17,0,0,1,23.13-13.43,19.17,19.17,0,1,0-20,30.63l.5.13A19.15,19.15,0,0,1,320.51,520.22Z"/><path class="cls-1" d="M107.46,774.34a19.17,19.17,0,0,1-2.55-26.62,19.17,19.17,0,1,0,19.5,30.94l.32-.4A19.15,19.15,0,0,1,107.46,774.34Z"/><polygon class="cls-1" points="392.61 768.16 384.03 767.37 378.51 773.98 376.62 765.57 368.62 762.36 376.03 757.97 376.61 749.37 383.08 755.06 391.44 752.96 388.03 760.87 392.61 768.16"/><polygon class="cls-1" points="148.7 750.52 145.71 746.67 140.84 746.96 143.58 742.92 141.81 738.38 146.49 739.73 150.26 736.64 150.42 741.51 154.52 744.15 149.94 745.8 148.7 750.52"/><polygon class="cls-1" points="124.71 454.83 121.03 451.63 116.31 452.85 118.21 448.36 115.6 444.25 120.45 444.67 123.56 440.92 124.65 445.67 129.19 447.46 125.01 449.96 124.71 454.83"/><polygon class="cls-1" points="417.17 704.87 412.88 702.35 408.37 704.46 409.44 699.6 406.05 695.97 410.99 695.48 413.4 691.13 415.39 695.69 420.27 696.63 416.56 699.93 417.17 704.87"/><polygon class="cls-1" points="217.28 791.8 208.7 791 203.17 797.62 201.28 789.21 193.29 786 200.7 781.61 201.28 773.01 207.75 778.7 216.1 776.6 212.69 784.51 217.28 791.8"/><polygon class="cls-1" points="93.9 639.46 85.32 638.66 79.79 645.27 77.9 636.87 69.91 633.66 77.32 629.26 77.9 620.66 84.37 626.36 92.72 624.25 89.31 632.16 93.9 639.46"/><polygon class="cls-1" points="588.35 142.1 579.77 141.3 574.25 147.91 572.36 139.51 564.36 136.3 571.77 131.9 572.35 123.3 578.82 129 587.18 126.89 583.76 134.8 588.35 142.1"/><polygon class="cls-1" points="525.98 146.88 520.19 143.48 514.1 146.33 515.54 139.76 510.95 134.85 517.64 134.2 520.89 128.31 523.58 134.47 530.18 135.75 525.16 140.21 525.98 146.88"/><polygon class="cls-1" points="633.03 107.58 630.04 103.74 625.17 104.02 627.91 99.98 626.13 95.44 630.82 96.8 634.59 93.71 634.74 98.58 638.85 101.21 634.26 102.87 633.03 107.58"/><polygon class="cls-1" points="694.89 106.14 690.45 102.88 685.26 104.69 686.99 99.46 683.67 95.07 689.17 95.11 692.31 90.59 693.98 95.83 699.25 97.43 694.78 100.64 694.89 106.14"/><polygon class="cls-1" points="467.13 201.07 464.13 197.22 459.27 197.5 462 193.47 460.23 188.93 464.91 190.28 468.68 187.19 468.84 192.06 472.95 194.69 468.36 196.35 467.13 201.07"/><polygon class="cls-1" points="701.47 173.6 697.79 170.4 693.07 171.62 694.98 167.13 692.36 163.01 697.22 163.44 700.32 159.68 701.42 164.44 705.95 166.23 701.77 168.73 701.47 173.6"/><path class="cls-1" d="M445.84,64.28A19.17,19.17,0,0,1,465,82.94a19.17,19.17,0,1,0-34.88-11c0,.17,0,.34,0,.52A19.15,19.15,0,0,1,445.84,64.28Z"/><path class="cls-1" d="M575.42,226a19.17,19.17,0,0,1,26.68-1.84,19.17,19.17,0,1,0-31.44,18.68l.39.33A19.19,19.19,0,0,1,575.42,226Z"/><polygon class="cls-1" points="845.61 190.49 837.03 189.69 831.51 196.31 829.62 187.9 821.62 184.69 829.03 180.29 829.61 171.7 836.08 177.39 844.44 175.28 841.02 183.2 845.61 190.49"/><polygon class="cls-1" points="692.32 247.41 683.74 246.62 678.21 253.23 676.32 244.82 668.33 241.61 675.74 237.22 676.32 228.62 682.79 234.31 691.14 232.21 687.73 240.12 692.32 247.41"/><polygon class="cls-1" points="753.65 230.85 749.63 228.1 745.08 229.87 746.45 225.19 743.37 221.41 748.24 221.26 750.89 217.17 752.53 221.76 757.24 223.01 753.38 225.99 753.65 230.85"/><polygon class="cls-1" points="758.9 68.91 754.47 65.65 749.27 67.45 751 62.23 747.68 57.84 753.18 57.87 756.33 53.36 758 58.6 763.26 60.2 758.79 63.41 758.9 68.91"/><polygon class="cls-1" points="816.2 132.27 812.34 129.29 807.7 130.77 809.34 126.19 806.5 122.23 811.37 122.38 814.25 118.45 815.62 123.13 820.25 124.65 816.22 127.4 816.2 132.27"/><polygon class="cls-1" points="559.38 309.78 555.7 306.58 550.98 307.8 552.88 303.31 550.27 299.2 555.12 299.62 558.23 295.87 559.32 300.62 563.86 302.41 559.68 304.92 559.38 309.78"/><path class="cls-1" d="M687.72,320.46a19.16,19.16,0,0,1-23.8,12.19,19.17,19.17,0,1,0,21.56-29.54L685,303A19.11,19.11,0,0,1,687.72,320.46Z"/><path class="cls-1" d="M456.52,286.37a19.17,19.17,0,0,1-16.47-21.07,19.17,19.17,0,1,0,33.08,15.59l.06-.52A19.17,19.17,0,0,1,456.52,286.37Z"/><polygon class="cls-1" points="630.74 308.26 626.45 305.75 621.94 307.85 623.01 303 619.61 299.36 624.56 298.88 626.97 294.52 628.96 299.08 633.85 300.03 630.13 303.33 630.74 308.26"/><polygon class="cls-1" points="755.37 338.57 751.08 336.05 746.58 338.16 747.65 333.3 744.25 329.67 749.2 329.19 751.61 324.83 753.6 329.39 758.48 330.33 754.76 333.64 755.37 338.57"/><path class="cls-1" d="M747.07,143.85a19.17,19.17,0,0,1,23.13-13.43,19.17,19.17,0,1,0-20,30.63l.5.13A19.15,19.15,0,0,1,747.07,143.85Z"/><path class="cls-1" d="M534,398a19.17,19.17,0,0,1-2.54-26.62A19.17,19.17,0,1,0,551,402.29l.33-.4A19.17,19.17,0,0,1,534,398Z"/><polygon class="cls-1" points="819.16 391.79 810.58 390.99 805.06 397.61 803.17 389.2 795.17 385.99 802.58 381.6 803.16 373 809.63 378.69 817.99 376.58 814.58 384.5 819.16 391.79"/><polygon class="cls-1" points="575.25 374.15 572.26 370.3 567.39 370.58 570.13 366.55 568.36 362.01 573.04 363.36 576.81 360.27 576.97 365.14 581.07 367.78 576.49 369.43 575.25 374.15"/><polygon class="cls-1" points="551.26 78.46 547.58 75.26 542.86 76.48 544.77 71.99 542.15 67.88 547.01 68.3 550.11 64.55 551.21 69.3 555.74 71.09 551.56 73.59 551.26 78.46"/><polygon class="cls-1" points="843.72 328.5 839.43 325.98 834.92 328.09 835.99 323.23 832.6 319.6 837.55 319.11 839.96 314.76 841.95 319.32 846.83 320.26 843.11 323.56 843.72 328.5"/><polygon class="cls-1" points="643.83 415.43 635.25 414.63 629.73 421.25 627.84 412.84 619.84 409.63 627.25 405.24 627.83 396.64 634.3 402.33 642.66 400.23 639.25 408.14 643.83 415.43"/><polygon class="cls-1" points="520.45 263.09 511.87 262.29 506.35 268.9 504.45 260.5 496.46 257.29 503.87 252.89 504.45 244.29 510.92 249.99 519.28 247.88 515.87 255.79 520.45 263.09"/><polygon class="cls-1" points="588.35 518.47 579.77 517.67 574.25 524.28 572.36 515.88 564.36 512.67 571.77 508.27 572.35 499.67 578.82 505.37 587.18 503.26 583.76 511.17 588.35 518.47"/><polygon class="cls-1" points="525.98 523.25 520.19 519.85 514.1 522.7 515.54 516.13 510.95 511.22 517.64 510.57 520.89 504.68 523.58 510.85 530.18 512.12 525.16 516.58 525.98 523.25"/><polygon class="cls-1" points="633.03 483.96 630.04 480.11 625.17 480.39 627.91 476.36 626.13 471.81 630.82 473.17 634.59 470.08 634.74 474.95 638.85 477.58 634.26 479.24 633.03 483.96"/><polygon class="cls-1" points="694.89 482.51 690.45 479.25 685.26 481.06 686.99 475.83 683.67 471.44 689.17 471.48 692.31 466.96 693.98 472.2 699.25 473.8 694.78 477.01 694.89 482.51"/><polygon class="cls-1" points="467.13 577.44 464.13 573.59 459.27 573.87 462 569.84 460.23 565.3 464.91 566.65 468.68 563.56 468.84 568.43 472.95 571.07 468.36 572.72 467.13 577.44"/><polygon class="cls-1" points="701.47 549.97 697.79 546.77 693.07 547.99 694.98 543.5 692.36 539.38 697.22 539.81 700.32 536.05 701.42 540.8 705.95 542.6 701.77 545.1 701.47 549.97"/><path class="cls-1" d="M445.84,440.65A19.17,19.17,0,0,1,465,459.31a19.17,19.17,0,1,0-34.88-11c0,.17,0,.34,0,.52A19.15,19.15,0,0,1,445.84,440.65Z"/><path class="cls-1" d="M575.42,602.36a19.17,19.17,0,0,1,26.68-1.85,19.17,19.17,0,1,0-31.44,18.68l.39.33A19.16,19.16,0,0,1,575.42,602.36Z"/><polygon class="cls-1" points="845.61 566.86 837.03 566.07 831.51 572.68 829.62 564.27 821.62 561.06 829.03 556.67 829.61 548.07 836.08 553.76 844.44 551.65 841.02 559.57 845.61 566.86"/><polygon class="cls-1" points="692.32 623.78 683.74 622.99 678.21 629.6 676.32 621.19 668.33 617.98 675.74 613.59 676.32 604.99 682.79 610.68 691.14 608.58 687.73 616.49 692.32 623.78"/><polygon class="cls-1" points="753.65 607.22 749.63 604.48 745.08 606.24 746.45 601.56 743.37 597.78 748.24 597.63 750.89 593.54 752.53 598.13 757.24 599.38 753.38 602.36 753.65 607.22"/><polygon class="cls-1" points="758.9 445.28 754.47 442.02 749.27 443.82 751 438.6 747.68 434.21 753.18 434.24 756.33 429.73 758 434.97 763.26 436.57 758.79 439.78 758.9 445.28"/><polygon class="cls-1" points="816.2 508.64 812.34 505.66 807.7 507.14 809.34 502.56 806.5 498.6 811.37 498.75 814.25 494.82 815.62 499.5 820.25 501.02 816.22 503.77 816.2 508.64"/><polygon class="cls-1" points="559.38 686.15 555.7 682.96 550.98 684.17 552.88 679.68 550.27 675.57 555.12 676 558.23 672.24 559.32 676.99 563.86 678.78 559.68 681.29 559.38 686.15"/><path class="cls-1" d="M687.72,696.83a19.17,19.17,0,0,1-23.8,12.2,19.17,19.17,0,1,0,21.56-29.55l-.5-.15A19.11,19.11,0,0,1,687.72,696.83Z"/><path class="cls-1" d="M456.52,662.74a19.16,19.16,0,0,1-16.47-21.07,19.17,19.17,0,1,0,33.08,15.59l.06-.52A19.17,19.17,0,0,1,456.52,662.74Z"/><polygon class="cls-1" points="630.74 684.63 626.45 682.12 621.94 684.22 623.01 679.37 619.61 675.73 624.56 675.25 626.97 670.89 628.96 675.45 633.85 676.4 630.13 679.7 630.74 684.63"/><polygon class="cls-1" points="755.37 714.94 751.08 712.42 746.58 714.53 747.65 709.67 744.25 706.04 749.2 705.56 751.61 701.2 753.6 705.76 758.48 706.71 754.76 710.01 755.37 714.94"/><path class="cls-1" d="M747.07,520.22a19.17,19.17,0,0,1,23.13-13.43,19.17,19.17,0,1,0-20,30.63l.5.13A19.15,19.15,0,0,1,747.07,520.22Z"/><path class="cls-1" d="M534,774.34a19.17,19.17,0,0,1-2.54-26.62A19.17,19.17,0,1,0,551,778.66l.33-.4A19.17,19.17,0,0,1,534,774.34Z"/><polygon class="cls-1" points="819.16 768.16 810.58 767.37 805.06 773.98 803.17 765.57 795.17 762.36 802.58 757.97 803.16 749.37 809.63 755.06 817.99 752.96 814.58 760.87 819.16 768.16"/><polygon class="cls-1" points="575.25 750.52 572.26 746.67 567.39 746.96 570.13 742.92 568.36 738.38 573.04 739.73 576.81 736.64 576.97 741.51 581.07 744.15 576.49 745.8 575.25 750.52"/><polygon class="cls-1" points="551.26 454.83 547.58 451.63 542.86 452.85 544.77 448.36 542.15 444.25 547.01 444.67 550.11 440.92 551.21 445.67 555.74 447.46 551.56 449.96 551.26 454.83"/><polygon class="cls-1" points="843.72 704.87 839.43 702.35 834.92 704.46 835.99 699.6 832.6 695.97 837.55 695.48 839.96 691.13 841.95 695.69 846.83 696.63 843.11 699.93 843.72 704.87"/><polygon class="cls-1" points="643.83 791.8 635.25 791 629.73 797.62 627.84 789.21 619.84 786 627.25 781.61 627.83 773.01 634.3 778.7 642.66 776.6 639.25 784.51 643.83 791.8"/><polygon class="cls-1" points="520.45 639.46 511.87 638.66 506.35 645.27 504.45 636.87 496.46 633.66 503.87 629.26 504.45 620.66 510.92 626.36 519.28 624.25 515.87 632.16 520.45 639.46"/></g></svg>