<svg id="Capa_1" data-name="Capa 1" xmlns="http://www.w3.org/2000/svg" viewBox="0 0 850.39 850.39"><defs><style>.cls-1{fill:#e6007e;}</style></defs><g id="Capa_1-2" data-name="Capa 1"><polygon class="cls-1" points="211.92 156.56 214.61 167.31 222.31 159.35 219.27 170.01 229.92 166.96 221.96 174.67 232.71 177.36 221.96 180.05 229.92 187.76 219.27 184.71 222.31 195.37 214.61 187.4 211.92 198.15 209.22 187.4 201.52 195.37 204.56 184.71 193.91 187.76 201.87 180.05 191.12 177.36 201.87 174.67 193.91 166.96 204.56 170.01 201.52 159.35 209.22 167.31 211.92 156.56"/><polygon class="cls-1" points="43.19 332.2 45.88 342.95 53.59 334.98 50.54 345.64 61.2 342.59 53.23 350.3 63.98 352.99 53.23 355.68 61.2 363.39 50.54 360.34 53.59 371 45.88 363.03 43.19 373.79 40.5 363.03 32.79 371 35.84 360.34 25.18 363.39 33.14 355.68 22.39 352.99 33.14 350.3 25.18 342.59 35.84 345.64 32.79 334.98 40.5 342.95 43.19 332.2"/><polygon class="cls-1" points="370.11 233.93 372.8 244.68 380.51 236.72 377.46 247.37 388.12 244.33 380.15 252.03 390.91 254.72 380.15 257.42 388.12 265.12 377.46 262.08 380.51 272.73 372.8 264.77 370.11 275.52 367.42 264.77 359.71 272.73 362.76 262.08 352.1 265.12 360.07 257.42 349.31 254.72 360.07 252.03 352.1 244.33 362.76 247.37 359.71 236.72 367.42 244.68 370.11 233.93"/><polygon class="cls-1" points="279.47 378.99 282.16 389.74 289.87 381.78 286.82 392.44 297.48 389.39 289.51 397.1 300.26 399.79 289.51 402.48 297.48 410.19 286.82 407.14 289.87 417.8 282.16 409.83 279.47 420.58 276.78 409.83 269.07 417.8 272.12 407.14 261.46 410.19 269.42 402.48 258.67 399.79 269.42 397.1 261.46 389.39 272.12 392.44 269.07 381.78 276.78 389.74 279.47 378.99"/><polygon class="cls-1" points="32.95 102.8 35.64 113.56 43.35 105.59 40.3 116.25 50.96 113.2 42.99 120.91 53.74 123.6 42.99 126.29 50.96 134 40.3 130.95 43.35 141.61 35.64 133.64 32.95 144.4 30.26 133.64 22.55 141.61 25.6 130.95 14.94 134 22.9 126.29 12.15 123.6 22.9 120.91 14.94 113.2 25.6 116.25 22.55 105.59 30.26 113.56 32.95 102.8"/><polygon class="cls-1" points="211.92 532.27 214.61 543.02 222.31 535.06 219.27 545.72 229.92 542.67 221.96 550.38 232.71 553.07 221.96 555.76 229.92 563.46 219.27 560.42 222.31 571.08 214.61 563.11 211.92 573.86 209.22 563.11 201.52 571.08 204.56 560.42 193.91 563.46 201.87 555.76 191.12 553.07 201.87 550.38 193.91 542.67 204.56 545.72 201.52 535.06 209.22 543.02 211.92 532.27"/><polygon class="cls-1" points="43.19 707.9 45.88 718.66 53.59 710.69 50.54 721.35 61.2 718.3 53.23 726.01 63.98 728.7 53.23 731.39 61.2 739.1 50.54 736.05 53.59 746.71 45.88 738.74 43.19 749.5 40.5 738.74 32.79 746.71 35.84 736.05 25.18 739.1 33.14 731.39 22.39 728.7 33.14 726.01 25.18 718.3 35.84 721.35 32.79 710.69 40.5 718.66 43.19 707.9"/><polygon class="cls-1" points="370.11 609.64 372.8 620.39 380.51 612.42 377.46 623.08 388.12 620.03 380.15 627.74 390.91 630.43 380.15 633.12 388.12 640.83 377.46 637.78 380.51 648.44 372.8 640.48 370.11 651.23 367.42 640.48 359.71 648.44 362.76 637.78 352.1 640.83 360.07 633.12 349.31 630.43 360.07 627.74 352.1 620.03 362.76 623.08 359.71 612.42 367.42 620.39 370.11 609.64"/><polygon class="cls-1" points="279.47 754.7 282.16 765.45 289.87 757.49 286.82 768.14 297.48 765.1 289.51 772.8 300.26 775.5 289.51 778.19 297.48 785.89 286.82 782.85 289.87 793.5 282.16 785.54 279.47 796.29 276.78 785.54 269.07 793.5 272.12 782.85 261.46 785.89 269.42 778.19 258.67 775.5 269.42 772.8 261.46 765.1 272.12 768.14 269.07 757.49 276.78 765.45 279.47 754.7"/><polygon class="cls-1" points="32.95 478.51 35.64 489.26 43.35 481.3 40.3 491.96 50.96 488.91 42.99 496.62 53.74 499.31 42.99 502 50.96 509.71 40.3 506.66 43.35 517.32 35.64 509.35 32.95 520.1 30.26 509.35 22.55 517.32 25.6 506.66 14.94 509.71 22.9 502 12.15 499.31 22.9 496.62 14.94 488.91 25.6 491.96 22.55 481.3 30.26 489.26 32.95 478.51"/><polygon class="cls-1" points="637.72 156.56 640.41 167.31 648.12 159.35 645.07 170.01 655.73 166.96 647.76 174.67 658.51 177.36 647.76 180.05 655.73 187.76 645.07 184.71 648.12 195.37 640.41 187.4 637.72 198.15 635.03 187.4 627.32 195.37 630.37 184.71 619.71 187.76 627.67 180.05 616.92 177.36 627.67 174.67 619.71 166.96 630.37 170.01 627.32 159.35 635.03 167.31 637.72 156.56"/><polygon class="cls-1" points="468.99 332.2 471.68 342.95 479.39 334.98 476.34 345.64 487 342.59 479.03 350.3 489.79 352.99 479.03 355.68 487 363.39 476.34 360.34 479.39 371 471.68 363.03 468.99 373.79 466.3 363.03 458.59 371 461.64 360.34 450.98 363.39 458.95 355.68 448.19 352.99 458.95 350.3 450.98 342.59 461.64 345.64 458.59 334.98 466.3 342.95 468.99 332.2"/><polygon class="cls-1" points="795.91 233.93 798.6 244.68 806.31 236.72 803.26 247.37 813.92 244.33 805.96 252.03 816.71 254.72 805.96 257.42 813.92 265.12 803.26 262.08 806.31 272.73 798.6 264.77 795.91 275.52 793.22 264.77 785.51 272.73 788.56 262.08 777.9 265.12 785.87 257.42 775.12 254.72 785.87 252.03 777.9 244.33 788.56 247.37 785.51 236.72 793.22 244.68 795.91 233.93"/><polygon class="cls-1" points="705.27 378.99 707.96 389.74 715.67 381.78 712.62 392.44 723.28 389.39 715.31 397.1 726.07 399.79 715.31 402.48 723.28 410.19 712.62 407.14 715.67 417.8 707.96 409.83 705.27 420.58 702.58 409.83 694.87 417.8 697.92 407.14 687.26 410.19 695.23 402.48 684.47 399.79 695.23 397.1 687.26 389.39 697.92 392.44 694.87 381.78 702.58 389.74 705.27 378.99"/><polygon class="cls-1" points="458.75 102.8 461.44 113.56 469.15 105.59 466.1 116.25 476.76 113.2 468.79 120.91 479.55 123.6 468.79 126.29 476.76 134 466.1 130.95 469.15 141.61 461.44 133.64 458.75 144.4 456.06 133.64 448.35 141.61 451.4 130.95 440.74 134 448.71 126.29 437.95 123.6 448.71 120.91 440.74 113.2 451.4 116.25 448.35 105.59 456.06 113.56 458.75 102.8"/><polygon class="cls-1" points="637.72 532.27 640.41 543.02 648.12 535.06 645.07 545.72 655.73 542.67 647.76 550.38 658.51 553.07 647.76 555.76 655.73 563.46 645.07 560.42 648.12 571.08 640.41 563.11 637.72 573.86 635.03 563.11 627.32 571.08 630.37 560.42 619.71 563.46 627.67 555.76 616.92 553.07 627.67 550.38 619.71 542.67 630.37 545.72 627.32 535.06 635.03 543.02 637.72 532.27"/><polygon class="cls-1" points="468.99 707.9 471.68 718.66 479.39 710.69 476.34 721.35 487 718.3 479.03 726.01 489.79 728.7 479.03 731.39 487 739.1 476.34 736.05 479.39 746.71 471.68 738.74 468.99 749.5 466.3 738.74 458.59 746.71 461.64 736.05 450.98 739.1 458.95 731.39 448.19 728.7 458.95 726.01 450.98 718.3 461.64 721.35 458.59 710.69 466.3 718.66 468.99 707.9"/><polygon class="cls-1" points="795.91 609.64 798.6 620.39 806.31 612.42 803.26 623.08 813.92 620.03 805.96 627.74 816.71 630.43 805.96 633.12 813.92 640.83 803.26 637.78 806.31 648.44 798.6 640.48 795.91 651.23 793.22 640.48 785.51 648.44 788.56 637.78 777.9 640.83 785.87 633.12 775.12 630.43 785.87 627.74 777.9 620.03 788.56 623.08 785.51 612.42 793.22 620.39 795.91 609.64"/><polygon class="cls-1" points="705.27 754.7 707.96 765.45 715.67 757.49 712.62 768.14 723.28 765.1 715.31 772.8 726.07 775.5 715.31 778.19 723.28 785.89 712.62 782.85 715.67 793.5 707.96 785.54 705.27 796.29 702.58 785.54 694.87 793.5 697.92 782.85 687.26 785.89 695.23 778.19 684.47 775.5 695.23 772.8 687.26 765.1 697.92 768.14 694.87 757.49 702.58 765.45 705.27 754.7"/><polygon class="cls-1" points="458.75 478.51 461.44 489.26 469.15 481.3 466.1 491.96 476.76 488.91 468.79 496.62 479.55 499.31 468.79 502 476.76 509.71 466.1 506.66 469.15 517.32 461.44 509.35 458.75 520.1 456.06 509.35 448.35 517.32 451.4 506.66 440.74 509.71 448.71 502 437.95 499.31 448.71 496.62 440.74 488.91 451.4 491.96 448.35 481.3 456.06 489.26 458.75 478.51"/></g><g id="Capa_2" data-name="Capa 2"><polygon class="cls-1" points="162.26 142.6 153.69 141.8 148.18 148.4 146.29 140.01 138.31 136.81 145.71 132.42 146.29 123.83 152.75 129.52 161.09 127.42 157.68 135.31 162.26 142.6"/><polygon class="cls-1" points="100 147.37 94.22 143.97 88.14 146.82 89.58 140.26 85 135.36 91.68 134.71 94.92 128.84 97.61 134.99 104.2 136.26 99.18 140.71 100 147.37"/><polygon class="cls-1" points="206.86 108.14 203.87 104.3 199.01 104.59 201.75 100.56 199.98 96.02 204.65 97.38 208.42 94.29 208.57 99.16 212.67 101.78 208.09 103.44 206.86 108.14"/><polygon class="cls-1" points="268.61 106.7 264.19 103.45 259 105.25 260.72 100.03 257.41 95.66 262.9 95.69 266.04 91.18 267.71 96.41 272.96 98.01 268.5 101.21 268.61 106.7"/><polygon class="cls-1" points="41.25 201.46 38.26 197.62 33.41 197.9 36.14 193.88 34.37 189.34 39.04 190.69 42.8 187.61 42.96 192.47 47.06 195.1 42.48 196.75 41.25 201.46"/><polygon class="cls-1" points="275.18 174.04 271.51 170.85 266.8 172.06 268.7 167.58 266.09 163.48 270.94 163.9 274.04 160.15 275.13 164.89 279.66 166.68 275.48 169.19 275.18 174.04"/><path class="cls-1" d="M20,64.91A19.15,19.15,0,0,1,39.13,83.54a19.14,19.14,0,1,0-34.82-11c0,.17,0,.34,0,.52A19.11,19.11,0,0,1,20,64.91Z"/><path class="cls-1" d="M149.35,226.34A19.15,19.15,0,0,1,176,224.49a19.14,19.14,0,1,0-31.39,18.65l.39.33A19.13,19.13,0,0,1,149.35,226.34Z"/><polygon class="cls-1" points="419.07 190.91 410.5 190.11 404.99 196.71 403.1 188.32 395.12 185.11 402.52 180.73 403.1 172.15 409.56 177.83 417.9 175.72 414.49 183.62 419.07 190.91"/><polygon class="cls-1" points="266.04 247.73 257.48 246.93 251.97 253.53 250.08 245.14 242.1 241.94 249.49 237.55 250.07 228.97 256.53 234.65 264.87 232.55 261.47 240.44 266.04 247.73"/><polygon class="cls-1" points="327.27 231.2 323.25 228.45 318.72 230.21 320.08 225.54 317.01 221.76 321.87 221.62 324.51 217.53 326.15 222.12 330.86 223.36 327.01 226.34 327.27 231.2"/><polygon class="cls-1" points="332.51 69.53 328.09 66.28 322.9 68.08 324.63 62.87 321.31 58.49 326.8 58.52 329.94 54.01 331.61 59.25 336.87 60.84 332.41 64.04 332.51 69.53"/><polygon class="cls-1" points="389.71 132.79 385.86 129.81 381.22 131.29 382.87 126.71 380.02 122.76 384.89 122.91 387.77 118.98 389.13 123.66 393.75 125.18 389.73 127.92 389.71 132.79"/><polygon class="cls-1" points="133.34 309.99 129.66 306.79 124.95 308.01 126.86 303.53 124.25 299.42 129.09 299.85 132.19 296.09 133.28 300.84 137.81 302.63 133.64 305.13 133.34 309.99"/><path class="cls-1" d="M261.46,320.64a19.14,19.14,0,0,1-23.76,12.18,19.14,19.14,0,1,0,21.52-29.5l-.5-.15A19.11,19.11,0,0,1,261.46,320.64Z"/><path class="cls-1" d="M30.66,286.61a19.14,19.14,0,0,1-16.44-21,19.14,19.14,0,1,0,33,15.56c0-.17,0-.34.06-.51A19.12,19.12,0,0,1,30.66,286.61Z"/><polygon class="cls-1" points="204.57 308.47 200.29 305.96 195.79 308.06 196.86 303.21 193.47 299.58 198.41 299.1 200.81 294.75 202.8 299.3 207.68 300.25 203.96 303.54 204.57 308.47"/><polygon class="cls-1" points="328.99 338.72 324.71 336.21 320.21 338.31 321.28 333.46 317.89 329.84 322.83 329.36 325.23 325.01 327.22 329.56 332.09 330.5 328.38 333.8 328.99 338.72"/><path class="cls-1" d="M320.7,144.34a19.13,19.13,0,0,1,23.09-13.4,19.14,19.14,0,1,0-20,30.58l.5.12A19.11,19.11,0,0,1,320.7,144.34Z"/><path class="cls-1" d="M108,398a19.14,19.14,0,0,1-2.54-26.58,19.14,19.14,0,1,0,19.46,30.89l.32-.4A19.11,19.11,0,0,1,108,398Z"/><polygon class="cls-1" points="392.67 391.85 384.1 391.06 378.59 397.66 376.7 389.26 368.72 386.06 376.12 381.67 376.7 373.09 383.16 378.77 391.5 376.67 388.09 384.57 392.67 391.85"/><polygon class="cls-1" points="149.19 374.24 146.2 370.4 141.34 370.68 144.07 366.65 142.3 362.12 146.98 363.47 150.74 360.39 150.9 365.25 155 367.88 150.42 369.53 149.19 374.24"/><polygon class="cls-1" points="125.23 79.07 121.56 75.88 116.85 77.09 118.75 72.61 116.14 68.5 120.99 68.93 124.09 65.18 125.18 69.92 129.71 71.71 125.54 74.21 125.23 79.07"/><polygon class="cls-1" points="417.18 328.67 412.9 326.15 408.4 328.26 409.47 323.41 406.08 319.78 411.02 319.3 413.42 314.95 415.41 319.5 420.28 320.45 416.57 323.74 417.18 328.67"/><polygon class="cls-1" points="217.64 415.45 209.08 414.65 203.56 421.25 201.68 412.86 193.69 409.66 201.09 405.27 201.67 396.69 208.13 402.37 216.47 400.27 213.07 408.17 217.64 415.45"/><polygon class="cls-1" points="94.48 263.37 85.91 262.57 80.4 269.18 78.51 260.79 70.53 257.58 77.93 253.19 78.51 244.61 84.97 250.29 93.31 248.19 89.9 256.09 94.48 263.37"/><polygon class="cls-1" points="162.26 518.3 153.69 517.51 148.18 524.11 146.29 515.72 138.31 512.51 145.71 508.13 146.29 499.54 152.75 505.23 161.09 503.12 157.68 511.02 162.26 518.3"/><polygon class="cls-1" points="100 523.08 94.22 519.68 88.14 522.52 89.58 515.97 85 511.07 91.68 510.42 94.92 504.54 97.61 510.69 104.2 511.97 99.18 516.42 100 523.08"/><polygon class="cls-1" points="206.86 483.85 203.87 480.01 199.01 480.29 201.75 476.26 199.98 471.73 204.65 473.08 208.42 470 208.57 474.86 212.67 477.49 208.09 479.14 206.86 483.85"/><polygon class="cls-1" points="268.61 482.41 264.19 479.16 259 480.96 260.72 475.74 257.41 471.36 262.9 471.4 266.04 466.89 267.71 472.12 272.96 473.71 268.5 476.92 268.61 482.41"/><polygon class="cls-1" points="41.25 577.17 38.26 573.33 33.41 573.61 36.14 569.58 34.37 565.05 39.04 566.4 42.8 563.32 42.96 568.18 47.06 570.81 42.48 572.46 41.25 577.17"/><polygon class="cls-1" points="275.18 549.75 271.51 546.56 266.8 547.77 268.7 543.29 266.09 539.18 270.94 539.61 274.04 535.86 275.13 540.6 279.66 542.39 275.48 544.89 275.18 549.75"/><path class="cls-1" d="M20,440.62a19.15,19.15,0,0,1,19.13,18.63,19.14,19.14,0,1,0-34.82-11c0,.17,0,.34,0,.51A19.1,19.1,0,0,1,20,440.62Z"/><path class="cls-1" d="M149.35,602A19.15,19.15,0,0,1,176,600.2a19.14,19.14,0,1,0-31.39,18.65l.39.33A19.15,19.15,0,0,1,149.35,602Z"/><polygon class="cls-1" points="419.07 566.62 410.5 565.82 404.99 572.42 403.1 564.03 395.12 560.82 402.52 556.43 403.1 547.85 409.56 553.53 417.9 551.43 414.49 559.33 419.07 566.62"/><polygon class="cls-1" points="266.04 623.44 257.48 622.64 251.97 629.24 250.08 620.85 242.1 617.64 249.49 613.26 250.07 604.67 256.53 610.36 264.87 608.25 261.47 616.15 266.04 623.44"/><polygon class="cls-1" points="327.27 606.9 323.25 604.16 318.72 605.92 320.08 601.25 317.01 597.47 321.87 597.33 324.51 593.24 326.15 597.82 330.86 599.07 327.01 602.04 327.27 606.9"/><polygon class="cls-1" points="332.51 445.24 328.09 441.99 322.9 443.79 324.63 438.57 321.31 434.19 326.8 434.23 329.94 429.72 331.61 434.95 336.87 436.55 332.41 439.75 332.51 445.24"/><polygon class="cls-1" points="389.71 508.5 385.86 505.52 381.22 507 382.87 502.42 380.02 498.47 384.89 498.62 387.77 494.69 389.13 499.37 393.75 500.89 389.73 503.63 389.71 508.5"/><polygon class="cls-1" points="133.34 685.7 129.66 682.5 124.95 683.72 126.86 679.24 124.25 675.13 129.09 675.55 132.19 671.8 133.28 676.54 137.81 678.33 133.64 680.84 133.34 685.7"/><path class="cls-1" d="M261.46,696.35a19.14,19.14,0,0,1-23.76,12.17A19.14,19.14,0,1,0,259.22,679l-.5-.15A19.11,19.11,0,0,1,261.46,696.35Z"/><path class="cls-1" d="M30.66,662.32a19.14,19.14,0,0,1-16.44-21,19.14,19.14,0,1,0,33,15.56c0-.17,0-.35.06-.52A19.13,19.13,0,0,1,30.66,662.32Z"/><polygon class="cls-1" points="204.57 684.18 200.29 681.66 195.79 683.77 196.86 678.92 193.47 675.29 198.41 674.81 200.81 670.46 202.8 675.01 207.68 675.95 203.96 679.25 204.57 684.18"/><polygon class="cls-1" points="328.99 714.43 324.71 711.92 320.21 714.02 321.28 709.17 317.89 705.55 322.83 705.06 325.23 700.72 327.22 705.27 332.09 706.21 328.38 709.5 328.99 714.43"/><path class="cls-1" d="M320.7,520.05a19.13,19.13,0,0,1,23.09-13.4,19.14,19.14,0,1,0-20,30.57l.5.13A19.11,19.11,0,0,1,320.7,520.05Z"/><path class="cls-1" d="M108,773.72a19.12,19.12,0,0,1-2.54-26.57A19.14,19.14,0,1,0,124.94,778l.32-.4A19.11,19.11,0,0,1,108,773.72Z"/><polygon class="cls-1" points="392.67 767.56 384.1 766.76 378.59 773.37 376.7 764.97 368.72 761.77 376.12 757.38 376.7 748.8 383.16 754.48 391.5 752.38 388.09 760.28 392.67 767.56"/><polygon class="cls-1" points="149.19 749.95 146.2 746.11 141.34 746.39 144.07 742.36 142.3 737.83 146.98 739.18 150.74 736.1 150.9 740.96 155 743.59 150.42 745.24 149.19 749.95"/><polygon class="cls-1" points="125.23 454.78 121.56 451.59 116.85 452.8 118.75 448.32 116.14 444.21 120.99 444.64 124.09 440.89 125.18 445.63 129.71 447.42 125.54 449.92 125.23 454.78"/><polygon class="cls-1" points="417.18 704.38 412.9 701.86 408.4 703.97 409.47 699.12 406.08 695.49 411.02 695.01 413.42 690.66 415.41 695.21 420.28 696.15 416.57 699.45 417.18 704.38"/><polygon class="cls-1" points="217.64 791.16 209.08 790.36 203.56 796.96 201.68 788.57 193.69 785.37 201.09 780.98 201.67 772.4 208.13 778.08 216.47 775.98 213.07 783.88 217.64 791.16"/><polygon class="cls-1" points="94.48 639.08 85.91 638.28 80.4 644.89 78.51 636.49 70.53 633.29 77.93 628.9 78.51 620.32 84.97 626 93.31 623.9 89.9 631.8 94.48 639.08"/><polygon class="cls-1" points="588.06 142.6 579.5 141.8 573.98 148.4 572.1 140.01 564.11 136.81 571.51 132.42 572.09 123.83 578.55 129.52 586.89 127.42 583.49 135.31 588.06 142.6"/><polygon class="cls-1" points="525.81 147.37 520.02 143.97 513.94 146.82 515.38 140.26 510.8 135.36 517.48 134.71 520.73 128.84 523.41 134.99 530 136.26 524.98 140.71 525.81 147.37"/><polygon class="cls-1" points="632.66 108.14 629.68 104.3 624.82 104.59 627.55 100.56 625.78 96.02 630.45 97.38 634.22 94.29 634.38 99.16 638.47 101.78 633.9 103.44 632.66 108.14"/><polygon class="cls-1" points="694.41 106.7 689.99 103.45 684.8 105.25 686.53 100.03 683.21 95.66 688.7 95.69 691.84 91.18 693.51 96.41 698.76 98.01 694.3 101.21 694.41 106.7"/><polygon class="cls-1" points="467.05 201.46 464.07 197.62 459.21 197.9 461.94 193.88 460.17 189.34 464.84 190.69 468.61 187.61 468.77 192.47 472.86 195.1 468.29 196.75 467.05 201.46"/><polygon class="cls-1" points="700.99 174.04 697.31 170.85 692.6 172.06 694.5 167.58 691.89 163.48 696.74 163.9 699.84 160.15 700.93 164.89 705.46 166.68 701.29 169.19 700.99 174.04"/><path class="cls-1" d="M445.8,64.91a19.14,19.14,0,0,1,19.13,18.63,19.14,19.14,0,1,0-34.82-11c0,.17,0,.34,0,.52A19.11,19.11,0,0,1,445.8,64.91Z"/><path class="cls-1" d="M575.16,226.34a19.14,19.14,0,0,1,26.63-1.85,19.14,19.14,0,1,0-31.39,18.65l.4.33A19.07,19.07,0,0,1,575.16,226.34Z"/><polygon class="cls-1" points="844.87 190.91 836.3 190.11 830.79 196.71 828.9 188.32 820.92 185.11 828.32 180.73 828.9 172.15 835.36 177.83 843.7 175.72 840.29 183.62 844.87 190.91"/><polygon class="cls-1" points="691.85 247.73 683.28 246.93 677.77 253.53 675.88 245.14 667.9 241.94 675.3 237.55 675.88 228.97 682.34 234.65 690.68 232.55 687.27 240.44 691.85 247.73"/><polygon class="cls-1" points="753.08 231.2 749.05 228.45 744.52 230.21 745.88 225.54 742.81 221.76 747.67 221.62 750.32 217.53 751.95 222.12 756.66 223.36 752.81 226.34 753.08 231.2"/><polygon class="cls-1" points="758.32 69.53 753.89 66.28 748.7 68.08 750.43 62.87 747.11 58.49 752.61 58.52 755.75 54.01 757.41 59.25 762.67 60.84 758.21 64.04 758.32 69.53"/><polygon class="cls-1" points="815.51 132.79 811.66 129.81 807.02 131.29 808.67 126.71 805.83 122.76 810.69 122.91 813.57 118.98 814.93 123.66 819.55 125.18 815.53 127.92 815.51 132.79"/><polygon class="cls-1" points="559.14 309.99 555.47 306.79 550.75 308.01 552.66 303.53 550.05 299.42 554.89 299.85 557.99 296.09 559.09 300.84 563.61 302.63 559.44 305.13 559.14 309.99"/><path class="cls-1" d="M687.26,320.64a19.14,19.14,0,0,1-23.76,12.18A19.14,19.14,0,1,0,685,303.32l-.49-.15A19.13,19.13,0,0,1,687.26,320.64Z"/><path class="cls-1" d="M456.46,286.61a19.14,19.14,0,0,1-16.44-21,19.14,19.14,0,1,0,33,15.56c0-.17,0-.34.05-.51A19.11,19.11,0,0,1,456.46,286.61Z"/><polygon class="cls-1" points="630.38 308.47 626.09 305.96 621.59 308.06 622.66 303.21 619.27 299.58 624.21 299.1 626.62 294.75 628.6 299.3 633.48 300.25 629.76 303.54 630.38 308.47"/><polygon class="cls-1" points="754.79 338.72 750.51 336.21 746.01 338.31 747.08 333.46 743.69 329.84 748.63 329.36 751.03 325.01 753.02 329.56 757.9 330.5 754.18 333.8 754.79 338.72"/><path class="cls-1" d="M746.5,144.34a19.14,19.14,0,0,1,23.09-13.4,19.14,19.14,0,1,0-19.94,30.58l.49.12A19.11,19.11,0,0,1,746.5,144.34Z"/><path class="cls-1" d="M533.82,398a19.15,19.15,0,0,1-2.54-26.58,19.14,19.14,0,1,0,19.46,30.89l.32-.4A19.12,19.12,0,0,1,533.82,398Z"/><polygon class="cls-1" points="818.47 391.85 809.9 391.06 804.39 397.66 802.5 389.26 794.52 386.06 801.92 381.67 802.5 373.09 808.96 378.77 817.3 376.67 813.89 384.57 818.47 391.85"/><polygon class="cls-1" points="574.99 374.24 572 370.4 567.14 370.68 569.88 366.65 568.11 362.12 572.78 363.47 576.54 360.39 576.7 365.25 580.8 367.88 576.22 369.53 574.99 374.24"/><polygon class="cls-1" points="551.04 79.07 547.37 75.88 542.65 77.09 544.56 72.61 541.95 68.5 546.79 68.93 549.89 65.18 550.99 69.92 555.51 71.71 551.34 74.21 551.04 79.07"/><polygon class="cls-1" points="842.98 328.67 838.7 326.15 834.2 328.26 835.27 323.41 831.88 319.78 836.82 319.3 839.22 314.95 841.21 319.5 846.09 320.45 842.37 323.74 842.98 328.67"/><polygon class="cls-1" points="643.45 415.45 634.88 414.65 629.37 421.25 627.48 412.86 619.5 409.66 626.89 405.27 627.47 396.69 633.93 402.37 642.27 400.27 638.87 408.17 643.45 415.45"/><polygon class="cls-1" points="520.28 263.37 511.72 262.57 506.2 269.18 504.32 260.79 496.33 257.58 503.73 253.19 504.31 244.61 510.77 250.29 519.11 248.19 515.71 256.09 520.28 263.37"/><polygon class="cls-1" points="588.06 518.3 579.5 517.51 573.98 524.11 572.1 515.72 564.11 512.51 571.51 508.13 572.09 499.54 578.55 505.23 586.89 503.12 583.49 511.02 588.06 518.3"/><polygon class="cls-1" points="525.81 523.08 520.02 519.68 513.94 522.52 515.38 515.97 510.8 511.07 517.48 510.42 520.73 504.54 523.41 510.69 530 511.97 524.98 516.42 525.81 523.08"/><polygon class="cls-1" points="632.66 483.85 629.68 480.01 624.82 480.29 627.55 476.26 625.78 471.73 630.45 473.08 634.22 470 634.38 474.86 638.47 477.49 633.9 479.14 632.66 483.85"/><polygon class="cls-1" points="694.41 482.41 689.99 479.16 684.8 480.96 686.53 475.74 683.21 471.36 688.7 471.4 691.84 466.89 693.51 472.12 698.76 473.71 694.3 476.92 694.41 482.41"/><polygon class="cls-1" points="467.05 577.17 464.07 573.33 459.21 573.61 461.94 569.58 460.17 565.05 464.84 566.4 468.61 563.32 468.77 568.18 472.86 570.81 468.29 572.46 467.05 577.17"/><polygon class="cls-1" points="700.99 549.75 697.31 546.56 692.6 547.77 694.5 543.29 691.89 539.18 696.74 539.61 699.84 535.86 700.93 540.6 705.46 542.39 701.29 544.89 700.99 549.75"/><path class="cls-1" d="M445.8,440.62a19.14,19.14,0,0,1,19.13,18.63,19.14,19.14,0,1,0-34.82-11c0,.17,0,.34,0,.51A19.1,19.1,0,0,1,445.8,440.62Z"/><path class="cls-1" d="M575.16,602a19.14,19.14,0,0,1,26.63-1.84,19.14,19.14,0,1,0-31.39,18.65l.4.33A19.1,19.1,0,0,1,575.16,602Z"/><polygon class="cls-1" points="844.87 566.62 836.3 565.82 830.79 572.42 828.9 564.03 820.92 560.82 828.32 556.43 828.9 547.85 835.36 553.53 843.7 551.43 840.29 559.33 844.87 566.62"/><polygon class="cls-1" points="691.85 623.44 683.28 622.64 677.77 629.24 675.88 620.85 667.9 617.64 675.3 613.26 675.88 604.67 682.34 610.36 690.68 608.25 687.27 616.15 691.85 623.44"/><polygon class="cls-1" points="753.08 606.9 749.05 604.16 744.52 605.92 745.88 601.25 742.81 597.47 747.67 597.33 750.32 593.24 751.95 597.82 756.66 599.07 752.81 602.04 753.08 606.9"/><polygon class="cls-1" points="758.32 445.24 753.89 441.99 748.7 443.79 750.43 438.57 747.11 434.19 752.61 434.23 755.75 429.72 757.41 434.95 762.67 436.55 758.21 439.75 758.32 445.24"/><polygon class="cls-1" points="815.51 508.5 811.66 505.52 807.02 507 808.67 502.42 805.83 498.47 810.69 498.62 813.57 494.69 814.93 499.37 819.55 500.89 815.53 503.63 815.51 508.5"/><polygon class="cls-1" points="559.14 685.7 555.47 682.5 550.75 683.72 552.66 679.24 550.05 675.13 554.89 675.55 557.99 671.8 559.09 676.54 563.61 678.33 559.44 680.84 559.14 685.7"/><path class="cls-1" d="M687.26,696.35a19.14,19.14,0,0,1-23.76,12.17A19.14,19.14,0,1,0,685,679l-.49-.15A19.13,19.13,0,0,1,687.26,696.35Z"/><path class="cls-1" d="M456.46,662.32a19.14,19.14,0,0,1-16.44-21,19.14,19.14,0,1,0,33,15.56c0-.17,0-.35.05-.52A19.12,19.12,0,0,1,456.46,662.32Z"/><polygon class="cls-1" points="630.38 684.18 626.09 681.66 621.59 683.77 622.66 678.92 619.27 675.29 624.21 674.81 626.62 670.46 628.6 675.01 633.48 675.95 629.76 679.25 630.38 684.18"/><polygon class="cls-1" points="754.79 714.43 750.51 711.92 746.01 714.02 747.08 709.17 743.69 705.55 748.63 705.06 751.03 700.72 753.02 705.27 757.9 706.21 754.18 709.5 754.79 714.43"/><path class="cls-1" d="M746.5,520.05a19.14,19.14,0,0,1,23.09-13.4,19.14,19.14,0,1,0-19.94,30.57l.49.13A19.11,19.11,0,0,1,746.5,520.05Z"/><path class="cls-1" d="M533.82,773.72a19.13,19.13,0,0,1-2.54-26.57A19.14,19.14,0,1,0,550.74,778l.32-.4A19.13,19.13,0,0,1,533.82,773.72Z"/><polygon class="cls-1" points="818.47 767.56 809.9 766.76 804.39 773.37 802.5 764.97 794.52 761.77 801.92 757.38 802.5 748.8 808.96 754.48 817.3 752.38 813.89 760.28 818.47 767.56"/><polygon class="cls-1" points="574.99 749.95 572 746.11 567.14 746.39 569.88 742.36 568.11 737.83 572.78 739.18 576.54 736.1 576.7 740.96 580.8 743.59 576.22 745.24 574.99 749.95"/><polygon class="cls-1" points="551.04 454.78 547.37 451.59 542.65 452.8 544.56 448.32 541.95 444.21 546.79 444.64 549.89 440.89 550.99 445.63 555.51 447.42 551.34 449.92 551.04 454.78"/><polygon class="cls-1" points="842.98 704.38 838.7 701.86 834.2 703.97 835.27 699.12 831.88 695.49 836.82 695.01 839.22 690.66 841.21 695.21 846.09 696.15 842.37 699.45 842.98 704.38"/><polygon class="cls-1" points="643.45 791.16 634.88 790.36 629.37 796.96 627.48 788.57 619.5 785.37 626.89 780.98 627.47 772.4 633.93 778.08 642.27 775.98 638.87 783.88 643.45 791.16"/><polygon class="cls-1" points="520.28 639.08 511.72 638.28 506.2 644.89 504.32 636.49 496.33 633.29 503.73 628.9 504.31 620.32 510.77 626 519.11 623.9 515.71 631.8 520.28 639.08"/></g></svg>