<svg id="Capa_2" data-name="Capa 2" xmlns="http://www.w3.org/2000/svg" viewBox="0 0 850.39 850.39"><defs><style>.cls-1,.cls-2,.cls-3,.cls-4{fill:none;stroke:#000;stroke-linejoin:round;}.cls-1,.cls-2{stroke-width:1.2px;}.cls-2,.cls-4{stroke-linecap:round;}.cls-3,.cls-4{stroke-width:1.5px;}</style></defs><path class="cls-1" d="M168.56,263.63s1-8-3.2-8.85c-4.61-.87-4.45,7.16-4.8,10.76a74.65,74.65,0,0,0-.18,8.4A48.53,48.53,0,0,0,170.69,272c6-1.73,8.66-5.3,7.21-8.71C176.12,259.14,168.56,263.63,168.56,263.63Z"/><path class="cls-2" d="M167.72,256.6l-2.72.27-3.37.75,7.78,1.83-9.34,1.29,8.67,2.53-8.09,1.87c4.38.53,4.19.69,8.71,1a59.12,59.12,0,0,1,8.67,1.6l-7.82-4.93,8,1.91"/><path class="cls-2" d="M161.14,263.45s4.26,2,7.07,3.42c3.17,1.57,7.91,3.51,7.91,3.51s-17.07-2.84-17-2.4,11,3.92,11,4.32-.75.26-1.46.4-9.56-1.2-9.56-1.2"/><path class="cls-1" d="M103.7,301.55s-6.6-4.72-9.31-1.38c-3,3.65,4.19,7.31,7.19,9.33a76.47,76.47,0,0,0,7.32,4.14,48.25,48.25,0,0,0,3.21-10c1.31-6.1-.56-10.13-4.26-10.47C103.33,292.77,103.7,301.55,103.7,301.55Z"/><path class="cls-2" d="M97.11,299l-1,2.52-.94,3.33,5.3-6-3.3,8.83,6.35-6.43-2.2,8c2.55-3.61,2.6-3.36,5-7.18a58,58,0,0,1,5.52-6.88l-8.06,4.55,5.48-6.14"/><path class="cls-2" d="M100,308s3.82-2.79,6.36-4.6c2.89-2.06,6.85-5.3,6.85-5.3S102.63,311.78,103,312s8.65-7.81,9-7.62-.12.79-.34,1.48-5.59,7.85-5.59,7.85"/><path class="cls-1" d="M249.76,239.28s1.55-8-2.61-9c-4.54-1.18-4.91,6.85-5.5,10.42a76,76,0,0,0-.73,8.37,48.85,48.85,0,0,0,10.42-1.23c6.1-1.34,9-4.71,7.76-8.22C257.6,235.3,249.76,239.28,249.76,239.28Z"/><path class="cls-2" d="M249.38,232.22l-2.72.09-3.43.53,7.65,2.33-9.4.67,8.48,3.1-8.2,1.33c4.34.82,4.15,1,8.63,1.6a58.44,58.44,0,0,1,8.55,2.16l-7.49-5.44,7.86,2.44"/><path class="cls-2" d="M242.36,238.62s4.13,2.32,6.83,3.88c3.07,1.77,7.67,4,7.67,4S240,242.56,240,243s10.69,4.62,10.67,5-.77.22-1.49.31-9.46-1.83-9.46-1.83"/><path class="cls-1" d="M296.38,315s-7.14-3.85-9.41-.2c-2.47,4,5.08,6.73,8.31,8.36a74.79,74.79,0,0,0,7.78,3.19A48.91,48.91,0,0,0,305,316.08c.54-6.23-1.83-10-5.54-9.86C294.91,306.38,296.38,315,296.38,315Z"/><path class="cls-2" d="M289.52,313.3l-.73,2.63-.51,3.42,4.5-6.6-2.15,9.18,5.48-7.18L294.94,323c2.08-3.9,2.16-3.66,4.09-7.76a57.87,57.87,0,0,1,4.62-7.51l-7.42,5.52,4.66-6.78"/><path class="cls-2" d="M293.54,321.91s3.45-3.25,5.74-5.37c2.6-2.4,6.12-6.12,6.12-6.12s-8.79,14.91-8.36,15,7.6-8.84,8-8.7,0,.8-.15,1.52-4.56,8.48-4.56,8.48"/><path class="cls-1" d="M218.12,332.75s5.44,6,8.8,3.33c3.66-2.93-2.54-8-5-10.65a76.94,76.94,0,0,0-6.27-5.6,48.46,48.46,0,0,0-5.26,9.07c-2.59,5.69-1.61,10,1.93,11.14C216.61,341.41,218.12,332.75,218.12,332.75Z"/><path class="cls-2" d="M224,336.68l1.57-2.23,1.62-3.06-6.45,4.72,5.1-7.92-7.57,4.93,3.85-7.36c-3.25,3-3.25,2.74-6.44,5.95a58.41,58.41,0,0,1-6.86,5.54l8.84-2.73L211,339.35"/><path class="cls-2" d="M223.09,327.23s-4.33,1.91-7.2,3.14c-3.26,1.4-7.82,3.72-7.82,3.72S221.34,323,221,322.73s-10.11,5.79-10.42,5.53.29-.75.66-1.37,7.13-6.48,7.13-6.48"/><path class="cls-1" d="M146.94,370.28s-2-7.85-6.24-7c-4.61.89-1.48,8.29-.48,11.77a75.08,75.08,0,0,0,2.94,7.87A48.48,48.48,0,0,0,152,377.3c4.93-3.83,6.08-8.13,3.46-10.76C152.3,363.31,146.94,370.28,146.94,370.28Z"/><path class="cls-2" d="M143.56,364.07l-2.42,1.25-2.86,1.95,7.9-1.19L138,370.74l9-.86-6.83,4.73c4.27-1.13,4.16-.91,8.48-2.27a58.68,58.68,0,0,1,8.64-1.72l-9.09-1.69,8.14-1.19"/><path class="cls-2" d="M140,372.86s4.72.32,7.84.57c3.53.27,8.65.33,8.65.33s-16.92,3.68-16.71,4.07,11.65-.43,11.8-.06-.61.53-1.22.92-9.32,2.42-9.32,2.42"/><path class="cls-1" d="M38.74,303.65S41,295.86,37,294.41c-4.42-1.57-5.5,6.39-6.41,9.89a75.6,75.6,0,0,0-1.48,8.27,48.59,48.59,0,0,0,10.49-.29c6.2-.79,9.37-3.89,8.46-7.5C46.9,300.38,38.74,303.65,38.74,303.65Z"/><path class="cls-2" d="M39,296.58l-2.72-.16-3.45.22,7.4,3-9.42-.17L39,303.32l-8.28.6c4.25,1.2,4,1.33,8.45,2.35a58.79,58.79,0,0,1,8.32,2.93l-7-6.09,7.61,3.13"/><path class="cls-2" d="M31.43,302.32s3.9,2.68,6.46,4.48c2.9,2,7.27,4.69,7.27,4.69s-16.43-5.45-16.45-5,10.24,5.56,10.18,6-.79.14-1.51.16S28.12,310,28.12,310"/><path class="cls-1" d="M341.2,382.48s-2.77,7.62,1.17,9.33c4.3,1.87,5.91-6,7.05-9.44a73.53,73.53,0,0,0,2-8.15,48.17,48.17,0,0,0-10.48-.41c-6.24.37-9.61,3.26-9,6.91C332.84,385.19,341.2,382.48,341.2,382.48Z"/><path class="cls-2" d="M340.47,389.51l2.71.34h3.46l-7.19-3.49,9.39.79L341,382.78l8.3,0c-4.16-1.48-3.94-1.6-8.27-2.91a59.76,59.76,0,0,1-8.11-3.47l6.55,6.53L332,379.27"/><path class="cls-2" d="M348.4,384.28s-3.71-2.93-6.14-4.89c-2.76-2.23-6.94-5.17-6.94-5.17s16,6.53,16.07,6.09-9.84-6.23-9.76-6.62.8-.1,1.52-.07,9.06,3.28,9.06,3.28"/><path class="cls-1" d="M12.26,415.75s4.21,6.94,8,4.93c4.15-2.18-1-8.37-2.93-11.41a76.51,76.51,0,0,0-5.09-6.68,48.15,48.15,0,0,0-6.89,7.91c-3.62,5.09-3.48,9.53-.21,11.3C9.14,424,12.26,415.75,12.26,415.75Z"/><path class="cls-2" d="M17.29,420.72l2-1.89,2.18-2.7-7.23,3.42,6.51-6.82-8.37,3.41,5.18-6.5c-3.77,2.31-3.72,2.07-7.46,4.62a59.25,59.25,0,0,1-7.78,4.15l9.19-1L4,420.88"/><path class="cls-2" d="M18.18,411.27s-4.61,1.05-7.66,1.72c-3.46.75-8.38,2.17-8.38,2.17s15.13-8.39,14.82-8.71-11,3.77-11.28,3.45.43-.67.9-1.22,8.23-5,8.23-5"/><path class="cls-1" d="M244.17,387.39s-6.6-4.71-9.31-1.37c-3,3.64,4.19,7.3,7.2,9.32a75.57,75.57,0,0,0,7.31,4.14,48.28,48.28,0,0,0,3.21-10c1.32-6.11-.56-10.14-4.26-10.48C243.8,378.61,244.17,387.39,244.17,387.39Z"/><path class="cls-2" d="M237.58,384.81l-1.05,2.51-.94,3.33,5.3-6-3.29,8.83,6.34-6.43-2.19,8c2.54-3.61,2.59-3.37,5-7.19A59,59,0,0,1,252.3,381l-8.06,4.55,5.48-6.13"/><path class="cls-2" d="M240.49,393.84s3.82-2.78,6.37-4.6c2.88-2.05,6.84-5.3,6.84-5.3s-10.6,13.68-10.19,13.85,8.65-7.81,9-7.62-.13.79-.35,1.48-5.59,7.85-5.59,7.85"/><path class="cls-1" d="M385.19,278s4.31,6.87,8.08,4.82c4.12-2.25-1.1-8.36-3.1-11.37a76,76,0,0,0-5.19-6.61,48.51,48.51,0,0,0-6.77,8c-3.54,5.14-3.34,9.58,0,11.3C382.19,286.3,385.19,278,385.19,278Z"/><path class="cls-2" d="M390.3,282.93l1.92-1.93,2.14-2.72-7.17,3.52,6.4-6.92-8.31,3.54,5.07-6.57c-3.73,2.36-3.68,2.12-7.38,4.73a59.41,59.41,0,0,1-7.73,4.26l9.18-1.15-7.4,3.6"/><path class="cls-2" d="M391,273.46s-4.59,1.13-7.63,1.84c-3.45.8-8.35,2.3-8.35,2.3s15-8.62,14.69-8.94-11,3.94-11.22,3.63.41-.69.88-1.24,8.15-5.14,8.15-5.14"/><path class="cls-1" d="M413.26,345.59s-1.31-8-5.59-7.56c-4.67.48-2.21,8.13-1.53,11.68a76.19,76.19,0,0,0,2.23,8.1,48.48,48.48,0,0,0,9.34-4.77c5.26-3.38,6.78-7.55,4.41-10.41C419.23,339.13,413.26,345.59,413.26,345.59Z"/><path class="cls-2" d="M410.45,339.1l-2.52,1-3,1.69,8-.47-8.58,3.9,9-.05-7.22,4.1c4.36-.74,4.22-.53,8.64-1.51a59.59,59.59,0,0,1,8.77-.94l-8.91-2.49,8.22-.46"/><path class="cls-2" d="M406.1,347.54s4.67.74,7.75,1.26c3.49.6,8.59,1.11,8.59,1.11s-17.17,2.15-17,2.56,11.64.62,11.76,1-.65.47-1.29.8-9.51,1.58-9.51,1.58"/><path class="cls-1" d="M113.09,51.73s-5.22-6.21-8.68-3.65c-3.76,2.8,2.25,8.12,4.65,10.83a76.92,76.92,0,0,0,6.06,5.83,48.56,48.56,0,0,0,5.59-8.88c2.79-5.59,2-10-1.52-11.2C114.91,43.13,113.09,51.73,113.09,51.73Z"/><path class="cls-2" d="M107.35,47.59l-1.64,2.17-1.74,3,6.62-4.48L105.2,56,113,51.36l-4.12,7.21c3.36-2.86,3.35-2.61,6.66-5.71a58.24,58.24,0,0,1,7.06-5.28L113.61,50l6.84-4.58"/><path class="cls-2" d="M107.92,57.07s4.4-1.75,7.31-2.88c3.3-1.27,8-3.43,8-3.43s-13.67,10.61-13.31,10.88,10.32-5.41,10.61-5.14-.31.73-.7,1.35-7.37,6.21-7.37,6.21"/><path class="cls-1" d="M299.2,38.49s.13-8.11-4.16-8.44c-4.68-.36-3.62,7.61-3.58,11.23a77.56,77.56,0,0,0,.75,8.37,48.49,48.49,0,0,0,10-3c5.78-2.38,8-6.22,6.2-9.45C306.22,33.19,299.2,38.49,299.2,38.49Z"/><path class="cls-2" d="M297.58,31.6l-2.66.57-3.28,1.12,7.94,1-9.14,2.32,8.9,1.56-7.84,2.75c4.42,0,4.25.22,8.78.05a58.55,58.55,0,0,1,8.79.63l-8.32-4,8.16,1"/><path class="cls-2" d="M291.8,39.13s4.47,1.57,7.41,2.62c3.33,1.21,8.25,2.62,8.25,2.62s-17.28-.94-17.19-.5,11.35,2.67,11.39,3.07-.72.35-1.41.56-9.63-.14-9.63-.14"/><path class="cls-1" d="M81.57,393.45s7.28,3.58,9.41-.16c2.32-4.07-5.32-6.53-8.61-8a74.85,74.85,0,0,0-7.89-2.9,48.09,48.09,0,0,0-1.55,10.38c-.3,6.24,2.2,9.9,5.91,9.64C83.37,402.05,81.57,393.45,81.57,393.45Z"/><path class="cls-2" d="M88.49,394.93l.63-2.65.38-3.44-4.25,6.76,1.82-9.24-5.22,7.37.86-8.26c-1.92,4-2,3.75-3.79,7.91a59.3,59.3,0,0,1-4.33,7.68l7.21-5.8-4.41,6.95"/><path class="cls-2" d="M84.15,386.48s-3.32,3.38-5.53,5.58c-2.51,2.5-5.89,6.34-5.89,6.34s8.23-15.22,7.8-15.32-7.27,9.11-7.64,9,0-.8.09-1.52,4.24-8.65,4.24-8.65"/><path class="cls-1" d="M213.67,43.43s1.17,8,5.45,7.67c4.68-.39,2.37-8.08,1.76-11.65a75.23,75.23,0,0,0-2.08-8.14,48,48,0,0,0-9.43,4.6c-5.32,3.27-6.93,7.41-4.61,10.32C207.59,49.78,213.67,43.43,213.67,43.43Z"/><path class="cls-2" d="M216.36,50l2.55-1L222,47.37l-8,.32L222.63,44l-9-.12,7.3-4c-4.37.66-4.23.46-8.67,1.35a59.66,59.66,0,0,1-8.79.77l8.86,2.66-8.22.3"/><path class="cls-2" d="M220.88,41.62s-4.66-.83-7.73-1.41c-3.48-.66-8.56-1.27-8.56-1.27s17.21-1.82,17-2.23S210,35.87,209.9,35.48s.66-.45,1.31-.77,9.53-1.4,9.53-1.4"/><path class="cls-1" d="M206.8,174.58s1-8.05-3.2-8.85c-4.61-.87-4.45,7.16-4.8,10.76a74.65,74.65,0,0,0-.18,8.4A48.53,48.53,0,0,0,208.93,183c6-1.74,8.66-5.3,7.2-8.72C214.36,170.09,206.8,174.58,206.8,174.58Z"/><path class="cls-2" d="M206,167.55l-2.71.27-3.38.75,7.78,1.83-9.33,1.29,8.67,2.53-8.1,1.87c4.39.53,4.2.69,8.72,1a59.42,59.42,0,0,1,8.67,1.6l-7.83-4.94,8,1.92"/><path class="cls-2" d="M199.37,174.4s4.27,2,7.07,3.42c3.18,1.56,7.92,3.51,7.92,3.51s-17.08-2.84-17-2.4,11,3.91,11,4.31-.76.27-1.47.4-9.56-1.2-9.56-1.2"/><path class="cls-1" d="M41,76.67s1.88,7.89,6.11,7.15c4.62-.81,1.64-8.26.7-11.76A76.18,76.18,0,0,0,45,64.14a47.92,47.92,0,0,0-9,5.42c-5,3.74-6.24,8-3.67,10.7C35.49,83.54,41,76.67,41,76.67Z"/><path class="cls-2" d="M44.24,83l2.45-1.21,2.89-1.9-7.92,1,8.28-4.5-9,.69,6.92-4.6c-4.29,1-4.17.83-8.52,2.11a58,58,0,0,1-8.67,1.56L39.72,78l-8.16,1"/><path class="cls-2" d="M48,74.22s-4.72-.41-7.83-.71c-3.52-.34-8.64-.5-8.64-.5s17-3.35,16.78-3.75-11.65.21-11.8-.17.62-.51,1.24-.89S47.1,66,47.1,66"/><path class="cls-1" d="M380.44,69.35s-6-5.48-9.07-2.49c-3.37,3.25,3.28,7.76,6,10.13a75,75,0,0,0,6.76,5,48.42,48.42,0,0,0,4.39-9.52c2.06-5.9.68-10.13-2.95-10.92C381.14,60.59,380.44,69.35,380.44,69.35Z"/><path class="cls-2" d="M374.22,66l-1.35,2.36-1.33,3.2,6-5.3-4.34,8.36L380.25,69l-3.15,7.69c3-3.27,3-3,5.87-6.53A59.27,59.27,0,0,1,389.29,64l-8.55,3.54,6.18-5.43"/><path class="cls-2" d="M376,75.31s4.13-2.3,6.88-3.79c3.11-1.69,7.43-4.43,7.43-4.43S378.14,79.38,378.53,79.6s9.53-6.7,9.86-6.47-.22.77-.52,1.43-6.5,7.11-6.5,7.11"/><path class="cls-1" d="M398.62,159.13s7.85,2,9.17-2.06c1.45-4.47-6.54-5.31-10.07-6.12a75.66,75.66,0,0,0-8.31-1.22,48,48,0,0,0,.6,10.47c1,6.17,4.17,9.25,7.75,8.24C402.12,167.19,398.62,159.13,398.62,159.13Z"/><path class="cls-2" d="M405.69,159.17l.08-2.72-.33-3.45-2.78,7.49-.11-9.42-3.6,8.28-.84-8.26c-1.08,4.29-1.22,4.08-2.11,8.52a58.91,58.91,0,0,1-2.67,8.4l5.87-7.14-2.9,7.7"/><path class="cls-2" d="M399.72,151.79s-2.56,4-4.28,6.58c-1.95,3-4.48,7.42-4.48,7.42s5-16.59,4.52-16.6-5.26,10.41-5.65,10.36-.17-.78-.22-1.51,2.39-9.33,2.39-9.33"/><path class="cls-1" d="M17.3,224.15s-6.62-4.68-9.31-1.33c-2.94,3.66,4.23,7.29,7.24,9.29a76,76,0,0,0,7.34,4.11,48.24,48.24,0,0,0,3.15-10c1.29-6.11-.61-10.13-4.31-10.45C16.89,215.37,17.3,224.15,17.3,224.15Z"/><path class="cls-2" d="M10.7,221.6l-1,2.52-.92,3.34,5.26-6-3.24,8.85,6.3-6.46-2.15,8c2.53-3.62,2.58-3.38,5-7.22a58.25,58.25,0,0,1,5.48-6.9l-8,4.59,5.44-6.17"/><path class="cls-2" d="M13.66,230.62S17.47,227.81,20,226c2.88-2.07,6.82-5.34,6.82-5.34s-10.53,13.74-10.11,13.91,8.6-7.86,9-7.67-.12.79-.34,1.48-5.55,7.87-5.55,7.87"/><path class="cls-1" d="M323.74,141.12s1.08,8,5.37,7.73c4.68-.34,2.45-8.06,1.87-11.63a76.26,76.26,0,0,0-2-8.17,48.11,48.11,0,0,0-9.48,4.5c-5.36,3.22-7,7.34-4.72,10.27C317.59,147.4,323.74,141.12,323.74,141.12Z"/><path class="cls-2" d="M326.36,147.69l2.55-.95,3.08-1.6-8,.24,8.69-3.65-9-.22,7.34-3.88c-4.37.61-4.23.41-8.68,1.25a58.6,58.6,0,0,1-8.79.68l8.83,2.76-8.23.21"/><path class="cls-2" d="M331,139.39s-4.65-.88-7.71-1.49c-3.47-.7-8.55-1.37-8.55-1.37s17.23-1.63,17.07-2.05-11.61-1-11.72-1.35.67-.45,1.32-.76,9.54-1.3,9.54-1.3"/><path class="cls-1" d="M107.07,145.79s-7.1-3.93-9.41-.3c-2.51,4,5,6.78,8.22,8.44a76.2,76.2,0,0,0,7.75,3.27,48.75,48.75,0,0,0,2-10.29c.61-6.21-1.72-10-5.43-9.91C105.69,137.11,107.07,145.79,107.07,145.79Z"/><path class="cls-2" d="M100.23,144l-.76,2.62L98.93,150l4.57-6.55-2.26,9.15,5.56-7.12-1.25,8.21c2.11-3.88,2.19-3.64,4.17-7.72a58.69,58.69,0,0,1,4.69-7.46L106.93,144l4.74-6.73"/><path class="cls-2" d="M104.16,152.62s3.47-3.21,5.79-5.3c2.63-2.38,6.19-6,6.19-6s-9,14.81-8.53,14.93,7.7-8.76,8.07-8.61,0,.8-.17,1.51-4.65,8.44-4.65,8.44"/><path class="cls-1" d="M170.24,98.93s7.5,3.09,9.38-.78c2-4.22-5.75-6.16-9.13-7.45a76.29,76.29,0,0,0-8.07-2.36,48.73,48.73,0,0,0-.85,10.45c.11,6.25,2.85,9.74,6.53,9.23C172.6,107.4,170.24,98.93,170.24,98.93Z"/><path class="cls-2" d="M177.24,100l.45-2.69.16-3.46-3.79,7,1.19-9.35-4.71,7.7.31-8.3c-1.66,4.1-1.76,3.87-3.26,8.15a58.21,58.21,0,0,1-3.82,7.95l6.81-6.26L166.65,108"/><path class="cls-2" d="M172.35,91.81s-3.09,3.58-5.15,5.93c-2.34,2.66-5.46,6.72-5.46,6.72s7.21-15.74,6.77-15.81-6.65,9.58-7,9.47-.06-.8,0-1.52,3.66-8.91,3.66-8.91"/><path class="cls-1" d="M36,139.47s-1.32-8-5.59-7.56c-4.67.48-2.22,8.13-1.53,11.68a76.19,76.19,0,0,0,2.23,8.1,48.48,48.48,0,0,0,9.34-4.77c5.25-3.38,6.78-7.55,4.41-10.41C41.94,133,36,139.47,36,139.47Z"/><path class="cls-2" d="M33.17,133l-2.53,1-3,1.69,8-.47L27,139.13l9,0-7.22,4.1c4.36-.74,4.22-.53,8.64-1.51a59.59,59.59,0,0,1,8.77-.94l-8.91-2.49,8.22-.46"/><path class="cls-2" d="M28.82,141.42l7.75,1.26c3.49.6,8.59,1.11,8.59,1.11s-17.18,2.15-17,2.57,11.64.61,11.76,1-.65.47-1.3.8-9.5,1.58-9.5,1.58"/><path class="cls-1" d="M254.6,119.94s-5.9-5.57-9-2.63c-3.42,3.21,3.17,7.81,5.86,10.22a75.17,75.17,0,0,0,6.68,5.09,47.44,47.44,0,0,0,4.54-9.45c2.14-5.87.83-10.12-2.79-11C255.43,111.19,254.6,119.94,254.6,119.94Z"/><path class="cls-2" d="M248.42,116.48,247,118.83,245.66,122l6.06-5.21-4.46,8.3,7.15-5.51-3.26,7.64c3-3.23,3-3,6-6.44a60,60,0,0,1,6.41-6.06l-8.6,3.42,6.26-5.34"/><path class="cls-2" d="M250.08,125.83s4.16-2.24,6.93-3.69c3.14-1.65,7.5-4.32,7.5-4.32s-12.36,12.11-12,12.33,9.64-6.56,10-6.32-.23.76-.54,1.42-6.61,7-6.61,7"/><path class="cls-1" d="M136.12,206.38s4.2,6.94,8,4.93c4.15-2.18-1-8.36-2.94-11.41a74.4,74.4,0,0,0-5.09-6.68,48.42,48.42,0,0,0-6.88,7.91c-3.62,5.09-3.48,9.53-.22,11.31C133,214.6,136.12,206.38,136.12,206.38Z"/><path class="cls-2" d="M141.15,211.35l1.95-1.89,2.18-2.7-7.23,3.42,6.51-6.82-8.36,3.41,5.17-6.5c-3.76,2.32-3.72,2.07-7.46,4.63a58.64,58.64,0,0,1-7.78,4.14l9.2-1-7.46,3.48"/><path class="cls-2" d="M142,201.9s-4.62,1.06-7.67,1.72c-3.46.75-8.38,2.17-8.38,2.17s15.14-8.39,14.83-8.71-11,3.77-11.28,3.46.42-.68.9-1.23,8.23-5,8.23-5"/><path class="cls-1" d="M85,249.78s-5.22-6.21-8.67-3.64c-3.77,2.79,2.24,8.12,4.65,10.82a77.61,77.61,0,0,0,6,5.83,48,48,0,0,0,5.59-8.87c2.8-5.59,2-10-1.51-11.21C86.82,241.18,85,249.78,85,249.78Z"/><path class="cls-2" d="M79.26,245.64l-1.65,2.17-1.73,3,6.61-4.48-5.38,7.73,7.74-4.65-4.11,7.21c3.36-2.86,3.35-2.61,6.66-5.71a59.69,59.69,0,0,1,7-5.28L85.52,248l6.83-4.58"/><path class="cls-2" d="M79.83,255.12s4.39-1.75,7.31-2.87c3.3-1.28,7.94-3.44,7.94-3.44S81.41,259.43,81.77,259.7s10.32-5.42,10.62-5.15-.32.74-.7,1.35-7.37,6.21-7.37,6.21"/><path class="cls-1" d="M326.3,213.91s-2.77,7.62,1.18,9.33c4.3,1.87,5.91-6,7-9.44a74.94,74.94,0,0,0,2-8.15,48.1,48.1,0,0,0-10.48-.41c-6.23.37-9.61,3.26-8.94,6.91C317.94,216.62,326.3,213.91,326.3,213.91Z"/><path class="cls-2" d="M325.58,220.94l2.7.34h3.46l-7.18-3.49,9.39.8-7.9-4.39,8.3,0c-4.15-1.48-3.94-1.59-8.27-2.91a59.38,59.38,0,0,1-8.1-3.47l6.54,6.53-7.38-3.62"/><path class="cls-2" d="M333.51,215.71s-3.72-2.93-6.15-4.89c-2.75-2.23-6.94-5.17-6.94-5.17s16,6.54,16.08,6.09-9.85-6.23-9.76-6.62.79-.1,1.52-.07,9.06,3.28,9.06,3.28"/><path class="cls-3" d="M593.29,263.63s1-8-3.2-8.85c-4.61-.87-4.44,7.16-4.8,10.76a77.38,77.38,0,0,0-.18,8.4A48.55,48.55,0,0,0,595.43,272c6-1.73,8.65-5.3,7.2-8.71C600.85,259.14,593.29,263.63,593.29,263.63Z"/><path class="cls-4" d="M592.45,256.6l-2.71.27-3.38.75,7.78,1.83-9.34,1.29,8.67,2.53-8.09,1.87c4.38.53,4.2.69,8.71,1a59.12,59.12,0,0,1,8.67,1.6l-7.82-4.93,8,1.91"/><path class="cls-4" d="M585.87,263.45s4.27,2,7.07,3.42c3.18,1.57,7.91,3.51,7.91,3.51s-17.07-2.84-17-2.4,11,3.92,11,4.32-.75.26-1.46.4-9.56-1.2-9.56-1.2"/><path class="cls-3" d="M528.43,301.55s-6.6-4.72-9.31-1.38c-3,3.65,4.2,7.31,7.2,9.33a75.57,75.57,0,0,0,7.31,4.14,48.25,48.25,0,0,0,3.21-10c1.32-6.1-.56-10.13-4.26-10.47C528.06,292.77,528.43,301.55,528.43,301.55Z"/><path class="cls-4" d="M521.84,299l-1.05,2.52-.93,3.33,5.29-6-3.29,8.83,6.34-6.43-2.19,8c2.54-3.61,2.59-3.36,5-7.18a58,58,0,0,1,5.52-6.88l-8.06,4.55,5.48-6.14"/><path class="cls-4" d="M524.75,308s3.83-2.79,6.37-4.6c2.88-2.06,6.84-5.3,6.84-5.3s-10.6,13.68-10.19,13.85,8.65-7.81,9-7.62-.13.79-.35,1.48-5.58,7.85-5.58,7.85"/><path class="cls-3" d="M674.49,239.28s1.55-8-2.61-9c-4.54-1.18-4.91,6.85-5.5,10.42a76,76,0,0,0-.73,8.37,48.8,48.8,0,0,0,10.42-1.23c6.1-1.34,9-4.71,7.76-8.22C682.33,235.3,674.49,239.28,674.49,239.28Z"/><path class="cls-4" d="M674.11,232.22l-2.72.09-3.42.53,7.64,2.33-9.4.67,8.48,3.1-8.19,1.33c4.34.82,4.14,1,8.62,1.6a58.44,58.44,0,0,1,8.55,2.16l-7.48-5.44,7.86,2.44"/><path class="cls-4" d="M667.1,238.62s4.12,2.32,6.82,3.88c3.07,1.77,7.67,4,7.67,4s-16.85-4-16.83-3.51,10.7,4.62,10.67,5-.77.22-1.49.31-9.46-1.83-9.46-1.83"/><path class="cls-3" d="M721.11,315s-7.14-3.85-9.4-.2c-2.48,4,5.07,6.73,8.31,8.36a75,75,0,0,0,7.77,3.19,48.14,48.14,0,0,0,1.93-10.31c.54-6.23-1.82-10-5.54-9.86C719.64,306.38,721.11,315,721.11,315Z"/><path class="cls-4" d="M714.25,313.3l-.72,2.63-.51,3.42,4.5-6.6-2.16,9.18,5.48-7.18L719.67,323c2.08-3.9,2.16-3.66,4.09-7.76a59.09,59.09,0,0,1,4.62-7.51L721,313.22l4.66-6.78"/><path class="cls-4" d="M718.27,321.91s3.45-3.25,5.74-5.37c2.61-2.4,6.13-6.12,6.13-6.12s-8.8,14.91-8.37,15,7.6-8.84,8-8.7,0,.8-.15,1.52-4.56,8.48-4.56,8.48"/><path class="cls-3" d="M642.85,332.75s5.45,6,8.8,3.33c3.67-2.93-2.54-8-5-10.65a75.78,75.78,0,0,0-6.26-5.6,47.8,47.8,0,0,0-5.26,9.07c-2.59,5.69-1.62,10,1.92,11.14C641.34,341.41,642.85,332.75,642.85,332.75Z"/><path class="cls-4" d="M648.74,336.68l1.56-2.23,1.62-3.06-6.44,4.72,5.09-7.92L643,333.12l3.85-7.36c-3.26,3-3.26,2.74-6.45,5.95a58.41,58.41,0,0,1-6.86,5.54l8.84-2.73-6.66,4.83"/><path class="cls-4" d="M647.82,327.23s-4.33,1.91-7.2,3.14c-3.26,1.4-7.82,3.72-7.82,3.72s13.27-11.11,12.91-11.36-10.12,5.79-10.42,5.53.29-.75.65-1.37,7.13-6.48,7.13-6.48"/><path class="cls-3" d="M571.68,370.28s-2-7.85-6.25-7c-4.6.89-1.48,8.29-.48,11.77a75.08,75.08,0,0,0,2.94,7.87,48.09,48.09,0,0,0,8.88-5.59c4.93-3.83,6.08-8.13,3.47-10.76C577,363.31,571.68,370.28,571.68,370.28Z"/><path class="cls-4" d="M568.29,364.07l-2.42,1.25L563,367.27l7.91-1.19-8.2,4.66,9-.86-6.82,4.73c4.26-1.13,4.15-.91,8.47-2.27a58.71,58.71,0,0,1,8.65-1.72l-9.1-1.69,8.14-1.19"/><path class="cls-4" d="M564.71,372.86s4.73.32,7.84.57c3.53.27,8.65.33,8.65.33s-16.91,3.68-16.71,4.07,11.65-.43,11.8-.06-.6.53-1.21.92-9.33,2.42-9.33,2.42"/><path class="cls-3" d="M463.47,303.65s2.26-7.79-1.79-9.24c-4.42-1.57-5.5,6.39-6.41,9.89a75.6,75.6,0,0,0-1.48,8.27,48.59,48.59,0,0,0,10.49-.29c6.2-.79,9.37-3.89,8.46-7.5C471.63,300.38,463.47,303.65,463.47,303.65Z"/><path class="cls-4" d="M463.72,296.58l-2.72-.16-3.45.22,7.4,3-9.42-.17,8.17,3.84-8.28.6c4.25,1.2,4,1.33,8.45,2.35a58.79,58.79,0,0,1,8.32,2.93l-7-6.09,7.61,3.13"/><path class="cls-4" d="M456.16,302.32s3.91,2.68,6.46,4.48c2.9,2,7.27,4.69,7.27,4.69s-16.42-5.45-16.45-5,10.25,5.56,10.18,6-.78.14-1.51.16-9.25-2.66-9.25-2.66"/><path class="cls-3" d="M765.93,382.48s-2.77,7.62,1.17,9.33c4.31,1.87,5.92-6,7.06-9.44a74.94,74.94,0,0,0,2-8.15,48.1,48.1,0,0,0-10.48-.41c-6.24.37-9.61,3.26-9,6.91C757.57,385.19,765.93,382.48,765.93,382.48Z"/><path class="cls-4" d="M765.21,389.51l2.7.34h3.46l-7.18-3.49,9.39.79-7.9-4.38,8.3,0c-4.16-1.48-3.94-1.6-8.27-2.91a59.38,59.38,0,0,1-8.1-3.47l6.54,6.53-7.39-3.62"/><path class="cls-4" d="M773.13,384.28s-3.71-2.93-6.14-4.89c-2.75-2.23-6.94-5.17-6.94-5.17s16,6.53,16.08,6.09-9.85-6.23-9.76-6.62.79-.1,1.51-.07,9.06,3.28,9.06,3.28"/><path class="cls-3" d="M437,415.75s4.21,6.94,8,4.93c4.15-2.18-1-8.37-2.94-11.41a74.4,74.4,0,0,0-5.09-6.68,47.86,47.86,0,0,0-6.88,7.91c-3.62,5.09-3.49,9.53-.22,11.3C433.87,424,437,415.75,437,415.75Z"/><path class="cls-4" d="M442,420.72l2-1.89,2.18-2.7-7.23,3.42,6.51-6.82-8.36,3.41,5.17-6.5c-3.76,2.31-3.72,2.07-7.46,4.62a59.25,59.25,0,0,1-7.78,4.15l9.19-1-7.45,3.48"/><path class="cls-4" d="M442.92,411.27s-4.62,1.05-7.67,1.72c-3.46.75-8.38,2.17-8.38,2.17s15.14-8.39,14.83-8.71-11,3.77-11.28,3.45.42-.67.9-1.22,8.23-5,8.23-5"/><path class="cls-3" d="M668.9,387.39s-6.6-4.71-9.31-1.37c-3,3.64,4.2,7.3,7.2,9.32a75.57,75.57,0,0,0,7.31,4.14,48.28,48.28,0,0,0,3.21-10c1.32-6.11-.56-10.14-4.26-10.48C668.53,378.61,668.9,387.39,668.9,387.39Z"/><path class="cls-4" d="M662.31,384.81l-1,2.51-.93,3.33,5.29-6-3.29,8.83,6.34-6.43-2.19,8c2.54-3.61,2.6-3.37,5-7.19A59,59,0,0,1,677,381L669,385.56l5.48-6.13"/><path class="cls-4" d="M665.22,393.84s3.83-2.78,6.37-4.6c2.88-2.05,6.84-5.3,6.84-5.3s-10.6,13.68-10.18,13.85,8.65-7.81,9-7.62-.12.79-.34,1.48-5.59,7.85-5.59,7.85"/><path class="cls-3" d="M809.92,278s4.31,6.87,8.09,4.82c4.11-2.25-1.1-8.36-3.11-11.37a76,76,0,0,0-5.19-6.61,48.21,48.21,0,0,0-6.76,8c-3.55,5.14-3.34,9.58-.05,11.3C806.92,286.3,809.92,278,809.92,278Z"/><path class="cls-4" d="M815,282.93,817,281l2.13-2.72-7.17,3.52,6.4-6.92L810,278.42l5.07-6.57c-3.72,2.36-3.68,2.12-7.38,4.73a59.58,59.58,0,0,1-7.72,4.26l9.18-1.15-7.4,3.6"/><path class="cls-4" d="M815.78,273.46s-4.6,1.13-7.64,1.84c-3.45.8-8.35,2.3-8.35,2.3s15-8.62,14.69-8.94-11,3.94-11.22,3.63.41-.69.88-1.24,8.15-5.14,8.15-5.14"/><path class="cls-3" d="M838,345.59s-1.32-8-5.6-7.56c-4.66.48-2.21,8.13-1.53,11.68a76.19,76.19,0,0,0,2.23,8.1,48.16,48.16,0,0,0,9.34-4.77c5.26-3.38,6.79-7.55,4.41-10.41C844,339.13,838,345.59,838,345.59Z"/><path class="cls-4" d="M835.18,339.1l-2.52,1-3,1.69,8-.47-8.58,3.9,9-.05-7.22,4.1c4.36-.74,4.22-.53,8.65-1.51a59.38,59.38,0,0,1,8.76-.94l-8.9-2.49,8.21-.46"/><path class="cls-4" d="M830.83,347.54s4.67.74,7.75,1.26c3.5.6,8.59,1.11,8.59,1.11s-17.17,2.15-17,2.56,11.64.62,11.75,1-.65.47-1.29.8-9.5,1.58-9.5,1.58"/><path class="cls-3" d="M537.82,51.73s-5.22-6.21-8.67-3.65c-3.77,2.8,2.24,8.12,4.64,10.83a76.92,76.92,0,0,0,6.06,5.83,48.56,48.56,0,0,0,5.59-8.88c2.8-5.59,2-10-1.52-11.2C539.64,43.13,537.82,51.73,537.82,51.73Z"/><path class="cls-4" d="M532.08,47.59l-1.64,2.17-1.74,3,6.62-4.48L529.94,56l7.74-4.65-4.12,7.21c3.37-2.86,3.36-2.61,6.66-5.71a58.24,58.24,0,0,1,7.06-5.28L538.35,50l6.83-4.58"/><path class="cls-4" d="M532.65,57.07s4.4-1.75,7.31-2.88c3.31-1.27,7.95-3.43,7.95-3.43S534.24,61.37,534.6,61.64s10.32-5.41,10.61-5.14-.31.73-.7,1.35-7.36,6.21-7.36,6.21"/><path class="cls-3" d="M723.93,38.49s.13-8.11-4.16-8.44c-4.67-.36-3.62,7.61-3.58,11.23a76.39,76.39,0,0,0,.76,8.37,48.52,48.52,0,0,0,10-3c5.78-2.38,8-6.22,6.2-9.45C731,33.19,723.93,38.49,723.93,38.49Z"/><path class="cls-4" d="M722.32,31.6l-2.67.57-3.27,1.12,7.93,1-9.13,2.32,8.89,1.56-7.83,2.75c4.41,0,4.24.22,8.77.05a58.55,58.55,0,0,1,8.79.63l-8.32-4,8.16,1"/><path class="cls-4" d="M716.53,39.13s4.47,1.57,7.41,2.62c3.33,1.21,8.25,2.62,8.25,2.62s-17.28-.94-17.19-.5,11.35,2.67,11.4,3.07-.73.35-1.42.56-9.63-.14-9.63-.14"/><path class="cls-3" d="M506.31,393.45s7.28,3.58,9.4-.16c2.33-4.07-5.32-6.53-8.61-8a74.85,74.85,0,0,0-7.89-2.9,48.53,48.53,0,0,0-1.54,10.38c-.31,6.24,2.19,9.9,5.9,9.64C508.1,402.05,506.31,393.45,506.31,393.45Z"/><path class="cls-4" d="M513.22,394.93l.63-2.65.39-3.44L510,395.6l1.81-9.24-5.21,7.37.86-8.26c-1.93,4-2,3.75-3.8,7.91a59.3,59.3,0,0,1-4.33,7.68l7.21-5.8-4.41,6.95"/><path class="cls-4" d="M508.89,386.48s-3.32,3.38-5.54,5.58c-2.51,2.5-5.89,6.34-5.89,6.34s8.24-15.22,7.8-15.32-7.26,9.11-7.64,9,0-.8.1-1.52,4.23-8.65,4.23-8.65"/><path class="cls-3" d="M638.41,43.43s1.16,8,5.44,7.67c4.68-.39,2.38-8.08,1.76-11.65a76.3,76.3,0,0,0-2.07-8.14,48,48,0,0,0-9.43,4.6c-5.33,3.27-6.93,7.41-4.62,10.32C632.32,49.78,638.41,43.43,638.41,43.43Z"/><path class="cls-4" d="M641.1,50l2.54-1,3.05-1.63-8,.32L647.36,44l-9-.12,7.3-4c-4.37.66-4.23.46-8.67,1.35a59.56,59.56,0,0,1-8.78.77L637,44.64l-8.22.3"/><path class="cls-4" d="M645.61,41.62s-4.66-.83-7.73-1.41c-3.48-.66-8.56-1.27-8.56-1.27s17.21-1.82,17-2.23-11.63-.84-11.74-1.23.66-.45,1.31-.77,9.53-1.4,9.53-1.4"/><path class="cls-3" d="M631.53,174.58s1-8.05-3.2-8.85c-4.61-.87-4.45,7.16-4.8,10.76a74.65,74.65,0,0,0-.18,8.4A48.53,48.53,0,0,0,633.66,183c6-1.74,8.66-5.3,7.21-8.72C639.09,170.09,631.53,174.58,631.53,174.58Z"/><path class="cls-4" d="M630.69,167.55l-2.72.27-3.37.75,7.78,1.83L623,171.69l8.67,2.53-8.09,1.87c4.38.53,4.19.69,8.71,1a59.12,59.12,0,0,1,8.67,1.6l-7.82-4.94,8,1.92"/><path class="cls-4" d="M624.11,174.4s4.26,2,7.07,3.42c3.17,1.56,7.91,3.51,7.91,3.51s-17.07-2.84-17-2.4,11,3.91,11,4.31-.75.27-1.46.4-9.56-1.2-9.56-1.2"/><path class="cls-3" d="M465.71,76.67s1.88,7.89,6.11,7.15c4.62-.81,1.64-8.26.7-11.76a74.68,74.68,0,0,0-2.79-7.92,47.78,47.78,0,0,0-9,5.42c-5,3.74-6.24,8-3.67,10.7C460.22,83.54,465.71,76.67,465.71,76.67Z"/><path class="cls-4" d="M469,83l2.45-1.21,2.89-1.9-7.92,1,8.28-4.5-9,.69,6.91-4.6c-4.29,1-4.17.83-8.51,2.11a58.3,58.3,0,0,1-8.68,1.56L464.45,78l-8.16,1"/><path class="cls-4" d="M472.72,74.22s-4.72-.41-7.82-.71c-3.53-.34-8.65-.5-8.65-.5s17-3.35,16.78-3.75-11.65.21-11.79-.17.61-.51,1.23-.89S471.84,66,471.84,66"/><path class="cls-3" d="M805.17,69.35s-6-5.48-9.07-2.49c-3.37,3.25,3.28,7.76,6,10.13a76.57,76.57,0,0,0,6.76,5,48.75,48.75,0,0,0,4.4-9.52c2.05-5.9.67-10.13-3-10.92C805.88,60.59,805.17,69.35,805.17,69.35Z"/><path class="cls-4" d="M799,66l-1.35,2.36-1.33,3.2,6-5.3-4.34,8.36L805,69l-3.15,7.69c3-3.27,3-3,5.87-6.53A58.59,58.59,0,0,1,814,64l-8.55,3.54,6.18-5.43"/><path class="cls-4" d="M800.74,75.31s4.14-2.3,6.88-3.79c3.11-1.69,7.44-4.43,7.44-4.43s-12.19,12.29-11.8,12.51,9.54-6.7,9.86-6.47-.22.77-.52,1.43-6.5,7.11-6.5,7.11"/><path class="cls-3" d="M823.35,159.13s7.85,2,9.18-2.06c1.44-4.47-6.55-5.31-10.08-6.12a75.31,75.31,0,0,0-8.31-1.22,48.76,48.76,0,0,0,.6,10.47c1,6.17,4.17,9.25,7.75,8.24C826.86,167.19,823.35,159.13,823.35,159.13Z"/><path class="cls-4" d="M830.42,159.17l.08-2.72-.33-3.45-2.78,7.49-.11-9.42-3.6,8.28-.84-8.26c-1.08,4.29-1.21,4.08-2.11,8.52a58.91,58.91,0,0,1-2.67,8.4l5.88-7.14-2.9,7.7"/><path class="cls-4" d="M824.45,151.79s-2.56,4-4.28,6.58c-1.95,3-4.47,7.42-4.47,7.42s5-16.59,4.51-16.6-5.25,10.41-5.65,10.36-.17-.78-.22-1.51,2.39-9.33,2.39-9.33"/><path class="cls-3" d="M442,224.15s-6.63-4.68-9.32-1.33c-2.93,3.66,4.24,7.29,7.25,9.29a75.13,75.13,0,0,0,7.33,4.11,48.57,48.57,0,0,0,3.16-10c1.28-6.11-.61-10.13-4.32-10.45C441.62,215.37,442,224.15,442,224.15Z"/><path class="cls-4" d="M435.44,221.6l-1,2.52-.92,3.34,5.26-6-3.24,8.85,6.31-6.46-2.15,8c2.52-3.62,2.58-3.38,5-7.22a59.38,59.38,0,0,1,5.48-6.9l-8,4.59,5.45-6.17"/><path class="cls-4" d="M438.39,230.62s3.81-2.81,6.35-4.63c2.87-2.07,6.81-5.34,6.81-5.34S441,234.39,441.44,234.56s8.61-7.86,9-7.67-.12.79-.33,1.48-5.55,7.87-5.55,7.87"/><path class="cls-3" d="M748.47,141.12s1.08,8,5.37,7.73c4.68-.34,2.46-8.06,1.88-11.63a75.18,75.18,0,0,0-2-8.17,48.41,48.41,0,0,0-9.48,4.5c-5.35,3.22-7,7.34-4.72,10.27C742.32,147.4,748.47,141.12,748.47,141.12Z"/><path class="cls-4" d="M751.09,147.69l2.56-.95,3.07-1.6-8,.24,8.69-3.65-9-.22,7.34-3.88c-4.37.61-4.23.41-8.68,1.25a58.52,58.52,0,0,1-8.79.68l8.83,2.76-8.23.21"/><path class="cls-4" d="M755.69,139.39s-4.65-.88-7.71-1.49c-3.47-.7-8.55-1.37-8.55-1.37s17.23-1.63,17.08-2.05-11.62-1-11.72-1.35.66-.45,1.31-.76,9.55-1.3,9.55-1.3"/><path class="cls-3" d="M531.8,145.79s-7.1-3.93-9.4-.3c-2.52,4,5,6.78,8.22,8.44a75.45,75.45,0,0,0,7.74,3.27,48.32,48.32,0,0,0,2-10.29c.6-6.21-1.72-10-5.44-9.91C530.42,137.11,531.8,145.79,531.8,145.79Z"/><path class="cls-4" d="M525,144l-.75,2.62-.55,3.41,4.57-6.55L526,152.61l5.56-7.12-1.25,8.21c2.11-3.88,2.19-3.64,4.17-7.72a59.94,59.94,0,0,1,4.69-7.46L531.66,144l4.74-6.73"/><path class="cls-4" d="M528.89,152.62s3.48-3.21,5.79-5.3c2.63-2.38,6.19-6,6.19-6s-9,14.81-8.52,14.93,7.69-8.76,8.06-8.61,0,.8-.17,1.51-4.65,8.44-4.65,8.44"/><path class="cls-3" d="M595,98.93s7.5,3.09,9.38-.78c2-4.22-5.75-6.16-9.13-7.45a75.71,75.71,0,0,0-8.06-2.36,48,48,0,0,0-.85,10.45c.1,6.25,2.84,9.74,6.52,9.23C597.33,107.4,595,98.93,595,98.93Z"/><path class="cls-4" d="M602,100l.46-2.69.15-3.46-3.79,7L600,91.49l-4.71,7.7.31-8.3c-1.66,4.1-1.76,3.87-3.26,8.15a58.69,58.69,0,0,1-3.81,7.95l6.81-6.26L591.38,108"/><path class="cls-4" d="M597.09,91.81s-3.09,3.58-5.16,5.93c-2.34,2.66-5.45,6.72-5.45,6.72s7.2-15.74,6.76-15.81-6.64,9.58-7,9.47-.06-.8,0-1.52,3.65-8.91,3.65-8.91"/><path class="cls-3" d="M460.71,139.47s-1.31-8-5.59-7.56c-4.66.48-2.21,8.13-1.53,11.68a76.19,76.19,0,0,0,2.23,8.1,48.16,48.16,0,0,0,9.34-4.77c5.26-3.38,6.79-7.55,4.41-10.41C466.68,133,460.71,139.47,460.71,139.47Z"/><path class="cls-4" d="M457.9,133l-2.52,1-3,1.69,8-.47-8.58,3.9,9,0-7.22,4.1c4.36-.74,4.22-.53,8.65-1.51a59.38,59.38,0,0,1,8.76-.94l-8.91-2.49,8.22-.46"/><path class="cls-4" d="M453.55,141.42l7.75,1.26c3.5.6,8.59,1.11,8.59,1.11s-17.17,2.15-17,2.57,11.65.61,11.76,1-.65.47-1.29.8-9.51,1.58-9.51,1.58"/><path class="cls-3" d="M679.33,119.94s-5.9-5.57-9-2.63c-3.43,3.21,3.16,7.81,5.86,10.22a75.17,75.17,0,0,0,6.68,5.09,47.79,47.79,0,0,0,4.53-9.45c2.14-5.87.83-10.12-2.79-11C680.16,111.19,679.33,119.94,679.33,119.94Z"/><path class="cls-4" d="M673.16,116.48l-1.39,2.35L670.39,122l6.06-5.21-4.46,8.3,7.16-5.51-3.27,7.64c3-3.23,3-3,6-6.44a59.26,59.26,0,0,1,6.4-6.06l-8.6,3.42,6.26-5.34"/><path class="cls-4" d="M674.81,125.83s4.17-2.24,6.93-3.69c3.14-1.65,7.5-4.32,7.5-4.32s-12.36,12.11-12,12.33,9.64-6.56,10-6.32-.23.76-.54,1.42-6.6,7-6.6,7"/><path class="cls-3" d="M560.85,206.38s4.21,6.94,8,4.93c4.15-2.18-1-8.36-2.94-11.41a74.4,74.4,0,0,0-5.09-6.68,48.42,48.42,0,0,0-6.88,7.91c-3.62,5.09-3.48,9.53-.22,11.31C557.73,214.6,560.85,206.38,560.85,206.38Z"/><path class="cls-4" d="M565.88,211.35l2-1.89,2.17-2.7-7.22,3.42,6.5-6.82-8.36,3.41,5.17-6.5c-3.76,2.32-3.71,2.07-7.46,4.63a58,58,0,0,1-7.78,4.14l9.2-1-7.46,3.48"/><path class="cls-4" d="M566.77,201.9s-4.61,1.06-7.66,1.72c-3.47.75-8.38,2.17-8.38,2.17s15.13-8.39,14.82-8.71-11,3.77-11.28,3.46.43-.68.9-1.23,8.23-5,8.23-5"/><path class="cls-3" d="M509.73,249.78s-5.22-6.21-8.68-3.64c-3.76,2.79,2.25,8.12,4.65,10.82a76.92,76.92,0,0,0,6.06,5.83,48.67,48.67,0,0,0,5.59-8.87c2.79-5.59,2-10-1.52-11.21C511.55,241.18,509.73,249.78,509.73,249.78Z"/><path class="cls-4" d="M504,245.64l-1.64,2.17-1.74,3,6.62-4.48-5.39,7.73,7.75-4.65-4.12,7.21c3.36-2.86,3.35-2.61,6.66-5.71a59.43,59.43,0,0,1,7.06-5.28l-8.94,2.4,6.84-4.58"/><path class="cls-4" d="M504.56,255.12s4.4-1.75,7.31-2.87c3.3-1.28,8-3.44,8-3.44s-13.67,10.62-13.31,10.89,10.32-5.42,10.61-5.15-.31.74-.7,1.35-7.37,6.21-7.37,6.21"/><path class="cls-3" d="M751,213.91s-2.78,7.62,1.17,9.33c4.3,1.87,5.91-6,7-9.44a76.11,76.11,0,0,0,2-8.15,48.23,48.23,0,0,0-10.49-.41c-6.23.37-9.61,3.26-8.94,6.91C742.67,216.62,751,213.91,751,213.91Z"/><path class="cls-4" d="M750.31,220.94l2.7.34h3.47l-7.19-3.49,9.39.8-7.9-4.39,8.31,0c-4.16-1.48-3.94-1.59-8.28-2.91a60,60,0,0,1-8.1-3.47l6.54,6.53-7.38-3.62"/><path class="cls-4" d="M758.24,215.71s-3.71-2.93-6.14-4.89c-2.76-2.23-7-5.17-7-5.17s16,6.54,16.08,6.09-9.85-6.23-9.76-6.62.8-.1,1.52-.07,9.06,3.28,9.06,3.28"/><path class="cls-3" d="M168.56,661.81s1-8-3.2-8.84c-4.61-.88-4.45,7.15-4.8,10.76a74.65,74.65,0,0,0-.18,8.4,48.53,48.53,0,0,0,10.31-1.91c6-1.74,8.66-5.3,7.21-8.72C176.12,657.32,168.56,661.81,168.56,661.81Z"/><path class="cls-4" d="M167.72,654.79l-2.72.27-3.37.75,7.78,1.82-9.34,1.29,8.67,2.54-8.09,1.87c4.38.53,4.19.69,8.71,1A59.12,59.12,0,0,1,178,666L170.21,661l8,1.92"/><path class="cls-4" d="M161.14,661.64s4.26,2,7.07,3.42c3.17,1.56,7.91,3.51,7.91,3.51s-17.07-2.84-17-2.4,11,3.91,11,4.31-.75.27-1.46.4-9.56-1.2-9.56-1.2"/><path class="cls-3" d="M103.7,699.74s-6.6-4.72-9.31-1.38c-3,3.64,4.19,7.31,7.19,9.33a76.47,76.47,0,0,0,7.32,4.14,48.25,48.25,0,0,0,3.21-10c1.31-6.11-.56-10.13-4.26-10.47C103.33,691,103.7,699.74,103.7,699.74Z"/><path class="cls-4" d="M97.11,697.15l-1,2.51L95.12,703l5.3-6-3.3,8.83,6.35-6.43-2.2,8c2.55-3.61,2.6-3.37,5-7.19a58.46,58.46,0,0,1,5.52-6.87l-8.06,4.55,5.48-6.14"/><path class="cls-4" d="M100,706.19s3.82-2.79,6.36-4.6c2.89-2.06,6.85-5.3,6.85-5.3S102.63,710,103,710.14s8.65-7.81,9-7.62-.12.79-.34,1.48-5.59,7.84-5.59,7.84"/><path class="cls-3" d="M249.76,637.47s1.55-8-2.61-9c-4.54-1.17-4.91,6.85-5.5,10.42a76.14,76.14,0,0,0-.73,8.38A48.85,48.85,0,0,0,251.34,646c6.1-1.34,9-4.72,7.76-8.22C257.6,633.49,249.76,637.47,249.76,637.47Z"/><path class="cls-4" d="M249.38,630.41l-2.72.08-3.43.54,7.65,2.33-9.4.67,8.48,3.1-8.2,1.33c4.34.82,4.15,1,8.63,1.59a59.3,59.3,0,0,1,8.55,2.17l-7.49-5.44,7.86,2.44"/><path class="cls-4" d="M242.36,636.81s4.13,2.32,6.83,3.88c3.07,1.77,7.67,4,7.67,4s-16.85-4-16.83-3.51,10.69,4.62,10.67,5-.77.22-1.49.3-9.46-1.82-9.46-1.82"/><path class="cls-3" d="M296.38,713.23s-7.14-3.85-9.41-.2c-2.47,4,5.08,6.73,8.31,8.35a75.92,75.92,0,0,0,7.78,3.2A48.92,48.92,0,0,0,305,714.26c.54-6.22-1.83-10-5.54-9.85C294.91,704.56,296.38,713.23,296.38,713.23Z"/><path class="cls-4" d="M289.52,711.49l-.73,2.63-.51,3.42,4.5-6.6-2.15,9.17,5.48-7.17-1.17,8.22c2.08-3.9,2.16-3.67,4.09-7.76a58.3,58.3,0,0,1,4.62-7.52l-7.42,5.53,4.66-6.78"/><path class="cls-4" d="M293.54,720.09s3.45-3.24,5.74-5.36c2.6-2.4,6.12-6.12,6.12-6.12s-8.79,14.9-8.36,15,7.6-8.83,8-8.69,0,.8-.15,1.51-4.56,8.49-4.56,8.49"/><path class="cls-3" d="M218.12,730.94s5.44,6,8.8,3.33c3.66-2.93-2.54-8-5-10.65a76.94,76.94,0,0,0-6.27-5.6,48.46,48.46,0,0,0-5.26,9.07c-2.59,5.69-1.61,10,1.93,11.14C216.61,739.6,218.12,730.94,218.12,730.94Z"/><path class="cls-4" d="M224,734.87l1.57-2.23,1.62-3.06-6.45,4.72,5.1-7.93-7.57,4.94,3.85-7.36c-3.25,3-3.25,2.73-6.44,5.95a59.58,59.58,0,0,1-6.86,5.54l8.84-2.73L211,737.54"/><path class="cls-4" d="M223.09,725.42s-4.33,1.91-7.2,3.14c-3.26,1.39-7.82,3.72-7.82,3.72s13.27-11.11,12.9-11.36-10.11,5.79-10.42,5.53.29-.75.66-1.38,7.13-6.47,7.13-6.47"/><path class="cls-3" d="M146.94,768.47s-2-7.86-6.24-7c-4.61.9-1.48,8.3-.48,11.78a76.07,76.07,0,0,0,2.94,7.87,48.25,48.25,0,0,0,8.88-5.6c4.93-3.83,6.08-8.12,3.46-10.76C152.3,761.5,146.94,768.47,146.94,768.47Z"/><path class="cls-4" d="M143.56,762.25l-2.42,1.26-2.86,2,7.9-1.19L138,768.93l9-.86-6.83,4.73c4.27-1.13,4.16-.91,8.48-2.27a57.87,57.87,0,0,1,8.64-1.73l-9.09-1.68,8.14-1.19"/><path class="cls-4" d="M140,771.05s4.72.32,7.84.56c3.53.28,8.65.34,8.65.34s-16.92,3.67-16.71,4.07,11.65-.43,11.8-.06-.61.53-1.22.92S141,779.3,141,779.3"/><path class="cls-3" d="M38.74,701.83S41,694,37,692.6c-4.42-1.58-5.5,6.38-6.41,9.88a76,76,0,0,0-1.48,8.28,48.59,48.59,0,0,0,10.49-.29c6.2-.79,9.37-3.9,8.46-7.5C46.9,698.57,38.74,701.83,38.74,701.83Z"/><path class="cls-4" d="M39,694.76l-2.72-.15-3.45.22,7.4,3-9.42-.17L39,701.51l-8.28.59c4.25,1.21,4,1.34,8.45,2.36a59.32,59.32,0,0,1,8.32,2.92l-7-6.08,7.61,3.13"/><path class="cls-4" d="M31.43,700.51s3.9,2.68,6.46,4.48c2.9,2,7.27,4.69,7.27,4.69s-16.43-5.45-16.45-5,10.24,5.57,10.18,6-.79.15-1.51.17-9.26-2.66-9.26-2.66"/><path class="cls-3" d="M341.2,780.66s-2.77,7.63,1.17,9.34c4.3,1.86,5.91-6,7.05-9.44a73.53,73.53,0,0,0,2-8.15A48.17,48.17,0,0,0,341,772c-6.24.36-9.61,3.25-9,6.91C332.84,783.38,341.2,780.66,341.2,780.66Z"/><path class="cls-4" d="M340.47,787.7l2.71.34h3.46l-7.19-3.5,9.39.8L341,781l8.3,0c-4.16-1.48-3.94-1.6-8.27-2.92a58.41,58.41,0,0,1-8.11-3.47l6.55,6.54L332,777.45"/><path class="cls-4" d="M348.4,782.47s-3.71-2.93-6.14-4.89c-2.76-2.23-6.94-5.17-6.94-5.17s16,6.53,16.07,6.09-9.84-6.24-9.76-6.63.8-.09,1.52-.06,9.06,3.27,9.06,3.27"/><path class="cls-3" d="M12.26,813.94s4.21,6.93,8,4.93c4.15-2.18-1-8.37-2.93-11.41a77.4,77.4,0,0,0-5.09-6.69,48.54,48.54,0,0,0-6.89,7.92c-3.62,5.09-3.48,9.53-.21,11.3C9.14,822.16,12.26,813.94,12.26,813.94Z"/><path class="cls-4" d="M17.29,818.91l2-1.9,2.18-2.69-7.23,3.41,6.51-6.81-8.37,3.41,5.18-6.5c-3.77,2.31-3.72,2.07-7.46,4.62a58.64,58.64,0,0,1-7.78,4.14l9.19-1L4,819.07"/><path class="cls-4" d="M18.18,809.46s-4.61,1-7.66,1.72c-3.46.75-8.38,2.17-8.38,2.17S17.27,805,17,804.63s-11,3.77-11.28,3.46.43-.68.9-1.22,8.23-5,8.23-5"/><path class="cls-3" d="M244.17,785.58s-6.6-4.72-9.31-1.38c-3,3.65,4.19,7.31,7.2,9.33a75.57,75.57,0,0,0,7.31,4.14,48.25,48.25,0,0,0,3.21-10c1.32-6.1-.56-10.13-4.26-10.47C243.8,776.8,244.17,785.58,244.17,785.58Z"/><path class="cls-4" d="M237.58,783l-1.05,2.52-.94,3.33,5.3-6-3.29,8.84,6.34-6.44-2.19,8c2.54-3.6,2.59-3.36,5-7.18a58,58,0,0,1,5.52-6.88l-8.06,4.55,5.48-6.14"/><path class="cls-4" d="M240.49,792s3.82-2.79,6.37-4.6c2.88-2.06,6.84-5.3,6.84-5.3S243.1,795.81,243.51,796s8.65-7.81,9-7.62-.13.79-.35,1.48-5.59,7.85-5.59,7.85"/><path class="cls-3" d="M385.19,676.22s4.31,6.87,8.08,4.81c4.12-2.24-1.1-8.35-3.1-11.36a76,76,0,0,0-5.19-6.61,48.66,48.66,0,0,0-6.77,8c-3.54,5.15-3.34,9.59,0,11.31C382.19,684.48,385.19,676.22,385.19,676.22Z"/><path class="cls-4" d="M390.3,681.12l1.92-1.93,2.14-2.73L387.19,680l6.4-6.92-8.31,3.54,5.07-6.58c-3.73,2.37-3.68,2.13-7.38,4.74a58.8,58.8,0,0,1-7.73,4.25l9.18-1.14-7.4,3.6"/><path class="cls-4" d="M391,671.65s-4.59,1.12-7.63,1.83c-3.45.81-8.35,2.3-8.35,2.3s15-8.62,14.69-8.93-11,3.93-11.22,3.62.41-.68.88-1.24,8.15-5.13,8.15-5.13"/><path class="cls-3" d="M413.26,743.78s-1.31-8-5.59-7.56c-4.67.48-2.21,8.13-1.53,11.68a76.19,76.19,0,0,0,2.23,8.1,48.23,48.23,0,0,0,9.34-4.78c5.26-3.37,6.78-7.54,4.41-10.4C419.23,737.32,413.26,743.78,413.26,743.78Z"/><path class="cls-4" d="M410.45,737.29l-2.52,1-3,1.69,8-.48-8.58,3.91,9-.05-7.22,4.1c4.36-.74,4.22-.54,8.64-1.51a59.59,59.59,0,0,1,8.77-.94l-8.91-2.49,8.22-.46"/><path class="cls-4" d="M406.1,745.73s4.67.74,7.75,1.26c3.49.59,8.59,1.11,8.59,1.11s-17.17,2.15-17,2.56,11.64.61,11.76,1-.65.47-1.29.8-9.51,1.58-9.51,1.58"/><path class="cls-3" d="M113.09,449.92s-5.22-6.21-8.68-3.65c-3.76,2.79,2.25,8.12,4.65,10.82a74.93,74.93,0,0,0,6.06,5.83,48.67,48.67,0,0,0,5.59-8.87c2.79-5.59,2-9.95-1.52-11.21C114.91,441.32,113.09,449.92,113.09,449.92Z"/><path class="cls-4" d="M107.35,445.77,105.71,448l-1.74,3,6.62-4.48-5.39,7.74,7.75-4.65-4.12,7.21c3.36-2.86,3.35-2.62,6.66-5.71a58.8,58.8,0,0,1,7.06-5.29l-8.94,2.41,6.84-4.59"/><path class="cls-4" d="M107.92,455.25s4.4-1.75,7.31-2.87c3.3-1.28,8-3.43,8-3.43s-13.67,10.61-13.31,10.88,10.32-5.42,10.61-5.14-.31.73-.7,1.35-7.37,6.2-7.37,6.2"/><path class="cls-3" d="M299.2,436.68s.13-8.11-4.16-8.44c-4.68-.36-3.62,7.61-3.58,11.22a77.26,77.26,0,0,0,.75,8.37,48,48,0,0,0,10-3c5.78-2.39,8-6.22,6.2-9.46C306.22,431.38,299.2,436.68,299.2,436.68Z"/><path class="cls-4" d="M297.58,429.79l-2.66.56-3.28,1.13,7.94.95-9.14,2.31,8.9,1.56-7.84,2.76c4.42,0,4.25.22,8.78.05a58.55,58.55,0,0,1,8.79.63l-8.32-4,8.16,1"/><path class="cls-4" d="M291.8,437.32s4.47,1.56,7.41,2.62c3.33,1.2,8.25,2.62,8.25,2.62s-17.28-.94-17.19-.51,11.35,2.68,11.39,3.07-.72.35-1.41.57-9.63-.14-9.63-.14"/><path class="cls-3" d="M81.57,791.64s7.28,3.58,9.41-.16c2.32-4.07-5.32-6.53-8.61-8a74.85,74.85,0,0,0-7.89-2.9,47.91,47.91,0,0,0-1.55,10.37c-.3,6.24,2.2,9.91,5.91,9.65C83.37,800.24,81.57,791.64,81.57,791.64Z"/><path class="cls-4" d="M88.49,793.12l.63-2.65L89.5,787l-4.25,6.77,1.82-9.25-5.22,7.38.86-8.26c-1.92,4-2,3.74-3.79,7.91a59.3,59.3,0,0,1-4.33,7.68l7.21-5.8-4.41,6.95"/><path class="cls-4" d="M84.15,784.67s-3.32,3.37-5.53,5.57c-2.51,2.5-5.89,6.35-5.89,6.35s8.23-15.22,7.8-15.33-7.27,9.12-7.64,9,0-.8.09-1.52,4.24-8.65,4.24-8.65"/><path class="cls-3" d="M213.67,441.62s1.17,8,5.45,7.67c4.68-.39,2.37-8.08,1.76-11.65a75.23,75.23,0,0,0-2.08-8.14,48.26,48.26,0,0,0-9.43,4.59c-5.32,3.28-6.93,7.42-4.61,10.33C207.59,448,213.67,441.62,213.67,441.62Z"/><path class="cls-4" d="M216.36,448.17l2.55-1,3.05-1.63-8,.32,8.65-3.73-9-.13,7.3-4c-4.37.66-4.23.45-8.67,1.34a58.8,58.8,0,0,1-8.79.78l8.86,2.66-8.22.3"/><path class="cls-4" d="M220.88,439.81s-4.66-.83-7.73-1.41c-3.48-.66-8.56-1.27-8.56-1.27s17.21-1.82,17-2.24-11.63-.83-11.74-1.22.66-.46,1.31-.78,9.53-1.39,9.53-1.39"/><path class="cls-3" d="M206.8,572.76s1-8-3.2-8.84c-4.61-.88-4.45,7.15-4.8,10.75a74.82,74.82,0,0,0-.18,8.41,48.22,48.22,0,0,0,10.31-1.92c6-1.73,8.66-5.29,7.2-8.71C214.36,568.27,206.8,572.76,206.8,572.76Z"/><path class="cls-4" d="M206,565.74l-2.71.26-3.38.76,7.78,1.82-9.33,1.29,8.67,2.54-8.1,1.86c4.39.54,4.2.7,8.72,1a58,58,0,0,1,8.67,1.6L208.44,572l8,1.91"/><path class="cls-4" d="M199.37,572.58s4.27,2,7.07,3.43c3.18,1.56,7.92,3.51,7.92,3.51s-17.08-2.85-17-2.4,11,3.91,11,4.31-.76.27-1.47.4-9.56-1.2-9.56-1.2"/><path class="cls-3" d="M41,474.86s1.88,7.89,6.11,7.15c4.62-.81,1.64-8.26.7-11.76a76.77,76.77,0,0,0-2.8-7.93,48.37,48.37,0,0,0-9,5.43c-5,3.74-6.24,8-3.67,10.69C35.49,481.73,41,474.86,41,474.86Z"/><path class="cls-4" d="M44.24,481.14l2.45-1.21,2.89-1.9-7.92,1,8.28-4.5-9,.69,6.92-4.61c-4.29,1.05-4.17.84-8.52,2.12a58,58,0,0,1-8.67,1.56l9.06,1.86-8.16,1"/><path class="cls-4" d="M48,472.41s-4.72-.41-7.83-.71c-3.52-.34-8.64-.5-8.64-.5s17-3.35,16.78-3.76-11.65.22-11.8-.16.62-.51,1.24-.89,9.36-2.25,9.36-2.25"/><path class="cls-3" d="M380.44,467.54s-6-5.48-9.07-2.5c-3.37,3.26,3.28,7.77,6,10.14a75,75,0,0,0,6.76,5,48.72,48.72,0,0,0,4.39-9.53c2.06-5.9.68-10.12-2.95-10.91C381.14,458.78,380.44,467.54,380.44,467.54Z"/><path class="cls-4" d="M374.22,464.17l-1.35,2.37-1.33,3.19,6-5.29-4.34,8.36,7.07-5.61-3.15,7.68c3-3.27,3-3,5.87-6.52a59.27,59.27,0,0,1,6.32-6.15l-8.55,3.54,6.18-5.43"/><path class="cls-4" d="M376,473.5s4.13-2.3,6.88-3.79c3.11-1.69,7.43-4.43,7.43-4.43s-12.18,12.29-11.79,12.51,9.53-6.71,9.86-6.47-.22.77-.52,1.42-6.5,7.11-6.5,7.11"/><path class="cls-3" d="M398.62,557.32s7.85,2,9.17-2.07c1.45-4.46-6.54-5.3-10.07-6.11a76.86,76.86,0,0,0-8.31-1.23,48.07,48.07,0,0,0,.6,10.48c1,6.17,4.17,9.25,7.75,8.23C402.12,565.38,398.62,557.32,398.62,557.32Z"/><path class="cls-4" d="M405.69,557.36l.08-2.72-.33-3.45-2.78,7.49-.11-9.42-3.6,8.28-.84-8.26c-1.08,4.28-1.22,4.08-2.11,8.52a58.91,58.91,0,0,1-2.67,8.4l5.87-7.15-2.9,7.7"/><path class="cls-4" d="M399.72,550s-2.56,4-4.28,6.58c-1.95,3-4.48,7.41-4.48,7.41s5-16.58,4.52-16.59-5.26,10.41-5.65,10.35-.17-.78-.22-1.5S392,546.9,392,546.9"/><path class="cls-3" d="M17.3,622.34S10.68,617.66,8,621c-2.94,3.66,4.23,7.29,7.24,9.29a74.9,74.9,0,0,0,7.34,4.1,48,48,0,0,0,3.15-10c1.29-6.11-.61-10.13-4.31-10.45C16.89,613.56,17.3,622.34,17.3,622.34Z"/><path class="cls-4" d="M10.7,619.79l-1,2.52-.92,3.33,5.26-6-3.24,8.85,6.3-6.47-2.15,8c2.53-3.63,2.58-3.38,5-7.22a58.25,58.25,0,0,1,5.48-6.9l-8,4.59,5.44-6.17"/><path class="cls-4" d="M13.66,628.81S17.47,626,20,624.18c2.88-2.08,6.82-5.34,6.82-5.34s-10.53,13.73-10.11,13.9,8.6-7.85,9-7.67-.12.8-.34,1.49-5.55,7.87-5.55,7.87"/><path class="cls-3" d="M323.74,539.31s1.08,8,5.37,7.73c4.68-.34,2.45-8.06,1.87-11.63a76.26,76.26,0,0,0-2-8.17,48.11,48.11,0,0,0-9.48,4.5c-5.36,3.22-7,7.34-4.72,10.27C317.59,545.59,323.74,539.31,323.74,539.31Z"/><path class="cls-4" d="M326.36,545.88l2.55-1,3.08-1.6-8,.24,8.69-3.65-9-.22,7.34-3.88c-4.37.61-4.23.4-8.68,1.25a58.6,58.6,0,0,1-8.79.68l8.83,2.76-8.23.21"/><path class="cls-4" d="M331,537.57s-4.65-.88-7.71-1.49c-3.47-.69-8.55-1.36-8.55-1.36s17.23-1.64,17.07-2.05-11.61-1-11.72-1.35.67-.45,1.32-.76,9.54-1.3,9.54-1.3"/><path class="cls-3" d="M107.07,544s-7.1-3.93-9.41-.3c-2.51,4,5,6.78,8.22,8.44a76.2,76.2,0,0,0,7.75,3.27,48.75,48.75,0,0,0,2-10.29c.61-6.22-1.72-10-5.43-9.91C105.69,535.3,107.07,544,107.07,544Z"/><path class="cls-4" d="M100.23,542.17l-.76,2.61-.54,3.42,4.57-6.55-2.26,9.15,5.56-7.12-1.25,8.21c2.11-3.88,2.19-3.64,4.17-7.72a57.9,57.9,0,0,1,4.69-7.46l-7.48,5.44,4.74-6.72"/><path class="cls-4" d="M104.16,550.81s3.47-3.21,5.79-5.3c2.63-2.38,6.19-6.06,6.19-6.06s-9,14.81-8.53,14.94,7.7-8.76,8.07-8.61,0,.8-.17,1.51-4.65,8.44-4.65,8.44"/><path class="cls-3" d="M170.24,497.12s7.5,3.09,9.38-.78c2-4.22-5.75-6.16-9.13-7.45a77.5,77.5,0,0,0-8.07-2.37,48.78,48.78,0,0,0-.85,10.46c.11,6.25,2.85,9.74,6.53,9.23C172.6,505.59,170.24,497.12,170.24,497.12Z"/><path class="cls-4" d="M177.24,498.14l.45-2.69.16-3.46-3.79,7,1.19-9.35-4.71,7.71.31-8.3c-1.66,4.1-1.76,3.87-3.26,8.15a58.21,58.21,0,0,1-3.82,7.95l6.81-6.27-3.93,7.23"/><path class="cls-4" d="M172.35,490s-3.09,3.58-5.15,5.92c-2.34,2.66-5.46,6.73-5.46,6.73s7.21-15.74,6.77-15.81-6.65,9.57-7,9.47-.06-.8,0-1.52,3.66-8.91,3.66-8.91"/><path class="cls-3" d="M36,537.66s-1.32-8-5.59-7.56c-4.67.48-2.22,8.13-1.53,11.68a76.19,76.19,0,0,0,2.23,8.1,48.23,48.23,0,0,0,9.34-4.78c5.25-3.37,6.78-7.54,4.41-10.4C41.94,531.2,36,537.66,36,537.66Z"/><path class="cls-4" d="M33.17,531.17l-2.53,1-3,1.69,8-.48L27,537.32l9-.05-7.22,4.1c4.36-.74,4.22-.54,8.64-1.51a59.59,59.59,0,0,1,8.77-.94l-8.91-2.49,8.22-.46"/><path class="cls-4" d="M28.82,539.61s4.67.74,7.75,1.26c3.49.59,8.59,1.11,8.59,1.11s-17.18,2.15-17,2.56,11.64.61,11.76,1-.65.47-1.3.8-9.5,1.58-9.5,1.58"/><path class="cls-3" d="M254.6,518.12s-5.9-5.57-9-2.63c-3.42,3.21,3.17,7.82,5.86,10.23a77.39,77.39,0,0,0,6.68,5.09,47.73,47.73,0,0,0,4.54-9.46c2.14-5.87.83-10.11-2.79-11C255.43,509.37,254.6,518.12,254.6,518.12Z"/><path class="cls-4" d="M248.42,514.67,247,517l-1.38,3.18,6.06-5.21-4.46,8.3,7.15-5.51-3.26,7.64c3-3.23,3-3,6-6.44a58.84,58.84,0,0,1,6.41-6.06l-8.6,3.41,6.26-5.33"/><path class="cls-4" d="M250.08,524s4.16-2.25,6.93-3.7c3.14-1.64,7.5-4.32,7.5-4.32s-12.36,12.11-12,12.34,9.64-6.56,10-6.33-.23.77-.54,1.42-6.61,7-6.61,7"/><path class="cls-3" d="M136.12,604.57s4.2,6.93,8,4.93c4.15-2.18-1-8.37-2.94-11.41a75.24,75.24,0,0,0-5.09-6.69,48.82,48.82,0,0,0-6.88,7.92c-3.62,5.09-3.48,9.53-.22,11.3C133,612.79,136.12,604.57,136.12,604.57Z"/><path class="cls-4" d="M141.15,609.54l1.95-1.9,2.18-2.69-7.23,3.42,6.51-6.82L136.2,605l5.17-6.5c-3.76,2.31-3.72,2.07-7.46,4.62a58.64,58.64,0,0,1-7.78,4.14l9.2-1-7.46,3.48"/><path class="cls-4" d="M142,600.09s-4.62,1-7.67,1.72c-3.46.75-8.38,2.17-8.38,2.17s15.14-8.39,14.83-8.72-11,3.78-11.28,3.46.42-.68.9-1.22,8.23-5,8.23-5"/><path class="cls-3" d="M85,648s-5.22-6.21-8.67-3.65c-3.77,2.8,2.24,8.12,4.65,10.83A77.61,77.61,0,0,0,87,661a47.92,47.92,0,0,0,5.59-8.88c2.8-5.58,2-10-1.51-11.2C86.82,639.37,85,648,85,648Z"/><path class="cls-4" d="M79.26,643.83,77.61,646l-1.73,3,6.61-4.48-5.38,7.73,7.74-4.65-4.11,7.21c3.36-2.86,3.35-2.61,6.66-5.71a58.48,58.48,0,0,1,7-5.28l-8.93,2.4,6.83-4.58"/><path class="cls-4" d="M79.83,653.31s4.39-1.75,7.31-2.88c3.3-1.27,7.94-3.43,7.94-3.43s-13.67,10.62-13.31,10.88,10.32-5.41,10.62-5.14-.32.74-.7,1.35-7.37,6.21-7.37,6.21"/><path class="cls-3" d="M326.3,612.09s-2.77,7.63,1.18,9.34c4.3,1.86,5.91-6,7-9.44a74.94,74.94,0,0,0,2-8.15,48.1,48.1,0,0,0-10.48-.41c-6.23.37-9.61,3.25-8.94,6.91C317.94,614.81,326.3,612.09,326.3,612.09Z"/><path class="cls-4" d="M325.58,619.13l2.7.34h3.46l-7.18-3.5,9.39.8-7.9-4.38,8.3,0c-4.15-1.48-3.94-1.6-8.27-2.92A58,58,0,0,1,318,606l6.54,6.54-7.38-3.63"/><path class="cls-4" d="M333.51,613.9s-3.72-2.93-6.15-4.89c-2.75-2.23-6.94-5.17-6.94-5.17s16,6.53,16.08,6.09-9.85-6.24-9.76-6.63.79-.09,1.52-.06,9.06,3.27,9.06,3.27"/><path class="cls-3" d="M593.29,661.81s1-8-3.2-8.84c-4.61-.88-4.44,7.15-4.8,10.76a77.38,77.38,0,0,0-.18,8.4,48.55,48.55,0,0,0,10.32-1.91c6-1.74,8.65-5.3,7.2-8.72C600.85,657.32,593.29,661.81,593.29,661.81Z"/><path class="cls-4" d="M592.45,654.79l-2.71.27-3.38.75,7.78,1.82-9.34,1.29,8.67,2.54-8.09,1.87c4.38.53,4.2.69,8.71,1a59.12,59.12,0,0,1,8.67,1.6L594.94,661l8,1.92"/><path class="cls-4" d="M585.87,661.64s4.27,2,7.07,3.42c3.18,1.56,7.91,3.51,7.91,3.51s-17.07-2.84-17-2.4,11,3.91,11,4.31-.75.27-1.46.4-9.56-1.2-9.56-1.2"/><path class="cls-3" d="M528.43,699.74s-6.6-4.72-9.31-1.38c-3,3.64,4.2,7.31,7.2,9.33a75.57,75.57,0,0,0,7.31,4.14,48.25,48.25,0,0,0,3.21-10c1.32-6.11-.56-10.13-4.26-10.47C528.06,691,528.43,699.74,528.43,699.74Z"/><path class="cls-4" d="M521.84,697.15l-1.05,2.51-.93,3.34,5.29-6-3.29,8.83,6.34-6.43-2.19,8c2.54-3.61,2.59-3.37,5-7.19a58.46,58.46,0,0,1,5.52-6.87l-8.06,4.55,5.48-6.14"/><path class="cls-4" d="M524.75,706.19s3.83-2.79,6.37-4.6c2.88-2.06,6.84-5.3,6.84-5.3s-10.6,13.68-10.19,13.85,8.65-7.81,9-7.62-.13.79-.35,1.48-5.58,7.84-5.58,7.84"/><path class="cls-3" d="M674.49,637.47s1.55-8-2.61-9c-4.54-1.17-4.91,6.85-5.5,10.42a76.14,76.14,0,0,0-.73,8.38A48.8,48.8,0,0,0,676.07,646c6.1-1.34,9-4.72,7.76-8.22C682.33,633.49,674.49,637.47,674.49,637.47Z"/><path class="cls-4" d="M674.11,630.41l-2.72.08L668,631l7.64,2.33-9.4.67,8.48,3.1-8.19,1.33c4.34.82,4.14,1,8.62,1.59a59.3,59.3,0,0,1,8.55,2.17l-7.48-5.44,7.86,2.44"/><path class="cls-4" d="M667.1,636.81s4.12,2.32,6.82,3.88c3.07,1.77,7.67,4,7.67,4s-16.85-4-16.83-3.51,10.7,4.62,10.67,5-.77.22-1.49.3-9.46-1.82-9.46-1.82"/><path class="cls-3" d="M721.11,713.23s-7.14-3.85-9.4-.2c-2.48,4,5.07,6.73,8.31,8.35a76.18,76.18,0,0,0,7.77,3.2,48.15,48.15,0,0,0,1.93-10.32c.54-6.22-1.82-10-5.54-9.85C719.64,704.56,721.11,713.23,721.11,713.23Z"/><path class="cls-4" d="M714.25,711.49l-.72,2.63-.51,3.42,4.5-6.6-2.16,9.17,5.48-7.17-1.17,8.22c2.08-3.9,2.16-3.67,4.09-7.76a59.53,59.53,0,0,1,4.62-7.52L721,711.41l4.66-6.78"/><path class="cls-4" d="M718.27,720.09s3.45-3.24,5.74-5.36c2.61-2.4,6.13-6.12,6.13-6.12s-8.8,14.9-8.37,15,7.6-8.83,8-8.69,0,.8-.15,1.51-4.56,8.49-4.56,8.49"/><path class="cls-3" d="M642.85,730.94s5.45,6,8.8,3.33c3.67-2.93-2.54-8-5-10.65a75.78,75.78,0,0,0-6.26-5.6,47.8,47.8,0,0,0-5.26,9.07c-2.59,5.69-1.62,10,1.92,11.14C641.34,739.6,642.85,730.94,642.85,730.94Z"/><path class="cls-4" d="M648.74,734.87l1.56-2.23,1.62-3.06-6.44,4.72,5.09-7.93L643,731.31l3.85-7.36c-3.26,3-3.26,2.73-6.45,5.95a59.58,59.58,0,0,1-6.86,5.54l8.84-2.73-6.66,4.83"/><path class="cls-4" d="M647.82,725.42s-4.33,1.91-7.2,3.14c-3.26,1.39-7.82,3.72-7.82,3.72s13.27-11.11,12.91-11.36-10.12,5.79-10.42,5.53.29-.75.65-1.38,7.13-6.47,7.13-6.47"/><path class="cls-3" d="M571.68,768.47s-2-7.86-6.25-7c-4.6.9-1.48,8.3-.48,11.78a76.07,76.07,0,0,0,2.94,7.87,47.86,47.86,0,0,0,8.88-5.6c4.93-3.83,6.08-8.12,3.47-10.76C577,761.5,571.68,768.47,571.68,768.47Z"/><path class="cls-4" d="M568.29,762.25l-2.42,1.26-2.86,2,7.91-1.19-8.2,4.66,9-.86-6.82,4.73c4.26-1.13,4.15-.91,8.47-2.27A57.9,57.9,0,0,1,582,768.8l-9.1-1.68,8.14-1.19"/><path class="cls-4" d="M564.71,771.05s4.73.32,7.84.56c3.53.28,8.65.34,8.65.34s-16.91,3.67-16.71,4.07,11.65-.43,11.8-.06-.6.53-1.21.92-9.33,2.42-9.33,2.42"/><path class="cls-3" d="M463.47,701.83s2.26-7.79-1.79-9.23c-4.42-1.58-5.5,6.38-6.41,9.88a76,76,0,0,0-1.48,8.28,48.59,48.59,0,0,0,10.49-.29c6.2-.79,9.37-3.9,8.46-7.5C471.63,698.57,463.47,701.83,463.47,701.83Z"/><path class="cls-4" d="M463.72,694.76l-2.72-.15-3.45.22,7.4,3-9.42-.17,8.17,3.84-8.28.59c4.25,1.21,4,1.34,8.45,2.36a59.32,59.32,0,0,1,8.32,2.92l-7-6.08,7.61,3.13"/><path class="cls-4" d="M456.16,700.51s3.91,2.68,6.46,4.48c2.9,2,7.27,4.69,7.27,4.69s-16.42-5.45-16.45-5,10.25,5.57,10.18,6-.78.15-1.51.17-9.25-2.66-9.25-2.66"/><path class="cls-3" d="M765.93,780.66s-2.77,7.63,1.17,9.34c4.31,1.86,5.92-6,7.06-9.44a74.94,74.94,0,0,0,2-8.15A48.1,48.1,0,0,0,765.7,772c-6.24.36-9.61,3.25-9,6.91C757.57,783.38,765.93,780.66,765.93,780.66Z"/><path class="cls-4" d="M765.21,787.7l2.7.34h3.46l-7.18-3.5,9.39.8-7.9-4.38,8.3,0c-4.16-1.48-3.94-1.6-8.27-2.92a58,58,0,0,1-8.1-3.47l6.54,6.54-7.39-3.63"/><path class="cls-4" d="M773.13,782.47s-3.71-2.93-6.14-4.89c-2.75-2.23-6.94-5.17-6.94-5.17s16,6.53,16.08,6.09-9.85-6.24-9.76-6.63.79-.09,1.51-.06,9.06,3.27,9.06,3.27"/><path class="cls-3" d="M437,813.94s4.21,6.93,8,4.93c4.15-2.18-1-8.37-2.94-11.41a75.24,75.24,0,0,0-5.09-6.69,48.25,48.25,0,0,0-6.88,7.92c-3.62,5.09-3.49,9.53-.22,11.3C433.87,822.16,437,813.94,437,813.94Z"/><path class="cls-4" d="M442,818.91l2-1.9,2.18-2.69-7.23,3.41,6.51-6.81-8.36,3.41,5.17-6.5c-3.76,2.31-3.72,2.07-7.46,4.62a58.64,58.64,0,0,1-7.78,4.14l9.19-1-7.45,3.48"/><path class="cls-4" d="M442.92,809.46s-4.62,1-7.67,1.72c-3.46.75-8.38,2.17-8.38,2.17S442,805,441.7,804.63s-11,3.77-11.28,3.46.42-.68.9-1.22,8.23-5,8.23-5"/><path class="cls-3" d="M668.9,785.58s-6.6-4.72-9.31-1.38c-3,3.65,4.2,7.31,7.2,9.33a75.57,75.57,0,0,0,7.31,4.14,48.25,48.25,0,0,0,3.21-10c1.32-6.1-.56-10.13-4.26-10.47C668.53,776.8,668.9,785.58,668.9,785.58Z"/><path class="cls-4" d="M662.31,783l-1,2.52-.93,3.33,5.29-6-3.29,8.84,6.34-6.44-2.19,8c2.54-3.6,2.6-3.36,5-7.18A58,58,0,0,1,677,779.2L669,783.75l5.48-6.14"/><path class="cls-4" d="M665.22,792s3.83-2.79,6.37-4.6c2.88-2.06,6.84-5.3,6.84-5.3s-10.6,13.68-10.18,13.85,8.65-7.81,9-7.62-.12.79-.34,1.48-5.59,7.85-5.59,7.85"/><path class="cls-3" d="M809.92,676.22s4.31,6.87,8.09,4.81c4.11-2.24-1.1-8.35-3.11-11.36a76,76,0,0,0-5.19-6.61,48.36,48.36,0,0,0-6.76,8c-3.55,5.15-3.34,9.59-.05,11.31C806.92,684.48,809.92,676.22,809.92,676.22Z"/><path class="cls-4" d="M815,681.12l1.93-1.93,2.13-2.73L811.92,680l6.4-6.92L810,676.61l5.07-6.58c-3.72,2.37-3.68,2.13-7.38,4.74A59,59,0,0,1,800,679l9.18-1.14-7.4,3.6"/><path class="cls-4" d="M815.78,671.65s-4.6,1.12-7.64,1.83c-3.45.81-8.35,2.3-8.35,2.3s15-8.62,14.69-8.93-11,3.93-11.22,3.62.41-.68.88-1.24,8.15-5.13,8.15-5.13"/><path class="cls-3" d="M838,743.78s-1.32-8-5.6-7.56c-4.66.48-2.21,8.13-1.53,11.68a76.19,76.19,0,0,0,2.23,8.1,47.91,47.91,0,0,0,9.34-4.78c5.26-3.37,6.79-7.54,4.41-10.4C844,737.32,838,743.78,838,743.78Z"/><path class="cls-4" d="M835.18,737.29l-2.52,1-3,1.69,8-.48L829,743.44l9-.05-7.22,4.1c4.36-.74,4.22-.54,8.65-1.51a59.38,59.38,0,0,1,8.76-.94l-8.9-2.49,8.21-.46"/><path class="cls-4" d="M830.83,745.73s4.67.74,7.75,1.26c3.5.59,8.59,1.11,8.59,1.11s-17.17,2.15-17,2.56,11.64.61,11.75,1-.65.47-1.29.8-9.5,1.58-9.5,1.58"/><path class="cls-3" d="M537.82,449.92s-5.22-6.21-8.67-3.65c-3.77,2.79,2.24,8.12,4.64,10.82a74.93,74.93,0,0,0,6.06,5.83,48.67,48.67,0,0,0,5.59-8.87c2.8-5.59,2-9.95-1.52-11.21C539.64,441.32,537.82,449.92,537.82,449.92Z"/><path class="cls-4" d="M532.08,445.77,530.44,448l-1.74,3,6.62-4.48-5.38,7.74,7.74-4.65-4.12,7.21c3.37-2.86,3.36-2.62,6.66-5.71a58.8,58.8,0,0,1,7.06-5.29l-8.93,2.41,6.83-4.59"/><path class="cls-4" d="M532.65,455.25s4.4-1.75,7.31-2.87c3.31-1.28,7.95-3.43,7.95-3.43s-13.67,10.61-13.31,10.88,10.32-5.42,10.61-5.14-.31.73-.7,1.35-7.36,6.2-7.36,6.2"/><path class="cls-3" d="M723.93,436.68s.13-8.11-4.16-8.44c-4.67-.36-3.62,7.61-3.58,11.22a76.09,76.09,0,0,0,.76,8.37,48,48,0,0,0,10-3c5.78-2.39,8-6.22,6.2-9.46C731,431.38,723.93,436.68,723.93,436.68Z"/><path class="cls-4" d="M722.32,429.79l-2.67.56-3.27,1.13,7.93.95-9.13,2.31,8.89,1.56-7.83,2.76c4.41,0,4.24.22,8.77.05a58.55,58.55,0,0,1,8.79.63l-8.32-4,8.16,1"/><path class="cls-4" d="M716.53,437.32s4.47,1.56,7.41,2.62c3.33,1.2,8.25,2.62,8.25,2.62s-17.28-.94-17.19-.51,11.35,2.68,11.4,3.07-.73.35-1.42.57-9.63-.14-9.63-.14"/><path class="cls-3" d="M506.31,791.64s7.28,3.58,9.4-.16c2.33-4.07-5.32-6.53-8.61-8a74.85,74.85,0,0,0-7.89-2.9,48.35,48.35,0,0,0-1.54,10.37c-.31,6.24,2.19,9.91,5.9,9.65C508.1,800.24,506.31,791.64,506.31,791.64Z"/><path class="cls-4" d="M513.22,793.12l.63-2.65.39-3.45L510,793.79l1.81-9.25-5.21,7.38.86-8.26c-1.93,4-2,3.74-3.8,7.91a59.3,59.3,0,0,1-4.33,7.68l7.21-5.8-4.41,6.95"/><path class="cls-4" d="M508.89,784.67s-3.32,3.37-5.54,5.57c-2.51,2.5-5.89,6.35-5.89,6.35s8.24-15.22,7.8-15.33-7.26,9.12-7.64,9,0-.8.1-1.52,4.23-8.65,4.23-8.65"/><path class="cls-3" d="M638.41,441.62s1.16,8,5.44,7.67c4.68-.39,2.38-8.08,1.76-11.65a76.3,76.3,0,0,0-2.07-8.14,48.26,48.26,0,0,0-9.43,4.59c-5.33,3.28-6.93,7.42-4.62,10.33C632.32,448,638.41,441.62,638.41,441.62Z"/><path class="cls-4" d="M641.1,448.17l2.54-1,3.05-1.63-8,.32,8.65-3.73-9-.13,7.3-4c-4.37.66-4.23.45-8.67,1.34a58.7,58.7,0,0,1-8.78.78l8.85,2.66-8.22.3"/><path class="cls-4" d="M645.61,439.81s-4.66-.83-7.73-1.41c-3.48-.66-8.56-1.27-8.56-1.27s17.21-1.82,17-2.24-11.63-.83-11.74-1.22.66-.46,1.31-.78,9.53-1.39,9.53-1.39"/><path class="cls-3" d="M631.53,572.76s1-8-3.2-8.84c-4.61-.88-4.45,7.15-4.8,10.75a74.82,74.82,0,0,0-.18,8.41,48.22,48.22,0,0,0,10.31-1.92c6-1.73,8.66-5.29,7.21-8.71C639.09,568.27,631.53,572.76,631.53,572.76Z"/><path class="cls-4" d="M630.69,565.74,628,566l-3.37.76,7.78,1.82L623,569.87l8.67,2.54-8.09,1.86c4.38.54,4.19.7,8.71,1a57.7,57.7,0,0,1,8.67,1.6L633.18,572l8,1.91"/><path class="cls-4" d="M624.11,572.58s4.26,2,7.07,3.43c3.17,1.56,7.91,3.51,7.91,3.51s-17.07-2.85-17-2.4,11,3.91,11,4.31-.75.27-1.46.4-9.56-1.2-9.56-1.2"/><path class="cls-3" d="M465.71,474.86s1.88,7.89,6.11,7.15c4.62-.81,1.64-8.26.7-11.76a75.24,75.24,0,0,0-2.79-7.93,48.23,48.23,0,0,0-9,5.43c-5,3.74-6.24,8-3.67,10.69C460.22,481.73,465.71,474.86,465.71,474.86Z"/><path class="cls-4" d="M469,481.14l2.45-1.21,2.89-1.9-7.92,1,8.28-4.5-9,.69,6.91-4.61c-4.29,1.05-4.17.84-8.51,2.12a58.3,58.3,0,0,1-8.68,1.56l9.06,1.86-8.16,1"/><path class="cls-4" d="M472.72,472.41s-4.72-.41-7.82-.71c-3.53-.34-8.65-.5-8.65-.5s17-3.35,16.78-3.76-11.65.22-11.79-.16.61-.51,1.23-.89,9.37-2.25,9.37-2.25"/><path class="cls-3" d="M805.17,467.54s-6-5.48-9.07-2.5c-3.37,3.26,3.28,7.77,6,10.14a76.57,76.57,0,0,0,6.76,5,49.06,49.06,0,0,0,4.4-9.53c2.05-5.9.67-10.12-3-10.91C805.88,458.78,805.17,467.54,805.17,467.54Z"/><path class="cls-4" d="M799,464.17l-1.35,2.37-1.33,3.19,6-5.29-4.34,8.36,7.08-5.61-3.15,7.68c3-3.27,3-3,5.87-6.52A58.59,58.59,0,0,1,814,462.2l-8.55,3.54,6.18-5.43"/><path class="cls-4" d="M800.74,473.5s4.14-2.3,6.88-3.79c3.11-1.69,7.44-4.43,7.44-4.43s-12.19,12.29-11.8,12.51,9.54-6.71,9.86-6.47-.22.77-.52,1.42-6.5,7.11-6.5,7.11"/><path class="cls-3" d="M823.35,557.32s7.85,2,9.18-2.07c1.44-4.46-6.55-5.3-10.08-6.11a76.5,76.5,0,0,0-8.31-1.23,48.86,48.86,0,0,0,.6,10.48c1,6.17,4.17,9.25,7.75,8.23C826.86,565.38,823.35,557.32,823.35,557.32Z"/><path class="cls-4" d="M830.42,557.36l.08-2.72-.33-3.45-2.78,7.49-.11-9.42-3.6,8.28-.84-8.26c-1.08,4.28-1.21,4.08-2.11,8.52a58.91,58.91,0,0,1-2.67,8.4l5.88-7.15-2.9,7.7"/><path class="cls-4" d="M824.45,550s-2.56,4-4.28,6.58c-1.95,3-4.47,7.41-4.47,7.41s5-16.58,4.51-16.59-5.25,10.41-5.65,10.35-.17-.78-.22-1.5,2.39-9.33,2.39-9.33"/><path class="cls-3" d="M442,622.34s-6.63-4.68-9.32-1.33c-2.93,3.66,4.24,7.29,7.25,9.29a74,74,0,0,0,7.33,4.1,48.32,48.32,0,0,0,3.16-10c1.28-6.11-.61-10.13-4.32-10.45C441.62,613.56,442,622.34,442,622.34Z"/><path class="cls-4" d="M435.44,619.79l-1,2.52-.92,3.33,5.26-6-3.24,8.85,6.31-6.47-2.15,8c2.52-3.63,2.58-3.38,5-7.22a59.38,59.38,0,0,1,5.48-6.9l-8,4.59,5.45-6.17"/><path class="cls-4" d="M438.39,628.81s3.81-2.81,6.35-4.63c2.87-2.08,6.81-5.34,6.81-5.34s-10.53,13.73-10.11,13.9,8.61-7.85,9-7.67-.12.8-.33,1.49-5.55,7.87-5.55,7.87"/><path class="cls-3" d="M748.47,539.31s1.08,8,5.37,7.73c4.68-.34,2.46-8.06,1.88-11.63a75.18,75.18,0,0,0-2-8.17,48.41,48.41,0,0,0-9.48,4.5c-5.35,3.22-7,7.34-4.72,10.27C742.32,545.59,748.47,539.31,748.47,539.31Z"/><path class="cls-4" d="M751.09,545.88l2.56-1,3.07-1.6-8,.24,8.69-3.65-9-.22,7.34-3.88c-4.37.61-4.23.4-8.68,1.25a58.52,58.52,0,0,1-8.79.68l8.83,2.76-8.23.21"/><path class="cls-4" d="M755.69,537.57s-4.65-.88-7.71-1.49c-3.47-.69-8.55-1.36-8.55-1.36s17.23-1.64,17.08-2.05-11.62-1-11.72-1.35.66-.45,1.31-.76,9.55-1.3,9.55-1.3"/><path class="cls-3" d="M531.8,544s-7.1-3.93-9.4-.3c-2.52,4,5,6.78,8.22,8.44a75.45,75.45,0,0,0,7.74,3.27,48.32,48.32,0,0,0,2-10.29c.6-6.22-1.72-10-5.44-9.91C530.42,535.3,531.8,544,531.8,544Z"/><path class="cls-4" d="M525,542.17l-.75,2.61-.55,3.42,4.57-6.55L526,550.8l5.56-7.12-1.25,8.21c2.11-3.88,2.19-3.64,4.17-7.72a59.11,59.11,0,0,1,4.69-7.46l-7.48,5.44,4.74-6.72"/><path class="cls-4" d="M528.89,550.81s3.48-3.21,5.79-5.3c2.63-2.38,6.19-6.06,6.19-6.06s-9,14.81-8.52,14.94,7.69-8.76,8.06-8.61,0,.8-.17,1.51-4.65,8.44-4.65,8.44"/><path class="cls-3" d="M595,497.12s7.5,3.09,9.38-.78c2-4.22-5.75-6.16-9.13-7.45a76.9,76.9,0,0,0-8.06-2.37,48,48,0,0,0-.85,10.46c.1,6.25,2.84,9.74,6.52,9.23C597.33,505.59,595,497.12,595,497.12Z"/><path class="cls-4" d="M602,498.14l.46-2.69.15-3.46-3.79,7,1.19-9.35-4.71,7.71.31-8.3c-1.66,4.1-1.76,3.87-3.26,8.15a58.69,58.69,0,0,1-3.81,7.95l6.81-6.27-3.94,7.23"/><path class="cls-4" d="M597.09,490s-3.09,3.58-5.16,5.92c-2.34,2.66-5.45,6.73-5.45,6.73s7.2-15.74,6.76-15.81-6.64,9.57-7,9.47-.06-.8,0-1.52,3.65-8.91,3.65-8.91"/><path class="cls-3" d="M460.71,537.66s-1.31-8-5.59-7.56c-4.66.48-2.21,8.13-1.53,11.68a76.19,76.19,0,0,0,2.23,8.1,47.91,47.91,0,0,0,9.34-4.78c5.26-3.37,6.79-7.54,4.41-10.4C466.68,531.2,460.71,537.66,460.71,537.66Z"/><path class="cls-4" d="M457.9,531.17l-2.52,1-3,1.69,8-.48-8.58,3.91,9-.05-7.22,4.1c4.36-.74,4.22-.54,8.65-1.51a59.38,59.38,0,0,1,8.76-.94l-8.91-2.49,8.22-.46"/><path class="cls-4" d="M453.55,539.61s4.67.74,7.75,1.26c3.5.59,8.59,1.11,8.59,1.11s-17.17,2.15-17,2.56,11.65.61,11.76,1-.65.47-1.29.8-9.51,1.58-9.51,1.58"/><path class="cls-3" d="M679.33,518.12s-5.9-5.57-9-2.63c-3.43,3.21,3.16,7.82,5.86,10.23a77.39,77.39,0,0,0,6.68,5.09,48.09,48.09,0,0,0,4.53-9.46c2.14-5.87.83-10.11-2.79-11C680.16,509.37,679.33,518.12,679.33,518.12Z"/><path class="cls-4" d="M673.16,514.67,671.77,517l-1.38,3.18,6.06-5.21-4.46,8.3,7.16-5.51-3.27,7.64c3-3.23,3-3,6-6.44a58.17,58.17,0,0,1,6.4-6.06l-8.6,3.41,6.26-5.33"/><path class="cls-4" d="M674.81,524s4.17-2.25,6.93-3.7c3.14-1.64,7.5-4.32,7.5-4.32s-12.36,12.11-12,12.34,9.64-6.56,10-6.33-.23.77-.54,1.42-6.6,7-6.6,7"/><path class="cls-3" d="M560.85,604.57s4.21,6.93,8,4.93c4.15-2.18-1-8.37-2.94-11.41a75.24,75.24,0,0,0-5.09-6.69,48.82,48.82,0,0,0-6.88,7.92c-3.62,5.09-3.48,9.53-.22,11.3C557.73,612.79,560.85,604.57,560.85,604.57Z"/><path class="cls-4" d="M565.88,609.54l2-1.9L570,605l-7.22,3.42,6.5-6.82L560.93,605l5.17-6.5c-3.76,2.31-3.71,2.07-7.46,4.62a58,58,0,0,1-7.78,4.14l9.2-1-7.46,3.48"/><path class="cls-4" d="M566.77,600.09s-4.61,1-7.66,1.72c-3.47.75-8.38,2.17-8.38,2.17s15.13-8.39,14.82-8.72-11,3.78-11.28,3.46.43-.68.9-1.22,8.23-5,8.23-5"/><path class="cls-3" d="M509.73,648s-5.22-6.21-8.68-3.65c-3.76,2.8,2.25,8.12,4.65,10.83a76.92,76.92,0,0,0,6.06,5.83,48.56,48.56,0,0,0,5.59-8.88c2.79-5.58,2-10-1.52-11.2C511.55,639.37,509.73,648,509.73,648Z"/><path class="cls-4" d="M504,643.83,502.35,646l-1.74,3,6.62-4.48-5.39,7.73,7.75-4.65-4.12,7.21c3.36-2.86,3.35-2.61,6.66-5.71a58.24,58.24,0,0,1,7.06-5.28l-8.94,2.4,6.84-4.58"/><path class="cls-4" d="M504.56,653.31s4.4-1.75,7.31-2.88c3.3-1.27,8-3.43,8-3.43s-13.67,10.62-13.31,10.88,10.32-5.41,10.61-5.14-.31.74-.7,1.35-7.37,6.21-7.37,6.21"/><path class="cls-3" d="M751,612.09s-2.78,7.63,1.17,9.34c4.3,1.86,5.91-6,7-9.44a76.11,76.11,0,0,0,2-8.15,48.23,48.23,0,0,0-10.49-.41c-6.23.37-9.61,3.25-8.94,6.91C742.67,614.81,751,612.09,751,612.09Z"/><path class="cls-4" d="M750.31,619.13l2.7.34h3.47l-7.19-3.5,9.39.8-7.9-4.38,8.31,0c-4.16-1.48-3.94-1.6-8.28-2.92a58.65,58.65,0,0,1-8.1-3.47l6.54,6.54-7.38-3.63"/><path class="cls-4" d="M758.24,613.9S754.53,611,752.1,609c-2.76-2.23-7-5.17-7-5.17s16,6.53,16.08,6.09-9.85-6.24-9.76-6.63.8-.09,1.52-.06,9.06,3.27,9.06,3.27"/></svg>