<svg id="Capa_1" data-name="Capa 1" xmlns="http://www.w3.org/2000/svg" viewBox="0 0 850.39 850.39"><defs><style>.cls-1{fill:#1d1d1b;fill-rule:evenodd;}</style></defs><path class="cls-1" d="M285.84,213c1.71,2.54,3.83,4.71,3.14,7.87-.11.52-1,1.3-1.43,1.23a41.2,41.2,0,0,1-6-1.6c-2.73-1-3.52-2.78-3-6.15.06-.31.37-.68.28-.89-.59-1.27-.35-2.27,1-2.67a3.74,3.74,0,0,1,4,1A8.72,8.72,0,0,0,285.84,213Z"/><path class="cls-1" d="M266.91,63.75c1.72,2.53,3.83,4.7,3.14,7.87-.11.51-1,1.3-1.42,1.23a41.36,41.36,0,0,1-6-1.61c-2.72-1-3.52-2.78-2.95-6.14.05-.31.37-.68.27-.89-.59-1.27-.34-2.27,1-2.67a3.74,3.74,0,0,1,4,1A9.35,9.35,0,0,0,266.91,63.75Z"/><path class="cls-1" d="M313.51,244.83c1.72,2.54,3.83,4.71,3.14,7.88-.11.51-1,1.3-1.42,1.22a41,41,0,0,1-6-1.6c-2.73-1-3.52-2.78-2.95-6.15,0-.31.37-.68.27-.88-.59-1.28-.34-2.27,1-2.67a3.74,3.74,0,0,1,4,1A8.58,8.58,0,0,0,313.51,244.83Z"/><path class="cls-1" d="M337.63,277.4c-2.12,2.21-3.79,4.73-7,4.73-.52,0-1.48-.73-1.49-1.14a41.35,41.35,0,0,1,.31-6.19c.37-2.87,2-4,5.38-4.18.31,0,.74.22.92.08,1.13-.84,2.15-.82,2.83.43a3.73,3.73,0,0,1-.13,4.1A9,9,0,0,0,337.63,277.4Z"/><path class="cls-1" d="M266.27,116.89c-1.12,2.72-2.2,5.46-3.38,8.15-.66,1.49-1.63,2.33-3.51,1.67-4.11-1.45-5.24-4.41-3-8.46,1.38-2.55,2.79-5.09,4.25-7.61.25-.44,1-1.08,1.22-1,1.81.8,3.84,1.47,5.19,2.8.59.59-.23,2.62-.43,4a2.22,2.22,0,0,1-.18.49Z"/><path class="cls-1" d="M84,26.65l-4.27,3.13c.32,3.27.81,6.35.85,9.43,0,2.66-1.76,4.84-4.2,4.67C73.69,43.7,70.34,45,68.18,42c-.87-1.2-2.56-2.71-2.32-3.67,1.19-4.6-1.21-7.93-3.26-11.47a3.44,3.44,0,0,1-.7-1.77c.55-4.85,1.58-9.51,5.88-12.59a4.19,4.19,0,0,1,2-.67c7.77-.54,11.08,2.25,12.24,9.91C82.3,23.33,83.26,24.79,84,26.65Z"/><path class="cls-1" d="M203.06,85.91c-3.91,2.17-7.28,3.59-10.06,5.75-2.14,1.67-3.51,4.3-5.31,6.44-.68.81-1.5,1.87-2.42,2.06-5.91,1.18-10.36-.2-12.62-5.49-1.41-3.3-.68-7.64-.35-11.47.09-1,2.33-1.74,3.55-2.63,3.47-2.52,6.85-5.19,11.41-5.37.43,0,1-.28,1.28-.08,3.79,3.26,9.76,3.53,12.09,8.85C200.89,84.56,201.75,84.9,203.06,85.91Z"/><path class="cls-1" d="M245.54,96.77c-.21,2.94-.47,5.87-.61,8.81a4.36,4.36,0,0,0,.45,2.06c1.34,2.77.15,5.41-3.57,7.69-2.57,1.58-6.65.89-8.07-1.43a57.15,57.15,0,0,1-3.38-5.87c-1.13-2.49-1.37-4.91.75-7.3a31.91,31.91,0,0,0,5.1-7.31c1.48-3.16,3.87-2.26,5.86-1.67S245.91,94,245.54,96.77Z"/><path class="cls-1" d="M105.56,45.92c6.19.11,7.79,1,9.27,6.61a114.72,114.72,0,0,1,2.11,13c.25,1.8-.54,2.59-2.49,2.42a38.43,38.43,0,0,0-5.25.12c-3.82.2-5.79-1.23-6.26-5-.56-4.49-.74-9-1.3-13.54C101.19,45.85,102.87,45.19,105.56,45.92Z"/><path class="cls-1" d="M167.1,68.5c-7.87-.8-11.13-5.4-9.16-13.76.38-1.59.41-3.26.75-4.86.89-4.27,3-5.75,6.7-3.81a31.17,31.17,0,0,1,8,6.5c2.09,2.25.65,8-1.92,10.51A66.77,66.77,0,0,0,167.1,68.5Z"/><path class="cls-1" d="M135.72,99.55c-2.56-.57-4.42-1.08-6.31-1.37-.91-.14-1.9.25-2.84.18-1.7-.14-3.9.13-4.94-.82a5.85,5.85,0,0,1-1.48-4.87c1.38-5.53,10.42-11,16.13-10.24.93.12,1.89,1.54,2.48,2.57,1.18,2,1.91,4.3,3.19,6.23,1.52,2.28,1.31,3.45-1,4.75A57.65,57.65,0,0,0,135.72,99.55Z"/><path class="cls-1" d="M92.45,99.05c-2.86.17-5.83.49-8.79.41-.73,0-1.62-1.2-2.1-2-1.29-2.29-2.28-4.75-3.63-7s-.61-4.38,2-5.33c1.45-.53,2.61-1.85,4-2.45A17.19,17.19,0,0,1,89.82,81c.91,0,2.14,1.54,2.77,2.65C95.46,88.67,94.51,93.77,92.45,99.05Z"/><path class="cls-1" d="M88.11,104.63c.11,0,.26,0,.33,0,3.41,2.77,6.9-.18,10.3.19a8.6,8.6,0,0,1,4.91,2.31c1.54,1.58,1.39,3.63-.37,5.45-2,2-3.65,4.32-5.52,6.45a2.67,2.67,0,0,1-1.59.92,12.39,12.39,0,0,1-12.65-9.34C82.61,107.13,84.59,104.55,88.11,104.63Z"/><path class="cls-1" d="M208.15,22.57c0-3.51,0-7,0-10.53,0-1.79.86-2.32,2.77-2.26,5.83.18,6.82,1.05,9.87,8.56,1.35,3.32,1.21,5.88-2.06,7.88-.81.5-1.29,1.7-2.12,2-2,.63-4.15,1.41-6.07,1.1-.92-.16-1.58-2.61-2.12-4.11a8.17,8.17,0,0,1-.05-2.62Z"/><path class="cls-1" d="M252.83,39.24c.2,3.7.46,7.4.58,11.11.06,2-.59,3.53-3.09,3.8-5.45.58-8.34-2.17-8-8,.2-3.66.41-7.31.71-11,.05-.64.54-1.78.85-1.79,2.49-.07,5.16-.41,7.41.37,1,.34,1.16,3.1,1.69,4.77a3.6,3.6,0,0,1,.06.66Z"/><path class="cls-1" d="M219.19,55.75c3.58-.12,7.07,1.88,7.08,5.21,0,2.25-1.93,4.78-3.58,6.69s-4,3-6,4.56c-1.48,1.19-2.52,1.12-3.4-.63a49.24,49.24,0,0,1-3.1-6.21c-.35-1,.25-2.5.71-3.65C212.81,57.09,214.52,55.9,219.19,55.75Z"/><path class="cls-1" d="M139.76,22.91a7.69,7.69,0,0,1-11.35-6.36c-.11-1.63-.61-3.26-.6-4.88,0-1.28.33-3.58.83-3.67a23,23,0,0,1,8-.34c1,.17,1.93,2.53,2.15,4C139.34,15.33,139.46,19.07,139.76,22.91Z"/><path class="cls-1" d="M223.1,125.45c6-1.71,9.64,1.67,12.13,6.39.81,1.52,4.06,3.14,1.32,5.55-2.52,2.22-8.17,2-10.1-.08C223.43,134,221.36,130.4,223.1,125.45Z"/><path class="cls-1" d="M83,136.41c-1.52-.13-2.28-.21-3-.26-6.51-.42-8.5-3.53-5.48-9.12.52-1,2.87-1.6,4.13-1.31,2.18.49,6,7.16,5.61,9.32C84.13,135.69,83.21,136.21,83,136.41Z"/><path class="cls-1" d="M157.44,238.93c-3,.17-6.33.41-9.71.55a2.19,2.19,0,0,1-1.63-.58c-1.85-2.41-3.56-4.92-5.38-7.35a6.22,6.22,0,0,0-2.06-2.11c-3.31-1.44-4.06-4.07-2.83-7a39.58,39.58,0,0,1,5.18-9.11c2.7-3.43,7.1-2.15,8.76,2.07.95,2.43,2.46,4.63,3.37,7.07,1.18,3.16,2.1,6.43,3,9.69C156.7,234.45,157,236.8,157.44,238.93Z"/><path class="cls-1" d="M160.35,290.75c-4.85-4.51-6.57-10.42-6.93-16.9,0-.78.07-1.56,0-2.33-.48-5.75,3.15-9.11,9-8.32,2,.28,3.35.75,3.87,3.33a101.63,101.63,0,0,0,4,13c.36,1,1.45,1.8,2.11,2.75.48.69,1.33,1.74,1.12,2.17-.55,1.07-1.88,2.8-2.41,2.64C166.57,285.76,164.05,289.58,160.35,290.75Z"/><path class="cls-1" d="M244.46,268.92c.39,3,1,7.2,1.35,11.39a3.46,3.46,0,0,1-1.61,2.62c-2.64,1.4-9.18.36-10.57-2.24-2.9-5.44-7.48-10.45-6.44-17.27.31-2.05,1.77-4,2.89-5.84.22-.37,1.36-.43,2-.26,2.2.61,4.33,1.46,6.54,2.07C243.4,260.74,244.75,262.58,244.46,268.92Z"/><path class="cls-1" d="M206,216c-6.2-6.18-11.92-11.28-10.69-20.15.2-1.37-.1-2.85.27-4.16.49-1.7,1.75-2.39,3.73-2.41a15.78,15.78,0,0,0,5.31-1.46c4.29-1.72,6.5-.15,6,4.39a1.78,1.78,0,0,0,.1.64,21.79,21.79,0,0,1-1.42,16.33C208.4,211.2,207.4,213.2,206,216Z"/><path class="cls-1" d="M117.94,193.33c-4.94.61-9.85,1.41-14.8,1.75-2,.14-4.66.65-5.67-2.42-.48-1.46-1.54-2.71.48-3.84a2,2,0,0,0,.83-1.68c-1.31-3.95,2-5.73,4-7.71,2.47-2.46,7-2.32,10.11.46C116.29,182.94,119.12,189.84,117.94,193.33Z"/><path class="cls-1" d="M204.72,240c-.37,5.31.21,10.55-4.14,14.16-.69.58-2.79.69-3.25.15a70.56,70.56,0,0,1-6.49-8.61c-2.69-4.26-1.85-7.59,2.53-11.6.41-.37,1.24-.53,1.33-.92.56-2.38,2-3.48,4.26-2.58a6.52,6.52,0,0,1,4.39,5.63A15.33,15.33,0,0,0,204.72,240Z"/><path class="cls-1" d="M260.57,235.53a81,81,0,0,1,.27,8.65,4.69,4.69,0,0,1-2.07,3.45c-1.78.82-3.93.88-5.94,1.2-2.71.44-3-1.9-4.07-3.49-3.39-5.3-3-10.76,1.2-15.64a2.69,2.69,0,0,1,1.71-.73,17.65,17.65,0,0,1,3.56.09C260.7,229.75,260.69,229.78,260.57,235.53Z"/><path class="cls-1" d="M114.45,245.33c.22,3.59.45,7.26.68,10.93.06,1-.28,2.36.24,2.9,3.46,3.59.23,3.45-2.06,4.19a50.13,50.13,0,0,0-5.85,2.77c-3.31-3-5-7.24-5.57-11.86a16.23,16.23,0,0,1,.93-7.84c.54-1.26,3.15-2.09,4.9-2.26S111.6,244.78,114.45,245.33Z"/><path class="cls-1" d="M228.5,212.24c2.14-3.3.26-8.56,5.23-11.11,2.83-1.45,5-.36,7.09.89,2.41,1.46,4.16,3.73,3.62,6.9-.71,4.25-1.92,8.16-6.88,9.28-.42.1-.78.47-1.2.54-1.76.29-3.23,3.71-5.24.71a27,27,0,0,1-2.22-5.23A13.22,13.22,0,0,1,228.5,212.24Z"/><path class="cls-1" d="M92.17,230.71c-4.44-1.21-6.67-3.89-8.46-7-1.3-2.24-2.47-4.55-3.56-6.89-1.48-3.17,1.08-10.16,4.17-11.65s6.84,1.88,7.1,6,1,8.21,1.25,12.33A54.59,54.59,0,0,1,92.17,230.71Z"/><path class="cls-1" d="M129.55,154.7c4.88.14,7.75,3,8.15,7.08a15.28,15.28,0,0,0,.93,4.81c1.28,2.77-.7,4.23-2.33,5-2.06.91-4.57.82-6.9,1-.35,0-1-.67-1.12-1.14-1.34-4.89-3.35-9.8-.7-14.83A7,7,0,0,1,129.55,154.7Z"/><path class="cls-1" d="M163.22,191.35c.19-2.32.31-4.56.59-6.79.05-.43.62-.89,1.06-1.16,4.1-2.51,8.4-4.35,13.37-3.39,2.17.42,2.83,2.35,1.81,4.91-.65,1.63-1.06,3.37-1.84,4.93a2.85,2.85,0,0,1-2.07,1.34c-2.72.08-5.44-.17-8.17-.18C166.38,191,164.78,191.23,163.22,191.35Z"/><path class="cls-1" d="M229.72,181c-.07.79-.15,1.77-.24,2.75-.38,4-1.22,4.7-5.21,4.42-6.12-.43-6.12-.43-7.17-7-.78-4.79-.77-4.77,4.15-5a16.11,16.11,0,0,0,2.19-.58C228.66,174.65,229.61,175.44,229.72,181Z"/><path class="cls-1" d="M98.79,166.63c-2.56-.57-4.42-1.07-6.31-1.37-.92-.14-1.91.25-2.84.18-1.7-.13-3.9.13-5-.81a5.85,5.85,0,0,1-1.48-4.87c1.39-5.54,10.42-11,16.14-10.24.94.12,1.89,1.54,2.48,2.56,1.18,2,1.91,4.31,3.19,6.24,1.52,2.27,1.31,3.45-1,4.75A59.12,59.12,0,0,0,98.79,166.63Z"/><path class="cls-1" d="M153.12,117.77c3.17-.83,5.54.85,7,2.88,1.71,2.42,2.56,5.47,3.68,8.28.47,1.19.31,2.83,1.09,3.64,2.45,2.55,1.3,4.88-.34,6.9-.63.78-2.62,1.1-3.71.76-6.85-2.17-10.72-7.09-12.61-13.91-.81-2.91-1.82-5.57,1.7-7.3C150.94,118.52,152.05,118.19,153.12,117.77Z"/><path class="cls-1" d="M190.89,145.13c3.57-.55,6.79,3.24,5.51,7.5-.7,2.31-2.36,4.33-3.59,6.49a28.76,28.76,0,0,1-1.63,2.72c-2.3,3.07-4.08,5.08-9.22,2.75.1-5.41,3.91-9.18,6-13.71C188.82,149,189.83,147.19,190.89,145.13Z"/><path class="cls-1" d="M255.61,163.76c-1.34,2-2.31,3.36-3.17,4.77-2.1,3.4-5.35,4.28-9,2.38-2.55-1.34-3.73-4.8-2.68-7.9,1.74-5.19,4.5-7.17,9-5.22C252.2,158.84,253.79,161.8,255.61,163.76Z"/><path class="cls-1" d="M111.89,130.85c4.56.31,8.25,3.11,7.67,6.35-.45,2.55-3,5.07-5.23,6.71-.56.41-4-2.34-5.43-4.18-1-1.33-1.69-3.92-1.06-5.28C108.63,132.73,110.89,131.67,111.89,130.85Z"/><path class="cls-1" d="M347.52,29.8c-2.34,3-5,6.44-7.61,9.87-1.77,2.32-8,4.63-10.44,3.26-1.2-.69-2-2.74-2.25-4.3a26.27,26.27,0,0,1-.24-7.14,5.58,5.58,0,0,1,2-3.35c2.62-2.13,5.52-3.93,8.23-6s4.52-1.39,6.05,1.44A63.07,63.07,0,0,0,347.52,29.8Z"/><path class="cls-1" d="M426.22,103.62c-3.58,2.55-2,6.73-2,10.49,0,1.86-.53,2.41-2.3,2.79-4.6,1-9.18-2.62-11.16-6.62-1.29-2.63-2.95-4.87-1.82-8.27,1.66-5,7.56-8.59,12.5-6.83a5,5,0,0,1,2.38,2.41A64.63,64.63,0,0,1,426.22,103.62Z"/><path class="cls-1" d="M308.18,122.66c7.09-.7,10.2,1.83,12.1,7.53,1.12,3.33,1.35,6.33.08,9.47a9,9,0,0,1-2.1,3.28c-4.47,4.09-9.21,2.72-10.56-3.42a82.56,82.56,0,0,1-1.39-14.34C306.27,124.18,307.83,123.11,308.18,122.66Z"/><path class="cls-1" d="M414.67,65.11c-1.69,5.67-1.25,11-5,14.84a9,9,0,0,1-4.84,2.31c-.58.09-1.86-1.9-2.24-3.12-1.15-3.64-2-7.37-2.95-11.08a1.85,1.85,0,0,1,.18-1.24,87.85,87.85,0,0,1,4.81-8.46c1.52-2.15,3.59-1.85,5.26.36S413.32,63.29,414.67,65.11Z"/><path class="cls-1" d="M266.42,1.13c2.63,2.14,5.25,4.26,7.86,6.4,2.31,1.89,3.27,8.66,1.65,11.23-.73,1.17-1.3,2.44-2,3.63a2.16,2.16,0,0,1-.89.88c-4.32,2.07-11.24-1.85-11.77-6.65C260.46,9.27,261.33,6.73,266.42,1.13Z"/><path class="cls-1" d="M366.63,53.64c1.1,0,2.58-.45,3.24.09,1.35,1.12,3.52,3.4,3.17,4.1-2.29,4.45-2.88,9.89-7.59,13.06-1.78,1.2-3.14,1.56-5.11.82s-3-1.9-2.68-4.13c.43-3.22-.91-6.42.75-9.77C360.25,54.08,363,53.2,366.63,53.64Z"/><path class="cls-1" d="M303.66,52.31c.23-2.28.49-4.55.68-6.83.23-2.74,1.89-3.54,4.34-3.2,3.82.52,5.88,3.43,5.42,7.35-.25,2.21-.35,4.45-.39,6.68s-.61,3.48-3.12,2.68a4.74,4.74,0,0,0-1-.24C304.28,58.28,303.6,57.54,303.66,52.31Z"/><path class="cls-1" d="M374.55,93.2c1-1.54,1.9-4.18,3.14-4.37,2.24-.34,4.85-3,7.15,0a4.63,4.63,0,0,0,1.38.86c2.77,1.65,3.24,3.78,1.49,6.4a6.47,6.47,0,0,0-1,2.35c-.56,3-2.25,4.18-5.18,3.39C378.11,101,375.12,97.08,374.55,93.2Z"/><path class="cls-1" d="M380,24.87c-2.93,1.52-5.69,3.06-8.55,4.41s-5.67.12-7.94-1.63c-2.95-2.27-1.95-5.64,2.64-7.44a20.58,20.58,0,0,1,8.73-1.11C377.76,19.31,379.65,21.39,380,24.87Z"/><path class="cls-1" d="M298.28,97.58c-5.24-4.26-6-12-1.1-15.57,1.76-1.3,5.25-.51,7.89-.18.4,0,.71,2.77.66,4.25C305.53,91.26,301.81,94.29,298.28,97.58Z"/><path class="cls-1" d="M369.2,124.83c.07-.21.06.79-.34,1-3.25,1.47-6.47,3.33-9.91,4-2.61.51-3.25-2.56-3.13-4.46a14.43,14.43,0,0,1,2.2-6c1.81-3.09,4.78-2.13,7.49-1.5C368.8,118.58,369.28,121.17,369.2,124.83Z"/><path class="cls-1" d="M337.7,54.51a9.45,9.45,0,0,1,2.21,1.83,17.3,17.3,0,0,1,2.27,4.73,5.18,5.18,0,0,1-.84,3.25c-.45.82-1.55,1.3-2,2.12-1.84,3.25-4.27,1.36-6.17.46-.8-.38-1.11-2.54-1-3.85.2-3.07-.13-6.59,4.1-7.6A6,6,0,0,0,337.7,54.51Z"/><path class="cls-1" d="M341.66,109.78c-.15,4-2.83,6.53-6,6.35a4.58,4.58,0,0,1-4.28-4.57c.2-3.08,3.78-6,7.25-5.91C342.28,105.75,341.45,108.49,341.66,109.78Z"/><path class="cls-1" d="M373.18,213c-3.85-4.06-7.54-7.94-11.2-11.84-2.06-2.19-3-4.65-1.58-7.57a3.51,3.51,0,0,0,.19-.63c.42-1.85-1-4.35,1.76-5.4,4.2-1.58,8.76-3.55,12.5.09,1.68,1.62,2.06,4.91,2.36,7.52a72.82,72.82,0,0,1,0,9.91c0,1.76.32,3.6-1.89,4.71C374.42,210.24,374,211.69,373.18,213Z"/><path class="cls-1" d="M419.32,226.14a11.71,11.71,0,0,1,2.61,2.9,89.26,89.26,0,0,1,3.24,8.48c.53,1.5,1.78,3.58,1.21,4.46a45,45,0,0,1-6.95,8.34c-1.08,1-2.95.88-4.22-1-2.14-3.11-4.67-6-6.91-9a5.46,5.46,0,0,1-.85-2.73C407.07,232.89,413.51,226.13,419.32,226.14Z"/><path class="cls-1" d="M366,267.94c-1.23-1.07-2.54-2.37-4-3.48a10.59,10.59,0,0,1-3.7-11.73c1.05-2.94,3.56-3.37,6.13-3.5a32,32,0,0,1,7.83.14c1.94.38,3.73,1.75,5.46,2.85,2.38,1.53,1.78,3.31.43,5.32-.56.83-.19,2.24-.58,3.26s-1,2.4-1.87,2.86C372.68,265.23,369.47,266.46,366,267.94Z"/><path class="cls-1" d="M294.29,266.77c3.17-.83,5.54.84,7,2.86,1.72,2.4,2.56,5.44,3.69,8.24.47,1.18.31,2.81,1.09,3.62,2.45,2.54,1.3,4.85-.34,6.86-.63.77-2.62,1.1-3.72.75-6.85-2.15-10.72-7.05-12.62-13.84-.81-2.89-1.82-5.53,1.71-7.25C292.1,267.51,293.22,267.18,294.29,266.77Z"/><path class="cls-1" d="M339.73,248.85c-4.21,2-9.62-1.49-9.61-7.2,0-3.11,1.32-6.22,2.05-9.32a32.81,32.81,0,0,1,1-4c1.7-4.63,3.16-7.76,10.4-6.79,1.89,6.69-1.44,12.75-2.33,19.1C340.87,243.31,340.28,245.92,339.73,248.85Z"/><path class="cls-1" d="M335.67,189.54c-1.23,2.66-2.21,5.2-3.58,7.52a4.27,4.27,0,0,1-2.91,1.67c-3.49.36-7,.47-10.51.55-2.94.07-6.18-5-5-7.61,3.56-7.7,12.66-9.54,19.74-4C334.13,188.2,334.78,188.78,335.67,189.54Z"/><path class="cls-1" d="M282.65,260.62c-5.21,1.83-10.16-.46-12-5.88-.59-1.76-2.5-3.92-2-5.05a26.54,26.54,0,0,1,6.25-8.85c1.34-1.16,4.73-.81,6.76,0,1.17.46,1.95,3.13,2,4.84.08,2.48-.8,5-1,7.49C282.49,255.48,282.65,257.83,282.65,260.62Z"/><path class="cls-1" d="M428.42,182.8c1.29,5.28,2.38,9.39,3.23,13.55.15.78-.59,1.82-1.07,2.65-3,5.17-9.24,5.69-13.52,1.73-2.94-2.73-2.81-5-.7-7.84,1.68-2.27,3-4.95,5.05-6.79C423.11,184.59,425.67,184,428.42,182.8Z"/><path class="cls-1" d="M299.73,215.65a114.75,114.75,0,0,1,5.42-10.54c1.36-2.13,7.32-2,9.17-.19.49.48,1.05,1.46.87,1.94-1.61,4.12-3.28,8.22-5.18,12.21-.69,1.46-6.5,2.77-7.74,1.62S300.68,217.65,299.73,215.65Z"/><path class="cls-1" d="M407.22,209.66c-1.34,2-2.3,3.34-3.17,4.74-2.1,3.39-5.36,4.26-9,2.37-2.55-1.33-3.73-4.77-2.69-7.85,1.76-5.16,4.52-7.13,9-5.19C403.81,204.78,405.4,207.72,407.22,209.66Z"/><path class="cls-1" d="M292.21,195.36c-10.09-1.49-11.87-2.09-12-12.47,2.85-2.42,5.2-.23,7.33,1.1C291.58,186.53,291.83,190.83,292.21,195.36Z"/><path class="cls-1" d="M397.88,262.29c4.57.3,8.26,3.09,7.69,6.31-.46,2.53-3,5-5.23,6.68-.57.4-4-2.33-5.44-4.16-1-1.32-1.69-3.9-1.07-5.25C394.62,264.15,396.89,263.11,397.88,262.29Z"/><path class="cls-1" d="M415.85,171.66c-3.76,4.59-5.43,9.71-10.35,11.79a9.11,9.11,0,0,1-5.35.28c-.58-.14-1-2.47-.87-3.74.35-3.8,1-7.57,1.56-11.35a1.85,1.85,0,0,1,.65-1.07,84.62,84.62,0,0,1,7.72-6c2.23-1.41,4-.34,4.71,2.34S415.3,169.47,415.85,171.66Z"/><path class="cls-1" d="M398.23,125.79c1.1,0,2.58-.45,3.24.09,1.35,1.12,3.52,3.4,3.17,4.09-2.29,4.45-2.88,9.89-7.59,13.06-1.78,1.2-3.14,1.55-5.11.82s-3-1.9-2.68-4.13c.43-3.22-.92-6.42.75-9.77C391.85,126.23,394.56,125.35,398.23,125.79Z"/><path class="cls-1" d="M359,150.52c5.44,1.85,7.33,8.09,3.54,12.45-1.07,1.23-1.87,2.72-3,3.86-.91.9-2.76,2.28-3.19,2a23,23,0,0,1-5.89-5.39c-.55-.78.42-3.13,1.3-4.32C354,156.14,356.54,153.43,359,150.52Z"/><path class="cls-1" d="M270.34,144.8c1-1.53,1.9-4.17,3.15-4.36,2.23-.34,4.84-3,7.14,0,.3.4.91.57,1.38.85,2.78,1.65,3.24,3.78,1.5,6.4a6.64,6.64,0,0,0-1,2.36c-.56,3-2.25,4.17-5.17,3.38C273.9,152.55,270.91,148.68,270.34,144.8Z"/><path class="cls-1" d="M294.62,158.87a9.17,9.17,0,0,1,2.2,1.84,17.06,17.06,0,0,1,2.28,4.73,5.25,5.25,0,0,1-.85,3.24c-.44.83-1.54,1.31-2,2.13-1.83,3.24-4.27,1.35-6.16.46-.8-.38-1.12-2.54-1-3.85.2-3.07-.12-6.59,4.11-7.61A6.07,6.07,0,0,0,294.62,158.87Z"/><path class="cls-1" d="M285.84,492.25c1.71,2.53,3.83,4.7,3.14,7.87-.11.51-1,1.3-1.43,1.22a40,40,0,0,1-6-1.6c-2.73-1-3.52-2.78-3-6.14.06-.31.37-.68.28-.89-.59-1.27-.35-2.27,1-2.67a3.74,3.74,0,0,1,4,1A9.1,9.1,0,0,0,285.84,492.25Z"/><path class="cls-1" d="M266.91,343c1.72,2.53,3.83,4.7,3.14,7.87-.11.51-1,1.3-1.42,1.22a41.33,41.33,0,0,1-6-1.6c-2.72-1-3.52-2.78-2.95-6.15.05-.3.37-.68.27-.88-.59-1.28-.34-2.27,1-2.67a3.72,3.72,0,0,1,4,1A9.35,9.35,0,0,0,266.91,343Z"/><path class="cls-1" d="M313.51,524.09c1.72,2.53,3.83,4.7,3.14,7.87-.11.52-1,1.3-1.42,1.23a39.8,39.8,0,0,1-6-1.61c-2.73-1-3.52-2.77-2.95-6.14,0-.31.37-.68.27-.89-.59-1.27-.34-2.27,1-2.67a3.74,3.74,0,0,1,4,1A9,9,0,0,0,313.51,524.09Z"/><path class="cls-1" d="M337.63,556.65c-2.12,2.21-3.79,4.74-7,4.73-.52,0-1.48-.72-1.49-1.13a41.28,41.28,0,0,1,.31-6.19c.37-2.87,2-4,5.38-4.18.31,0,.74.21.92.08,1.13-.85,2.15-.82,2.83.43a3.73,3.73,0,0,1-.13,4.1A8.89,8.89,0,0,0,337.63,556.65Z"/><path class="cls-1" d="M266.27,396.14c-1.12,2.72-2.2,5.46-3.38,8.16-.66,1.49-1.63,2.33-3.51,1.66-4.11-1.44-5.24-4.4-3-8.45,1.38-2.55,2.79-5.1,4.25-7.61.25-.44,1-1.09,1.22-1,1.81.8,3.84,1.47,5.19,2.8.59.59-.23,2.62-.43,4a2.51,2.51,0,0,1-.18.5Z"/><path class="cls-1" d="M84,305.9,79.77,309c.32,3.27.81,6.35.85,9.43,0,2.66-1.76,4.84-4.2,4.67-2.73-.18-6.08,1.11-8.24-1.86-.87-1.2-2.56-2.71-2.32-3.68,1.19-4.6-1.21-7.93-3.26-11.46a3.47,3.47,0,0,1-.7-1.78c.55-4.84,1.58-9.51,5.88-12.58a4.2,4.2,0,0,1,2-.68c7.77-.53,11.08,2.25,12.24,9.92C82.3,302.58,83.26,304,84,305.9Z"/><path class="cls-1" d="M203.06,365.16c-3.91,2.18-7.28,3.6-10.06,5.76-2.14,1.66-3.51,4.3-5.31,6.44-.68.81-1.5,1.87-2.42,2.05-5.91,1.19-10.36-.19-12.62-5.48-1.41-3.3-.68-7.64-.35-11.47.09-1,2.33-1.74,3.55-2.64,3.47-2.51,6.85-5.18,11.41-5.36.43,0,1-.28,1.28-.08,3.79,3.26,9.76,3.53,12.09,8.84C200.89,363.82,201.75,364.15,203.06,365.16Z"/><path class="cls-1" d="M245.54,376c-.21,2.93-.47,5.87-.61,8.8a4.36,4.36,0,0,0,.45,2.06c1.34,2.78.15,5.42-3.57,7.7-2.57,1.58-6.65.88-8.07-1.43a58.23,58.23,0,0,1-3.38-5.87c-1.13-2.49-1.37-4.91.75-7.31a31.85,31.85,0,0,0,5.1-7.3c1.48-3.16,3.87-2.26,5.86-1.68S245.91,373.25,245.54,376Z"/><path class="cls-1" d="M105.56,325.18c6.19.11,7.79,1,9.27,6.61a114.72,114.72,0,0,1,2.11,13c.25,1.8-.54,2.59-2.49,2.41a38.44,38.44,0,0,0-5.25.13c-3.82.2-5.79-1.24-6.26-5.05-.56-4.5-.74-9-1.3-13.54C101.19,325.11,102.87,324.44,105.56,325.18Z"/><path class="cls-1" d="M167.1,347.76c-7.87-.81-11.13-5.41-9.16-13.77.38-1.59.41-3.26.75-4.86.89-4.27,3-5.74,6.7-3.81a31.38,31.38,0,0,1,8,6.5c2.09,2.25.65,8-1.92,10.52A63.44,63.44,0,0,0,167.1,347.76Z"/><path class="cls-1" d="M135.72,378.81c-2.56-.57-4.42-1.08-6.31-1.37-.91-.15-1.9.25-2.84.17-1.7-.13-3.9.13-4.94-.81a5.85,5.85,0,0,1-1.48-4.87c1.38-5.54,10.42-11,16.13-10.24.93.12,1.89,1.54,2.48,2.56,1.18,2,1.91,4.31,3.19,6.24,1.52,2.27,1.31,3.45-1,4.75A55.66,55.66,0,0,0,135.72,378.81Z"/><path class="cls-1" d="M92.45,378.31c-2.86.17-5.83.49-8.79.41-.73,0-1.62-1.21-2.1-2.05-1.29-2.28-2.28-4.75-3.63-7s-.61-4.37,2-5.32c1.45-.54,2.61-1.85,4-2.45a17.19,17.19,0,0,1,5.88-1.66c.91,0,2.14,1.54,2.77,2.65C95.46,367.93,94.51,373,92.45,378.31Z"/><path class="cls-1" d="M88.11,383.89c.11,0,.26-.05.33,0,3.41,2.78,6.9-.17,10.3.19a8.73,8.73,0,0,1,4.91,2.31c1.54,1.59,1.39,3.64-.37,5.46-2,2-3.65,4.32-5.52,6.44a2.63,2.63,0,0,1-1.59.93,12.4,12.4,0,0,1-12.65-9.34C82.61,386.39,84.59,383.81,88.11,383.89Z"/><path class="cls-1" d="M208.15,301.82c0-3.51,0-7,0-10.52,0-1.79.86-2.32,2.77-2.26,5.83.18,6.82,1,9.87,8.56,1.35,3.32,1.21,5.88-2.06,7.88-.81.49-1.29,1.7-2.12,2-2,.64-4.15,1.42-6.07,1.1-.92-.15-1.58-2.61-2.12-4.11a8.1,8.1,0,0,1-.05-2.61Z"/><path class="cls-1" d="M252.83,318.5c.2,3.7.46,7.4.58,11.11.06,2.05-.59,3.53-3.09,3.79-5.45.59-8.34-2.17-8-8,.2-3.65.41-7.31.71-10.95.05-.64.54-1.78.85-1.79,2.49-.07,5.16-.42,7.41.37,1,.34,1.16,3.1,1.69,4.77a3.52,3.52,0,0,1,.06.66Z"/><path class="cls-1" d="M219.19,335c3.58-.12,7.07,1.87,7.08,5.2,0,2.26-1.93,4.79-3.58,6.69s-4,3-6,4.57c-1.48,1.19-2.52,1.12-3.4-.63a49.92,49.92,0,0,1-3.1-6.21c-.35-1,.25-2.5.71-3.66C212.81,336.34,214.52,335.16,219.19,335Z"/><path class="cls-1" d="M139.76,302.17a7.7,7.7,0,0,1-11.35-6.36c-.11-1.64-.61-3.26-.6-4.89,0-1.28.33-3.57.83-3.67a23.21,23.21,0,0,1,8-.33c1,.16,1.93,2.52,2.15,4C139.34,294.59,139.46,298.33,139.76,302.17Z"/><path class="cls-1" d="M223.1,404.71c6-1.72,9.64,1.67,12.13,6.38.81,1.53,4.06,3.14,1.32,5.56-2.52,2.22-8.17,2-10.1-.08C223.43,413.25,221.36,409.66,223.1,404.71Z"/><path class="cls-1" d="M83,415.67c-1.52-.13-2.28-.21-3-.26-6.51-.42-8.5-3.54-5.48-9.13.52-.95,2.87-1.59,4.13-1.31,2.18.5,6,7.17,5.61,9.33C84.13,415,83.21,415.47,83,415.67Z"/><path class="cls-1" d="M157.44,518.19c-3,.17-6.33.4-9.71.54a2.15,2.15,0,0,1-1.63-.57c-1.85-2.41-3.56-4.92-5.38-7.36a6.19,6.19,0,0,0-2.06-2.1c-3.31-1.44-4.06-4.07-2.83-7a39.73,39.73,0,0,1,5.18-9.1c2.7-3.43,7.1-2.15,8.76,2.07.95,2.42,2.46,4.63,3.37,7.07,1.18,3.16,2.1,6.43,3,9.69C156.7,513.71,157,516.05,157.44,518.19Z"/><path class="cls-1" d="M160.35,570c-4.85-4.51-6.57-10.42-6.93-16.91,0-.77.07-1.56,0-2.33-.48-5.74,3.15-9.1,9-8.31,2,.27,3.35.75,3.87,3.33a102.12,102.12,0,0,0,4,13c.36,1,1.45,1.8,2.11,2.75.48.69,1.33,1.74,1.12,2.17-.55,1.07-1.88,2.79-2.41,2.64C166.57,565,164.05,568.84,160.35,570Z"/><path class="cls-1" d="M244.46,548.17c.39,3,1,7.21,1.35,11.4a3.46,3.46,0,0,1-1.61,2.62c-2.64,1.39-9.18.35-10.57-2.25-2.9-5.43-7.48-10.44-6.44-17.26.31-2.06,1.77-4,2.89-5.85.22-.36,1.36-.43,2-.26,2.2.61,4.33,1.47,6.54,2.08C243.4,540,244.75,541.84,244.46,548.17Z"/><path class="cls-1" d="M206,495.26c-6.2-6.18-11.92-11.29-10.69-20.15.2-1.37-.1-2.86.27-4.16.49-1.71,1.75-2.39,3.73-2.42a15.55,15.55,0,0,0,5.31-1.46c4.29-1.71,6.5-.15,6,4.39a1.84,1.84,0,0,0,.1.65,21.76,21.76,0,0,1-1.42,16.32C208.4,490.46,207.4,492.45,206,495.26Z"/><path class="cls-1" d="M117.94,472.58c-4.94.62-9.85,1.42-14.8,1.76-2,.14-4.66.65-5.67-2.42-.48-1.46-1.54-2.71.48-3.84a2,2,0,0,0,.83-1.68c-1.31-4,2-5.74,4-7.71,2.47-2.46,7-2.32,10.11.45C116.29,462.2,119.12,469.1,117.94,472.58Z"/><path class="cls-1" d="M204.72,519.25c-.37,5.31.21,10.55-4.14,14.16-.69.58-2.79.68-3.25.15a71.34,71.34,0,0,1-6.49-8.61c-2.69-4.26-1.85-7.6,2.53-11.6.41-.37,1.24-.54,1.33-.92.56-2.38,2-3.49,4.26-2.58a6.51,6.51,0,0,1,4.39,5.63A15.33,15.33,0,0,0,204.72,519.25Z"/><path class="cls-1" d="M260.57,514.79a81,81,0,0,1,.27,8.65,4.67,4.67,0,0,1-2.07,3.44c-1.78.83-3.93.88-5.94,1.21-2.71.44-3-1.9-4.07-3.5-3.39-5.29-3-10.75,1.2-15.63a2.69,2.69,0,0,1,1.71-.73,17.64,17.64,0,0,1,3.56.08C260.7,509,260.69,509,260.57,514.79Z"/><path class="cls-1" d="M114.45,524.59c.22,3.59.45,7.26.68,10.93.06,1-.28,2.36.24,2.9,3.46,3.58.23,3.44-2.06,4.18a52.05,52.05,0,0,0-5.85,2.78c-3.31-3-5-7.24-5.57-11.86a16.23,16.23,0,0,1,.93-7.84c.54-1.26,3.15-2.09,4.9-2.27S111.6,524,114.45,524.59Z"/><path class="cls-1" d="M228.5,491.5c2.14-3.31.26-8.56,5.23-11.12,2.83-1.45,5-.35,7.09.9,2.41,1.46,4.16,3.73,3.62,6.9-.71,4.24-1.92,8.16-6.88,9.28-.42.1-.78.46-1.2.53-1.76.3-3.23,3.72-5.24.71a26.78,26.78,0,0,1-2.22-5.23A13.31,13.31,0,0,1,228.5,491.5Z"/><path class="cls-1" d="M92.17,510c-4.44-1.21-6.67-3.89-8.46-7-1.3-2.23-2.47-4.54-3.56-6.89-1.48-3.17,1.08-10.15,4.17-11.64s6.84,1.88,7.1,6,1,8.21,1.25,12.33A54.59,54.59,0,0,1,92.17,510Z"/><path class="cls-1" d="M129.55,434c4.88.14,7.75,3,8.15,7.08a15.33,15.33,0,0,0,.93,4.81c1.28,2.77-.7,4.23-2.33,4.95-2.06.91-4.57.83-6.9,1-.35,0-1-.67-1.12-1.14-1.34-4.89-3.35-9.79-.7-14.83A7.06,7.06,0,0,1,129.55,434Z"/><path class="cls-1" d="M163.22,470.61c.19-2.32.31-4.56.59-6.79.05-.43.62-.89,1.06-1.16,4.1-2.52,8.4-4.36,13.37-3.4,2.17.42,2.83,2.36,1.81,4.91-.65,1.63-1.06,3.38-1.84,4.94a2.87,2.87,0,0,1-2.07,1.34c-2.72.08-5.44-.17-8.17-.18C166.38,470.27,164.78,470.49,163.22,470.61Z"/><path class="cls-1" d="M229.72,460.27c-.07.79-.15,1.77-.24,2.75-.38,4-1.22,4.7-5.21,4.42-6.12-.44-6.12-.44-7.17-7-.78-4.8-.77-4.77,4.15-5a16.11,16.11,0,0,0,2.19-.58C228.66,453.91,229.61,454.7,229.72,460.27Z"/><path class="cls-1" d="M98.79,445.89c-2.56-.57-4.42-1.08-6.31-1.37-.92-.14-1.91.25-2.84.18-1.7-.14-3.9.13-5-.82A5.85,5.85,0,0,1,83.21,439c1.39-5.53,10.42-11,16.14-10.24.94.12,1.89,1.54,2.48,2.57,1.18,2,1.91,4.31,3.19,6.23,1.52,2.28,1.31,3.45-1,4.75A59.12,59.12,0,0,0,98.79,445.89Z"/><path class="cls-1" d="M153.12,397c3.17-.83,5.54.85,7,2.88,1.71,2.41,2.56,5.46,3.68,8.28.47,1.18.31,2.83,1.09,3.64,2.45,2.55,1.3,4.88-.34,6.9-.63.78-2.62,1.1-3.71.75-6.85-2.16-10.72-7.09-12.61-13.91-.81-2.91-1.82-5.56,1.7-7.29C150.94,397.78,152.05,397.44,153.12,397Z"/><path class="cls-1" d="M190.89,424.38c3.57-.54,6.79,3.25,5.51,7.5-.7,2.32-2.36,4.34-3.59,6.49a26.44,26.44,0,0,1-1.63,2.72c-2.3,3.08-4.08,5.09-9.22,2.76.1-5.41,3.91-9.18,6-13.71C188.82,428.25,189.83,426.44,190.89,424.38Z"/><path class="cls-1" d="M255.61,443c-1.34,2-2.31,3.36-3.17,4.77-2.1,3.41-5.35,4.29-9,2.39-2.55-1.35-3.73-4.8-2.68-7.9,1.74-5.19,4.5-7.18,9-5.22C252.2,438.1,253.79,441.06,255.61,443Z"/><path class="cls-1" d="M111.89,410.11c4.56.3,8.25,3.11,7.67,6.35-.45,2.54-3,5.07-5.23,6.71-.56.41-4-2.34-5.43-4.18-1-1.33-1.69-3.92-1.06-5.28C108.63,412,110.89,410.93,111.89,410.11Z"/><path class="cls-1" d="M347.52,309.06c-2.34,3-5,6.44-7.61,9.87-1.77,2.32-8,4.63-10.44,3.25-1.2-.69-2-2.73-2.25-4.29a26.34,26.34,0,0,1-.24-7.15,5.64,5.64,0,0,1,2-3.35c2.62-2.13,5.52-3.93,8.23-6s4.52-1.4,6.05,1.43A62,62,0,0,0,347.52,309.06Z"/><path class="cls-1" d="M426.22,382.87c-3.58,2.56-2,6.73-2,10.5,0,1.86-.53,2.4-2.3,2.79-4.6,1-9.18-2.63-11.16-6.63-1.29-2.62-2.95-4.86-1.82-8.26,1.66-5,7.56-8.59,12.5-6.83a5,5,0,0,1,2.38,2.41A64.37,64.37,0,0,1,426.22,382.87Z"/><path class="cls-1" d="M308.18,401.92c7.09-.7,10.2,1.83,12.1,7.53,1.12,3.32,1.35,6.33.08,9.47a8.93,8.93,0,0,1-2.1,3.27c-4.47,4.09-9.21,2.73-10.56-3.41a82.66,82.66,0,0,1-1.39-14.34C306.27,403.43,307.83,402.37,308.18,401.92Z"/><path class="cls-1" d="M414.67,344.37c-1.69,5.67-1.25,11-5,14.84a9.09,9.09,0,0,1-4.84,2.3c-.58.1-1.86-1.89-2.24-3.11-1.15-3.65-2-7.37-2.95-11.08a1.85,1.85,0,0,1,.18-1.24,86.66,86.66,0,0,1,4.81-8.46c1.52-2.16,3.59-1.85,5.26.36S413.32,342.55,414.67,344.37Z"/><path class="cls-1" d="M266.42,280.38c2.63,2.14,5.25,4.26,7.86,6.4,2.31,1.9,3.27,8.67,1.65,11.24-.73,1.17-1.3,2.44-2,3.63a2.22,2.22,0,0,1-.89.88c-4.32,2.07-11.24-1.86-11.77-6.65C260.46,288.53,261.33,286,266.42,280.38Z"/><path class="cls-1" d="M366.63,332.9c1.1,0,2.58-.45,3.24.09,1.35,1.12,3.52,3.4,3.17,4.09-2.29,4.46-2.88,9.89-7.59,13.07-1.78,1.2-3.14,1.55-5.11.82s-3-1.91-2.68-4.13c.43-3.23-.91-6.43.75-9.78C360.25,333.34,363,332.46,366.63,332.9Z"/><path class="cls-1" d="M303.66,331.56c.23-2.27.49-4.55.68-6.83.23-2.73,1.89-3.53,4.34-3.2,3.82.52,5.88,3.44,5.42,7.36-.25,2.21-.35,4.45-.39,6.68s-.61,3.47-3.12,2.68a4.74,4.74,0,0,0-1-.24C304.28,337.53,303.6,336.79,303.66,331.56Z"/><path class="cls-1" d="M374.55,372.45c1-1.53,1.9-4.17,3.14-4.36,2.24-.34,4.85-3,7.15,0a4.41,4.41,0,0,0,1.38.85c2.77,1.65,3.24,3.79,1.49,6.4a6.59,6.59,0,0,0-1,2.36c-.56,3-2.25,4.17-5.18,3.38C378.11,380.21,375.12,376.33,374.55,372.45Z"/><path class="cls-1" d="M380,304.13c-2.93,1.51-5.69,3.06-8.55,4.4s-5.67.13-7.94-1.62c-2.95-2.27-1.95-5.64,2.64-7.44a20.42,20.42,0,0,1,8.73-1.11C377.76,298.56,379.65,300.65,380,304.13Z"/><path class="cls-1" d="M298.28,376.84c-5.24-4.26-6-11.95-1.1-15.57,1.76-1.3,5.25-.52,7.89-.19.4.05.71,2.78.66,4.25C305.53,370.51,301.81,373.54,298.28,376.84Z"/><path class="cls-1" d="M369.2,404.09c.07-.21.06.78-.34,1-3.25,1.48-6.47,3.33-9.91,4-2.61.5-3.25-2.57-3.13-4.46a14.38,14.38,0,0,1,2.2-6c1.81-3.1,4.78-2.13,7.49-1.51C368.8,397.84,369.28,400.42,369.2,404.09Z"/><path class="cls-1" d="M337.7,333.76a9.47,9.47,0,0,1,2.21,1.84,17,17,0,0,1,2.27,4.73,5.17,5.17,0,0,1-.84,3.24c-.45.83-1.55,1.31-2,2.13-1.84,3.24-4.27,1.35-6.17.46-.8-.38-1.11-2.54-1-3.85.2-3.07-.13-6.59,4.1-7.6A5.79,5.79,0,0,0,337.7,333.76Z"/><path class="cls-1" d="M341.66,389c-.15,4-2.83,6.52-6,6.34a4.57,4.57,0,0,1-4.28-4.57c.2-3.07,3.78-6,7.25-5.9C342.28,385,341.45,387.75,341.66,389Z"/><path class="cls-1" d="M373.18,492.25c-3.85-4.06-7.54-7.94-11.2-11.85-2.06-2.19-3-4.65-1.58-7.57a3.19,3.19,0,0,0,.19-.62c.42-1.86-1-4.35,1.76-5.4,4.2-1.58,8.76-3.55,12.5.08,1.68,1.63,2.06,4.92,2.36,7.52a72.83,72.83,0,0,1,0,9.91c0,1.76.32,3.61-1.89,4.72C374.42,489.5,374,491,373.18,492.25Z"/><path class="cls-1" d="M419.32,505.39a12.08,12.08,0,0,1,2.61,2.9,89.44,89.44,0,0,1,3.24,8.49c.53,1.49,1.78,3.57,1.21,4.45a44.38,44.38,0,0,1-6.95,8.34c-1.08,1-2.95.89-4.22-1-2.14-3.1-4.67-5.94-6.91-9a5.42,5.42,0,0,1-.85-2.72C407.07,512.14,413.51,505.39,419.32,505.39Z"/><path class="cls-1" d="M366,547.2c-1.23-1.08-2.54-2.38-4-3.48a10.59,10.59,0,0,1-3.7-11.73c1.05-2.94,3.56-3.38,6.13-3.51a32.48,32.48,0,0,1,7.83.15c1.94.38,3.73,1.74,5.46,2.85,2.38,1.53,1.78,3.3.43,5.31-.56.84-.19,2.24-.58,3.27s-1,2.4-1.87,2.86C372.68,544.48,369.47,545.72,366,547.2Z"/><path class="cls-1" d="M294.29,546c3.17-.83,5.54.84,7,2.86,1.72,2.4,2.56,5.44,3.69,8.24.47,1.17.31,2.81,1.09,3.62,2.45,2.53,1.3,4.85-.34,6.86-.63.77-2.62,1.09-3.72.75-6.85-2.15-10.72-7.05-12.62-13.84-.81-2.89-1.82-5.53,1.71-7.25C292.1,546.77,293.22,546.44,294.29,546Z"/><path class="cls-1" d="M339.73,528.11c-4.21,2-9.62-1.49-9.61-7.21,0-3.11,1.32-6.21,2.05-9.32a33.13,33.13,0,0,1,1-3.95c1.7-4.63,3.16-7.77,10.4-6.79,1.89,6.68-1.44,12.74-2.33,19.09C340.87,522.57,340.28,525.18,339.73,528.11Z"/><path class="cls-1" d="M335.67,468.79c-1.23,2.66-2.21,5.21-3.58,7.53a4.27,4.27,0,0,1-2.91,1.67c-3.49.36-7,.47-10.51.55-2.94.07-6.18-5-5-7.61,3.56-7.7,12.66-9.55,19.74-4C334.13,467.46,334.78,468,335.67,468.79Z"/><path class="cls-1" d="M282.65,539.88c-5.21,1.83-10.16-.46-12-5.88-.59-1.76-2.5-3.93-2-5a26.58,26.58,0,0,1,6.25-8.86c1.34-1.15,4.73-.8,6.76,0,1.17.45,1.95,3.13,2,4.84.08,2.48-.8,5-1,7.49C282.49,534.73,282.65,537.09,282.65,539.88Z"/><path class="cls-1" d="M428.42,462.05c1.29,5.29,2.38,9.4,3.23,13.56.15.78-.59,1.81-1.07,2.64-3,5.17-9.24,5.7-13.52,1.74-2.94-2.73-2.81-5-.7-7.84,1.68-2.28,3-4.95,5.05-6.79C423.11,463.84,425.67,463.29,428.42,462.05Z"/><path class="cls-1" d="M299.73,494.9a117.37,117.37,0,0,1,5.42-10.54c1.36-2.13,7.32-2,9.17-.19.49.48,1.05,1.47.87,1.95-1.61,4.11-3.28,8.22-5.18,12.21-.69,1.46-6.5,2.77-7.74,1.62S300.68,496.9,299.73,494.9Z"/><path class="cls-1" d="M407.22,488.92c-1.34,2-2.3,3.34-3.17,4.74-2.1,3.38-5.36,4.26-9,2.37-2.55-1.34-3.73-4.77-2.69-7.85,1.76-5.16,4.52-7.13,9-5.19C403.81,484,405.4,487,407.22,488.92Z"/><path class="cls-1" d="M292.21,474.62c-10.09-1.49-11.87-2.1-12-12.47,2.85-2.42,5.2-.24,7.33,1.1C291.58,465.79,291.83,470.09,292.21,474.62Z"/><path class="cls-1" d="M397.88,541.55c4.57.3,8.26,3.09,7.69,6.31-.46,2.53-3,5-5.23,6.67-.57.41-4-2.32-5.44-4.16-1-1.31-1.69-3.89-1.07-5.24C394.62,543.41,396.89,542.36,397.88,541.55Z"/><path class="cls-1" d="M415.85,450.92c-3.76,4.59-5.43,9.7-10.35,11.79a9.11,9.11,0,0,1-5.35.27c-.58-.13-1-2.46-.87-3.73.35-3.8,1-7.58,1.56-11.36a1.91,1.91,0,0,1,.65-1.07,88.33,88.33,0,0,1,7.72-6c2.23-1.41,4-.33,4.71,2.35S415.3,448.72,415.85,450.92Z"/><path class="cls-1" d="M398.23,405c1.1,0,2.58-.44,3.24.1,1.35,1.12,3.52,3.4,3.17,4.09-2.29,4.45-2.88,9.89-7.59,13.06-1.78,1.2-3.14,1.55-5.11.82s-3-1.91-2.68-4.13c.43-3.22-.92-6.42.75-9.77C391.85,405.49,394.56,404.6,398.23,405Z"/><path class="cls-1" d="M359,429.77c5.44,1.85,7.33,8.1,3.54,12.45-1.07,1.24-1.87,2.73-3,3.87-.91.89-2.76,2.28-3.19,2a23,23,0,0,1-5.89-5.39c-.55-.78.42-3.13,1.3-4.32C354,435.4,356.54,432.69,359,429.77Z"/><path class="cls-1" d="M270.34,424.06c1-1.54,1.9-4.17,3.15-4.37,2.23-.34,4.84-3,7.14.05.3.4.91.57,1.38.85,2.78,1.65,3.24,3.78,1.5,6.4a6.67,6.67,0,0,0-1,2.35c-.56,3-2.25,4.18-5.17,3.39C273.9,431.81,270.91,427.94,270.34,424.06Z"/><path class="cls-1" d="M294.62,438.13a9.38,9.38,0,0,1,2.2,1.83,17.33,17.33,0,0,1,2.28,4.73,5.26,5.26,0,0,1-.85,3.25c-.44.82-1.54,1.3-2,2.13-1.83,3.24-4.27,1.35-6.16.45-.8-.38-1.12-2.53-1-3.85.2-3.06-.12-6.59,4.11-7.6A6.4,6.4,0,0,0,294.62,438.13Z"/><path class="cls-1" d="M285.84,771.51c1.71,2.53,3.83,4.7,3.14,7.87-.11.51-1,1.3-1.43,1.22a41.2,41.2,0,0,1-6-1.6c-2.73-1-3.52-2.78-3-6.15.06-.3.37-.68.28-.88-.59-1.28-.35-2.27,1-2.68a3.76,3.76,0,0,1,4,1A9.1,9.1,0,0,0,285.84,771.51Z"/><path class="cls-1" d="M266.91,622.26c1.72,2.54,3.83,4.71,3.14,7.88-.11.51-1,1.29-1.42,1.22a41.33,41.33,0,0,1-6-1.6c-2.72-1-3.52-2.78-2.95-6.15.05-.31.37-.68.27-.89-.59-1.27-.34-2.26,1-2.67a3.76,3.76,0,0,1,4,1A8.58,8.58,0,0,0,266.91,622.26Z"/><path class="cls-1" d="M313.51,803.35c1.72,2.53,3.83,4.7,3.14,7.87-.11.51-1,1.3-1.42,1.22a39.76,39.76,0,0,1-6-1.6c-2.73-1-3.52-2.78-2.95-6.15,0-.3.37-.67.27-.88-.59-1.28-.34-2.27,1-2.67a3.74,3.74,0,0,1,4,1A9.35,9.35,0,0,0,313.51,803.35Z"/><path class="cls-1" d="M337.63,835.91c-2.12,2.21-3.79,4.73-7,4.73-.52,0-1.48-.73-1.49-1.14a41.21,41.21,0,0,1,.31-6.18c.37-2.88,2-4,5.38-4.19.31,0,.74.22.92.08,1.13-.84,2.15-.81,2.83.44a3.71,3.71,0,0,1-.13,4.09A9,9,0,0,0,337.63,835.91Z"/><path class="cls-1" d="M266.27,675.4c-1.12,2.72-2.2,5.46-3.38,8.16-.66,1.49-1.63,2.32-3.51,1.66-4.11-1.44-5.24-4.41-3-8.46,1.38-2.55,2.79-5.09,4.25-7.6.25-.44,1-1.09,1.22-1,1.81.8,3.84,1.46,5.19,2.8.59.58-.23,2.62-.43,4a2.22,2.22,0,0,1-.18.49Z"/><path class="cls-1" d="M84,585.16l-4.27,3.13c.32,3.27.81,6.35.85,9.44,0,2.66-1.76,4.83-4.2,4.67-2.73-.18-6.08,1.1-8.24-1.87-.87-1.2-2.56-2.7-2.32-3.67,1.19-4.6-1.21-7.93-3.26-11.47a3.44,3.44,0,0,1-.7-1.77c.55-4.84,1.58-9.51,5.88-12.59a4.19,4.19,0,0,1,2-.67c7.77-.53,11.08,2.25,12.24,9.91C82.3,581.84,83.26,583.3,84,585.16Z"/><path class="cls-1" d="M203.06,644.42c-3.91,2.18-7.28,3.59-10.06,5.76-2.14,1.66-3.51,4.3-5.31,6.43-.68.81-1.5,1.87-2.42,2.06-5.91,1.19-10.36-.19-12.62-5.49-1.41-3.3-.68-7.64-.35-11.46.09-1,2.33-1.75,3.55-2.64,3.47-2.51,6.85-5.18,11.41-5.37.43,0,1-.27,1.28-.08,3.79,3.26,9.76,3.54,12.09,8.85C200.89,643.08,201.75,643.41,203.06,644.42Z"/><path class="cls-1" d="M245.54,655.29c-.21,2.93-.47,5.86-.61,8.8a4.36,4.36,0,0,0,.45,2.06c1.34,2.78.15,5.42-3.57,7.69-2.57,1.59-6.65.89-8.07-1.42a57.29,57.29,0,0,1-3.38-5.88c-1.13-2.48-1.37-4.91.75-7.3a31.85,31.85,0,0,0,5.1-7.3c1.48-3.17,3.87-2.27,5.86-1.68S245.91,652.5,245.54,655.29Z"/><path class="cls-1" d="M105.56,604.43c6.19.11,7.79,1,9.27,6.62a114.35,114.35,0,0,1,2.11,13c.25,1.8-.54,2.59-2.49,2.41a36.9,36.9,0,0,0-5.25.13c-3.82.2-5.79-1.24-6.26-5.05-.56-4.5-.74-9-1.3-13.54C101.19,604.37,102.87,603.7,105.56,604.43Z"/><path class="cls-1" d="M167.1,627c-7.87-.8-11.13-5.4-9.16-13.76.38-1.59.41-3.26.75-4.86.89-4.27,3-5.75,6.7-3.81a31.38,31.38,0,0,1,8,6.5c2.09,2.25.65,8-1.92,10.51A66.77,66.77,0,0,0,167.1,627Z"/><path class="cls-1" d="M135.72,658.06c-2.56-.57-4.42-1.08-6.31-1.37-.91-.14-1.9.25-2.84.18-1.7-.13-3.9.13-4.94-.81a5.86,5.86,0,0,1-1.48-4.87c1.38-5.54,10.42-11,16.13-10.25.93.12,1.89,1.54,2.48,2.57,1.18,2,1.91,4.31,3.19,6.24,1.52,2.27,1.31,3.45-1,4.74A59.8,59.8,0,0,0,135.72,658.06Z"/><path class="cls-1" d="M92.45,657.57c-2.86.16-5.83.48-8.79.41-.73,0-1.62-1.21-2.1-2.05-1.29-2.28-2.28-4.75-3.63-7s-.61-4.38,2-5.32c1.45-.54,2.61-1.85,4-2.46a17.17,17.17,0,0,1,5.88-1.65c.91,0,2.14,1.54,2.77,2.64C95.46,647.19,94.51,652.28,92.45,657.57Z"/><path class="cls-1" d="M88.11,663.14c.11,0,.26,0,.33,0,3.41,2.77,6.9-.17,10.3.19a8.6,8.6,0,0,1,4.91,2.31c1.54,1.59,1.39,3.63-.37,5.46-2,2-3.65,4.32-5.52,6.44a2.68,2.68,0,0,1-1.59.93,12.41,12.41,0,0,1-12.65-9.34C82.61,665.65,84.59,663.07,88.11,663.14Z"/><path class="cls-1" d="M208.15,581.08c0-3.51,0-7,0-10.53,0-1.79.86-2.31,2.77-2.25,5.83.17,6.82,1,9.87,8.55,1.35,3.33,1.21,5.89-2.06,7.88-.81.5-1.29,1.7-2.12,2-2,.64-4.15,1.42-6.07,1.1-.92-.15-1.58-2.61-2.12-4.11a8.11,8.11,0,0,1-.05-2.61Z"/><path class="cls-1" d="M252.83,597.75c.2,3.71.46,7.41.58,11.11.06,2-.59,3.53-3.09,3.8-5.45.58-8.34-2.17-8-8,.2-3.65.41-7.31.71-11,.05-.64.54-1.77.85-1.78,2.49-.08,5.16-.42,7.41.36,1,.35,1.16,3.11,1.69,4.77a3.63,3.63,0,0,1,.06.67Z"/><path class="cls-1" d="M219.19,614.26c3.58-.12,7.07,1.88,7.08,5.21,0,2.25-1.93,4.79-3.58,6.69s-4,3-6,4.56c-1.48,1.2-2.52,1.12-3.4-.62a49.92,49.92,0,0,1-3.1-6.21c-.35-1,.25-2.5.71-3.66C212.81,615.6,214.52,614.42,219.19,614.26Z"/><path class="cls-1" d="M139.76,581.42a7.69,7.69,0,0,1-11.35-6.35c-.11-1.64-.61-3.26-.6-4.89,0-1.28.33-3.58.83-3.67a22.73,22.73,0,0,1,8-.33c1,.16,1.93,2.52,2.15,4C139.34,573.85,139.46,577.59,139.76,581.42Z"/><path class="cls-1" d="M223.1,684c6-1.71,9.64,1.67,12.13,6.39.81,1.53,4.06,3.14,1.32,5.55-2.52,2.22-8.17,2-10.1-.08C223.43,692.51,221.36,688.92,223.1,684Z"/><path class="cls-1" d="M83,694.93c-1.52-.13-2.28-.21-3-.26-6.51-.43-8.5-3.54-5.48-9.13.52-.95,2.87-1.6,4.13-1.31,2.18.49,6,7.17,5.61,9.32C84.13,694.21,83.21,694.73,83,694.93Z"/><path class="cls-1" d="M157.44,797.44c-3,.18-6.33.41-9.71.55a2.15,2.15,0,0,1-1.63-.58c-1.85-2.4-3.56-4.92-5.38-7.35a6.1,6.1,0,0,0-2.06-2.1c-3.31-1.45-4.06-4.08-2.83-7a39.52,39.52,0,0,1,5.18-9.1c2.7-3.43,7.1-2.15,8.76,2.06.95,2.43,2.46,4.64,3.37,7.08a101.25,101.25,0,0,1,3,9.69C156.7,793,157,795.31,157.44,797.44Z"/><path class="cls-1" d="M160.35,849.27c-4.85-4.51-6.57-10.43-6.93-16.91,0-.77.07-1.56,0-2.33-.48-5.74,3.15-9.1,9-8.32,2,.28,3.35.76,3.87,3.34a102.62,102.62,0,0,0,4,13c.36,1,1.45,1.8,2.11,2.75.48.68,1.33,1.74,1.12,2.17-.55,1.06-1.88,2.79-2.41,2.63C166.57,844.27,164.05,848.09,160.35,849.27Z"/><path class="cls-1" d="M244.46,827.43c.39,3,1,7.2,1.35,11.39a3.46,3.46,0,0,1-1.61,2.62c-2.64,1.4-9.18.36-10.57-2.24-2.9-5.43-7.48-10.44-6.44-17.26.31-2.06,1.77-4,2.89-5.85.22-.37,1.36-.43,2-.26,2.2.61,4.33,1.46,6.54,2.08C243.4,819.25,244.75,821.1,244.46,827.43Z"/><path class="cls-1" d="M206,774.52c-6.2-6.19-11.92-11.29-10.69-20.15.2-1.38-.1-2.86.27-4.16.49-1.71,1.75-2.39,3.73-2.42a15.55,15.55,0,0,0,5.31-1.46c4.29-1.71,6.5-.15,6,4.39a1.84,1.84,0,0,0,.1.65,21.77,21.77,0,0,1-1.42,16.32C208.4,769.71,207.4,771.71,206,774.52Z"/><path class="cls-1" d="M117.94,751.84c-4.94.61-9.85,1.41-14.8,1.75-2,.14-4.66.66-5.67-2.42-.48-1.45-1.54-2.71.48-3.83a2,2,0,0,0,.83-1.68c-1.31-4,2-5.74,4-7.71,2.47-2.46,7-2.32,10.11.45C116.29,741.46,119.12,748.36,117.94,751.84Z"/><path class="cls-1" d="M204.72,798.51c-.37,5.3.21,10.55-4.14,14.16-.69.58-2.79.68-3.25.15a70.66,70.66,0,0,1-6.49-8.62c-2.69-4.26-1.85-7.59,2.53-11.6.41-.36,1.24-.53,1.33-.92.56-2.38,2-3.48,4.26-2.57a6.51,6.51,0,0,1,4.39,5.62A15.41,15.41,0,0,0,204.72,798.51Z"/><path class="cls-1" d="M260.57,794a81.08,81.08,0,0,1,.27,8.65,4.69,4.69,0,0,1-2.07,3.45c-1.78.83-3.93.88-5.94,1.2-2.71.44-3-1.9-4.07-3.49-3.39-5.29-3-10.76,1.2-15.63a2.7,2.7,0,0,1,1.71-.74,18.41,18.41,0,0,1,3.56.09C260.7,788.27,260.69,788.29,260.57,794Z"/><path class="cls-1" d="M114.45,803.85c.22,3.59.45,7.26.68,10.93.06,1-.28,2.35.24,2.89,3.46,3.59.23,3.45-2.06,4.19a51.82,51.82,0,0,0-5.85,2.77c-3.31-3-5-7.23-5.57-11.85a16.2,16.2,0,0,1,.93-7.84c.54-1.27,3.15-2.1,4.9-2.27S111.6,803.3,114.45,803.85Z"/><path class="cls-1" d="M228.5,770.75c2.14-3.3.26-8.56,5.23-11.11,2.83-1.45,5-.36,7.09.89,2.41,1.46,4.16,3.73,3.62,6.91-.71,4.24-1.92,8.16-6.88,9.28-.42.09-.78.46-1.2.53-1.76.3-3.23,3.72-5.24.71a27,27,0,0,1-2.22-5.23A13.22,13.22,0,0,1,228.5,770.75Z"/><path class="cls-1" d="M92.17,789.23c-4.44-1.22-6.67-3.89-8.46-7-1.3-2.23-2.47-4.55-3.56-6.89-1.48-3.17,1.08-10.15,4.17-11.65s6.84,1.88,7.1,6,1,8.22,1.25,12.34A54.59,54.59,0,0,1,92.17,789.23Z"/><path class="cls-1" d="M129.55,713.21c4.88.14,7.75,3,8.15,7.09a15.27,15.27,0,0,0,.93,4.8c1.28,2.77-.7,4.24-2.33,5-2.06.91-4.57.83-6.9,1-.35,0-1-.67-1.12-1.14-1.34-4.89-3.35-9.79-.7-14.83A7.27,7.27,0,0,1,129.55,713.21Z"/><path class="cls-1" d="M163.22,749.87c.19-2.32.31-4.57.59-6.79.05-.43.62-.9,1.06-1.17,4.1-2.51,8.4-4.35,13.37-3.39,2.17.42,2.83,2.35,1.81,4.91-.65,1.63-1.06,3.38-1.84,4.93a2.86,2.86,0,0,1-2.07,1.35c-2.72.07-5.44-.18-8.17-.18C166.38,749.52,164.78,749.75,163.22,749.87Z"/><path class="cls-1" d="M229.72,739.52c-.07.8-.15,1.78-.24,2.75-.38,4-1.22,4.7-5.21,4.42-6.12-.43-6.12-.43-7.17-7-.78-4.8-.77-4.78,4.15-5a16.11,16.11,0,0,0,2.19-.58C228.66,733.16,229.61,734,229.72,739.52Z"/><path class="cls-1" d="M98.79,725.15c-2.56-.57-4.42-1.08-6.31-1.37-.92-.14-1.91.25-2.84.17-1.7-.13-3.9.14-5-.81a5.85,5.85,0,0,1-1.48-4.87c1.39-5.54,10.42-11,16.14-10.24.94.12,1.89,1.54,2.48,2.56,1.18,2,1.91,4.31,3.19,6.24,1.52,2.27,1.31,3.45-1,4.75A59.12,59.12,0,0,0,98.79,725.15Z"/><path class="cls-1" d="M153.12,676.29c3.17-.84,5.54.85,7,2.88,1.71,2.41,2.56,5.46,3.68,8.28.47,1.18.31,2.83,1.09,3.64,2.45,2.55,1.3,4.87-.34,6.89-.63.78-2.62,1.11-3.71.76-6.85-2.16-10.72-7.09-12.61-13.91-.81-2.91-1.82-5.57,1.7-7.29C150.94,677,152.05,676.7,153.12,676.29Z"/><path class="cls-1" d="M190.89,703.64c3.57-.54,6.79,3.25,5.51,7.5-.7,2.31-2.36,4.34-3.59,6.49a26.44,26.44,0,0,1-1.63,2.72c-2.3,3.08-4.08,5.09-9.22,2.75.1-5.4,3.91-9.18,6-13.71C188.82,707.51,189.83,705.7,190.89,703.64Z"/><path class="cls-1" d="M255.61,722.27c-1.34,2-2.31,3.36-3.17,4.77-2.1,3.4-5.35,4.29-9,2.38-2.55-1.34-3.73-4.8-2.68-7.9,1.74-5.19,4.5-7.17,9-5.21C252.2,717.35,253.79,720.32,255.61,722.27Z"/><path class="cls-1" d="M111.89,689.36c4.56.31,8.25,3.11,7.67,6.35-.45,2.55-3,5.08-5.23,6.71-.56.41-4-2.34-5.43-4.18-1-1.32-1.69-3.91-1.06-5.27C108.63,691.24,110.89,690.19,111.89,689.36Z"/><path class="cls-1" d="M347.52,588.32c-2.34,3-5,6.44-7.61,9.87-1.77,2.31-8,4.62-10.44,3.25-1.2-.69-2-2.74-2.25-4.29A26.34,26.34,0,0,1,327,590a5.61,5.61,0,0,1,2-3.35c2.62-2.13,5.52-3.93,8.23-6s4.52-1.39,6.05,1.44A62,62,0,0,0,347.52,588.32Z"/><path class="cls-1" d="M426.22,662.13c-3.58,2.55-2,6.73-2,10.5,0,1.86-.53,2.4-2.3,2.79-4.6,1-9.18-2.63-11.16-6.63-1.29-2.63-2.95-4.87-1.82-8.27,1.66-4.95,7.56-8.58,12.5-6.83a5,5,0,0,1,2.38,2.42A63.29,63.29,0,0,1,426.22,662.13Z"/><path class="cls-1" d="M308.18,681.17c7.09-.69,10.2,1.84,12.1,7.54,1.12,3.32,1.35,6.33.08,9.46a9,9,0,0,1-2.1,3.28c-4.47,4.09-9.21,2.72-10.56-3.41a82.77,82.77,0,0,1-1.39-14.35C306.27,682.69,307.83,681.62,308.18,681.17Z"/><path class="cls-1" d="M414.67,623.62c-1.69,5.68-1.25,11-5,14.85a9.09,9.09,0,0,1-4.84,2.3c-.58.1-1.86-1.9-2.24-3.11-1.15-3.65-2-7.38-2.95-11.09a1.82,1.82,0,0,1,.18-1.23,86.66,86.66,0,0,1,4.81-8.46c1.52-2.16,3.59-1.85,5.26.36S413.32,621.81,414.67,623.62Z"/><path class="cls-1" d="M266.42,559.64c2.63,2.14,5.25,4.26,7.86,6.4,2.31,1.9,3.27,8.67,1.65,11.23-.73,1.17-1.3,2.44-2,3.64a2.22,2.22,0,0,1-.89.88c-4.32,2.07-11.24-1.86-11.77-6.66C260.46,567.79,261.33,565.24,266.42,559.64Z"/><path class="cls-1" d="M366.63,612.15c1.1,0,2.58-.44,3.24.1,1.35,1.12,3.52,3.4,3.17,4.09-2.29,4.45-2.88,9.89-7.59,13.07-1.78,1.2-3.14,1.55-5.11.81s-3-1.9-2.68-4.13c.43-3.22-.91-6.42.75-9.77C360.25,612.6,363,611.71,366.63,612.15Z"/><path class="cls-1" d="M303.66,610.82c.23-2.28.49-4.55.68-6.83.23-2.73,1.89-3.53,4.34-3.2,3.82.52,5.88,3.44,5.42,7.35-.25,2.22-.35,4.45-.39,6.68s-.61,3.48-3.12,2.69a4.17,4.17,0,0,0-1-.24C304.28,616.79,303.6,616.05,303.66,610.82Z"/><path class="cls-1" d="M374.55,651.71c1-1.54,1.9-4.17,3.14-4.36,2.24-.35,4.85-3,7.15,0,.3.4.91.57,1.38.85,2.77,1.65,3.24,3.78,1.49,6.4a6.45,6.45,0,0,0-1,2.36c-.56,3-2.25,4.17-5.18,3.38C378.11,659.46,375.12,655.59,374.55,651.71Z"/><path class="cls-1" d="M380,583.38c-2.93,1.52-5.69,3.07-8.55,4.41s-5.67.13-7.94-1.62c-2.95-2.27-1.95-5.65,2.64-7.44a20.58,20.58,0,0,1,8.73-1.12C377.76,577.82,379.65,579.9,380,583.38Z"/><path class="cls-1" d="M298.28,656.1c-5.24-4.26-6-12-1.1-15.58,1.76-1.3,5.25-.51,7.89-.18.4,0,.71,2.78.66,4.25C305.53,649.77,301.81,652.8,298.28,656.1Z"/><path class="cls-1" d="M369.2,683.34c.07-.21.06.79-.34,1-3.25,1.48-6.47,3.33-9.91,4-2.61.51-3.25-2.56-3.13-4.45a14.42,14.42,0,0,1,2.2-6c1.81-3.09,4.78-2.12,7.49-1.5C368.8,677.1,369.28,679.68,369.2,683.34Z"/><path class="cls-1" d="M337.7,613a9.23,9.23,0,0,1,2.21,1.84,17,17,0,0,1,2.27,4.73,5.17,5.17,0,0,1-.84,3.24c-.45.83-1.55,1.3-2,2.13-1.84,3.24-4.27,1.35-6.17.46-.8-.38-1.11-2.54-1-3.85.2-3.07-.13-6.59,4.1-7.61A6,6,0,0,0,337.7,613Z"/><path class="cls-1" d="M341.66,668.3c-.15,4.05-2.83,6.52-6,6.34a4.57,4.57,0,0,1-4.28-4.57c.2-3.08,3.78-6,7.25-5.9C342.28,664.26,341.45,667,341.66,668.3Z"/><path class="cls-1" d="M373.18,771.51c-3.85-4.07-7.54-8-11.2-11.85-2.06-2.19-3-4.65-1.58-7.57a3.08,3.08,0,0,0,.19-.63c.42-1.85-1-4.34,1.76-5.39,4.2-1.59,8.76-3.56,12.5.08,1.68,1.63,2.06,4.91,2.36,7.52a72.82,72.82,0,0,1,0,9.91c0,1.76.32,3.61-1.89,4.72C374.42,768.76,374,770.21,373.18,771.51Z"/><path class="cls-1" d="M419.32,784.65a12.08,12.08,0,0,1,2.61,2.9,89.44,89.44,0,0,1,3.24,8.49c.53,1.49,1.78,3.57,1.21,4.45a44.7,44.7,0,0,1-6.95,8.34c-1.08,1-2.95.88-4.22-1-2.14-3.1-4.67-5.94-6.91-9a5.42,5.42,0,0,1-.85-2.72C407.07,791.4,413.51,784.65,419.32,784.65Z"/><path class="cls-1" d="M366,826.46c-1.23-1.08-2.54-2.38-4-3.49a10.57,10.57,0,0,1-3.7-11.72c1.05-2.94,3.56-3.38,6.13-3.51a32.49,32.49,0,0,1,7.83.14c1.94.39,3.73,1.75,5.46,2.86,2.38,1.52,1.78,3.3.43,5.31-.56.84-.19,2.24-.58,3.26s-1,2.4-1.87,2.87C372.68,823.74,369.47,825,366,826.46Z"/><path class="cls-1" d="M294.29,825.28c3.17-.83,5.54.85,7,2.87,1.72,2.4,2.56,5.43,3.69,8.23.47,1.18.31,2.82,1.09,3.62,2.45,2.54,1.3,4.86-.34,6.86-.63.78-2.62,1.1-3.72.76-6.85-2.16-10.72-7.06-12.62-13.84-.81-2.89-1.82-5.54,1.71-7.26C292.1,826,293.22,825.7,294.29,825.28Z"/><path class="cls-1" d="M339.73,807.36c-4.21,2-9.62-1.49-9.61-7.2,0-3.11,1.32-6.22,2.05-9.32a33.13,33.13,0,0,1,1-4c1.7-4.64,3.16-7.77,10.4-6.8,1.89,6.69-1.44,12.75-2.33,19.1C340.87,801.83,340.28,804.43,339.73,807.36Z"/><path class="cls-1" d="M335.67,748.05c-1.23,2.66-2.21,5.2-3.58,7.53a4.31,4.31,0,0,1-2.91,1.67c-3.49.35-7,.47-10.51.55-2.94.07-6.18-5-5-7.62,3.56-7.69,12.66-9.54,19.74-4C334.13,746.72,334.78,747.3,335.67,748.05Z"/><path class="cls-1" d="M282.65,819.13c-5.21,1.84-10.16-.46-12-5.88-.59-1.76-2.5-3.92-2-5a26.54,26.54,0,0,1,6.25-8.85c1.34-1.16,4.73-.8,6.76,0,1.17.45,1.95,3.13,2,4.83.08,2.48-.8,5-1,7.49C282.49,814,282.65,816.34,282.65,819.13Z"/><path class="cls-1" d="M428.42,741.31c1.29,5.28,2.38,9.39,3.23,13.56.15.78-.59,1.81-1.07,2.64-3,5.17-9.24,5.7-13.52,1.73-2.94-2.72-2.81-5-.7-7.84,1.68-2.27,3-4.94,5.05-6.78C423.11,743.1,425.67,742.55,428.42,741.31Z"/><path class="cls-1" d="M299.73,774.16a116,116,0,0,1,5.42-10.54c1.36-2.13,7.32-2,9.17-.19.49.48,1.05,1.47.87,1.94-1.61,4.12-3.28,8.23-5.18,12.22-.69,1.45-6.5,2.77-7.74,1.62S300.68,776.16,299.73,774.16Z"/><path class="cls-1" d="M407.22,768.17c-1.34,2-2.3,3.34-3.17,4.75-2.1,3.38-5.36,4.26-9,2.37-2.55-1.34-3.73-4.78-2.69-7.86,1.76-5.16,4.52-7.13,9-5.19C403.81,763.29,405.4,766.23,407.22,768.17Z"/><path class="cls-1" d="M292.21,753.87c-10.09-1.48-11.87-2.09-12-12.46,2.85-2.42,5.2-.24,7.33,1.1C291.58,745,291.83,749.35,292.21,753.87Z"/><path class="cls-1" d="M397.88,820.8c4.57.3,8.26,3.09,7.69,6.31-.46,2.54-3,5-5.23,6.68-.57.41-4-2.33-5.44-4.16-1-1.32-1.69-3.89-1.07-5.25C394.62,822.67,396.89,821.62,397.88,820.8Z"/><path class="cls-1" d="M415.85,730.17c-3.76,4.59-5.43,9.71-10.35,11.8a9.11,9.11,0,0,1-5.35.27c-.58-.13-1-2.46-.87-3.73.35-3.8,1-7.58,1.56-11.36a1.88,1.88,0,0,1,.65-1.07,86.44,86.44,0,0,1,7.72-6c2.23-1.41,4-.34,4.71,2.34S415.3,728,415.85,730.17Z"/><path class="cls-1" d="M398.23,684.3c1.1,0,2.58-.45,3.24.09,1.35,1.12,3.52,3.4,3.17,4.1-2.29,4.45-2.88,9.88-7.59,13.06-1.78,1.19-3.14,1.55-5.11.81s-3-1.9-2.68-4.13c.43-3.22-.92-6.42.75-9.76C391.85,684.74,394.56,683.86,398.23,684.3Z"/><path class="cls-1" d="M359,709c5.44,1.85,7.33,8.1,3.54,12.45-1.07,1.24-1.87,2.73-3,3.86-.91.9-2.76,2.29-3.19,2a23,23,0,0,1-5.89-5.38c-.55-.79.42-3.14,1.3-4.32C354,714.66,356.54,711.94,359,709Z"/><path class="cls-1" d="M270.34,703.32c1-1.54,1.9-4.18,3.15-4.37,2.23-.34,4.84-3,7.14,0a4.63,4.63,0,0,0,1.38.86c2.78,1.65,3.24,3.78,1.5,6.39a6.8,6.8,0,0,0-1,2.36c-.56,3-2.25,4.17-5.17,3.38C273.9,711.06,270.91,707.19,270.34,703.32Z"/><path class="cls-1" d="M294.62,717.38a9.4,9.4,0,0,1,2.2,1.84A17.33,17.33,0,0,1,299.1,724a5.23,5.23,0,0,1-.85,3.24c-.44.83-1.54,1.31-2,2.13-1.83,3.25-4.27,1.35-6.16.46-.8-.38-1.12-2.54-1-3.85.2-3.07-.12-6.59,4.11-7.6A6.17,6.17,0,0,0,294.62,717.38Z"/><path class="cls-1" d="M642.67,213c1.71,2.54,3.83,4.71,3.14,7.87-.12.52-1,1.3-1.43,1.23a41.2,41.2,0,0,1-6-1.6c-2.73-1-3.53-2.78-3-6.15,0-.31.37-.68.28-.89-.59-1.27-.35-2.27,1-2.67a3.74,3.74,0,0,1,4,1A8.77,8.77,0,0,0,642.67,213Z"/><path class="cls-1" d="M623.74,63.75c1.71,2.53,3.83,4.7,3.14,7.87-.11.51-1,1.3-1.42,1.23a41,41,0,0,1-6-1.61c-2.73-1-3.52-2.78-3-6.14.05-.31.36-.68.27-.89-.59-1.27-.35-2.27,1-2.67a3.74,3.74,0,0,1,4,1A9.35,9.35,0,0,0,623.74,63.75Z"/><path class="cls-1" d="M670.34,244.83c1.71,2.54,3.83,4.71,3.14,7.88-.11.51-1,1.3-1.42,1.22a41,41,0,0,1-6-1.6c-2.73-1-3.52-2.78-3-6.15.06-.31.37-.68.28-.88-.59-1.28-.35-2.27,1-2.67a3.74,3.74,0,0,1,4,1A8.58,8.58,0,0,0,670.34,244.83Z"/><path class="cls-1" d="M694.46,277.4c-2.12,2.21-3.79,4.73-7,4.73-.52,0-1.48-.73-1.49-1.14a40.05,40.05,0,0,1,.3-6.19c.38-2.87,2-4,5.39-4.18.31,0,.74.22.92.08,1.13-.84,2.15-.82,2.83.43a3.73,3.73,0,0,1-.13,4.1A9,9,0,0,0,694.46,277.4Z"/><path class="cls-1" d="M623.1,116.89c-1.13,2.72-2.2,5.46-3.39,8.15-.65,1.49-1.63,2.33-3.5,1.67-4.11-1.45-5.24-4.41-3-8.46,1.39-2.55,2.8-5.09,4.26-7.61.25-.44,1-1.08,1.21-1,1.82.8,3.85,1.47,5.2,2.8.59.59-.24,2.62-.43,4a2.22,2.22,0,0,1-.18.49Z"/><path class="cls-1" d="M440.87,26.65l-4.27,3.13c.32,3.27.8,6.35.85,9.43,0,2.66-1.77,4.84-4.2,4.67C430.52,43.7,427.17,45,425,42c-.87-1.2-2.57-2.71-2.32-3.67,1.19-4.6-1.21-7.93-3.26-11.47a3.44,3.44,0,0,1-.7-1.77c.54-4.85,1.57-9.51,5.88-12.59a4.19,4.19,0,0,1,2-.67c7.77-.54,11.08,2.25,12.24,9.91C439.13,23.33,440.09,24.79,440.87,26.65Z"/><path class="cls-1" d="M559.88,85.91c-3.9,2.17-7.27,3.59-10,5.75-2.14,1.67-3.52,4.3-5.31,6.44-.68.81-1.51,1.87-2.42,2.06-5.91,1.18-10.37-.2-12.62-5.49-1.41-3.3-.68-7.64-.35-11.47.09-1,2.32-1.74,3.55-2.63,3.46-2.52,6.85-5.19,11.4-5.37.44,0,1-.28,1.28-.08,3.8,3.26,9.77,3.53,12.1,8.85C557.72,84.56,558.58,84.9,559.88,85.91Z"/><path class="cls-1" d="M602.37,96.77c-.22,2.94-.47,5.87-.61,8.81a4.36,4.36,0,0,0,.45,2.06c1.34,2.77.14,5.41-3.57,7.69-2.58,1.58-6.65.89-8.07-1.43a55.36,55.36,0,0,1-3.38-5.87c-1.13-2.49-1.37-4.91.75-7.3A31.56,31.56,0,0,0,593,93.42c1.48-3.16,3.88-2.26,5.87-1.67S602.73,94,602.37,96.77Z"/><path class="cls-1" d="M462.39,45.92c6.19.11,7.79,1,9.27,6.61a112.49,112.49,0,0,1,2.1,13c.26,1.8-.53,2.59-2.48,2.42a38.43,38.43,0,0,0-5.25.12c-3.82.2-5.79-1.23-6.26-5-.56-4.49-.74-9-1.3-13.54C458,45.85,459.7,45.19,462.39,45.92Z"/><path class="cls-1" d="M523.93,68.5c-7.87-.8-11.13-5.4-9.16-13.76.38-1.59.41-3.26.74-4.86.9-4.27,3-5.75,6.71-3.81a31.17,31.17,0,0,1,8,6.5c2.09,2.25.65,8-1.92,10.51A66.77,66.77,0,0,0,523.93,68.5Z"/><path class="cls-1" d="M492.55,99.55c-2.56-.57-4.42-1.08-6.31-1.37-.92-.14-1.9.25-2.84.18-1.7-.14-3.9.13-4.94-.82A5.85,5.85,0,0,1,477,92.67c1.38-5.53,10.41-11,16.13-10.24C494,82.55,495,84,495.59,85c1.18,2,1.91,4.3,3.19,6.23,1.52,2.28,1.31,3.45-1,4.75A57.65,57.65,0,0,0,492.55,99.55Z"/><path class="cls-1" d="M449.28,99.05c-2.86.17-5.83.49-8.79.41-.73,0-1.62-1.2-2.1-2-1.3-2.29-2.28-4.75-3.64-7s-.6-4.38,2-5.33c1.45-.53,2.6-1.85,4-2.45A17.24,17.24,0,0,1,446.65,81c.91,0,2.13,1.54,2.77,2.65C452.29,88.67,451.34,93.77,449.28,99.05Z"/><path class="cls-1" d="M444.94,104.63c.11,0,.26,0,.33,0,3.41,2.77,6.9-.18,10.29.19a8.57,8.57,0,0,1,4.91,2.31c1.55,1.58,1.4,3.63-.36,5.45-2,2-3.65,4.32-5.52,6.45A2.67,2.67,0,0,1,453,120a12.39,12.39,0,0,1-12.65-9.34C439.44,107.13,441.42,104.55,444.94,104.63Z"/><path class="cls-1" d="M565,22.57c0-3.51,0-7,0-10.53,0-1.79.85-2.32,2.76-2.26,5.84.18,6.83,1.05,9.88,8.56,1.35,3.32,1.21,5.88-2.06,7.88-.81.5-1.29,1.7-2.12,2-2,.63-4.15,1.41-6.07,1.1-.92-.16-1.58-2.61-2.12-4.11a8.17,8.17,0,0,1,0-2.62Z"/><path class="cls-1" d="M609.66,39.24c.2,3.7.46,7.4.57,11.11.07,2-.59,3.53-3.08,3.8-5.45.58-8.34-2.17-8-8,.19-3.66.41-7.31.7-11,.06-.64.54-1.78.85-1.79,2.5-.07,5.17-.41,7.42.37,1,.34,1.16,3.1,1.69,4.77a3.6,3.6,0,0,1,.06.66Z"/><path class="cls-1" d="M576,55.75c3.58-.12,7.07,1.88,7.07,5.21,0,2.25-1.92,4.78-3.57,6.69s-4,3-6,4.56c-1.48,1.19-2.52,1.12-3.4-.63a50.7,50.7,0,0,1-3.11-6.21c-.34-1,.26-2.5.72-3.65C569.64,57.09,571.35,55.9,576,55.75Z"/><path class="cls-1" d="M496.59,22.91a7.69,7.69,0,0,1-11.35-6.36c-.12-1.63-.61-3.26-.6-4.88,0-1.28.33-3.58.83-3.67a23,23,0,0,1,8-.34c.95.17,1.93,2.53,2.15,4C496.16,15.33,496.29,19.07,496.59,22.91Z"/><path class="cls-1" d="M579.93,125.45c6-1.71,9.64,1.67,12.13,6.39.8,1.52,4.06,3.14,1.32,5.55-2.52,2.22-8.18,2-10.1-.08C580.25,134,578.19,130.4,579.93,125.45Z"/><path class="cls-1" d="M439.85,136.41c-1.52-.13-2.29-.21-3.05-.26-6.5-.42-8.49-3.53-5.47-9.12.51-1,2.87-1.6,4.13-1.31,2.18.49,6,7.16,5.61,9.32C441,135.69,440,136.21,439.85,136.41Z"/><path class="cls-1" d="M514.26,238.93c-2.95.17-6.32.41-9.7.55a2.23,2.23,0,0,1-1.64-.58c-1.85-2.41-3.56-4.92-5.37-7.35a6.22,6.22,0,0,0-2.06-2.11c-3.31-1.44-4.06-4.07-2.83-7a39.22,39.22,0,0,1,5.18-9.11c2.7-3.43,7.1-2.15,8.76,2.07.95,2.43,2.46,4.63,3.37,7.07,1.17,3.16,2.1,6.43,3,9.69C513.53,234.45,513.85,236.8,514.26,238.93Z"/><path class="cls-1" d="M517.18,290.75c-4.85-4.51-6.57-10.42-6.93-16.9-.05-.78.06-1.56,0-2.33-.48-5.75,3.14-9.11,9-8.32,2,.28,3.35.75,3.87,3.33a100.06,100.06,0,0,0,4,13c.36,1,1.44,1.8,2.11,2.75.48.69,1.33,1.74,1.11,2.17-.54,1.07-1.87,2.8-2.41,2.64C523.4,285.76,520.88,289.58,517.18,290.75Z"/><path class="cls-1" d="M601.29,268.92c.38,3,1,7.2,1.35,11.39a3.44,3.44,0,0,1-1.62,2.62c-2.63,1.4-9.17.36-10.56-2.24-2.9-5.44-7.48-10.45-6.44-17.27.31-2.05,1.76-4,2.88-5.84.22-.37,1.37-.43,2-.26,2.2.61,4.33,1.46,6.54,2.07C600.23,260.74,601.58,262.58,601.29,268.92Z"/><path class="cls-1" d="M562.85,216c-6.2-6.18-11.92-11.28-10.69-20.15.19-1.37-.1-2.85.27-4.16.48-1.7,1.75-2.39,3.73-2.41a15.73,15.73,0,0,0,5.3-1.46c4.29-1.72,6.51-.15,6,4.39a1.59,1.59,0,0,0,.1.64,21.79,21.79,0,0,1-1.42,16.33C565.23,211.2,564.23,213.2,562.85,216Z"/><path class="cls-1" d="M474.76,193.33c-4.94.61-9.85,1.41-14.79,1.75-2,.14-4.67.65-5.68-2.42-.47-1.46-1.53-2.71.49-3.84a2,2,0,0,0,.83-1.68c-1.31-3.95,2-5.73,4-7.71,2.48-2.46,7-2.32,10.12.46C473.12,182.94,476,189.84,474.76,193.33Z"/><path class="cls-1" d="M561.55,240c-.37,5.31.2,10.55-4.14,14.16-.7.58-2.79.69-3.26.15a71.52,71.52,0,0,1-6.48-8.61c-2.7-4.26-1.85-7.59,2.53-11.6.4-.37,1.24-.53,1.33-.92.56-2.38,2-3.48,4.25-2.58a6.53,6.53,0,0,1,4.4,5.63A14.93,14.93,0,0,0,561.55,240Z"/><path class="cls-1" d="M617.39,235.53a78.39,78.39,0,0,1,.28,8.65,4.72,4.72,0,0,1-2.07,3.45c-1.78.82-3.93.88-5.94,1.2-2.71.44-3-1.9-4.07-3.49-3.4-5.3-3-10.76,1.2-15.64a2.67,2.67,0,0,1,1.71-.73,17.65,17.65,0,0,1,3.56.09C617.52,229.75,617.52,229.78,617.39,235.53Z"/><path class="cls-1" d="M471.27,245.33c.23,3.59.46,7.26.69,10.93.06,1-.28,2.36.24,2.9,3.45,3.59.23,3.45-2.06,4.19a50.13,50.13,0,0,0-5.85,2.77c-3.31-3-5-7.24-5.57-11.86a16.23,16.23,0,0,1,.93-7.84c.54-1.26,3.15-2.09,4.9-2.26S468.43,244.78,471.27,245.33Z"/><path class="cls-1" d="M585.33,212.24c2.14-3.3.25-8.56,5.23-11.11,2.82-1.45,5-.36,7.09.89,2.41,1.46,4.15,3.73,3.62,6.9-.71,4.25-1.92,8.16-6.88,9.28-.42.1-.79.47-1.2.54-1.76.29-3.23,3.71-5.24.71a27,27,0,0,1-2.22-5.23A13.22,13.22,0,0,1,585.33,212.24Z"/><path class="cls-1" d="M449,230.71c-4.44-1.21-6.67-3.89-8.47-7-1.29-2.24-2.47-4.55-3.56-6.89-1.47-3.17,1.09-10.16,4.18-11.65s6.84,1.88,7.1,6,1,8.21,1.25,12.33A54.59,54.59,0,0,1,449,230.71Z"/><path class="cls-1" d="M486.38,154.7c4.88.14,7.75,3,8.15,7.08a15.28,15.28,0,0,0,.93,4.81c1.27,2.77-.7,4.23-2.34,5-2.05.91-4.56.82-6.89,1-.35,0-1-.67-1.12-1.14-1.34-4.89-3.35-9.8-.7-14.83A7,7,0,0,1,486.38,154.7Z"/><path class="cls-1" d="M520.05,191.35c.19-2.32.31-4.56.58-6.79.06-.43.63-.89,1.07-1.16,4.1-2.51,8.39-4.35,13.37-3.39,2.17.42,2.83,2.35,1.81,4.91-.65,1.63-1.06,3.37-1.84,4.93a2.85,2.85,0,0,1-2.07,1.34c-2.72.08-5.45-.17-8.17-.18C523.21,191,521.61,191.23,520.05,191.35Z"/><path class="cls-1" d="M586.54,181c-.06.79-.14,1.77-.23,2.75-.38,4-1.22,4.7-5.21,4.42-6.12-.43-6.12-.43-7.18-7-.77-4.79-.77-4.77,4.16-5a16.11,16.11,0,0,0,2.19-.58C585.49,174.65,586.44,175.44,586.54,181Z"/><path class="cls-1" d="M455.62,166.63c-2.56-.57-4.42-1.07-6.31-1.37-.92-.14-1.91.25-2.84.18-1.71-.13-3.9.13-5-.81a5.85,5.85,0,0,1-1.48-4.87c1.39-5.54,10.42-11,16.14-10.24.93.12,1.88,1.54,2.48,2.56,1.18,2,1.9,4.31,3.19,6.24,1.52,2.27,1.31,3.45-1,4.75A57.65,57.65,0,0,0,455.62,166.63Z"/><path class="cls-1" d="M510,117.77c3.17-.83,5.54.85,7,2.88,1.71,2.42,2.56,5.47,3.68,8.28.47,1.19.31,2.83,1.09,3.64,2.45,2.55,1.3,4.88-.34,6.9-.63.78-2.62,1.1-3.71.76-6.85-2.17-10.72-7.09-12.61-13.91-.82-2.91-1.82-5.57,1.7-7.3C507.77,118.52,508.88,118.19,510,117.77Z"/><path class="cls-1" d="M547.72,145.13c3.57-.55,6.79,3.24,5.51,7.5-.7,2.31-2.36,4.33-3.6,6.49a26.8,26.8,0,0,1-1.63,2.72c-2.29,3.07-4.07,5.08-9.21,2.75.09-5.41,3.91-9.18,6-13.71C545.64,149,546.66,147.19,547.72,145.13Z"/><path class="cls-1" d="M612.44,163.76c-1.34,2-2.31,3.36-3.17,4.77-2.1,3.4-5.35,4.28-9,2.38-2.56-1.34-3.73-4.8-2.69-7.9,1.75-5.19,4.51-7.17,9-5.22C609,158.84,610.62,161.8,612.44,163.76Z"/><path class="cls-1" d="M468.71,130.85c4.57.31,8.26,3.11,7.68,6.35-.45,2.55-3,5.07-5.23,6.71-.56.41-4-2.34-5.43-4.18-1-1.33-1.69-3.92-1.07-5.28C465.46,132.73,467.72,131.67,468.71,130.85Z"/><path class="cls-1" d="M704.35,29.8c-2.34,3-5,6.44-7.62,9.87-1.77,2.32-8,4.63-10.43,3.26-1.21-.69-2-2.74-2.25-4.3a25.88,25.88,0,0,1-.24-7.14,5.62,5.62,0,0,1,2-3.35c2.63-2.13,5.53-3.93,8.23-6s4.53-1.39,6,1.44A64.92,64.92,0,0,0,704.35,29.8Z"/><path class="cls-1" d="M783.05,103.62c-3.58,2.55-2,6.73-2,10.49,0,1.86-.53,2.41-2.3,2.79-4.6,1-9.18-2.62-11.16-6.62-1.29-2.63-3-4.87-1.82-8.27,1.66-5,7.56-8.59,12.5-6.83a5,5,0,0,1,2.38,2.41A64.63,64.63,0,0,1,783.05,103.62Z"/><path class="cls-1" d="M665,122.66c7.08-.7,10.2,1.83,12.1,7.53,1.11,3.33,1.35,6.33.08,9.47a9.18,9.18,0,0,1-2.1,3.28c-4.48,4.09-9.21,2.72-10.56-3.42a82.56,82.56,0,0,1-1.39-14.34C663.1,124.18,664.65,123.11,665,122.66Z"/><path class="cls-1" d="M771.5,65.11c-1.69,5.67-1.25,11-5,14.84a9.07,9.07,0,0,1-4.84,2.31c-.58.09-1.86-1.9-2.24-3.12-1.15-3.64-2-7.37-3-11.08a1.92,1.92,0,0,1,.19-1.24,87.85,87.85,0,0,1,4.81-8.46c1.52-2.15,3.59-1.85,5.26.36S770.15,63.29,771.5,65.11Z"/><path class="cls-1" d="M623.25,1.13c2.63,2.14,5.25,4.26,7.86,6.4,2.31,1.89,3.26,8.66,1.65,11.23-.73,1.17-1.3,2.44-2,3.63a2.16,2.16,0,0,1-.89.88c-4.32,2.07-11.24-1.85-11.77-6.65C617.29,9.27,618.16,6.73,623.25,1.13Z"/><path class="cls-1" d="M723.46,53.64c1.1,0,2.58-.45,3.24.09,1.35,1.12,3.52,3.4,3.17,4.1-2.29,4.45-2.89,9.89-7.6,13.06-1.77,1.2-3.13,1.56-5.1.82s-3-1.9-2.68-4.13c.42-3.22-.92-6.42.74-9.77C717.08,54.08,719.79,53.2,723.46,53.64Z"/><path class="cls-1" d="M660.48,52.31c.24-2.28.5-4.55.69-6.83.23-2.74,1.88-3.54,4.34-3.2,3.82.52,5.88,3.43,5.42,7.35-.26,2.21-.35,4.45-.39,6.68s-.61,3.48-3.12,2.68a4.74,4.74,0,0,0-1-.24C661.1,58.28,660.43,57.54,660.48,52.31Z"/><path class="cls-1" d="M731.37,93.2c1-1.54,1.91-4.18,3.15-4.37,2.24-.34,4.85-3,7.15,0a4.7,4.7,0,0,0,1.37.86c2.78,1.65,3.25,3.78,1.5,6.4a6.47,6.47,0,0,0-1,2.35c-.56,3-2.25,4.18-5.18,3.39C734.94,101,732,97.08,731.37,93.2Z"/><path class="cls-1" d="M736.8,24.87c-2.92,1.52-5.68,3.06-8.54,4.41s-5.67.12-7.94-1.63c-3-2.27-2-5.64,2.64-7.44a20.58,20.58,0,0,1,8.73-1.11C734.59,19.31,736.48,21.39,736.8,24.87Z"/><path class="cls-1" d="M655.11,97.58c-5.24-4.26-6-12-1.1-15.57,1.76-1.3,5.25-.51,7.88-.18.41,0,.72,2.77.67,4.25C662.36,91.26,658.63,94.29,655.11,97.58Z"/><path class="cls-1" d="M726,124.83c.06-.21.05.79-.34,1-3.25,1.47-6.48,3.33-9.92,4-2.6.51-3.24-2.56-3.12-4.46a14.43,14.43,0,0,1,2.2-6c1.81-3.09,4.78-2.13,7.48-1.5C725.63,118.58,726.11,121.17,726,124.83Z"/><path class="cls-1" d="M694.53,54.51a9.45,9.45,0,0,1,2.21,1.83A17.3,17.3,0,0,1,699,61.07a5.2,5.2,0,0,1-.85,3.25c-.44.82-1.54,1.3-2,2.12-1.83,3.25-4.27,1.36-6.16.46-.8-.38-1.11-2.54-1-3.85.2-3.07-.12-6.59,4.11-7.6A6,6,0,0,0,694.53,54.51Z"/><path class="cls-1" d="M698.49,109.78c-.15,4-2.84,6.53-6,6.35a4.57,4.57,0,0,1-4.28-4.57c.2-3.08,3.78-6,7.24-5.91C699.11,105.75,698.28,108.49,698.49,109.78Z"/><path class="cls-1" d="M730,213c-3.85-4.06-7.54-7.94-11.2-11.84-2.06-2.19-3-4.65-1.58-7.57a3.51,3.51,0,0,0,.19-.63c.42-1.85-1-4.35,1.76-5.4,4.2-1.58,8.76-3.55,12.5.09,1.68,1.62,2.06,4.91,2.35,7.52a71.24,71.24,0,0,1,0,9.91c0,1.76.32,3.6-1.89,4.71C731.25,210.24,730.84,211.69,730,213Z"/><path class="cls-1" d="M776.15,226.14a11.5,11.5,0,0,1,2.6,2.9,89.32,89.32,0,0,1,3.25,8.48c.53,1.5,1.77,3.58,1.21,4.46a45,45,0,0,1-7,8.34c-1.08,1-3,.88-4.22-1-2.14-3.11-4.67-6-6.91-9a5.46,5.46,0,0,1-.85-2.73C763.9,232.89,770.34,226.13,776.15,226.14Z"/><path class="cls-1" d="M722.86,267.94c-1.23-1.07-2.54-2.37-4-3.48a10.59,10.59,0,0,1-3.7-11.73c1.05-2.94,3.55-3.37,6.13-3.5a32,32,0,0,1,7.83.14c1.94.38,3.72,1.75,5.46,2.85,2.37,1.53,1.78,3.31.43,5.32-.56.83-.19,2.24-.58,3.26s-1,2.4-1.87,2.86C729.51,265.23,726.29,266.46,722.86,267.94Z"/><path class="cls-1" d="M651.11,266.77c3.17-.83,5.55.84,7,2.86,1.72,2.4,2.56,5.44,3.68,8.24.48,1.18.32,2.81,1.1,3.62,2.45,2.54,1.3,4.85-.34,6.86-.63.77-2.63,1.1-3.72.75-6.85-2.15-10.73-7.05-12.62-13.84-.81-2.89-1.82-5.53,1.71-7.25C648.93,267.51,650,267.18,651.11,266.77Z"/><path class="cls-1" d="M696.56,248.85c-4.21,2-9.62-1.49-9.61-7.2,0-3.11,1.31-6.22,2-9.32a37,37,0,0,1,1-4c1.71-4.63,3.17-7.76,10.4-6.79,1.9,6.69-1.43,12.75-2.33,19.1C697.7,243.31,697.11,245.92,696.56,248.85Z"/><path class="cls-1" d="M692.5,189.54c-1.23,2.66-2.22,5.2-3.59,7.52a4.23,4.23,0,0,1-2.9,1.67c-3.49.36-7,.47-10.52.55-2.93.07-6.18-5-5-7.61,3.56-7.7,12.65-9.54,19.74-4C691,188.2,691.61,188.78,692.5,189.54Z"/><path class="cls-1" d="M639.47,260.62c-5.2,1.83-10.16-.46-12-5.88-.59-1.76-2.5-3.92-2-5.05a26.52,26.52,0,0,1,6.24-8.85c1.35-1.16,4.74-.81,6.77,0,1.16.46,2,3.13,2,4.84.08,2.48-.8,5-1,7.49C639.32,255.48,639.47,257.83,639.47,260.62Z"/><path class="cls-1" d="M785.25,182.8c1.29,5.28,2.38,9.39,3.22,13.55.16.78-.59,1.82-1.06,2.65-3,5.17-9.25,5.69-13.52,1.73-2.94-2.73-2.81-5-.71-7.84,1.69-2.27,3-4.95,5.06-6.79C779.93,184.59,782.5,184,785.25,182.8Z"/><path class="cls-1" d="M656.56,215.65A112.24,112.24,0,0,1,662,205.11c1.37-2.13,7.33-2,9.18-.19.49.48,1.05,1.46.87,1.94-1.62,4.12-3.28,8.22-5.18,12.21-.69,1.46-6.5,2.77-7.74,1.62S657.51,217.65,656.56,215.65Z"/><path class="cls-1" d="M764.05,209.66c-1.34,2-2.31,3.34-3.17,4.74-2.1,3.39-5.36,4.26-9,2.37-2.56-1.33-3.73-4.77-2.69-7.85,1.75-5.16,4.51-7.13,9-5.19C760.64,204.78,762.23,207.72,764.05,209.66Z"/><path class="cls-1" d="M649,195.36c-10.09-1.49-11.86-2.09-12-12.47,2.85-2.42,5.2-.23,7.33,1.1C648.41,186.53,648.66,190.83,649,195.36Z"/><path class="cls-1" d="M754.71,262.29c4.57.3,8.26,3.09,7.69,6.31-.46,2.53-3,5-5.24,6.68-.56.4-4-2.33-5.43-4.16-1-1.32-1.69-3.9-1.07-5.25C751.45,264.15,753.71,263.11,754.71,262.29Z"/><path class="cls-1" d="M772.67,171.66c-3.75,4.59-5.42,9.71-10.34,11.79a9.14,9.14,0,0,1-5.36.28c-.57-.14-1-2.47-.86-3.74.35-3.8,1-7.57,1.56-11.35a1.85,1.85,0,0,1,.65-1.07,85.88,85.88,0,0,1,7.71-6c2.24-1.41,4-.34,4.72,2.34S772.13,169.47,772.67,171.66Z"/><path class="cls-1" d="M755.06,125.79c1.1,0,2.58-.45,3.24.09,1.35,1.12,3.52,3.4,3.17,4.09-2.29,4.45-2.89,9.89-7.59,13.06-1.78,1.2-3.14,1.55-5.11.82s-3-1.9-2.68-4.13c.42-3.22-.92-6.42.75-9.77C748.68,126.23,751.39,125.35,755.06,125.79Z"/><path class="cls-1" d="M715.87,150.52c5.44,1.85,7.33,8.09,3.54,12.45-1.08,1.23-1.87,2.72-3,3.86-.91.9-2.76,2.28-3.19,2a22.83,22.83,0,0,1-5.89-5.39c-.55-.78.42-3.13,1.3-4.32C710.81,156.14,713.37,153.43,715.87,150.52Z"/><path class="cls-1" d="M627.17,144.8c1-1.53,1.9-4.17,3.15-4.36,2.23-.34,4.84-3,7.14,0,.3.4.91.57,1.38.85,2.77,1.65,3.24,3.78,1.5,6.4a6.3,6.3,0,0,0-1,2.36c-.56,3-2.25,4.17-5.18,3.38C630.73,152.55,627.74,148.68,627.17,144.8Z"/><path class="cls-1" d="M651.45,158.87a9.37,9.37,0,0,1,2.2,1.84,17,17,0,0,1,2.27,4.73,5.17,5.17,0,0,1-.84,3.24c-.44.83-1.54,1.31-2,2.13-1.83,3.24-4.27,1.35-6.17.46-.8-.38-1.11-2.54-1-3.85.2-3.07-.12-6.59,4.11-7.61A6.07,6.07,0,0,0,651.45,158.87Z"/><path class="cls-1" d="M642.67,492.25c1.71,2.53,3.83,4.7,3.14,7.87-.12.51-1,1.3-1.43,1.22a40,40,0,0,1-6-1.6c-2.73-1-3.53-2.78-3-6.14,0-.31.37-.68.28-.89-.59-1.27-.35-2.27,1-2.67a3.74,3.74,0,0,1,4,1A9.15,9.15,0,0,0,642.67,492.25Z"/><path class="cls-1" d="M623.74,343c1.71,2.53,3.83,4.7,3.14,7.87-.11.51-1,1.3-1.42,1.22a41,41,0,0,1-6-1.6c-2.73-1-3.52-2.78-3-6.15.05-.3.36-.68.27-.88-.59-1.28-.35-2.27,1-2.67a3.72,3.72,0,0,1,4,1A9.35,9.35,0,0,0,623.74,343Z"/><path class="cls-1" d="M670.34,524.09c1.71,2.53,3.83,4.7,3.14,7.87-.11.52-1,1.3-1.42,1.23a39.8,39.8,0,0,1-6-1.61c-2.73-1-3.52-2.77-3-6.14.06-.31.37-.68.28-.89-.59-1.27-.35-2.27,1-2.67a3.74,3.74,0,0,1,4,1A9,9,0,0,0,670.34,524.09Z"/><path class="cls-1" d="M694.46,556.65c-2.12,2.21-3.79,4.74-7,4.73-.52,0-1.48-.72-1.49-1.13a40,40,0,0,1,.3-6.19c.38-2.87,2-4,5.39-4.18.31,0,.74.21.92.08,1.13-.85,2.15-.82,2.83.43a3.73,3.73,0,0,1-.13,4.1A8.89,8.89,0,0,0,694.46,556.65Z"/><path class="cls-1" d="M623.1,396.14c-1.13,2.72-2.2,5.46-3.39,8.16-.65,1.49-1.63,2.33-3.5,1.66-4.11-1.44-5.24-4.4-3-8.45,1.39-2.55,2.8-5.1,4.26-7.61.25-.44,1-1.09,1.21-1,1.82.8,3.85,1.47,5.2,2.8.59.59-.24,2.62-.43,4a2.51,2.51,0,0,1-.18.5Z"/><path class="cls-1" d="M440.87,305.9,436.6,309c.32,3.27.8,6.35.85,9.43,0,2.66-1.77,4.84-4.2,4.67-2.73-.18-6.08,1.11-8.24-1.86-.87-1.2-2.57-2.71-2.32-3.68,1.19-4.6-1.21-7.93-3.26-11.46a3.47,3.47,0,0,1-.7-1.78c.54-4.84,1.57-9.51,5.88-12.58a4.2,4.2,0,0,1,2-.68c7.77-.53,11.08,2.25,12.24,9.92C439.13,302.58,440.09,304,440.87,305.9Z"/><path class="cls-1" d="M559.88,365.16c-3.9,2.18-7.27,3.6-10,5.76-2.14,1.66-3.52,4.3-5.31,6.44-.68.81-1.51,1.87-2.42,2.05-5.91,1.19-10.37-.19-12.62-5.48-1.41-3.3-.68-7.64-.35-11.47.09-1,2.32-1.74,3.55-2.64,3.46-2.51,6.85-5.18,11.4-5.36.44,0,1-.28,1.28-.08,3.8,3.26,9.77,3.53,12.1,8.84C557.72,363.82,558.58,364.15,559.88,365.16Z"/><path class="cls-1" d="M602.37,376c-.22,2.93-.47,5.87-.61,8.8a4.36,4.36,0,0,0,.45,2.06c1.34,2.78.14,5.42-3.57,7.7-2.58,1.58-6.65.88-8.07-1.43a56.37,56.37,0,0,1-3.38-5.87c-1.13-2.49-1.37-4.91.75-7.31a31.5,31.5,0,0,0,5.09-7.3c1.48-3.16,3.88-2.26,5.87-1.68A4.41,4.41,0,0,1,602.37,376Z"/><path class="cls-1" d="M462.39,325.18c6.19.11,7.79,1,9.27,6.61a112.49,112.49,0,0,1,2.1,13c.26,1.8-.53,2.59-2.48,2.41a38.44,38.44,0,0,0-5.25.13c-3.82.2-5.79-1.24-6.26-5.05-.56-4.5-.74-9-1.3-13.54C458,325.11,459.7,324.44,462.39,325.18Z"/><path class="cls-1" d="M523.93,347.76c-7.87-.81-11.13-5.41-9.16-13.77.38-1.59.41-3.26.74-4.86.9-4.27,3-5.74,6.71-3.81a31.38,31.38,0,0,1,8,6.5c2.09,2.25.65,8-1.92,10.52A63.44,63.44,0,0,0,523.93,347.76Z"/><path class="cls-1" d="M492.55,378.81c-2.56-.57-4.42-1.08-6.31-1.37-.92-.15-1.9.25-2.84.17-1.7-.13-3.9.13-4.94-.81a5.85,5.85,0,0,1-1.48-4.87c1.38-5.54,10.41-11,16.13-10.24.93.12,1.89,1.54,2.48,2.56,1.18,2,1.91,4.31,3.19,6.24,1.52,2.27,1.31,3.45-1,4.75A55.66,55.66,0,0,0,492.55,378.81Z"/><path class="cls-1" d="M449.28,378.31c-2.86.17-5.83.49-8.79.41-.73,0-1.62-1.21-2.1-2.05-1.3-2.28-2.28-4.75-3.64-7s-.6-4.37,2-5.32c1.45-.54,2.6-1.85,4-2.45a17.24,17.24,0,0,1,5.89-1.66c.91,0,2.13,1.54,2.77,2.65C452.29,367.93,451.34,373,449.28,378.31Z"/><path class="cls-1" d="M444.94,383.89c.11,0,.26-.05.33,0,3.41,2.78,6.9-.17,10.29.19a8.7,8.7,0,0,1,4.91,2.31c1.55,1.59,1.4,3.64-.36,5.46-2,2-3.65,4.32-5.52,6.44a2.63,2.63,0,0,1-1.59.93,12.4,12.4,0,0,1-12.65-9.34C439.44,386.39,441.42,383.81,444.94,383.89Z"/><path class="cls-1" d="M565,301.82c0-3.51,0-7,0-10.52,0-1.79.85-2.32,2.76-2.26,5.84.18,6.83,1,9.88,8.56,1.35,3.32,1.21,5.88-2.06,7.88-.81.49-1.29,1.7-2.12,2-2,.64-4.15,1.42-6.07,1.1-.92-.15-1.58-2.61-2.12-4.11a8.1,8.1,0,0,1,0-2.61Z"/><path class="cls-1" d="M609.66,318.5c.2,3.7.46,7.4.57,11.11.07,2.05-.59,3.53-3.08,3.79-5.45.59-8.34-2.17-8-8,.19-3.65.41-7.31.7-10.95.06-.64.54-1.78.85-1.79,2.5-.07,5.17-.42,7.42.37,1,.34,1.16,3.1,1.69,4.77a3.52,3.52,0,0,1,.06.66Z"/><path class="cls-1" d="M576,335c3.58-.12,7.07,1.87,7.07,5.2,0,2.26-1.92,4.79-3.57,6.69s-4,3-6,4.57c-1.48,1.19-2.52,1.12-3.4-.63a51.42,51.42,0,0,1-3.11-6.21c-.34-1,.26-2.5.72-3.66C569.64,336.34,571.35,335.16,576,335Z"/><path class="cls-1" d="M496.59,302.17a7.7,7.7,0,0,1-11.35-6.36c-.12-1.64-.61-3.26-.6-4.89,0-1.28.33-3.57.83-3.67a23.2,23.2,0,0,1,8-.33c.95.16,1.93,2.52,2.15,4C496.16,294.59,496.29,298.33,496.59,302.17Z"/><path class="cls-1" d="M579.93,404.71c6-1.72,9.64,1.67,12.13,6.38.8,1.53,4.06,3.14,1.32,5.56-2.52,2.22-8.18,2-10.1-.08C580.25,413.25,578.19,409.66,579.93,404.71Z"/><path class="cls-1" d="M439.85,415.67c-1.52-.13-2.29-.21-3.05-.26-6.5-.42-8.49-3.54-5.47-9.13.51-.95,2.87-1.59,4.13-1.31,2.18.5,6,7.17,5.61,9.33C441,415,440,415.47,439.85,415.67Z"/><path class="cls-1" d="M514.26,518.19c-2.95.17-6.32.4-9.7.54a2.18,2.18,0,0,1-1.64-.57c-1.85-2.41-3.56-4.92-5.37-7.36a6.19,6.19,0,0,0-2.06-2.1c-3.31-1.44-4.06-4.07-2.83-7a39.36,39.36,0,0,1,5.18-9.1c2.7-3.43,7.1-2.15,8.76,2.07.95,2.42,2.46,4.63,3.37,7.07,1.17,3.16,2.1,6.43,3,9.69C513.53,513.71,513.85,516.05,514.26,518.19Z"/><path class="cls-1" d="M517.18,570c-4.85-4.51-6.57-10.42-6.93-16.91-.05-.77.06-1.56,0-2.33-.48-5.74,3.14-9.1,9-8.31,2,.27,3.35.75,3.87,3.33a100.54,100.54,0,0,0,4,13c.36,1,1.44,1.8,2.11,2.75.48.69,1.33,1.74,1.11,2.17-.54,1.07-1.87,2.79-2.41,2.64C523.4,565,520.88,568.84,517.18,570Z"/><path class="cls-1" d="M601.29,548.17c.38,3,1,7.21,1.35,11.4a3.44,3.44,0,0,1-1.62,2.62c-2.63,1.39-9.17.35-10.56-2.25-2.9-5.43-7.48-10.44-6.44-17.26.31-2.06,1.76-4,2.88-5.85.22-.36,1.37-.43,2-.26,2.2.61,4.33,1.47,6.54,2.08C600.23,540,601.58,541.84,601.29,548.17Z"/><path class="cls-1" d="M562.85,495.26c-6.2-6.18-11.92-11.29-10.69-20.15.19-1.37-.1-2.86.27-4.16.48-1.71,1.75-2.39,3.73-2.42a15.5,15.5,0,0,0,5.3-1.46c4.29-1.71,6.51-.15,6,4.39a1.64,1.64,0,0,0,.1.65,21.76,21.76,0,0,1-1.42,16.32C565.23,490.46,564.23,492.45,562.85,495.26Z"/><path class="cls-1" d="M474.76,472.58c-4.94.62-9.85,1.42-14.79,1.76-2,.14-4.67.65-5.68-2.42-.47-1.46-1.53-2.71.49-3.84a2,2,0,0,0,.83-1.68c-1.31-4,2-5.74,4-7.71,2.48-2.46,7-2.32,10.12.45C473.12,462.2,476,469.1,474.76,472.58Z"/><path class="cls-1" d="M561.55,519.25c-.37,5.31.2,10.55-4.14,14.16-.7.58-2.79.68-3.26.15a72.32,72.32,0,0,1-6.48-8.61c-2.7-4.26-1.85-7.6,2.53-11.6.4-.37,1.24-.54,1.33-.92.56-2.38,2-3.49,4.25-2.58a6.52,6.52,0,0,1,4.4,5.63A14.93,14.93,0,0,0,561.55,519.25Z"/><path class="cls-1" d="M617.39,514.79a78.39,78.39,0,0,1,.28,8.65,4.7,4.7,0,0,1-2.07,3.44c-1.78.83-3.93.88-5.94,1.21-2.71.44-3-1.9-4.07-3.5-3.4-5.29-3-10.75,1.2-15.63a2.67,2.67,0,0,1,1.71-.73,17.64,17.64,0,0,1,3.56.08C617.52,509,617.52,509,617.39,514.79Z"/><path class="cls-1" d="M471.27,524.59c.23,3.59.46,7.26.69,10.93.06,1-.28,2.36.24,2.9,3.45,3.58.23,3.44-2.06,4.18a52.05,52.05,0,0,0-5.85,2.78c-3.31-3-5-7.24-5.57-11.86a16.23,16.23,0,0,1,.93-7.84c.54-1.26,3.15-2.09,4.9-2.27S468.43,524,471.27,524.59Z"/><path class="cls-1" d="M585.33,491.5c2.14-3.31.25-8.56,5.23-11.12,2.82-1.45,5-.35,7.09.9,2.41,1.46,4.15,3.73,3.62,6.9-.71,4.24-1.92,8.16-6.88,9.28-.42.1-.79.46-1.2.53-1.76.3-3.23,3.72-5.24.71a26.78,26.78,0,0,1-2.22-5.23A13.31,13.31,0,0,1,585.33,491.5Z"/><path class="cls-1" d="M449,510c-4.44-1.21-6.67-3.89-8.47-7-1.29-2.23-2.47-4.54-3.56-6.89-1.47-3.17,1.09-10.15,4.18-11.64s6.84,1.88,7.1,6,1,8.21,1.25,12.33A54.59,54.59,0,0,1,449,510Z"/><path class="cls-1" d="M486.38,434c4.88.14,7.75,3,8.15,7.08a15.33,15.33,0,0,0,.93,4.81c1.27,2.77-.7,4.23-2.34,4.95-2.05.91-4.56.83-6.89,1-.35,0-1-.67-1.12-1.14-1.34-4.89-3.35-9.79-.7-14.83A7.06,7.06,0,0,1,486.38,434Z"/><path class="cls-1" d="M520.05,470.61c.19-2.32.31-4.56.58-6.79.06-.43.63-.89,1.07-1.16,4.1-2.52,8.39-4.36,13.37-3.4,2.17.42,2.83,2.36,1.81,4.91-.65,1.63-1.06,3.38-1.84,4.94a2.87,2.87,0,0,1-2.07,1.34c-2.72.08-5.45-.17-8.17-.18C523.21,470.27,521.61,470.49,520.05,470.61Z"/><path class="cls-1" d="M586.54,460.27c-.06.79-.14,1.77-.23,2.75-.38,4-1.22,4.7-5.21,4.42-6.12-.44-6.12-.44-7.18-7-.77-4.8-.77-4.77,4.16-5a16.11,16.11,0,0,0,2.19-.58C585.49,453.91,586.44,454.7,586.54,460.27Z"/><path class="cls-1" d="M455.62,445.89c-2.56-.57-4.42-1.08-6.31-1.37-.92-.14-1.91.25-2.84.18-1.71-.14-3.9.13-5-.82A5.85,5.85,0,0,1,440,439c1.39-5.53,10.42-11,16.14-10.24.93.12,1.88,1.54,2.48,2.57,1.18,2,1.9,4.31,3.19,6.23,1.52,2.28,1.31,3.45-1,4.75A57.65,57.65,0,0,0,455.62,445.89Z"/><path class="cls-1" d="M510,397c3.17-.83,5.54.85,7,2.88,1.71,2.41,2.56,5.46,3.68,8.28.47,1.18.31,2.83,1.09,3.64,2.45,2.55,1.3,4.88-.34,6.9-.63.78-2.62,1.1-3.71.75-6.85-2.16-10.72-7.09-12.61-13.91-.82-2.91-1.82-5.56,1.7-7.29C507.77,397.78,508.88,397.44,510,397Z"/><path class="cls-1" d="M547.72,424.38c3.57-.54,6.79,3.25,5.51,7.5-.7,2.32-2.36,4.34-3.6,6.49a24.77,24.77,0,0,1-1.63,2.72c-2.29,3.08-4.07,5.09-9.21,2.76.09-5.41,3.91-9.18,6-13.71C545.64,428.25,546.66,426.44,547.72,424.38Z"/><path class="cls-1" d="M612.44,443c-1.34,2-2.31,3.36-3.17,4.77-2.1,3.41-5.35,4.29-9,2.39-2.56-1.35-3.73-4.8-2.69-7.9,1.75-5.19,4.51-7.18,9-5.22C609,438.1,610.62,441.06,612.44,443Z"/><path class="cls-1" d="M468.71,410.11c4.57.3,8.26,3.11,7.68,6.35-.45,2.54-3,5.07-5.23,6.71-.56.41-4-2.34-5.43-4.18-1-1.33-1.69-3.92-1.07-5.28C465.46,412,467.72,410.93,468.71,410.11Z"/><path class="cls-1" d="M704.35,309.06c-2.34,3-5,6.44-7.62,9.87-1.77,2.32-8,4.63-10.43,3.25-1.21-.69-2-2.73-2.25-4.29a26,26,0,0,1-.24-7.15,5.67,5.67,0,0,1,2-3.35c2.63-2.13,5.53-3.93,8.23-6s4.53-1.4,6,1.43A63.83,63.83,0,0,0,704.35,309.06Z"/><path class="cls-1" d="M783.05,382.87c-3.58,2.56-2,6.73-2,10.5,0,1.86-.53,2.4-2.3,2.79-4.6,1-9.18-2.63-11.16-6.63-1.29-2.62-3-4.86-1.82-8.26,1.66-5,7.56-8.59,12.5-6.83a5,5,0,0,1,2.38,2.41A64.37,64.37,0,0,1,783.05,382.87Z"/><path class="cls-1" d="M665,401.92c7.08-.7,10.2,1.83,12.1,7.53,1.11,3.32,1.35,6.33.08,9.47a9.06,9.06,0,0,1-2.1,3.27c-4.48,4.09-9.21,2.73-10.56-3.41a82.66,82.66,0,0,1-1.39-14.34C663.1,403.43,664.65,402.37,665,401.92Z"/><path class="cls-1" d="M771.5,344.37c-1.69,5.67-1.25,11-5,14.84a9.13,9.13,0,0,1-4.84,2.3c-.58.1-1.86-1.89-2.24-3.11-1.15-3.65-2-7.37-3-11.08a1.92,1.92,0,0,1,.19-1.24,86.66,86.66,0,0,1,4.81-8.46c1.52-2.16,3.59-1.85,5.26.36S770.15,342.55,771.5,344.37Z"/><path class="cls-1" d="M623.25,280.38c2.63,2.14,5.25,4.26,7.86,6.4,2.31,1.9,3.26,8.67,1.65,11.24-.73,1.17-1.3,2.44-2,3.63a2.22,2.22,0,0,1-.89.88c-4.32,2.07-11.24-1.86-11.77-6.65C617.29,288.53,618.16,286,623.25,280.38Z"/><path class="cls-1" d="M723.46,332.9c1.1,0,2.58-.45,3.24.09,1.35,1.12,3.52,3.4,3.17,4.09-2.29,4.46-2.89,9.89-7.6,13.07-1.77,1.2-3.13,1.55-5.1.82s-3-1.91-2.68-4.13c.42-3.23-.92-6.43.74-9.78C717.08,333.34,719.79,332.46,723.46,332.9Z"/><path class="cls-1" d="M660.48,331.56c.24-2.27.5-4.55.69-6.83.23-2.73,1.88-3.53,4.34-3.2,3.82.52,5.88,3.44,5.42,7.36-.26,2.21-.35,4.45-.39,6.68s-.61,3.47-3.12,2.68a4.74,4.74,0,0,0-1-.24C661.1,337.53,660.43,336.79,660.48,331.56Z"/><path class="cls-1" d="M731.37,372.45c1-1.53,1.91-4.17,3.15-4.36,2.24-.34,4.85-3,7.15,0A4.48,4.48,0,0,0,743,369c2.78,1.65,3.25,3.79,1.5,6.4a6.59,6.59,0,0,0-1,2.36c-.56,3-2.25,4.17-5.18,3.38C734.94,380.21,732,376.33,731.37,372.45Z"/><path class="cls-1" d="M736.8,304.13c-2.92,1.51-5.68,3.06-8.54,4.4s-5.67.13-7.94-1.62c-3-2.27-2-5.64,2.64-7.44a20.42,20.42,0,0,1,8.73-1.11C734.59,298.56,736.48,300.65,736.8,304.13Z"/><path class="cls-1" d="M655.11,376.84c-5.24-4.26-6-11.95-1.1-15.57,1.76-1.3,5.25-.52,7.88-.19.41.05.72,2.78.67,4.25C662.36,370.51,658.63,373.54,655.11,376.84Z"/><path class="cls-1" d="M726,404.09c.06-.21.05.78-.34,1-3.25,1.48-6.48,3.33-9.92,4-2.6.5-3.24-2.57-3.12-4.46a14.38,14.38,0,0,1,2.2-6c1.81-3.1,4.78-2.13,7.48-1.51C725.63,397.84,726.11,400.42,726,404.09Z"/><path class="cls-1" d="M694.53,333.76a9.47,9.47,0,0,1,2.21,1.84,17,17,0,0,1,2.27,4.73,5.18,5.18,0,0,1-.85,3.24c-.44.83-1.54,1.31-2,2.13-1.83,3.24-4.27,1.35-6.16.46-.8-.38-1.11-2.54-1-3.85.2-3.07-.12-6.59,4.11-7.6A5.79,5.79,0,0,0,694.53,333.76Z"/><path class="cls-1" d="M698.49,389c-.15,4-2.84,6.52-6,6.34a4.56,4.56,0,0,1-4.28-4.57c.2-3.07,3.78-6,7.24-5.9C699.11,385,698.28,387.75,698.49,389Z"/><path class="cls-1" d="M730,492.25c-3.85-4.06-7.54-7.94-11.2-11.85-2.06-2.19-3-4.65-1.58-7.57a3.19,3.19,0,0,0,.19-.62c.42-1.86-1-4.35,1.76-5.4,4.2-1.58,8.76-3.55,12.5.08,1.68,1.63,2.06,4.92,2.35,7.52a71.24,71.24,0,0,1,0,9.91c0,1.76.32,3.61-1.89,4.72C731.25,489.5,730.84,491,730,492.25Z"/><path class="cls-1" d="M776.15,505.39a11.86,11.86,0,0,1,2.6,2.9,89.51,89.51,0,0,1,3.25,8.49c.53,1.49,1.77,3.57,1.21,4.45a44.38,44.38,0,0,1-7,8.34c-1.08,1-3,.89-4.22-1-2.14-3.1-4.67-5.94-6.91-9a5.42,5.42,0,0,1-.85-2.72C763.9,512.14,770.34,505.39,776.15,505.39Z"/><path class="cls-1" d="M722.86,547.2c-1.23-1.08-2.54-2.38-4-3.48a10.59,10.59,0,0,1-3.7-11.73c1.05-2.94,3.55-3.38,6.13-3.51a32.48,32.48,0,0,1,7.83.15c1.94.38,3.72,1.74,5.46,2.85,2.37,1.53,1.78,3.3.43,5.31-.56.84-.19,2.24-.58,3.27s-1,2.4-1.87,2.86C729.51,544.48,726.29,545.72,722.86,547.2Z"/><path class="cls-1" d="M651.11,546c3.17-.83,5.55.84,7,2.86,1.72,2.4,2.56,5.44,3.68,8.24.48,1.17.32,2.81,1.1,3.62,2.45,2.53,1.3,4.85-.34,6.86-.63.77-2.63,1.09-3.72.75-6.85-2.15-10.73-7.05-12.62-13.84-.81-2.89-1.82-5.53,1.71-7.25C648.93,546.77,650,546.44,651.11,546Z"/><path class="cls-1" d="M696.56,528.11c-4.21,2-9.62-1.49-9.61-7.21,0-3.11,1.31-6.21,2-9.32a37.46,37.46,0,0,1,1-3.95c1.71-4.63,3.17-7.77,10.4-6.79,1.9,6.68-1.43,12.74-2.33,19.09C697.7,522.57,697.11,525.18,696.56,528.11Z"/><path class="cls-1" d="M692.5,468.79c-1.23,2.66-2.22,5.21-3.59,7.53A4.23,4.23,0,0,1,686,478c-3.49.36-7,.47-10.52.55-2.93.07-6.18-5-5-7.61,3.56-7.7,12.65-9.55,19.74-4C691,467.46,691.61,468,692.5,468.79Z"/><path class="cls-1" d="M639.47,539.88c-5.2,1.83-10.16-.46-12-5.88-.59-1.76-2.5-3.93-2-5a26.56,26.56,0,0,1,6.24-8.86c1.35-1.15,4.74-.8,6.77,0,1.16.45,2,3.13,2,4.84.08,2.48-.8,5-1,7.49C639.32,534.73,639.47,537.09,639.47,539.88Z"/><path class="cls-1" d="M785.25,462.05c1.29,5.29,2.38,9.4,3.22,13.56.16.78-.59,1.81-1.06,2.64-3,5.17-9.25,5.7-13.52,1.74-2.94-2.73-2.81-5-.71-7.84,1.69-2.28,3-4.95,5.06-6.79C779.93,463.84,782.5,463.29,785.25,462.05Z"/><path class="cls-1" d="M656.56,494.9A114.75,114.75,0,0,1,662,484.36c1.37-2.13,7.33-2,9.18-.19.49.48,1.05,1.47.87,1.95-1.62,4.11-3.28,8.22-5.18,12.21-.69,1.46-6.5,2.77-7.74,1.62S657.51,496.9,656.56,494.9Z"/><path class="cls-1" d="M764.05,488.92c-1.34,2-2.31,3.34-3.17,4.74-2.1,3.38-5.36,4.26-9,2.37-2.56-1.34-3.73-4.77-2.69-7.85,1.75-5.16,4.51-7.13,9-5.19C760.64,484,762.23,487,764.05,488.92Z"/><path class="cls-1" d="M649,474.62c-10.09-1.49-11.86-2.1-12-12.47,2.85-2.42,5.2-.24,7.33,1.1C648.41,465.79,648.66,470.09,649,474.62Z"/><path class="cls-1" d="M754.71,541.55c4.57.3,8.26,3.09,7.69,6.31-.46,2.53-3,5-5.24,6.67-.56.41-4-2.32-5.43-4.16-1-1.31-1.69-3.89-1.07-5.24C751.45,543.41,753.71,542.36,754.71,541.55Z"/><path class="cls-1" d="M772.67,450.92c-3.75,4.59-5.42,9.7-10.34,11.79A9.14,9.14,0,0,1,757,463c-.57-.13-1-2.46-.86-3.73.35-3.8,1-7.58,1.56-11.36a1.91,1.91,0,0,1,.65-1.07,89.72,89.72,0,0,1,7.71-6c2.24-1.41,4-.33,4.72,2.35S772.13,448.72,772.67,450.92Z"/><path class="cls-1" d="M755.06,405c1.1,0,2.58-.44,3.24.1,1.35,1.12,3.52,3.4,3.17,4.09-2.29,4.45-2.89,9.89-7.59,13.06-1.78,1.2-3.14,1.55-5.11.82s-3-1.91-2.68-4.13c.42-3.22-.92-6.42.75-9.77C748.68,405.49,751.39,404.6,755.06,405Z"/><path class="cls-1" d="M715.87,429.77c5.44,1.85,7.33,8.1,3.54,12.45-1.08,1.24-1.87,2.73-3,3.87-.91.89-2.76,2.28-3.19,2a22.83,22.83,0,0,1-5.89-5.39c-.55-.78.42-3.13,1.3-4.32C710.81,435.4,713.37,432.69,715.87,429.77Z"/><path class="cls-1" d="M627.17,424.06c1-1.54,1.9-4.17,3.15-4.37,2.23-.34,4.84-3,7.14.05.3.4.91.57,1.38.85,2.77,1.65,3.24,3.78,1.5,6.4a6.33,6.33,0,0,0-1,2.35c-.56,3-2.25,4.18-5.18,3.39C630.73,431.81,627.74,427.94,627.17,424.06Z"/><path class="cls-1" d="M651.45,438.13a9.59,9.59,0,0,1,2.2,1.83,17.3,17.3,0,0,1,2.27,4.73,5.18,5.18,0,0,1-.84,3.25c-.44.82-1.54,1.3-2,2.13-1.83,3.24-4.27,1.35-6.17.45-.8-.38-1.11-2.53-1-3.85.2-3.06-.12-6.59,4.11-7.6A6.4,6.4,0,0,0,651.45,438.13Z"/><path class="cls-1" d="M642.67,771.51c1.71,2.53,3.83,4.7,3.14,7.87-.12.51-1,1.3-1.43,1.22a41.2,41.2,0,0,1-6-1.6c-2.73-1-3.53-2.78-3-6.15,0-.3.37-.68.28-.88-.59-1.28-.35-2.27,1-2.68a3.76,3.76,0,0,1,4,1A9.15,9.15,0,0,0,642.67,771.51Z"/><path class="cls-1" d="M623.74,622.26c1.71,2.54,3.83,4.71,3.14,7.88-.11.51-1,1.29-1.42,1.22a41,41,0,0,1-6-1.6c-2.73-1-3.52-2.78-3-6.15.05-.31.36-.68.27-.89-.59-1.27-.35-2.26,1-2.67a3.76,3.76,0,0,1,4,1A8.58,8.58,0,0,0,623.74,622.26Z"/><path class="cls-1" d="M670.34,803.35c1.71,2.53,3.83,4.7,3.14,7.87-.11.51-1,1.3-1.42,1.22a39.76,39.76,0,0,1-6-1.6c-2.73-1-3.52-2.78-3-6.15.06-.3.37-.67.28-.88-.59-1.28-.35-2.27,1-2.67a3.74,3.74,0,0,1,4,1A9.35,9.35,0,0,0,670.34,803.35Z"/><path class="cls-1" d="M694.46,835.91c-2.12,2.21-3.79,4.73-7,4.73-.52,0-1.48-.73-1.49-1.14a39.92,39.92,0,0,1,.3-6.18c.38-2.88,2-4,5.39-4.19.31,0,.74.22.92.08,1.13-.84,2.15-.81,2.83.44a3.71,3.71,0,0,1-.13,4.09A9,9,0,0,0,694.46,835.91Z"/><path class="cls-1" d="M623.1,675.4c-1.13,2.72-2.2,5.46-3.39,8.16-.65,1.49-1.63,2.32-3.5,1.66-4.11-1.44-5.24-4.41-3-8.46,1.39-2.55,2.8-5.09,4.26-7.6.25-.44,1-1.09,1.21-1,1.82.8,3.85,1.46,5.2,2.8.59.58-.24,2.62-.43,4a2.22,2.22,0,0,1-.18.49Z"/><path class="cls-1" d="M440.87,585.16l-4.27,3.13c.32,3.27.8,6.35.85,9.44,0,2.66-1.77,4.83-4.2,4.67-2.73-.18-6.08,1.1-8.24-1.87-.87-1.2-2.57-2.7-2.32-3.67,1.19-4.6-1.21-7.93-3.26-11.47a3.44,3.44,0,0,1-.7-1.77c.54-4.84,1.57-9.51,5.88-12.59a4.19,4.19,0,0,1,2-.67c7.77-.53,11.08,2.25,12.24,9.91C439.13,581.84,440.09,583.3,440.87,585.16Z"/><path class="cls-1" d="M559.88,644.42c-3.9,2.18-7.27,3.59-10,5.76-2.14,1.66-3.52,4.3-5.31,6.43-.68.81-1.51,1.87-2.42,2.06-5.91,1.19-10.37-.19-12.62-5.49-1.41-3.3-.68-7.64-.35-11.46.09-1,2.32-1.75,3.55-2.64,3.46-2.51,6.85-5.18,11.4-5.37.44,0,1-.27,1.28-.08,3.8,3.26,9.77,3.54,12.1,8.85C557.72,643.08,558.58,643.41,559.88,644.42Z"/><path class="cls-1" d="M602.37,655.29c-.22,2.93-.47,5.86-.61,8.8a4.36,4.36,0,0,0,.45,2.06c1.34,2.78.14,5.42-3.57,7.69-2.58,1.59-6.65.89-8.07-1.42a55.5,55.5,0,0,1-3.38-5.88c-1.13-2.48-1.37-4.91.75-7.3a31.5,31.5,0,0,0,5.09-7.3c1.48-3.17,3.88-2.27,5.87-1.68S602.73,652.5,602.37,655.29Z"/><path class="cls-1" d="M462.39,604.43c6.19.11,7.79,1,9.27,6.62a112.14,112.14,0,0,1,2.1,13c.26,1.8-.53,2.59-2.48,2.41a36.9,36.9,0,0,0-5.25.13c-3.82.2-5.79-1.24-6.26-5.05-.56-4.5-.74-9-1.3-13.54C458,604.37,459.7,603.7,462.39,604.43Z"/><path class="cls-1" d="M523.93,627c-7.87-.8-11.13-5.4-9.16-13.76.38-1.59.41-3.26.74-4.86.9-4.27,3-5.75,6.71-3.81a31.38,31.38,0,0,1,8,6.5c2.09,2.25.65,8-1.92,10.51A66.77,66.77,0,0,0,523.93,627Z"/><path class="cls-1" d="M492.55,658.06c-2.56-.57-4.42-1.08-6.31-1.37-.92-.14-1.9.25-2.84.18-1.7-.13-3.9.13-4.94-.81a5.86,5.86,0,0,1-1.48-4.87c1.38-5.54,10.41-11,16.13-10.25.93.12,1.89,1.54,2.48,2.57,1.18,2,1.91,4.31,3.19,6.24,1.52,2.27,1.31,3.45-1,4.74A59.8,59.8,0,0,0,492.55,658.06Z"/><path class="cls-1" d="M449.28,657.57c-2.86.16-5.83.48-8.79.41-.73,0-1.62-1.21-2.1-2.05-1.3-2.28-2.28-4.75-3.64-7s-.6-4.38,2-5.32c1.45-.54,2.6-1.85,4-2.46a17.22,17.22,0,0,1,5.89-1.65c.91,0,2.13,1.54,2.77,2.64C452.29,647.19,451.34,652.28,449.28,657.57Z"/><path class="cls-1" d="M444.94,663.14c.11,0,.26,0,.33,0,3.41,2.77,6.9-.17,10.29.19a8.57,8.57,0,0,1,4.91,2.31c1.55,1.59,1.4,3.63-.36,5.46-2,2-3.65,4.32-5.52,6.44a2.68,2.68,0,0,1-1.59.93,12.41,12.41,0,0,1-12.65-9.34C439.44,665.65,441.42,663.07,444.94,663.14Z"/><path class="cls-1" d="M565,581.08c0-3.51,0-7,0-10.53,0-1.79.85-2.31,2.76-2.25,5.84.17,6.83,1,9.88,8.55,1.35,3.33,1.21,5.89-2.06,7.88-.81.5-1.29,1.7-2.12,2-2,.64-4.15,1.42-6.07,1.1-.92-.15-1.58-2.61-2.12-4.11a8.11,8.11,0,0,1,0-2.61Z"/><path class="cls-1" d="M609.66,597.75c.2,3.71.46,7.41.57,11.11.07,2-.59,3.53-3.08,3.8-5.45.58-8.34-2.17-8-8,.19-3.65.41-7.31.7-11,.06-.64.54-1.77.85-1.78,2.5-.08,5.17-.42,7.42.36,1,.35,1.16,3.11,1.69,4.77a3.63,3.63,0,0,1,.06.67Z"/><path class="cls-1" d="M576,614.26c3.58-.12,7.07,1.88,7.07,5.21,0,2.25-1.92,4.79-3.57,6.69s-4,3-6,4.56c-1.48,1.2-2.52,1.12-3.4-.62a51.42,51.42,0,0,1-3.11-6.21c-.34-1,.26-2.5.72-3.66C569.64,615.6,571.35,614.42,576,614.26Z"/><path class="cls-1" d="M496.59,581.42a7.69,7.69,0,0,1-11.35-6.35c-.12-1.64-.61-3.26-.6-4.89,0-1.28.33-3.58.83-3.67a22.72,22.72,0,0,1,8-.33c.95.16,1.93,2.52,2.15,4C496.16,573.85,496.29,577.59,496.59,581.42Z"/><path class="cls-1" d="M579.93,684c6-1.71,9.64,1.67,12.13,6.39.8,1.53,4.06,3.14,1.32,5.55-2.52,2.22-8.18,2-10.1-.08C580.25,692.51,578.19,688.92,579.93,684Z"/><path class="cls-1" d="M439.85,694.93c-1.52-.13-2.29-.21-3.05-.26-6.5-.43-8.49-3.54-5.47-9.13.51-.95,2.87-1.6,4.13-1.31,2.18.49,6,7.17,5.61,9.32C441,694.21,440,694.73,439.85,694.93Z"/><path class="cls-1" d="M514.26,797.44c-2.95.18-6.32.41-9.7.55a2.19,2.19,0,0,1-1.64-.58c-1.85-2.4-3.56-4.92-5.37-7.35a6.1,6.1,0,0,0-2.06-2.1c-3.31-1.45-4.06-4.08-2.83-7a39.15,39.15,0,0,1,5.18-9.1c2.7-3.43,7.1-2.15,8.76,2.06.95,2.43,2.46,4.64,3.37,7.08,1.17,3.16,2.1,6.42,3,9.69C513.53,793,513.85,795.31,514.26,797.44Z"/><path class="cls-1" d="M517.18,849.27c-4.85-4.51-6.57-10.43-6.93-16.91-.05-.77.06-1.56,0-2.33-.48-5.74,3.14-9.1,9-8.32,2,.28,3.35.76,3.87,3.34a101,101,0,0,0,4,13c.36,1,1.44,1.8,2.11,2.75.48.68,1.33,1.74,1.11,2.17-.54,1.06-1.87,2.79-2.41,2.63C523.4,844.27,520.88,848.09,517.18,849.27Z"/><path class="cls-1" d="M601.29,827.43c.38,3,1,7.2,1.35,11.39a3.44,3.44,0,0,1-1.62,2.62c-2.63,1.4-9.17.36-10.56-2.24-2.9-5.43-7.48-10.44-6.44-17.26.31-2.06,1.76-4,2.88-5.85.22-.37,1.37-.43,2-.26,2.2.61,4.33,1.46,6.54,2.08C600.23,819.25,601.58,821.1,601.29,827.43Z"/><path class="cls-1" d="M562.85,774.52c-6.2-6.19-11.92-11.29-10.69-20.15.19-1.38-.1-2.86.27-4.16.48-1.71,1.75-2.39,3.73-2.42a15.5,15.5,0,0,0,5.3-1.46c4.29-1.71,6.51-.15,6,4.39a1.64,1.64,0,0,0,.1.65,21.77,21.77,0,0,1-1.42,16.32C565.23,769.71,564.23,771.71,562.85,774.52Z"/><path class="cls-1" d="M474.76,751.84c-4.94.61-9.85,1.41-14.79,1.75-2,.14-4.67.66-5.68-2.42-.47-1.45-1.53-2.71.49-3.83a2,2,0,0,0,.83-1.68c-1.31-4,2-5.74,4-7.71,2.48-2.46,7-2.32,10.12.45C473.12,741.46,476,748.36,474.76,751.84Z"/><path class="cls-1" d="M561.55,798.51c-.37,5.3.2,10.55-4.14,14.16-.7.58-2.79.68-3.26.15a71.62,71.62,0,0,1-6.48-8.62c-2.7-4.26-1.85-7.59,2.53-11.6.4-.36,1.24-.53,1.33-.92.56-2.38,2-3.48,4.25-2.57a6.52,6.52,0,0,1,4.4,5.62A15,15,0,0,0,561.55,798.51Z"/><path class="cls-1" d="M617.39,794a78.47,78.47,0,0,1,.28,8.65,4.72,4.72,0,0,1-2.07,3.45c-1.78.83-3.93.88-5.94,1.2-2.71.44-3-1.9-4.07-3.49-3.4-5.29-3-10.76,1.2-15.63a2.68,2.68,0,0,1,1.71-.74,18.41,18.41,0,0,1,3.56.09C617.52,788.27,617.52,788.29,617.39,794Z"/><path class="cls-1" d="M471.27,803.85c.23,3.59.46,7.26.69,10.93.06,1-.28,2.35.24,2.89,3.45,3.59.23,3.45-2.06,4.19a51.82,51.82,0,0,0-5.85,2.77c-3.31-3-5-7.23-5.57-11.85a16.2,16.2,0,0,1,.93-7.84c.54-1.27,3.15-2.1,4.9-2.27S468.43,803.3,471.27,803.85Z"/><path class="cls-1" d="M585.33,770.75c2.14-3.3.25-8.56,5.23-11.11,2.82-1.45,5-.36,7.09.89,2.41,1.46,4.15,3.73,3.62,6.91-.71,4.24-1.92,8.16-6.88,9.28-.42.09-.79.46-1.2.53-1.76.3-3.23,3.72-5.24.71a27,27,0,0,1-2.22-5.23A13.22,13.22,0,0,1,585.33,770.75Z"/><path class="cls-1" d="M449,789.23c-4.44-1.22-6.67-3.89-8.47-7-1.29-2.23-2.47-4.55-3.56-6.89-1.47-3.17,1.09-10.15,4.18-11.65s6.84,1.88,7.1,6,1,8.22,1.25,12.34A54.59,54.59,0,0,1,449,789.23Z"/><path class="cls-1" d="M486.38,713.21c4.88.14,7.75,3,8.15,7.09a15.27,15.27,0,0,0,.93,4.8c1.27,2.77-.7,4.24-2.34,5-2.05.91-4.56.83-6.89,1-.35,0-1-.67-1.12-1.14-1.34-4.89-3.35-9.79-.7-14.83A7.27,7.27,0,0,1,486.38,713.21Z"/><path class="cls-1" d="M520.05,749.87c.19-2.32.31-4.57.58-6.79.06-.43.63-.9,1.07-1.17,4.1-2.51,8.39-4.35,13.37-3.39,2.17.42,2.83,2.35,1.81,4.91-.65,1.63-1.06,3.38-1.84,4.93a2.86,2.86,0,0,1-2.07,1.35c-2.72.07-5.45-.18-8.17-.18C523.21,749.52,521.61,749.75,520.05,749.87Z"/><path class="cls-1" d="M586.54,739.52c-.06.8-.14,1.78-.23,2.75-.38,4-1.22,4.7-5.21,4.42-6.12-.43-6.12-.43-7.18-7-.77-4.8-.77-4.78,4.16-5a16.11,16.11,0,0,0,2.19-.58C585.49,733.16,586.44,734,586.54,739.52Z"/><path class="cls-1" d="M455.62,725.15c-2.56-.57-4.42-1.08-6.31-1.37-.92-.14-1.91.25-2.84.17-1.71-.13-3.9.14-5-.81a5.85,5.85,0,0,1-1.48-4.87c1.39-5.54,10.42-11,16.14-10.24.93.12,1.88,1.54,2.48,2.56,1.18,2,1.9,4.31,3.19,6.24,1.52,2.27,1.31,3.45-1,4.75A57.65,57.65,0,0,0,455.62,725.15Z"/><path class="cls-1" d="M510,676.29c3.17-.84,5.54.85,7,2.88,1.71,2.41,2.56,5.46,3.68,8.28.47,1.18.31,2.83,1.09,3.64,2.45,2.55,1.3,4.87-.34,6.89-.63.78-2.62,1.11-3.71.76-6.85-2.16-10.72-7.09-12.61-13.91-.82-2.91-1.82-5.57,1.7-7.29C507.77,677,508.88,676.7,510,676.29Z"/><path class="cls-1" d="M547.72,703.64c3.57-.54,6.79,3.25,5.51,7.5-.7,2.31-2.36,4.34-3.6,6.49a24.77,24.77,0,0,1-1.63,2.72c-2.29,3.08-4.07,5.09-9.21,2.75.09-5.4,3.91-9.18,6-13.71C545.64,707.51,546.66,705.7,547.72,703.64Z"/><path class="cls-1" d="M612.44,722.27c-1.34,2-2.31,3.36-3.17,4.77-2.1,3.4-5.35,4.29-9,2.38-2.56-1.34-3.73-4.8-2.69-7.9,1.75-5.19,4.51-7.17,9-5.21C609,717.35,610.62,720.32,612.44,722.27Z"/><path class="cls-1" d="M468.71,689.36c4.57.31,8.26,3.11,7.68,6.35-.45,2.55-3,5.08-5.23,6.71-.56.41-4-2.34-5.43-4.18-1-1.32-1.69-3.91-1.07-5.27C465.46,691.24,467.72,690.19,468.71,689.36Z"/><path class="cls-1" d="M704.35,588.32c-2.34,3-5,6.44-7.62,9.87-1.77,2.31-8,4.62-10.43,3.25-1.21-.69-2-2.74-2.25-4.29a26,26,0,0,1-.24-7.15,5.64,5.64,0,0,1,2-3.35c2.63-2.13,5.53-3.93,8.23-6s4.53-1.39,6,1.44A63.83,63.83,0,0,0,704.35,588.32Z"/><path class="cls-1" d="M783.05,662.13c-3.58,2.55-2,6.73-2,10.5,0,1.86-.53,2.4-2.3,2.79-4.6,1-9.18-2.63-11.16-6.63-1.29-2.63-3-4.87-1.82-8.27,1.66-4.95,7.56-8.58,12.5-6.83a5,5,0,0,1,2.38,2.42A63.29,63.29,0,0,1,783.05,662.13Z"/><path class="cls-1" d="M665,681.17c7.08-.69,10.2,1.84,12.1,7.54,1.11,3.32,1.35,6.33.08,9.46a9.1,9.1,0,0,1-2.1,3.28c-4.48,4.09-9.21,2.72-10.56-3.41a82.77,82.77,0,0,1-1.39-14.35C663.1,682.69,664.65,681.62,665,681.17Z"/><path class="cls-1" d="M771.5,623.62c-1.69,5.68-1.25,11-5,14.85a9.13,9.13,0,0,1-4.84,2.3c-.58.1-1.86-1.9-2.24-3.11-1.15-3.65-2-7.38-3-11.09a1.89,1.89,0,0,1,.19-1.23,86.66,86.66,0,0,1,4.81-8.46c1.52-2.16,3.59-1.85,5.26.36S770.15,621.81,771.5,623.62Z"/><path class="cls-1" d="M623.25,559.64c2.63,2.14,5.25,4.26,7.86,6.4,2.31,1.9,3.26,8.67,1.65,11.23-.73,1.17-1.3,2.44-2,3.64a2.22,2.22,0,0,1-.89.88c-4.32,2.07-11.24-1.86-11.77-6.66C617.29,567.79,618.16,565.24,623.25,559.64Z"/><path class="cls-1" d="M723.46,612.15c1.1,0,2.58-.44,3.24.1,1.35,1.12,3.52,3.4,3.17,4.09-2.29,4.45-2.89,9.89-7.6,13.07-1.77,1.2-3.13,1.55-5.1.81s-3-1.9-2.68-4.13c.42-3.22-.92-6.42.74-9.77C717.08,612.6,719.79,611.71,723.46,612.15Z"/><path class="cls-1" d="M660.48,610.82c.24-2.28.5-4.55.69-6.83.23-2.73,1.88-3.53,4.34-3.2,3.82.52,5.88,3.44,5.42,7.35-.26,2.22-.35,4.45-.39,6.68s-.61,3.48-3.12,2.69a4.17,4.17,0,0,0-1-.24C661.1,616.79,660.43,616.05,660.48,610.82Z"/><path class="cls-1" d="M731.37,651.71c1-1.54,1.91-4.17,3.15-4.36,2.24-.35,4.85-3,7.15,0,.3.4.91.57,1.37.85,2.78,1.65,3.25,3.78,1.5,6.4a6.45,6.45,0,0,0-1,2.36c-.56,3-2.25,4.17-5.18,3.38C734.94,659.46,732,655.59,731.37,651.71Z"/><path class="cls-1" d="M736.8,583.38c-2.92,1.52-5.68,3.07-8.54,4.41s-5.67.13-7.94-1.62c-3-2.27-2-5.65,2.64-7.44a20.58,20.58,0,0,1,8.73-1.12C734.59,577.82,736.48,579.9,736.8,583.38Z"/><path class="cls-1" d="M655.11,656.1c-5.24-4.26-6-12-1.1-15.58,1.76-1.3,5.25-.51,7.88-.18.41,0,.72,2.78.67,4.25C662.36,649.77,658.63,652.8,655.11,656.1Z"/><path class="cls-1" d="M726,683.34c.06-.21.05.79-.34,1-3.25,1.48-6.48,3.33-9.92,4-2.6.51-3.24-2.56-3.12-4.45a14.42,14.42,0,0,1,2.2-6c1.81-3.09,4.78-2.12,7.48-1.5C725.63,677.1,726.11,679.68,726,683.34Z"/><path class="cls-1" d="M694.53,613a9.23,9.23,0,0,1,2.21,1.84,17,17,0,0,1,2.27,4.73,5.18,5.18,0,0,1-.85,3.24c-.44.83-1.54,1.3-2,2.13-1.83,3.24-4.27,1.35-6.16.46-.8-.38-1.11-2.54-1-3.85.2-3.07-.12-6.59,4.11-7.61A6,6,0,0,0,694.53,613Z"/><path class="cls-1" d="M698.49,668.3c-.15,4.05-2.84,6.52-6,6.34a4.57,4.57,0,0,1-4.28-4.57c.2-3.08,3.78-6,7.24-5.9C699.11,664.26,698.28,667,698.49,668.3Z"/><path class="cls-1" d="M730,771.51c-3.85-4.07-7.54-8-11.2-11.85-2.06-2.19-3-4.65-1.58-7.57a3.08,3.08,0,0,0,.19-.63c.42-1.85-1-4.34,1.76-5.39,4.2-1.59,8.76-3.56,12.5.08,1.68,1.63,2.06,4.91,2.35,7.52a71.24,71.24,0,0,1,0,9.91c0,1.76.32,3.61-1.89,4.72C731.25,768.76,730.84,770.21,730,771.51Z"/><path class="cls-1" d="M776.15,784.65a11.86,11.86,0,0,1,2.6,2.9A89.51,89.51,0,0,1,782,796c.53,1.49,1.77,3.57,1.21,4.45a44.7,44.7,0,0,1-7,8.34c-1.08,1-3,.88-4.22-1-2.14-3.1-4.67-5.94-6.91-9a5.42,5.42,0,0,1-.85-2.72C763.9,791.4,770.34,784.65,776.15,784.65Z"/><path class="cls-1" d="M722.86,826.46c-1.23-1.08-2.54-2.38-4-3.49a10.57,10.57,0,0,1-3.7-11.72c1.05-2.94,3.55-3.38,6.13-3.51a32.49,32.49,0,0,1,7.83.14c1.94.39,3.72,1.75,5.46,2.86,2.37,1.52,1.78,3.3.43,5.31-.56.84-.19,2.24-.58,3.26s-1,2.4-1.87,2.87C729.51,823.74,726.29,825,722.86,826.46Z"/><path class="cls-1" d="M651.11,825.28c3.17-.83,5.55.85,7,2.87,1.72,2.4,2.56,5.43,3.68,8.23.48,1.18.32,2.82,1.1,3.62,2.45,2.54,1.3,4.86-.34,6.86-.63.78-2.63,1.1-3.72.76-6.85-2.16-10.73-7.06-12.62-13.84-.81-2.89-1.82-5.54,1.71-7.26C648.93,826,650,825.7,651.11,825.28Z"/><path class="cls-1" d="M696.56,807.36c-4.21,2-9.62-1.49-9.61-7.2,0-3.11,1.31-6.22,2-9.32a37.46,37.46,0,0,1,1-4c1.71-4.64,3.17-7.77,10.4-6.8,1.9,6.69-1.43,12.75-2.33,19.1C697.7,801.83,697.11,804.43,696.56,807.36Z"/><path class="cls-1" d="M692.5,748.05c-1.23,2.66-2.22,5.2-3.59,7.53a4.27,4.27,0,0,1-2.9,1.67c-3.49.35-7,.47-10.52.55-2.93.07-6.18-5-5-7.62,3.56-7.69,12.65-9.54,19.74-4C691,746.72,691.61,747.3,692.5,748.05Z"/><path class="cls-1" d="M639.47,819.13c-5.2,1.84-10.16-.46-12-5.88-.59-1.76-2.5-3.92-2-5a26.52,26.52,0,0,1,6.24-8.85c1.35-1.16,4.74-.8,6.77,0,1.16.45,2,3.13,2,4.83.08,2.48-.8,5-1,7.49C639.32,814,639.47,816.34,639.47,819.13Z"/><path class="cls-1" d="M785.25,741.31c1.29,5.28,2.38,9.39,3.22,13.56.16.78-.59,1.81-1.06,2.64-3,5.17-9.25,5.7-13.52,1.73-2.94-2.72-2.81-5-.71-7.84,1.69-2.27,3-4.94,5.06-6.78C779.93,743.1,782.5,742.55,785.25,741.31Z"/><path class="cls-1" d="M656.56,774.16A113.48,113.48,0,0,1,662,763.62c1.37-2.13,7.33-2,9.18-.19.49.48,1.05,1.47.87,1.94-1.62,4.12-3.28,8.23-5.18,12.22-.69,1.45-6.5,2.77-7.74,1.62S657.51,776.16,656.56,774.16Z"/><path class="cls-1" d="M764.05,768.17c-1.34,2-2.31,3.34-3.17,4.75-2.1,3.38-5.36,4.26-9,2.37-2.56-1.34-3.73-4.78-2.69-7.86,1.75-5.16,4.51-7.13,9-5.19C760.64,763.29,762.23,766.23,764.05,768.17Z"/><path class="cls-1" d="M649,753.87c-10.09-1.48-11.86-2.09-12-12.46,2.85-2.42,5.2-.24,7.33,1.1C648.41,745,648.66,749.35,649,753.87Z"/><path class="cls-1" d="M754.71,820.8c4.57.3,8.26,3.09,7.69,6.31-.46,2.54-3,5-5.24,6.68-.56.41-4-2.33-5.43-4.16-1-1.32-1.69-3.89-1.07-5.25C751.45,822.67,753.71,821.62,754.71,820.8Z"/><path class="cls-1" d="M772.67,730.17c-3.75,4.59-5.42,9.71-10.34,11.8a9.14,9.14,0,0,1-5.36.27c-.57-.13-1-2.46-.86-3.73.35-3.8,1-7.58,1.56-11.36a1.88,1.88,0,0,1,.65-1.07,87.76,87.76,0,0,1,7.71-6c2.24-1.41,4-.34,4.72,2.34S772.13,728,772.67,730.17Z"/><path class="cls-1" d="M755.06,684.3c1.1,0,2.58-.45,3.24.09,1.35,1.12,3.52,3.4,3.17,4.1-2.29,4.45-2.89,9.88-7.59,13.06-1.78,1.19-3.14,1.55-5.11.81s-3-1.9-2.68-4.13c.42-3.22-.92-6.42.75-9.76C748.68,684.74,751.39,683.86,755.06,684.3Z"/><path class="cls-1" d="M715.87,709c5.44,1.85,7.33,8.1,3.54,12.45-1.08,1.24-1.87,2.73-3,3.86-.91.9-2.76,2.29-3.19,2A22.79,22.79,0,0,1,707.3,722c-.55-.79.42-3.14,1.3-4.32C710.81,714.66,713.37,711.94,715.87,709Z"/><path class="cls-1" d="M627.17,703.32c1-1.54,1.9-4.18,3.15-4.37,2.23-.34,4.84-3,7.14,0a4.63,4.63,0,0,0,1.38.86c2.77,1.65,3.24,3.78,1.5,6.39a6.44,6.44,0,0,0-1,2.36c-.56,3-2.25,4.17-5.18,3.38C630.73,711.06,627.74,707.19,627.17,703.32Z"/><path class="cls-1" d="M651.45,717.38a9.61,9.61,0,0,1,2.2,1.84,17.3,17.3,0,0,1,2.27,4.73,5.16,5.16,0,0,1-.84,3.24c-.44.83-1.54,1.31-2,2.13-1.83,3.25-4.27,1.35-6.17.46-.8-.38-1.11-2.54-1-3.85.2-3.07-.12-6.59,4.11-7.6A6.17,6.17,0,0,0,651.45,717.38Z"/></svg>