<svg id="Capa_1" data-name="Capa 1" xmlns="http://www.w3.org/2000/svg" viewBox="0 0 850.39 850.39"><defs><style>.cls-1{fill:#1d1d1b;}</style></defs><path class="cls-1" d="M395.21,349.3c5.36-4.66,6-12.82,2.3-20.11,8,1.76,15.72-1,18.86-7.36,4-8.05-1-18.56-10.79-24.1-11.91-6.75-44.32.14-45.77,2s-.22,35.49,9.34,45.27C377,353.07,388.44,355.19,395.21,349.3Z"/><path class="cls-1" d="M254,115c-1.84-6.86-8.88-11-17.07-10.87,5.08-6.43,6-14.56,1.64-20.17-5.5-7.09-17.13-7.23-26.39-.86-11.28,7.75-19.29,39.9-18.22,42s31.8,15.74,44.79,11.43C249.46,133.06,256.37,123.71,254,115Z"/><path class="cls-1" d="M245.38,499.05c-4.43-5.55-12.55-6.57-20-3.14,2.09-7.92-.33-15.74-6.56-19.14-7.88-4.3-18.6.23-24.54,9.76-7.24,11.61-1.72,44.28.1,45.82s35.45,1.71,45.63-7.44C248.38,517.4,251,506.06,245.38,499.05Z"/><path class="cls-1" d="M460.25,604.41c7-1.21,11.81-7.83,12.4-16,5.93,5.65,14,7.32,19.94,3.5,7.56-4.83,8.77-16.4,3.29-26.21-6.68-11.94-37.95-22.88-40.18-22s-18.6,30.22-15.51,43.55C442.73,598.18,451.41,605.93,460.25,604.41Z"/><path class="cls-1" d="M530,120.94c-6.85,1.91-11,9-10.72,17.17-6.48-5-14.62-5.87-20.19-1.46-7,5.56-7.07,17.19-.63,26.4,7.85,11.21,40.07,18.93,42.2,17.85s15.46-32,11-44.9C548.08,125.37,538.66,118.54,530,120.94Z"/><path class="cls-1" d="M590,407c5,5,13.2,5.15,20.22.93-1.21,8.11,2.05,15.62,8.62,18.32,8.3,3.41,18.45-2.26,23.32-12.39C648,401.49,639,369.62,637,368.3s-35.43,2.18-44.55,12.38C585,389.06,583.63,400.61,590,407Z"/><path class="cls-1" d="M792.34,533.52c-2.48,6.66.82,14.15,7.59,18.77-7.87,2.28-13.34,8.37-13,15.47.36,9,9.75,15.83,21,16,13.68.24,38.87-21.29,39.24-23.64s-16.75-31.29-29.83-35.32C806.54,521.52,795.48,525.12,792.34,533.52Z"/><path class="cls-1" d="M277.53,750.86c4.9,5.14,13.08,5.46,20.19,1.4-1.39,8.07,1.69,15.65,8.2,18.5,8.22,3.6,18.5-1.83,23.6-11.85,6.21-12.19-2.12-44.26-4.07-45.63s-35.46,1.36-44.81,11.35C273,732.83,271.35,744.36,277.53,750.86Z"/><path class="cls-1" d="M83.81,344.42c6.55,2.76,14.17-.22,19.07-6.79,2,8,7.8,13.68,14.91,13.69,9,0,16.22-9.08,16.89-20.3.81-13.66-19.64-39.73-22-40.2s-32,15.43-36.54,28.32C72.41,329.73,75.54,340.93,83.81,344.42Z"/><path class="cls-1" d="M611,714.21c-5.58,4.41-6.64,12.52-3.26,20-7.91-2.13-15.74.23-19.18,6.45-4.35,7.85.12,18.59,9.62,24.59,11.57,7.31,44.27,2,45.81.17s1.92-35.44-7.16-45.68C629.34,711.32,618,708.66,611,714.21Z"/><path class="cls-1" d="M41.58,700.29c5.1-4.94,5.34-13.12,1.22-20.2,8.08,1.32,15.64-1.83,18.43-8.36,3.53-8.25-2-18.49-12.06-23.5-12.24-6.09-44.24,2.51-45.59,4.47s1.67,35.46,11.75,44.72C23.6,705,35.13,706.53,41.58,700.29Z"/><path class="cls-1" d="M792.55,178.11c-6.81-2-14.06,1.77-18.21,8.84-2.81-7.7-9.25-12.74-16.32-12-8.92,1-15.13,10.8-14.57,22,.69,13.66,23.86,37.34,26.24,37.55s30.08-18.83,33.22-32.14C805.49,191.47,801.15,180.67,792.55,178.11Z"/></svg>