<svg xmlns="http://www.w3.org/2000/svg" viewBox="0 0 850.39 850.39"><g id="Capa_2" data-name="Capa 2"><path d="M81.61,171.82l0,9.13h0a.5.5,0,0,0,.49.5.51.51,0,0,0,.51-.5h0l0-9.13h0a.5.5,0,0,0-.5-.5.5.5,0,0,0-.5.5Z"/><path d="M84.65,182.4c-.13-.21-.32-.4-.5-.67s-.52-.45-.81-.69a7.37,7.37,0,0,1-.86-1.06c-.7-.83-1.33.92-1.86,1.25a2,2,0,0,0-1,1c-.06.15-.33,1.65-.13,1.66a1,1,0,0,0,.82-.22,3.66,3.66,0,0,1,.83-.47c.06.2.54,1,.8,1.06.61.19,1-.72,1.27-1,.18.37.77,1,1.21.89C84.42,183.49,85,183,84.65,182.4Z"/><path d="M82.24,175.39a3.26,3.26,0,0,0,1.32,3.07c.44.29,1,.83,1.53.74a3.25,3.25,0,0,0-1-2.21,10.85,10.85,0,0,0-1.12-.74C82.88,176.14,82.23,175.54,82.24,175.39Z"/><path d="M81.8,175.85a3.24,3.24,0,0,1-1.32,3.07c-.44.29-1,.83-1.53.74a3.28,3.28,0,0,1,1-2.22c.33-.3.77-.47,1.12-.74C81.17,176.6,81.81,176,81.8,175.85Z"/><path d="M5.35,73l0,9.13h0a.5.5,0,0,0,1,0h0l0-9.14h0a.51.51,0,0,0-.5-.5.5.5,0,0,0-.5.5Z"/><path d="M8.39,83.54c-.14-.21-.32-.4-.5-.67a3.38,3.38,0,0,0-.82-.69,8.05,8.05,0,0,1-.85-1.06c-.71-.83-1.33.93-1.87,1.26a2,2,0,0,0-1,1C3.31,83.52,3,85,3.24,85a1.05,1.05,0,0,0,.82-.23,4.54,4.54,0,0,1,.82-.47c.06.21.55,1,.81,1.07.61.18.95-.72,1.27-1.06.17.37.76,1,1.21.89C8.16,84.63,8.76,84.12,8.39,83.54Z"/><path d="M6,76.54A3.23,3.23,0,0,0,7.3,79.6c.44.3,1,.84,1.53.74a3.27,3.27,0,0,0-1-2.21c-.33-.31-.77-.47-1.12-.74C6.61,77.29,6,76.68,6,76.54Z"/><path d="M5.54,77a3.24,3.24,0,0,1-1.32,3.07c-.44.29-.95.83-1.53.74a3.23,3.23,0,0,1,1-2.21,10.85,10.85,0,0,1,1.12-.74C4.9,77.74,5.55,77.14,5.54,77Z"/><path d="M235.13,184.29l0-9.14h0a.5.5,0,0,0-1,0h0l0,9.13h0a.5.5,0,0,0,1,0Z"/><path d="M237.17,173.71c-.13.21-.32.4-.5.67a3.33,3.33,0,0,1-.81.69,7.31,7.31,0,0,0-.85,1.06c-.71.83-1.34-.93-1.87-1.26a2,2,0,0,1-1-1c-.06-.16-.32-1.66-.13-1.67a1,1,0,0,1,.82.23,4.62,4.62,0,0,0,.83.47c.06-.21.54-1,.8-1.07.61-.18,1,.72,1.27,1.06.18-.37.77-1,1.21-.89C236.94,172.62,237.54,173.13,237.17,173.71Z"/><path d="M234.76,180.71a3.27,3.27,0,0,1,1.32-3.06c.45-.3,1-.84,1.53-.74a3.31,3.31,0,0,1-1,2.21,12.2,12.2,0,0,1-1.13.74C235.4,180,234.75,180.57,234.76,180.71Z"/><path d="M234.32,180.26a3.24,3.24,0,0,0-1.32-3.07c-.44-.29-.95-.83-1.53-.74a3.34,3.34,0,0,0,1,2.21c.33.31.77.47,1.12.74C233.69,179.51,234.33,180.11,234.32,180.26Z"/><path d="M158.87,85.43l0-9.13h0a.51.51,0,0,0-.5-.5.5.5,0,0,0-.5.5h0l0,9.13h0a.5.5,0,0,0,.5.5.5.5,0,0,0,.5-.5Z"/><path d="M160.91,74.85c-.13.21-.32.4-.5.67s-.52.45-.81.69a6.7,6.7,0,0,0-.85,1.06c-.71.83-1.34-.93-1.87-1.25a2,2,0,0,1-1-1c-.06-.15-.32-1.65-.13-1.66a1,1,0,0,1,.82.22,3.66,3.66,0,0,0,.83.47c.06-.2.54-1,.8-1.06.61-.19.95.72,1.27,1.05.18-.37.77-1,1.21-.89C160.68,73.76,161.28,74.27,160.91,74.85Z"/><path d="M158.5,81.86a3.26,3.26,0,0,1,1.32-3.07c.45-.29,1-.83,1.53-.74a3.25,3.25,0,0,1-1,2.21,10.85,10.85,0,0,1-1.12.74C159.14,81.1,158.49,81.71,158.5,81.86Z"/><path d="M158.06,81.4a3.24,3.24,0,0,0-1.32-3.07c-.44-.29-1-.83-1.53-.74a3.28,3.28,0,0,0,1,2.22c.33.3.77.47,1.12.74C157.43,80.65,158.07,81.25,158.06,81.4Z"/><path d="M386.66,171.82l-.05,9.13h0a.5.5,0,0,0,.5.5.5.5,0,0,0,.5-.5h0l0-9.13h0a.5.5,0,1,0-1,0Z"/><path d="M389.69,182.4c-.13-.21-.31-.4-.49-.67a3.17,3.17,0,0,0-.82-.69,8.05,8.05,0,0,1-.85-1.06c-.71-.83-1.34.92-1.87,1.25a2,2,0,0,0-1,1c-.07.15-.33,1.65-.14,1.66a1,1,0,0,0,.83-.22,3.6,3.6,0,0,1,.82-.47c.06.2.55,1,.81,1.06.6.19.95-.72,1.27-1,.17.37.76,1,1.2.89C389.46,183.49,390.06,183,389.69,182.4Z"/><path d="M387.29,175.39a3.24,3.24,0,0,0,1.32,3.07c.44.29.95.83,1.53.74a3.3,3.3,0,0,0-1-2.21c-.33-.31-.77-.47-1.12-.74C387.92,176.14,387.28,175.54,387.29,175.39Z"/><path d="M386.85,175.85a3.29,3.29,0,0,1-1.32,3.07c-.45.29-1,.83-1.53.74a3.31,3.31,0,0,1,.95-2.22c.33-.3.77-.47,1.13-.74C386.21,176.6,386.86,176,386.85,175.85Z"/><path d="M310.39,73l0,9.13h0a.5.5,0,0,0,1,0h0l0-9.14h0a.5.5,0,0,0-.5-.5.51.51,0,0,0-.5.5Z"/><path d="M313.43,83.54c-.13-.21-.31-.4-.49-.67a3.58,3.58,0,0,0-.82-.69,8.05,8.05,0,0,1-.85-1.06c-.71-.83-1.34.93-1.87,1.26a2,2,0,0,0-1,1c-.07.15-.33,1.66-.14,1.67a1.06,1.06,0,0,0,.83-.23,4.23,4.23,0,0,1,.82-.47,2.63,2.63,0,0,0,.8,1.07c.61.18,1-.72,1.27-1.06.18.37.77,1,1.21.89C313.2,84.63,313.8,84.12,313.43,83.54Z"/><path d="M311,76.54a3.27,3.27,0,0,0,1.32,3.06c.45.3,1,.84,1.53.74a3.31,3.31,0,0,0-.95-2.21,12.2,12.2,0,0,0-1.13-.74C311.66,77.29,311,76.68,311,76.54Z"/><path d="M310.58,77a3.25,3.25,0,0,1-1.31,3.07c-.45.29-1,.83-1.54.74a3.32,3.32,0,0,1,1-2.21c.33-.31.77-.47,1.12-.74C310,77.74,310.59,77.14,310.58,77Z"/><path d="M540.17,184.29l0-9.14h0a.5.5,0,1,0-1,0h0l0,9.13h0a.5.5,0,1,0,1,0Z"/><path d="M542.22,173.71c-.14.21-.32.4-.5.67a3.38,3.38,0,0,1-.82.69,8.05,8.05,0,0,0-.85,1.06c-.71.83-1.33-.93-1.87-1.26a2,2,0,0,1-1-1c-.06-.16-.33-1.66-.13-1.67a1.05,1.05,0,0,1,.82.23,4.54,4.54,0,0,0,.82.47c.06-.21.55-1,.81-1.07.61-.18,1,.72,1.27,1.06.17-.37.76-1,1.21-.89C542,172.62,542.59,173.13,542.22,173.71Z"/><path d="M539.81,180.71a3.23,3.23,0,0,1,1.32-3.06c.44-.3,1-.84,1.53-.74a3.27,3.27,0,0,1-1,2.21c-.33.31-.77.47-1.12.74C540.44,180,539.8,180.57,539.81,180.71Z"/><path d="M539.37,180.26a3.26,3.26,0,0,0-1.32-3.07c-.44-.29-.95-.83-1.53-.74a3.25,3.25,0,0,0,1,2.21,10.85,10.85,0,0,0,1.12.74C538.73,179.51,539.38,180.11,539.37,180.26Z"/><path d="M463.91,85.43l0-9.13h0a.5.5,0,1,0-1,0h0l0,9.13h0a.5.5,0,1,0,1,0Z"/><path d="M466,74.85c-.14.21-.32.4-.5.67a3.17,3.17,0,0,1-.82.69,8.05,8.05,0,0,0-.85,1.06c-.71.83-1.34-.93-1.87-1.25a2,2,0,0,1-1-1c-.07-.15-.33-1.65-.13-1.66a1,1,0,0,1,.82.22,3.6,3.6,0,0,0,.82.47c.06-.2.55-1,.81-1.06.6-.19.95.72,1.27,1.05.17-.37.76-1,1.2-.89C465.72,73.76,466.33,74.27,466,74.85Z"/><path d="M463.55,81.86a3.24,3.24,0,0,1,1.32-3.07c.44-.29.95-.83,1.53-.74a3.25,3.25,0,0,1-1,2.21c-.33.31-.77.47-1.12.74C464.18,81.1,463.54,81.71,463.55,81.86Z"/><path d="M463.11,81.4a3.27,3.27,0,0,0-1.32-3.07c-.45-.29-1-.83-1.53-.74a3.31,3.31,0,0,0,.95,2.22c.33.3.77.47,1.13.74C462.47,80.65,463.12,81.25,463.11,81.4Z"/><path d="M691.7,171.82l0,9.13h0a.5.5,0,0,0,1,0h0l0-9.13h0a.5.5,0,0,0-.5-.5.5.5,0,0,0-.5.5Z"/><path d="M694.74,182.4c-.13-.21-.32-.4-.5-.67s-.52-.45-.81-.69a7.37,7.37,0,0,1-.86-1.06c-.7-.83-1.33.92-1.86,1.25a2,2,0,0,0-1,1c-.06.15-.32,1.65-.13,1.66a1,1,0,0,0,.82-.22,3.66,3.66,0,0,1,.83-.47c.06.2.54,1,.8,1.06.61.19,1-.72,1.27-1,.18.37.77,1,1.21.89C694.51,183.49,695.11,183,694.74,182.4Z"/><path d="M692.33,175.39a3.26,3.26,0,0,0,1.32,3.07c.45.29,1,.83,1.53.74a3.25,3.25,0,0,0-1-2.21,10.85,10.85,0,0,0-1.12-.74C693,176.14,692.32,175.54,692.33,175.39Z"/><path d="M691.89,175.85a3.24,3.24,0,0,1-1.32,3.07c-.44.29-1,.83-1.53.74a3.28,3.28,0,0,1,1-2.22c.33-.3.77-.47,1.12-.74C691.26,176.6,691.9,176,691.89,175.85Z"/><path d="M615.44,73l0,9.13h0a.5.5,0,1,0,1,0h0l.05-9.14h0a.5.5,0,0,0-1,0Z"/><path d="M618.48,83.54c-.13-.21-.32-.4-.5-.67a3.53,3.53,0,0,0-.81-.69,7.37,7.37,0,0,1-.86-1.06c-.7-.83-1.33.93-1.87,1.26a2,2,0,0,0-1,1c-.06.15-.33,1.66-.13,1.67a1.05,1.05,0,0,0,.82-.23,4.62,4.62,0,0,1,.83-.47,2.46,2.46,0,0,0,.8,1.07c.61.18,1-.72,1.27-1.06.18.37.76,1,1.21.89C618.25,84.63,618.85,84.12,618.48,83.54Z"/><path d="M616.07,76.54a3.23,3.23,0,0,0,1.32,3.06c.44.3,1,.84,1.53.74a3.27,3.27,0,0,0-1-2.21,12,12,0,0,0-1.12-.74C616.71,77.29,616.06,76.68,616.07,76.54Z"/><path d="M615.63,77a3.24,3.24,0,0,1-1.32,3.07c-.44.29-.95.83-1.53.74a3.23,3.23,0,0,1,1-2.21c.33-.31.77-.47,1.12-.74C615,77.74,615.64,77.14,615.63,77Z"/><path d="M845.22,184.29l0-9.14h0a.5.5,0,0,0-1,0h0l0,9.13h0a.5.5,0,0,0,1,0Z"/><path d="M847.26,173.71c-.13.21-.31.4-.49.67a3.58,3.58,0,0,1-.82.69,7.31,7.31,0,0,0-.85,1.06c-.71.83-1.34-.93-1.87-1.26a2,2,0,0,1-1-1c-.07-.16-.33-1.66-.14-1.67a1.06,1.06,0,0,1,.83.23,4.23,4.23,0,0,0,.82.47,2.63,2.63,0,0,1,.8-1.07c.61-.18,1,.72,1.27,1.06.18-.37.77-1,1.21-.89C847,172.62,847.63,173.13,847.26,173.71Z"/><path d="M844.85,180.71a3.27,3.27,0,0,1,1.32-3.06c.45-.3,1-.84,1.53-.74a3.31,3.31,0,0,1-1,2.21,12.2,12.2,0,0,1-1.13.74C845.49,180,844.84,180.57,844.85,180.71Z"/><path d="M844.41,180.26a3.25,3.25,0,0,0-1.31-3.07c-.45-.29-1-.83-1.54-.74a3.34,3.34,0,0,0,1,2.21c.33.31.77.47,1.12.74C843.78,179.51,844.42,180.11,844.41,180.26Z"/><path d="M769,85.43l0-9.13h0a.5.5,0,1,0-1,0h0l0,9.13h0a.5.5,0,0,0,.5.5.5.5,0,0,0,.5-.5Z"/><path d="M771,74.85c-.13.21-.32.4-.5.67s-.52.45-.81.69a6.7,6.7,0,0,0-.85,1.06c-.71.83-1.34-.93-1.87-1.25a2,2,0,0,1-1-1c-.06-.15-.32-1.65-.13-1.66a1,1,0,0,1,.82.22,3.66,3.66,0,0,0,.83.47c.06-.2.54-1,.8-1.06.61-.19,1,.72,1.27,1.05.18-.37.77-1,1.21-.89C770.77,73.76,771.37,74.27,771,74.85Z"/><path d="M768.59,81.86a3.26,3.26,0,0,1,1.32-3.07c.45-.29,1-.83,1.53-.74a3.29,3.29,0,0,1-1,2.21,12.2,12.2,0,0,1-1.13.74C769.23,81.1,768.58,81.71,768.59,81.86Z"/><path d="M768.15,81.4a3.24,3.24,0,0,0-1.32-3.07c-.44-.29-1-.83-1.53-.74a3.32,3.32,0,0,0,1,2.22c.33.3.77.47,1.12.74C767.52,80.65,768.16,81.25,768.15,81.4Z"/><path d="M81.61,369.53l0,9.13h0a.49.49,0,0,0,.49.5.5.5,0,0,0,.51-.49h0l0-9.14h0a.51.51,0,0,0-.5-.5.5.5,0,0,0-.5.5Z"/><path d="M84.65,380.11c-.13-.2-.32-.4-.5-.66a3.17,3.17,0,0,0-.81-.7,7.37,7.37,0,0,1-.86-1.06c-.7-.82-1.33.93-1.86,1.26a2,2,0,0,0-1,1c-.06.16-.33,1.66-.13,1.67a1,1,0,0,0,.82-.22,4.14,4.14,0,0,1,.83-.48c.06.21.54,1,.8,1.07.61.19,1-.72,1.27-1.05.18.36.77,1,1.21.89C84.42,381.2,85,380.69,84.65,380.11Z"/><path d="M82.24,373.11a3.24,3.24,0,0,0,1.32,3.06c.44.3,1,.84,1.53.75a3.28,3.28,0,0,0-1-2.22A12.77,12.77,0,0,0,83,374C82.88,373.86,82.23,373.25,82.24,373.11Z"/><path d="M81.8,373.56a3.24,3.24,0,0,1-1.32,3.07c-.44.29-1,.84-1.53.74a3.25,3.25,0,0,1,1-2.21c.33-.31.77-.47,1.12-.74C81.17,374.32,81.81,373.71,81.8,373.56Z"/><path d="M5.35,270.67l0,9.14h0a.5.5,0,1,0,1,0h0l0-9.13h0a.5.5,0,0,0-.5-.5.49.49,0,0,0-.5.49Z"/><path d="M8.39,281.26c-.14-.21-.32-.4-.5-.67a3.17,3.17,0,0,0-.82-.69,9.62,9.62,0,0,1-.85-1.06c-.71-.83-1.33.92-1.87,1.25a2,2,0,0,0-1,1c-.06.15-.33,1.65-.13,1.66a1,1,0,0,0,.82-.22,3.6,3.6,0,0,1,.82-.47c.06.2.55,1,.81,1.06.61.19.95-.72,1.27-1.05.17.36.76,1,1.21.89C8.16,282.35,8.76,281.84,8.39,281.26Z"/><path d="M6,274.25a3.24,3.24,0,0,0,1.32,3.07c.44.29,1,.83,1.53.74a3.28,3.28,0,0,0-1-2.22c-.33-.3-.77-.47-1.12-.74C6.61,275,6,274.4,6,274.25Z"/><path d="M5.54,274.71a3.22,3.22,0,0,1-1.32,3.06c-.44.3-.95.84-1.53.75a3.28,3.28,0,0,1,1-2.22,12.77,12.77,0,0,1,1.12-.74C4.9,275.46,5.55,274.85,5.54,274.71Z"/><path d="M235.13,382l0-9.13h0a.5.5,0,0,0-1,0h0l0,9.14h0a.5.5,0,0,0,1,0Z"/><path d="M237.17,371.42c-.13.21-.32.4-.5.67s-.52.45-.81.69a7.89,7.89,0,0,0-.85,1.06c-.71.83-1.34-.92-1.87-1.25a2,2,0,0,1-1-1c-.06-.15-.32-1.65-.13-1.66a1,1,0,0,1,.82.22,3.66,3.66,0,0,0,.83.47c.06-.2.54-1,.8-1.06.61-.19,1,.72,1.27,1.05.18-.37.77-1,1.21-.89C236.94,370.33,237.54,370.84,237.17,371.42Z"/><path d="M234.76,378.43a3.29,3.29,0,0,1,1.32-3.07c.45-.29,1-.83,1.53-.74a3.31,3.31,0,0,1-1,2.22,12.1,12.1,0,0,1-1.13.73C235.4,377.68,234.75,378.28,234.76,378.43Z"/><path d="M234.32,378A3.24,3.24,0,0,0,233,374.9c-.44-.29-.95-.83-1.53-.74a3.37,3.37,0,0,0,1,2.22c.33.3.77.47,1.12.74C233.69,377.22,234.33,377.83,234.32,378Z"/><path d="M158.87,283.14l0-9.13h0a.5.5,0,1,0-1,0h0l0,9.13h0a.5.5,0,1,0,1,0Z"/><path d="M160.91,272.56c-.13.21-.32.41-.5.67s-.52.45-.81.7a7.1,7.1,0,0,0-.85,1.05c-.71.83-1.34-.92-1.87-1.25a2,2,0,0,1-1-1c-.06-.16-.32-1.66-.13-1.67a1,1,0,0,1,.82.22,4.14,4.14,0,0,0,.83.48c.06-.21.54-1,.8-1.07.61-.19.95.72,1.27,1.05.18-.36.77-1,1.21-.89C160.68,271.47,161.28,272,160.91,272.56Z"/><path d="M158.5,279.57a3.27,3.27,0,0,1,1.32-3.07c.45-.29,1-.83,1.53-.74a3.28,3.28,0,0,1-1,2.22,12.77,12.77,0,0,1-1.12.74C159.14,278.82,158.49,279.42,158.5,279.57Z"/><path d="M158.06,279.11a3.23,3.23,0,0,0-1.32-3.06c-.44-.3-1-.84-1.53-.74a3.27,3.27,0,0,0,1,2.21c.33.31.77.47,1.12.74C157.43,278.36,158.07,279,158.06,279.11Z"/><path d="M386.66,369.53l-.05,9.13h0a.5.5,0,0,0,.5.5.49.49,0,0,0,.5-.49h0l0-9.14h0a.51.51,0,0,0-.49-.5.5.5,0,0,0-.5.5Z"/><path d="M389.69,380.11c-.13-.2-.31-.4-.49-.66a3.21,3.21,0,0,0-.82-.7,8.05,8.05,0,0,1-.85-1.06c-.71-.82-1.34.93-1.87,1.26a2,2,0,0,0-1,1c-.07.16-.33,1.66-.14,1.67a1.06,1.06,0,0,0,.83-.22,4.07,4.07,0,0,1,.82-.48c.06.21.55,1,.81,1.07.6.19.95-.72,1.27-1.05.17.36.76,1,1.2.89C389.46,381.2,390.06,380.69,389.69,380.11Z"/><path d="M387.29,373.11a3.22,3.22,0,0,0,1.32,3.06c.44.3.95.84,1.53.75a3.32,3.32,0,0,0-1-2.22c-.33-.3-.77-.47-1.12-.74C387.92,373.86,387.28,373.25,387.29,373.11Z"/><path d="M386.85,373.56a3.28,3.28,0,0,1-1.32,3.07c-.45.29-1,.84-1.53.74a3.29,3.29,0,0,1,.95-2.21,12.2,12.2,0,0,1,1.13-.74C386.21,374.32,386.86,373.71,386.85,373.56Z"/><path d="M310.39,270.67l0,9.14h0a.5.5,0,1,0,1,0h0l0-9.13h0a.5.5,0,0,0-.5-.5.51.51,0,0,0-.5.49Z"/><path d="M313.43,281.26c-.13-.21-.31-.4-.49-.67a3.35,3.35,0,0,0-.82-.69,9.62,9.62,0,0,1-.85-1.06c-.71-.83-1.34.92-1.87,1.25a2,2,0,0,0-1,1c-.07.15-.33,1.65-.14,1.66a1,1,0,0,0,.83-.22,3.4,3.4,0,0,1,.82-.47,2.67,2.67,0,0,0,.8,1.06c.61.19,1-.72,1.27-1.05.18.36.77,1,1.21.89C313.2,282.35,313.8,281.84,313.43,281.26Z"/><path d="M311,274.25a3.29,3.29,0,0,0,1.32,3.07c.45.29,1,.83,1.53.74a3.31,3.31,0,0,0-.95-2.22c-.33-.3-.77-.47-1.13-.74C311.66,275,311,274.4,311,274.25Z"/><path d="M310.58,274.71a3.23,3.23,0,0,1-1.31,3.06c-.45.3-1,.84-1.54.75a3.37,3.37,0,0,1,1-2.22c.33-.3.77-.47,1.12-.74C310,275.46,310.59,274.85,310.58,274.71Z"/><path d="M540.17,382l0-9.13h0a.5.5,0,1,0-1,0h0l0,9.14h0a.49.49,0,0,0,.5.49.49.49,0,0,0,.49-.5Z"/><path d="M542.22,371.42c-.14.21-.32.4-.5.67a3.17,3.17,0,0,1-.82.69,8.77,8.77,0,0,0-.85,1.06c-.71.83-1.33-.92-1.87-1.25a2,2,0,0,1-1-1c-.06-.15-.33-1.65-.13-1.66a1,1,0,0,1,.82.22,3.6,3.6,0,0,0,.82.47c.06-.2.55-1,.81-1.06.61-.19,1,.72,1.27,1.05.17-.37.76-1,1.21-.89C542,370.33,542.59,370.84,542.22,371.42Z"/><path d="M539.81,378.43a3.24,3.24,0,0,1,1.32-3.07c.44-.29,1-.83,1.53-.74a3.28,3.28,0,0,1-1,2.22c-.33.3-.77.47-1.12.73C540.44,377.68,539.8,378.28,539.81,378.43Z"/><path d="M539.37,378a3.27,3.27,0,0,0-1.32-3.07c-.44-.29-.95-.83-1.53-.74a3.28,3.28,0,0,0,1,2.22,12.77,12.77,0,0,0,1.12.74C538.73,377.22,539.38,377.83,539.37,378Z"/><path d="M463.91,283.14l0-9.13h0a.5.5,0,1,0-1,0h0l0,9.13h0a.5.5,0,0,0,.5.5.51.51,0,0,0,.49-.51Z"/><path d="M466,272.56c-.14.21-.32.41-.5.67a3.42,3.42,0,0,1-.82.7,8.66,8.66,0,0,0-.85,1.05c-.71.83-1.34-.92-1.87-1.25a2,2,0,0,1-1-1c-.07-.16-.33-1.66-.13-1.67a1,1,0,0,1,.82.22,4.07,4.07,0,0,0,.82.48c.06-.21.55-1,.81-1.07.6-.19.95.72,1.27,1.05.17-.36.76-1,1.2-.89C465.72,271.47,466.33,272,466,272.56Z"/><path d="M463.55,279.57a3.24,3.24,0,0,1,1.32-3.07c.44-.29.95-.83,1.53-.74a3.28,3.28,0,0,1-1,2.22c-.33.3-.77.47-1.12.74C464.18,278.82,463.54,279.42,463.55,279.57Z"/><path d="M463.11,279.11a3.25,3.25,0,0,0-1.32-3.06c-.45-.3-1-.84-1.53-.74a3.31,3.31,0,0,0,.95,2.21,12.2,12.2,0,0,0,1.13.74C462.47,278.36,463.12,279,463.11,279.11Z"/><path d="M691.7,369.53l0,9.13h0a.5.5,0,0,0,1,0h0l0-9.14h0a.51.51,0,0,0-.5-.5.5.5,0,0,0-.5.5Z"/><path d="M694.74,380.11c-.13-.2-.32-.4-.5-.66a3.17,3.17,0,0,0-.81-.7,7.37,7.37,0,0,1-.86-1.06c-.7-.82-1.33.93-1.86,1.26a2,2,0,0,0-1,1c-.06.16-.32,1.66-.13,1.67a1,1,0,0,0,.82-.22,4.14,4.14,0,0,1,.83-.48c.06.21.54,1,.8,1.07.61.19,1-.72,1.27-1.05.18.36.77,1,1.21.89C694.51,381.2,695.11,380.69,694.74,380.11Z"/><path d="M692.33,373.11a3.24,3.24,0,0,0,1.32,3.06c.45.3,1,.84,1.53.75a3.28,3.28,0,0,0-1-2.22,12.77,12.77,0,0,0-1.12-.74C693,373.86,692.32,373.25,692.33,373.11Z"/><path d="M691.89,373.56a3.24,3.24,0,0,1-1.32,3.07c-.44.29-1,.84-1.53.74a3.25,3.25,0,0,1,1-2.21c.33-.31.77-.47,1.12-.74C691.26,374.32,691.9,373.71,691.89,373.56Z"/><path d="M615.44,270.67l0,9.14h0a.5.5,0,1,0,1,0h0l.05-9.13h0a.5.5,0,0,0-1,0Z"/><path d="M618.48,281.26c-.13-.21-.32-.4-.5-.67a3.3,3.3,0,0,0-.81-.69,8.66,8.66,0,0,1-.86-1.06c-.7-.83-1.33.92-1.87,1.25a2,2,0,0,0-1,1c-.06.15-.33,1.65-.13,1.66a1,1,0,0,0,.82-.22,3.66,3.66,0,0,1,.83-.47c0,.2.54,1,.8,1.06.61.19,1-.72,1.27-1.05.18.36.76,1,1.21.89C618.25,282.35,618.85,281.84,618.48,281.26Z"/><path d="M616.07,274.25a3.24,3.24,0,0,0,1.32,3.07c.44.29,1,.83,1.53.74a3.28,3.28,0,0,0-1-2.22c-.33-.3-.76-.47-1.12-.74C616.71,275,616.06,274.4,616.07,274.25Z"/><path d="M615.63,274.71a3.22,3.22,0,0,1-1.32,3.06c-.44.3-.95.84-1.53.75a3.28,3.28,0,0,1,1-2.22c.33-.3.77-.47,1.12-.74C615,275.46,615.64,274.85,615.63,274.71Z"/><path d="M845.22,382l0-9.13h0a.5.5,0,0,0-1,0h0l0,9.14h0a.5.5,0,0,0,1,0Z"/><path d="M847.26,371.42c-.13.21-.31.4-.49.67a3.35,3.35,0,0,1-.82.69,7.89,7.89,0,0,0-.85,1.06c-.71.83-1.34-.92-1.87-1.25a2,2,0,0,1-1-1c-.07-.15-.33-1.65-.14-1.66a1,1,0,0,1,.83.22,3.4,3.4,0,0,0,.82.47,2.67,2.67,0,0,1,.8-1.06c.61-.19,1,.72,1.27,1.05.18-.37.77-1,1.21-.89C847,370.33,847.63,370.84,847.26,371.42Z"/><path d="M844.85,378.43a3.29,3.29,0,0,1,1.32-3.07c.45-.29,1-.83,1.53-.74a3.31,3.31,0,0,1-1,2.22,12.1,12.1,0,0,1-1.13.73C845.49,377.68,844.84,378.28,844.85,378.43Z"/><path d="M844.41,378a3.26,3.26,0,0,0-1.31-3.07c-.45-.29-1-.83-1.54-.74a3.37,3.37,0,0,0,1,2.22c.33.3.77.47,1.12.74C843.78,377.22,844.42,377.83,844.41,378Z"/><path d="M769,283.14l0-9.13h0a.5.5,0,1,0-1,0h0l0,9.13h0a.5.5,0,1,0,1,0Z"/><path d="M771,272.56c-.13.21-.32.41-.5.67s-.52.45-.81.7a7.1,7.1,0,0,0-.85,1.05c-.71.83-1.34-.92-1.87-1.25a2,2,0,0,1-1-1c-.06-.16-.32-1.66-.13-1.67a1,1,0,0,1,.82.22,4.14,4.14,0,0,0,.83.48c.06-.21.54-1,.8-1.07.61-.19,1,.72,1.27,1.05.18-.36.77-1,1.21-.89C770.77,271.47,771.37,272,771,272.56Z"/><path d="M768.59,279.57a3.27,3.27,0,0,1,1.32-3.07c.45-.29,1-.83,1.53-.74a3.31,3.31,0,0,1-1,2.22c-.33.3-.77.47-1.13.74C769.23,278.82,768.58,279.42,768.59,279.57Z"/><path d="M768.15,279.11a3.23,3.23,0,0,0-1.32-3.06c-.44-.3-1-.84-1.53-.74a3.32,3.32,0,0,0,1,2.21c.33.31.77.47,1.12.74C767.52,278.36,768.16,279,768.15,279.11Z"/><path d="M81.61,567.24l0,9.14h0a.5.5,0,0,0,.49.5.51.51,0,0,0,.51-.5h0l0-9.13h0a.5.5,0,0,0-1,0Z"/><path d="M84.65,577.83c-.13-.21-.32-.4-.5-.67s-.52-.45-.81-.69a7.37,7.37,0,0,1-.86-1.06c-.7-.83-1.33.92-1.86,1.25a2,2,0,0,0-1,1c-.06.15-.33,1.65-.13,1.66a1,1,0,0,0,.82-.22,3.66,3.66,0,0,1,.83-.47c.06.2.54,1,.8,1.06.61.19,1-.72,1.27-1.05.18.37.77,1,1.21.89C84.42,578.92,85,578.41,84.65,577.83Z"/><path d="M82.24,570.82a3.27,3.27,0,0,0,1.32,3.07c.44.29,1,.83,1.53.74a3.23,3.23,0,0,0-1-2.21,10.85,10.85,0,0,0-1.12-.74C82.88,571.57,82.23,571,82.24,570.82Z"/><path d="M81.8,571.28a3.24,3.24,0,0,1-1.32,3.07c-.44.29-1,.83-1.53.74a3.28,3.28,0,0,1,1-2.22c.33-.3.77-.47,1.12-.74C81.17,572,81.81,571.43,81.8,571.28Z"/><path d="M5.35,468.39l0,9.13h0a.5.5,0,1,0,1,0h0l0-9.14h0a.51.51,0,0,0-.5-.5.5.5,0,0,0-.5.5Z"/><path d="M8.39,479c-.14-.21-.32-.4-.5-.67a3.17,3.17,0,0,0-.82-.69,8.05,8.05,0,0,1-.85-1.06c-.71-.83-1.33.93-1.87,1.26a2,2,0,0,0-1,1c-.06.15-.33,1.66-.13,1.66a1,1,0,0,0,.82-.22,4.54,4.54,0,0,1,.82-.47c.06.21.55,1,.81,1.07.61.18.95-.72,1.27-1.06.17.37.76,1,1.21.89C8.16,480.06,8.76,479.55,8.39,479Z"/><path d="M6,472A3.24,3.24,0,0,0,7.3,475c.44.29,1,.84,1.53.74a3.25,3.25,0,0,0-1-2.21c-.33-.31-.77-.47-1.12-.74C6.61,472.72,6,472.11,6,472Z"/><path d="M5.54,472.42a3.24,3.24,0,0,1-1.32,3.07c-.44.29-.95.83-1.53.74a3.23,3.23,0,0,1,1-2.21,10.85,10.85,0,0,1,1.12-.74C4.9,473.17,5.55,472.57,5.54,472.42Z"/><path d="M235.13,579.72l0-9.14h0a.5.5,0,0,0-1,0h0l0,9.13h0a.5.5,0,0,0,1,0Z"/><path d="M237.17,569.14c-.13.21-.32.4-.5.67a3.33,3.33,0,0,1-.81.69,7.31,7.31,0,0,0-.85,1.06c-.71.83-1.34-.93-1.87-1.26a2,2,0,0,1-1-1c-.06-.16-.32-1.66-.13-1.67a1,1,0,0,1,.82.23,4.62,4.62,0,0,0,.83.47c.06-.21.54-1,.8-1.07.61-.18,1,.72,1.27,1.05.18-.36.77-1,1.21-.88C236.94,568.05,237.54,568.56,237.17,569.14Z"/><path d="M234.76,576.14a3.26,3.26,0,0,1,1.32-3.06c.45-.3,1-.84,1.53-.75a3.31,3.31,0,0,1-1,2.22,12.2,12.2,0,0,1-1.13.74C235.4,575.39,234.75,576,234.76,576.14Z"/><path d="M234.32,575.69a3.24,3.24,0,0,0-1.32-3.07c-.44-.29-.95-.84-1.53-.74a3.34,3.34,0,0,0,1,2.21c.33.31.77.47,1.12.74C233.69,574.93,234.33,575.54,234.32,575.69Z"/><path d="M158.87,480.86l0-9.13h0a.51.51,0,0,0-.5-.5.5.5,0,0,0-.5.5h0l0,9.13h0a.5.5,0,0,0,1,0Z"/><path d="M160.91,470.28c-.13.21-.32.4-.5.67s-.52.45-.81.69a6.7,6.7,0,0,0-.85,1.06c-.71.83-1.34-.93-1.87-1.25a2,2,0,0,1-1-1c-.06-.15-.32-1.65-.13-1.66a1,1,0,0,1,.82.22,3.66,3.66,0,0,0,.83.47c.06-.21.54-1,.8-1.07.61-.18.95.73,1.27,1.06.18-.37.77-1,1.21-.89C160.68,469.19,161.28,469.7,160.91,470.28Z"/><path d="M158.5,477.29a3.26,3.26,0,0,1,1.32-3.07c.45-.29,1-.84,1.53-.74a3.25,3.25,0,0,1-1,2.21,10.85,10.85,0,0,1-1.12.74C159.14,476.53,158.49,477.14,158.5,477.29Z"/><path d="M158.06,476.83a3.24,3.24,0,0,0-1.32-3.07c-.44-.29-1-.83-1.53-.74a3.28,3.28,0,0,0,1,2.22c.33.3.77.47,1.12.74C157.43,476.08,158.07,476.68,158.06,476.83Z"/><path d="M386.66,567.24l-.05,9.14h0a.5.5,0,0,0,.5.5.5.5,0,0,0,.5-.5h0l0-9.13h0a.5.5,0,0,0-1,0Z"/><path d="M389.69,577.83c-.13-.21-.31-.4-.49-.67a3.17,3.17,0,0,0-.82-.69,8.05,8.05,0,0,1-.85-1.06c-.71-.83-1.34.92-1.87,1.25a2,2,0,0,0-1,1c-.07.15-.33,1.65-.14,1.66a1,1,0,0,0,.83-.22,3.6,3.6,0,0,1,.82-.47c.06.2.55,1,.81,1.06.6.19.95-.72,1.27-1.05.17.37.76,1,1.2.89C389.46,578.92,390.06,578.41,389.69,577.83Z"/><path d="M387.29,570.82a3.24,3.24,0,0,0,1.32,3.07c.44.29.95.83,1.53.74a3.28,3.28,0,0,0-1-2.21c-.33-.31-.77-.47-1.12-.74C387.92,571.57,387.28,571,387.29,570.82Z"/><path d="M386.85,571.28a3.29,3.29,0,0,1-1.32,3.07c-.45.29-1,.83-1.53.74a3.31,3.31,0,0,1,.95-2.22c.33-.3.77-.47,1.13-.74C386.21,572,386.86,571.43,386.85,571.28Z"/><path d="M310.39,468.39l0,9.13h0a.5.5,0,0,0,1,0h0l0-9.14h0a.5.5,0,0,0-.5-.5.51.51,0,0,0-.5.5Z"/><path d="M313.43,479c-.13-.21-.31-.4-.49-.67a3.35,3.35,0,0,0-.82-.69,8.05,8.05,0,0,1-.85-1.06c-.71-.83-1.34.93-1.87,1.26a2,2,0,0,0-1,1c-.07.15-.33,1.66-.14,1.66a1,1,0,0,0,.83-.22,4.23,4.23,0,0,1,.82-.47,2.63,2.63,0,0,0,.8,1.07c.61.18,1-.72,1.27-1.06.18.37.77,1,1.21.89C313.2,480.06,313.8,479.55,313.43,479Z"/><path d="M311,472a3.28,3.28,0,0,0,1.32,3.07c.45.29,1,.84,1.53.74a3.29,3.29,0,0,0-.95-2.21,12.2,12.2,0,0,0-1.13-.74C311.66,472.72,311,472.11,311,472Z"/><path d="M310.58,472.42a3.26,3.26,0,0,1-1.31,3.07c-.45.29-1,.83-1.54.74a3.32,3.32,0,0,1,1-2.21c.33-.31.77-.47,1.12-.74C310,473.17,310.59,472.57,310.58,472.42Z"/><path d="M540.17,579.72l0-9.14h0a.5.5,0,1,0-1,0h0l0,9.13h0a.5.5,0,1,0,1,0Z"/><path d="M542.22,569.14c-.14.21-.32.4-.5.67a3.38,3.38,0,0,1-.82.69,8.05,8.05,0,0,0-.85,1.06c-.71.83-1.33-.93-1.87-1.26a2,2,0,0,1-1-1c-.06-.16-.33-1.66-.13-1.67a1.05,1.05,0,0,1,.82.23,4.54,4.54,0,0,0,.82.47c.06-.21.55-1,.81-1.07.61-.18,1,.72,1.27,1.05.17-.36.76-1,1.21-.88C542,568.05,542.59,568.56,542.22,569.14Z"/><path d="M539.81,576.14a3.22,3.22,0,0,1,1.32-3.06c.44-.3,1-.84,1.53-.75a3.28,3.28,0,0,1-1,2.22c-.33.31-.77.47-1.12.74C540.44,575.39,539.8,576,539.81,576.14Z"/><path d="M539.37,575.69a3.26,3.26,0,0,0-1.32-3.07c-.44-.29-.95-.84-1.53-.74a3.25,3.25,0,0,0,1,2.21,10.85,10.85,0,0,0,1.12.74C538.73,574.93,539.38,575.54,539.37,575.69Z"/><path d="M463.91,480.86l0-9.13h0a.5.5,0,0,0-.5-.5.49.49,0,0,0-.49.5h0l0,9.13h0a.5.5,0,1,0,1,0Z"/><path d="M466,470.28c-.14.21-.32.4-.5.67a3.17,3.17,0,0,1-.82.69,8.05,8.05,0,0,0-.85,1.06c-.71.83-1.34-.93-1.87-1.25a2,2,0,0,1-1-1c-.07-.15-.33-1.65-.13-1.66a1,1,0,0,1,.82.22,3.6,3.6,0,0,0,.82.47c.06-.21.55-1,.81-1.07.6-.18.95.73,1.27,1.06.17-.37.76-1,1.2-.89C465.72,469.19,466.33,469.7,466,470.28Z"/><path d="M463.55,477.29a3.24,3.24,0,0,1,1.32-3.07c.44-.29.95-.84,1.53-.74a3.25,3.25,0,0,1-1,2.21c-.33.31-.77.47-1.12.74C464.18,476.53,463.54,477.14,463.55,477.29Z"/><path d="M463.11,476.83a3.27,3.27,0,0,0-1.32-3.07c-.45-.29-1-.83-1.53-.74a3.31,3.31,0,0,0,.95,2.22c.33.3.77.47,1.13.74C462.47,476.08,463.12,476.68,463.11,476.83Z"/><path d="M691.7,567.24l0,9.14h0a.5.5,0,0,0,1,0h0l0-9.13h0a.5.5,0,0,0-1,0Z"/><path d="M694.74,577.83c-.13-.21-.32-.4-.5-.67s-.52-.45-.81-.69a7.37,7.37,0,0,1-.86-1.06c-.7-.83-1.33.92-1.86,1.25a2,2,0,0,0-1,1c-.06.15-.32,1.65-.13,1.66a1,1,0,0,0,.82-.22,3.66,3.66,0,0,1,.83-.47c.06.2.54,1,.8,1.06.61.19,1-.72,1.27-1.05.18.37.77,1,1.21.89C694.51,578.92,695.11,578.41,694.74,577.83Z"/><path d="M692.33,570.82a3.27,3.27,0,0,0,1.32,3.07c.45.29,1,.83,1.53.74a3.23,3.23,0,0,0-1-2.21,10.85,10.85,0,0,0-1.12-.74C693,571.57,692.32,571,692.33,570.82Z"/><path d="M691.89,571.28a3.24,3.24,0,0,1-1.32,3.07c-.44.29-1,.83-1.53.74a3.28,3.28,0,0,1,1-2.22c.33-.3.77-.47,1.12-.74C691.26,572,691.9,571.43,691.89,571.28Z"/><path d="M615.44,468.39l0,9.13h0a.5.5,0,1,0,1,0h0l.05-9.14h0a.5.5,0,1,0-1,0Z"/><path d="M618.48,479c-.13-.21-.32-.4-.5-.67a3.3,3.3,0,0,0-.81-.69,7.37,7.37,0,0,1-.86-1.06c-.7-.83-1.33.93-1.87,1.26a2,2,0,0,0-1,1c-.06.15-.33,1.66-.13,1.66a1,1,0,0,0,.82-.22,4.62,4.62,0,0,1,.83-.47,2.46,2.46,0,0,0,.8,1.07c.61.18,1-.72,1.27-1.06.18.37.76,1,1.21.89C618.25,480.06,618.85,479.55,618.48,479Z"/><path d="M616.07,472a3.24,3.24,0,0,0,1.32,3.07c.44.29,1,.84,1.53.74a3.25,3.25,0,0,0-1-2.21,12,12,0,0,0-1.12-.74C616.71,472.72,616.06,472.11,616.07,472Z"/><path d="M615.63,472.42a3.24,3.24,0,0,1-1.32,3.07c-.44.29-.95.83-1.53.74a3.23,3.23,0,0,1,1-2.21c.33-.31.77-.47,1.12-.74C615,473.17,615.64,472.57,615.63,472.42Z"/><path d="M845.22,579.72l0-9.14h0a.5.5,0,0,0-1,0h0l0,9.13h0a.5.5,0,0,0,1,0Z"/><path d="M847.26,569.14c-.13.21-.31.4-.49.67a3.58,3.58,0,0,1-.82.69,7.31,7.31,0,0,0-.85,1.06c-.71.83-1.34-.93-1.87-1.26a2,2,0,0,1-1-1c-.07-.16-.33-1.66-.14-1.67a1.06,1.06,0,0,1,.83.23,4.23,4.23,0,0,0,.82.47,2.63,2.63,0,0,1,.8-1.07c.61-.18,1,.72,1.27,1.05.18-.36.77-1,1.21-.88C847,568.05,847.63,568.56,847.26,569.14Z"/><path d="M844.85,576.14a3.26,3.26,0,0,1,1.32-3.06c.45-.3,1-.84,1.53-.75a3.31,3.31,0,0,1-1,2.22,12.2,12.2,0,0,1-1.13.74C845.49,575.39,844.84,576,844.85,576.14Z"/><path d="M844.41,575.69a3.25,3.25,0,0,0-1.31-3.07c-.45-.29-1-.84-1.54-.74a3.34,3.34,0,0,0,1,2.21c.33.31.77.47,1.12.74C843.78,574.93,844.42,575.54,844.41,575.69Z"/><path d="M769,480.86l0-9.13h0a.5.5,0,0,0-.5-.5.5.5,0,0,0-.5.5h0l0,9.13h0a.5.5,0,1,0,1,0Z"/><path d="M771,470.28c-.13.21-.32.4-.5.67s-.52.45-.81.69a6.7,6.7,0,0,0-.85,1.06c-.71.83-1.34-.93-1.87-1.25a2,2,0,0,1-1-1c-.06-.15-.32-1.65-.13-1.66a1,1,0,0,1,.82.22,3.66,3.66,0,0,0,.83.47c.06-.21.54-1,.8-1.07.61-.18,1,.73,1.27,1.06.18-.37.77-1,1.21-.89C770.77,469.19,771.37,469.7,771,470.28Z"/><path d="M768.59,477.29a3.26,3.26,0,0,1,1.32-3.07c.45-.29,1-.84,1.53-.74a3.29,3.29,0,0,1-1,2.21,12.2,12.2,0,0,1-1.13.74C769.23,476.53,768.58,477.14,768.59,477.29Z"/><path d="M768.15,476.83a3.24,3.24,0,0,0-1.32-3.07c-.44-.29-1-.83-1.53-.74a3.32,3.32,0,0,0,1,2.22c.33.3.77.47,1.12.74C767.52,476.08,768.16,476.68,768.15,476.83Z"/><path d="M81.61,765l0,9.13h0a.49.49,0,0,0,.49.5.51.51,0,0,0,.51-.49h0l0-9.14h0a.5.5,0,0,0-1,0Z"/><path d="M84.65,775.54c-.13-.21-.32-.4-.5-.66a3.17,3.17,0,0,0-.81-.7,7.37,7.37,0,0,1-.86-1.06c-.7-.83-1.33.93-1.86,1.26a2,2,0,0,0-1,1c-.06.16-.33,1.66-.13,1.67a1.05,1.05,0,0,0,.82-.23,4.62,4.62,0,0,1,.83-.47c.06.21.54,1,.8,1.07.61.18,1-.72,1.27-1,.18.36.77,1,1.21.88C84.42,776.63,85,776.12,84.65,775.54Z"/><path d="M82.24,768.54a3.24,3.24,0,0,0,1.32,3.06c.44.3,1,.84,1.53.75a3.28,3.28,0,0,0-1-2.22,10.85,10.85,0,0,0-1.12-.74C82.88,769.29,82.23,768.68,82.24,768.54Z"/><path d="M81.8,769a3.24,3.24,0,0,1-1.32,3.07c-.44.29-1,.84-1.53.74a3.25,3.25,0,0,1,1-2.21c.33-.31.77-.47,1.12-.74C81.17,769.75,81.81,769.14,81.8,769Z"/><path d="M5.35,666.1l0,9.14h0a.51.51,0,0,0,.49.5.5.5,0,0,0,.5-.5h0l0-9.13h0a.5.5,0,0,0-.5-.5.49.49,0,0,0-.5.49Z"/><path d="M8.39,676.69c-.14-.21-.32-.4-.5-.67a3.17,3.17,0,0,0-.82-.69,9.62,9.62,0,0,1-.85-1.06c-.71-.83-1.33.92-1.87,1.25a2,2,0,0,0-1,1c-.06.15-.33,1.65-.13,1.66a1,1,0,0,0,.82-.22,4.07,4.07,0,0,1,.82-.48c.06.21.55,1,.81,1.07.61.19.95-.72,1.27-1,.17.36.76,1,1.21.89C8.16,677.78,8.76,677.27,8.39,676.69Z"/><path d="M6,669.68a3.24,3.24,0,0,0,1.32,3.07c.44.29,1,.83,1.53.74a3.28,3.28,0,0,0-1-2.22c-.33-.3-.77-.47-1.12-.74C6.61,670.43,6,669.83,6,669.68Z"/><path d="M5.54,670.14a3.22,3.22,0,0,1-1.32,3.06c-.44.3-.95.84-1.53.74a3.27,3.27,0,0,1,1-2.21A10.85,10.85,0,0,1,4.77,671C4.9,670.89,5.55,670.28,5.54,670.14Z"/><path d="M235.13,777.43l0-9.13h0a.5.5,0,0,0-1,0h0l0,9.14h0a.5.5,0,0,0,1,0Z"/><path d="M237.17,766.85c-.13.21-.32.4-.5.67s-.52.45-.81.69a7.31,7.31,0,0,0-.85,1.06c-.71.83-1.34-.92-1.87-1.25a2,2,0,0,1-1-1c-.06-.15-.32-1.65-.13-1.66a1,1,0,0,1,.82.22,3.66,3.66,0,0,0,.83.47c.06-.2.54-1,.8-1.06.61-.19,1,.72,1.27,1,.18-.37.77-1,1.21-.89C236.94,765.76,237.54,766.27,237.17,766.85Z"/><path d="M234.76,773.86a3.29,3.29,0,0,1,1.32-3.07c.45-.29,1-.83,1.53-.74a3.27,3.27,0,0,1-1,2.21,12.2,12.2,0,0,1-1.13.74C235.4,773.11,234.75,773.71,234.76,773.86Z"/><path d="M234.32,773.4a3.24,3.24,0,0,0-1.32-3.07c-.44-.29-.95-.83-1.53-.74a3.37,3.37,0,0,0,1,2.22c.33.3.77.47,1.12.74C233.69,772.65,234.33,773.25,234.32,773.4Z"/><path d="M158.87,678.57l0-9.13h0a.51.51,0,0,0-.5-.5.51.51,0,0,0-.5.5h0l0,9.14h0a.5.5,0,0,0,1,0Z"/><path d="M160.91,668c-.13.21-.32.41-.5.67s-.52.45-.81.7a7.1,7.1,0,0,0-.85,1c-.71.83-1.34-.92-1.87-1.25a2.07,2.07,0,0,1-1-1c-.06-.16-.32-1.66-.13-1.67a1,1,0,0,1,.82.22,4.14,4.14,0,0,0,.83.48c.06-.21.54-1,.8-1.07.61-.19.95.72,1.27,1,.18-.36.77-1,1.21-.89C160.68,666.9,161.28,667.42,160.91,668Z"/><path d="M158.5,675a3.27,3.27,0,0,1,1.32-3.07c.45-.29,1-.83,1.53-.74a3.28,3.28,0,0,1-1,2.22,12.77,12.77,0,0,1-1.12.74C159.14,674.25,158.49,674.85,158.5,675Z"/><path d="M158.06,674.54a3.23,3.23,0,0,0-1.32-3.06c-.44-.3-1-.84-1.53-.74a3.27,3.27,0,0,0,1,2.21c.33.31.77.47,1.12.74C157.43,673.79,158.07,674.4,158.06,674.54Z"/><path d="M386.66,765l-.05,9.13h0a.5.5,0,0,0,1,0h0l0-9.14h0a.5.5,0,1,0-1,0Z"/><path d="M389.69,775.54c-.13-.21-.31-.4-.49-.66a3.21,3.21,0,0,0-.82-.7,8.05,8.05,0,0,1-.85-1.06c-.71-.83-1.34.93-1.87,1.26a2,2,0,0,0-1,1c-.07.16-.33,1.66-.14,1.67a1.06,1.06,0,0,0,.83-.23,4.54,4.54,0,0,1,.82-.47c.06.21.55,1,.81,1.07.6.18.95-.72,1.27-1,.17.36.76,1,1.2.88C389.46,776.63,390.06,776.12,389.69,775.54Z"/><path d="M387.29,768.54a3.22,3.22,0,0,0,1.32,3.06c.44.3.95.84,1.53.75a3.32,3.32,0,0,0-1-2.22c-.33-.31-.77-.47-1.12-.74C387.92,769.29,387.28,768.68,387.29,768.54Z"/><path d="M386.85,769a3.28,3.28,0,0,1-1.32,3.07c-.45.29-1,.84-1.53.74a3.29,3.29,0,0,1,.95-2.21,12.2,12.2,0,0,1,1.13-.74C386.21,769.75,386.86,769.14,386.85,769Z"/><path d="M310.39,666.1l0,9.14h0a.51.51,0,0,0,.5.5.5.5,0,0,0,.5-.5h0l0-9.13h0a.5.5,0,0,0-1,0Z"/><path d="M313.43,676.69c-.13-.21-.31-.4-.49-.67a3.35,3.35,0,0,0-.82-.69,9.62,9.62,0,0,1-.85-1.06c-.71-.83-1.34.92-1.87,1.25a2,2,0,0,0-1,1c-.07.15-.33,1.65-.14,1.66a1,1,0,0,0,.83-.22,3.82,3.82,0,0,1,.82-.48,2.63,2.63,0,0,0,.8,1.07c.61.19,1-.72,1.27-1,.18.36.77,1,1.21.89C313.2,677.78,313.8,677.27,313.43,676.69Z"/><path d="M311,669.68a3.29,3.29,0,0,0,1.32,3.07c.45.29,1,.83,1.53.74a3.31,3.31,0,0,0-.95-2.22c-.33-.3-.77-.47-1.13-.74C311.66,670.43,311,669.83,311,669.68Z"/><path d="M310.58,670.14a3.23,3.23,0,0,1-1.31,3.06c-.45.3-1,.84-1.54.74a3.36,3.36,0,0,1,1-2.21c.33-.31.77-.47,1.12-.74C310,670.89,310.59,670.28,310.58,670.14Z"/><path d="M540.17,777.43l0-9.13h0a.5.5,0,1,0-1,0h0l0,9.14h0a.49.49,0,0,0,.5.49.49.49,0,0,0,.49-.5Z"/><path d="M542.22,766.85c-.14.21-.32.4-.5.67a3.17,3.17,0,0,1-.82.69,8.05,8.05,0,0,0-.85,1.06c-.71.83-1.33-.92-1.87-1.25a2,2,0,0,1-1-1c-.06-.15-.33-1.65-.13-1.66a1,1,0,0,1,.82.22,3.6,3.6,0,0,0,.82.47c.06-.2.55-1,.81-1.06.61-.19,1,.72,1.27,1,.17-.37.76-1,1.21-.89C542,765.76,542.59,766.27,542.22,766.85Z"/><path d="M539.81,773.86a3.24,3.24,0,0,1,1.32-3.07c.44-.29,1-.83,1.53-.74a3.23,3.23,0,0,1-1,2.21c-.33.31-.77.47-1.12.74C540.44,773.11,539.8,773.71,539.81,773.86Z"/><path d="M539.37,773.4a3.27,3.27,0,0,0-1.32-3.07c-.44-.29-.95-.83-1.53-.74a3.28,3.28,0,0,0,1,2.22,12.77,12.77,0,0,0,1.12.74C538.73,772.65,539.38,773.25,539.37,773.4Z"/><path d="M463.91,678.57l0-9.13h0a.5.5,0,1,0-1,0h0l0,9.14h0a.49.49,0,0,0,.5.49.49.49,0,0,0,.49-.5Z"/><path d="M466,668c-.14.21-.32.41-.5.67a3.42,3.42,0,0,1-.82.7,8.66,8.66,0,0,0-.85,1c-.71.83-1.34-.92-1.87-1.25a2,2,0,0,1-1-1c-.07-.16-.33-1.66-.13-1.67a1,1,0,0,1,.82.22,4.07,4.07,0,0,0,.82.48c.06-.21.55-1,.81-1.07.6-.19.95.72,1.27,1,.17-.36.76-1,1.2-.89C465.72,666.9,466.33,667.42,466,668Z"/><path d="M463.55,675a3.24,3.24,0,0,1,1.32-3.07c.44-.29.95-.83,1.53-.74a3.28,3.28,0,0,1-1,2.22c-.33.3-.77.47-1.12.74C464.18,674.25,463.54,674.85,463.55,675Z"/><path d="M463.11,674.54a3.25,3.25,0,0,0-1.32-3.06c-.45-.3-1-.84-1.53-.74a3.31,3.31,0,0,0,.95,2.21,12.2,12.2,0,0,0,1.13.74C462.47,673.79,463.12,674.4,463.11,674.54Z"/><path d="M691.7,765l0,9.13h0a.5.5,0,0,0,1,0h0l0-9.14h0a.5.5,0,0,0-1,0Z"/><path d="M694.74,775.54c-.13-.21-.32-.4-.5-.66a3.17,3.17,0,0,0-.81-.7,7.37,7.37,0,0,1-.86-1.06c-.7-.83-1.33.93-1.86,1.26a2,2,0,0,0-1,1c-.06.16-.32,1.66-.13,1.67a1,1,0,0,0,.82-.23,4.62,4.62,0,0,1,.83-.47c.06.21.54,1,.8,1.07.61.18,1-.72,1.27-1,.18.36.77,1,1.21.88C694.51,776.63,695.11,776.12,694.74,775.54Z"/><path d="M692.33,768.54a3.24,3.24,0,0,0,1.32,3.06c.45.3,1,.84,1.53.75a3.28,3.28,0,0,0-1-2.22,10.85,10.85,0,0,0-1.12-.74C693,769.29,692.32,768.68,692.33,768.54Z"/><path d="M691.89,769a3.24,3.24,0,0,1-1.32,3.07c-.44.29-1,.84-1.53.74a3.25,3.25,0,0,1,1-2.21c.33-.31.77-.47,1.12-.74C691.26,769.75,691.9,769.14,691.89,769Z"/><path d="M615.44,666.1l0,9.14h0a.51.51,0,0,0,.49.5.5.5,0,0,0,.5-.5h0l.05-9.13h0a.5.5,0,0,0-1,0Z"/><path d="M618.48,676.69c-.13-.21-.32-.4-.5-.67a3.3,3.3,0,0,0-.81-.69,8.66,8.66,0,0,1-.86-1.06c-.7-.83-1.33.92-1.87,1.25a2,2,0,0,0-1,1c-.06.15-.33,1.65-.13,1.66a1,1,0,0,0,.82-.22,4.14,4.14,0,0,1,.83-.48,2.46,2.46,0,0,0,.8,1.07c.61.19,1-.72,1.27-1,.18.36.76,1,1.21.89C618.25,677.78,618.85,677.27,618.48,676.69Z"/><path d="M616.07,669.68a3.24,3.24,0,0,0,1.32,3.07c.44.29,1,.83,1.53.74a3.28,3.28,0,0,0-1-2.22c-.33-.3-.76-.47-1.12-.74C616.71,670.43,616.06,669.83,616.07,669.68Z"/><path d="M615.63,670.14a3.22,3.22,0,0,1-1.32,3.06c-.44.3-.95.84-1.53.74a3.27,3.27,0,0,1,1-2.21c.33-.31.77-.47,1.12-.74C615,670.89,615.64,670.28,615.63,670.14Z"/><path d="M845.22,777.43l0-9.13h0a.5.5,0,0,0-1,0h0l0,9.14h0a.5.5,0,0,0,1,0Z"/><path d="M847.26,766.85c-.13.21-.31.4-.49.67a3.35,3.35,0,0,1-.82.69,7.31,7.31,0,0,0-.85,1.06c-.71.83-1.34-.92-1.87-1.25a2,2,0,0,1-1-1c-.07-.15-.33-1.65-.14-1.66a1,1,0,0,1,.83.22,3.4,3.4,0,0,0,.82.47,2.67,2.67,0,0,1,.8-1.06c.61-.19,1,.72,1.27,1,.18-.37.77-1,1.21-.89C847,765.76,847.63,766.27,847.26,766.85Z"/><path d="M844.85,773.86a3.29,3.29,0,0,1,1.32-3.07c.45-.29,1-.83,1.53-.74a3.27,3.27,0,0,1-1,2.21,12.2,12.2,0,0,1-1.13.74C845.49,773.11,844.84,773.71,844.85,773.86Z"/><path d="M844.41,773.4a3.26,3.26,0,0,0-1.31-3.07c-.45-.29-1-.83-1.54-.74a3.37,3.37,0,0,0,1,2.22c.33.3.77.47,1.12.74C843.78,772.65,844.42,773.25,844.41,773.4Z"/><path d="M769,678.57l0-9.13h0a.5.5,0,0,0-1,0h0l0,9.14h0a.5.5,0,0,0,1,0Z"/><path d="M771,668c-.13.21-.32.41-.5.67s-.52.45-.81.7a7.1,7.1,0,0,0-.85,1c-.71.83-1.34-.92-1.87-1.25a2.07,2.07,0,0,1-1-1c-.06-.16-.32-1.66-.13-1.67a1,1,0,0,1,.82.22,4.14,4.14,0,0,0,.83.48c.06-.21.54-1,.8-1.07.61-.19,1,.72,1.27,1,.18-.36.77-1,1.21-.89C770.77,666.9,771.37,667.42,771,668Z"/><path d="M768.59,675a3.27,3.27,0,0,1,1.32-3.07c.45-.29,1-.83,1.53-.74a3.31,3.31,0,0,1-1,2.22c-.33.3-.77.47-1.13.74C769.23,674.25,768.58,674.85,768.59,675Z"/><path d="M768.15,674.54a3.23,3.23,0,0,0-1.32-3.06c-.44-.3-1-.84-1.53-.74a3.32,3.32,0,0,0,1,2.21c.33.31.77.47,1.12.74C767.52,673.79,768.16,674.4,768.15,674.54Z"/></g></svg>