<svg id="Capa_1" data-name="Capa 1" xmlns="http://www.w3.org/2000/svg" viewBox="0 0 850.39 850.39"><defs><style>.cls-1{fill:#1d1d1b;}</style></defs><path class="cls-1" d="M167.9,8.63a16,16,0,0,0,.63,2.07,11.05,11.05,0,0,1,.7,2.68c0,.4,0,.83,0,1.24,0,.22,0,.44,0,.66h0a.45.45,0,0,0,.89,0h0c0-.21,0-.42,0-.63a12.18,12.18,0,0,0,0-1.35,12.24,12.24,0,0,0-.75-2.9,15.48,15.48,0,0,1-.6-2h0a.44.44,0,0,0-.52-.35.45.45,0,0,0-.35.53Z"/><path class="cls-1" d="M170.19,3.53A2.93,2.93,0,0,0,168,4.58a2.55,2.55,0,0,0-.6,1.39c0,.16-.07.33-.11.5h0a.44.44,0,1,0,.85.24h0a5,5,0,0,0,.13-.57,1.76,1.76,0,0,1,.39-1,2.11,2.11,0,0,1,1.49-.76h0a.45.45,0,0,0,.46-.44.44.44,0,0,0-.43-.45Z"/><path class="cls-1" d="M164,7.21a2.66,2.66,0,0,0,1.74,1.93,3.73,3.73,0,0,0,3.59-.61,5.46,5.46,0,0,0,1.4-4.28h0a.45.45,0,1,0-.89,0h0c0,1.56-.19,2.77-1.12,3.62a2.8,2.8,0,0,1-2.71.42,1.83,1.83,0,0,1-1.13-1.21h0a.46.46,0,0,0-.51-.38.45.45,0,0,0-.37.51Z"/><path class="cls-1" d="M167.71,6a1.91,1.91,0,0,1-.6-.27,2.11,2.11,0,0,0-1.52-.35,2.86,2.86,0,0,0-1.59,1h0a.44.44,0,1,0,.66.59h0a2.12,2.12,0,0,1,1.07-.75,1.23,1.23,0,0,1,.93.24,2.71,2.71,0,0,0,.85.37h0a.45.45,0,0,0,.54-.33.46.46,0,0,0-.34-.54Z"/><path class="cls-1" d="M166.32,3.08a3.4,3.4,0,0,0,.58.38,1.86,1.86,0,0,1,.45.3,4.3,4.3,0,0,1,.48.55l.22.28h0a.46.46,0,0,0,.63.06.44.44,0,0,0,0-.63h0l-.19-.25A4.57,4.57,0,0,0,168,3.1a3.09,3.09,0,0,0-.62-.42,2.89,2.89,0,0,1-.43-.27h0a.45.45,0,0,0-.63,0,.44.44,0,0,0,0,.63Z"/><path class="cls-1" d="M166.39,5.75c0-.1,0-.22,0-.34,0-.69,0-1.72.42-2h0a.45.45,0,0,0-.49-.75h0c-.86.56-.84,1.84-.82,2.78,0,.12,0,.23,0,.32h0a.45.45,0,1,0,.89,0Z"/><path class="cls-1" d="M169.42,12.37a2.87,2.87,0,0,0-.28-.86,2.75,2.75,0,0,0-1.75-.91c-.34,0-1.49.05-1.31.65.1.34,1.4.55,1.7.78.57.43.88,1.08,1.55,1.23C169.55,13.31,169.52,12.84,169.42,12.37Z"/><path class="cls-1" d="M171.4,9.59a1.93,1.93,0,0,0-.58.09A2.76,2.76,0,0,0,169,12c-.1.67.78.48,1.07.22s.47-1,.81-1.45S171.94,9.63,171.4,9.59Z"/><path class="cls-1" d="M316.17,8.49a14.5,14.5,0,0,1-1.79,1A11.81,11.81,0,0,0,311.82,11c-.34.3-.65.63-.95,1-.14.16-.29.31-.43.46h0a.45.45,0,0,0,.64.62h0l.45-.47a10.35,10.35,0,0,1,.87-.88,11,11,0,0,1,2.37-1.43,14.65,14.65,0,0,0,1.9-1h0a.45.45,0,0,0-.5-.74Z"/><path class="cls-1" d="M318,4.65a2.08,2.08,0,0,1,.54,1.57,1.84,1.84,0,0,1-.4,1c-.09.14-.2.3-.3.49h0a.43.43,0,0,0,.18.6.44.44,0,0,0,.6-.17h0a3.52,3.52,0,0,1,.27-.43,2.69,2.69,0,0,0,.54-1.42A3,3,0,0,0,318.6,4h0A.44.44,0,0,0,318,4a.44.44,0,0,0,0,.63Z"/><path class="cls-1" d="M319.92,10.22a1.85,1.85,0,0,1-1.66.09,2.84,2.84,0,0,1-1.65-2.2c-.07-1.25.64-2.25,1.73-3.36h0a.45.45,0,1,0-.64-.62h0c-1.08,1.11-2.07,2.36-2,4a3.72,3.72,0,0,0,2.14,2.94,2.7,2.7,0,0,0,2.59-.16h0a.45.45,0,0,0-.53-.72Z"/><path class="cls-1" d="M318.15,8.27a2.63,2.63,0,0,0,.87.33,1.24,1.24,0,0,1,.83.48,2.15,2.15,0,0,1,.24,1.28h0a.44.44,0,0,0,.43.46.45.45,0,0,0,.46-.43h0a2.89,2.89,0,0,0-.42-1.85,2.05,2.05,0,0,0-1.33-.8,2.12,2.12,0,0,1-.62-.23h0a.44.44,0,1,0-.46.76Z"/><path class="cls-1" d="M321.73,5.48a3,3,0,0,1-.49-.1,3.23,3.23,0,0,0-.75-.14,5,5,0,0,0-.89.07l-.31,0h0a.46.46,0,0,0-.4.49.45.45,0,0,0,.49.4h0l.35,0a4.68,4.68,0,0,1,.73-.06,2.25,2.25,0,0,1,.54.11,4.32,4.32,0,0,0,.68.13h0a.45.45,0,0,0,.47-.42.45.45,0,0,0-.42-.47Z"/><path class="cls-1" d="M320.4,8.85l.23-.23c.67-.66,1.58-1.56,1.35-2.56h0a.43.43,0,0,0-.53-.33.45.45,0,0,0-.34.53h0c.12.52-.62,1.24-1.11,1.72l-.24.25h0a.44.44,0,0,0,0,.63.45.45,0,0,0,.63,0Z"/><path class="cls-1" d="M313,10.84a3.25,3.25,0,0,1,.8-.42,2.74,2.74,0,0,1,1.89.57c.26.22,1,1.07.48,1.38-.3.17-1.38-.58-1.76-.63-.71-.08-1.39.16-2-.2C312.22,11.42,312.57,11.11,313,10.84Z"/><path class="cls-1" d="M313.5,7.48a2.15,2.15,0,0,1,.34.46,2.77,2.77,0,0,1-.3,2.91c-.4.55-.9-.2-.93-.59,0-.55.38-1.06.44-1.59S313.08,7.13,313.5,7.48Z"/><path class="cls-1" d="M241.13,85.46A14.59,14.59,0,0,1,239.78,87a12.18,12.18,0,0,0-1.87,2.33,13.23,13.23,0,0,0-.56,1.22l-.25.58h0a.45.45,0,1,0,.81.37h0c.09-.2.18-.4.26-.6a11.73,11.73,0,0,1,.52-1.13,10.65,10.65,0,0,1,1.74-2.16A14.81,14.81,0,0,0,241.85,86h0a.44.44,0,0,0-.72-.52Z"/><path class="cls-1" d="M241.52,81.21a2.12,2.12,0,0,1,1,1.3,1.72,1.72,0,0,1,0,1c0,.17-.08.36-.11.57h0a.43.43,0,0,0,.37.5.44.44,0,0,0,.51-.37h0a3.69,3.69,0,0,1,.1-.5,2.51,2.51,0,0,0,0-1.52,3,3,0,0,0-1.55-1.85h0a.44.44,0,0,0-.34.82Z"/><path class="cls-1" d="M245.24,85.8a1.84,1.84,0,0,1-1.53.65,2.82,2.82,0,0,1-2.3-1.5c-.49-1.15-.17-2.33.47-3.76h0a.45.45,0,0,0-.22-.59.44.44,0,0,0-.59.23h0c-.64,1.41-1.14,2.94-.48,4.47a3.74,3.74,0,0,0,3,2,2.72,2.72,0,0,0,2.38-1h0a.45.45,0,0,0-.75-.49Z"/><path class="cls-1" d="M242.91,84.57a2.68,2.68,0,0,0,.93,0,1.22,1.22,0,0,1,.95.16,2.19,2.19,0,0,1,.66,1.12h0a.45.45,0,0,0,.85-.27h0a2.9,2.9,0,0,0-1-1.6,2.1,2.1,0,0,0-1.52-.3,1.89,1.89,0,0,1-.67,0h0a.44.44,0,0,0-.17.87Z"/><path class="cls-1" d="M245.31,80.72a2.51,2.51,0,0,1-.5.07,3,3,0,0,0-.74.13,4.63,4.63,0,0,0-.81.37l-.28.15h0a.45.45,0,0,0,.39.8h0l.31-.16a4.08,4.08,0,0,1,.67-.32,2.19,2.19,0,0,1,.54-.08,3.43,3.43,0,0,0,.68-.11h0a.44.44,0,1,0-.26-.85Z"/><path class="cls-1" d="M245.22,84.34l.14-.29c.4-.85.95-2,.39-2.87h0a.43.43,0,0,0-.61-.13.44.44,0,0,0-.14.61h0c.29.45-.15,1.39-.45,2-.05.11-.1.21-.14.31h0a.45.45,0,0,0,.22.59.44.44,0,0,0,.59-.23Z"/><path class="cls-1" d="M238.93,88.77a3.47,3.47,0,0,1,.61-.68,2.76,2.76,0,0,1,2-.1c.33.11,1.34.65.93,1.13-.23.26-1.5-.07-1.87,0-.69.16-1.24.63-1.91.49C238.42,89.57,238.65,89.16,238.93,88.77Z"/><path class="cls-1" d="M238.27,85.42a2.41,2.41,0,0,1,.49.32,2.76,2.76,0,0,1,.7,2.84c-.18.66-.9.12-1.06-.24s0-1.12-.14-1.65S237.76,85.24,238.27,85.42Z"/><path class="cls-1" d="M169,162a14.09,14.09,0,0,0-1.83-1.16,11,11,0,0,1-2.28-1.56c-.29-.29-.56-.62-.83-.94s-.27-.34-.41-.5h0a.45.45,0,1,0-.68.58h0l.4.48a10.66,10.66,0,0,0,.9,1,11.27,11.27,0,0,0,2.46,1.7,15.45,15.45,0,0,1,1.73,1.09h0a.45.45,0,0,0,.63-.08A.44.44,0,0,0,169,162Z"/><path class="cls-1" d="M170.59,167.38a3,3,0,0,0,.95-2.22,2.6,2.6,0,0,0-.46-1.45,4.73,4.73,0,0,1-.23-.45h0a.45.45,0,0,0-.6-.21.44.44,0,0,0-.21.59h0c.09.19.19.36.27.51a1.76,1.76,0,0,1,.34,1,2.11,2.11,0,0,1-.63,1.55h0a.45.45,0,0,0-.06.63.46.46,0,0,0,.63.06Z"/><path class="cls-1" d="M172.85,160.54a2.68,2.68,0,0,0-2.58-.32A3.71,3.71,0,0,0,168,163c-.19,1.66.72,3,1.74,4.15h0a.45.45,0,0,0,.63,0,.44.44,0,0,0,0-.63h0c-1-1.17-1.67-2.21-1.52-3.46a2.79,2.79,0,0,1,1.77-2.1,1.83,1.83,0,0,1,1.65.18h0a.45.45,0,0,0,.63-.05.44.44,0,0,0-.05-.63Z"/><path class="cls-1" d="M170.81,163.86a2.1,2.1,0,0,1,.63-.2,2,2,0,0,0,1.37-.72,2.89,2.89,0,0,0,.54-1.83h0a.45.45,0,0,0-.44-.46.46.46,0,0,0-.46.44h0a2.17,2.17,0,0,1-.31,1.27,1.26,1.26,0,0,1-.86.43,2.82,2.82,0,0,0-.89.28h0a.44.44,0,0,0-.18.6.44.44,0,0,0,.6.19Z"/><path class="cls-1" d="M173.8,165.18a3.5,3.5,0,0,0-.68.09,2.71,2.71,0,0,1-.55.08,4.85,4.85,0,0,1-.72-.11l-.35-.07h0a.46.46,0,0,0-.51.37.45.45,0,0,0,.37.51h0l.31.06a4.91,4.91,0,0,0,.88.13,2.84,2.84,0,0,0,.75-.1,3.32,3.32,0,0,1,.5-.07h0a.45.45,0,0,0,.45-.45.45.45,0,0,0-.45-.44Z"/><path class="cls-1" d="M172,163.21l.22.25c.47.51,1.16,1.28,1,1.79h0a.45.45,0,1,0,.86.25h0c.29-1-.58-1.94-1.2-2.64l-.22-.24h0a.45.45,0,1,0-.67.59Z"/><path class="cls-1" d="M165.37,160.19a2.82,2.82,0,0,0,.78.47,2.69,2.69,0,0,0,1.91-.46c.29-.2,1.1-1,.57-1.35-.29-.19-1.42.5-1.8.52-.7,0-1.37-.23-2,.09C164.66,159.57,165,159.9,165.37,160.19Z"/><path class="cls-1" d="M165.7,163.59a2.19,2.19,0,0,0,.38-.45,2.78,2.78,0,0,0-.14-2.92c-.36-.58-.9.14-1,.53-.07.55.32,1.08.35,1.62S165.27,163.91,165.7,163.59Z"/><path class="cls-1" d="M314.86,161a16,16,0,0,1,1.28,1.6,11.33,11.33,0,0,0,2,2.25,11.47,11.47,0,0,0,1.1.77l.52.34h0a.45.45,0,0,0,.51-.73h0l-.55-.36a10.85,10.85,0,0,1-1-.71,10.51,10.51,0,0,1-1.81-2.09,18,18,0,0,0-1.36-1.69h0a.45.45,0,0,0-.63,0,.44.44,0,0,0,0,.63Z"/><path class="cls-1" d="M310.75,159.92a2.1,2.1,0,0,1,1.46-.8,1.7,1.7,0,0,1,1,.22,4.69,4.69,0,0,0,.54.21h0a.44.44,0,1,0,.28-.84h0a4.89,4.89,0,0,1-.46-.19,2.69,2.69,0,0,0-1.5-.29,3,3,0,0,0-2.09,1.21h0a.44.44,0,0,0,.14.61.43.43,0,0,0,.61-.13Z"/><path class="cls-1" d="M315.91,157.05a1.84,1.84,0,0,1,.37,1.62,2.82,2.82,0,0,1-1.87,2c-1.22.28-2.33-.24-3.61-1.12h0a.44.44,0,0,0-.62.12.45.45,0,0,0,.11.62h0c1.29.87,2.7,1.63,4.32,1.25a3.73,3.73,0,0,0,2.53-2.62,2.7,2.7,0,0,0-.62-2.52h0a.45.45,0,0,0-.63,0,.44.44,0,0,0,0,.63Z"/><path class="cls-1" d="M314.3,159.14a2.62,2.62,0,0,0,.17-.92,1.23,1.23,0,0,1,.33-.9,2.09,2.09,0,0,1,1.22-.46h0a.45.45,0,0,0,.38-.5.43.43,0,0,0-.5-.38h0a2.85,2.85,0,0,0-1.75.73,2.09,2.09,0,0,0-.57,1.45,1.81,1.81,0,0,1-.11.65h0a.45.45,0,1,0,.83.33Z"/><path class="cls-1" d="M310.93,156.09a3,3,0,0,1,0,.51,3.7,3.7,0,0,0,0,.75,6.46,6.46,0,0,0,.23.87c0,.11.07.21.1.3h0a.44.44,0,1,0,.85-.25h0c0-.11-.06-.21-.1-.33a4,4,0,0,1-.19-.71,2,2,0,0,1,0-.55,3.15,3.15,0,0,0,0-.69h0a.45.45,0,0,0-.49-.39.44.44,0,0,0-.39.49Z"/><path class="cls-1" d="M314.48,156.82l-.27-.19c-.76-.54-1.81-1.28-2.75-.89h0a.45.45,0,0,0-.24.59.44.44,0,0,0,.58.23h0c.49-.2,1.34.4,1.89.8l.28.2h0a.46.46,0,0,0,.62-.12.45.45,0,0,0-.11-.62Z"/><path class="cls-1" d="M317.73,163.79a3.24,3.24,0,0,1-.56-.72,2.7,2.7,0,0,1,.24-1.95c.16-.3.87-1.21,1.27-.72.22.27-.33,1.47-.31,1.85,0,.7.4,1.33.15,2C318.43,164.43,318.06,164.14,317.73,163.79Z"/><path class="cls-1" d="M314.33,163.85a1.9,1.9,0,0,1,.39-.42,2.77,2.77,0,0,1,2.92-.2c.61.29,0,.92-.42,1-.54.13-1.11-.19-1.65-.15S314.05,164.33,314.33,163.85Z"/><path class="cls-1" d="M241.3,235.38a14.53,14.53,0,0,1-1.79,1,11.77,11.77,0,0,0-2.56,1.54c-.34.3-.65.63-.95,1-.14.16-.29.31-.43.46h0a.44.44,0,0,0,0,.63.45.45,0,0,0,.63,0h0l.45-.48a10.35,10.35,0,0,1,.87-.88,11,11,0,0,1,2.37-1.42,16,16,0,0,0,1.9-1h0a.44.44,0,0,0,.12-.62.45.45,0,0,0-.62-.12Z"/><path class="cls-1" d="M243.12,231.54a2.08,2.08,0,0,1,.54,1.57,1.84,1.84,0,0,1-.4,1c-.09.14-.2.31-.3.49h0a.45.45,0,1,0,.78.43h0c.09-.16.18-.3.27-.43a2.61,2.61,0,0,0,.54-1.42,3,3,0,0,0-.82-2.27h0a.45.45,0,0,0-.63,0,.44.44,0,0,0,0,.63Z"/><path class="cls-1" d="M245.05,237.11a1.82,1.82,0,0,1-1.66.09,2.82,2.82,0,0,1-1.65-2.2c-.07-1.24.64-2.24,1.73-3.36h0a.45.45,0,1,0-.64-.62h0c-1.08,1.11-2.07,2.37-2,4A3.71,3.71,0,0,0,243,238a2.7,2.7,0,0,0,2.59-.16h0a.45.45,0,0,0,.09-.63.45.45,0,0,0-.62-.09Z"/><path class="cls-1" d="M243.28,235.16a2.93,2.93,0,0,0,.87.34,1.2,1.2,0,0,1,.83.48,2,2,0,0,1,.24,1.27h0a.44.44,0,0,0,.43.46.44.44,0,0,0,.46-.42h0a2.92,2.92,0,0,0-.42-1.86,2.14,2.14,0,0,0-1.33-.8,1.87,1.87,0,0,1-.62-.23h0a.44.44,0,0,0-.46.76Z"/><path class="cls-1" d="M246.86,232.37a2.25,2.25,0,0,1-.49-.1,3.23,3.23,0,0,0-.75-.14,5.1,5.1,0,0,0-.89.07l-.31.05h0a.44.44,0,1,0,.09.88h0l.35,0a3.75,3.75,0,0,1,.73-.07,2.88,2.88,0,0,1,.54.11,2.83,2.83,0,0,0,.68.13h0a.45.45,0,0,0,.47-.42.45.45,0,0,0-.42-.47Z"/><path class="cls-1" d="M245.53,235.74l.23-.23c.67-.66,1.58-1.56,1.35-2.56h0a.43.43,0,0,0-.53-.33.45.45,0,0,0-.34.53h0c.12.52-.62,1.24-1.11,1.73l-.24.24h0a.45.45,0,0,0,.64.62Z"/><path class="cls-1" d="M238.1,237.74a3,3,0,0,1,.8-.43,2.74,2.74,0,0,1,1.89.57c.26.22,1,1.07.49,1.38-.31.17-1.39-.58-1.77-.63-.71-.08-1.39.16-2-.2C237.35,238.32,237.7,238,238.1,237.74Z"/><path class="cls-1" d="M238.63,234.37a2.49,2.49,0,0,1,.35.46,2.79,2.79,0,0,1-.31,2.91c-.4.55-.9-.19-.93-.59,0-.55.38-1.06.44-1.59S238.21,234,238.63,234.37Z"/><path class="cls-1" d="M389.64,236.8a15.69,15.69,0,0,1,1.34-1.54,11.45,11.45,0,0,0,1.87-2.33,12.37,12.37,0,0,0,.57-1.23c.08-.2.16-.39.25-.57h0a.44.44,0,0,0-.23-.59.45.45,0,0,0-.59.22h0c-.09.2-.17.4-.25.6a10.62,10.62,0,0,1-.53,1.13,10.94,10.94,0,0,1-1.73,2.16,16,16,0,0,0-1.43,1.63h0a.45.45,0,0,0,.73.52Z"/><path class="cls-1" d="M389.24,241.05a2.15,2.15,0,0,1-1-1.31,1.77,1.77,0,0,1,0-1c0-.17.09-.36.12-.57h0a.44.44,0,0,0-.38-.5.43.43,0,0,0-.5.37h0c0,.17-.07.34-.11.5a2.68,2.68,0,0,0,0,1.52,3,3,0,0,0,1.55,1.85h0a.46.46,0,0,0,.59-.24.45.45,0,0,0-.25-.58Z"/><path class="cls-1" d="M385.52,236.46a1.85,1.85,0,0,1,1.53-.65,2.81,2.81,0,0,1,2.3,1.5c.5,1.15.17,2.34-.47,3.76h0a.45.45,0,0,0,.82.36h0c.63-1.41,1.13-2.93.47-4.47a3.7,3.7,0,0,0-3-2,2.71,2.71,0,0,0-2.38,1.05h0a.44.44,0,1,0,.74.49Z"/><path class="cls-1" d="M387.86,237.69a2.74,2.74,0,0,0-.94,0,1.19,1.19,0,0,1-.94-.16,2.06,2.06,0,0,1-.66-1.12h0a.44.44,0,0,0-.56-.29.43.43,0,0,0-.29.56h0a2.79,2.79,0,0,0,1,1.6,2.09,2.09,0,0,0,1.52.3,1.83,1.83,0,0,1,.66,0h0a.44.44,0,0,0,.18-.87Z"/><path class="cls-1" d="M385.45,241.54a2.51,2.51,0,0,1,.5-.07,3,3,0,0,0,.74-.13,4.74,4.74,0,0,0,.82-.37l.27-.15h0a.45.45,0,1,0-.39-.8h0l-.31.16a4.42,4.42,0,0,1-.66.32,3.05,3.05,0,0,1-.54.08,3.32,3.32,0,0,0-.68.11h0a.44.44,0,1,0,.25.85Z"/><path class="cls-1" d="M385.54,237.92l-.14.29c-.4.85-.94,2-.39,2.87h0a.44.44,0,0,0,.62.13.43.43,0,0,0,.13-.61h0c-.28-.45.16-1.39.45-2l.15-.31h0a.45.45,0,1,0-.82-.36Z"/><path class="cls-1" d="M391.84,233.49a3,3,0,0,1-.61.67,2.74,2.74,0,0,1-2,.11c-.32-.11-1.34-.65-.93-1.13.23-.26,1.5.07,1.87,0,.69-.16,1.25-.63,1.92-.49C392.34,232.69,392.12,233.1,391.84,233.49Z"/><path class="cls-1" d="M392.49,236.83a1.91,1.91,0,0,1-.48-.31,2.78,2.78,0,0,1-.71-2.84c.18-.66.91-.13,1.07.24s0,1.12.14,1.65S393,237,392.49,236.83Z"/><path class="cls-1" d="M389.29,85.49a15.24,15.24,0,0,0-1.83-1.16,11,11,0,0,1-2.28-1.56,10.91,10.91,0,0,1-.83-.94l-.41-.5h0a.45.45,0,0,0-.63,0,.44.44,0,0,0-.05.63h0c.14.15.27.31.4.48A9.15,9.15,0,0,0,387,85.11a14.13,14.13,0,0,1,1.73,1.09h0a.45.45,0,0,0,.63-.09.44.44,0,0,0-.09-.62Z"/><path class="cls-1" d="M390.91,90.84a3,3,0,0,0,.95-2.22,2.55,2.55,0,0,0-.46-1.45c-.08-.14-.16-.29-.23-.44h0a.45.45,0,0,0-.6-.22.44.44,0,0,0-.21.59h0c.09.2.19.37.27.52a1.74,1.74,0,0,1,.34,1,2.09,2.09,0,0,1-.63,1.54h0a.45.45,0,1,0,.57.69Z"/><path class="cls-1" d="M393.17,84a2.74,2.74,0,0,0-2.58-.32,3.71,3.71,0,0,0-2.31,2.82A5.42,5.42,0,0,0,390,90.65h0a.44.44,0,0,0,.63,0,.44.44,0,0,0,0-.63h0c-1-1.18-1.67-2.22-1.52-3.47A2.8,2.8,0,0,1,391,84.5a1.84,1.84,0,0,1,1.64.18h0a.45.45,0,0,0,.58-.68Z"/><path class="cls-1" d="M391.13,87.32a2.08,2.08,0,0,1,.63-.19,2.07,2.07,0,0,0,1.37-.73,2.87,2.87,0,0,0,.54-1.83h0a.45.45,0,0,0-.44-.45.43.43,0,0,0-.45.44h0a2.18,2.18,0,0,1-.32,1.26,1.18,1.18,0,0,1-.86.43,3.1,3.1,0,0,0-.89.28h0a.45.45,0,0,0-.18.61.44.44,0,0,0,.6.18Z"/><path class="cls-1" d="M394.12,88.64a3.47,3.47,0,0,0-.68.1,2.13,2.13,0,0,1-.55.07,3.77,3.77,0,0,1-.72-.1l-.35-.07h0a.44.44,0,0,0-.51.37.45.45,0,0,0,.37.51h0l.31.06a4.91,4.91,0,0,0,.88.12,2.86,2.86,0,0,0,.75-.09,2.4,2.4,0,0,1,.5-.07h0a.45.45,0,0,0,.45-.45.45.45,0,0,0-.45-.45Z"/><path class="cls-1" d="M392.32,86.67l.22.26c.47.51,1.16,1.28,1,1.79h0a.45.45,0,0,0,.3.55.45.45,0,0,0,.56-.3h0c.29-1-.58-1.94-1.2-2.64l-.22-.24h0a.44.44,0,0,0-.63,0,.45.45,0,0,0,0,.63Z"/><path class="cls-1" d="M385.69,83.65a3.27,3.27,0,0,0,.78.48,2.79,2.79,0,0,0,1.92-.47c.28-.19,1.09-1,.57-1.34-.3-.2-1.43.5-1.81.52-.7,0-1.37-.24-2,.08C385,83,385.31,83.36,385.69,83.65Z"/><path class="cls-1" d="M386,87.05a1.83,1.83,0,0,0,.38-.44,2.77,2.77,0,0,0-.14-2.93c-.36-.57-.9.15-1,.54-.07.55.32,1.08.35,1.62S385.59,87.38,386,87.05Z"/><path class="cls-1" d="M167.9,311.72a15.66,15.66,0,0,0,.63,2.08,11.1,11.1,0,0,1,.7,2.67c0,.4,0,.83,0,1.25,0,.21,0,.43,0,.65h0a.45.45,0,1,0,.89,0h0c0-.2,0-.41,0-.63a12,12,0,0,0,0-1.34,12.12,12.12,0,0,0-.75-2.9,15.12,15.12,0,0,1-.6-2h0a.44.44,0,0,0-.52-.34.44.44,0,0,0-.35.52Z"/><path class="cls-1" d="M170.19,306.62a3,3,0,0,0-2.18,1.05,2.55,2.55,0,0,0-.6,1.4c0,.16-.07.32-.11.49h0a.44.44,0,0,0,.85.25h0a5.58,5.58,0,0,0,.13-.57,1.79,1.79,0,0,1,.39-1,2.11,2.11,0,0,1,1.49-.76h0a.45.45,0,1,0,0-.89Z"/><path class="cls-1" d="M164,310.31a2.68,2.68,0,0,0,1.74,1.93,3.71,3.71,0,0,0,3.59-.62c1.23-1.13,1.4-2.72,1.4-4.28h0a.45.45,0,0,0-.89,0h0c0,1.56-.19,2.78-1.12,3.63a2.83,2.83,0,0,1-2.71.42,1.83,1.83,0,0,1-1.13-1.22h0a.45.45,0,0,0-.88.14Z"/><path class="cls-1" d="M167.71,309.14a2.5,2.5,0,0,1-.6-.27,2.06,2.06,0,0,0-1.52-.35,2.78,2.78,0,0,0-1.59,1h0a.45.45,0,1,0,.66.6h0a2.06,2.06,0,0,1,1.07-.75,1.23,1.23,0,0,1,.93.24,3,3,0,0,0,.85.37h0a.46.46,0,0,0,.54-.34.45.45,0,0,0-.34-.53Z"/><path class="cls-1" d="M166.32,306.18a2.83,2.83,0,0,0,.58.37,2.7,2.7,0,0,1,.45.3,4.41,4.41,0,0,1,.48.56l.22.28h0a.45.45,0,0,0,.63.05.43.43,0,0,0,0-.62h0l-.19-.25a5.21,5.21,0,0,0-.59-.68,3.57,3.57,0,0,0-.62-.42,2.25,2.25,0,0,1-.43-.27h0a.45.45,0,1,0-.58.68Z"/><path class="cls-1" d="M166.39,308.85c0-.11,0-.22,0-.34,0-.69,0-1.73.42-2h0a.45.45,0,0,0-.49-.75h0c-.86.56-.84,1.85-.82,2.79,0,.11,0,.22,0,.32h0a.45.45,0,0,0,.89,0Z"/><path class="cls-1" d="M169.42,315.47a3,3,0,0,0-.28-.87,2.69,2.69,0,0,0-1.75-.9c-.34,0-1.49,0-1.31.64.1.34,1.4.56,1.7.79.57.43.88,1.08,1.55,1.23C169.55,316.41,169.52,315.94,169.42,315.47Z"/><path class="cls-1" d="M171.4,312.69a1.84,1.84,0,0,0-.58.08,2.78,2.78,0,0,0-1.81,2.3c-.1.68.78.49,1.07.23s.47-1,.81-1.45S171.94,312.72,171.4,312.69Z"/><path class="cls-1" d="M316.17,311.59a14.5,14.5,0,0,1-1.79,1,11.43,11.43,0,0,0-2.56,1.55,10.65,10.65,0,0,0-.95.95c-.14.16-.29.31-.43.46h0a.44.44,0,0,0,0,.63.45.45,0,0,0,.63,0h0l.45-.48a12.06,12.06,0,0,1,.87-.88,11.37,11.37,0,0,1,2.37-1.42,14.72,14.72,0,0,0,1.9-1.05h0a.44.44,0,1,0-.5-.73Z"/><path class="cls-1" d="M318,307.74a2.09,2.09,0,0,1,.54,1.58,1.81,1.81,0,0,1-.4,1c-.09.15-.2.31-.3.5h0a.44.44,0,0,0,.78.42h0c.08-.15.18-.29.27-.43a2.62,2.62,0,0,0,.54-1.42,3,3,0,0,0-.82-2.27h0a.45.45,0,0,0-.63,0,.44.44,0,0,0,0,.63Z"/><path class="cls-1" d="M319.92,313.32a1.85,1.85,0,0,1-1.66.08,2.81,2.81,0,0,1-1.65-2.19c-.07-1.25.64-2.25,1.73-3.37h0a.44.44,0,0,0,0-.63.45.45,0,0,0-.63,0h0a5.45,5.45,0,0,0-2,4,3.72,3.72,0,0,0,2.14,2.94,2.7,2.7,0,0,0,2.59-.17h0a.44.44,0,1,0-.53-.71Z"/><path class="cls-1" d="M318.15,311.37a2.88,2.88,0,0,0,.87.33,1.2,1.2,0,0,1,.83.48,2.11,2.11,0,0,1,.24,1.27h0a.45.45,0,1,0,.89,0h0a2.88,2.88,0,0,0-.42-1.85,2.12,2.12,0,0,0-1.33-.81,2.09,2.09,0,0,1-.62-.22h0a.44.44,0,0,0-.61.14.45.45,0,0,0,.15.62Z"/><path class="cls-1" d="M321.73,308.57a1.78,1.78,0,0,1-.49-.1,3.23,3.23,0,0,0-.75-.14,5,5,0,0,0-.89.08l-.31,0h0a.46.46,0,0,0-.4.49.46.46,0,0,0,.49.4h0l.35,0a4.73,4.73,0,0,1,.73-.07,2.88,2.88,0,0,1,.54.11,2.83,2.83,0,0,0,.68.13h0a.44.44,0,0,0,.47-.41.46.46,0,0,0-.42-.48Z"/><path class="cls-1" d="M320.4,311.94c.07-.07.15-.14.23-.23.67-.65,1.58-1.55,1.35-2.55h0a.45.45,0,0,0-.53-.34.46.46,0,0,0-.34.54h0c.12.51-.62,1.24-1.11,1.72a2.72,2.72,0,0,1-.24.24h0a.45.45,0,1,0,.64.62Z"/><path class="cls-1" d="M313,313.94a3,3,0,0,1,.8-.43,2.8,2.8,0,0,1,1.89.58c.26.21,1,1.07.48,1.37-.3.18-1.38-.58-1.76-.62-.71-.09-1.39.16-2-.2C312.22,314.52,312.57,314.21,313,313.94Z"/><path class="cls-1" d="M313.5,310.58a1.72,1.72,0,0,1,.34.46,2.75,2.75,0,0,1-.3,2.9c-.4.56-.9-.19-.93-.58,0-.55.38-1.06.44-1.6S313.08,310.23,313.5,310.58Z"/><path class="cls-1" d="M241.13,388.55a13.65,13.65,0,0,1-1.35,1.54,12.24,12.24,0,0,0-1.87,2.34,11.18,11.18,0,0,0-.56,1.22l-.25.58h0a.45.45,0,0,0,.22.59.44.44,0,0,0,.59-.23h0c.09-.19.18-.4.26-.6.16-.38.33-.78.52-1.13a10.87,10.87,0,0,1,1.74-2.15,14.81,14.81,0,0,0,1.42-1.63h0a.45.45,0,1,0-.72-.53Z"/><path class="cls-1" d="M241.52,384.31a2.1,2.1,0,0,1,1,1.3,1.69,1.69,0,0,1,0,1c0,.17-.08.36-.11.57h0a.44.44,0,0,0,.37.51.45.45,0,0,0,.51-.38h0a3.86,3.86,0,0,1,.1-.49,2.52,2.52,0,0,0,0-1.52,2.92,2.92,0,0,0-1.55-1.85h0a.44.44,0,0,0-.58.24.45.45,0,0,0,.24.58Z"/><path class="cls-1" d="M245.24,388.9a1.87,1.87,0,0,1-1.53.65,2.85,2.85,0,0,1-2.3-1.5c-.49-1.16-.17-2.34.47-3.76h0a.45.45,0,1,0-.81-.37h0c-.64,1.42-1.14,2.94-.48,4.48a3.7,3.7,0,0,0,3,2,2.74,2.74,0,0,0,2.38-1h0a.46.46,0,0,0-.13-.62.44.44,0,0,0-.62.13Z"/><path class="cls-1" d="M242.91,387.67a2.91,2.91,0,0,0,.93,0,1.22,1.22,0,0,1,.95.17,2.19,2.19,0,0,1,.66,1.12h0a.45.45,0,0,0,.56.29.46.46,0,0,0,.29-.56h0a2.9,2.9,0,0,0-1-1.6,2,2,0,0,0-1.52-.3,2.16,2.16,0,0,1-.67,0h0a.45.45,0,0,0-.17.88Z"/><path class="cls-1" d="M245.31,383.81a2.49,2.49,0,0,1-.5.08,3.55,3.55,0,0,0-.74.12,5.52,5.52,0,0,0-.81.38l-.28.14h0a.45.45,0,0,0-.2.6.44.44,0,0,0,.59.2h0l.31-.16a4,4,0,0,1,.67-.31,2.76,2.76,0,0,1,.54-.09,2.8,2.8,0,0,0,.68-.1h0a.45.45,0,1,0-.26-.86Z"/><path class="cls-1" d="M245.22,387.44l.14-.3c.4-.85.95-2,.39-2.87h0a.45.45,0,0,0-.61-.13.45.45,0,0,0-.14.62h0c.29.44-.15,1.38-.45,2l-.14.32h0a.45.45,0,0,0,.81.37Z"/><path class="cls-1" d="M238.93,391.87a3.18,3.18,0,0,1,.61-.68,2.76,2.76,0,0,1,2-.11c.33.11,1.34.66.93,1.13-.23.27-1.5-.07-1.87,0-.69.16-1.24.62-1.91.49C238.42,392.67,238.65,392.25,238.93,391.87Z"/><path class="cls-1" d="M238.27,388.52a1.76,1.76,0,0,1,.49.32,2.74,2.74,0,0,1,.7,2.83c-.18.66-.9.13-1.06-.23s0-1.13-.14-1.65S237.76,388.33,238.27,388.52Z"/><path class="cls-1" d="M169,465.12a15.24,15.24,0,0,0-1.83-1.16,10.67,10.67,0,0,1-2.28-1.56,10.91,10.91,0,0,1-.83-.94l-.41-.49h0a.45.45,0,0,0-.68.58h0c.14.15.27.31.4.48a9.15,9.15,0,0,0,3.36,2.71,14.13,14.13,0,0,1,1.73,1.09h0a.46.46,0,0,0,.63-.08.45.45,0,0,0-.09-.63Z"/><path class="cls-1" d="M170.59,470.47a3,3,0,0,0,.95-2.21,2.64,2.64,0,0,0-.46-1.46,4.53,4.53,0,0,1-.23-.44h0a.45.45,0,0,0-.6-.22.44.44,0,0,0-.21.59h0c.09.2.19.37.27.52a1.76,1.76,0,0,1,.34,1,2.08,2.08,0,0,1-.63,1.54h0a.45.45,0,0,0,.57.69Z"/><path class="cls-1" d="M172.85,463.63a2.71,2.71,0,0,0-2.58-.31,3.7,3.7,0,0,0-2.31,2.81,5.42,5.42,0,0,0,1.74,4.15h0a.44.44,0,0,0,.63.05.44.44,0,0,0,0-.63h0c-1-1.18-1.67-2.22-1.52-3.47a2.81,2.81,0,0,1,1.77-2.1,1.86,1.86,0,0,1,1.65.18h0a.45.45,0,0,0,.58-.68Z"/><path class="cls-1" d="M170.81,467a2.08,2.08,0,0,1,.63-.19,2,2,0,0,0,1.37-.73,2.85,2.85,0,0,0,.54-1.83h0a.45.45,0,0,0-.44-.45.45.45,0,0,0-.46.44h0a2.11,2.11,0,0,1-.31,1.26,1.18,1.18,0,0,1-.86.43,2.86,2.86,0,0,0-.89.29h0a.45.45,0,0,0-.18.61.44.44,0,0,0,.6.18Z"/><path class="cls-1" d="M173.8,468.28a2.87,2.87,0,0,0-.68.09,2.13,2.13,0,0,1-.55.07,3.77,3.77,0,0,1-.72-.1l-.35-.07h0a.44.44,0,0,0-.51.37.45.45,0,0,0,.37.51h0l.31.06a4.91,4.91,0,0,0,.88.12,2.86,2.86,0,0,0,.75-.09,2.4,2.4,0,0,1,.5-.07h0a.45.45,0,1,0,0-.89Z"/><path class="cls-1" d="M172,466.3l.22.26c.47.51,1.16,1.28,1,1.79h0a.44.44,0,0,0,.3.55.45.45,0,0,0,.56-.3h0c.29-1-.58-1.94-1.2-2.64l-.22-.24h0a.44.44,0,0,0-.63-.05.45.45,0,0,0,0,.63Z"/><path class="cls-1" d="M165.37,463.28a3.27,3.27,0,0,0,.78.48,2.74,2.74,0,0,0,1.91-.46c.29-.2,1.1-1,.57-1.35-.29-.19-1.42.5-1.8.52-.7,0-1.37-.24-2,.08C164.66,462.66,165,463,165.37,463.28Z"/><path class="cls-1" d="M165.7,466.68a1.83,1.83,0,0,0,.38-.44,2.79,2.79,0,0,0-.14-2.93c-.36-.57-.9.15-1,.54-.07.55.32,1.08.35,1.62S165.27,467,165.7,466.68Z"/><path class="cls-1" d="M314.86,464.14a15.87,15.87,0,0,1,1.28,1.59,11.67,11.67,0,0,0,2,2.26c.35.28.73.53,1.1.77l.52.34h0a.44.44,0,0,0,.62-.12.45.45,0,0,0-.11-.62h0l-.55-.35c-.35-.23-.71-.46-1-.71a10.8,10.8,0,0,1-1.81-2.09,16.76,16.76,0,0,0-1.36-1.69h0a.44.44,0,0,0-.63,0,.43.43,0,0,0,0,.63Z"/><path class="cls-1" d="M310.75,463a2.13,2.13,0,0,1,1.46-.8,1.78,1.78,0,0,1,1,.23l.54.21h0a.45.45,0,0,0,.28-.85h0a4.9,4.9,0,0,1-.46-.18,2.53,2.53,0,0,0-1.5-.29,2.94,2.94,0,0,0-2.09,1.2h0a.45.45,0,0,0,.14.62.44.44,0,0,0,.61-.14Z"/><path class="cls-1" d="M315.91,460.15a1.84,1.84,0,0,1,.37,1.62,2.84,2.84,0,0,1-1.87,2c-1.22.28-2.33-.25-3.61-1.13h0a.46.46,0,0,0-.62.12.45.45,0,0,0,.11.62h0c1.29.88,2.7,1.63,4.32,1.25a3.7,3.7,0,0,0,2.53-2.61,2.72,2.72,0,0,0-.62-2.53h0a.45.45,0,1,0-.61.65Z"/><path class="cls-1" d="M314.3,462.23a2.58,2.58,0,0,0,.17-.92,1.25,1.25,0,0,1,.33-.9A2.1,2.1,0,0,1,316,460h0a.46.46,0,0,0,.38-.51.45.45,0,0,0-.5-.38h0a2.85,2.85,0,0,0-1.75.74,2.07,2.07,0,0,0-.57,1.44,1.91,1.91,0,0,1-.11.66h0a.44.44,0,0,0,.25.57.45.45,0,0,0,.58-.25Z"/><path class="cls-1" d="M310.93,459.19a2.9,2.9,0,0,1,0,.5,3.8,3.8,0,0,0,0,.76,6.72,6.72,0,0,0,.23.86c0,.11.07.21.1.3h0a.44.44,0,0,0,.55.31.45.45,0,0,0,.3-.55h0c0-.11-.06-.22-.1-.33a4,4,0,0,1-.19-.72,2,2,0,0,1,0-.54,3.16,3.16,0,0,0,0-.69h0a.44.44,0,0,0-.49-.39.43.43,0,0,0-.39.49Z"/><path class="cls-1" d="M314.48,459.92l-.27-.19c-.76-.54-1.81-1.29-2.75-.89h0a.44.44,0,0,0,.34.82h0c.49-.21,1.34.4,1.89.8l.28.19h0a.44.44,0,0,0,.62-.12.43.43,0,0,0-.11-.61Z"/><path class="cls-1" d="M317.73,466.89a3.24,3.24,0,0,1-.56-.72,2.73,2.73,0,0,1,.24-2c.16-.3.87-1.2,1.27-.72.22.28-.33,1.47-.31,1.85,0,.71.4,1.34.15,2C318.43,467.53,318.06,467.23,317.73,466.89Z"/><path class="cls-1" d="M314.33,467a1.9,1.9,0,0,1,.39-.42,2.75,2.75,0,0,1,2.92-.2c.61.29,0,.91-.42,1-.54.13-1.11-.19-1.65-.16S314.05,467.42,314.33,467Z"/><path class="cls-1" d="M241.3,538.48a14.5,14.5,0,0,1-1.79,1A11.43,11.43,0,0,0,237,541a12.16,12.16,0,0,0-.95,1c-.14.16-.29.31-.43.46h0a.45.45,0,1,0,.64.62h0l.45-.48a12.06,12.06,0,0,1,.87-.88,11.37,11.37,0,0,1,2.37-1.42,16,16,0,0,0,1.9-1h0a.45.45,0,1,0-.5-.74Z"/><path class="cls-1" d="M243.12,534.63a2.09,2.09,0,0,1,.54,1.58,1.77,1.77,0,0,1-.4,1c-.09.15-.2.31-.3.5h0a.44.44,0,1,0,.78.42h0l.27-.43a2.55,2.55,0,0,0,.54-1.42,2.93,2.93,0,0,0-.82-2.26h0a.45.45,0,0,0-.61.65Z"/><path class="cls-1" d="M245.05,540.21a1.85,1.85,0,0,1-1.66.08,2.81,2.81,0,0,1-1.65-2.19c-.07-1.25.64-2.25,1.73-3.36h0a.45.45,0,0,0-.64-.63h0a5.45,5.45,0,0,0-2,4,3.72,3.72,0,0,0,2.14,2.94,2.7,2.7,0,0,0,2.59-.17h0a.44.44,0,0,0-.53-.71Z"/><path class="cls-1" d="M243.28,538.26a2.63,2.63,0,0,0,.87.33,1.24,1.24,0,0,1,.83.48,2.08,2.08,0,0,1,.24,1.28h0a.45.45,0,0,0,.89,0h0a2.88,2.88,0,0,0-.42-1.85,2.05,2.05,0,0,0-1.33-.8,2.45,2.45,0,0,1-.62-.23h0a.44.44,0,1,0-.46.76Z"/><path class="cls-1" d="M246.86,535.47a2.29,2.29,0,0,1-.49-.11,3.25,3.25,0,0,0-.75-.13,4.28,4.28,0,0,0-.89.07l-.31,0h0a.46.46,0,0,0-.4.49.45.45,0,0,0,.49.4h0l.35-.05a4.68,4.68,0,0,1,.73-.06,2.21,2.21,0,0,1,.54.1,3.41,3.41,0,0,0,.68.14h0a.46.46,0,0,0,.47-.42.44.44,0,0,0-.42-.47Z"/><path class="cls-1" d="M245.53,538.84l.23-.23c.67-.66,1.58-1.56,1.35-2.56h0a.45.45,0,0,0-.53-.34.46.46,0,0,0-.34.54h0c.12.51-.62,1.24-1.11,1.72l-.24.24h0a.45.45,0,0,0,.64.63Z"/><path class="cls-1" d="M238.1,540.83a3.41,3.41,0,0,1,.8-.43,2.8,2.8,0,0,1,1.89.58c.26.21,1,1.07.49,1.38-.31.17-1.39-.58-1.77-.63-.71-.09-1.39.16-2-.2C237.35,541.41,237.7,541.1,238.1,540.83Z"/><path class="cls-1" d="M238.63,537.47a2.17,2.17,0,0,1,.35.46,2.8,2.8,0,0,1-.31,2.91c-.4.55-.9-.2-.93-.59,0-.55.38-1.06.44-1.6S238.21,537.12,238.63,537.47Z"/><path class="cls-1" d="M389.64,539.9a14.62,14.62,0,0,1,1.34-1.54,9.19,9.19,0,0,0,2.44-3.56c.08-.2.16-.39.25-.58h0a.45.45,0,0,0-.82-.36h0c-.09.2-.17.4-.25.6a10.62,10.62,0,0,1-.53,1.13,11.18,11.18,0,0,1-1.73,2.15,16.15,16.15,0,0,0-1.43,1.64h0a.45.45,0,0,0,.1.62.46.46,0,0,0,.63-.1Z"/><path class="cls-1" d="M389.24,544.14a2.13,2.13,0,0,1-1-1.3,1.77,1.77,0,0,1,0-1c0-.17.09-.36.12-.57h0a.45.45,0,0,0-.38-.51.44.44,0,0,0-.5.38h0c0,.17-.07.33-.11.49a2.68,2.68,0,0,0,0,1.52A2.92,2.92,0,0,0,388.9,545h0a.45.45,0,0,0,.59-.24.45.45,0,0,0-.25-.58Z"/><path class="cls-1" d="M385.52,539.55a1.88,1.88,0,0,1,1.53-.65,2.83,2.83,0,0,1,2.3,1.5c.5,1.16.17,2.34-.47,3.76h0a.44.44,0,0,0,.23.59.45.45,0,0,0,.59-.22h0c.63-1.42,1.13-2.94.47-4.48a3.69,3.69,0,0,0-3-2,2.73,2.73,0,0,0-2.38,1h0a.44.44,0,0,0,.13.62.43.43,0,0,0,.61-.13Z"/><path class="cls-1" d="M387.86,540.78a3,3,0,0,0-.94,0,1.2,1.2,0,0,1-.94-.17,2.06,2.06,0,0,1-.66-1.12h0a.46.46,0,0,0-.56-.29.44.44,0,0,0-.29.56h0a2.79,2.79,0,0,0,1,1.6,2,2,0,0,0,1.52.3,2.09,2.09,0,0,1,.66,0h0a.45.45,0,0,0,.18-.88Z"/><path class="cls-1" d="M385.45,544.64a2.49,2.49,0,0,1,.5-.08,3.45,3.45,0,0,0,.74-.12,4.76,4.76,0,0,0,.82-.38l.27-.14h0a.45.45,0,1,0-.39-.8h0l-.31.16a4.33,4.33,0,0,1-.66.31,3,3,0,0,1-.54.09,2.73,2.73,0,0,0-.68.1h0a.45.45,0,0,0,.25.86Z"/><path class="cls-1" d="M385.54,541l-.14.3c-.4.84-.94,2-.39,2.87h0a.46.46,0,0,0,.62.13.44.44,0,0,0,.13-.62h0c-.28-.44.16-1.38.45-2l.15-.32h0a.44.44,0,0,0-.23-.58.45.45,0,0,0-.59.22Z"/><path class="cls-1" d="M391.84,536.58a3.18,3.18,0,0,1-.61.68,2.79,2.79,0,0,1-2,.11c-.32-.11-1.34-.66-.93-1.13.23-.27,1.5.07,1.87,0,.69-.16,1.25-.62,1.92-.48C392.34,535.78,392.12,536.2,391.84,536.58Z"/><path class="cls-1" d="M392.49,539.93a1.91,1.91,0,0,1-.48-.31,2.78,2.78,0,0,1-.71-2.84c.18-.66.91-.13,1.07.23s0,1.13.14,1.65S393,540.12,392.49,539.93Z"/><path class="cls-1" d="M389.29,388.59a14.09,14.09,0,0,0-1.83-1.16,11,11,0,0,1-2.28-1.56c-.29-.29-.56-.62-.83-.94s-.27-.34-.41-.5h0a.45.45,0,0,0-.68.58h0l.4.48a10.66,10.66,0,0,0,.9,1,11.27,11.27,0,0,0,2.46,1.7,15.45,15.45,0,0,1,1.73,1.09h0a.45.45,0,0,0,.63-.08.44.44,0,0,0-.09-.62Z"/><path class="cls-1" d="M390.91,393.94a3,3,0,0,0,.95-2.22,2.53,2.53,0,0,0-.46-1.45,4.73,4.73,0,0,1-.23-.45h0a.45.45,0,0,0-.6-.21.44.44,0,0,0-.21.59h0c.09.19.19.36.27.51a1.76,1.76,0,0,1,.34,1,2.11,2.11,0,0,1-.63,1.55h0a.45.45,0,0,0-.06.63.46.46,0,0,0,.63.06Z"/><path class="cls-1" d="M393.17,387.1a2.68,2.68,0,0,0-2.58-.32,3.71,3.71,0,0,0-2.31,2.82c-.19,1.66.72,3,1.74,4.15h0a.45.45,0,0,0,.63,0,.44.44,0,0,0,0-.63h0c-1-1.17-1.67-2.21-1.52-3.46a2.79,2.79,0,0,1,1.78-2.1,1.81,1.81,0,0,1,1.64.18h0a.45.45,0,0,0,.63,0,.44.44,0,0,0-.05-.63Z"/><path class="cls-1" d="M391.13,390.42a2.1,2.1,0,0,1,.63-.2,2,2,0,0,0,1.37-.72,2.89,2.89,0,0,0,.54-1.83h0a.45.45,0,0,0-.44-.46.45.45,0,0,0-.45.44h0a2.24,2.24,0,0,1-.32,1.27,1.26,1.26,0,0,1-.86.43,2.82,2.82,0,0,0-.89.28h0a.44.44,0,0,0-.18.6.44.44,0,0,0,.6.19Z"/><path class="cls-1" d="M394.12,391.74a3.5,3.5,0,0,0-.68.09,2.71,2.71,0,0,1-.55.08,4.85,4.85,0,0,1-.72-.11l-.35-.07h0a.45.45,0,0,0-.14.88h0l.31.06a4.91,4.91,0,0,0,.88.13,2.84,2.84,0,0,0,.75-.1,3.32,3.32,0,0,1,.5-.07h0a.45.45,0,0,0,.45-.44.45.45,0,0,0-.45-.45Z"/><path class="cls-1" d="M392.32,389.77l.22.25c.47.51,1.16,1.28,1,1.79h0a.45.45,0,1,0,.86.25h0c.29-1-.58-1.94-1.2-2.64l-.22-.24h0a.45.45,0,0,0-.67.59Z"/><path class="cls-1" d="M385.69,386.75a2.82,2.82,0,0,0,.78.47,2.73,2.73,0,0,0,1.92-.46c.28-.2,1.09-1,.57-1.35-.3-.19-1.43.5-1.81.52-.7.05-1.37-.23-2,.09C385,386.13,385.31,386.46,385.69,386.75Z"/><path class="cls-1" d="M386,390.15a2.37,2.37,0,0,0,.38-.44,2.77,2.77,0,0,0-.14-2.93c-.36-.58-.9.14-1,.53-.07.55.32,1.08.35,1.62S385.59,390.47,386,390.15Z"/><path class="cls-1" d="M167.9,614.82a16,16,0,0,0,.63,2.07,11.05,11.05,0,0,1,.7,2.68c0,.4,0,.83,0,1.24,0,.22,0,.44,0,.66h0a.45.45,0,0,0,.89,0h0c0-.21,0-.41,0-.63a12.18,12.18,0,0,0,0-1.35,12,12,0,0,0-.75-2.89,15.61,15.61,0,0,1-.6-2h0a.44.44,0,0,0-.52-.35.45.45,0,0,0-.35.53Z"/><path class="cls-1" d="M170.19,609.72a2.93,2.93,0,0,0-2.18,1,2.55,2.55,0,0,0-.6,1.39c0,.16-.07.33-.11.5h0a.44.44,0,1,0,.85.24h0a5,5,0,0,0,.13-.57,1.76,1.76,0,0,1,.39-1,2.11,2.11,0,0,1,1.49-.76h0a.45.45,0,0,0,.46-.44.44.44,0,0,0-.43-.45Z"/><path class="cls-1" d="M164,613.4a2.66,2.66,0,0,0,1.74,1.93,3.73,3.73,0,0,0,3.59-.61c1.23-1.13,1.4-2.73,1.4-4.28h0a.45.45,0,1,0-.89,0h0c0,1.56-.19,2.77-1.12,3.62a2.8,2.8,0,0,1-2.71.42,1.81,1.81,0,0,1-1.13-1.21h0a.44.44,0,0,0-.51-.37.43.43,0,0,0-.37.5Z"/><path class="cls-1" d="M167.71,612.23a1.91,1.91,0,0,1-.6-.27,2.16,2.16,0,0,0-1.52-.35,2.86,2.86,0,0,0-1.59,1h0a.44.44,0,1,0,.66.59h0a2,2,0,0,1,1.07-.74,1.19,1.19,0,0,1,.93.23,2.49,2.49,0,0,0,.85.37h0a.45.45,0,0,0,.54-.33.46.46,0,0,0-.34-.54Z"/><path class="cls-1" d="M166.32,609.27a2.89,2.89,0,0,0,.58.38,1.86,1.86,0,0,1,.45.3,3.81,3.81,0,0,1,.48.56l.22.27h0a.44.44,0,1,0,.68-.57h0l-.19-.25a5.9,5.9,0,0,0-.59-.67,3.09,3.09,0,0,0-.62-.42,2.89,2.89,0,0,1-.43-.27h0a.45.45,0,0,0-.63,0,.43.43,0,0,0,0,.62Z"/><path class="cls-1" d="M166.39,611.94c0-.1,0-.22,0-.34,0-.68,0-1.72.42-2h0a.45.45,0,0,0-.49-.75h0c-.86.56-.84,1.84-.82,2.78,0,.12,0,.23,0,.32h0a.45.45,0,1,0,.89,0Z"/><path class="cls-1" d="M169.42,618.56a2.87,2.87,0,0,0-.28-.86,2.75,2.75,0,0,0-1.75-.91c-.34,0-1.49.05-1.31.65.1.34,1.4.55,1.7.78.57.43.88,1.08,1.55,1.23C169.55,619.5,169.52,619,169.42,618.56Z"/><path class="cls-1" d="M171.4,615.78a1.93,1.93,0,0,0-.58.09,2.76,2.76,0,0,0-1.81,2.3c-.1.67.78.48,1.07.22s.47-1,.81-1.45S171.94,615.82,171.4,615.78Z"/><path class="cls-1" d="M316.17,614.68a16,16,0,0,1-1.79,1,11.77,11.77,0,0,0-2.56,1.54c-.34.3-.65.63-.95.95-.14.16-.29.31-.43.46h0a.45.45,0,1,0,.64.62h0l.45-.47a10.35,10.35,0,0,1,.87-.88,11,11,0,0,1,2.37-1.43,14.65,14.65,0,0,0,1.9-1h0a.45.45,0,0,0-.5-.74Z"/><path class="cls-1" d="M318,610.84a2.08,2.08,0,0,1,.54,1.57,1.84,1.84,0,0,1-.4,1c-.09.14-.2.31-.3.49h0a.45.45,0,0,0,.18.61.46.46,0,0,0,.6-.18h0a3.52,3.52,0,0,1,.27-.43,2.69,2.69,0,0,0,.54-1.42,3,3,0,0,0-.82-2.27h0a.45.45,0,0,0-.61.66Z"/><path class="cls-1" d="M319.92,616.41a1.82,1.82,0,0,1-1.66.09,2.84,2.84,0,0,1-1.65-2.2c-.07-1.25.64-2.24,1.73-3.36h0a.45.45,0,0,0-.64-.62h0c-1.08,1.11-2.07,2.37-2,4a3.71,3.71,0,0,0,2.14,2.94,2.7,2.7,0,0,0,2.59-.16h0a.45.45,0,0,0,.09-.63.46.46,0,0,0-.62-.09Z"/><path class="cls-1" d="M318.15,614.46a2.93,2.93,0,0,0,.87.34,1.19,1.19,0,0,1,.83.47,2.15,2.15,0,0,1,.24,1.28h0a.44.44,0,0,0,.43.46.44.44,0,0,0,.46-.42h0a2.92,2.92,0,0,0-.42-1.86,2.1,2.1,0,0,0-1.33-.8,2.12,2.12,0,0,1-.62-.23h0a.44.44,0,0,0-.46.76Z"/><path class="cls-1" d="M321.73,611.67a2.25,2.25,0,0,1-.49-.1,3.23,3.23,0,0,0-.75-.14,5,5,0,0,0-.89.07,1.88,1.88,0,0,1-.31,0h0a.46.46,0,0,0-.4.49.45.45,0,0,0,.49.4h0l.35,0a3.75,3.75,0,0,1,.73-.07,2.25,2.25,0,0,1,.54.11,4.32,4.32,0,0,0,.68.13h0a.45.45,0,1,0,.05-.89Z"/><path class="cls-1" d="M320.4,615l.23-.23c.67-.66,1.58-1.56,1.35-2.56h0a.43.43,0,0,0-.53-.33.45.45,0,0,0-.34.53h0c.12.52-.62,1.24-1.11,1.73l-.24.24h0a.45.45,0,1,0,.64.62Z"/><path class="cls-1" d="M313,617a3,3,0,0,1,.8-.43,2.74,2.74,0,0,1,1.89.57c.26.22,1,1.07.48,1.38-.3.17-1.38-.58-1.76-.63-.71-.08-1.39.16-2-.2C312.22,617.61,312.57,617.3,313,617Z"/><path class="cls-1" d="M313.5,613.67a2.15,2.15,0,0,1,.34.46,2.77,2.77,0,0,1-.3,2.91c-.4.55-.9-.2-.93-.59,0-.55.38-1.06.44-1.59S313.08,613.32,313.5,613.67Z"/><path class="cls-1" d="M241.13,691.65a14.59,14.59,0,0,1-1.35,1.54,12.18,12.18,0,0,0-1.87,2.33,13.23,13.23,0,0,0-.56,1.22l-.25.58h0a.45.45,0,1,0,.81.37h0c.09-.2.18-.4.26-.6a11.73,11.73,0,0,1,.52-1.13,10.65,10.65,0,0,1,1.74-2.16,14.81,14.81,0,0,0,1.42-1.63h0a.44.44,0,0,0-.72-.52Z"/><path class="cls-1" d="M241.52,687.4a2.12,2.12,0,0,1,1,1.31,1.69,1.69,0,0,1,0,1c0,.17-.08.36-.11.57h0a.43.43,0,0,0,.37.5.44.44,0,0,0,.51-.37h0a4,4,0,0,1,.1-.5,2.51,2.51,0,0,0,0-1.52,3,3,0,0,0-1.55-1.85h0a.44.44,0,1,0-.34.82Z"/><path class="cls-1" d="M245.24,692a1.84,1.84,0,0,1-1.53.65,2.82,2.82,0,0,1-2.3-1.5c-.49-1.15-.17-2.33.47-3.76h0a.45.45,0,0,0-.22-.59.44.44,0,0,0-.59.23h0c-.64,1.41-1.14,2.94-.48,4.47a3.71,3.71,0,0,0,3,2,2.72,2.72,0,0,0,2.38-1h0a.45.45,0,1,0-.75-.49Z"/><path class="cls-1" d="M242.91,690.76a2.68,2.68,0,0,0,.93,0,1.22,1.22,0,0,1,.95.16,2.19,2.19,0,0,1,.66,1.12h0a.43.43,0,0,0,.56.29.45.45,0,0,0,.29-.56h0a2.9,2.9,0,0,0-1-1.6,2.1,2.1,0,0,0-1.52-.3,1.89,1.89,0,0,1-.67,0h0a.44.44,0,0,0-.17.87Z"/><path class="cls-1" d="M245.31,686.91a2.51,2.51,0,0,1-.5.07,3,3,0,0,0-.74.13,4.63,4.63,0,0,0-.81.37l-.28.15h0a.45.45,0,0,0,.39.8h0l.31-.16a4.08,4.08,0,0,1,.67-.32,2.8,2.8,0,0,1,.54-.08,3.43,3.43,0,0,0,.68-.11h0a.44.44,0,1,0-.26-.85Z"/><path class="cls-1" d="M245.22,690.53l.14-.29c.4-.85.95-2,.39-2.87h0a.43.43,0,0,0-.61-.13.44.44,0,0,0-.14.61h0c.29.45-.15,1.39-.45,2-.05.11-.1.21-.14.31h0a.45.45,0,0,0,.22.59.44.44,0,0,0,.59-.23Z"/><path class="cls-1" d="M238.93,695a3.31,3.31,0,0,1,.61-.67,2.71,2.71,0,0,1,2-.11c.33.11,1.34.65.93,1.13-.23.27-1.5-.07-1.87,0-.69.17-1.24.63-1.91.49C238.42,695.77,238.65,695.35,238.93,695Z"/><path class="cls-1" d="M238.27,691.62a1.92,1.92,0,0,1,.49.31,2.76,2.76,0,0,1,.7,2.84c-.18.66-.9.13-1.06-.24s0-1.12-.14-1.65S237.76,691.43,238.27,691.62Z"/><path class="cls-1" d="M169,768.22a14.09,14.09,0,0,0-1.83-1.16,11,11,0,0,1-2.28-1.56c-.29-.29-.56-.62-.83-.94-.13-.17-.27-.34-.41-.5h0a.45.45,0,1,0-.68.58h0l.4.48a9.55,9.55,0,0,0,.9,1,11.27,11.27,0,0,0,2.46,1.7,15.45,15.45,0,0,1,1.73,1.09h0a.45.45,0,0,0,.63-.08.44.44,0,0,0-.09-.62Z"/><path class="cls-1" d="M170.59,773.57a3,3,0,0,0,.95-2.22,2.6,2.6,0,0,0-.46-1.45,4.73,4.73,0,0,1-.23-.45h0a.45.45,0,0,0-.6-.21.44.44,0,0,0-.21.59h0c.09.19.19.36.27.51a1.76,1.76,0,0,1,.34,1,2.1,2.1,0,0,1-.63,1.55h0a.45.45,0,0,0,.57.69Z"/><path class="cls-1" d="M172.85,766.73a2.68,2.68,0,0,0-2.58-.32,3.71,3.71,0,0,0-2.31,2.82c-.19,1.66.72,3,1.74,4.15h0a.45.45,0,0,0,.63,0,.42.42,0,0,0,0-.62h0c-1-1.18-1.67-2.22-1.52-3.47a2.81,2.81,0,0,1,1.77-2.1,1.83,1.83,0,0,1,1.65.18h0a.45.45,0,0,0,.63,0,.44.44,0,0,0-.05-.63Z"/><path class="cls-1" d="M170.81,770.05a2.1,2.1,0,0,1,.63-.2,2,2,0,0,0,1.37-.72,2.87,2.87,0,0,0,.54-1.83h0a.44.44,0,0,0-.44-.45.45.45,0,0,0-.46.43h0a2.17,2.17,0,0,1-.31,1.27,1.26,1.26,0,0,1-.86.43,2.82,2.82,0,0,0-.89.28h0a.44.44,0,0,0-.18.6.44.44,0,0,0,.6.19Z"/><path class="cls-1" d="M173.8,771.37a3.5,3.5,0,0,0-.68.09,2.71,2.71,0,0,1-.55.08,4.85,4.85,0,0,1-.72-.11c-.12,0-.23,0-.35-.06h0a.44.44,0,1,0-.14.87h0l.31.06a4.91,4.91,0,0,0,.88.13,3.35,3.35,0,0,0,.75-.09,2.46,2.46,0,0,1,.5-.08h0a.45.45,0,0,0,.45-.44.45.45,0,0,0-.45-.45Z"/><path class="cls-1" d="M172,769.4l.22.25c.47.51,1.16,1.29,1,1.79h0a.45.45,0,1,0,.86.25h0c.29-1-.58-1.94-1.2-2.64l-.22-.24h0a.45.45,0,0,0-.67.59Z"/><path class="cls-1" d="M165.37,766.38a3.27,3.27,0,0,0,.78.48,2.75,2.75,0,0,0,1.91-.47c.29-.2,1.1-1,.57-1.35-.29-.19-1.42.5-1.8.52-.7.05-1.37-.23-2,.09C164.66,765.76,165,766.09,165.37,766.38Z"/><path class="cls-1" d="M165.7,769.78a2.37,2.37,0,0,0,.38-.44,2.79,2.79,0,0,0-.14-2.93c-.36-.58-.9.14-1,.53-.07.55.32,1.09.35,1.62S165.27,770.11,165.7,769.78Z"/><path class="cls-1" d="M314.86,767.23a16,16,0,0,1,1.28,1.6,11.33,11.33,0,0,0,2,2.25,11.47,11.47,0,0,0,1.1.77l.52.35h0a.46.46,0,0,0,.62-.12.45.45,0,0,0-.11-.62h0l-.55-.36a9.26,9.26,0,0,1-1-.71,10.51,10.51,0,0,1-1.81-2.09,18,18,0,0,0-1.36-1.69h0a.45.45,0,0,0-.63,0,.44.44,0,0,0,0,.63Z"/><path class="cls-1" d="M310.75,766.11a2.1,2.1,0,0,1,1.46-.8,1.77,1.77,0,0,1,1,.22,4.69,4.69,0,0,0,.54.21h0a.44.44,0,1,0,.28-.84h0a4.89,4.89,0,0,1-.46-.19,2.69,2.69,0,0,0-1.5-.29,3,3,0,0,0-2.09,1.21h0a.44.44,0,0,0,.14.61.43.43,0,0,0,.61-.13Z"/><path class="cls-1" d="M315.91,763.24a1.85,1.85,0,0,1,.37,1.62,2.8,2.8,0,0,1-1.87,2c-1.22.29-2.33-.24-3.61-1.12h0a.44.44,0,0,0-.62.12.45.45,0,0,0,.11.62h0c1.29.87,2.7,1.63,4.32,1.25a3.73,3.73,0,0,0,2.53-2.62,2.7,2.7,0,0,0-.62-2.52h0a.45.45,0,0,0-.63,0,.44.44,0,0,0,0,.63Z"/><path class="cls-1" d="M314.3,765.33a2.62,2.62,0,0,0,.17-.92,1.23,1.23,0,0,1,.33-.9,2.09,2.09,0,0,1,1.22-.46h0a.45.45,0,0,0,.38-.5.44.44,0,0,0-.5-.38h0a2.85,2.85,0,0,0-1.75.74,2.06,2.06,0,0,0-.57,1.44,1.81,1.81,0,0,1-.11.65h0a.45.45,0,0,0,.83.33Z"/><path class="cls-1" d="M310.93,762.29a2.9,2.9,0,0,1,0,.5,3.72,3.72,0,0,0,0,.75,6.46,6.46,0,0,0,.23.87l.1.3h0a.44.44,0,0,0,.85-.25h0c0-.1-.06-.21-.1-.33a4,4,0,0,1-.19-.71,2,2,0,0,1,0-.55,3.15,3.15,0,0,0,0-.69h0a.44.44,0,1,0-.88.11Z"/><path class="cls-1" d="M314.48,763l-.27-.19c-.76-.54-1.81-1.28-2.75-.88h0a.43.43,0,0,0-.24.58.45.45,0,0,0,.58.24h0c.49-.21,1.34.39,1.89.79l.28.2h0a.45.45,0,0,0,.51-.74Z"/><path class="cls-1" d="M317.73,770a3.53,3.53,0,0,1-.56-.71,2.73,2.73,0,0,1,.24-2c.16-.3.87-1.21,1.27-.72.22.27-.33,1.47-.31,1.85,0,.71.4,1.33.15,2C318.43,770.62,318.06,770.33,317.73,770Z"/><path class="cls-1" d="M314.33,770a1.9,1.9,0,0,1,.39-.42,2.77,2.77,0,0,1,2.92-.2c.61.29,0,.92-.42,1-.54.14-1.11-.18-1.65-.15S314.05,770.52,314.33,770Z"/><path class="cls-1" d="M241.3,841.57a14.53,14.53,0,0,1-1.79,1A11.77,11.77,0,0,0,237,844.1c-.34.3-.65.63-.95.95-.14.16-.29.32-.43.46h0a.44.44,0,0,0,0,.63.45.45,0,0,0,.63,0h0l.45-.48a10.35,10.35,0,0,1,.87-.88,11,11,0,0,1,2.37-1.42,16,16,0,0,0,1.9-1.05h0a.44.44,0,0,0,.12-.62.45.45,0,0,0-.62-.12Z"/><path class="cls-1" d="M243.12,837.73a2.08,2.08,0,0,1,.54,1.57,1.84,1.84,0,0,1-.4,1c-.09.14-.2.31-.3.49h0a.45.45,0,1,0,.78.43h0l.27-.43a2.61,2.61,0,0,0,.54-1.42,3,3,0,0,0-.82-2.27h0a.45.45,0,0,0-.63,0,.44.44,0,0,0,0,.63Z"/><path class="cls-1" d="M245.05,843.3a1.82,1.82,0,0,1-1.66.09,2.82,2.82,0,0,1-1.65-2.2c-.07-1.24.64-2.24,1.73-3.36h0a.45.45,0,1,0-.64-.62h0c-1.08,1.11-2.07,2.37-2,4a3.71,3.71,0,0,0,2.14,2.94,2.7,2.7,0,0,0,2.59-.16h0a.44.44,0,0,0,.09-.62.45.45,0,0,0-.62-.1Z"/><path class="cls-1" d="M243.28,841.35a2.93,2.93,0,0,0,.87.34,1.2,1.2,0,0,1,.83.48,2,2,0,0,1,.24,1.27h0a.45.45,0,0,0,.43.47.46.46,0,0,0,.46-.43h0a2.88,2.88,0,0,0-.42-1.85,2.12,2.12,0,0,0-1.33-.81,1.87,1.87,0,0,1-.62-.23h0a.45.45,0,0,0-.61.15.44.44,0,0,0,.15.61Z"/><path class="cls-1" d="M246.86,838.56a2.25,2.25,0,0,1-.49-.1,3.23,3.23,0,0,0-.75-.14,5.08,5.08,0,0,0-.89.08l-.31,0h0a.44.44,0,1,0,.09.88h0l.35,0a3.75,3.75,0,0,1,.73-.07,2.88,2.88,0,0,1,.54.11,2.83,2.83,0,0,0,.68.13h0a.45.45,0,0,0,.47-.42.45.45,0,0,0-.42-.47Z"/><path class="cls-1" d="M245.53,841.93l.23-.23c.67-.66,1.58-1.56,1.35-2.56h0a.43.43,0,0,0-.53-.33.45.45,0,0,0-.34.53h0c.12.52-.62,1.25-1.11,1.73l-.24.24h0a.45.45,0,1,0,.64.62Z"/><path class="cls-1" d="M238.1,843.93a3,3,0,0,1,.8-.43,2.74,2.74,0,0,1,1.89.57c.26.22,1,1.07.49,1.38-.31.17-1.39-.58-1.77-.63-.71-.08-1.39.16-2-.19C237.35,844.51,237.7,844.19,238.1,843.93Z"/><path class="cls-1" d="M238.63,840.56a2.32,2.32,0,0,1,.35.47,2.78,2.78,0,0,1-.31,2.9c-.4.55-.9-.19-.93-.59,0-.55.38-1.06.44-1.59S238.21,840.21,238.63,840.56Z"/><path class="cls-1" d="M389.64,843a15.69,15.69,0,0,1,1.34-1.54,11.45,11.45,0,0,0,1.87-2.33,12.37,12.37,0,0,0,.57-1.23c.08-.2.16-.38.25-.57h0a.44.44,0,0,0-.23-.59.45.45,0,0,0-.59.22h0c-.09.2-.17.4-.25.6a9.77,9.77,0,0,1-.53,1.13,10.94,10.94,0,0,1-1.73,2.16,16,16,0,0,0-1.43,1.63h0a.45.45,0,0,0,.73.52Z"/><path class="cls-1" d="M389.24,847.24a2.13,2.13,0,0,1-1-1.3,1.8,1.8,0,0,1,0-1.05c0-.17.09-.36.12-.57h0a.44.44,0,0,0-.38-.5.43.43,0,0,0-.5.37h0c0,.17-.07.34-.11.5a2.68,2.68,0,0,0,0,1.52,3,3,0,0,0,1.55,1.85h0a.46.46,0,0,0,.59-.24.45.45,0,0,0-.25-.58Z"/><path class="cls-1" d="M385.52,842.65a1.85,1.85,0,0,1,1.53-.65,2.81,2.81,0,0,1,2.3,1.5c.5,1.15.17,2.34-.47,3.76h0a.45.45,0,1,0,.82.36h0c.63-1.41,1.13-2.93.47-4.47a3.72,3.72,0,0,0-3-2,2.71,2.71,0,0,0-2.38,1h0a.44.44,0,0,0,.13.62.45.45,0,0,0,.61-.13Z"/><path class="cls-1" d="M387.86,843.88a2.74,2.74,0,0,0-.94,0,1.19,1.19,0,0,1-.94-.16,2.06,2.06,0,0,1-.66-1.12h0a.46.46,0,0,0-.56-.29.43.43,0,0,0-.29.56h0a2.79,2.79,0,0,0,1,1.6,2.09,2.09,0,0,0,1.52.3,1.83,1.83,0,0,1,.66,0h0a.44.44,0,0,0,.18-.87Z"/><path class="cls-1" d="M385.45,847.73a2.51,2.51,0,0,1,.5-.07,3,3,0,0,0,.74-.13,4.74,4.74,0,0,0,.82-.37l.27-.15h0a.44.44,0,0,0,.21-.59.45.45,0,0,0-.6-.21h0l-.31.16a4.42,4.42,0,0,1-.66.32,3.05,3.05,0,0,1-.54.08,3.32,3.32,0,0,0-.68.11h0a.44.44,0,1,0,.25.85Z"/><path class="cls-1" d="M385.54,844.11l-.14.29c-.4.85-.94,2-.39,2.87h0a.44.44,0,0,0,.62.13.43.43,0,0,0,.13-.61h0c-.28-.45.16-1.39.45-2l.15-.31h0a.45.45,0,0,0-.82-.36Z"/><path class="cls-1" d="M391.84,839.68a3.47,3.47,0,0,1-.61.68,2.79,2.79,0,0,1-2,.1c-.32-.11-1.34-.65-.93-1.13.23-.26,1.5.07,1.87,0,.69-.16,1.25-.63,1.92-.49C392.34,838.88,392.12,839.29,391.84,839.68Z"/><path class="cls-1" d="M392.49,843a2.41,2.41,0,0,1-.48-.32,2.78,2.78,0,0,1-.71-2.84c.18-.66.91-.12,1.07.24s0,1.12.14,1.65S393,843.21,392.49,843Z"/><path class="cls-1" d="M389.29,691.68a15.24,15.24,0,0,0-1.83-1.16,10.67,10.67,0,0,1-2.28-1.56,10.91,10.91,0,0,1-.83-.94l-.41-.49h0a.45.45,0,1,0-.68.58h0c.14.15.27.31.4.48A9.15,9.15,0,0,0,387,691.3a14.13,14.13,0,0,1,1.73,1.09h0a.46.46,0,0,0,.63-.08.45.45,0,0,0-.09-.63Z"/><path class="cls-1" d="M390.91,697a3,3,0,0,0,.95-2.21,2.56,2.56,0,0,0-.46-1.46,4.53,4.53,0,0,1-.23-.44h0a.45.45,0,0,0-.6-.22.44.44,0,0,0-.21.59h0c.09.2.19.37.27.52a1.76,1.76,0,0,1,.34,1,2.08,2.08,0,0,1-.63,1.54h0a.45.45,0,0,0,.57.69Z"/><path class="cls-1" d="M393.17,690.19a2.71,2.71,0,0,0-2.58-.31,3.7,3.7,0,0,0-2.31,2.81,5.42,5.42,0,0,0,1.74,4.15h0a.44.44,0,0,0,.63,0,.44.44,0,0,0,0-.63h0c-1-1.18-1.67-2.22-1.52-3.47a2.8,2.8,0,0,1,1.78-2.1,1.84,1.84,0,0,1,1.64.18h0a.45.45,0,1,0,.58-.68Z"/><path class="cls-1" d="M391.13,693.51a2.08,2.08,0,0,1,.63-.19,2,2,0,0,0,1.37-.73,2.87,2.87,0,0,0,.54-1.83h0a.45.45,0,0,0-.44-.45.44.44,0,0,0-.45.44h0a2.18,2.18,0,0,1-.32,1.26,1.18,1.18,0,0,1-.86.43,3.1,3.1,0,0,0-.89.28h0a.45.45,0,0,0-.18.61.44.44,0,0,0,.6.18Z"/><path class="cls-1" d="M394.12,694.84a2.87,2.87,0,0,0-.68.09,2.13,2.13,0,0,1-.55.07,3.77,3.77,0,0,1-.72-.1l-.35-.07h0a.44.44,0,0,0-.51.37.45.45,0,0,0,.37.51h0l.31.06a4.91,4.91,0,0,0,.88.12,2.86,2.86,0,0,0,.75-.09,2.4,2.4,0,0,1,.5-.07h0a.45.45,0,1,0,0-.89Z"/><path class="cls-1" d="M392.32,692.86l.22.26c.47.51,1.16,1.28,1,1.79h0a.44.44,0,0,0,.3.55.45.45,0,0,0,.56-.3h0c.29-1-.58-1.94-1.2-2.64l-.22-.24h0a.44.44,0,0,0-.63,0,.45.45,0,0,0,0,.63Z"/><path class="cls-1" d="M385.69,689.85a3.48,3.48,0,0,0,.78.47,2.74,2.74,0,0,0,1.92-.47c.28-.19,1.09-1,.57-1.34-.3-.19-1.43.5-1.81.52-.7,0-1.37-.24-2,.08C385,689.22,385.31,689.56,385.69,689.85Z"/><path class="cls-1" d="M386,693.24a1.83,1.83,0,0,0,.38-.44,2.77,2.77,0,0,0-.14-2.93c-.36-.57-.9.15-1,.54-.07.55.32,1.08.35,1.62S385.59,693.57,386,693.24Z"/><path class="cls-1" d="M460.89,8.63a16,16,0,0,0,.63,2.07,10.62,10.62,0,0,1,.7,2.68,10.24,10.24,0,0,1,0,1.24c0,.22,0,.44,0,.66h0a.45.45,0,0,0,.89,0h0c0-.21,0-.42,0-.63a10.15,10.15,0,0,0,0-1.35,11.78,11.78,0,0,0-.75-2.9,13.92,13.92,0,0,1-.59-2h0a.45.45,0,0,0-.88.18Z"/><path class="cls-1" d="M463.18,3.53A2.93,2.93,0,0,0,461,4.58,2.63,2.63,0,0,0,460.4,6a5,5,0,0,1-.11.5h0a.44.44,0,1,0,.85.24h0a5,5,0,0,0,.13-.57,1.77,1.77,0,0,1,.4-1,2.09,2.09,0,0,1,1.48-.76h0a.45.45,0,0,0,.46-.44.43.43,0,0,0-.43-.45Z"/><path class="cls-1" d="M457,7.21a2.7,2.7,0,0,0,1.74,1.93,3.73,3.73,0,0,0,3.59-.61,5.46,5.46,0,0,0,1.4-4.28h0a.45.45,0,1,0-.89,0h0c0,1.56-.19,2.77-1.11,3.62a2.83,2.83,0,0,1-2.72.42,1.83,1.83,0,0,1-1.13-1.21h0a.46.46,0,0,0-.51-.38.45.45,0,0,0-.37.51Z"/><path class="cls-1" d="M460.7,6a1.91,1.91,0,0,1-.6-.27,2.1,2.1,0,0,0-1.51-.35,2.88,2.88,0,0,0-1.6,1h0a.44.44,0,1,0,.66.59h0a2.12,2.12,0,0,1,1.07-.75,1.23,1.23,0,0,1,.93.24,2.88,2.88,0,0,0,.86.37h0a.44.44,0,0,0,.53-.33A.46.46,0,0,0,460.7,6Z"/><path class="cls-1" d="M459.31,3.08a3.84,3.84,0,0,0,.58.38,2.15,2.15,0,0,1,.46.3,5.25,5.25,0,0,1,.48.55l.21.28h0a.45.45,0,0,0,.69-.57h0l-.2-.25A4.49,4.49,0,0,0,461,3.1a3.13,3.13,0,0,0-.63-.42,2.89,2.89,0,0,1-.43-.27h0a.45.45,0,0,0-.63,0,.44.44,0,0,0,.05.63Z"/><path class="cls-1" d="M459.38,5.75V5.41c0-.69,0-1.72.41-2h0a.46.46,0,0,0,.13-.62.45.45,0,0,0-.61-.13h0c-.87.56-.84,1.84-.83,2.78,0,.12,0,.23,0,.32h0a.45.45,0,1,0,.89,0Z"/><path class="cls-1" d="M462.41,12.37a3.31,3.31,0,0,0-.27-.86,2.78,2.78,0,0,0-1.76-.91c-.34,0-1.49.05-1.31.65.1.34,1.4.55,1.7.78.57.43.88,1.08,1.55,1.23C462.55,13.31,462.51,12.84,462.41,12.37Z"/><path class="cls-1" d="M464.39,9.59a2,2,0,0,0-.58.09A2.77,2.77,0,0,0,462,12c-.1.67.78.48,1.08.22s.47-1,.8-1.45S464.93,9.63,464.39,9.59Z"/><path class="cls-1" d="M609.16,8.49a14.5,14.5,0,0,1-1.79,1A11.81,11.81,0,0,0,604.81,11a12,12,0,0,0-.94,1l-.44.46h0a.45.45,0,0,0,.64.62h0l.45-.47a10.35,10.35,0,0,1,.87-.88,11,11,0,0,1,2.37-1.43,14.65,14.65,0,0,0,1.9-1h0a.44.44,0,0,0,.12-.62.45.45,0,0,0-.62-.12Z"/><path class="cls-1" d="M611,4.65a2.11,2.11,0,0,1,.53,1.57,1.75,1.75,0,0,1-.39,1,4.18,4.18,0,0,0-.31.49h0a.43.43,0,0,0,.18.6.44.44,0,0,0,.6-.17h0c.09-.16.18-.3.27-.43a2.61,2.61,0,0,0,.54-1.42A2.92,2.92,0,0,0,611.59,4h0a.45.45,0,0,0-.6.66Z"/><path class="cls-1" d="M612.91,10.22a1.85,1.85,0,0,1-1.66.09,2.86,2.86,0,0,1-1.65-2.2c-.07-1.25.64-2.25,1.73-3.36h0a.45.45,0,1,0-.64-.62h0c-1.08,1.11-2.07,2.36-2,4a3.72,3.72,0,0,0,2.14,2.94,2.7,2.7,0,0,0,2.59-.16h0a.45.45,0,0,0-.53-.72Z"/><path class="cls-1" d="M611.14,8.27a2.72,2.72,0,0,0,.87.33,1.22,1.22,0,0,1,.83.48,2.08,2.08,0,0,1,.24,1.28h0a.45.45,0,1,0,.89,0h0a2.83,2.83,0,0,0-.42-1.85,2,2,0,0,0-1.32-.8,2.08,2.08,0,0,1-.63-.23h0a.44.44,0,0,0-.46.76Z"/><path class="cls-1" d="M614.72,5.48a3.28,3.28,0,0,1-.49-.1,3.24,3.24,0,0,0-.74-.14,5.21,5.21,0,0,0-.9.07l-.31,0h0a.45.45,0,0,0-.39.49.44.44,0,0,0,.49.4h0l.34,0a4.68,4.68,0,0,1,.73-.06,2.16,2.16,0,0,1,.54.11,4.32,4.32,0,0,0,.68.13h0a.45.45,0,0,0,.47-.42.44.44,0,0,0-.42-.47Z"/><path class="cls-1" d="M613.39,8.85l.23-.23c.67-.66,1.58-1.56,1.35-2.56h0a.44.44,0,0,0-.86.2h0c.11.52-.62,1.24-1.11,1.72l-.25.25h0a.45.45,0,0,0,.64.62Z"/><path class="cls-1" d="M606,10.84a3.25,3.25,0,0,1,.8-.42,2.74,2.74,0,0,1,1.89.57c.27.22,1,1.07.49,1.38-.31.17-1.39-.58-1.77-.63-.7-.08-1.38.16-2-.2C605.21,11.42,605.56,11.11,606,10.84Z"/><path class="cls-1" d="M606.49,7.48a2.11,2.11,0,0,1,.35.46,2.79,2.79,0,0,1-.31,2.91c-.4.55-.9-.2-.93-.59,0-.55.38-1.06.44-1.59S606.07,7.13,606.49,7.48Z"/><path class="cls-1" d="M534.12,85.46A15.69,15.69,0,0,1,532.78,87a11.85,11.85,0,0,0-1.88,2.33c-.21.4-.39.82-.56,1.22-.08.21-.16.39-.25.58h0a.44.44,0,0,0,.23.59.45.45,0,0,0,.59-.22h0l.25-.6a11.73,11.73,0,0,1,.52-1.13,10.65,10.65,0,0,1,1.74-2.16A14.81,14.81,0,0,0,534.84,86h0a.44.44,0,1,0-.72-.52Z"/><path class="cls-1" d="M534.51,81.21a2.14,2.14,0,0,1,1,1.3,1.89,1.89,0,0,1,0,1c0,.17-.09.36-.12.57h0a.44.44,0,0,0,.88.13h0c0-.18.07-.34.1-.5a2.51,2.51,0,0,0,0-1.52,2.92,2.92,0,0,0-1.55-1.85h0a.45.45,0,0,0-.58.24.44.44,0,0,0,.24.58Z"/><path class="cls-1" d="M538.23,85.8a1.83,1.83,0,0,1-1.52.65A2.83,2.83,0,0,1,534.4,85c-.49-1.15-.17-2.33.47-3.76h0a.44.44,0,1,0-.81-.36h0a5.44,5.44,0,0,0-.48,4.47,3.75,3.75,0,0,0,3,2,2.71,2.71,0,0,0,2.38-1h0a.45.45,0,0,0-.13-.62.46.46,0,0,0-.62.13Z"/><path class="cls-1" d="M535.9,84.57a2.73,2.73,0,0,0,.94,0,1.19,1.19,0,0,1,.94.16,2.12,2.12,0,0,1,.66,1.12h0a.46.46,0,0,0,.56.29.43.43,0,0,0,.29-.56h0a2.84,2.84,0,0,0-1-1.6,2.1,2.1,0,0,0-1.52-.3,1.83,1.83,0,0,1-.66,0h0a.45.45,0,0,0-.53.35.44.44,0,0,0,.35.52Z"/><path class="cls-1" d="M538.3,80.72a2.31,2.31,0,0,1-.49.07,3.11,3.11,0,0,0-.75.13,4.63,4.63,0,0,0-.81.37l-.28.15h0a.44.44,0,0,0-.2.59.45.45,0,0,0,.6.21h0l.3-.16a4.08,4.08,0,0,1,.67-.32,2.27,2.27,0,0,1,.54-.08,3.43,3.43,0,0,0,.68-.11h0a.44.44,0,0,0,.3-.55.45.45,0,0,0-.56-.3Z"/><path class="cls-1" d="M538.21,84.34c0-.09.09-.19.14-.29.4-.85.95-2,.39-2.87h0a.44.44,0,1,0-.74.48h0c.28.45-.16,1.39-.45,2-.06.11-.1.21-.15.31h0a.45.45,0,0,0,.23.59.44.44,0,0,0,.58-.23Z"/><path class="cls-1" d="M531.92,88.77a3.47,3.47,0,0,1,.61-.68,2.78,2.78,0,0,1,2-.1c.32.11,1.33.65.93,1.13-.23.26-1.51-.07-1.88,0-.69.16-1.24.63-1.91.49C531.41,89.57,531.64,89.16,531.92,88.77Z"/><path class="cls-1" d="M531.26,85.42a2.16,2.16,0,0,1,.49.32,2.78,2.78,0,0,1,.71,2.84c-.18.66-.91.12-1.07-.24s0-1.12-.14-1.65S530.75,85.24,531.26,85.42Z"/><path class="cls-1" d="M462,162a14.91,14.91,0,0,0-1.84-1.16,11,11,0,0,1-2.28-1.56,12.26,12.26,0,0,1-.82-.94l-.42-.5h0a.44.44,0,0,0-.63-.05.45.45,0,0,0,0,.63h0l.4.48a12.13,12.13,0,0,0,.89,1,11.27,11.27,0,0,0,2.46,1.7,15.45,15.45,0,0,1,1.73,1.09h0a.45.45,0,1,0,.55-.7Z"/><path class="cls-1" d="M463.58,167.38a2.93,2.93,0,0,0,.95-2.22,2.52,2.52,0,0,0-.45-1.45,4.76,4.76,0,0,1-.24-.45h0a.45.45,0,0,0-.81.38h0c.09.19.19.36.27.51a1.69,1.69,0,0,1,.34,1,2.14,2.14,0,0,1-.62,1.55h0a.45.45,0,0,0-.07.63.46.46,0,0,0,.63.06Z"/><path class="cls-1" d="M465.84,160.54a2.68,2.68,0,0,0-2.58-.32A3.71,3.71,0,0,0,461,163c-.19,1.66.73,3,1.74,4.15h0a.45.45,0,0,0,.63,0,.44.44,0,0,0,.05-.63h0c-1-1.17-1.67-2.21-1.53-3.46a2.81,2.81,0,0,1,1.78-2.1,1.83,1.83,0,0,1,1.65.18h0a.44.44,0,0,0,.57-.68Z"/><path class="cls-1" d="M463.8,163.86a2.07,2.07,0,0,1,.64-.2,2,2,0,0,0,1.37-.72,3,3,0,0,0,.53-1.83h0a.45.45,0,1,0-.89,0h0a2.16,2.16,0,0,1-.32,1.27,1.26,1.26,0,0,1-.86.43,2.9,2.9,0,0,0-.89.28h0a.44.44,0,0,0-.18.6.44.44,0,0,0,.6.19Z"/><path class="cls-1" d="M466.79,165.18a3.5,3.5,0,0,0-.68.09,2.71,2.71,0,0,1-.54.08,4.78,4.78,0,0,1-.73-.11l-.34-.07h0a.45.45,0,0,0-.51.37.44.44,0,0,0,.36.51h0l.31.06a4.89,4.89,0,0,0,.89.13,3,3,0,0,0,.75-.1,3,3,0,0,1,.49-.07h0a.45.45,0,1,0,0-.89Z"/><path class="cls-1" d="M465,163.21l.23.25c.46.51,1.15,1.28,1,1.79h0a.44.44,0,1,0,.85.25h0c.29-1-.57-1.94-1.2-2.64l-.22-.24h0a.45.45,0,0,0-.67.59Z"/><path class="cls-1" d="M458.36,160.19a3,3,0,0,0,.78.47,2.73,2.73,0,0,0,1.92-.46c.28-.2,1.09-1,.57-1.35-.3-.19-1.42.5-1.8.52-.71,0-1.38-.23-2,.09C457.65,159.57,458,159.9,458.36,160.19Z"/><path class="cls-1" d="M458.69,163.59a2.19,2.19,0,0,0,.38-.45,2.75,2.75,0,0,0-.14-2.92c-.36-.58-.9.14-.95.53-.07.55.31,1.08.34,1.62S458.26,163.91,458.69,163.59Z"/><path class="cls-1" d="M607.85,161a16,16,0,0,1,1.28,1.6,11.66,11.66,0,0,0,2,2.25,11.47,11.47,0,0,0,1.1.77l.53.34h0a.45.45,0,0,0,.62-.11.46.46,0,0,0-.12-.62h0l-.55-.36a8.08,8.08,0,0,1-2.83-2.8,16.49,16.49,0,0,0-1.36-1.69h0a.45.45,0,0,0-.63,0,.44.44,0,0,0,0,.63Z"/><path class="cls-1" d="M603.75,159.92a2.08,2.08,0,0,1,1.46-.8,1.71,1.71,0,0,1,1,.22,3.9,3.9,0,0,0,.53.21h0a.44.44,0,0,0,.57-.28.45.45,0,0,0-.28-.56h0l-.47-.19a2.68,2.68,0,0,0-1.49-.29,2.94,2.94,0,0,0-2.09,1.21h0a.43.43,0,0,0,.13.61.44.44,0,0,0,.62-.13Z"/><path class="cls-1" d="M608.9,157.05a1.85,1.85,0,0,1,.38,1.62,2.83,2.83,0,0,1-1.88,2c-1.22.28-2.32-.24-3.61-1.12h0a.45.45,0,0,0-.5.74h0c1.28.87,2.69,1.63,4.31,1.25a3.73,3.73,0,0,0,2.53-2.62,2.7,2.7,0,0,0-.62-2.52h0a.44.44,0,1,0-.61.64Z"/><path class="cls-1" d="M607.29,159.14a2.91,2.91,0,0,0,.18-.92,1.22,1.22,0,0,1,.32-.9,2.12,2.12,0,0,1,1.22-.46h0a.45.45,0,0,0,.38-.5.43.43,0,0,0-.5-.38h0a2.85,2.85,0,0,0-1.75.73,2.08,2.08,0,0,0-.56,1.45,2.07,2.07,0,0,1-.12.65h0a.45.45,0,1,0,.83.33Z"/><path class="cls-1" d="M603.92,156.09a2.22,2.22,0,0,1,0,.51,3.13,3.13,0,0,0,0,.75,5.26,5.26,0,0,0,.22.87l.1.3h0a.44.44,0,0,0,.55.3.44.44,0,0,0,.3-.55h0c0-.11-.06-.21-.1-.33a4,4,0,0,1-.19-.71,2,2,0,0,1,0-.55,3.15,3.15,0,0,0,0-.69h0a.45.45,0,0,0-.49-.39.44.44,0,0,0-.39.49Z"/><path class="cls-1" d="M607.47,156.82l-.27-.19c-.76-.54-1.81-1.28-2.75-.89h0a.46.46,0,0,0-.24.59.44.44,0,0,0,.58.23h0c.49-.2,1.34.4,1.9.8l.27.2h0a.46.46,0,0,0,.62-.12.45.45,0,0,0-.11-.62Z"/><path class="cls-1" d="M610.72,163.79a3.24,3.24,0,0,1-.56-.72,2.8,2.8,0,0,1,.24-1.95c.17-.3.88-1.21,1.27-.72.23.27-.33,1.47-.31,1.85,0,.7.4,1.33.15,2C611.43,164.43,611.05,164.14,610.72,163.79Z"/><path class="cls-1" d="M607.32,163.85a2.19,2.19,0,0,1,.39-.42,2.77,2.77,0,0,1,2.92-.2c.61.29,0,.92-.42,1-.53.13-1.11-.19-1.64-.15S607.05,164.33,607.32,163.85Z"/><path class="cls-1" d="M534.29,235.38a14.53,14.53,0,0,1-1.79,1,11.77,11.77,0,0,0-2.56,1.54,12,12,0,0,0-.94,1l-.44.46h0a.44.44,0,0,0,0,.63.45.45,0,0,0,.63,0h0l.45-.48a10.35,10.35,0,0,1,.87-.88,10.79,10.79,0,0,1,2.38-1.42,16.73,16.73,0,0,0,1.89-1h0a.44.44,0,0,0,.12-.62.45.45,0,0,0-.62-.12Z"/><path class="cls-1" d="M536.12,231.54a2.11,2.11,0,0,1,.53,1.57,1.75,1.75,0,0,1-.39,1,5.23,5.23,0,0,0-.31.49h0a.45.45,0,0,0,.18.61.47.47,0,0,0,.61-.18h0a3.5,3.5,0,0,1,.26-.43,2.61,2.61,0,0,0,.54-1.42,2.93,2.93,0,0,0-.82-2.27h0a.45.45,0,0,0-.63,0,.44.44,0,0,0,0,.63Z"/><path class="cls-1" d="M538,237.11a1.82,1.82,0,0,1-1.66.09,2.84,2.84,0,0,1-1.65-2.2c-.07-1.24.64-2.24,1.73-3.36h0a.45.45,0,1,0-.64-.62h0c-1.08,1.11-2.07,2.37-2,4A3.71,3.71,0,0,0,536,238a2.7,2.7,0,0,0,2.59-.16h0a.45.45,0,0,0,.09-.63.45.45,0,0,0-.62-.09Z"/><path class="cls-1" d="M536.27,235.16a3,3,0,0,0,.87.34,1.18,1.18,0,0,1,.83.48,2,2,0,0,1,.24,1.27h0a.45.45,0,0,0,.43.46.44.44,0,0,0,.46-.42h0a2.8,2.8,0,0,0-.42-1.86,2.12,2.12,0,0,0-1.32-.8,1.84,1.84,0,0,1-.63-.23h0a.44.44,0,1,0-.46.76Z"/><path class="cls-1" d="M539.85,232.37a2.37,2.37,0,0,1-.49-.1,3.24,3.24,0,0,0-.74-.14,5.21,5.21,0,0,0-.9.07l-.31.05h0a.44.44,0,0,0,.1.88h0l.34,0a3.83,3.83,0,0,1,.73-.07,2.73,2.73,0,0,1,.54.11,2.83,2.83,0,0,0,.68.13h0a.45.45,0,0,0,.47-.42.45.45,0,0,0-.42-.47Z"/><path class="cls-1" d="M538.52,235.74l.23-.23c.67-.66,1.58-1.56,1.35-2.56h0a.44.44,0,0,0-.86.2h0c.11.52-.62,1.24-1.11,1.73l-.25.24h0a.45.45,0,0,0,0,.63.44.44,0,0,0,.63,0Z"/><path class="cls-1" d="M531.09,237.74a3.21,3.21,0,0,1,.8-.43,2.74,2.74,0,0,1,1.89.57c.27.22,1,1.07.49,1.38-.31.17-1.39-.58-1.77-.63-.7-.08-1.38.16-2-.2C530.34,238.32,530.69,238,531.09,237.74Z"/><path class="cls-1" d="M531.62,234.37a2.11,2.11,0,0,1,.35.46,2.79,2.79,0,0,1-.31,2.91c-.4.55-.9-.19-.92-.59,0-.55.37-1.06.43-1.59S531.2,234,531.62,234.37Z"/><path class="cls-1" d="M682.63,236.8a15.69,15.69,0,0,1,1.34-1.54,11.85,11.85,0,0,0,1.88-2.33,12.27,12.27,0,0,0,.56-1.23c.08-.2.16-.39.25-.57h0a.44.44,0,0,0-.23-.59.45.45,0,0,0-.59.22h0l-.25.6c-.16.38-.33.78-.52,1.13a10.65,10.65,0,0,1-1.74,2.16,14.81,14.81,0,0,0-1.42,1.63h0a.44.44,0,0,0,.72.52Z"/><path class="cls-1" d="M682.24,241.05a2.13,2.13,0,0,1-1-1.31,1.77,1.77,0,0,1,0-1c0-.17.09-.36.12-.57h0a.44.44,0,0,0-.88-.13h0c0,.17-.07.34-.1.5a2.51,2.51,0,0,0,0,1.52,2.91,2.91,0,0,0,1.54,1.85h0a.46.46,0,0,0,.59-.24.45.45,0,0,0-.24-.58Z"/><path class="cls-1" d="M678.52,236.46a1.83,1.83,0,0,1,1.52-.65,2.83,2.83,0,0,1,2.31,1.5c.49,1.15.17,2.34-.47,3.76h0a.43.43,0,0,0,.22.59.45.45,0,0,0,.59-.23h0a5.44,5.44,0,0,0,.48-4.47,3.73,3.73,0,0,0-3-2,2.71,2.71,0,0,0-2.38,1.05h0a.45.45,0,0,0,.13.62.46.46,0,0,0,.62-.13Z"/><path class="cls-1" d="M680.85,237.69a2.73,2.73,0,0,0-.94,0,1.19,1.19,0,0,1-.94-.16,2.12,2.12,0,0,1-.66-1.12h0a.45.45,0,0,0-.85.27h0a2.84,2.84,0,0,0,1,1.6,2.1,2.1,0,0,0,1.52.3,1.83,1.83,0,0,1,.66,0h0a.45.45,0,0,0,.53-.35.44.44,0,0,0-.35-.52Z"/><path class="cls-1" d="M678.44,241.54a2.51,2.51,0,0,1,.5-.07,3,3,0,0,0,.74-.13,4.74,4.74,0,0,0,.82-.37l.28-.15h0a.45.45,0,0,0-.4-.8h0l-.31.16a4,4,0,0,1-.66.32,2.92,2.92,0,0,1-.54.08,3.43,3.43,0,0,0-.68.11h0a.44.44,0,1,0,.25.85Z"/><path class="cls-1" d="M678.53,237.92c0,.09-.08.19-.13.29-.4.85-.95,2-.39,2.87h0a.44.44,0,0,0,.74-.48h0c-.28-.45.16-1.39.45-2l.15-.31h0a.45.45,0,0,0-.82-.36Z"/><path class="cls-1" d="M684.83,233.49a3,3,0,0,1-.61.67,2.73,2.73,0,0,1-2,.11c-.32-.11-1.33-.65-.93-1.13.23-.26,1.51.07,1.88,0,.69-.16,1.24-.63,1.91-.49C685.34,232.69,685.11,233.1,684.83,233.49Z"/><path class="cls-1" d="M685.48,236.83a2.11,2.11,0,0,1-.48-.31,2.78,2.78,0,0,1-.71-2.84c.18-.66.91-.13,1.07.24s0,1.12.14,1.65S686,237,685.48,236.83Z"/><path class="cls-1" d="M682.29,85.49a16.2,16.2,0,0,0-1.84-1.16,11,11,0,0,1-2.28-1.56,9.36,9.36,0,0,1-.82-.94l-.42-.5h0a.45.45,0,1,0-.67.59h0l.4.48c.28.34.57.69.89,1a12,12,0,0,0,2.46,1.7,14.13,14.13,0,0,1,1.73,1.09h0a.45.45,0,0,0,.55-.71Z"/><path class="cls-1" d="M683.9,90.84a2.93,2.93,0,0,0,1-2.22,2.55,2.55,0,0,0-.45-1.45c-.08-.14-.17-.29-.24-.44h0a.45.45,0,0,0-.81.37h0c.09.2.19.37.27.52a1.67,1.67,0,0,1,.34,1,2.12,2.12,0,0,1-.62,1.54h0a.44.44,0,1,0,.56.69Z"/><path class="cls-1" d="M686.16,84a2.74,2.74,0,0,0-2.58-.32,3.73,3.73,0,0,0-2.31,2.82c-.19,1.66.73,3,1.74,4.15h0a.45.45,0,1,0,.68-.58h0c-1-1.18-1.67-2.22-1.53-3.47a2.82,2.82,0,0,1,1.78-2.1,1.86,1.86,0,0,1,1.65.18h0a.43.43,0,0,0,.62-.05.44.44,0,0,0-.05-.63Z"/><path class="cls-1" d="M684.12,87.32a2.05,2.05,0,0,1,.64-.19,2.11,2.11,0,0,0,1.37-.73,2.93,2.93,0,0,0,.53-1.83h0a.45.45,0,0,0-.44-.45.44.44,0,0,0-.45.44h0a2.1,2.1,0,0,1-.32,1.26,1.18,1.18,0,0,1-.86.43,3.2,3.2,0,0,0-.89.28h0a.46.46,0,0,0-.18.61.44.44,0,0,0,.6.18Z"/><path class="cls-1" d="M687.11,88.64a3.47,3.47,0,0,0-.68.1,2.11,2.11,0,0,1-.54.07,3.76,3.76,0,0,1-.73-.1l-.34-.07h0a.44.44,0,0,0-.51.37.44.44,0,0,0,.36.51h0l.31.06a4.9,4.9,0,0,0,.89.12,3,3,0,0,0,.75-.09,2.22,2.22,0,0,1,.49-.07h0a.45.45,0,0,0,0-.9Z"/><path class="cls-1" d="M685.31,86.67l.23.26c.46.51,1.15,1.28,1,1.79h0a.44.44,0,0,0,.3.55.45.45,0,0,0,.55-.3h0c.29-1-.57-1.94-1.2-2.64l-.21-.24h0a.45.45,0,0,0-.68.58Z"/><path class="cls-1" d="M678.68,83.65a3.48,3.48,0,0,0,.78.48,2.79,2.79,0,0,0,1.92-.47c.28-.19,1.09-1,.57-1.34-.3-.2-1.42.5-1.8.52-.71,0-1.38-.24-2,.08C678,83,678.3,83.36,678.68,83.65Z"/><path class="cls-1" d="M679,87.05a1.83,1.83,0,0,0,.38-.44,2.77,2.77,0,0,0-.14-2.93c-.36-.57-.9.15-1,.54-.07.55.31,1.08.34,1.62S678.58,87.38,679,87.05Z"/><path class="cls-1" d="M460.89,311.72a15.66,15.66,0,0,0,.63,2.08,10.65,10.65,0,0,1,.7,2.67,10.39,10.39,0,0,1,0,1.25c0,.21,0,.43,0,.65h0a.45.45,0,1,0,.89,0h0c0-.2,0-.41,0-.63a10,10,0,0,0,0-1.34,11.67,11.67,0,0,0-.75-2.9,13.65,13.65,0,0,1-.59-2h0a.45.45,0,0,0-.88.18Z"/><path class="cls-1" d="M463.18,306.62a3,3,0,0,0-2.18,1.05,2.63,2.63,0,0,0-.6,1.4,4.85,4.85,0,0,1-.11.49h0a.44.44,0,0,0,.85.25h0a5.58,5.58,0,0,0,.13-.57,1.8,1.8,0,0,1,.4-1,2.09,2.09,0,0,1,1.48-.76h0a.45.45,0,0,0,0-.89Z"/><path class="cls-1" d="M457,310.31a2.72,2.72,0,0,0,1.74,1.93,3.71,3.71,0,0,0,3.59-.62c1.23-1.13,1.4-2.72,1.4-4.28h0a.45.45,0,0,0-.89,0h0c0,1.56-.19,2.78-1.11,3.63a2.85,2.85,0,0,1-2.72.42,1.83,1.83,0,0,1-1.13-1.22h0a.45.45,0,0,0-.88.14Z"/><path class="cls-1" d="M460.7,309.14a2.5,2.5,0,0,1-.6-.27,2.05,2.05,0,0,0-1.51-.35,2.8,2.8,0,0,0-1.6,1h0a.45.45,0,1,0,.66.6h0a2.06,2.06,0,0,1,1.07-.75,1.23,1.23,0,0,1,.93.24,3.16,3.16,0,0,0,.86.37h0a.45.45,0,0,0,.53-.34.45.45,0,0,0-.34-.53Z"/><path class="cls-1" d="M459.31,306.18a3.12,3.12,0,0,0,.58.37,3.33,3.33,0,0,1,.46.3,5.4,5.4,0,0,1,.48.56l.21.28h0a.45.45,0,0,0,.63.05.44.44,0,0,0,.06-.62h0l-.2-.25a5.11,5.11,0,0,0-.58-.68,3.63,3.63,0,0,0-.63-.42,2.25,2.25,0,0,1-.43-.27h0a.45.45,0,0,0-.58.68Z"/><path class="cls-1" d="M459.38,308.85v-.34c0-.69,0-1.73.41-2h0a.45.45,0,0,0,.13-.61.44.44,0,0,0-.61-.14h0c-.87.56-.84,1.85-.83,2.79,0,.11,0,.22,0,.32h0a.45.45,0,0,0,.89,0Z"/><path class="cls-1" d="M462.41,315.47a3.43,3.43,0,0,0-.27-.87,2.72,2.72,0,0,0-1.76-.9c-.34,0-1.49,0-1.31.64.1.34,1.4.56,1.7.79.57.43.88,1.08,1.55,1.23C462.55,316.41,462.51,315.94,462.41,315.47Z"/><path class="cls-1" d="M464.39,312.69a1.88,1.88,0,0,0-.58.08,2.8,2.8,0,0,0-1.81,2.3c-.1.68.78.49,1.08.23s.47-1,.8-1.45S464.93,312.72,464.39,312.69Z"/><path class="cls-1" d="M609.16,311.59a14.5,14.5,0,0,1-1.79,1,11.43,11.43,0,0,0-2.56,1.55,9.36,9.36,0,0,0-.94.95l-.44.46h0a.44.44,0,0,0,0,.63.45.45,0,0,0,.63,0h0l.45-.48a12.06,12.06,0,0,1,.87-.88,11.37,11.37,0,0,1,2.37-1.42,14.72,14.72,0,0,0,1.9-1.05h0a.44.44,0,0,0,.12-.62.44.44,0,0,0-.62-.11Z"/><path class="cls-1" d="M611,307.74a2.12,2.12,0,0,1,.53,1.58,1.72,1.72,0,0,1-.39,1,5.47,5.47,0,0,0-.31.5h0a.44.44,0,0,0,.18.6.43.43,0,0,0,.6-.18h0l.27-.43a2.55,2.55,0,0,0,.54-1.42,2.93,2.93,0,0,0-.82-2.27h0a.45.45,0,0,0-.63,0,.44.44,0,0,0,0,.63Z"/><path class="cls-1" d="M612.91,313.32a1.85,1.85,0,0,1-1.66.08,2.83,2.83,0,0,1-1.65-2.19c-.07-1.25.64-2.25,1.73-3.37h0a.44.44,0,0,0,0-.63.45.45,0,0,0-.63,0h0a5.45,5.45,0,0,0-2,4,3.72,3.72,0,0,0,2.14,2.94,2.7,2.7,0,0,0,2.59-.17h0a.44.44,0,0,0-.53-.71Z"/><path class="cls-1" d="M611.14,311.37a3,3,0,0,0,.87.33,1.18,1.18,0,0,1,.83.48,2,2,0,0,1,.24,1.27h0a.45.45,0,0,0,.43.47.44.44,0,0,0,.46-.43h0a2.81,2.81,0,0,0-.42-1.85,2.1,2.1,0,0,0-1.32-.81,2.06,2.06,0,0,1-.63-.22h0a.44.44,0,0,0-.61.14.45.45,0,0,0,.15.62Z"/><path class="cls-1" d="M614.72,308.57a1.86,1.86,0,0,1-.49-.1,3.24,3.24,0,0,0-.74-.14,5.19,5.19,0,0,0-.9.08l-.31,0h0a.44.44,0,0,0-.39.49.45.45,0,0,0,.49.4h0l.34,0a4.73,4.73,0,0,1,.73-.07,2.73,2.73,0,0,1,.54.11,2.83,2.83,0,0,0,.68.13h0a.44.44,0,0,0,.47-.41.46.46,0,0,0-.42-.48Z"/><path class="cls-1" d="M613.39,311.94l.23-.23c.67-.65,1.58-1.55,1.35-2.55h0a.44.44,0,1,0-.86.2h0c.11.51-.62,1.24-1.11,1.72l-.25.24h0a.45.45,0,0,0,0,.63.44.44,0,0,0,.63,0Z"/><path class="cls-1" d="M606,313.94a3,3,0,0,1,.8-.43,2.8,2.8,0,0,1,1.89.58c.27.21,1,1.07.49,1.37-.31.18-1.39-.58-1.77-.62-.7-.09-1.38.16-2-.2C605.21,314.52,605.56,314.21,606,313.94Z"/><path class="cls-1" d="M606.49,310.58a1.7,1.7,0,0,1,.35.46,2.78,2.78,0,0,1-.31,2.9c-.4.56-.9-.19-.93-.58,0-.55.38-1.06.44-1.6S606.07,310.23,606.49,310.58Z"/><path class="cls-1" d="M534.12,388.55a14.62,14.62,0,0,1-1.34,1.54,11.91,11.91,0,0,0-1.88,2.34c-.21.39-.39.81-.56,1.22-.08.2-.16.39-.25.58h0a.45.45,0,1,0,.82.36h0l.25-.6c.16-.38.33-.78.52-1.13a10.87,10.87,0,0,1,1.74-2.15,14.81,14.81,0,0,0,1.42-1.63h0a.45.45,0,1,0-.72-.53Z"/><path class="cls-1" d="M534.51,384.31a2.11,2.11,0,0,1,1,1.3,1.85,1.85,0,0,1,0,1c0,.17-.09.36-.12.57h0a.44.44,0,1,0,.88.13h0c0-.17.07-.33.1-.49a2.52,2.52,0,0,0,0-1.52,2.89,2.89,0,0,0-1.55-1.85h0a.44.44,0,0,0-.58.24.45.45,0,0,0,.24.58Z"/><path class="cls-1" d="M538.23,388.9a1.86,1.86,0,0,1-1.52.65,2.85,2.85,0,0,1-2.31-1.5c-.49-1.16-.17-2.34.47-3.76h0a.45.45,0,0,0-.81-.37h0a5.47,5.47,0,0,0-.48,4.48,3.72,3.72,0,0,0,3,2,2.73,2.73,0,0,0,2.38-1h0a.45.45,0,0,0-.13-.62.44.44,0,0,0-.62.13Z"/><path class="cls-1" d="M535.9,387.67a3,3,0,0,0,.94,0,1.2,1.2,0,0,1,.94.17,2.12,2.12,0,0,1,.66,1.12h0a.46.46,0,0,0,.56.29.44.44,0,0,0,.29-.56h0a2.84,2.84,0,0,0-1-1.6,2,2,0,0,0-1.52-.3,2.09,2.09,0,0,1-.66,0h0a.46.46,0,0,0-.53.35.45.45,0,0,0,.35.53Z"/><path class="cls-1" d="M538.3,383.81a2.28,2.28,0,0,1-.49.08,3.63,3.63,0,0,0-.75.12,5.52,5.52,0,0,0-.81.38l-.28.14h0a.45.45,0,0,0,.4.8h0l.3-.16a4,4,0,0,1,.67-.31,2.9,2.9,0,0,1,.54-.09,2.8,2.8,0,0,0,.68-.1h0a.45.45,0,0,0,.3-.56.45.45,0,0,0-.56-.3Z"/><path class="cls-1" d="M538.21,387.44c0-.09.09-.19.14-.3.4-.85.95-2,.39-2.87h0a.45.45,0,0,0-.61-.13.44.44,0,0,0-.13.62h0c.28.44-.16,1.38-.45,2-.06.11-.1.22-.15.32h0a.45.45,0,0,0,.81.37Z"/><path class="cls-1" d="M531.92,391.87a3.18,3.18,0,0,1,.61-.68,2.79,2.79,0,0,1,2-.11c.32.11,1.33.66.93,1.13-.23.27-1.51-.07-1.88,0-.69.16-1.24.62-1.91.49C531.41,392.67,531.64,392.25,531.92,391.87Z"/><path class="cls-1" d="M531.26,388.52a1.63,1.63,0,0,1,.49.32,2.76,2.76,0,0,1,.71,2.83c-.18.66-.91.13-1.07-.23s0-1.13-.14-1.65S530.75,388.33,531.26,388.52Z"/><path class="cls-1" d="M462,465.12a16.2,16.2,0,0,0-1.84-1.16,10.67,10.67,0,0,1-2.28-1.56,9.36,9.36,0,0,1-.82-.94l-.42-.49h0a.44.44,0,0,0-.63-.05.45.45,0,0,0,0,.63h0l.4.48c.28.34.57.69.89,1a12,12,0,0,0,2.46,1.7,14.13,14.13,0,0,1,1.73,1.09h0a.45.45,0,1,0,.55-.71Z"/><path class="cls-1" d="M463.58,470.47a2.92,2.92,0,0,0,.95-2.21,2.56,2.56,0,0,0-.45-1.46,4.56,4.56,0,0,1-.24-.44h0a.45.45,0,1,0-.81.37h0c.09.2.19.37.27.52a1.69,1.69,0,0,1,.34,1,2.1,2.1,0,0,1-.62,1.54h0a.44.44,0,1,0,.56.69Z"/><path class="cls-1" d="M465.84,463.63a2.71,2.71,0,0,0-2.58-.31,3.7,3.7,0,0,0-2.31,2.81c-.19,1.66.73,3,1.74,4.15h0a.45.45,0,1,0,.68-.58h0c-1-1.18-1.67-2.22-1.53-3.47a2.82,2.82,0,0,1,1.78-2.1,1.86,1.86,0,0,1,1.65.18h0a.43.43,0,0,0,.62-.05.44.44,0,0,0-.05-.63Z"/><path class="cls-1" d="M463.8,467a2.05,2.05,0,0,1,.64-.19,2.07,2.07,0,0,0,1.37-.73,2.91,2.91,0,0,0,.53-1.83h0a.45.45,0,0,0-.89,0h0a2.1,2.1,0,0,1-.32,1.26,1.18,1.18,0,0,1-.86.43,3,3,0,0,0-.89.29h0a.45.45,0,0,0-.18.61.44.44,0,0,0,.6.18Z"/><path class="cls-1" d="M466.79,468.28a2.87,2.87,0,0,0-.68.09,2.11,2.11,0,0,1-.54.07,3.76,3.76,0,0,1-.73-.1l-.34-.07h0a.44.44,0,0,0-.51.37.44.44,0,0,0,.36.51h0l.31.06a4.9,4.9,0,0,0,.89.12,3,3,0,0,0,.75-.09,2.22,2.22,0,0,1,.49-.07h0a.45.45,0,0,0,.45-.45.44.44,0,0,0-.45-.44Z"/><path class="cls-1" d="M465,466.3l.23.26c.46.51,1.15,1.28,1,1.79h0a.44.44,0,0,0,.3.55.45.45,0,0,0,.55-.3h0c.29-1-.57-1.94-1.2-2.64l-.22-.24h0a.43.43,0,0,0-.62-.05.45.45,0,0,0-.05.63Z"/><path class="cls-1" d="M458.36,463.28a3.48,3.48,0,0,0,.78.48,2.78,2.78,0,0,0,1.92-.46c.28-.2,1.09-1,.57-1.35-.3-.19-1.42.5-1.8.52-.71,0-1.38-.24-2,.08C457.65,462.66,458,463,458.36,463.28Z"/><path class="cls-1" d="M458.69,466.68a1.83,1.83,0,0,0,.38-.44,2.77,2.77,0,0,0-.14-2.93c-.36-.57-.9.15-.95.54-.07.55.31,1.08.34,1.62S458.26,467,458.69,466.68Z"/><path class="cls-1" d="M607.85,464.14a15.87,15.87,0,0,1,1.28,1.59,12,12,0,0,0,2,2.26c.35.28.73.53,1.1.77.19.11.36.22.53.34h0a.44.44,0,0,0,.62-.12.46.46,0,0,0-.12-.62h0l-.55-.35c-.35-.23-.71-.46-1-.71a11.16,11.16,0,0,1-1.81-2.09,15.48,15.48,0,0,0-1.36-1.69h0a.45.45,0,1,0-.64.62Z"/><path class="cls-1" d="M603.75,463a2.11,2.11,0,0,1,1.46-.8,1.8,1.8,0,0,1,1,.23l.53.21h0a.45.45,0,0,0,.57-.28.46.46,0,0,0-.28-.57h0c-.17-.05-.32-.12-.47-.18a2.52,2.52,0,0,0-1.49-.29,2.9,2.9,0,0,0-2.09,1.2h0a.44.44,0,0,0,.13.62.45.45,0,0,0,.62-.14Z"/><path class="cls-1" d="M608.9,460.15a1.84,1.84,0,0,1,.38,1.62,2.85,2.85,0,0,1-1.88,2c-1.22.28-2.32-.25-3.61-1.13h0a.46.46,0,0,0-.62.12.44.44,0,0,0,.12.62h0a5.39,5.39,0,0,0,4.31,1.25,3.7,3.7,0,0,0,2.53-2.61,2.72,2.72,0,0,0-.62-2.53h0a.44.44,0,0,0-.63,0,.45.45,0,0,0,0,.63Z"/><path class="cls-1" d="M607.29,462.23a2.86,2.86,0,0,0,.18-.92,1.24,1.24,0,0,1,.32-.9A2.13,2.13,0,0,1,609,460h0a.46.46,0,0,0,.38-.51.45.45,0,0,0-.5-.38h0a2.85,2.85,0,0,0-1.75.74,2.05,2.05,0,0,0-.56,1.44,2.19,2.19,0,0,1-.12.66h0a.44.44,0,0,0,.25.57.45.45,0,0,0,.58-.25Z"/><path class="cls-1" d="M603.92,459.19a2.16,2.16,0,0,1,0,.5,3.21,3.21,0,0,0,0,.76,5.4,5.4,0,0,0,.22.86l.1.3h0a.44.44,0,1,0,.85-.24h0c0-.11-.06-.22-.1-.33a4,4,0,0,1-.19-.72,2,2,0,0,1,0-.54,3.16,3.16,0,0,0,0-.69h0a.44.44,0,0,0-.49-.39.43.43,0,0,0-.39.49Z"/><path class="cls-1" d="M607.47,459.92l-.27-.19c-.76-.54-1.81-1.29-2.75-.89h0a.45.45,0,0,0-.24.58.44.44,0,0,0,.58.24h0c.49-.21,1.34.4,1.9.8l.27.19h0a.45.45,0,0,0,.51-.73Z"/><path class="cls-1" d="M610.72,466.89a3.24,3.24,0,0,1-.56-.72,2.84,2.84,0,0,1,.24-2c.17-.3.88-1.2,1.27-.72.23.28-.33,1.47-.31,1.85,0,.71.4,1.34.15,2C611.43,467.53,611.05,467.23,610.72,466.89Z"/><path class="cls-1" d="M607.32,467a2.19,2.19,0,0,1,.39-.42,2.75,2.75,0,0,1,2.92-.2c.61.29,0,.91-.42,1-.53.13-1.11-.19-1.64-.16S607.05,467.42,607.32,467Z"/><path class="cls-1" d="M534.29,538.48a14.5,14.5,0,0,1-1.79,1,11.43,11.43,0,0,0-2.56,1.55,10.52,10.52,0,0,0-.94,1l-.44.46h0a.45.45,0,1,0,.64.62h0l.45-.48a12.06,12.06,0,0,1,.87-.88,11.19,11.19,0,0,1,2.38-1.42,16.64,16.64,0,0,0,1.89-1h0a.45.45,0,1,0-.5-.74Z"/><path class="cls-1" d="M536.12,534.63a2.12,2.12,0,0,1,.53,1.58,1.69,1.69,0,0,1-.39,1,5.47,5.47,0,0,0-.31.5h0a.44.44,0,0,0,.18.6.45.45,0,0,0,.61-.18h0c.08-.15.17-.29.26-.43a2.55,2.55,0,0,0,.54-1.42,2.9,2.9,0,0,0-.82-2.26h0a.44.44,0,0,0-.63,0,.44.44,0,0,0,0,.63Z"/><path class="cls-1" d="M538,540.21a1.85,1.85,0,0,1-1.66.08,2.83,2.83,0,0,1-1.65-2.19c-.07-1.25.64-2.25,1.73-3.36h0a.45.45,0,1,0-.64-.63h0a5.45,5.45,0,0,0-2,4,3.72,3.72,0,0,0,2.14,2.94,2.7,2.7,0,0,0,2.59-.17h0a.44.44,0,1,0-.53-.71Z"/><path class="cls-1" d="M536.27,538.26a2.72,2.72,0,0,0,.87.33,1.22,1.22,0,0,1,.83.48,2.08,2.08,0,0,1,.24,1.28h0a.45.45,0,0,0,.43.46.44.44,0,0,0,.46-.43h0a2.76,2.76,0,0,0-.42-1.85,2,2,0,0,0-1.32-.8,2.38,2.38,0,0,1-.63-.23h0a.44.44,0,0,0-.46.76Z"/><path class="cls-1" d="M539.85,535.47a2.43,2.43,0,0,1-.49-.11,3.26,3.26,0,0,0-.74-.13,4.38,4.38,0,0,0-.9.07l-.31,0h0a.45.45,0,0,0,.1.89h0l.34-.05a4.78,4.78,0,0,1,.73-.06,2.13,2.13,0,0,1,.54.1,3.41,3.41,0,0,0,.68.14h0a.46.46,0,0,0,.47-.42.44.44,0,0,0-.42-.47Z"/><path class="cls-1" d="M538.52,538.84l.23-.23c.67-.66,1.58-1.56,1.35-2.56h0a.44.44,0,1,0-.86.2h0c.11.51-.62,1.24-1.11,1.72l-.25.24h0a.45.45,0,0,0,0,.63.44.44,0,0,0,.63,0Z"/><path class="cls-1" d="M531.09,540.83a3.62,3.62,0,0,1,.8-.43,2.8,2.8,0,0,1,1.89.58c.27.21,1,1.07.49,1.38-.31.17-1.39-.58-1.77-.63-.7-.09-1.38.16-2-.2C530.34,541.41,530.69,541.1,531.09,540.83Z"/><path class="cls-1" d="M531.62,537.47a1.88,1.88,0,0,1,.35.46,2.8,2.8,0,0,1-.31,2.91c-.4.55-.9-.2-.92-.59,0-.55.37-1.06.43-1.6S531.2,537.12,531.62,537.47Z"/><path class="cls-1" d="M682.63,539.9a14.62,14.62,0,0,1,1.34-1.54,11.63,11.63,0,0,0,1.88-2.34,11.18,11.18,0,0,0,.56-1.22c.08-.2.16-.39.25-.58h0a.45.45,0,0,0-.82-.36h0l-.25.6c-.16.38-.33.78-.52,1.13a10.87,10.87,0,0,1-1.74,2.15,14.92,14.92,0,0,0-1.42,1.64h0a.44.44,0,0,0,.1.62.45.45,0,0,0,.62-.1Z"/><path class="cls-1" d="M682.24,544.14a2.11,2.11,0,0,1-1-1.3,1.77,1.77,0,0,1,0-1c0-.17.09-.36.12-.57h0a.44.44,0,1,0-.88-.13h0c0,.17-.07.33-.1.49a2.52,2.52,0,0,0,0,1.52,2.88,2.88,0,0,0,1.54,1.85h0a.45.45,0,0,0,.59-.24.46.46,0,0,0-.24-.58Z"/><path class="cls-1" d="M678.52,539.55a1.86,1.86,0,0,1,1.52-.65,2.85,2.85,0,0,1,2.31,1.5c.49,1.16.17,2.34-.47,3.76h0a.43.43,0,0,0,.22.59.45.45,0,0,0,.59-.22h0a5.47,5.47,0,0,0,.48-4.48,3.72,3.72,0,0,0-3-2,2.73,2.73,0,0,0-2.38,1h0a.45.45,0,0,0,.13.62.44.44,0,0,0,.62-.13Z"/><path class="cls-1" d="M680.85,540.78a3,3,0,0,0-.94,0,1.2,1.2,0,0,1-.94-.17,2.12,2.12,0,0,1-.66-1.12h0a.46.46,0,0,0-.56-.29.45.45,0,0,0-.29.56h0a2.84,2.84,0,0,0,1,1.6,2,2,0,0,0,1.52.3,2.09,2.09,0,0,1,.66,0h0a.46.46,0,0,0,.53-.35.45.45,0,0,0-.35-.53Z"/><path class="cls-1" d="M678.44,544.64a2.49,2.49,0,0,1,.5-.08,3.45,3.45,0,0,0,.74-.12,4.76,4.76,0,0,0,.82-.38l.28-.14h0a.45.45,0,0,0-.4-.8h0l-.31.16a3.92,3.92,0,0,1-.66.31,2.9,2.9,0,0,1-.54.09,2.8,2.8,0,0,0-.68.1h0a.45.45,0,0,0,.25.86Z"/><path class="cls-1" d="M678.53,541l-.13.3c-.4.84-.95,2-.39,2.87h0a.44.44,0,1,0,.74-.49h0c-.28-.44.16-1.38.45-2l.15-.32h0a.44.44,0,0,0-.23-.58.45.45,0,0,0-.59.22Z"/><path class="cls-1" d="M684.83,536.58a3.18,3.18,0,0,1-.61.68,2.79,2.79,0,0,1-2,.11c-.32-.11-1.33-.66-.93-1.13.23-.27,1.51.07,1.88,0,.69-.16,1.24-.62,1.91-.48C685.34,535.78,685.11,536.2,684.83,536.58Z"/><path class="cls-1" d="M685.48,539.93a2.11,2.11,0,0,1-.48-.31,2.78,2.78,0,0,1-.71-2.84c.18-.66.91-.13,1.07.23s0,1.13.14,1.65S686,540.12,685.48,539.93Z"/><path class="cls-1" d="M682.29,388.59a14.91,14.91,0,0,0-1.84-1.16,11,11,0,0,1-2.28-1.56,12.26,12.26,0,0,1-.82-.94l-.42-.5h0a.44.44,0,0,0-.63-.05.45.45,0,0,0,0,.63h0l.4.48a12.13,12.13,0,0,0,.89,1,11.27,11.27,0,0,0,2.46,1.7,15.45,15.45,0,0,1,1.73,1.09h0a.45.45,0,1,0,.55-.7Z"/><path class="cls-1" d="M683.9,393.94a2.93,2.93,0,0,0,1-2.22,2.52,2.52,0,0,0-.45-1.45,4.76,4.76,0,0,1-.24-.45h0a.45.45,0,0,0-.81.38h0c.09.19.19.36.27.51a1.69,1.69,0,0,1,.34,1,2.14,2.14,0,0,1-.62,1.55h0a.45.45,0,0,0-.07.63.46.46,0,0,0,.63.06Z"/><path class="cls-1" d="M686.16,387.1a2.68,2.68,0,0,0-2.58-.32,3.73,3.73,0,0,0-2.31,2.82c-.19,1.66.73,3,1.74,4.15h0a.45.45,0,0,0,.63,0,.44.44,0,0,0,.05-.63h0c-1-1.17-1.67-2.21-1.53-3.46a2.81,2.81,0,0,1,1.78-2.1,1.83,1.83,0,0,1,1.65.18h0a.44.44,0,0,0,.57-.68Z"/><path class="cls-1" d="M684.12,390.42a2.07,2.07,0,0,1,.64-.2,2,2,0,0,0,1.37-.72,3,3,0,0,0,.53-1.83h0a.45.45,0,1,0-.89,0h0a2.16,2.16,0,0,1-.32,1.27,1.26,1.26,0,0,1-.86.43,2.9,2.9,0,0,0-.89.28h0a.45.45,0,0,0,.42.79Z"/><path class="cls-1" d="M687.11,391.74a3.5,3.5,0,0,0-.68.09,2.71,2.71,0,0,1-.54.08,4.78,4.78,0,0,1-.73-.11l-.34-.07h0a.45.45,0,0,0-.15.88h0l.31.06a4.89,4.89,0,0,0,.89.13,3,3,0,0,0,.75-.1,3,3,0,0,1,.49-.07h0a.45.45,0,1,0,0-.89Z"/><path class="cls-1" d="M685.31,389.77l.23.25c.46.51,1.15,1.28,1,1.79h0a.44.44,0,1,0,.85.25h0c.29-1-.57-1.94-1.2-2.64a2.25,2.25,0,0,1-.21-.24h0a.45.45,0,0,0-.63,0,.44.44,0,0,0-.05.63Z"/><path class="cls-1" d="M678.68,386.75a3,3,0,0,0,.78.47,2.73,2.73,0,0,0,1.92-.46c.28-.2,1.09-1,.57-1.35-.3-.19-1.42.5-1.8.52-.71.05-1.38-.23-2,.09C678,386.13,678.3,386.46,678.68,386.75Z"/><path class="cls-1" d="M679,390.15a2.37,2.37,0,0,0,.38-.44,2.77,2.77,0,0,0-.14-2.93c-.36-.58-.9.14-1,.53-.07.55.31,1.08.34,1.62S678.58,390.47,679,390.15Z"/><path class="cls-1" d="M460.89,614.82a16,16,0,0,0,.63,2.07,10.62,10.62,0,0,1,.7,2.68,10.24,10.24,0,0,1,0,1.24c0,.22,0,.44,0,.66h0a.45.45,0,0,0,.89,0h0c0-.21,0-.41,0-.63a10.15,10.15,0,0,0,0-1.35,11.59,11.59,0,0,0-.75-2.89,14,14,0,0,1-.59-2h0a.45.45,0,0,0-.88.18Z"/><path class="cls-1" d="M463.18,609.72a2.93,2.93,0,0,0-2.18,1,2.63,2.63,0,0,0-.6,1.39,5,5,0,0,1-.11.5h0a.44.44,0,1,0,.85.24h0a5,5,0,0,0,.13-.57,1.77,1.77,0,0,1,.4-1,2.09,2.09,0,0,1,1.48-.76h0a.45.45,0,0,0,.46-.44.43.43,0,0,0-.43-.45Z"/><path class="cls-1" d="M457,613.4a2.7,2.7,0,0,0,1.74,1.93,3.73,3.73,0,0,0,3.59-.61c1.23-1.13,1.4-2.73,1.4-4.28h0a.45.45,0,1,0-.89,0h0c0,1.56-.19,2.77-1.11,3.62a2.83,2.83,0,0,1-2.72.42,1.81,1.81,0,0,1-1.13-1.21h0a.44.44,0,0,0-.51-.37.43.43,0,0,0-.37.5Z"/><path class="cls-1" d="M460.7,612.23a1.91,1.91,0,0,1-.6-.27,2.15,2.15,0,0,0-1.51-.35,2.88,2.88,0,0,0-1.6,1h0a.44.44,0,1,0,.66.59h0a2,2,0,0,1,1.07-.74,1.19,1.19,0,0,1,.93.23,2.65,2.65,0,0,0,.86.37h0a.44.44,0,0,0,.53-.33.46.46,0,0,0-.34-.54Z"/><path class="cls-1" d="M459.31,609.27a3.2,3.2,0,0,0,.58.38,2.15,2.15,0,0,1,.46.3,4.52,4.52,0,0,1,.48.56l.21.27h0a.45.45,0,0,0,.63.06.46.46,0,0,0,.06-.63h0l-.2-.25a5.77,5.77,0,0,0-.58-.67,3.13,3.13,0,0,0-.63-.42,2.89,2.89,0,0,1-.43-.27h0a.45.45,0,0,0-.63,0,.43.43,0,0,0,.05.62Z"/><path class="cls-1" d="M459.38,611.94v-.34c0-.68,0-1.72.41-2h0a.46.46,0,0,0,.13-.62.45.45,0,0,0-.61-.13h0c-.87.56-.84,1.84-.83,2.78,0,.12,0,.23,0,.32h0a.45.45,0,1,0,.89,0Z"/><path class="cls-1" d="M462.41,618.56a3.31,3.31,0,0,0-.27-.86,2.78,2.78,0,0,0-1.76-.91c-.34,0-1.49.05-1.31.65.1.34,1.4.55,1.7.78.57.43.88,1.08,1.55,1.23C462.55,619.5,462.51,619,462.41,618.56Z"/><path class="cls-1" d="M464.39,615.78a2,2,0,0,0-.58.09,2.77,2.77,0,0,0-1.81,2.3c-.1.67.78.48,1.08.22s.47-1,.8-1.45S464.93,615.82,464.39,615.78Z"/><path class="cls-1" d="M609.16,614.68a16,16,0,0,1-1.79,1,11.77,11.77,0,0,0-2.56,1.54,12,12,0,0,0-.94.95l-.44.46h0a.45.45,0,1,0,.64.62h0l.45-.47a10.35,10.35,0,0,1,.87-.88,11,11,0,0,1,2.37-1.43,14.65,14.65,0,0,0,1.9-1h0a.44.44,0,0,0,.12-.62.45.45,0,0,0-.62-.12Z"/><path class="cls-1" d="M611,610.84a2.11,2.11,0,0,1,.53,1.57,1.75,1.75,0,0,1-.39,1,5.23,5.23,0,0,0-.31.49h0a.45.45,0,1,0,.78.43h0c.09-.16.18-.3.27-.43a2.61,2.61,0,0,0,.54-1.42,2.92,2.92,0,0,0-.82-2.27h0a.44.44,0,0,0-.63,0,.44.44,0,0,0,0,.63Z"/><path class="cls-1" d="M612.91,616.41a1.82,1.82,0,0,1-1.66.09,2.86,2.86,0,0,1-1.65-2.2c-.07-1.25.64-2.24,1.73-3.36h0a.45.45,0,1,0-.64-.62h0c-1.08,1.11-2.07,2.37-2,4a3.71,3.71,0,0,0,2.14,2.94,2.7,2.7,0,0,0,2.59-.16h0a.45.45,0,0,0,.09-.63.45.45,0,0,0-.62-.09Z"/><path class="cls-1" d="M611.14,614.46a3,3,0,0,0,.87.34,1.17,1.17,0,0,1,.83.47,2.08,2.08,0,0,1,.24,1.28h0a.45.45,0,0,0,.89,0h0a2.86,2.86,0,0,0-.42-1.86,2.08,2.08,0,0,0-1.32-.8,2.08,2.08,0,0,1-.63-.23h0a.44.44,0,0,0-.46.76Z"/><path class="cls-1" d="M614.72,611.67a2.37,2.37,0,0,1-.49-.1,3.24,3.24,0,0,0-.74-.14,5.21,5.21,0,0,0-.9.07,1.76,1.76,0,0,1-.31,0h0a.45.45,0,0,0-.39.49.44.44,0,0,0,.49.4h0l.34,0a3.75,3.75,0,0,1,.73-.07,2.16,2.16,0,0,1,.54.11,4.32,4.32,0,0,0,.68.13h0a.45.45,0,0,0,.47-.42.45.45,0,0,0-.42-.47Z"/><path class="cls-1" d="M613.39,615l.23-.23c.67-.66,1.58-1.56,1.35-2.56h0a.44.44,0,0,0-.86.2h0c.11.52-.62,1.24-1.11,1.73l-.25.24h0a.45.45,0,0,0,0,.63.44.44,0,0,0,.63,0Z"/><path class="cls-1" d="M606,617a3,3,0,0,1,.8-.43,2.74,2.74,0,0,1,1.89.57c.27.22,1,1.07.49,1.38-.31.17-1.39-.58-1.77-.63-.7-.08-1.38.16-2-.2C605.21,617.61,605.56,617.3,606,617Z"/><path class="cls-1" d="M606.49,613.67a2.11,2.11,0,0,1,.35.46,2.79,2.79,0,0,1-.31,2.91c-.4.55-.9-.2-.93-.59,0-.55.38-1.06.44-1.59S606.07,613.32,606.49,613.67Z"/><path class="cls-1" d="M534.12,691.65a15.69,15.69,0,0,1-1.34,1.54,11.85,11.85,0,0,0-1.88,2.33c-.21.4-.39.82-.56,1.22a6.31,6.31,0,0,1-.25.58h0a.44.44,0,0,0,.23.59.45.45,0,0,0,.59-.22h0l.25-.6a11.73,11.73,0,0,1,.52-1.13,10.65,10.65,0,0,1,1.74-2.16,14.81,14.81,0,0,0,1.42-1.63h0a.44.44,0,1,0-.72-.52Z"/><path class="cls-1" d="M534.51,687.4a2.13,2.13,0,0,1,1,1.31,1.85,1.85,0,0,1,0,1c0,.17-.09.36-.12.57h0a.44.44,0,0,0,.88.13h0c0-.17.07-.34.1-.5a2.51,2.51,0,0,0,0-1.52,2.92,2.92,0,0,0-1.55-1.85h0a.45.45,0,0,0-.58.24.44.44,0,0,0,.24.58Z"/><path class="cls-1" d="M538.23,692a1.83,1.83,0,0,1-1.52.65,2.83,2.83,0,0,1-2.31-1.5c-.49-1.15-.17-2.33.47-3.76h0a.45.45,0,0,0-.22-.59.45.45,0,0,0-.59.23h0a5.44,5.44,0,0,0-.48,4.47,3.73,3.73,0,0,0,3,2,2.71,2.71,0,0,0,2.38-1h0a.45.45,0,0,0-.13-.62.46.46,0,0,0-.62.13Z"/><path class="cls-1" d="M535.9,690.76a2.73,2.73,0,0,0,.94,0,1.19,1.19,0,0,1,.94.16,2.12,2.12,0,0,1,.66,1.12h0a.44.44,0,0,0,.56.29.43.43,0,0,0,.29-.56h0a2.84,2.84,0,0,0-1-1.6,2.1,2.1,0,0,0-1.52-.3,1.83,1.83,0,0,1-.66,0h0a.45.45,0,0,0-.53.35.44.44,0,0,0,.35.52Z"/><path class="cls-1" d="M538.3,686.91a2.31,2.31,0,0,1-.49.07,3.11,3.11,0,0,0-.75.13,4.63,4.63,0,0,0-.81.37l-.28.15h0a.44.44,0,0,0-.2.59.45.45,0,0,0,.6.21h0l.3-.16a4.08,4.08,0,0,1,.67-.32,2.92,2.92,0,0,1,.54-.08,3.43,3.43,0,0,0,.68-.11h0a.44.44,0,0,0,.3-.55.45.45,0,0,0-.56-.3Z"/><path class="cls-1" d="M538.21,690.53c0-.09.09-.19.14-.29.4-.85.95-2,.39-2.87h0a.44.44,0,1,0-.74.48h0c.28.45-.16,1.39-.45,2-.06.11-.1.21-.15.31h0a.45.45,0,0,0,.23.59.44.44,0,0,0,.58-.23Z"/><path class="cls-1" d="M531.92,695a3.31,3.31,0,0,1,.61-.67,2.73,2.73,0,0,1,2-.11c.32.11,1.33.65.93,1.13-.23.27-1.51-.07-1.88,0-.69.17-1.24.63-1.91.49C531.41,695.77,531.64,695.35,531.92,695Z"/><path class="cls-1" d="M531.26,691.62a1.76,1.76,0,0,1,.49.31,2.78,2.78,0,0,1,.71,2.84c-.18.66-.91.13-1.07-.24s0-1.12-.14-1.65S530.75,691.43,531.26,691.62Z"/><path class="cls-1" d="M462,768.22a14.91,14.91,0,0,0-1.84-1.16,11,11,0,0,1-2.28-1.56,12.26,12.26,0,0,1-.82-.94l-.42-.5h0a.44.44,0,0,0-.63,0,.45.45,0,0,0,0,.63h0l.4.48a10.71,10.71,0,0,0,.89,1,11.27,11.27,0,0,0,2.46,1.7,15.45,15.45,0,0,1,1.73,1.09h0a.45.45,0,1,0,.55-.7Z"/><path class="cls-1" d="M463.58,773.57a2.93,2.93,0,0,0,.95-2.22,2.52,2.52,0,0,0-.45-1.45,4.76,4.76,0,0,1-.24-.45h0a.45.45,0,0,0-.81.38h0c.09.19.19.36.27.51a1.69,1.69,0,0,1,.34,1,2.13,2.13,0,0,1-.62,1.55h0a.44.44,0,1,0,.56.69Z"/><path class="cls-1" d="M465.84,766.73a2.68,2.68,0,0,0-2.58-.32,3.71,3.71,0,0,0-2.31,2.82c-.19,1.66.73,3,1.74,4.15h0a.45.45,0,0,0,.63,0,.43.43,0,0,0,.05-.62h0c-1-1.18-1.67-2.22-1.53-3.47a2.82,2.82,0,0,1,1.78-2.1,1.83,1.83,0,0,1,1.65.18h0a.44.44,0,0,0,.57-.68Z"/><path class="cls-1" d="M463.8,770.05a2.07,2.07,0,0,1,.64-.2,2,2,0,0,0,1.37-.72,2.93,2.93,0,0,0,.53-1.83h0a.45.45,0,0,0-.89,0h0a2.16,2.16,0,0,1-.32,1.27,1.26,1.26,0,0,1-.86.43,2.9,2.9,0,0,0-.89.28h0a.44.44,0,0,0-.18.6.44.44,0,0,0,.6.19Z"/><path class="cls-1" d="M466.79,771.37a3.5,3.5,0,0,0-.68.09,2.71,2.71,0,0,1-.54.08,4.78,4.78,0,0,1-.73-.11l-.34-.06h0a.44.44,0,0,0-.15.87h0l.31.06a4.89,4.89,0,0,0,.89.13,3.5,3.5,0,0,0,.75-.09,2.27,2.27,0,0,1,.49-.08h0a.45.45,0,1,0,0-.89Z"/><path class="cls-1" d="M465,769.4l.23.25c.46.51,1.15,1.29,1,1.79h0a.44.44,0,1,0,.85.25h0c.29-1-.57-1.94-1.2-2.64l-.22-.24h0a.45.45,0,0,0-.67.59Z"/><path class="cls-1" d="M458.36,766.38a3.48,3.48,0,0,0,.78.48,2.79,2.79,0,0,0,1.92-.47c.28-.2,1.09-1,.57-1.35-.3-.19-1.42.5-1.8.52-.71.05-1.38-.23-2,.09C457.65,765.76,458,766.09,458.36,766.38Z"/><path class="cls-1" d="M458.69,769.78a2.37,2.37,0,0,0,.38-.44,2.77,2.77,0,0,0-.14-2.93c-.36-.58-.9.14-.95.53-.07.55.31,1.09.34,1.62S458.26,770.11,458.69,769.78Z"/><path class="cls-1" d="M607.85,767.23a16,16,0,0,1,1.28,1.6,11.66,11.66,0,0,0,2,2.25,11.47,11.47,0,0,0,1.1.77l.53.35h0a.45.45,0,0,0,.5-.74h0l-.55-.36a9.26,9.26,0,0,1-1-.71,10.85,10.85,0,0,1-1.81-2.09,16.49,16.49,0,0,0-1.36-1.69h0a.45.45,0,0,0-.63,0,.44.44,0,0,0,0,.63Z"/><path class="cls-1" d="M603.75,766.11a2.08,2.08,0,0,1,1.46-.8,1.79,1.79,0,0,1,1,.22,3.9,3.9,0,0,0,.53.21h0a.44.44,0,0,0,.57-.28.45.45,0,0,0-.28-.56h0l-.47-.19a2.68,2.68,0,0,0-1.49-.29,2.94,2.94,0,0,0-2.09,1.21h0a.43.43,0,0,0,.13.61.44.44,0,0,0,.62-.13Z"/><path class="cls-1" d="M608.9,763.24a1.85,1.85,0,0,1,.38,1.62,2.82,2.82,0,0,1-1.88,2c-1.22.29-2.32-.24-3.61-1.12h0a.45.45,0,1,0-.5.74h0c1.28.87,2.69,1.63,4.31,1.25a3.73,3.73,0,0,0,2.53-2.62,2.7,2.7,0,0,0-.62-2.52h0a.44.44,0,1,0-.61.64Z"/><path class="cls-1" d="M607.29,765.33a2.91,2.91,0,0,0,.18-.92,1.22,1.22,0,0,1,.32-.9,2.12,2.12,0,0,1,1.22-.46h0a.45.45,0,0,0,.38-.5.44.44,0,0,0-.5-.38h0a2.85,2.85,0,0,0-1.75.74,2,2,0,0,0-.56,1.44,2.07,2.07,0,0,1-.12.65h0a.45.45,0,0,0,.83.33Z"/><path class="cls-1" d="M603.92,762.29a2.16,2.16,0,0,1,0,.5,3.13,3.13,0,0,0,0,.75,5.26,5.26,0,0,0,.22.87l.1.3h0a.44.44,0,0,0,.55.3.43.43,0,0,0,.3-.55h0c0-.1-.06-.21-.1-.33a4,4,0,0,1-.19-.71,2,2,0,0,1,0-.55,3.15,3.15,0,0,0,0-.69h0a.44.44,0,1,0-.88.11Z"/><path class="cls-1" d="M607.47,763l-.27-.19c-.76-.54-1.81-1.28-2.75-.88h0a.44.44,0,0,0-.24.58.45.45,0,0,0,.58.24h0c.49-.21,1.34.39,1.9.79l.27.2h0a.45.45,0,0,0,.51-.74Z"/><path class="cls-1" d="M610.72,770a3.53,3.53,0,0,1-.56-.71,2.83,2.83,0,0,1,.24-2c.17-.3.88-1.21,1.27-.72.23.27-.33,1.47-.31,1.85,0,.71.4,1.33.15,2C611.43,770.62,611.05,770.33,610.72,770Z"/><path class="cls-1" d="M607.32,770a2.19,2.19,0,0,1,.39-.42,2.77,2.77,0,0,1,2.92-.2c.61.29,0,.92-.42,1-.53.14-1.11-.18-1.64-.15S607.05,770.52,607.32,770Z"/><path class="cls-1" d="M534.29,841.57a14.53,14.53,0,0,1-1.79,1,11.77,11.77,0,0,0-2.56,1.54,12,12,0,0,0-.94.95c-.15.16-.29.32-.44.46h0a.44.44,0,0,0,0,.63.45.45,0,0,0,.63,0h0l.45-.48a10.35,10.35,0,0,1,.87-.88,10.79,10.79,0,0,1,2.38-1.42,16.73,16.73,0,0,0,1.89-1.05h0a.44.44,0,0,0,.12-.62.45.45,0,0,0-.62-.12Z"/><path class="cls-1" d="M536.12,837.73a2.11,2.11,0,0,1,.53,1.57,1.75,1.75,0,0,1-.39,1,5.23,5.23,0,0,0-.31.49h0a.45.45,0,0,0,.18.61.47.47,0,0,0,.61-.18h0c.08-.15.17-.29.26-.43a2.61,2.61,0,0,0,.54-1.42,2.93,2.93,0,0,0-.82-2.27h0a.45.45,0,0,0-.63,0,.44.44,0,0,0,0,.63Z"/><path class="cls-1" d="M538,843.3a1.82,1.82,0,0,1-1.66.09,2.84,2.84,0,0,1-1.65-2.2c-.07-1.24.64-2.24,1.73-3.36h0a.45.45,0,1,0-.64-.62h0c-1.08,1.11-2.07,2.37-2,4a3.71,3.71,0,0,0,2.14,2.94,2.7,2.7,0,0,0,2.59-.16h0a.44.44,0,0,0,.09-.62.45.45,0,0,0-.62-.1Z"/><path class="cls-1" d="M536.27,841.35a3,3,0,0,0,.87.34,1.18,1.18,0,0,1,.83.48,2,2,0,0,1,.24,1.27h0a.46.46,0,0,0,.43.47.45.45,0,0,0,.46-.43h0a2.76,2.76,0,0,0-.42-1.85,2.1,2.1,0,0,0-1.32-.81,1.84,1.84,0,0,1-.63-.23h0a.45.45,0,0,0-.61.15.44.44,0,0,0,.15.61Z"/><path class="cls-1" d="M539.85,838.56a2.37,2.37,0,0,1-.49-.1,3.24,3.24,0,0,0-.74-.14,5.19,5.19,0,0,0-.9.08l-.31,0h0a.44.44,0,1,0,.1.88h0l.34,0a3.83,3.83,0,0,1,.73-.07,2.73,2.73,0,0,1,.54.11,2.83,2.83,0,0,0,.68.13h0a.45.45,0,0,0,.47-.42.45.45,0,0,0-.42-.47Z"/><path class="cls-1" d="M538.52,841.93l.23-.23c.67-.66,1.58-1.56,1.35-2.56h0a.44.44,0,0,0-.86.2h0c.11.52-.62,1.25-1.11,1.73l-.25.24h0a.45.45,0,0,0,0,.63.44.44,0,0,0,.63,0Z"/><path class="cls-1" d="M531.09,843.93a3.21,3.21,0,0,1,.8-.43,2.74,2.74,0,0,1,1.89.57c.27.22,1,1.07.49,1.38-.31.17-1.39-.58-1.77-.63-.7-.08-1.38.16-2-.19C530.34,844.51,530.69,844.19,531.09,843.93Z"/><path class="cls-1" d="M531.62,840.56a2,2,0,0,1,.35.47,2.78,2.78,0,0,1-.31,2.9c-.4.55-.9-.19-.92-.59,0-.55.37-1.06.43-1.59S531.2,840.21,531.62,840.56Z"/><path class="cls-1" d="M682.63,843a15.69,15.69,0,0,1,1.34-1.54,11.85,11.85,0,0,0,1.88-2.33,12.27,12.27,0,0,0,.56-1.23c.08-.2.16-.38.25-.57h0a.44.44,0,0,0-.23-.59.45.45,0,0,0-.59.22h0l-.25.6a11.73,11.73,0,0,1-.52,1.13,10.65,10.65,0,0,1-1.74,2.16,14.81,14.81,0,0,0-1.42,1.63h0a.44.44,0,0,0,.72.52Z"/><path class="cls-1" d="M682.24,847.24a2.11,2.11,0,0,1-1-1.3,1.8,1.8,0,0,1,0-1.05c0-.17.09-.36.12-.57h0a.44.44,0,0,0-.88-.13h0c0,.17-.07.34-.1.5a2.51,2.51,0,0,0,0,1.52,2.91,2.91,0,0,0,1.54,1.85h0a.46.46,0,0,0,.59-.24.45.45,0,0,0-.24-.58Z"/><path class="cls-1" d="M678.52,842.65A1.83,1.83,0,0,1,680,842a2.83,2.83,0,0,1,2.31,1.5c.49,1.15.17,2.34-.47,3.76h0a.43.43,0,0,0,.22.59.45.45,0,0,0,.59-.23h0a5.44,5.44,0,0,0,.48-4.47,3.75,3.75,0,0,0-3-2,2.71,2.71,0,0,0-2.38,1h0a.45.45,0,0,0,.13.62.46.46,0,0,0,.62-.13Z"/><path class="cls-1" d="M680.85,843.88a2.73,2.73,0,0,0-.94,0,1.19,1.19,0,0,1-.94-.16,2.12,2.12,0,0,1-.66-1.12h0a.46.46,0,0,0-.56-.29.44.44,0,0,0-.29.56h0a2.84,2.84,0,0,0,1,1.6,2.1,2.1,0,0,0,1.52.3,1.83,1.83,0,0,1,.66,0h0a.45.45,0,0,0,.53-.35.44.44,0,0,0-.35-.52Z"/><path class="cls-1" d="M678.44,847.73a2.51,2.51,0,0,1,.5-.07,3,3,0,0,0,.74-.13,4.74,4.74,0,0,0,.82-.37l.28-.15h0a.44.44,0,0,0,.2-.59.45.45,0,0,0-.6-.21h0l-.31.16a4,4,0,0,1-.66.32,2.92,2.92,0,0,1-.54.08,3.43,3.43,0,0,0-.68.11h0a.44.44,0,0,0,.25.85Z"/><path class="cls-1" d="M678.53,844.11c0,.09-.08.19-.13.29-.4.85-.95,2-.39,2.87h0a.44.44,0,0,0,.74-.48h0c-.28-.45.16-1.39.45-2l.15-.31h0a.45.45,0,1,0-.82-.36Z"/><path class="cls-1" d="M684.83,839.68a3.47,3.47,0,0,1-.61.68,2.78,2.78,0,0,1-2,.1c-.32-.11-1.33-.65-.93-1.13.23-.26,1.51.07,1.88,0,.69-.16,1.24-.63,1.91-.49C685.34,838.88,685.11,839.29,684.83,839.68Z"/><path class="cls-1" d="M685.48,843a2.74,2.74,0,0,1-.48-.32,2.78,2.78,0,0,1-.71-2.84c.18-.66.91-.12,1.07.24s0,1.12.14,1.65S686,843.21,685.48,843Z"/><path class="cls-1" d="M682.29,691.68a16.2,16.2,0,0,0-1.84-1.16,10.67,10.67,0,0,1-2.28-1.56,9.36,9.36,0,0,1-.82-.94l-.42-.49h0a.44.44,0,0,0-.63,0,.45.45,0,0,0,0,.63h0l.4.48c.28.34.57.69.89,1a12,12,0,0,0,2.46,1.7,14.13,14.13,0,0,1,1.73,1.09h0a.45.45,0,0,0,.55-.71Z"/><path class="cls-1" d="M683.9,697a2.92,2.92,0,0,0,1-2.21,2.56,2.56,0,0,0-.45-1.46,4.56,4.56,0,0,1-.24-.44h0a.45.45,0,1,0-.81.37h0c.09.2.19.37.27.52a1.69,1.69,0,0,1,.34,1,2.1,2.1,0,0,1-.62,1.54h0a.44.44,0,1,0,.56.69Z"/><path class="cls-1" d="M686.16,690.19a2.71,2.71,0,0,0-2.58-.31,3.72,3.72,0,0,0-2.31,2.81c-.19,1.66.73,3,1.74,4.15h0a.45.45,0,0,0,.68-.58h0c-1-1.18-1.67-2.22-1.53-3.47a2.82,2.82,0,0,1,1.78-2.1,1.86,1.86,0,0,1,1.65.18h0a.43.43,0,0,0,.62,0,.44.44,0,0,0-.05-.63Z"/><path class="cls-1" d="M684.12,693.51a2.05,2.05,0,0,1,.64-.19,2.07,2.07,0,0,0,1.37-.73,2.93,2.93,0,0,0,.53-1.83h0a.45.45,0,1,0-.89,0h0a2.1,2.1,0,0,1-.32,1.26,1.18,1.18,0,0,1-.86.43,3.2,3.2,0,0,0-.89.28h0a.46.46,0,0,0-.18.61.44.44,0,0,0,.6.18Z"/><path class="cls-1" d="M687.11,694.84a2.87,2.87,0,0,0-.68.09,2.11,2.11,0,0,1-.54.07,3.76,3.76,0,0,1-.73-.1l-.34-.07h0a.44.44,0,0,0-.51.37.44.44,0,0,0,.36.51h0l.31.06a4.9,4.9,0,0,0,.89.12,3,3,0,0,0,.75-.09,2.22,2.22,0,0,1,.49-.07h0a.45.45,0,0,0,.45-.45.44.44,0,0,0-.45-.44Z"/><path class="cls-1" d="M685.31,692.86l.23.26c.46.51,1.15,1.28,1,1.79h0a.44.44,0,0,0,.3.55.45.45,0,0,0,.55-.3h0c.29-1-.57-1.94-1.2-2.64l-.21-.24h0a.45.45,0,1,0-.68.58Z"/><path class="cls-1" d="M678.68,689.85a3.72,3.72,0,0,0,.78.47,2.74,2.74,0,0,0,1.92-.47c.28-.19,1.09-1,.57-1.34-.3-.19-1.42.5-1.8.52-.71,0-1.38-.24-2,.08C678,689.22,678.3,689.56,678.68,689.85Z"/><path class="cls-1" d="M679,693.24a1.83,1.83,0,0,0,.38-.44,2.77,2.77,0,0,0-.14-2.93c-.36-.57-.9.15-1,.54-.07.55.31,1.08.34,1.62S678.58,693.57,679,693.24Z"/></svg>