<svg xmlns="http://www.w3.org/2000/svg" viewBox="0 0 850.39 850.39"><g id="Capa_2" data-name="Capa 2"><path d="M143.88,236.71c-.45.52-1.3.45-1.84.89a4.94,4.94,0,0,1-1.66,1.27,8.74,8.74,0,0,1-.07,1.54,8,8,0,0,1-1.76,3.8,6.71,6.71,0,0,1-6.52,2.17c-1.07-.18-2.34-.41-3.29.27-.22.41-.46.83-.69,1.24-1,1.86-2.08,3.71-3.13,5.56a16.38,16.38,0,0,1-.8,1.49,2.48,2.48,0,0,1-.61.75c-.52.28-.51-.27-.86-.48s-.75,0-1.15.1c-.56.11-.66-.43-1.13-.58a4.27,4.27,0,0,0-1.13.05c0-.41.56-.87.77-1.17.44-.63,1-1.17,1.46-1.78.73-.93,1.48-1.85,2.24-2.76.55-.66,1.1-1.31,1.66-1.95s.69-1.13,1.1-1.69c-.53,0-1.08,0-1.61,0s-.78-.25-.76-.82c-.42,0-1.86-.06-1.7-.79a11.23,11.23,0,0,0,3.24-.64c1.64-.55,2.39-1.8,3.52-3a14.16,14.16,0,0,1,3.86-3.38c.83-.41,1.5-.42,2.17-1.1s1.07-1.87,2.09-2.23,2.18-.72,3.18-.06A3,3,0,0,1,142,235.3c.09.48,0,.62.5.82C142.65,236.18,144,236.62,143.88,236.71Z"/><path d="M125.07,9.73c.45.52,1.31.45,1.84.89a5.15,5.15,0,0,0,1.66,1.27,11.27,11.27,0,0,0,.07,1.54,8.07,8.07,0,0,0,1.77,3.8,6.68,6.68,0,0,0,6.52,2.16,4.4,4.4,0,0,1,3.29.27c.22.42.45.83.68,1.25,1,1.85,2.08,3.71,3.14,5.55a14.38,14.38,0,0,0,.8,1.5,2.48,2.48,0,0,0,.61.75c.51.28.5-.27.85-.48s.76,0,1.16.1c.56.1.66-.43,1.13-.58s.78.06,1.13,0c0-.4-.56-.86-.77-1.16-.44-.63-1-1.17-1.47-1.78-.73-.94-1.48-1.85-2.24-2.76-.54-.66-1.1-1.31-1.65-2s-.69-1.12-1.11-1.69c.53,0,1.08,0,1.62,0s.78-.24.75-.82c.42,0,1.87-.05,1.7-.78a11.16,11.16,0,0,1-3.23-.64c-1.65-.56-2.4-1.8-3.53-3a14.2,14.2,0,0,0-3.86-3.39c-.82-.41-1.5-.41-2.16-1.09s-1.07-1.87-2.09-2.23-2.19-.73-3.19-.06a3,3,0,0,0-1.57,1.93c-.09.47,0,.61-.5.82C126.3,9.19,125,9.63,125.07,9.73Z"/><path d="M241.39,127.87c.45.52,1.3.45,1.84.89a5,5,0,0,0,1.66,1.27,8.78,8.78,0,0,0,.07,1.54,8.15,8.15,0,0,0,1.76,3.8,6.68,6.68,0,0,0,6.52,2.16c1.08-.17,2.34-.4,3.29.27l.69,1.25c1,1.85,2.08,3.71,3.13,5.56.28.48.48,1,.8,1.49.17.23.36.61.62.75.51.28.5-.27.85-.48s.75,0,1.16.1.66-.43,1.13-.58.77.06,1.12,0c.05-.4-.55-.86-.77-1.16-.44-.63-1-1.17-1.46-1.78-.73-.94-1.48-1.85-2.24-2.76-.55-.66-1.1-1.31-1.66-2s-.69-1.12-1.1-1.69c.53,0,1.08,0,1.61,0s.78-.25.76-.82c.42,0,1.86-.06,1.7-.79a11.1,11.1,0,0,1-3.23-.64c-1.65-.56-2.4-1.8-3.53-3a14.2,14.2,0,0,0-3.86-3.39c-.82-.41-1.5-.41-2.17-1.09S249,125,248,124.59a3.47,3.47,0,0,0-3.18-.06,3,3,0,0,0-1.57,1.93c-.09.47-.05.61-.51.82C242.62,127.33,241.31,127.77,241.39,127.87Z"/><path d="M253.59,345.7c-.09.68-.84,1.09-1,1.75a5.22,5.22,0,0,1-.7,2,9.4,9.4,0,0,1,.79,1.32,8.09,8.09,0,0,1,.62,4.15,6.71,6.71,0,0,1-4.26,5.39,4.36,4.36,0,0,0-2.6,2c0,.47.07.94.11,1.42.15,2.12.3,4.24.43,6.36a16.09,16.09,0,0,1,.16,1.69,2.56,2.56,0,0,1-.1,1c-.28.51-.57.05-1,.07s-.62.44-.91.72-.79,0-1.26.14-.62.47-.92.65c-.26-.31,0-1,0-1.39,0-.77.19-1.53.25-2.29.09-1.19.22-2.37.35-3.54.1-.85.2-1.7.31-2.55.09-.7,0-1.32,0-2-.46.26-.88.62-1.35.87s-.79.22-1.09-.27c-.36.21-1.58,1-1.85.27a11,11,0,0,0,2.35-2.31c1.07-1.37,1-2.82,1.29-4.46a14.2,14.2,0,0,1,1.36-4.95c.47-.79,1-1.17,1.21-2.1s-.13-2.15.52-3,1.43-1.81,2.63-1.8a3,3,0,0,1,2.38.75c.33.34.37.48.87.41C252.27,345.93,253.6,345.57,253.59,345.7Z"/><path d="M374.8,236.71c-.45.52-1.3.45-1.84.89a4.94,4.94,0,0,1-1.66,1.27,8.74,8.74,0,0,1-.07,1.54,8,8,0,0,1-1.76,3.8,6.71,6.71,0,0,1-6.52,2.17c-1.07-.18-2.34-.41-3.29.27l-.69,1.24c-1,1.86-2.08,3.71-3.13,5.56a16.38,16.38,0,0,1-.8,1.49,2.48,2.48,0,0,1-.61.75c-.52.28-.51-.27-.86-.48s-.75,0-1.15.1c-.56.11-.66-.43-1.13-.58a4.27,4.27,0,0,0-1.13.05c-.05-.41.56-.87.77-1.17.44-.63,1-1.17,1.46-1.78.73-.93,1.48-1.85,2.24-2.76.55-.66,1.1-1.31,1.66-1.95s.69-1.13,1.1-1.69c-.53,0-1.08,0-1.61,0s-.78-.25-.76-.82c-.42,0-1.86-.06-1.7-.79a11.23,11.23,0,0,0,3.24-.64c1.64-.55,2.39-1.8,3.52-3a14.16,14.16,0,0,1,3.86-3.38c.83-.41,1.5-.42,2.17-1.1s1.07-1.87,2.09-2.23,2.18-.72,3.18-.06A3,3,0,0,1,373,235.3c.09.48,0,.62.5.82C373.57,236.18,374.88,236.62,374.8,236.71Z"/><path d="M357.63,9.73c.45.52,1.31.45,1.84.89a5.15,5.15,0,0,0,1.66,1.27,11.27,11.27,0,0,0,.07,1.54,8.07,8.07,0,0,0,1.77,3.8,6.68,6.68,0,0,0,6.52,2.16,4.4,4.4,0,0,1,3.29.27c.22.42.45.83.68,1.25,1,1.85,2.08,3.71,3.14,5.55a14.38,14.38,0,0,0,.8,1.5,2.48,2.48,0,0,0,.61.75c.51.28.5-.27.85-.48s.76,0,1.16.1c.56.1.66-.43,1.13-.58s.78.06,1.13,0c0-.4-.56-.86-.77-1.16-.44-.63-1-1.17-1.47-1.78-.72-.94-1.48-1.85-2.24-2.76-.54-.66-1.1-1.31-1.65-2S375.46,19,375,18.44c.54,0,1.09,0,1.62,0s.78-.24.75-.82c.42,0,1.87-.05,1.7-.78a11.16,11.16,0,0,1-3.23-.64c-1.65-.56-2.4-1.8-3.53-3a14.06,14.06,0,0,0-3.86-3.39c-.82-.41-1.5-.41-2.16-1.09s-1.07-1.87-2.09-2.23-2.19-.73-3.19-.06a3,3,0,0,0-1.57,1.93c-.09.47-.05.61-.5.82C358.86,9.19,357.55,9.63,357.63,9.73Z"/><path d="M474,127.87c.45.52,1.3.45,1.84.89a5.15,5.15,0,0,0,1.66,1.27,9.87,9.87,0,0,0,.07,1.54,8.15,8.15,0,0,0,1.76,3.8,6.69,6.69,0,0,0,6.52,2.16c1.08-.17,2.34-.4,3.29.27l.69,1.25c1,1.85,2.08,3.71,3.13,5.56.28.48.48,1,.8,1.49.17.23.36.61.62.75.51.28.5-.27.85-.48s.75,0,1.16.1.66-.43,1.13-.58.77.06,1.12,0c.05-.4-.55-.86-.76-1.16-.45-.63-1-1.17-1.47-1.78-.73-.94-1.48-1.85-2.24-2.76-.55-.66-1.1-1.31-1.66-2s-.69-1.12-1.1-1.69c.53,0,1.08,0,1.61,0s.78-.25.76-.82c.42,0,1.86-.06,1.7-.79a11.1,11.1,0,0,1-3.23-.64c-1.65-.56-2.4-1.8-3.53-3a14.2,14.2,0,0,0-3.86-3.39c-.82-.41-1.5-.41-2.17-1.09s-1.06-1.87-2.09-2.23a3.47,3.47,0,0,0-3.18-.06,3,3,0,0,0-1.57,1.93c-.09.47-.05.61-.51.82C475.18,127.33,473.87,127.77,474,127.87Z"/><path d="M486.15,350.62c-.09.68-.84,1.09-1,1.76a5.17,5.17,0,0,1-.7,2,9.4,9.4,0,0,1,.79,1.32,8.09,8.09,0,0,1,.62,4.15,6.71,6.71,0,0,1-4.26,5.39,4.36,4.36,0,0,0-2.6,2c0,.47.07.95.11,1.42.15,2.12.3,4.24.43,6.36a16.09,16.09,0,0,1,.16,1.69,2.56,2.56,0,0,1-.1,1c-.28.52-.57.05-1,.08s-.61.43-.91.71-.79,0-1.26.14-.62.48-.92.66c-.26-.32,0-1,0-1.4,0-.77.19-1.52.25-2.29.09-1.18.22-2.36.35-3.54.1-.85.2-1.7.31-2.54s0-1.32,0-2c-.46.26-.88.62-1.35.87s-.79.22-1.09-.27c-.36.21-1.58,1-1.85.28a11,11,0,0,0,2.35-2.32c1.07-1.36,1-2.82,1.29-4.45a14.09,14.09,0,0,1,1.36-4.95c.47-.8,1-1.17,1.21-2.11s-.13-2.15.52-3,1.43-1.8,2.63-1.8a3,3,0,0,1,2.38.75c.33.34.37.48.87.41C484.83,350.85,486.17,350.5,486.15,350.62Z"/><path d="M615.57,241.63c-.45.52-1.31.45-1.84.9a5.44,5.44,0,0,1-1.66,1.27,11.12,11.12,0,0,1-.07,1.53,8,8,0,0,1-1.77,3.8,6.71,6.71,0,0,1-6.52,2.17c-1.07-.18-2.33-.41-3.29.27-.22.42-.45.83-.68,1.24-1,1.86-2.08,3.71-3.14,5.56a13.29,13.29,0,0,1-.8,1.49c-.16.23-.36.62-.61.75-.51.28-.5-.27-.85-.47s-.76,0-1.16.1c-.56.1-.66-.44-1.13-.59a4.29,4.29,0,0,0-1.13.05c0-.4.56-.87.77-1.17.44-.63,1-1.17,1.47-1.77.72-.94,1.48-1.86,2.24-2.77.54-.65,1.09-1.31,1.65-2s.69-1.13,1.11-1.69c-.54,0-1.09,0-1.62,0s-.78-.25-.75-.82c-.43,0-1.87-.06-1.71-.79a10.84,10.84,0,0,0,3.24-.64c1.65-.55,2.39-1.8,3.53-3a14.16,14.16,0,0,1,3.85-3.39c.83-.41,1.51-.41,2.17-1.09s1.07-1.87,2.09-2.24,2.19-.72,3.19-.06a3,3,0,0,1,1.57,1.94c.09.47,0,.61.5.82C614.34,241.1,615.65,241.54,615.57,241.63Z"/><path d="M590.19,9.73c.45.52,1.31.45,1.84.89a5.15,5.15,0,0,0,1.66,1.27,11.27,11.27,0,0,0,.07,1.54,8.07,8.07,0,0,0,1.77,3.8,6.68,6.68,0,0,0,6.52,2.16,4.4,4.4,0,0,1,3.29.27c.22.42.45.83.68,1.25,1,1.85,2.08,3.71,3.14,5.55A14.38,14.38,0,0,0,610,28a2.48,2.48,0,0,0,.61.75c.51.28.5-.27.85-.48s.76,0,1.16.1c.56.1.66-.43,1.13-.58s.78.06,1.13,0c0-.4-.56-.86-.77-1.16-.44-.63-1-1.17-1.47-1.78-.72-.94-1.48-1.85-2.24-2.76-.54-.66-1.1-1.31-1.65-2S608,19,607.6,18.44c.54,0,1.09,0,1.62,0s.78-.24.75-.82c.43,0,1.87-.05,1.7-.78a11.16,11.16,0,0,1-3.23-.64c-1.65-.56-2.39-1.8-3.53-3a14.16,14.16,0,0,0-3.85-3.39c-.83-.41-1.51-.41-2.17-1.09s-1.07-1.87-2.09-2.23-2.19-.73-3.19-.06A3,3,0,0,0,592,8.32c-.09.47,0,.61-.5.82C591.42,9.19,590.11,9.63,590.19,9.73Z"/><path d="M706.51,127.87c.45.52,1.3.45,1.84.89A5.15,5.15,0,0,0,710,130a9.87,9.87,0,0,0,.07,1.54,8.15,8.15,0,0,0,1.76,3.8,6.69,6.69,0,0,0,6.52,2.16c1.08-.17,2.34-.4,3.29.27l.69,1.25c1,1.85,2.08,3.71,3.13,5.56.28.48.48,1,.8,1.49.17.23.36.61.62.75.51.28.5-.27.85-.48s.76,0,1.16.1c.55.11.66-.43,1.13-.58s.77.06,1.13,0c0-.4-.56-.86-.77-1.16-.45-.63-1-1.17-1.47-1.78-.73-.94-1.48-1.85-2.24-2.76-.55-.66-1.1-1.31-1.66-2s-.69-1.12-1.1-1.69c.53,0,1.08,0,1.61,0s.78-.25.76-.82c.42,0,1.87-.06,1.7-.79a11.1,11.1,0,0,1-3.23-.64c-1.65-.56-2.4-1.8-3.53-3a14.2,14.2,0,0,0-3.86-3.39c-.82-.41-1.5-.41-2.17-1.09s-1.06-1.87-2.09-2.23a3.47,3.47,0,0,0-3.18-.06,3,3,0,0,0-1.57,1.93c-.09.47-.05.61-.51.82C707.74,127.33,706.43,127.77,706.51,127.87Z"/><path d="M720.35,345.7c-.09.68-.84,1.09-1,1.75a5.32,5.32,0,0,1-.69,2,10.39,10.39,0,0,1,.78,1.32,8,8,0,0,1,.62,4.15,6.71,6.71,0,0,1-4.26,5.39c-1,.44-2.17.94-2.6,2,0,.47.08.95.11,1.42.16,2.12.3,4.24.44,6.36,0,.56.17,1.13.15,1.69a2.56,2.56,0,0,1-.1,1c-.28.52-.57.05-1,.07s-.61.44-.91.72-.79,0-1.26.14-.62.47-.92.65c-.26-.31,0-1,0-1.39,0-.77.19-1.53.25-2.29.09-1.19.22-2.37.35-3.54.1-.85.2-1.7.31-2.55.09-.7,0-1.31,0-2-.47.26-.89.62-1.36.87s-.79.22-1.08-.27c-.37.21-1.59,1-1.86.27a10.51,10.51,0,0,0,2.35-2.31c1.07-1.36,1-2.82,1.29-4.46a14.09,14.09,0,0,1,1.36-4.94c.47-.8,1-1.18,1.21-2.11s-.13-2.15.52-3,1.43-1.81,2.63-1.8a3,3,0,0,1,2.38.75c.33.34.37.48.87.41C719,345.93,720.37,345.58,720.35,345.7Z"/><path d="M145.52,701.83c-.45.52-1.3.45-1.84.9A5.21,5.21,0,0,1,142,704a8.67,8.67,0,0,1-.07,1.53,7.92,7.92,0,0,1-1.76,3.8,6.71,6.71,0,0,1-6.52,2.17c-1.07-.18-2.34-.41-3.29.27-.22.42-.46.83-.69,1.24-1,1.86-2.08,3.71-3.13,5.56a15.15,15.15,0,0,1-.8,1.49c-.16.23-.36.62-.61.75-.52.28-.51-.27-.86-.47s-.75,0-1.15.1c-.56.1-.66-.44-1.13-.59a4.27,4.27,0,0,0-1.13,0c0-.4.56-.87.77-1.17.44-.63,1-1.17,1.46-1.77.73-.94,1.48-1.86,2.24-2.77l1.66-2c.46-.54.69-1.13,1.1-1.69-.53,0-1.08,0-1.61,0s-.78-.25-.76-.82c-.42,0-1.86-.06-1.7-.79a11.23,11.23,0,0,0,3.24-.64c1.64-.55,2.39-1.8,3.52-3a14.2,14.2,0,0,1,3.86-3.39c.83-.41,1.5-.41,2.17-1.09s1.07-1.87,2.09-2.24,2.18-.72,3.18-.06a3,3,0,0,1,1.58,1.93c.09.48,0,.62.5.83C144.29,701.3,145.6,701.74,145.52,701.83Z"/><path d="M125.07,474.85c.45.52,1.31.45,1.84.89a5.15,5.15,0,0,0,1.66,1.27,11.27,11.27,0,0,0,.07,1.54,8.07,8.07,0,0,0,1.77,3.8,6.68,6.68,0,0,0,6.52,2.16c1.07-.17,2.33-.4,3.29.27.22.42.45.83.68,1.25,1,1.85,2.08,3.71,3.14,5.56a14.23,14.23,0,0,0,.8,1.49,2.48,2.48,0,0,0,.61.75c.51.28.5-.28.85-.48s.76,0,1.16.1c.56.1.66-.43,1.13-.58s.78.06,1.13,0c0-.4-.56-.86-.77-1.16-.44-.63-1-1.17-1.47-1.78-.73-.94-1.48-1.85-2.24-2.76-.54-.66-1.1-1.31-1.65-2s-.69-1.12-1.11-1.69c.53,0,1.08,0,1.62,0s.78-.25.75-.82c.42,0,1.87-.06,1.7-.79a11.16,11.16,0,0,1-3.23-.64c-1.65-.56-2.4-1.8-3.53-3a14.2,14.2,0,0,0-3.86-3.39c-.82-.41-1.5-.41-2.16-1.09s-1.07-1.87-2.09-2.23-2.19-.72-3.19-.06a3,3,0,0,0-1.57,1.93c-.09.47,0,.61-.5.82C126.3,474.31,125,474.75,125.07,474.85Z"/><path d="M241.39,593c.45.52,1.3.45,1.84.89a5,5,0,0,0,1.66,1.27,8.78,8.78,0,0,0,.07,1.54,8.15,8.15,0,0,0,1.76,3.8,6.68,6.68,0,0,0,6.52,2.16c1.08-.17,2.34-.4,3.29.28l.69,1.24q1.56,2.79,3.13,5.56c.28.48.48,1,.8,1.49.17.23.36.61.62.75.51.28.5-.27.85-.48s.75,0,1.16.1.66-.43,1.13-.58.77.06,1.12,0c.05-.4-.55-.86-.77-1.16-.44-.63-1-1.17-1.46-1.78-.73-.94-1.48-1.85-2.24-2.76-.55-.66-1.1-1.31-1.66-2s-.69-1.12-1.1-1.68c.53,0,1.08,0,1.61,0s.78-.25.76-.82c.42,0,1.86-.06,1.7-.79a11.1,11.1,0,0,1-3.23-.64c-1.65-.56-2.4-1.8-3.53-3a14.2,14.2,0,0,0-3.86-3.39c-.82-.4-1.5-.41-2.17-1.09s-1.06-1.87-2.09-2.23a3.47,3.47,0,0,0-3.18-.06,3,3,0,0,0-1.57,1.93c-.09.47-.05.61-.51.82C242.62,592.45,241.31,592.89,241.39,593Z"/><path d="M253.59,810.82c-.09.68-.84,1.09-1,1.75a5.22,5.22,0,0,1-.7,2,9.4,9.4,0,0,1,.79,1.32,8.09,8.09,0,0,1,.62,4.15,6.71,6.71,0,0,1-4.26,5.39,4.36,4.36,0,0,0-2.6,2c0,.47.07.94.11,1.42.15,2.12.3,4.24.43,6.36a16.09,16.09,0,0,1,.16,1.69,2.56,2.56,0,0,1-.1,1c-.28.52-.57,0-1,.07s-.62.44-.91.72-.79,0-1.26.14-.62.47-.92.65c-.26-.31,0-1,0-1.39,0-.77.19-1.53.25-2.29.09-1.18.22-2.37.35-3.54.1-.85.2-1.7.31-2.55.09-.7,0-1.31,0-2-.46.26-.88.62-1.35.87s-.79.22-1.09-.27c-.36.21-1.58,1-1.85.28a11,11,0,0,0,2.35-2.32c1.07-1.37,1-2.82,1.29-4.46a14.2,14.2,0,0,1,1.36-4.95c.47-.79,1-1.17,1.21-2.1s-.13-2.15.52-3,1.43-1.81,2.63-1.8a3,3,0,0,1,2.38.75c.33.34.37.48.87.41C252.27,811.05,253.6,810.69,253.59,810.82Z"/><path d="M383,706.75c-.45.52-1.31.45-1.84.9a5.44,5.44,0,0,1-1.66,1.27,9.94,9.94,0,0,1-.08,1.54,7.89,7.89,0,0,1-1.76,3.79,6.71,6.71,0,0,1-6.52,2.17,4.4,4.4,0,0,0-3.29.27c-.22.42-.45.83-.68,1.24q-1.56,2.79-3.14,5.56a14.38,14.38,0,0,1-.8,1.5c-.16.22-.36.61-.61.74-.51.28-.5-.27-.85-.47s-.76,0-1.16.1c-.56.1-.66-.44-1.13-.59a4.29,4.29,0,0,0-1.13.05c0-.4.56-.87.77-1.17.44-.63,1-1.17,1.47-1.77.72-.94,1.48-1.86,2.24-2.77q.81-1,1.65-2c.47-.54.69-1.12,1.1-1.69-.53,0-1.08,0-1.61,0s-.78-.24-.75-.82c-.43,0-1.87,0-1.71-.79a10.84,10.84,0,0,0,3.24-.64c1.65-.55,2.39-1.8,3.53-3a14.16,14.16,0,0,1,3.85-3.39c.83-.41,1.51-.41,2.17-1.09s1.07-1.87,2.09-2.23,2.18-.73,3.19-.07a3.06,3.06,0,0,1,1.57,1.94c.09.47,0,.61.5.82C381.78,706.22,383.09,706.66,383,706.75Z"/><path d="M357.63,474.85c.45.52,1.31.45,1.84.89a5.15,5.15,0,0,0,1.66,1.27,11.27,11.27,0,0,0,.07,1.54,8.07,8.07,0,0,0,1.77,3.8,6.68,6.68,0,0,0,6.52,2.16c1.07-.17,2.33-.4,3.29.27.22.42.45.83.68,1.25,1,1.85,2.08,3.71,3.14,5.56a14.23,14.23,0,0,0,.8,1.49,2.48,2.48,0,0,0,.61.75c.51.28.5-.28.85-.48s.76,0,1.16.1c.56.1.66-.43,1.13-.58s.78.06,1.13,0c0-.4-.56-.86-.77-1.16-.44-.63-1-1.17-1.47-1.78-.72-.94-1.48-1.85-2.24-2.76-.54-.66-1.1-1.31-1.65-2s-.69-1.12-1.11-1.69c.54,0,1.09,0,1.62,0s.78-.25.75-.82c.42,0,1.87-.06,1.7-.79a11.16,11.16,0,0,1-3.23-.64c-1.65-.56-2.4-1.8-3.53-3a14.06,14.06,0,0,0-3.86-3.39c-.82-.41-1.5-.41-2.16-1.09s-1.07-1.87-2.09-2.23-2.19-.72-3.19-.06a3,3,0,0,0-1.57,1.93c-.09.47-.05.61-.5.82C358.86,474.31,357.55,474.75,357.63,474.85Z"/><path d="M474,593c.45.52,1.3.45,1.84.89a5.15,5.15,0,0,0,1.66,1.27,9.87,9.87,0,0,0,.07,1.54,8.15,8.15,0,0,0,1.76,3.8,6.69,6.69,0,0,0,6.52,2.16c1.08-.17,2.34-.4,3.29.28l.69,1.24q1.56,2.79,3.13,5.56c.28.48.48,1,.8,1.49.17.23.36.61.62.75.51.28.5-.27.85-.48s.75,0,1.16.1.66-.43,1.13-.58.77.06,1.12,0c.05-.4-.55-.86-.76-1.16-.45-.63-1-1.17-1.47-1.78-.73-.94-1.48-1.85-2.24-2.76-.55-.66-1.1-1.31-1.66-2s-.69-1.12-1.1-1.68c.53,0,1.08,0,1.61,0s.78-.25.76-.82c.42,0,1.86-.06,1.7-.79a11.1,11.1,0,0,1-3.23-.64c-1.65-.56-2.4-1.8-3.53-3a14.2,14.2,0,0,0-3.86-3.39c-.82-.4-1.5-.41-2.17-1.09s-1.06-1.87-2.09-2.23a3.47,3.47,0,0,0-3.18-.06,3,3,0,0,0-1.57,1.93c-.09.47-.05.61-.51.82C475.18,592.45,473.87,592.89,474,593Z"/><path d="M486.15,815.74c-.09.68-.84,1.09-1,1.76a5.17,5.17,0,0,1-.7,2,9.4,9.4,0,0,1,.79,1.32,8.1,8.1,0,0,1,.62,4.15,6.71,6.71,0,0,1-4.26,5.39,4.38,4.38,0,0,0-2.6,2c0,.47.07.94.11,1.41.15,2.12.3,4.24.43,6.36a16.09,16.09,0,0,1,.16,1.69,2.63,2.63,0,0,1-.1,1c-.28.51-.57,0-1,.07s-.61.43-.91.71-.79,0-1.26.14-.62.48-.92.66c-.26-.32,0-1,0-1.4,0-.77.19-1.52.25-2.29.09-1.18.22-2.36.35-3.54.1-.85.2-1.7.31-2.54s0-1.32,0-2c-.46.26-.88.63-1.35.87s-.79.22-1.09-.27c-.36.21-1.58,1-1.85.28a11.19,11.19,0,0,0,2.35-2.31c1.07-1.37,1-2.82,1.29-4.46a14.14,14.14,0,0,1,1.36-5c.47-.8,1-1.17,1.21-2.11s-.13-2.15.52-3,1.43-1.8,2.63-1.8a3,3,0,0,1,2.38.75c.33.34.37.49.87.41C484.83,816,486.17,815.62,486.15,815.74Z"/><path d="M610.64,705.11c-.45.52-1.3.45-1.83.9a5.19,5.19,0,0,1-1.67,1.26,8.9,8.9,0,0,1-.07,1.55,7.89,7.89,0,0,1-1.76,3.79,6.71,6.71,0,0,1-6.52,2.17c-1.07-.18-2.33-.41-3.29.27-.22.42-.45.83-.69,1.24-1,1.86-2.08,3.71-3.13,5.56a15.46,15.46,0,0,1-.8,1.5c-.16.22-.36.61-.61.74-.51.28-.5-.27-.86-.47s-.75,0-1.15.1c-.56.1-.66-.44-1.13-.59a4.27,4.27,0,0,0-1.13,0c0-.4.56-.87.77-1.17.44-.63,1-1.17,1.47-1.77.72-.94,1.47-1.86,2.24-2.77.54-.65,1.09-1.31,1.65-2s.69-1.12,1.1-1.69c-.53,0-1.08,0-1.61,0s-.78-.25-.75-.82c-.43,0-1.87-.06-1.71-.79a10.84,10.84,0,0,0,3.24-.64c1.65-.55,2.39-1.8,3.53-3a14.16,14.16,0,0,1,3.85-3.39c.83-.41,1.51-.41,2.17-1.09s1.07-1.87,2.09-2.23,2.18-.73,3.19-.07a3,3,0,0,1,1.57,1.94c.09.47.05.61.5.82C609.42,704.58,610.72,705,610.64,705.11Z"/><path d="M590.19,474.85c.45.52,1.31.45,1.84.89a5.15,5.15,0,0,0,1.66,1.27,11.27,11.27,0,0,0,.07,1.54,8.07,8.07,0,0,0,1.77,3.8,6.68,6.68,0,0,0,6.52,2.16c1.07-.17,2.33-.4,3.29.27.22.42.45.83.68,1.25,1,1.85,2.08,3.71,3.14,5.56a14.23,14.23,0,0,0,.8,1.49,2.48,2.48,0,0,0,.61.75c.51.28.5-.28.85-.48s.76,0,1.16.1c.56.1.66-.43,1.13-.58s.78.06,1.13,0c0-.4-.56-.86-.77-1.16-.44-.63-1-1.17-1.47-1.78-.72-.94-1.48-1.85-2.24-2.76-.54-.66-1.1-1.31-1.65-2s-.69-1.12-1.11-1.69c.54,0,1.09,0,1.62,0s.78-.25.75-.82c.43,0,1.87-.06,1.7-.79a11.16,11.16,0,0,1-3.23-.64c-1.65-.56-2.39-1.8-3.53-3a14.16,14.16,0,0,0-3.85-3.39c-.83-.41-1.51-.41-2.17-1.09s-1.07-1.87-2.09-2.23-2.19-.72-3.19-.06a3,3,0,0,0-1.57,1.93c-.09.47,0,.61-.5.82C591.42,474.31,590.11,474.75,590.19,474.85Z"/><path d="M706.51,593c.45.52,1.3.45,1.84.89a5.15,5.15,0,0,0,1.66,1.27,9.87,9.87,0,0,0,.07,1.54,8.15,8.15,0,0,0,1.76,3.8,6.69,6.69,0,0,0,6.52,2.16c1.08-.17,2.34-.4,3.29.28l.69,1.24q1.56,2.79,3.13,5.56c.28.48.48,1,.8,1.49.17.23.36.61.62.75.51.28.5-.27.85-.48s.76,0,1.16.1c.55.11.66-.43,1.13-.58s.77.06,1.13,0c0-.4-.56-.86-.77-1.16-.45-.63-1-1.17-1.47-1.78-.73-.94-1.48-1.85-2.24-2.76-.55-.66-1.1-1.31-1.66-2s-.69-1.12-1.1-1.68c.53,0,1.08,0,1.61,0s.78-.25.76-.82c.42,0,1.87-.06,1.7-.79a11.1,11.1,0,0,1-3.23-.64c-1.65-.56-2.4-1.8-3.53-3a14.2,14.2,0,0,0-3.86-3.39c-.82-.4-1.5-.41-2.17-1.09s-1.06-1.87-2.09-2.23a3.47,3.47,0,0,0-3.18-.06,3,3,0,0,0-1.57,1.93c-.09.47-.05.61-.51.82C707.74,592.45,706.43,592.89,706.51,593Z"/><path d="M718.71,810.82c-.09.68-.84,1.09-1,1.75a5.38,5.38,0,0,1-.69,2,10.39,10.39,0,0,1,.78,1.32,8.09,8.09,0,0,1,.62,4.15,6.71,6.71,0,0,1-4.26,5.39c-1,.44-2.17.94-2.6,2,0,.47.08.94.11,1.42q.23,3.18.44,6.36c0,.56.17,1.13.15,1.69a2.56,2.56,0,0,1-.1,1c-.28.52-.57,0-1,.07s-.61.44-.91.72-.79,0-1.26.14-.62.47-.92.65c-.26-.31,0-1,0-1.39,0-.77.19-1.53.25-2.29.09-1.18.22-2.37.35-3.54.1-.85.2-1.7.31-2.55.09-.7,0-1.31,0-2-.46.26-.88.62-1.35.87s-.79.22-1.09-.27c-.36.21-1.58,1-1.85.28a11,11,0,0,0,2.35-2.32c1.07-1.37,1-2.82,1.29-4.46a14.2,14.2,0,0,1,1.36-4.95c.47-.79,1-1.17,1.21-2.1s-.13-2.15.52-3,1.43-1.81,2.63-1.8a3,3,0,0,1,2.38.75c.33.34.37.48.87.41C717.39,811.05,718.73,810.69,718.71,810.82Z"/></g></svg>