<svg xmlns="http://www.w3.org/2000/svg" viewBox="0 0 850.39 850.39"><defs><style>.cls-1{fill:#1d1d1b;}</style></defs><g id="Capa_2" data-name="Capa 2"><path class="cls-1" d="M208,68.2c-3.3,0-8.46-3-13.23-7.56-6.49-6.28-10.21-13.74-10.21-20.47,0-8.58,6-15.89,9.55-19.48,4.92-5,10.8-8.54,14-8.54,5.74,0,19.09,8,22.25,18.86a2.1,2.1,0,0,1-2,2.69l-4.59.06a2.11,2.11,0,1,1-.06-4.22l1.55,0c-3.83-7.63-13.61-13.15-17.15-13.15S188.78,28,188.78,40.17c0,7.94,6.24,14.84,8.93,17.44C202.27,62,206.42,64,208,64H208c4-.13,12.84-4.82,16.76-12l-1.86-.09a2.11,2.11,0,1,1,.2-4.21l4.91.23a2.12,2.12,0,0,1,1.9,2.78c-3.46,10.24-15.4,17.34-21.78,17.54Z"/><path class="cls-1" d="M226,68.2h-.17c-6.38-.2-18.31-7.3-21.78-17.54a2.12,2.12,0,0,1,.26-1.86,2.09,2.09,0,0,1,1.64-.92l4.91-.23a2.13,2.13,0,0,1,2.21,2,2.1,2.1,0,0,1-2,2.2l-1.85.09c3.91,7.22,12.73,11.91,16.75,12H226c1.56,0,5.71-1.95,10.28-6.37,2.68-2.6,8.92-9.5,8.92-17.44,0-12.22-15.87-23.8-19.32-23.8s-13.32,5.52-17.16,13.15l1.55,0a2.11,2.11,0,0,1,0,4.22h0l-4.59-.06a2.1,2.1,0,0,1-2-2.69c3.16-10.9,16.51-18.86,22.26-18.86,3.19,0,9.07,3.59,14,8.54,3.57,3.59,9.55,10.9,9.55,19.48,0,6.73-3.72,14.19-10.21,20.47C234.45,65.25,229.28,68.2,226,68.2Z"/><path class="cls-1" d="M124.33,128c-3.3,0-8.46-2.95-13.22-7.56-6.49-6.28-10.21-13.74-10.21-20.47,0-8.58,6-15.89,9.55-19.48,4.91-5,10.8-8.54,14-8.54,5.75,0,19.1,8,22.26,18.86a2.11,2.11,0,0,1-2,2.69l-4.6.06h0a2.11,2.11,0,0,1,0-4.22l1.54,0c-3.83-7.63-13.6-13.15-17.15-13.15s-19.33,11.58-19.33,23.8c0,7.94,6.25,14.84,8.93,17.44,4.56,4.42,8.72,6.37,10.27,6.37h.06c4-.13,12.84-4.81,16.76-12l-1.86-.09a2.1,2.1,0,0,1-2-2.2,2.12,2.12,0,0,1,2.2-2l4.91.23a2.17,2.17,0,0,1,1.65.92,2.14,2.14,0,0,1,.25,1.87c-3.46,10.23-15.4,17.33-21.77,17.53Z"/><path class="cls-1" d="M142.32,128h-.18c-6.37-.2-18.31-7.3-21.77-17.53a2.14,2.14,0,0,1,.25-1.87,2.17,2.17,0,0,1,1.65-.92l4.91-.23a2.11,2.11,0,0,1,.2,4.21l-1.86.09c3.92,7.23,12.73,11.91,16.76,12,1.52,0,5.71-1.89,10.33-6.37,2.68-2.6,8.93-9.5,8.93-17.44,0-12.22-15.88-23.8-19.33-23.8s-13.32,5.52-17.15,13.15l1.54,0a2.11,2.11,0,0,1,0,4.22h0l-4.6-.06a2.11,2.11,0,0,1-2-2.69c3.16-10.9,16.51-18.86,22.26-18.86,3.19,0,9.08,3.59,14,8.54,3.57,3.59,9.55,10.9,9.55,19.48,0,6.73-3.72,14.19-10.21,20.47C150.78,125,145.62,128,142.32,128Z"/><path class="cls-1" d="M178.94,10A4.75,4.75,0,1,1,174.2,5.3,4.75,4.75,0,0,1,178.94,10Z"/><path class="cls-1" d="M262.61,10a4.75,4.75,0,1,1-4.75-4.74A4.75,4.75,0,0,1,262.61,10Z"/><path class="cls-1" d="M95.28,69.8a4.75,4.75,0,1,1-4.75-4.74A4.75,4.75,0,0,1,95.28,69.8Z"/><path class="cls-1" d="M178.94,69.8a4.75,4.75,0,1,1-4.74-4.74A4.74,4.74,0,0,1,178.94,69.8Z"/><path class="cls-1" d="M208,187.72c-3.3,0-8.46-2.94-13.23-7.56-6.49-6.28-10.21-13.74-10.21-20.46,0-8.59,6-15.9,9.55-19.49,4.92-5,10.8-8.54,14-8.54,5.74,0,19.09,8,22.25,18.86a2.12,2.12,0,0,1-.33,1.84,2.08,2.08,0,0,1-1.67.85l-4.59.06a2.13,2.13,0,0,1-2.14-2.08,2.11,2.11,0,0,1,2.08-2.13l1.55,0c-3.83-7.63-13.61-13.16-17.15-13.16s-19.33,11.58-19.33,23.81c0,7.94,6.24,14.84,8.93,17.44,4.56,4.41,8.71,6.36,10.27,6.36H208c4-.13,12.84-4.81,16.76-12l-1.86-.08a2.11,2.11,0,0,1,.2-4.22l4.91.24a2.11,2.11,0,0,1,1.9,2.78c-3.46,10.23-15.4,17.33-21.78,17.54Z"/><path class="cls-1" d="M226,187.72h-.17c-6.38-.21-18.31-7.31-21.78-17.54a2.14,2.14,0,0,1,.26-1.87,2.11,2.11,0,0,1,1.64-.91l4.91-.24a2.11,2.11,0,1,1,.2,4.22l-1.85.08c3.91,7.23,12.73,11.91,16.75,12H226c1.56,0,5.71-1.95,10.28-6.36,2.68-2.6,8.92-9.5,8.92-17.44,0-12.23-15.87-23.81-19.32-23.81s-13.32,5.53-17.16,13.16l1.55,0a2.11,2.11,0,0,1,0,4.21h0l-4.59-.06a2.08,2.08,0,0,1-1.67-.85,2.12,2.12,0,0,1-.33-1.84c3.16-10.89,16.51-18.86,22.26-18.86,3.19,0,9.07,3.59,14,8.54,3.57,3.59,9.55,10.9,9.55,19.49,0,6.72-3.72,14.18-10.21,20.46C234.45,184.78,229.28,187.72,226,187.72Z"/><path class="cls-1" d="M124.33,247.48c-3.3,0-8.46-2.94-13.22-7.55-6.49-6.29-10.21-13.75-10.21-20.47,0-8.59,6-15.9,9.55-19.49,4.91-4.94,10.8-8.54,14-8.54,5.75,0,19.1,8,22.26,18.86a2.13,2.13,0,0,1-2,2.7l-4.6,0a2.11,2.11,0,0,1,0-4.21l1.54,0c-3.83-7.63-13.6-13.16-17.15-13.16s-19.33,11.58-19.33,23.81c0,7.94,6.25,14.84,8.93,17.44,4.56,4.41,8.72,6.36,10.27,6.36h.06c4-.13,12.84-4.81,16.76-12l-1.86-.08a2.11,2.11,0,0,1,.2-4.21l4.91.23a2.1,2.1,0,0,1,1.9,2.78c-3.46,10.23-15.4,17.33-21.77,17.54Z"/><path class="cls-1" d="M142.32,247.48h-.18c-6.37-.21-18.31-7.31-21.77-17.54a2.1,2.1,0,0,1,1.9-2.78l4.91-.23a2.11,2.11,0,0,1,.2,4.21l-1.86.08c3.92,7.23,12.73,11.91,16.76,12h.06c1.55,0,5.71-1.95,10.27-6.36,2.68-2.6,8.93-9.5,8.93-17.44,0-12.23-15.88-23.81-19.33-23.81s-13.32,5.53-17.15,13.16l1.54,0a2.11,2.11,0,0,1,0,4.21h0l-4.6,0a2.13,2.13,0,0,1-2-2.7c3.16-10.89,16.51-18.86,22.26-18.86,3.19,0,9.08,3.6,14,8.54,3.57,3.59,9.55,10.9,9.55,19.49,0,6.72-3.72,14.18-10.21,20.47C150.78,244.54,145.62,247.48,142.32,247.48Z"/><path class="cls-1" d="M178.94,129.57a4.75,4.75,0,1,1-4.74-4.75A4.74,4.74,0,0,1,178.94,129.57Z"/><path class="cls-1" d="M262.61,129.57a4.75,4.75,0,1,1-4.75-4.75A4.75,4.75,0,0,1,262.61,129.57Z"/><path class="cls-1" d="M95.28,189.33a4.75,4.75,0,1,1-4.75-4.75A4.75,4.75,0,0,1,95.28,189.33Z"/><path class="cls-1" d="M178.94,189.33a4.75,4.75,0,1,1-4.74-4.75A4.74,4.74,0,0,1,178.94,189.33Z"/><path class="cls-1" d="M208,307.24c-3.3,0-8.46-2.94-13.23-7.55-6.49-6.28-10.21-13.75-10.21-20.47,0-8.59,6-15.89,9.55-19.48,4.92-5,10.8-8.54,14-8.54,5.74,0,19.09,8,22.25,18.85a2.12,2.12,0,0,1-2,2.7l-4.59.06a2.11,2.11,0,0,1-.06-4.22l1.55,0c-3.83-7.63-13.61-13.16-17.15-13.16S188.78,267,188.78,279.22c0,7.94,6.24,14.84,8.93,17.44,4.56,4.42,8.71,6.37,10.27,6.37H208c4-.14,12.84-4.82,16.76-12l-1.86-.09a2.11,2.11,0,1,1,.2-4.21l4.91.23a2.12,2.12,0,0,1,1.9,2.78c-3.46,10.23-15.4,17.33-21.78,17.54Z"/><path class="cls-1" d="M226,307.24h-.17c-6.38-.21-18.31-7.31-21.78-17.54a2.11,2.11,0,0,1,.26-1.86,2.09,2.09,0,0,1,1.64-.92l4.91-.23a2.11,2.11,0,1,1,.2,4.21l-1.85.09c3.91,7.22,12.73,11.9,16.75,12,1.52,0,5.72-1.9,10.34-6.37,2.68-2.6,8.92-9.5,8.92-17.44,0-12.23-15.87-23.81-19.32-23.81s-13.32,5.53-17.16,13.16l1.55,0a2.11,2.11,0,0,1,0,4.22h0l-4.59-.06a2.12,2.12,0,0,1-2-2.7c3.16-10.89,16.51-18.85,22.26-18.85,3.19,0,9.07,3.59,14,8.54,3.57,3.59,9.55,10.89,9.55,19.48,0,6.72-3.72,14.19-10.21,20.47C234.45,304.3,229.28,307.24,226,307.24Z"/><path class="cls-1" d="M124.33,367c-3.3,0-8.46-2.94-13.22-7.55-6.49-6.28-10.21-13.74-10.21-20.47,0-8.59,6-15.89,9.55-19.48,4.91-4.95,10.8-8.54,14-8.54,5.75,0,19.1,8,22.26,18.85a2.12,2.12,0,0,1-2,2.7l-4.6.06h0a2.11,2.11,0,0,1,0-4.22l1.54,0c-3.83-7.63-13.6-13.16-17.15-13.16S105.11,326.75,105.11,339c0,7.94,6.25,14.84,8.93,17.44,4.56,4.42,8.72,6.37,10.27,6.37h.06c4-.13,12.84-4.82,16.76-12l-1.86-.09a2.11,2.11,0,0,1,.2-4.21l4.91.23a2.1,2.1,0,0,1,1.9,2.78c-3.46,10.23-15.4,17.34-21.77,17.54Z"/><path class="cls-1" d="M142.32,367h-.18c-6.37-.2-18.31-7.31-21.77-17.54a2.1,2.1,0,0,1,1.9-2.78l4.91-.23a2.11,2.11,0,0,1,.2,4.21l-1.86.09c3.92,7.22,12.73,11.91,16.76,12h.06c1.55,0,5.71-2,10.27-6.37,2.68-2.6,8.93-9.5,8.93-17.44,0-12.23-15.88-23.81-19.33-23.81s-13.32,5.53-17.15,13.16l1.54,0a2.11,2.11,0,0,1,0,4.22h0l-4.6-.06a2.12,2.12,0,0,1-2-2.7c3.16-10.89,16.51-18.85,22.26-18.85,3.19,0,9.08,3.59,14,8.54,3.57,3.59,9.55,10.89,9.55,19.48,0,6.73-3.72,14.19-10.21,20.47C150.78,364.06,145.62,367,142.32,367Z"/><path class="cls-1" d="M178.94,249.09a4.75,4.75,0,1,1-4.74-4.75A4.74,4.74,0,0,1,178.94,249.09Z"/><path class="cls-1" d="M262.61,249.09a4.75,4.75,0,1,1-4.75-4.75A4.75,4.75,0,0,1,262.61,249.09Z"/><path class="cls-1" d="M95.28,308.85a4.75,4.75,0,1,1-4.75-4.74A4.75,4.75,0,0,1,95.28,308.85Z"/><path class="cls-1" d="M178.94,308.85a4.75,4.75,0,1,1-4.74-4.74A4.75,4.75,0,0,1,178.94,308.85Z"/><path class="cls-1" d="M208,426.76c-3.3,0-8.46-2.94-13.23-7.55-6.49-6.28-10.21-13.74-10.21-20.47,0-8.58,6-15.89,9.55-19.48,4.92-4.95,10.8-8.54,14-8.54,5.74,0,19.09,8,22.25,18.85a2.14,2.14,0,0,1-.33,1.85,2.11,2.11,0,0,1-1.67.85l-4.59.06h0a2.11,2.11,0,0,1,0-4.22l1.55,0c-3.83-7.63-13.61-13.15-17.15-13.15s-19.33,11.58-19.33,23.8c0,7.94,6.24,14.84,8.93,17.44,4.61,4.47,8.81,6.38,10.33,6.37,4-.13,12.84-4.82,16.76-12l-1.86-.09a2.11,2.11,0,1,1,.2-4.21l4.91.23a2.12,2.12,0,0,1,1.9,2.78c-3.46,10.24-15.4,17.34-21.78,17.54Z"/><path class="cls-1" d="M226,426.76h-.17c-6.38-.2-18.31-7.3-21.78-17.54a2.12,2.12,0,0,1,.26-1.86,2.09,2.09,0,0,1,1.64-.92l4.91-.23a2.13,2.13,0,0,1,2.21,2,2.1,2.1,0,0,1-2,2.2l-1.85.09c3.91,7.22,12.73,11.91,16.75,12H226c1.56,0,5.71-1.95,10.28-6.37,2.68-2.6,8.92-9.5,8.92-17.44,0-12.22-15.87-23.8-19.32-23.8s-13.32,5.52-17.16,13.15l1.55,0a2.11,2.11,0,0,1,0,4.22h0l-4.59-.06a2.11,2.11,0,0,1-1.67-.85,2.14,2.14,0,0,1-.33-1.85c3.16-10.89,16.51-18.85,22.26-18.85,3.19,0,9.07,3.59,14,8.54,3.57,3.59,9.55,10.9,9.55,19.48,0,6.73-3.72,14.19-10.21,20.47C234.45,423.82,229.28,426.76,226,426.76Z"/><path class="cls-1" d="M124.33,486.53c-3.3,0-8.46-2.95-13.22-7.56-6.49-6.28-10.21-13.74-10.21-20.47,0-8.58,6-15.89,9.55-19.48,4.91-4.95,10.8-8.54,14-8.54,5.75,0,19.1,8,22.26,18.86a2.11,2.11,0,0,1-2,2.69l-4.6.06A2.13,2.13,0,0,1,138,450a2.1,2.1,0,0,1,2.08-2.14l1.54,0c-3.83-7.63-13.6-13.15-17.15-13.15s-19.33,11.58-19.33,23.8c0,7.94,6.25,14.84,8.93,17.44,4.56,4.42,8.72,6.37,10.27,6.37h.06c4-.13,12.84-4.82,16.76-12l-1.86-.09a2.11,2.11,0,0,1,.2-4.21l4.91.23a2.11,2.11,0,0,1,1.9,2.79c-3.46,10.23-15.4,17.33-21.77,17.53Z"/><path class="cls-1" d="M142.32,486.53h-.18c-6.37-.2-18.31-7.3-21.77-17.53a2.11,2.11,0,0,1,1.9-2.79l4.91-.23a2.11,2.11,0,0,1,.2,4.21l-1.86.09c3.92,7.22,12.73,11.91,16.76,12h.06c1.55,0,5.71-1.95,10.27-6.37,2.68-2.6,8.93-9.5,8.93-17.44,0-12.22-15.88-23.8-19.33-23.8s-13.32,5.52-17.15,13.15l1.54,0a2.11,2.11,0,0,1,0,4.22h0L122,452a2.11,2.11,0,0,1-2-2.69c3.16-10.9,16.51-18.86,22.26-18.86,3.19,0,9.08,3.59,14,8.54,3.57,3.59,9.55,10.9,9.55,19.48,0,6.73-3.72,14.19-10.21,20.47C150.78,483.58,145.62,486.53,142.32,486.53Z"/><path class="cls-1" d="M178.94,368.61a4.75,4.75,0,1,1-4.74-4.74A4.75,4.75,0,0,1,178.94,368.61Z"/><path class="cls-1" d="M262.61,368.61a4.75,4.75,0,1,1-4.75-4.74A4.75,4.75,0,0,1,262.61,368.61Z"/><path class="cls-1" d="M95.28,428.37a4.75,4.75,0,1,1-4.75-4.74A4.75,4.75,0,0,1,95.28,428.37Z"/><path class="cls-1" d="M178.94,428.37a4.75,4.75,0,1,1-4.74-4.74A4.75,4.75,0,0,1,178.94,428.37Z"/><path class="cls-1" d="M208,546.29c-3.3,0-8.46-2.94-13.23-7.56-6.49-6.28-10.21-13.74-10.21-20.47,0-8.58,6-15.89,9.55-19.48,4.92-4.95,10.8-8.54,14-8.54,5.74,0,19.09,8,22.25,18.86a2.12,2.12,0,0,1-.33,1.84,2.08,2.08,0,0,1-1.67.85l-4.59.06a2.11,2.11,0,1,1-.06-4.21l1.55,0c-3.83-7.63-13.61-13.16-17.15-13.16s-19.33,11.58-19.33,23.8c0,7.94,6.24,14.85,8.93,17.45,4.56,4.41,8.71,6.36,10.27,6.36H208c4-.13,12.84-4.81,16.76-12l-1.86-.08a2.11,2.11,0,0,1,.2-4.22l4.91.24a2.11,2.11,0,0,1,1.9,2.78c-3.46,10.23-15.4,17.33-21.78,17.54Z"/><path class="cls-1" d="M226,546.29h-.17c-6.38-.21-18.31-7.31-21.78-17.54a2.14,2.14,0,0,1,.26-1.87,2.11,2.11,0,0,1,1.64-.91l4.91-.24A2.11,2.11,0,1,1,211,530l-1.85.08c3.91,7.23,12.73,11.91,16.75,12H226c1.56,0,5.71-2,10.28-6.36,2.68-2.6,8.92-9.51,8.92-17.45,0-12.22-15.87-23.8-19.32-23.8s-13.32,5.53-17.16,13.16l1.55,0a2.11,2.11,0,0,1,0,4.21h0l-4.59-.06a2.08,2.08,0,0,1-1.67-.85,2.12,2.12,0,0,1-.33-1.84c3.16-10.9,16.51-18.86,22.26-18.86,3.19,0,9.07,3.59,14,8.54,3.57,3.59,9.55,10.9,9.55,19.48,0,6.73-3.72,14.19-10.21,20.47C234.45,543.35,229.28,546.29,226,546.29Z"/><path class="cls-1" d="M124.33,606.05c-3.3,0-8.46-2.94-13.22-7.55-6.49-6.29-10.21-13.75-10.21-20.47,0-8.59,6-15.9,9.55-19.49,4.91-4.95,10.8-8.54,14-8.54,5.75,0,19.1,8,22.26,18.86a2.09,2.09,0,0,1-.34,1.84,2.06,2.06,0,0,1-1.66.85l-4.6.06a2.11,2.11,0,0,1,0-4.21l1.54,0c-3.83-7.63-13.6-13.16-17.15-13.16S105.11,565.8,105.11,578c0,7.94,6.25,14.84,8.93,17.44,4.56,4.41,8.72,6.36,10.27,6.36h.06c4-.13,12.84-4.81,16.76-12l-1.86-.08a2.11,2.11,0,0,1,.2-4.22l4.91.24a2.09,2.09,0,0,1,1.9,2.78c-3.46,10.23-15.4,17.33-21.77,17.54Z"/><path class="cls-1" d="M142.32,606.05h-.18c-6.37-.21-18.31-7.31-21.77-17.54a2.09,2.09,0,0,1,1.9-2.78l4.91-.24a2.11,2.11,0,0,1,.2,4.22l-1.86.08c3.92,7.23,12.73,11.91,16.76,12h.06c1.55,0,5.71-2,10.27-6.36,2.68-2.6,8.93-9.5,8.93-17.44,0-12.23-15.88-23.81-19.33-23.81s-13.32,5.53-17.15,13.16l1.54,0a2.11,2.11,0,0,1,0,4.21h0l-4.6-.06a2.06,2.06,0,0,1-1.66-.85,2.09,2.09,0,0,1-.34-1.84C123.11,558,136.46,550,142.21,550c3.19,0,9.08,3.59,14,8.54,3.57,3.59,9.55,10.9,9.55,19.49,0,6.72-3.72,14.18-10.21,20.47C150.78,603.11,145.62,606.05,142.32,606.05Z"/><path class="cls-1" d="M178.94,488.14a4.75,4.75,0,1,1-4.74-4.75A4.74,4.74,0,0,1,178.94,488.14Z"/><path class="cls-1" d="M262.61,488.14a4.75,4.75,0,1,1-4.75-4.75A4.75,4.75,0,0,1,262.61,488.14Z"/><path class="cls-1" d="M95.28,547.9a4.75,4.75,0,1,1-4.75-4.75A4.75,4.75,0,0,1,95.28,547.9Z"/><path class="cls-1" d="M178.94,547.9a4.75,4.75,0,1,1-4.74-4.75A4.74,4.74,0,0,1,178.94,547.9Z"/><path class="cls-1" d="M208,665.81c-3.3,0-8.46-2.94-13.23-7.55-6.49-6.28-10.21-13.75-10.21-20.47,0-8.59,6-15.89,9.55-19.48,4.92-4.95,10.8-8.54,14-8.54,5.74,0,19.09,8,22.25,18.85a2.12,2.12,0,0,1-2,2.7l-4.59.06a2.11,2.11,0,0,1-.06-4.22l1.55,0c-3.83-7.63-13.61-13.16-17.15-13.16s-19.33,11.58-19.33,23.81c0,7.94,6.24,14.84,8.93,17.44,4.56,4.42,8.71,6.37,10.27,6.37H208c4-.13,12.84-4.81,16.76-12l-1.86-.09a2.11,2.11,0,1,1,.2-4.21l4.91.23a2.12,2.12,0,0,1,1.9,2.78c-3.46,10.23-15.4,17.33-21.78,17.54Z"/><path class="cls-1" d="M226,665.81h-.17c-6.38-.21-18.31-7.31-21.78-17.54a2.11,2.11,0,0,1,.26-1.86,2.09,2.09,0,0,1,1.64-.92l4.91-.23a2.11,2.11,0,1,1,.2,4.21l-1.85.09c3.91,7.22,12.73,11.9,16.75,12H226c1.56,0,5.71-2,10.28-6.37,2.68-2.6,8.92-9.5,8.92-17.44,0-12.23-15.87-23.81-19.32-23.81s-13.32,5.53-17.16,13.16l1.55,0a2.11,2.11,0,0,1,0,4.22h0l-4.59-.06a2.12,2.12,0,0,1-2-2.7c3.16-10.89,16.51-18.85,22.26-18.85,3.19,0,9.07,3.59,14,8.54,3.57,3.59,9.55,10.89,9.55,19.48,0,6.72-3.72,14.19-10.21,20.47C234.45,662.87,229.28,665.81,226,665.81Z"/><path class="cls-1" d="M124.33,725.57c-3.3,0-8.46-2.94-13.22-7.55-6.49-6.28-10.21-13.74-10.21-20.47,0-8.59,6-15.89,9.55-19.48,4.91-5,10.8-8.54,14-8.54,5.75,0,19.1,8,22.26,18.85a2.12,2.12,0,0,1-2,2.7l-4.6.06h0a2.11,2.11,0,0,1,0-4.22l1.54,0c-3.83-7.63-13.6-13.16-17.15-13.16s-19.33,11.58-19.33,23.81c0,7.94,6.25,14.84,8.93,17.44,4.56,4.42,8.72,6.37,10.27,6.37h.06c4-.13,12.84-4.82,16.76-12l-1.86-.09a2.11,2.11,0,0,1,.2-4.21l4.91.23a2.1,2.1,0,0,1,1.9,2.78c-3.46,10.23-15.4,17.33-21.77,17.54Z"/><path class="cls-1" d="M142.32,725.57h-.18c-6.37-.21-18.31-7.31-21.77-17.54a2.1,2.1,0,0,1,1.9-2.78l4.91-.23a2.11,2.11,0,0,1,.2,4.21l-1.86.09c3.92,7.22,12.73,11.91,16.76,12h.06c1.55,0,5.71-2,10.27-6.37,2.68-2.6,8.93-9.5,8.93-17.44,0-12.23-15.88-23.81-19.33-23.81s-13.32,5.53-17.15,13.16l1.54,0a2.11,2.11,0,0,1,0,4.22h0l-4.6-.06a2.12,2.12,0,0,1-2-2.7c3.16-10.89,16.51-18.85,22.26-18.85,3.19,0,9.08,3.59,14,8.54,3.57,3.59,9.55,10.89,9.55,19.48,0,6.73-3.72,14.19-10.21,20.47C150.78,722.63,145.62,725.57,142.32,725.57Z"/><path class="cls-1" d="M178.94,607.66a4.75,4.75,0,1,1-4.74-4.75A4.74,4.74,0,0,1,178.94,607.66Z"/><path class="cls-1" d="M262.61,607.66a4.75,4.75,0,1,1-4.75-4.75A4.75,4.75,0,0,1,262.61,607.66Z"/><path class="cls-1" d="M95.28,667.42a4.75,4.75,0,1,1-4.75-4.74A4.75,4.75,0,0,1,95.28,667.42Z"/><path class="cls-1" d="M178.94,667.42a4.75,4.75,0,1,1-4.74-4.74A4.74,4.74,0,0,1,178.94,667.42Z"/><path class="cls-1" d="M208,785.33c-3.3,0-8.46-2.94-13.23-7.55-6.49-6.28-10.21-13.74-10.21-20.47,0-8.58,6-15.89,9.55-19.48,4.92-5,10.8-8.54,14-8.54,5.74,0,19.09,8,22.25,18.85A2.14,2.14,0,0,1,230,750a2.11,2.11,0,0,1-1.67.85l-4.59.06a2.11,2.11,0,0,1-.06-4.22l1.55,0c-3.83-7.63-13.61-13.16-17.15-13.16s-19.33,11.59-19.33,23.81c0,7.94,6.24,14.84,8.93,17.44,4.56,4.42,8.71,6.37,10.27,6.37H208c4-.13,12.84-4.82,16.76-12l-1.86-.09a2.11,2.11,0,1,1,.2-4.21l4.91.23a2.12,2.12,0,0,1,1.9,2.78c-3.46,10.24-15.4,17.34-21.78,17.54Z"/><path class="cls-1" d="M226,785.33h-.17c-6.38-.2-18.31-7.3-21.78-17.54a2.12,2.12,0,0,1,.26-1.86,2.09,2.09,0,0,1,1.64-.92l4.91-.23A2.11,2.11,0,1,1,211,769l-1.85.09c3.91,7.22,12.73,11.91,16.75,12,1.52,0,5.72-1.9,10.34-6.37,2.68-2.6,8.92-9.5,8.92-17.44,0-12.22-15.87-23.81-19.32-23.81s-13.32,5.53-17.16,13.16l1.55,0a2.11,2.11,0,0,1,0,4.22h0l-4.59-.06A2.11,2.11,0,0,1,204,750a2.14,2.14,0,0,1-.33-1.85c3.16-10.89,16.51-18.85,22.26-18.85,3.19,0,9.07,3.59,14,8.54,3.57,3.59,9.55,10.9,9.55,19.48,0,6.73-3.72,14.19-10.21,20.47C234.45,782.39,229.28,785.33,226,785.33Z"/><path class="cls-1" d="M124.33,845.1c-3.3,0-8.46-3-13.22-7.56-6.49-6.28-10.21-13.74-10.21-20.47,0-8.58,6-15.89,9.55-19.48,4.91-5,10.8-8.54,14-8.54,5.75,0,19.1,8,22.26,18.86a2.11,2.11,0,0,1-2,2.69l-4.6.06a2.11,2.11,0,0,1,0-4.22l1.54,0c-3.83-7.63-13.6-13.15-17.15-13.15s-19.33,11.58-19.33,23.8c0,7.94,6.25,14.84,8.93,17.44,4.56,4.42,8.72,6.37,10.27,6.37h.06c4-.13,12.84-4.82,16.76-12l-1.86-.09a2.11,2.11,0,0,1,.2-4.21l4.91.23a2.11,2.11,0,0,1,1.9,2.79c-3.46,10.23-15.4,17.33-21.77,17.53Z"/><path class="cls-1" d="M142.32,845.1h-.18c-6.37-.2-18.31-7.3-21.77-17.53a2.11,2.11,0,0,1,1.9-2.79l4.91-.23a2.11,2.11,0,0,1,.2,4.21l-1.86.09c3.92,7.22,12.73,11.91,16.76,12h.06c1.55,0,5.71-2,10.27-6.37,2.68-2.6,8.93-9.5,8.93-17.44,0-12.22-15.88-23.8-19.33-23.8s-13.32,5.52-17.15,13.15l1.54,0a2.11,2.11,0,0,1,0,4.22h0l-4.6-.06a2.11,2.11,0,0,1-2-2.69c3.16-10.9,16.51-18.86,22.26-18.86,3.19,0,9.08,3.59,14,8.54,3.57,3.59,9.55,10.9,9.55,19.48,0,6.73-3.72,14.19-10.21,20.47C150.78,842.15,145.62,845.1,142.32,845.1Z"/><path class="cls-1" d="M178.94,727.18a4.75,4.75,0,1,1-4.74-4.74A4.75,4.75,0,0,1,178.94,727.18Z"/><path class="cls-1" d="M262.61,727.18a4.75,4.75,0,1,1-4.75-4.74A4.75,4.75,0,0,1,262.61,727.18Z"/><path class="cls-1" d="M95.28,786.94a4.75,4.75,0,1,1-4.75-4.74A4.75,4.75,0,0,1,95.28,786.94Z"/><path class="cls-1" d="M178.94,786.94a4.75,4.75,0,1,1-4.74-4.74A4.75,4.75,0,0,1,178.94,786.94Z"/><path class="cls-1" d="M375.33,68.2c-3.3,0-8.46-3-13.23-7.56-6.48-6.28-10.2-13.74-10.2-20.47,0-8.58,6-15.89,9.55-19.48,4.91-5,10.79-8.54,14-8.54,5.74,0,19.09,8,22.25,18.86a2.1,2.1,0,0,1-2,2.69l-4.6.06h0a2.11,2.11,0,0,1,0-4.22l1.54,0c-3.83-7.63-13.6-13.15-17.15-13.15S356.11,28,356.11,40.17c0,7.94,6.24,14.84,8.93,17.44C369.6,62,373.76,64,375.31,64h.06c4-.13,12.84-4.82,16.76-12l-1.86-.09a2.11,2.11,0,1,1,.2-4.21l4.91.23a2.12,2.12,0,0,1,1.9,2.78c-3.46,10.24-15.4,17.34-21.77,17.54Z"/><path class="cls-1" d="M393.31,68.2h-.17c-6.37-.2-18.31-7.3-21.77-17.54a2.1,2.1,0,0,1,1.89-2.78l4.92-.23a2.11,2.11,0,0,1,.2,4.21l-1.86.09c3.92,7.22,12.73,11.91,16.76,12h.05c1.56,0,5.72-1.95,10.28-6.37,2.68-2.6,8.92-9.5,8.92-17.44,0-12.22-15.87-23.8-19.32-23.8s-13.32,5.52-17.16,13.15l1.55,0a2.11,2.11,0,0,1,0,4.22h0L373,33.7A2.1,2.1,0,0,1,371,31c3.16-10.9,16.51-18.86,22.26-18.86,3.19,0,9.08,3.59,14,8.54,3.57,3.59,9.55,10.9,9.55,19.48,0,6.73-3.72,14.19-10.21,20.47C401.78,65.25,396.62,68.2,393.31,68.2Z"/><path class="cls-1" d="M291.67,128c-3.31,0-8.47-2.95-13.23-7.56-6.49-6.28-10.21-13.74-10.21-20.47,0-8.58,6-15.89,9.55-19.48,4.91-5,10.8-8.54,14-8.54,5.75,0,19.1,8,22.26,18.86a2.1,2.1,0,0,1-2,2.69l-4.6.06h0a2.11,2.11,0,0,1,0-4.22l1.55,0c-3.84-7.63-13.61-13.15-17.16-13.15s-19.32,11.58-19.32,23.8c0,7.94,6.24,14.84,8.92,17.44,4.56,4.42,8.72,6.37,10.28,6.37h.05c4-.13,12.84-4.81,16.76-12l-1.86-.09a2.11,2.11,0,0,1,.2-4.21l4.92.23a2.15,2.15,0,0,1,1.64.92,2.1,2.1,0,0,1,.25,1.87c-3.46,10.23-15.4,17.33-21.77,17.53Z"/><path class="cls-1" d="M309.65,128h-.18c-6.37-.2-18.31-7.3-21.77-17.53a2.11,2.11,0,0,1,.26-1.87,2.15,2.15,0,0,1,1.64-.92l4.91-.23a2.11,2.11,0,1,1,.2,4.21l-1.86.09c3.92,7.23,12.74,11.91,16.76,12h.06c1.55,0,5.71-1.95,10.27-6.37,2.69-2.6,8.93-9.5,8.93-17.44,0-12.22-15.87-23.8-19.33-23.8s-13.32,5.53-17.15,13.15l1.54,0a2.11,2.11,0,0,1,0,4.22h0l-4.6-.06a2.1,2.1,0,0,1-2-2.69c3.16-10.9,16.51-18.86,22.25-18.86,3.2,0,9.08,3.59,14,8.54,3.57,3.59,9.55,10.9,9.55,19.48,0,6.73-3.72,14.19-10.2,20.47C318.11,125,313,128,309.65,128Z"/><path class="cls-1" d="M346.28,10a4.75,4.75,0,1,1-4.75-4.74A4.75,4.75,0,0,1,346.28,10Z"/><path class="cls-1" d="M429.94,10A4.75,4.75,0,1,1,425.2,5.3,4.75,4.75,0,0,1,429.94,10Z"/><path class="cls-1" d="M262.61,69.8a4.75,4.75,0,1,1-4.75-4.74A4.75,4.75,0,0,1,262.61,69.8Z"/><path class="cls-1" d="M346.28,69.8a4.75,4.75,0,1,1-4.75-4.74A4.75,4.75,0,0,1,346.28,69.8Z"/><path class="cls-1" d="M375.33,187.72c-3.3,0-8.46-2.94-13.23-7.56-6.48-6.28-10.2-13.74-10.2-20.46,0-8.59,6-15.9,9.55-19.49,4.91-5,10.79-8.54,14-8.54,5.74,0,19.09,8,22.25,18.86a2.1,2.1,0,0,1-2,2.69l-4.6.06h0a2.11,2.11,0,0,1,0-4.21l1.54,0c-3.83-7.63-13.6-13.16-17.15-13.16s-19.33,11.58-19.33,23.81c0,7.94,6.24,14.84,8.93,17.44,4.56,4.41,8.72,6.36,10.27,6.36h.06c4-.13,12.84-4.81,16.76-12l-1.86-.08a2.11,2.11,0,1,1,.2-4.22l4.91.24a2.11,2.11,0,0,1,1.9,2.78c-3.46,10.23-15.4,17.33-21.77,17.54Z"/><path class="cls-1" d="M393.31,187.72h-.17c-6.37-.21-18.31-7.31-21.77-17.54a2.09,2.09,0,0,1,1.89-2.78l4.92-.24a2.11,2.11,0,0,1,.2,4.22l-1.86.08c3.92,7.23,12.73,11.91,16.76,12h.05c1.56,0,5.72-1.95,10.28-6.36,2.68-2.6,8.92-9.5,8.92-17.44,0-12.23-15.87-23.81-19.32-23.81s-13.32,5.53-17.16,13.16l1.55,0a2.11,2.11,0,0,1,0,4.21h0l-4.6-.06a2.09,2.09,0,0,1-1.67-.85,2.12,2.12,0,0,1-.33-1.84c3.16-10.89,16.51-18.86,22.26-18.86,3.19,0,9.08,3.59,14,8.54,3.57,3.59,9.55,10.9,9.55,19.49,0,6.72-3.72,14.18-10.21,20.46C401.78,184.78,396.62,187.72,393.31,187.72Z"/><path class="cls-1" d="M291.67,247.48c-3.31,0-8.47-2.94-13.23-7.55-6.49-6.29-10.21-13.75-10.21-20.47,0-8.59,6-15.9,9.55-19.49,4.91-4.94,10.8-8.54,14-8.54,5.75,0,19.1,8,22.26,18.86a2.12,2.12,0,0,1-2,2.7l-4.6,0h0a2.11,2.11,0,0,1,0-4.21l1.55,0c-3.84-7.63-13.61-13.16-17.16-13.16s-19.32,11.58-19.32,23.81c0,7.94,6.24,14.84,8.92,17.44,4.56,4.41,8.72,6.36,10.28,6.36h.05c4-.13,12.84-4.81,16.76-12l-1.86-.08a2.11,2.11,0,0,1,.2-4.21l4.92.23a2.1,2.1,0,0,1,1.89,2.78c-3.46,10.23-15.4,17.33-21.77,17.54Z"/><path class="cls-1" d="M309.65,247.48h-.18c-6.37-.21-18.31-7.31-21.77-17.54a2.12,2.12,0,0,1,1.9-2.78l4.91-.23a2.11,2.11,0,1,1,.2,4.21l-1.86.08c3.92,7.23,12.74,11.91,16.76,12h.06c1.55,0,5.71-1.95,10.27-6.36,2.69-2.6,8.93-9.5,8.93-17.44,0-12.23-15.87-23.81-19.33-23.81s-13.32,5.53-17.15,13.16l1.54,0a2.11,2.11,0,0,1,0,4.21h0l-4.6,0a2.11,2.11,0,0,1-1.66-.86,2.09,2.09,0,0,1-.33-1.84c3.16-10.89,16.51-18.86,22.25-18.86,3.2,0,9.08,3.6,14,8.54,3.57,3.59,9.55,10.9,9.55,19.49,0,6.72-3.72,14.18-10.2,20.47C318.11,244.54,313,247.48,309.65,247.48Z"/><path class="cls-1" d="M346.28,129.57a4.75,4.75,0,1,1-4.75-4.75A4.75,4.75,0,0,1,346.28,129.57Z"/><path class="cls-1" d="M429.94,129.57a4.75,4.75,0,1,1-4.74-4.75A4.74,4.74,0,0,1,429.94,129.57Z"/><path class="cls-1" d="M262.61,189.33a4.75,4.75,0,1,1-4.75-4.75A4.75,4.75,0,0,1,262.61,189.33Z"/><path class="cls-1" d="M346.28,189.33a4.75,4.75,0,1,1-4.75-4.75A4.75,4.75,0,0,1,346.28,189.33Z"/><path class="cls-1" d="M375.33,307.24c-3.3,0-8.46-2.94-13.23-7.55-6.48-6.28-10.2-13.75-10.2-20.47,0-8.59,6-15.89,9.55-19.48,4.91-5,10.79-8.54,14-8.54,5.74,0,19.09,8,22.25,18.85a2.08,2.08,0,0,1-.33,1.84,2.11,2.11,0,0,1-1.66.86l-4.6.06h0a2.11,2.11,0,0,1,0-4.22l1.54,0c-3.83-7.63-13.6-13.16-17.15-13.16S356.11,267,356.11,279.22c0,7.94,6.24,14.84,8.93,17.44,4.56,4.42,8.72,6.37,10.27,6.37h.06c4-.14,12.84-4.82,16.76-12l-1.86-.09a2.11,2.11,0,1,1,.2-4.21l4.91.23a2.12,2.12,0,0,1,1.9,2.78c-3.46,10.23-15.4,17.33-21.77,17.54Z"/><path class="cls-1" d="M393.31,307.24h-.17c-6.37-.21-18.31-7.31-21.77-17.54a2.1,2.1,0,0,1,1.89-2.78l4.92-.23a2.11,2.11,0,0,1,.2,4.21l-1.86.09c3.92,7.22,12.73,11.9,16.76,12h.05c1.56,0,5.72-1.95,10.28-6.37,2.68-2.6,8.92-9.5,8.92-17.44,0-12.23-15.87-23.81-19.32-23.81s-13.32,5.53-17.16,13.16l1.55,0a2.11,2.11,0,0,1,0,4.22h0l-4.6-.06a2.12,2.12,0,0,1-2-2.7c3.16-10.89,16.51-18.85,22.26-18.85,3.19,0,9.08,3.59,14,8.54,3.57,3.59,9.55,10.89,9.55,19.48,0,6.72-3.72,14.19-10.21,20.47C401.78,304.3,396.62,307.24,393.31,307.24Z"/><path class="cls-1" d="M291.67,367c-3.31,0-8.47-2.94-13.23-7.55-6.49-6.28-10.21-13.74-10.21-20.47,0-8.59,6-15.89,9.55-19.48,4.91-4.95,10.8-8.54,14-8.54,5.75,0,19.1,8,22.26,18.85a2.11,2.11,0,0,1-2,2.7l-4.6.06h0a2.11,2.11,0,0,1,0-4.22l1.55,0c-3.84-7.63-13.61-13.16-17.16-13.16S272.45,326.75,272.45,339c0,7.94,6.24,14.84,8.92,17.44,4.56,4.42,8.72,6.37,10.28,6.37h.05c4-.13,12.84-4.82,16.76-12l-1.86-.09a2.11,2.11,0,0,1,.2-4.21l4.92.23a2.1,2.1,0,0,1,1.89,2.78c-3.46,10.23-15.4,17.34-21.77,17.54Z"/><path class="cls-1" d="M309.65,367h-.18c-6.37-.2-18.31-7.31-21.77-17.54a2.12,2.12,0,0,1,1.9-2.78l4.91-.23a2.11,2.11,0,1,1,.2,4.21l-1.86.09c3.92,7.22,12.74,11.91,16.76,12h.06c1.55,0,5.71-2,10.27-6.37,2.69-2.6,8.93-9.5,8.93-17.44,0-12.23-15.87-23.81-19.33-23.81s-13.32,5.53-17.15,13.16l1.54,0a2.11,2.11,0,0,1,0,4.22h0l-4.6-.06a2.13,2.13,0,0,1-1.66-.85,2.11,2.11,0,0,1-.33-1.85C290.45,318.92,303.8,311,309.54,311c3.2,0,9.08,3.59,14,8.54,3.57,3.59,9.55,10.89,9.55,19.48,0,6.73-3.72,14.19-10.2,20.47C318.11,364.06,313,367,309.65,367Z"/><path class="cls-1" d="M346.28,249.09a4.75,4.75,0,1,1-4.75-4.75A4.75,4.75,0,0,1,346.28,249.09Z"/><path class="cls-1" d="M429.94,249.09a4.75,4.75,0,1,1-4.74-4.75A4.74,4.74,0,0,1,429.94,249.09Z"/><path class="cls-1" d="M262.61,308.85a4.75,4.75,0,1,1-4.75-4.74A4.75,4.75,0,0,1,262.61,308.85Z"/><path class="cls-1" d="M346.28,308.85a4.75,4.75,0,1,1-4.75-4.74A4.75,4.75,0,0,1,346.28,308.85Z"/><path class="cls-1" d="M375.33,426.76c-3.3,0-8.46-2.94-13.23-7.55-6.48-6.28-10.2-13.74-10.2-20.47,0-8.58,6-15.89,9.55-19.48,4.91-4.95,10.79-8.54,14-8.54,5.74,0,19.09,8,22.25,18.85a2.11,2.11,0,0,1-2,2.7l-4.6.06h0a2.11,2.11,0,0,1,0-4.22l1.54,0c-3.83-7.63-13.6-13.15-17.15-13.15s-19.33,11.58-19.33,23.8c0,7.94,6.24,14.84,8.93,17.44,4.56,4.42,8.72,6.37,10.27,6.37h.06c4-.13,12.84-4.82,16.76-12l-1.86-.09a2.11,2.11,0,1,1,.2-4.21l4.91.23a2.12,2.12,0,0,1,1.9,2.78c-3.46,10.24-15.4,17.34-21.77,17.54Z"/><path class="cls-1" d="M393.31,426.76h-.17c-6.37-.2-18.31-7.3-21.77-17.54a2.1,2.1,0,0,1,1.89-2.78l4.92-.23a2.11,2.11,0,0,1,.2,4.21l-1.86.09c3.92,7.22,12.73,11.91,16.76,12h.05c1.56,0,5.72-1.95,10.28-6.37,2.68-2.6,8.92-9.5,8.92-17.44,0-12.22-15.87-23.8-19.32-23.8s-13.32,5.52-17.16,13.15l1.55,0a2.11,2.11,0,0,1,0,4.22h0l-4.6-.06a2.11,2.11,0,0,1-2-2.7c3.16-10.89,16.51-18.85,22.26-18.85,3.19,0,9.08,3.59,14,8.54,3.57,3.59,9.55,10.9,9.55,19.48,0,6.73-3.72,14.19-10.21,20.47C401.78,423.82,396.62,426.76,393.31,426.76Z"/><path class="cls-1" d="M291.67,486.53c-3.31,0-8.47-2.95-13.23-7.56-6.49-6.28-10.21-13.74-10.21-20.47,0-8.58,6-15.89,9.55-19.48,4.91-4.95,10.8-8.54,14-8.54,5.75,0,19.1,8,22.26,18.86a2.1,2.1,0,0,1-2,2.69l-4.6.06A2.08,2.08,0,0,1,305.3,450a2.11,2.11,0,0,1,2.08-2.14l1.55,0c-3.84-7.63-13.61-13.15-17.16-13.15s-19.32,11.58-19.32,23.8c0,7.94,6.24,14.84,8.92,17.44,4.56,4.42,8.72,6.37,10.28,6.37h.05c4-.13,12.84-4.82,16.76-12l-1.86-.09a2.11,2.11,0,0,1,.2-4.21l4.92.23a2.11,2.11,0,0,1,1.89,2.79c-3.46,10.23-15.4,17.33-21.77,17.53Z"/><path class="cls-1" d="M309.65,486.53h-.18c-6.37-.2-18.31-7.3-21.77-17.53a2.12,2.12,0,0,1,1.9-2.79l4.91-.23a2.11,2.11,0,1,1,.2,4.21l-1.86.09c3.92,7.22,12.74,11.91,16.76,12h.06c1.55,0,5.71-1.95,10.27-6.37,2.69-2.6,8.93-9.5,8.93-17.44,0-12.22-15.87-23.8-19.33-23.8s-13.32,5.53-17.15,13.15l1.54,0a2.11,2.11,0,0,1,0,4.22h0l-4.6-.06a2.1,2.1,0,0,1-2-2.69c3.16-10.9,16.51-18.86,22.25-18.86,3.2,0,9.08,3.59,14,8.54,3.57,3.59,9.55,10.9,9.55,19.48,0,6.73-3.72,14.19-10.2,20.47C318.11,483.58,313,486.53,309.65,486.53Z"/><path class="cls-1" d="M346.28,368.61a4.75,4.75,0,1,1-4.75-4.74A4.75,4.75,0,0,1,346.28,368.61Z"/><path class="cls-1" d="M429.94,368.61a4.75,4.75,0,1,1-4.74-4.74A4.75,4.75,0,0,1,429.94,368.61Z"/><path class="cls-1" d="M262.61,428.37a4.75,4.75,0,1,1-4.75-4.74A4.75,4.75,0,0,1,262.61,428.37Z"/><path class="cls-1" d="M346.28,428.37a4.75,4.75,0,1,1-4.75-4.74A4.75,4.75,0,0,1,346.28,428.37Z"/><path class="cls-1" d="M375.33,546.29c-3.3,0-8.46-2.94-13.23-7.56-6.48-6.28-10.2-13.74-10.2-20.47,0-8.58,6-15.89,9.55-19.48,4.91-4.95,10.79-8.54,14-8.54,5.74,0,19.09,8,22.25,18.86a2.1,2.1,0,0,1-2,2.69l-4.6.06h0a2.11,2.11,0,0,1,0-4.21l1.54,0c-3.83-7.63-13.6-13.16-17.15-13.16s-19.33,11.58-19.33,23.8c0,7.94,6.24,14.85,8.93,17.45,4.56,4.41,8.72,6.36,10.27,6.36h.06c4-.13,12.84-4.81,16.76-12l-1.86-.08a2.11,2.11,0,0,1,.2-4.22l4.91.24a2.11,2.11,0,0,1,1.9,2.78c-3.46,10.23-15.4,17.33-21.77,17.54Z"/><path class="cls-1" d="M393.31,546.29h-.17c-6.37-.21-18.31-7.31-21.77-17.54a2.09,2.09,0,0,1,1.89-2.78l4.92-.24a2.11,2.11,0,0,1,.2,4.22l-1.86.08c3.92,7.23,12.73,11.91,16.76,12h.05c1.56,0,5.72-2,10.28-6.36,2.68-2.6,8.92-9.51,8.92-17.45,0-12.22-15.87-23.8-19.32-23.8s-13.32,5.53-17.16,13.16l1.55,0a2.11,2.11,0,0,1,0,4.21h0l-4.6-.06a2.09,2.09,0,0,1-1.67-.85,2.12,2.12,0,0,1-.33-1.84c3.16-10.89,16.51-18.86,22.26-18.86,3.19,0,9.08,3.59,14,8.54,3.57,3.59,9.55,10.9,9.55,19.48,0,6.73-3.72,14.19-10.21,20.47C401.78,543.35,396.62,546.29,393.31,546.29Z"/><path class="cls-1" d="M291.67,606.05c-3.31,0-8.47-2.94-13.23-7.55-6.49-6.29-10.21-13.75-10.21-20.47,0-8.59,6-15.9,9.55-19.49,4.91-4.95,10.8-8.54,14-8.54,5.75,0,19.1,8,22.26,18.86a2.12,2.12,0,0,1-.33,1.84,2.09,2.09,0,0,1-1.67.85l-4.6.06h0a2.11,2.11,0,0,1,0-4.21l1.55,0c-3.84-7.63-13.61-13.16-17.16-13.16S272.45,565.8,272.45,578c0,7.94,6.24,14.84,8.92,17.44,4.56,4.41,8.72,6.36,10.28,6.36h.05c4-.13,12.84-4.81,16.76-12l-1.86-.08a2.11,2.11,0,0,1,.2-4.22l4.92.24a2.09,2.09,0,0,1,1.89,2.78c-3.46,10.23-15.4,17.33-21.77,17.54Z"/><path class="cls-1" d="M309.65,606.05h-.18c-6.37-.21-18.31-7.31-21.77-17.54a2.11,2.11,0,0,1,1.9-2.78l4.91-.24a2.11,2.11,0,1,1,.2,4.22l-1.86.08c3.92,7.23,12.74,11.91,16.76,12h.06c1.55,0,5.71-2,10.27-6.36,2.69-2.6,8.93-9.5,8.93-17.44,0-12.23-15.87-23.81-19.33-23.81s-13.32,5.53-17.15,13.16l1.54,0a2.11,2.11,0,0,1,0,4.21h0l-4.6-.06a2.1,2.1,0,0,1-2-2.69C290.45,558,303.8,550,309.54,550c3.2,0,9.08,3.59,14,8.54,3.57,3.59,9.55,10.9,9.55,19.49,0,6.72-3.72,14.18-10.2,20.47C318.11,603.11,313,606.05,309.65,606.05Z"/><path class="cls-1" d="M346.28,488.14a4.75,4.75,0,1,1-4.75-4.75A4.75,4.75,0,0,1,346.28,488.14Z"/><path class="cls-1" d="M429.94,488.14a4.75,4.75,0,1,1-4.74-4.75A4.74,4.74,0,0,1,429.94,488.14Z"/><path class="cls-1" d="M262.61,547.9a4.75,4.75,0,1,1-4.75-4.75A4.75,4.75,0,0,1,262.61,547.9Z"/><path class="cls-1" d="M346.28,547.9a4.75,4.75,0,1,1-4.75-4.75A4.75,4.75,0,0,1,346.28,547.9Z"/><path class="cls-1" d="M375.33,665.81c-3.3,0-8.46-2.94-13.23-7.55-6.48-6.28-10.2-13.75-10.2-20.47,0-8.59,6-15.89,9.55-19.48,4.91-4.95,10.79-8.54,14-8.54,5.74,0,19.09,8,22.25,18.85a2.08,2.08,0,0,1-.33,1.84,2.11,2.11,0,0,1-1.66.86l-4.6.06h0a2.11,2.11,0,0,1,0-4.22l1.54,0C388.76,619.51,379,614,375.44,614s-19.33,11.58-19.33,23.81c0,7.94,6.24,14.84,8.93,17.44,4.56,4.42,8.72,6.37,10.27,6.37h.06c4-.13,12.84-4.81,16.76-12l-1.86-.09a2.11,2.11,0,1,1,.2-4.21l4.91.23a2.12,2.12,0,0,1,1.9,2.78c-3.46,10.23-15.4,17.33-21.77,17.54Z"/><path class="cls-1" d="M393.31,665.81h-.17c-6.37-.21-18.31-7.31-21.77-17.54a2.1,2.1,0,0,1,1.89-2.78l4.92-.23a2.11,2.11,0,0,1,.2,4.21l-1.86.09c3.92,7.22,12.73,11.9,16.76,12h.05c1.56,0,5.72-2,10.28-6.37,2.68-2.6,8.92-9.5,8.92-17.44,0-12.23-15.87-23.81-19.32-23.81s-13.32,5.53-17.16,13.16l1.55,0a2.11,2.11,0,0,1,0,4.22h0l-4.6-.06a2.12,2.12,0,0,1-2-2.7c3.16-10.89,16.51-18.85,22.26-18.85,3.19,0,9.08,3.59,14,8.54,3.57,3.59,9.55,10.89,9.55,19.48,0,6.72-3.72,14.19-10.21,20.47C401.78,662.87,396.62,665.81,393.31,665.81Z"/><path class="cls-1" d="M291.67,725.57c-3.31,0-8.47-2.94-13.23-7.55-6.49-6.28-10.21-13.74-10.21-20.47,0-8.59,6-15.89,9.55-19.48,4.91-5,10.8-8.54,14-8.54,5.75,0,19.1,8,22.26,18.85a2.11,2.11,0,0,1-2,2.7l-4.6.06h0a2.11,2.11,0,0,1,0-4.22l1.55,0c-3.84-7.63-13.61-13.16-17.16-13.16s-19.32,11.58-19.32,23.81c0,7.94,6.24,14.84,8.92,17.44,4.56,4.42,8.72,6.37,10.28,6.37h.05c4-.13,12.84-4.82,16.76-12l-1.86-.09a2.11,2.11,0,0,1,.2-4.21l4.92.23a2.1,2.1,0,0,1,1.89,2.78c-3.46,10.23-15.4,17.33-21.77,17.54Z"/><path class="cls-1" d="M309.65,725.57h-.18c-6.37-.21-18.31-7.31-21.77-17.54a2.12,2.12,0,0,1,1.9-2.78l4.91-.23a2.11,2.11,0,1,1,.2,4.21l-1.86.09c3.92,7.22,12.74,11.91,16.76,12h.06c1.55,0,5.71-2,10.27-6.37,2.69-2.6,8.93-9.5,8.93-17.44,0-12.23-15.87-23.81-19.33-23.81s-13.32,5.53-17.15,13.16l1.54,0a2.11,2.11,0,0,1,0,4.22h0l-4.6-.06a2.13,2.13,0,0,1-1.66-.85,2.11,2.11,0,0,1-.33-1.85c3.16-10.89,16.51-18.85,22.25-18.85,3.2,0,9.08,3.59,14,8.54,3.57,3.59,9.55,10.89,9.55,19.48,0,6.73-3.72,14.19-10.2,20.47C318.11,722.63,313,725.57,309.65,725.57Z"/><path class="cls-1" d="M346.28,607.66a4.75,4.75,0,1,1-4.75-4.75A4.75,4.75,0,0,1,346.28,607.66Z"/><path class="cls-1" d="M429.94,607.66a4.75,4.75,0,1,1-4.74-4.75A4.74,4.74,0,0,1,429.94,607.66Z"/><path class="cls-1" d="M262.61,667.42a4.75,4.75,0,1,1-4.75-4.74A4.75,4.75,0,0,1,262.61,667.42Z"/><path class="cls-1" d="M346.28,667.42a4.75,4.75,0,1,1-4.75-4.74A4.75,4.75,0,0,1,346.28,667.42Z"/><path class="cls-1" d="M375.33,785.33c-3.3,0-8.46-2.94-13.23-7.55-6.48-6.28-10.2-13.74-10.2-20.47,0-8.58,6-15.89,9.55-19.48,4.91-5,10.79-8.54,14-8.54,5.74,0,19.09,8,22.25,18.85a2.11,2.11,0,0,1-2,2.7l-4.6.06h0a2.11,2.11,0,0,1,0-4.22l1.54,0C388.76,739,379,733.5,375.44,733.5s-19.33,11.59-19.33,23.81c0,7.94,6.24,14.84,8.93,17.44,4.56,4.42,8.72,6.37,10.27,6.37h.06c4-.13,12.84-4.82,16.76-12l-1.86-.09a2.11,2.11,0,1,1,.2-4.21l4.91.23a2.12,2.12,0,0,1,1.9,2.78c-3.46,10.24-15.4,17.34-21.77,17.54Z"/><path class="cls-1" d="M393.31,785.33h-.17c-6.37-.2-18.31-7.3-21.77-17.54a2.1,2.1,0,0,1,1.89-2.78l4.92-.23a2.11,2.11,0,0,1,.2,4.21l-1.86.09c3.92,7.22,12.73,11.91,16.76,12h.05c1.56,0,5.72-2,10.28-6.37,2.68-2.6,8.92-9.5,8.92-17.44,0-12.22-15.87-23.81-19.32-23.81s-13.32,5.53-17.16,13.16l1.55,0a2.11,2.11,0,0,1,0,4.22h0l-4.6-.06a2.11,2.11,0,0,1-2-2.7c3.16-10.89,16.51-18.85,22.26-18.85,3.19,0,9.08,3.59,14,8.54,3.57,3.59,9.55,10.9,9.55,19.48,0,6.73-3.72,14.19-10.21,20.47C401.78,782.39,396.62,785.33,393.31,785.33Z"/><path class="cls-1" d="M291.67,845.1c-3.31,0-8.47-3-13.23-7.56-6.49-6.28-10.21-13.74-10.21-20.47,0-8.58,6-15.89,9.55-19.48,4.91-5,10.8-8.54,14-8.54,5.75,0,19.1,8,22.26,18.86a2.1,2.1,0,0,1-2,2.69l-4.6.06h0a2.11,2.11,0,0,1,0-4.22l1.55,0c-3.84-7.63-13.61-13.15-17.16-13.15s-19.32,11.58-19.32,23.8c0,7.94,6.24,14.84,8.92,17.44,4.56,4.42,8.72,6.37,10.28,6.37h.05c4-.13,12.84-4.82,16.76-12l-1.86-.09a2.11,2.11,0,0,1,.2-4.21l4.92.23a2.11,2.11,0,0,1,1.89,2.79c-3.46,10.23-15.4,17.33-21.77,17.53Z"/><path class="cls-1" d="M309.65,845.1h-.18c-6.37-.2-18.31-7.3-21.77-17.53a2.12,2.12,0,0,1,1.9-2.79l4.91-.23a2.11,2.11,0,1,1,.2,4.21l-1.86.09c3.92,7.22,12.74,11.91,16.76,12h.06c1.55,0,5.71-2,10.27-6.37,2.69-2.6,8.93-9.5,8.93-17.44,0-12.22-15.87-23.8-19.33-23.8s-13.32,5.53-17.15,13.15l1.54,0a2.11,2.11,0,0,1,0,4.22h0l-4.6-.06a2.1,2.1,0,0,1-2-2.69c3.16-10.9,16.51-18.86,22.25-18.86,3.2,0,9.08,3.59,14,8.54,3.57,3.59,9.55,10.9,9.55,19.48,0,6.73-3.72,14.19-10.2,20.47C318.11,842.15,313,845.1,309.65,845.1Z"/><path class="cls-1" d="M346.28,727.18a4.75,4.75,0,1,1-4.75-4.74A4.75,4.75,0,0,1,346.28,727.18Z"/><path class="cls-1" d="M429.94,727.18a4.75,4.75,0,1,1-4.74-4.74A4.75,4.75,0,0,1,429.94,727.18Z"/><path class="cls-1" d="M262.61,786.94a4.75,4.75,0,1,1-4.75-4.74A4.75,4.75,0,0,1,262.61,786.94Z"/><path class="cls-1" d="M346.28,786.94a4.75,4.75,0,1,1-4.75-4.74A4.75,4.75,0,0,1,346.28,786.94Z"/><path class="cls-1" d="M542.66,68.2c-3.3,0-8.46-3-13.22-7.56C523,54.36,519.23,46.9,519.23,40.17c0-8.58,6-15.89,9.55-19.48,4.91-5,10.8-8.54,14-8.54,5.75,0,19.1,8,22.26,18.86a2.11,2.11,0,0,1-2,2.69l-4.6.06a2.11,2.11,0,0,1,0-4.22l1.54,0c-3.83-7.63-13.6-13.15-17.15-13.15S523.44,28,523.44,40.17c0,7.94,6.25,14.84,8.93,17.44C536.93,62,541.09,64,542.65,64h.05c4-.13,12.84-4.82,16.76-12l-1.86-.09a2.11,2.11,0,0,1,.2-4.21l4.91.23a2.1,2.1,0,0,1,1.9,2.78c-3.46,10.24-15.4,17.34-21.77,17.54Z"/><path class="cls-1" d="M560.65,68.2h-.18c-6.37-.2-18.31-7.3-21.77-17.54a2.1,2.1,0,0,1,1.9-2.78l4.91-.23a2.12,2.12,0,0,1,2.2,2,2.1,2.1,0,0,1-2,2.2l-1.86.09c3.92,7.22,12.73,11.91,16.76,12h.06c1.55,0,5.71-1.95,10.27-6.37,2.69-2.6,8.93-9.5,8.93-17.44,0-12.22-15.88-23.8-19.33-23.8s-13.32,5.52-17.15,13.15l1.54,0a2.11,2.11,0,0,1,0,4.22l-4.6-.06a2.09,2.09,0,0,1-1.66-.85,2.06,2.06,0,0,1-.33-1.84c3.15-10.9,16.51-18.86,22.25-18.86,3.19,0,9.08,3.59,14,8.54,3.57,3.59,9.55,10.9,9.55,19.48,0,6.73-3.72,14.19-10.21,20.47C569.11,65.25,564,68.2,560.65,68.2Z"/><path class="cls-1" d="M459,128c-3.31,0-8.47-2.95-13.23-7.56-6.49-6.28-10.21-13.74-10.21-20.47,0-8.58,6-15.89,9.55-19.48,4.92-5,10.8-8.54,14-8.54,5.75,0,19.1,8,22.26,18.86a2.1,2.1,0,0,1-2,2.69l-4.59.06a2.11,2.11,0,1,1-.06-4.22l1.55,0c-3.83-7.63-13.61-13.15-17.16-13.15s-19.32,11.58-19.32,23.8c0,7.94,6.24,14.84,8.92,17.44,4.57,4.42,8.72,6.37,10.28,6.37H459c4-.13,12.84-4.81,16.75-12l-1.85-.09a2.11,2.11,0,1,1,.2-4.21l4.91.23a2.12,2.12,0,0,1,1.9,2.79c-3.47,10.23-15.4,17.33-21.78,17.53Z"/><path class="cls-1" d="M477,128h-.17c-6.38-.2-18.32-7.3-21.78-17.53a2.11,2.11,0,0,1,.26-1.87,2.15,2.15,0,0,1,1.64-.92l4.91-.23a2.11,2.11,0,1,1,.2,4.21l-1.86.09c3.92,7.23,12.74,11.91,16.76,12H477c1.55,0,5.71-1.95,10.27-6.37,2.69-2.6,8.93-9.5,8.93-17.44,0-12.22-15.87-23.8-19.33-23.8s-13.32,5.53-17.15,13.15l1.55,0a2.11,2.11,0,0,1,0,4.22h0l-4.59-.06a2.1,2.1,0,0,1-2-2.69c3.16-10.9,16.51-18.86,22.25-18.86,3.2,0,9.08,3.59,14,8.54,3.56,3.59,9.55,10.9,9.55,19.48,0,6.73-3.72,14.19-10.21,20.47C485.44,125,480.28,128,477,128Z"/><path class="cls-1" d="M513.61,10a4.75,4.75,0,1,1-4.75-4.74A4.75,4.75,0,0,1,513.61,10Z"/><path class="cls-1" d="M597.27,10a4.75,4.75,0,1,1-4.74-4.74A4.75,4.75,0,0,1,597.27,10Z"/><path class="cls-1" d="M429.94,69.8a4.75,4.75,0,1,1-4.74-4.74A4.74,4.74,0,0,1,429.94,69.8Z"/><path class="cls-1" d="M513.61,69.8a4.75,4.75,0,1,1-4.75-4.74A4.75,4.75,0,0,1,513.61,69.8Z"/><path class="cls-1" d="M542.66,187.72c-3.3,0-8.46-2.94-13.22-7.56-6.49-6.28-10.21-13.74-10.21-20.46,0-8.59,6-15.9,9.55-19.49,4.91-5,10.8-8.54,14-8.54,5.75,0,19.1,8,22.26,18.86a2.09,2.09,0,0,1-.34,1.84,2.06,2.06,0,0,1-1.66.85l-4.6.06h0a2.11,2.11,0,0,1,0-4.21l1.54,0c-3.83-7.63-13.6-13.16-17.15-13.16s-19.33,11.58-19.33,23.81c0,7.94,6.25,14.84,8.93,17.44,4.56,4.41,8.72,6.36,10.28,6.36h.05c4-.13,12.84-4.81,16.76-12l-1.86-.08a2.11,2.11,0,0,1,.2-4.22l4.91.24a2.09,2.09,0,0,1,1.9,2.78c-3.46,10.23-15.4,17.33-21.77,17.54Z"/><path class="cls-1" d="M560.65,187.72h-.18c-6.37-.21-18.31-7.31-21.77-17.54a2.09,2.09,0,0,1,1.9-2.78l4.91-.24a2.11,2.11,0,0,1,.2,4.22l-1.86.08c3.92,7.23,12.73,11.91,16.76,12h.06c1.55,0,5.71-1.95,10.27-6.36,2.69-2.6,8.93-9.5,8.93-17.44,0-12.23-15.88-23.81-19.33-23.81s-13.32,5.53-17.15,13.16l1.54,0a2.11,2.11,0,0,1,0,4.21l-4.6-.06a2.1,2.1,0,0,1-2-2.69c3.15-10.89,16.51-18.86,22.25-18.86,3.19,0,9.08,3.59,14,8.54,3.57,3.59,9.55,10.9,9.55,19.49,0,6.72-3.72,14.18-10.21,20.46C569.11,184.78,564,187.72,560.65,187.72Z"/><path class="cls-1" d="M459,247.48c-3.31,0-8.47-2.94-13.23-7.55-6.49-6.29-10.21-13.75-10.21-20.47,0-8.59,6-15.9,9.55-19.49,4.92-4.94,10.8-8.54,14-8.54,5.75,0,19.1,8,22.26,18.86a2.12,2.12,0,0,1-2,2.7l-4.59,0a2.11,2.11,0,1,1-.06-4.21l1.55,0c-3.83-7.63-13.61-13.16-17.16-13.16s-19.32,11.58-19.32,23.81c0,7.94,6.24,14.84,8.92,17.44,4.57,4.41,8.72,6.36,10.28,6.36H459c4-.13,12.84-4.81,16.75-12l-1.85-.08a2.11,2.11,0,1,1,.2-4.21l4.91.23a2.09,2.09,0,0,1,1.64.92,2.11,2.11,0,0,1,.26,1.86c-3.47,10.23-15.4,17.33-21.78,17.54Z"/><path class="cls-1" d="M477,247.48h-.17c-6.38-.21-18.32-7.31-21.78-17.54a2.12,2.12,0,0,1,1.9-2.78l4.91-.23a2.11,2.11,0,1,1,.2,4.21l-1.86.08c3.92,7.23,12.74,11.91,16.76,12H477c1.55,0,5.71-1.95,10.27-6.36,2.69-2.6,8.93-9.5,8.93-17.44,0-12.23-15.87-23.81-19.33-23.81s-13.32,5.53-17.15,13.16l1.55,0a2.11,2.11,0,0,1,0,4.21h0l-4.59,0a2.12,2.12,0,0,1-1.67-.86,2.09,2.09,0,0,1-.33-1.84c3.16-10.89,16.51-18.86,22.25-18.86,3.2,0,9.08,3.6,14,8.54,3.56,3.59,9.55,10.9,9.55,19.49,0,6.72-3.72,14.18-10.21,20.47C485.44,244.54,480.28,247.48,477,247.48Z"/><path class="cls-1" d="M513.61,129.57a4.75,4.75,0,1,1-4.75-4.75A4.75,4.75,0,0,1,513.61,129.57Z"/><path class="cls-1" d="M597.27,129.57a4.75,4.75,0,1,1-4.74-4.75A4.74,4.74,0,0,1,597.27,129.57Z"/><path class="cls-1" d="M429.94,189.33a4.75,4.75,0,1,1-4.74-4.75A4.74,4.74,0,0,1,429.94,189.33Z"/><path class="cls-1" d="M513.61,189.33a4.75,4.75,0,1,1-4.75-4.75A4.75,4.75,0,0,1,513.61,189.33Z"/><path class="cls-1" d="M542.66,307.24c-3.3,0-8.46-2.94-13.22-7.55-6.49-6.28-10.21-13.75-10.21-20.47,0-8.59,6-15.89,9.55-19.48,4.91-5,10.8-8.54,14-8.54,5.75,0,19.1,8,22.26,18.85a2.13,2.13,0,0,1-2,2.7l-4.6.06h0a2.11,2.11,0,0,1,0-4.22l1.54,0c-3.83-7.63-13.6-13.16-17.15-13.16S523.44,267,523.44,279.22c0,7.94,6.25,14.84,8.93,17.44,4.56,4.42,8.72,6.37,10.28,6.37h.05c4-.14,12.84-4.82,16.76-12l-1.86-.09a2.11,2.11,0,0,1,.2-4.21l4.91.23a2.1,2.1,0,0,1,1.9,2.78c-3.46,10.23-15.4,17.33-21.77,17.54Z"/><path class="cls-1" d="M560.65,307.24h-.18c-6.37-.21-18.31-7.31-21.77-17.54a2.1,2.1,0,0,1,1.9-2.78l4.91-.23a2.11,2.11,0,0,1,.2,4.21l-1.86.09c3.92,7.22,12.73,11.9,16.76,12h.06c1.55,0,5.71-1.95,10.27-6.37,2.69-2.6,8.93-9.5,8.93-17.44,0-12.23-15.88-23.81-19.33-23.81s-13.32,5.53-17.15,13.16l1.54,0a2.1,2.1,0,0,1,2.08,2.13,2.13,2.13,0,0,1-2.13,2.09l-4.6-.06a2.1,2.1,0,0,1-1.66-.86,2.05,2.05,0,0,1-.33-1.84c3.15-10.89,16.51-18.85,22.25-18.85,3.19,0,9.08,3.59,14,8.54,3.57,3.59,9.55,10.89,9.55,19.48,0,6.72-3.72,14.19-10.21,20.47C569.11,304.3,564,307.24,560.65,307.24Z"/><path class="cls-1" d="M459,367c-3.31,0-8.47-2.94-13.23-7.55-6.49-6.28-10.21-13.74-10.21-20.47,0-8.59,6-15.89,9.55-19.48,4.92-4.95,10.8-8.54,14-8.54,5.75,0,19.1,8,22.26,18.85a2.11,2.11,0,0,1-2,2.7l-4.59.06a2.11,2.11,0,1,1-.06-4.22l1.55,0c-3.83-7.63-13.61-13.16-17.16-13.16S439.78,326.75,439.78,339c0,7.94,6.24,14.84,8.92,17.44,4.57,4.42,8.72,6.37,10.28,6.37H459c4-.13,12.84-4.82,16.75-12l-1.85-.09a2.11,2.11,0,1,1,.2-4.21l4.91.23a2.09,2.09,0,0,1,1.64.92,2.12,2.12,0,0,1,.26,1.86c-3.47,10.23-15.4,17.34-21.78,17.54Z"/><path class="cls-1" d="M477,367h-.17c-6.38-.2-18.32-7.31-21.78-17.54a2.12,2.12,0,0,1,1.9-2.78l4.91-.23a2.11,2.11,0,1,1,.2,4.21l-1.86.09c3.92,7.22,12.74,11.91,16.76,12H477c1.55,0,5.71-2,10.27-6.37,2.69-2.6,8.93-9.5,8.93-17.44,0-12.23-15.87-23.81-19.33-23.81s-13.32,5.53-17.15,13.16l1.55,0a2.11,2.11,0,0,1,0,4.22h0l-4.59-.06a2.14,2.14,0,0,1-1.67-.85,2.11,2.11,0,0,1-.33-1.85c3.16-10.89,16.51-18.85,22.25-18.85,3.2,0,9.08,3.59,14,8.54,3.56,3.59,9.55,10.89,9.55,19.48,0,6.73-3.72,14.19-10.21,20.47C485.44,364.06,480.28,367,477,367Z"/><path class="cls-1" d="M513.61,249.09a4.75,4.75,0,1,1-4.75-4.75A4.75,4.75,0,0,1,513.61,249.09Z"/><path class="cls-1" d="M597.27,249.09a4.75,4.75,0,1,1-4.74-4.75A4.74,4.74,0,0,1,597.27,249.09Z"/><path class="cls-1" d="M429.94,308.85a4.75,4.75,0,1,1-4.74-4.74A4.75,4.75,0,0,1,429.94,308.85Z"/><path class="cls-1" d="M513.61,308.85a4.75,4.75,0,1,1-4.75-4.74A4.75,4.75,0,0,1,513.61,308.85Z"/><path class="cls-1" d="M542.66,426.76c-3.3,0-8.46-2.94-13.22-7.55-6.49-6.28-10.21-13.74-10.21-20.47,0-8.58,6-15.89,9.55-19.48,4.91-4.95,10.8-8.54,14-8.54,5.75,0,19.1,8,22.26,18.85a2.12,2.12,0,0,1-2,2.7l-4.6.06h0a2.11,2.11,0,0,1,0-4.22l1.54,0c-3.83-7.63-13.6-13.15-17.15-13.15s-19.33,11.58-19.33,23.8c0,7.94,6.25,14.84,8.93,17.44,4.62,4.47,8.81,6.38,10.33,6.37,4-.13,12.84-4.82,16.76-12l-1.86-.09a2.11,2.11,0,0,1,.2-4.21l4.91.23a2.1,2.1,0,0,1,1.9,2.78c-3.46,10.24-15.4,17.34-21.77,17.54Z"/><path class="cls-1" d="M560.65,426.76h-.18c-6.37-.2-18.31-7.3-21.77-17.54a2.1,2.1,0,0,1,1.9-2.78l4.91-.23a2.12,2.12,0,0,1,2.2,2,2.1,2.1,0,0,1-2,2.2l-1.86.09c3.92,7.22,12.73,11.91,16.76,12,1.5,0,5.71-1.9,10.33-6.37,2.69-2.6,8.93-9.5,8.93-17.44,0-12.22-15.88-23.8-19.33-23.8s-13.32,5.52-17.15,13.15l1.54,0a2.1,2.1,0,0,1,2.08,2.14,2.13,2.13,0,0,1-2.13,2.08l-4.6-.06a2.11,2.11,0,0,1-2-2.7c3.15-10.89,16.51-18.85,22.25-18.85,3.19,0,9.08,3.59,14,8.54,3.57,3.59,9.55,10.9,9.55,19.48,0,6.73-3.72,14.19-10.21,20.47C569.11,423.82,564,426.76,560.65,426.76Z"/><path class="cls-1" d="M459,486.53c-3.31,0-8.47-2.95-13.23-7.56-6.49-6.28-10.21-13.74-10.21-20.47,0-8.58,6-15.89,9.55-19.48,4.92-4.95,10.8-8.54,14-8.54,5.75,0,19.1,8,22.26,18.86a2.1,2.1,0,0,1-2,2.69l-4.59.06a2.11,2.11,0,1,1-.06-4.22l1.55,0c-3.83-7.63-13.61-13.15-17.16-13.15s-19.32,11.58-19.32,23.8c0,7.94,6.24,14.84,8.92,17.44,4.57,4.42,8.72,6.37,10.28,6.37H459c4-.13,12.84-4.82,16.75-12l-1.85-.09a2.11,2.11,0,1,1,.2-4.21l4.91.23A2.12,2.12,0,0,1,481,469c-3.47,10.23-15.4,17.33-21.78,17.53Z"/><path class="cls-1" d="M477,486.53h-.17c-6.38-.2-18.32-7.3-21.78-17.53a2.12,2.12,0,0,1,1.9-2.79l4.91-.23a2.11,2.11,0,1,1,.2,4.21l-1.86.09c3.92,7.22,12.74,11.91,16.76,12H477c1.55,0,5.71-1.95,10.27-6.37,2.69-2.6,8.93-9.5,8.93-17.44,0-12.22-15.87-23.8-19.33-23.8s-13.32,5.53-17.15,13.15l1.55,0a2.11,2.11,0,0,1,0,4.22h0l-4.59-.06a2.1,2.1,0,0,1-2-2.69c3.16-10.9,16.51-18.86,22.25-18.86,3.2,0,9.08,3.59,14,8.54,3.56,3.59,9.55,10.9,9.55,19.48,0,6.73-3.72,14.19-10.21,20.47C485.44,483.58,480.28,486.53,477,486.53Z"/><path class="cls-1" d="M513.61,368.61a4.75,4.75,0,1,1-4.75-4.74A4.75,4.75,0,0,1,513.61,368.61Z"/><path class="cls-1" d="M597.27,368.61a4.75,4.75,0,1,1-4.74-4.74A4.75,4.75,0,0,1,597.27,368.61Z"/><path class="cls-1" d="M429.94,428.37a4.75,4.75,0,1,1-4.74-4.74A4.75,4.75,0,0,1,429.94,428.37Z"/><path class="cls-1" d="M513.61,428.37a4.75,4.75,0,1,1-4.75-4.74A4.75,4.75,0,0,1,513.61,428.37Z"/><path class="cls-1" d="M542.66,546.29c-3.3,0-8.46-2.94-13.22-7.56-6.49-6.28-10.21-13.74-10.21-20.47,0-8.58,6-15.89,9.55-19.48,4.91-4.95,10.8-8.54,14-8.54,5.75,0,19.1,8,22.26,18.86a2.09,2.09,0,0,1-.34,1.84,2.06,2.06,0,0,1-1.66.85l-4.6.06h0a2.11,2.11,0,0,1,0-4.21l1.54,0c-3.83-7.63-13.6-13.16-17.15-13.16s-19.33,11.58-19.33,23.8c0,7.94,6.25,14.85,8.93,17.45,4.56,4.41,8.72,6.36,10.28,6.36h.05c4-.13,12.84-4.81,16.76-12L557.6,530a2.11,2.11,0,0,1,.2-4.22l4.91.24a2.09,2.09,0,0,1,1.9,2.78c-3.46,10.23-15.4,17.33-21.77,17.54Z"/><path class="cls-1" d="M560.65,546.29h-.18c-6.37-.21-18.31-7.31-21.77-17.54a2.09,2.09,0,0,1,1.9-2.78l4.91-.24a2.11,2.11,0,0,1,.2,4.22l-1.86.08c3.92,7.23,12.73,11.91,16.76,12h.06c1.55,0,5.71-2,10.27-6.36,2.69-2.6,8.93-9.51,8.93-17.45,0-12.22-15.88-23.8-19.33-23.8s-13.32,5.53-17.15,13.16l1.54,0a2.1,2.1,0,0,1,2.08,2.13,2.12,2.12,0,0,1-2.13,2.08l-4.6-.06a2.1,2.1,0,0,1-2-2.69c3.15-10.89,16.51-18.86,22.25-18.86,3.19,0,9.08,3.59,14,8.54,3.57,3.59,9.55,10.9,9.55,19.48,0,6.73-3.72,14.19-10.21,20.47C569.11,543.35,564,546.29,560.65,546.29Z"/><path class="cls-1" d="M459,606.05c-3.31,0-8.47-2.94-13.23-7.55-6.49-6.29-10.21-13.75-10.21-20.47,0-8.59,6-15.9,9.55-19.49,4.92-4.95,10.8-8.54,14-8.54,5.75,0,19.1,8,22.26,18.86a2.12,2.12,0,0,1-.33,1.84,2.08,2.08,0,0,1-1.67.85l-4.59.06a2.11,2.11,0,1,1-.06-4.21l1.55,0c-3.83-7.63-13.61-13.16-17.16-13.16S439.78,565.8,439.78,578c0,7.94,6.24,14.84,8.92,17.44,4.57,4.41,8.72,6.36,10.28,6.36H459c4-.13,12.84-4.81,16.75-12l-1.85-.08a2.11,2.11,0,1,1,.2-4.22l4.91.24a2.11,2.11,0,0,1,1.64.91,2.14,2.14,0,0,1,.26,1.87c-3.47,10.23-15.4,17.33-21.78,17.54Z"/><path class="cls-1" d="M477,606.05h-.17c-6.38-.21-18.32-7.31-21.78-17.54a2.11,2.11,0,0,1,1.9-2.78l4.91-.24a2.11,2.11,0,1,1,.2,4.22l-1.86.08c3.92,7.23,12.74,11.91,16.76,12H477c1.55,0,5.71-2,10.27-6.36,2.69-2.6,8.93-9.5,8.93-17.44,0-12.23-15.87-23.81-19.33-23.81s-13.32,5.53-17.15,13.16l1.55,0a2.11,2.11,0,0,1,0,4.21h0l-4.59-.06a2.1,2.1,0,0,1-2-2.69C457.78,558,471.13,550,476.87,550c3.2,0,9.08,3.59,14,8.54,3.56,3.59,9.55,10.9,9.55,19.49,0,6.72-3.72,14.18-10.21,20.47C485.44,603.11,480.28,606.05,477,606.05Z"/><path class="cls-1" d="M513.61,488.14a4.75,4.75,0,1,1-4.75-4.75A4.75,4.75,0,0,1,513.61,488.14Z"/><path class="cls-1" d="M597.27,488.14a4.75,4.75,0,1,1-4.74-4.75A4.74,4.74,0,0,1,597.27,488.14Z"/><path class="cls-1" d="M429.94,547.9a4.75,4.75,0,1,1-4.74-4.75A4.74,4.74,0,0,1,429.94,547.9Z"/><path class="cls-1" d="M513.61,547.9a4.75,4.75,0,1,1-4.75-4.75A4.75,4.75,0,0,1,513.61,547.9Z"/><path class="cls-1" d="M542.66,665.81c-3.3,0-8.46-2.94-13.22-7.55-6.49-6.28-10.21-13.75-10.21-20.47,0-8.59,6-15.89,9.55-19.48,4.91-4.95,10.8-8.54,14-8.54,5.75,0,19.1,8,22.26,18.85a2.13,2.13,0,0,1-2,2.7l-4.6.06a2.12,2.12,0,0,1-2.13-2.09,2.1,2.1,0,0,1,2.08-2.13l1.54,0c-3.83-7.63-13.6-13.16-17.15-13.16s-19.33,11.58-19.33,23.81c0,7.94,6.25,14.84,8.93,17.44,4.56,4.42,8.72,6.37,10.28,6.37h.05c4-.13,12.84-4.81,16.76-12l-1.86-.09a2.11,2.11,0,0,1,.2-4.21l4.91.23a2.1,2.1,0,0,1,1.9,2.78c-3.46,10.23-15.4,17.33-21.77,17.54Z"/><path class="cls-1" d="M560.65,665.81h-.18c-6.37-.21-18.31-7.31-21.77-17.54a2.1,2.1,0,0,1,1.9-2.78l4.91-.23a2.11,2.11,0,0,1,.2,4.21l-1.86.09c3.92,7.22,12.73,11.9,16.76,12h.06c1.55,0,5.71-2,10.27-6.37,2.69-2.6,8.93-9.5,8.93-17.44,0-12.23-15.88-23.81-19.33-23.81s-13.32,5.53-17.15,13.16l1.54,0a2.1,2.1,0,0,1,2.08,2.13,2.14,2.14,0,0,1-2.13,2.09l-4.6-.06a2.1,2.1,0,0,1-1.66-.86,2.05,2.05,0,0,1-.33-1.84c3.15-10.89,16.51-18.85,22.25-18.85,3.19,0,9.08,3.59,14,8.54,3.57,3.59,9.55,10.89,9.55,19.48,0,6.72-3.72,14.19-10.21,20.47C569.11,662.87,564,665.81,560.65,665.81Z"/><path class="cls-1" d="M459,725.57c-3.31,0-8.47-2.94-13.23-7.55-6.49-6.28-10.21-13.74-10.21-20.47,0-8.59,6-15.89,9.55-19.48,4.92-5,10.8-8.54,14-8.54,5.75,0,19.1,8,22.26,18.85a2.11,2.11,0,0,1-2,2.7l-4.59.06a2.11,2.11,0,0,1-.06-4.22l1.55,0c-3.83-7.63-13.61-13.16-17.16-13.16s-19.32,11.58-19.32,23.81c0,7.94,6.24,14.84,8.92,17.44,4.57,4.42,8.72,6.37,10.28,6.37H459c4-.13,12.84-4.82,16.75-12l-1.85-.09a2.11,2.11,0,1,1,.2-4.21l4.91.23a2.09,2.09,0,0,1,1.64.92A2.11,2.11,0,0,1,481,708c-3.47,10.23-15.4,17.33-21.78,17.54Z"/><path class="cls-1" d="M477,725.57h-.17c-6.38-.21-18.32-7.31-21.78-17.54a2.12,2.12,0,0,1,1.9-2.78l4.91-.23a2.11,2.11,0,1,1,.2,4.21l-1.86.09c3.92,7.22,12.74,11.91,16.76,12H477c1.55,0,5.71-2,10.27-6.37,2.69-2.6,8.93-9.5,8.93-17.44,0-12.23-15.87-23.81-19.33-23.81s-13.32,5.53-17.15,13.16l1.55,0a2.11,2.11,0,0,1,0,4.22h0l-4.59-.06a2.14,2.14,0,0,1-1.67-.85,2.11,2.11,0,0,1-.33-1.85c3.16-10.89,16.51-18.85,22.25-18.85,3.2,0,9.08,3.59,14,8.54,3.56,3.59,9.55,10.89,9.55,19.48,0,6.73-3.72,14.19-10.21,20.47C485.44,722.63,480.28,725.57,477,725.57Z"/><path class="cls-1" d="M513.61,607.66a4.75,4.75,0,1,1-4.75-4.75A4.75,4.75,0,0,1,513.61,607.66Z"/><path class="cls-1" d="M597.27,607.66a4.75,4.75,0,1,1-4.74-4.75A4.74,4.74,0,0,1,597.27,607.66Z"/><path class="cls-1" d="M429.94,667.42a4.75,4.75,0,1,1-4.74-4.74A4.74,4.74,0,0,1,429.94,667.42Z"/><path class="cls-1" d="M513.61,667.42a4.75,4.75,0,1,1-4.75-4.74A4.75,4.75,0,0,1,513.61,667.42Z"/><path class="cls-1" d="M542.66,785.33c-3.3,0-8.46-2.94-13.22-7.55C523,771.5,519.23,764,519.23,757.31c0-8.58,6-15.89,9.55-19.48,4.91-5,10.8-8.54,14-8.54,5.75,0,19.1,8,22.26,18.85a2.12,2.12,0,0,1-2,2.7l-4.6.06a2.11,2.11,0,0,1,0-4.22l1.54,0c-3.83-7.63-13.6-13.16-17.15-13.16s-19.33,11.59-19.33,23.81c0,7.94,6.25,14.84,8.93,17.44,4.56,4.42,8.72,6.37,10.28,6.37h.05c4-.13,12.84-4.82,16.76-12L557.6,769a2.11,2.11,0,0,1,.2-4.21l4.91.23a2.1,2.1,0,0,1,1.9,2.78c-3.46,10.24-15.4,17.34-21.77,17.54Z"/><path class="cls-1" d="M560.65,785.33h-.18c-6.37-.2-18.31-7.3-21.77-17.54a2.1,2.1,0,0,1,1.9-2.78l4.91-.23a2.11,2.11,0,0,1,.2,4.21l-1.86.09c3.92,7.22,12.73,11.91,16.76,12h.06c1.55,0,5.71-2,10.27-6.37,2.69-2.6,8.93-9.5,8.93-17.44,0-12.22-15.88-23.81-19.33-23.81s-13.32,5.53-17.15,13.16l1.54,0a2.1,2.1,0,0,1,2.08,2.14,2.13,2.13,0,0,1-2.13,2.08l-4.6-.06a2.11,2.11,0,0,1-2-2.7c3.15-10.89,16.51-18.85,22.25-18.85,3.19,0,9.08,3.59,14,8.54,3.57,3.59,9.55,10.9,9.55,19.48,0,6.73-3.72,14.19-10.21,20.47C569.11,782.39,564,785.33,560.65,785.33Z"/><path class="cls-1" d="M459,845.1c-3.31,0-8.47-3-13.23-7.56-6.49-6.28-10.21-13.74-10.21-20.47,0-8.58,6-15.89,9.55-19.48,4.92-5,10.8-8.54,14-8.54,5.75,0,19.1,8,22.26,18.86a2.1,2.1,0,0,1-2,2.69l-4.59.06h0a2.11,2.11,0,0,1,0-4.22l1.55,0c-3.83-7.63-13.61-13.15-17.16-13.15s-19.32,11.58-19.32,23.8c0,7.94,6.24,14.84,8.92,17.44,4.57,4.42,8.72,6.37,10.28,6.37H459c4-.13,12.84-4.82,16.75-12l-1.85-.09a2.11,2.11,0,1,1,.2-4.21l4.91.23a2.12,2.12,0,0,1,1.9,2.79c-3.47,10.23-15.4,17.33-21.78,17.53Z"/><path class="cls-1" d="M477,845.1h-.17c-6.38-.2-18.32-7.3-21.78-17.53a2.12,2.12,0,0,1,1.9-2.79l4.91-.23a2.11,2.11,0,1,1,.2,4.21l-1.86.09c3.92,7.22,12.74,11.91,16.76,12H477c1.55,0,5.71-2,10.27-6.37,2.69-2.6,8.93-9.5,8.93-17.44,0-12.22-15.87-23.8-19.33-23.8s-13.32,5.53-17.15,13.15l1.55,0a2.11,2.11,0,0,1,0,4.22h0l-4.59-.06a2.1,2.1,0,0,1-2-2.69c3.16-10.9,16.51-18.86,22.25-18.86,3.2,0,9.08,3.59,14,8.54,3.56,3.59,9.55,10.9,9.55,19.48,0,6.73-3.72,14.19-10.21,20.47C485.44,842.15,480.28,845.1,477,845.1Z"/><path class="cls-1" d="M513.61,727.18a4.75,4.75,0,1,1-4.75-4.74A4.75,4.75,0,0,1,513.61,727.18Z"/><path class="cls-1" d="M597.27,727.18a4.75,4.75,0,1,1-4.74-4.74A4.75,4.75,0,0,1,597.27,727.18Z"/><path class="cls-1" d="M429.94,786.94a4.75,4.75,0,1,1-4.74-4.74A4.75,4.75,0,0,1,429.94,786.94Z"/><path class="cls-1" d="M513.61,786.94a4.75,4.75,0,1,1-4.75-4.74A4.75,4.75,0,0,1,513.61,786.94Z"/><path class="cls-1" d="M710,68.2c-3.31,0-8.47-3-13.23-7.56-6.49-6.28-10.21-13.74-10.21-20.47,0-8.58,6-15.89,9.55-19.48,4.91-5,10.8-8.54,14-8.54,5.75,0,19.1,8,22.26,18.86a2.1,2.1,0,0,1-2,2.69l-4.6.06h0a2.11,2.11,0,0,1,0-4.22l1.55,0c-3.84-7.63-13.61-13.15-17.16-13.15S690.78,28,690.78,40.17c0,7.94,6.24,14.84,8.92,17.44C704.26,62,708.42,64,710,64h0c4-.13,12.85-4.82,16.76-12l-1.85-.09a2.11,2.11,0,0,1,.19-4.21l4.92.23a2.1,2.1,0,0,1,1.89,2.78C728.48,60.89,716.55,68,710.17,68.19Z"/><path class="cls-1" d="M728,68.2h-.17c-6.38-.2-18.32-7.3-21.78-17.54a2.12,2.12,0,0,1,1.9-2.78l4.91-.23a2.11,2.11,0,1,1,.2,4.21l-1.86.09c3.92,7.22,12.74,11.91,16.76,12H728c1.55,0,5.71-1.95,10.27-6.37,2.69-2.6,8.93-9.5,8.93-17.44,0-12.22-15.87-23.8-19.33-23.8s-13.32,5.52-17.15,13.15l1.54,0a2.11,2.11,0,0,1,0,4.22h0l-4.59-.06a2.1,2.1,0,0,1-2-2.69c3.16-10.9,16.51-18.86,22.25-18.86,3.2,0,9.08,3.59,14,8.54,3.56,3.59,9.55,10.9,9.55,19.48,0,6.73-3.73,14.19-10.21,20.47C736.44,65.25,731.28,68.2,728,68.2Z"/><path class="cls-1" d="M626.33,128c-3.3,0-8.46-2.95-13.23-7.56-6.49-6.28-10.21-13.74-10.21-20.47,0-8.58,6-15.89,9.55-19.48,4.92-5,10.8-8.54,14-8.54,5.74,0,19.09,8,22.25,18.86a2.1,2.1,0,0,1-2,2.69l-4.59.06h0a2.11,2.11,0,0,1,0-4.22l1.55,0c-3.83-7.63-13.61-13.15-17.15-13.15s-19.33,11.58-19.33,23.8c0,7.94,6.24,14.84,8.93,17.44,4.56,4.42,8.72,6.37,10.27,6.37h.06c4-.13,12.84-4.81,16.76-12l-1.86-.09a2.11,2.11,0,1,1,.2-4.21l4.91.23a2.15,2.15,0,0,1,1.64.92,2.11,2.11,0,0,1,.26,1.87c-3.46,10.23-15.4,17.33-21.78,17.53Z"/><path class="cls-1" d="M644.31,128h-.17c-6.38-.2-18.31-7.3-21.78-17.53a2.12,2.12,0,0,1,1.9-2.79l4.91-.23a2.11,2.11,0,1,1,.2,4.21l-1.85.09c3.91,7.23,12.73,11.91,16.76,12h.05c1.56,0,5.71-1.95,10.28-6.37,2.68-2.6,8.92-9.5,8.92-17.44,0-12.22-15.87-23.8-19.32-23.8s-13.32,5.53-17.16,13.15l1.55,0a2.11,2.11,0,0,1,0,4.22h0L624,93.46a2.1,2.1,0,0,1-2-2.69c3.16-10.9,16.51-18.86,22.26-18.86,3.19,0,9.07,3.59,14,8.54,3.57,3.59,9.55,10.9,9.55,19.48,0,6.73-3.72,14.19-10.21,20.47C652.78,125,647.62,128,644.31,128Z"/><path class="cls-1" d="M680.94,10A4.75,4.75,0,1,1,676.2,5.3,4.75,4.75,0,0,1,680.94,10Z"/><path class="cls-1" d="M764.61,10a4.75,4.75,0,1,1-4.75-4.74A4.75,4.75,0,0,1,764.61,10Z"/><path class="cls-1" d="M597.27,69.8a4.75,4.75,0,1,1-4.74-4.74A4.74,4.74,0,0,1,597.27,69.8Z"/><path class="cls-1" d="M680.94,69.8a4.75,4.75,0,1,1-4.75-4.74A4.75,4.75,0,0,1,680.94,69.8Z"/><path class="cls-1" d="M710,187.72c-3.31,0-8.47-2.94-13.23-7.56-6.49-6.28-10.21-13.74-10.21-20.46,0-8.59,6-15.9,9.55-19.49,4.91-5,10.8-8.54,14-8.54,5.75,0,19.1,8,22.26,18.86a2.12,2.12,0,0,1-.33,1.84,2.09,2.09,0,0,1-1.67.85l-4.6.06h0a2.11,2.11,0,0,1,0-4.21l1.55,0c-3.84-7.63-13.61-13.16-17.16-13.16s-19.32,11.58-19.32,23.81c0,7.94,6.24,14.84,8.92,17.44,4.56,4.41,8.72,6.36,10.28,6.36h0c4-.13,12.85-4.81,16.76-12l-1.85-.08a2.11,2.11,0,0,1,.19-4.22l4.92.24a2.09,2.09,0,0,1,1.89,2.78c-3.46,10.23-15.39,17.33-21.77,17.54Z"/><path class="cls-1" d="M728,187.72h-.17c-6.38-.21-18.32-7.31-21.78-17.54a2.11,2.11,0,0,1,1.9-2.78l4.91-.24a2.11,2.11,0,0,1,.2,4.22l-1.86.08c3.92,7.23,12.74,11.91,16.76,12H728c1.55,0,5.71-1.95,10.27-6.36,2.69-2.6,8.93-9.5,8.93-17.44,0-12.23-15.87-23.81-19.33-23.81s-13.32,5.53-17.15,13.16l1.54,0a2.11,2.11,0,0,1,0,4.21h0l-4.59-.06a2.1,2.1,0,0,1-2-2.69c3.16-10.89,16.51-18.86,22.25-18.86,3.2,0,9.08,3.59,14,8.54,3.56,3.59,9.55,10.9,9.55,19.49,0,6.72-3.73,14.18-10.21,20.46C736.44,184.78,731.28,187.72,728,187.72Z"/><path class="cls-1" d="M626.33,247.48c-3.3,0-8.46-2.94-13.23-7.55-6.49-6.29-10.21-13.75-10.21-20.47,0-8.59,6-15.9,9.55-19.49,4.92-4.94,10.8-8.54,14-8.54,5.74,0,19.09,8,22.25,18.86a2.09,2.09,0,0,1-.33,1.84,2.12,2.12,0,0,1-1.67.86l-4.59,0a2.11,2.11,0,1,1-.06-4.21l1.55,0c-3.83-7.63-13.61-13.16-17.15-13.16s-19.33,11.58-19.33,23.81c0,7.94,6.24,14.84,8.93,17.44,4.56,4.41,8.72,6.36,10.27,6.36h.06c4-.13,12.84-4.81,16.76-12l-1.86-.08a2.11,2.11,0,1,1,.2-4.21l4.91.23a2.12,2.12,0,0,1,1.9,2.78c-3.46,10.23-15.4,17.33-21.78,17.54Z"/><path class="cls-1" d="M644.31,247.48h-.17c-6.38-.21-18.31-7.31-21.78-17.54a2.11,2.11,0,0,1,.26-1.86,2.09,2.09,0,0,1,1.64-.92l4.91-.23a2.11,2.11,0,1,1,.2,4.21l-1.85.08c3.91,7.23,12.73,11.91,16.76,12h.05c1.56,0,5.71-1.95,10.28-6.36,2.68-2.6,8.92-9.5,8.92-17.44,0-12.23-15.87-23.81-19.32-23.81s-13.32,5.53-17.16,13.16l1.55,0a2.11,2.11,0,0,1,0,4.21h0L624,213a2.12,2.12,0,0,1-2-2.7c3.16-10.89,16.51-18.86,22.26-18.86,3.19,0,9.07,3.6,14,8.54,3.57,3.59,9.55,10.9,9.55,19.49,0,6.72-3.72,14.18-10.21,20.47C652.78,244.54,647.62,247.48,644.31,247.48Z"/><path class="cls-1" d="M680.94,129.57a4.75,4.75,0,1,1-4.74-4.75A4.74,4.74,0,0,1,680.94,129.57Z"/><path class="cls-1" d="M764.61,129.57a4.75,4.75,0,1,1-4.75-4.75A4.75,4.75,0,0,1,764.61,129.57Z"/><path class="cls-1" d="M597.27,189.33a4.75,4.75,0,1,1-4.74-4.75A4.74,4.74,0,0,1,597.27,189.33Z"/><path class="cls-1" d="M680.94,189.33a4.75,4.75,0,1,1-4.75-4.75A4.75,4.75,0,0,1,680.94,189.33Z"/><path class="cls-1" d="M710,307.24c-3.31,0-8.47-2.94-13.23-7.55-6.49-6.28-10.21-13.75-10.21-20.47,0-8.59,6-15.89,9.55-19.48,4.91-5,10.8-8.54,14-8.54,5.75,0,19.1,8,22.26,18.85a2.12,2.12,0,0,1-2,2.7l-4.6.06h0a2.11,2.11,0,0,1,0-4.22l1.55,0c-3.84-7.63-13.61-13.16-17.16-13.16S690.78,267,690.78,279.22c0,7.94,6.24,14.84,8.92,17.44,4.56,4.42,8.72,6.37,10.28,6.37h0c4-.14,12.85-4.82,16.76-12l-1.85-.09a2.11,2.11,0,1,1,.19-4.21l4.92.23a2.1,2.1,0,0,1,1.89,2.78c-3.46,10.23-15.39,17.33-21.77,17.54Z"/><path class="cls-1" d="M728,307.24h-.17c-6.38-.21-18.32-7.31-21.78-17.54a2.12,2.12,0,0,1,1.9-2.78l4.91-.23a2.11,2.11,0,1,1,.2,4.21l-1.86.09c3.92,7.22,12.74,11.9,16.76,12H728c1.55,0,5.71-1.95,10.27-6.37,2.69-2.6,8.93-9.5,8.93-17.44,0-12.23-15.87-23.81-19.33-23.81s-13.32,5.53-17.15,13.16l1.54,0a2.11,2.11,0,0,1,0,4.22h0l-4.59-.06a2.12,2.12,0,0,1-1.67-.86,2.08,2.08,0,0,1-.33-1.84c3.16-10.89,16.51-18.85,22.25-18.85,3.2,0,9.08,3.59,14,8.54,3.56,3.59,9.55,10.89,9.55,19.48,0,6.72-3.73,14.19-10.21,20.47C736.44,304.3,731.28,307.24,728,307.24Z"/><path class="cls-1" d="M626.33,367c-3.3,0-8.46-2.94-13.23-7.55-6.49-6.28-10.21-13.74-10.21-20.47,0-8.59,6-15.89,9.55-19.48,4.92-4.95,10.8-8.54,14-8.54,5.74,0,19.09,8,22.25,18.85a2.1,2.1,0,0,1-.33,1.85,2.14,2.14,0,0,1-1.67.85l-4.59.06a2.11,2.11,0,1,1-.06-4.22l1.55,0c-3.83-7.63-13.61-13.16-17.15-13.16S607.11,326.75,607.11,339c0,7.94,6.24,14.84,8.93,17.44,4.56,4.42,8.72,6.37,10.27,6.37h.06c4-.13,12.84-4.82,16.76-12l-1.86-.09a2.11,2.11,0,1,1,.2-4.21l4.91.23a2.12,2.12,0,0,1,1.9,2.78c-3.46,10.23-15.4,17.34-21.78,17.54Z"/><path class="cls-1" d="M644.31,367h-.17c-6.38-.2-18.31-7.31-21.78-17.54a2.12,2.12,0,0,1,.26-1.86,2.09,2.09,0,0,1,1.64-.92l4.91-.23a2.11,2.11,0,1,1,.2,4.21l-1.85.09c3.91,7.22,12.73,11.91,16.76,12h.05c1.56,0,5.71-2,10.28-6.37,2.68-2.6,8.92-9.5,8.92-17.44,0-12.23-15.87-23.81-19.32-23.81s-13.32,5.53-17.16,13.16l1.55,0a2.11,2.11,0,0,1,0,4.22h0l-4.59-.06a2.11,2.11,0,0,1-2-2.7c3.16-10.89,16.51-18.85,22.26-18.85,3.19,0,9.07,3.59,14,8.54,3.57,3.59,9.55,10.89,9.55,19.48,0,6.73-3.72,14.19-10.21,20.47C652.78,364.06,647.62,367,644.31,367Z"/><path class="cls-1" d="M680.94,249.09a4.75,4.75,0,1,1-4.74-4.75A4.74,4.74,0,0,1,680.94,249.09Z"/><path class="cls-1" d="M764.61,249.09a4.75,4.75,0,1,1-4.75-4.75A4.75,4.75,0,0,1,764.61,249.09Z"/><path class="cls-1" d="M597.27,308.85a4.75,4.75,0,1,1-4.74-4.74A4.75,4.75,0,0,1,597.27,308.85Z"/><path class="cls-1" d="M680.94,308.85a4.75,4.75,0,1,1-4.75-4.74A4.75,4.75,0,0,1,680.94,308.85Z"/><path class="cls-1" d="M710,426.76c-3.31,0-8.47-2.94-13.23-7.55-6.49-6.28-10.21-13.74-10.21-20.47,0-8.58,6-15.89,9.55-19.48,4.91-4.95,10.8-8.54,14-8.54,5.75,0,19.1,8,22.26,18.85a2.11,2.11,0,0,1-2,2.7l-4.6.06h0a2.11,2.11,0,0,1,0-4.22l1.55,0c-3.84-7.63-13.61-13.15-17.16-13.15s-19.32,11.58-19.32,23.8c0,7.94,6.24,14.84,8.92,17.44,4.62,4.47,8.83,6.38,10.33,6.37,4-.13,12.85-4.82,16.76-12l-1.85-.09a2.11,2.11,0,1,1,.19-4.21l4.92.23a2.1,2.1,0,0,1,1.89,2.78c-3.46,10.24-15.39,17.34-21.77,17.54Z"/><path class="cls-1" d="M728,426.76h-.17c-6.38-.2-18.32-7.3-21.78-17.54a2.12,2.12,0,0,1,1.9-2.78l4.91-.23a2.11,2.11,0,1,1,.2,4.21l-1.86.09c3.92,7.22,12.74,11.91,16.76,12,1.51,0,5.71-1.9,10.33-6.37,2.69-2.6,8.93-9.5,8.93-17.44,0-12.22-15.87-23.8-19.33-23.8s-13.32,5.52-17.15,13.15l1.54,0a2.11,2.11,0,0,1,0,4.22h0l-4.59-.06a2.11,2.11,0,0,1-2-2.7c3.16-10.89,16.51-18.85,22.25-18.85,3.2,0,9.08,3.59,14,8.54,3.56,3.59,9.55,10.9,9.55,19.48,0,6.73-3.73,14.19-10.21,20.47C736.44,423.82,731.28,426.76,728,426.76Z"/><path class="cls-1" d="M626.33,486.53c-3.3,0-8.46-2.95-13.23-7.56-6.49-6.28-10.21-13.74-10.21-20.47,0-8.58,6-15.89,9.55-19.48,4.92-4.95,10.8-8.54,14-8.54,5.74,0,19.09,8,22.25,18.86a2.1,2.1,0,0,1-2,2.69l-4.59.06a2.11,2.11,0,1,1-.06-4.22l1.55,0c-3.83-7.63-13.61-13.15-17.15-13.15s-19.33,11.58-19.33,23.8c0,7.94,6.24,14.84,8.93,17.44,4.56,4.42,8.72,6.37,10.27,6.37h.06c4-.13,12.84-4.82,16.76-12l-1.86-.09a2.11,2.11,0,1,1,.2-4.21l4.91.23a2.12,2.12,0,0,1,1.9,2.79c-3.46,10.23-15.4,17.33-21.78,17.53Z"/><path class="cls-1" d="M644.31,486.53h-.17c-6.38-.2-18.31-7.3-21.78-17.53a2.12,2.12,0,0,1,1.9-2.79l4.91-.23a2.11,2.11,0,1,1,.2,4.21l-1.85.09c3.91,7.22,12.73,11.91,16.76,12h.05c1.56,0,5.71-1.95,10.28-6.37,2.68-2.6,8.92-9.5,8.92-17.44,0-12.22-15.87-23.8-19.32-23.8s-13.32,5.53-17.16,13.15l1.55,0a2.11,2.11,0,0,1,0,4.22h0L624,452a2.1,2.1,0,0,1-2-2.69c3.16-10.9,16.51-18.86,22.26-18.86,3.19,0,9.07,3.59,14,8.54,3.57,3.59,9.55,10.9,9.55,19.48,0,6.73-3.72,14.19-10.21,20.47C652.78,483.58,647.62,486.53,644.31,486.53Z"/><path class="cls-1" d="M680.94,368.61a4.75,4.75,0,1,1-4.74-4.74A4.75,4.75,0,0,1,680.94,368.61Z"/><path class="cls-1" d="M764.61,368.61a4.75,4.75,0,1,1-4.75-4.74A4.75,4.75,0,0,1,764.61,368.61Z"/><path class="cls-1" d="M597.27,428.37a4.75,4.75,0,1,1-4.74-4.74A4.75,4.75,0,0,1,597.27,428.37Z"/><path class="cls-1" d="M680.94,428.37a4.75,4.75,0,1,1-4.75-4.74A4.75,4.75,0,0,1,680.94,428.37Z"/><path class="cls-1" d="M710,546.29c-3.31,0-8.47-2.94-13.23-7.56-6.49-6.28-10.21-13.74-10.21-20.47,0-8.58,6-15.89,9.55-19.48,4.91-4.95,10.8-8.54,14-8.54,5.75,0,19.1,8,22.26,18.86a2.12,2.12,0,0,1-.33,1.84,2.09,2.09,0,0,1-1.67.85l-4.6.06h0a2.11,2.11,0,0,1,0-4.21l1.55,0c-3.84-7.63-13.61-13.16-17.16-13.16s-19.32,11.58-19.32,23.8c0,7.94,6.24,14.85,8.92,17.45,4.56,4.41,8.72,6.36,10.28,6.36h0c4-.13,12.85-4.81,16.76-12l-1.85-.08a2.11,2.11,0,0,1,.19-4.22l4.92.24a2.09,2.09,0,0,1,1.89,2.78c-3.46,10.23-15.39,17.33-21.77,17.54Z"/><path class="cls-1" d="M728,546.29h-.17c-6.38-.21-18.32-7.31-21.78-17.54a2.11,2.11,0,0,1,1.9-2.78l4.91-.24A2.11,2.11,0,0,1,713,530l-1.86.08c3.92,7.23,12.74,11.91,16.76,12H728c1.55,0,5.71-2,10.27-6.36,2.69-2.6,8.93-9.51,8.93-17.45,0-12.22-15.87-23.8-19.33-23.8s-13.32,5.53-17.15,13.16l1.54,0a2.11,2.11,0,0,1,0,4.21h0l-4.59-.06a2.1,2.1,0,0,1-2-2.69c3.16-10.89,16.51-18.86,22.25-18.86,3.2,0,9.08,3.59,14,8.54,3.56,3.59,9.55,10.9,9.55,19.48,0,6.73-3.73,14.19-10.21,20.47C736.44,543.35,731.28,546.29,728,546.29Z"/><path class="cls-1" d="M626.33,606.05c-3.3,0-8.46-2.94-13.23-7.55-6.49-6.29-10.21-13.75-10.21-20.47,0-8.59,6-15.9,9.55-19.49,4.92-4.95,10.8-8.54,14-8.54,5.74,0,19.09,8,22.25,18.86a2.1,2.1,0,0,1-2,2.69l-4.59.06a2.08,2.08,0,0,1-2.14-2.08A2.11,2.11,0,0,1,642,567.4l1.55,0c-3.83-7.63-13.61-13.16-17.15-13.16S607.11,565.8,607.11,578c0,7.94,6.24,14.84,8.93,17.44,4.56,4.41,8.72,6.36,10.27,6.36h.06c4-.13,12.84-4.81,16.76-12l-1.86-.08a2.11,2.11,0,0,1,.2-4.22l4.91.24a2.11,2.11,0,0,1,1.9,2.78c-3.46,10.23-15.4,17.33-21.78,17.54Z"/><path class="cls-1" d="M644.31,606.05h-.17c-6.38-.21-18.31-7.31-21.78-17.54a2.14,2.14,0,0,1,.26-1.87,2.11,2.11,0,0,1,1.64-.91l4.91-.24a2.11,2.11,0,1,1,.2,4.22l-1.85.08c3.91,7.23,12.73,11.91,16.76,12h.05c1.56,0,5.71-2,10.28-6.36,2.68-2.6,8.92-9.5,8.92-17.44,0-12.23-15.87-23.81-19.32-23.81s-13.32,5.53-17.16,13.16l1.55,0a2.11,2.11,0,0,1,0,4.21h0l-4.59-.06a2.08,2.08,0,0,1-1.67-.85,2.12,2.12,0,0,1-.33-1.84C625.11,558,638.46,550,644.21,550c3.19,0,9.07,3.59,14,8.54,3.57,3.59,9.55,10.9,9.55,19.49,0,6.72-3.72,14.18-10.21,20.47C652.78,603.11,647.62,606.05,644.31,606.05Z"/><path class="cls-1" d="M680.94,488.14a4.75,4.75,0,1,1-4.74-4.75A4.74,4.74,0,0,1,680.94,488.14Z"/><path class="cls-1" d="M764.61,488.14a4.75,4.75,0,1,1-4.75-4.75A4.75,4.75,0,0,1,764.61,488.14Z"/><path class="cls-1" d="M597.27,547.9a4.75,4.75,0,1,1-4.74-4.75A4.74,4.74,0,0,1,597.27,547.9Z"/><path class="cls-1" d="M680.94,547.9a4.75,4.75,0,1,1-4.75-4.75A4.75,4.75,0,0,1,680.94,547.9Z"/><path class="cls-1" d="M710,665.81c-3.31,0-8.47-2.94-13.23-7.55-6.49-6.28-10.21-13.75-10.21-20.47,0-8.59,6-15.89,9.55-19.48,4.91-4.95,10.8-8.54,14-8.54,5.75,0,19.1,8,22.26,18.85a2.12,2.12,0,0,1-2,2.7l-4.6.06h0a2.11,2.11,0,0,1,0-4.22l1.55,0C723.42,619.51,713.65,614,710.1,614s-19.32,11.58-19.32,23.81c0,7.94,6.24,14.84,8.92,17.44,4.56,4.42,8.72,6.37,10.28,6.37h0c4-.13,12.85-4.81,16.76-12l-1.85-.09a2.11,2.11,0,1,1,.19-4.21l4.92.23a2.1,2.1,0,0,1,1.89,2.78c-3.46,10.23-15.39,17.33-21.77,17.54Z"/><path class="cls-1" d="M728,665.81h-.17c-6.38-.21-18.32-7.31-21.78-17.54a2.12,2.12,0,0,1,1.9-2.78l4.91-.23a2.11,2.11,0,1,1,.2,4.21l-1.86.09c3.92,7.22,12.74,11.9,16.76,12H728c1.55,0,5.71-2,10.27-6.37,2.69-2.6,8.93-9.5,8.93-17.44,0-12.23-15.87-23.81-19.33-23.81s-13.32,5.53-17.15,13.16l1.54,0a2.11,2.11,0,0,1,0,4.22h0l-4.59-.06a2.12,2.12,0,0,1-1.67-.86,2.08,2.08,0,0,1-.33-1.84c3.16-10.89,16.51-18.85,22.25-18.85,3.2,0,9.08,3.59,14,8.54,3.56,3.59,9.55,10.89,9.55,19.48,0,6.72-3.73,14.19-10.21,20.47C736.44,662.87,731.28,665.81,728,665.81Z"/><path class="cls-1" d="M626.33,725.57c-3.3,0-8.46-2.94-13.23-7.55-6.49-6.28-10.21-13.74-10.21-20.47,0-8.59,6-15.89,9.55-19.48,4.92-5,10.8-8.54,14-8.54,5.74,0,19.09,8,22.25,18.85a2.1,2.1,0,0,1-.33,1.85,2.14,2.14,0,0,1-1.67.85l-4.59.06a2.09,2.09,0,0,1-2.14-2.09,2.11,2.11,0,0,1,2.08-2.13l1.55,0c-3.83-7.63-13.61-13.16-17.15-13.16s-19.33,11.58-19.33,23.81c0,7.94,6.24,14.84,8.93,17.44,4.56,4.42,8.72,6.37,10.27,6.37h.06c4-.13,12.84-4.82,16.76-12l-1.86-.09a2.11,2.11,0,1,1,.2-4.21l4.91.23a2.12,2.12,0,0,1,1.9,2.78c-3.46,10.23-15.4,17.33-21.78,17.54Z"/><path class="cls-1" d="M644.31,725.57h-.17c-6.38-.21-18.31-7.31-21.78-17.54a2.11,2.11,0,0,1,.26-1.86,2.09,2.09,0,0,1,1.64-.92l4.91-.23a2.11,2.11,0,1,1,.2,4.21l-1.85.09c3.91,7.22,12.73,11.91,16.76,12h.05c1.56,0,5.71-2,10.28-6.37,2.68-2.6,8.92-9.5,8.92-17.44,0-12.23-15.87-23.81-19.32-23.81s-13.32,5.53-17.16,13.16l1.55,0a2.11,2.11,0,0,1,0,4.22h0l-4.59-.06a2.11,2.11,0,0,1-2-2.7c3.16-10.89,16.51-18.85,22.26-18.85,3.19,0,9.07,3.59,14,8.54,3.57,3.59,9.55,10.89,9.55,19.48,0,6.73-3.72,14.19-10.21,20.47C652.78,722.63,647.62,725.57,644.31,725.57Z"/><path class="cls-1" d="M680.94,607.66a4.75,4.75,0,1,1-4.74-4.75A4.74,4.74,0,0,1,680.94,607.66Z"/><path class="cls-1" d="M764.61,607.66a4.75,4.75,0,1,1-4.75-4.75A4.75,4.75,0,0,1,764.61,607.66Z"/><path class="cls-1" d="M597.27,667.42a4.75,4.75,0,1,1-4.74-4.74A4.74,4.74,0,0,1,597.27,667.42Z"/><path class="cls-1" d="M680.94,667.42a4.75,4.75,0,1,1-4.75-4.74A4.75,4.75,0,0,1,680.94,667.42Z"/><path class="cls-1" d="M710,785.33c-3.31,0-8.47-2.94-13.23-7.55-6.49-6.28-10.21-13.74-10.21-20.47,0-8.58,6-15.89,9.55-19.48,4.91-5,10.8-8.54,14-8.54,5.75,0,19.1,8,22.26,18.85a2.11,2.11,0,0,1-2,2.7l-4.6.06h0a2.11,2.11,0,0,1,0-4.22l1.55,0c-3.84-7.63-13.61-13.16-17.16-13.16s-19.32,11.59-19.32,23.81c0,7.94,6.24,14.84,8.92,17.44,4.56,4.42,8.72,6.37,10.28,6.37h0c4-.13,12.85-4.82,16.76-12l-1.85-.09a2.11,2.11,0,1,1,.19-4.21l4.92.23a2.1,2.1,0,0,1,1.89,2.78c-3.46,10.24-15.39,17.34-21.77,17.54Z"/><path class="cls-1" d="M728,785.33h-.17c-6.38-.2-18.32-7.3-21.78-17.54a2.12,2.12,0,0,1,1.9-2.78l4.91-.23A2.11,2.11,0,1,1,713,769l-1.86.09c3.92,7.22,12.74,11.91,16.76,12H728c1.55,0,5.71-2,10.27-6.37,2.69-2.6,8.93-9.5,8.93-17.44,0-12.22-15.87-23.81-19.33-23.81s-13.32,5.53-17.15,13.16l1.54,0a2.11,2.11,0,0,1,0,4.22h0l-4.59-.06a2.11,2.11,0,0,1-2-2.7c3.16-10.89,16.51-18.85,22.25-18.85,3.2,0,9.08,3.59,14,8.54,3.56,3.59,9.55,10.9,9.55,19.48,0,6.73-3.73,14.19-10.21,20.47C736.44,782.39,731.28,785.33,728,785.33Z"/><path class="cls-1" d="M626.33,845.1c-3.3,0-8.46-3-13.23-7.56-6.49-6.28-10.21-13.74-10.21-20.47,0-8.58,6-15.89,9.55-19.48,4.92-5,10.8-8.54,14-8.54,5.74,0,19.09,8,22.25,18.86a2.1,2.1,0,0,1-2,2.69l-4.59.06h0a2.11,2.11,0,0,1,0-4.22l1.55,0c-3.83-7.63-13.61-13.15-17.15-13.15s-19.33,11.58-19.33,23.8c0,7.94,6.24,14.84,8.93,17.44,4.56,4.42,8.72,6.37,10.27,6.37h.06c4-.13,12.84-4.82,16.76-12l-1.86-.09a2.11,2.11,0,1,1,.2-4.21l4.91.23a2.12,2.12,0,0,1,1.9,2.79c-3.46,10.23-15.4,17.33-21.78,17.53Z"/><path class="cls-1" d="M644.31,845.1h-.17c-6.38-.2-18.31-7.3-21.78-17.53a2.12,2.12,0,0,1,1.9-2.79l4.91-.23a2.11,2.11,0,1,1,.2,4.21l-1.85.09c3.91,7.22,12.73,11.91,16.76,12h.05c1.56,0,5.71-2,10.28-6.37,2.68-2.6,8.92-9.5,8.92-17.44,0-12.22-15.87-23.8-19.32-23.8s-13.32,5.53-17.16,13.15l1.55,0a2.11,2.11,0,0,1,0,4.22h0L624,810.6a2.1,2.1,0,0,1-2-2.69c3.16-10.9,16.51-18.86,22.26-18.86,3.19,0,9.07,3.59,14,8.54,3.57,3.59,9.55,10.9,9.55,19.48,0,6.73-3.72,14.19-10.21,20.47C652.78,842.15,647.62,845.1,644.31,845.1Z"/><path class="cls-1" d="M680.94,727.18a4.75,4.75,0,1,1-4.74-4.74A4.75,4.75,0,0,1,680.94,727.18Z"/><path class="cls-1" d="M764.61,727.18a4.75,4.75,0,1,1-4.75-4.74A4.75,4.75,0,0,1,764.61,727.18Z"/><path class="cls-1" d="M597.27,786.94a4.75,4.75,0,1,1-4.74-4.74A4.75,4.75,0,0,1,597.27,786.94Z"/><path class="cls-1" d="M680.94,786.94a4.75,4.75,0,1,1-4.75-4.74A4.75,4.75,0,0,1,680.94,786.94Z"/></g></svg>