<svg xmlns="http://www.w3.org/2000/svg" viewBox="0 0 850.39 850.39"><defs><style>.cls-1,.cls-2{fill:none;stroke:#1d1d1b;stroke-miterlimit:10;}.cls-1{stroke-width:5px;}.cls-2{stroke-width:2px;}</style></defs><g id="Capa_2" data-name="Capa 2"><polygon class="cls-1" points="138.05 278.33 122.03 247.75 153.46 262.03 177.59 237.34 173.73 271.64 204.66 286.96 170.84 293.89 165.84 328.05 148.8 298.02 114.76 303.82 138.05 278.33"/><polygon class="cls-2" points="136.06 272.98 120.03 242.41 151.47 256.68 175.59 231.99 171.74 266.29 202.67 281.61 168.85 288.54 163.84 322.7 146.8 292.68 112.77 298.47 136.06 272.98"/><polygon class="cls-1" points="172.28 148.03 190.06 118.44 194.22 152.71 227.85 160.48 196.54 175.02 199.55 209.41 176.04 184.13 144.26 197.61 161.04 167.45 138.4 141.39 172.28 148.03"/><polygon class="cls-2" points="175.78 144.27 193.57 114.68 197.72 148.95 231.36 156.72 200.05 171.26 203.05 205.66 179.54 180.37 147.76 193.85 164.55 163.69 141.9 137.63 175.78 144.27"/><polygon class="cls-1" points="257.76 206.98 228.5 225.31 262.85 228.83 271.23 262.32 285.2 230.75 319.64 233.12 293.93 210.08 306.83 178.06 276.97 195.4 250.5 173.23 257.76 206.98"/><polygon class="cls-2" points="254.07 210.55 224.81 228.88 259.15 232.4 267.54 265.89 281.5 234.32 315.94 236.69 290.23 213.65 303.13 181.63 273.28 198.96 246.81 176.8 254.07 210.55"/><polygon class="cls-1" points="161.4 67.42 129.25 54.83 162.35 45.01 164.38 10.54 183.96 38.98 217.36 30.27 196.36 57.67 214.97 86.75 182.42 75.25 160.52 101.93 161.4 67.42"/><polygon class="cls-2" points="156.39 64.69 124.24 52.1 157.34 42.27 159.37 7.81 178.95 36.25 212.35 27.54 191.35 54.94 209.96 84.02 177.41 72.52 155.51 99.2 156.39 64.69"/><polygon class="cls-1" points="353.03 302.81 318.9 297.64 349 280.74 343.37 246.68 368.74 270.08 399.39 254.2 384.98 285.57 409.55 309.81 375.27 305.79 359.8 336.66 353.03 302.81"/><polygon class="cls-2" points="347.54 301.25 313.41 296.08 343.51 279.18 337.88 245.12 363.25 268.53 393.9 252.65 379.49 284.01 404.06 308.26 369.77 304.24 354.31 335.1 347.54 301.25"/><polygon class="cls-1" points="282.61 81.56 287.34 47.36 304.63 77.24 338.61 71.17 315.54 96.85 331.81 127.29 300.26 113.28 276.34 138.16 279.92 103.83 248.85 88.77 282.61 81.56"/><polygon class="cls-2" points="284.36 76.72 289.09 42.53 306.37 72.41 340.36 66.34 317.28 92.01 333.56 122.46 302.01 108.44 278.08 133.33 281.66 98.99 250.6 83.93 284.36 76.72"/><polygon class="cls-1" points="373.6 162.64 344.14 180.63 378.44 184.54 386.45 218.12 400.77 186.71 435.18 189.47 409.73 166.14 422.99 134.27 392.94 151.27 366.72 128.81 373.6 162.64"/><polygon class="cls-2" points="369.87 166.16 340.4 184.16 374.7 188.07 382.71 221.65 397.03 190.24 431.44 193 406 169.67 419.25 137.8 389.2 154.79 362.99 132.34 369.87 166.16"/><polygon class="cls-1" points="243.49 358.07 210.06 349.43 241.74 335.7 239.62 301.24 262.46 327.12 294.58 314.46 277.03 344.19 298.99 370.82 265.3 363.31 246.76 392.43 243.49 358.07"/><polygon class="cls-2" points="238.18 355.96 204.76 347.32 236.43 333.59 234.32 299.13 257.16 325.01 289.28 312.35 271.72 342.08 293.69 368.71 259.99 361.2 241.45 390.32 238.18 355.96"/><polygon class="cls-1" points="371.11 374.44 339.18 361.3 356.29 391.29 333.93 417.58 367.74 410.58 385.84 439.97 389.62 405.66 423.17 397.52 391.71 383.32 394.34 348.9 371.11 374.44"/><polygon class="cls-2" points="366.06 373.51 334.13 360.37 351.24 390.36 328.88 416.66 362.68 409.65 380.79 439.05 384.57 404.73 418.12 396.6 386.65 382.39 389.29 347.97 366.06 373.51"/><polygon class="cls-1" points="440.49 86.1 424.47 55.52 455.9 69.8 480.03 45.11 476.17 79.41 507.11 94.73 473.29 101.66 468.28 135.82 451.24 105.79 417.21 111.59 440.49 86.1"/><polygon class="cls-2" points="438.5 80.75 422.48 50.18 453.91 64.45 478.04 39.76 474.18 74.06 505.12 89.38 471.3 96.31 466.29 130.47 449.25 100.45 415.21 106.24 438.5 80.75"/><polygon class="cls-1" points="474.72 340.26 492.51 310.67 496.66 344.94 530.3 352.71 498.99 367.25 501.99 401.65 478.48 376.36 446.7 389.85 463.49 359.68 440.84 333.62 474.72 340.26"/><polygon class="cls-2" points="478.22 336.5 496.01 306.91 500.16 341.18 533.8 348.95 502.49 363.5 505.49 397.89 481.99 372.6 450.21 386.08 466.99 355.92 444.35 329.86 478.22 336.5"/><polygon class="cls-1" points="560.21 399.21 530.95 417.54 565.29 421.06 573.67 454.55 587.64 422.98 622.08 425.36 596.37 402.31 609.27 370.29 579.41 387.63 552.95 365.46 560.21 399.21"/><polygon class="cls-2" points="556.51 402.78 527.25 421.11 561.6 424.63 569.98 458.12 583.95 426.55 618.39 428.93 592.68 405.88 605.58 373.86 575.72 391.19 549.25 369.03 556.51 402.78"/><polygon class="cls-1" points="463.84 259.65 431.7 247.06 464.79 237.24 466.83 202.77 486.4 231.21 519.8 222.5 498.81 249.9 517.42 278.98 484.87 267.48 462.96 294.16 463.84 259.65"/><polygon class="cls-2" points="458.83 256.92 426.69 244.33 459.78 234.5 461.82 200.04 481.39 228.48 514.79 219.77 493.8 247.17 512.4 276.25 479.86 264.75 457.95 291.43 458.83 256.92"/><polygon class="cls-1" points="655.47 110.58 621.34 105.41 651.44 88.51 645.81 54.45 671.19 77.85 701.84 61.97 687.42 93.34 712 117.58 677.71 113.56 662.25 144.43 655.47 110.58"/><polygon class="cls-2" points="649.98 109.02 615.85 103.85 645.95 86.95 640.32 52.89 665.7 76.3 696.35 60.42 681.93 91.78 706.5 116.03 672.22 112.01 656.76 142.87 649.98 109.02"/><polygon class="cls-1" points="585.06 273.79 589.79 239.59 607.07 269.47 641.06 263.4 617.98 289.08 634.26 319.52 602.71 305.51 578.78 330.39 582.36 296.06 551.3 281 585.06 273.79"/><polygon class="cls-2" points="586.8 268.95 591.53 234.76 608.82 264.64 642.8 258.57 619.72 284.24 636 314.69 604.45 300.68 580.52 325.56 584.1 291.23 553.04 276.16 586.8 268.95"/><polygon class="cls-1" points="676.04 354.87 646.58 372.86 680.88 376.77 688.89 410.35 703.21 378.94 737.62 381.7 712.17 358.38 725.43 326.5 695.38 343.5 669.16 321.04 676.04 354.87"/><polygon class="cls-2" points="672.31 358.4 642.85 376.39 677.15 380.3 685.16 413.88 699.48 382.47 733.89 385.23 708.44 361.9 721.7 330.03 691.65 347.02 665.43 324.57 672.31 358.4"/><polygon class="cls-1" points="545.93 165.84 512.5 157.2 544.18 143.47 542.06 109.01 564.91 134.89 597.02 122.23 579.47 151.96 601.44 178.59 567.74 171.08 549.2 200.2 545.93 165.84"/><polygon class="cls-2" points="540.63 163.72 507.2 155.09 538.88 141.36 536.76 106.9 559.61 132.78 591.72 120.12 574.17 149.85 596.13 176.48 562.44 168.97 543.9 198.09 540.63 163.72"/><polygon class="cls-1" points="673.55 182.21 641.63 169.07 658.74 199.05 636.38 225.35 670.18 218.35 688.28 247.74 692.07 213.43 725.62 205.29 694.15 191.09 696.78 156.67 673.55 182.21"/><polygon class="cls-2" points="668.5 181.28 636.57 168.14 653.68 198.13 631.32 224.43 665.13 217.42 683.23 246.81 687.01 212.5 720.56 204.37 689.1 190.16 691.73 155.74 668.5 181.28"/><polygon class="cls-1" points="138.05 662.79 122.03 632.22 153.46 646.49 177.59 621.8 173.73 656.1 204.66 671.42 170.84 678.35 165.84 712.51 148.8 682.49 114.76 688.28 138.05 662.79"/><polygon class="cls-2" points="136.06 657.45 120.03 626.87 151.47 641.14 175.59 616.45 171.74 650.75 202.67 666.07 168.85 673 163.84 707.16 146.8 677.14 112.77 682.93 136.06 657.45"/><polygon class="cls-1" points="172.28 532.49 190.06 502.9 194.22 537.17 227.85 544.94 196.54 559.49 199.55 593.88 176.04 568.59 144.26 582.08 161.04 551.91 138.4 525.85 172.28 532.49"/><polygon class="cls-2" points="175.78 528.73 193.57 499.14 197.72 533.41 231.36 541.18 200.05 555.73 203.05 590.12 179.54 564.83 147.76 578.32 164.55 548.15 141.9 522.09 175.78 528.73"/><polygon class="cls-1" points="257.76 591.44 228.5 609.77 262.85 613.29 271.23 646.78 285.2 615.21 319.64 617.59 293.93 594.54 306.83 562.52 276.97 579.86 250.5 557.69 257.76 591.44"/><polygon class="cls-2" points="254.07 595.01 224.81 613.34 259.15 616.86 267.54 650.35 281.5 618.78 315.94 621.15 290.23 598.12 303.13 566.09 273.28 583.43 246.81 561.26 254.07 595.01"/><polygon class="cls-1" points="161.4 451.88 129.25 439.29 162.35 429.47 164.38 395 183.96 423.44 217.36 414.73 196.36 442.13 214.97 471.21 182.42 459.71 160.52 486.39 161.4 451.88"/><polygon class="cls-2" points="156.39 449.15 124.24 436.56 157.34 426.73 159.37 392.27 178.95 420.71 212.35 412 191.35 439.4 209.96 468.48 177.41 456.98 155.51 483.66 156.39 449.15"/><polygon class="cls-1" points="353.03 687.27 318.9 682.1 349 665.2 343.37 631.14 368.74 654.55 399.39 638.66 384.98 670.03 409.55 694.28 375.27 690.26 359.8 721.12 353.03 687.27"/><polygon class="cls-2" points="347.54 685.71 313.41 680.55 343.51 663.64 337.88 629.59 363.25 652.99 393.9 637.11 379.49 668.48 404.06 692.72 369.77 688.7 354.31 719.57 347.54 685.71"/><polygon class="cls-1" points="282.61 466.02 287.34 431.82 304.63 461.7 338.61 455.63 315.54 481.31 331.81 511.75 300.26 497.74 276.34 522.63 279.92 488.29 248.85 473.23 282.61 466.02"/><polygon class="cls-2" points="284.36 461.18 289.09 426.99 306.37 456.87 340.36 450.8 317.28 476.47 333.56 506.92 302.01 492.9 278.08 517.79 281.66 483.46 250.6 468.39 284.36 461.18"/><polygon class="cls-1" points="373.6 547.1 344.14 565.09 378.44 569 386.45 602.59 400.77 571.17 435.18 573.93 409.73 550.61 422.99 518.73 392.94 535.73 366.72 513.27 373.6 547.1"/><polygon class="cls-2" points="369.87 550.63 340.4 568.62 374.7 572.53 382.71 606.11 397.03 574.7 431.44 577.46 406 554.13 419.25 522.26 389.2 539.26 362.99 516.8 369.87 550.63"/><polygon class="cls-1" points="243.49 742.53 210.06 733.89 241.74 720.16 239.62 685.7 262.46 711.58 294.58 698.92 277.03 728.65 298.99 755.28 265.3 747.77 246.76 776.89 243.49 742.53"/><polygon class="cls-2" points="238.18 740.42 204.76 731.78 236.43 718.05 234.32 683.59 257.16 709.47 289.28 696.81 271.72 726.54 293.69 753.17 259.99 745.66 241.45 774.78 238.18 740.42"/><polygon class="cls-1" points="371.11 758.9 339.18 745.76 356.29 775.75 333.93 802.05 367.74 795.04 385.84 824.43 389.62 790.12 423.17 781.99 391.71 767.78 394.34 733.36 371.11 758.9"/><polygon class="cls-2" points="366.06 757.97 334.13 744.83 351.24 774.82 328.88 801.12 362.68 794.11 380.79 823.51 384.57 789.19 418.12 781.06 386.65 766.85 389.29 732.43 366.06 757.97"/><polygon class="cls-1" points="440.49 470.56 424.47 439.99 455.9 454.26 480.03 429.57 476.17 463.87 507.11 479.19 473.29 486.12 468.28 520.28 451.24 490.26 417.21 496.05 440.49 470.56"/><polygon class="cls-2" points="438.5 465.21 422.48 434.64 453.91 448.91 478.04 424.22 474.18 458.52 505.12 473.84 471.3 480.77 466.29 514.93 449.25 484.91 415.21 490.7 438.5 465.21"/><polygon class="cls-1" points="474.72 724.72 492.51 695.13 496.66 729.4 530.3 737.17 498.99 751.72 501.99 786.11 478.48 760.82 446.7 774.31 463.49 744.14 440.84 718.08 474.72 724.72"/><polygon class="cls-2" points="478.22 720.96 496.01 691.37 500.16 725.64 533.8 733.41 502.49 747.96 505.49 782.35 481.99 757.06 450.21 770.55 466.99 740.38 444.35 714.32 478.22 720.96"/><polygon class="cls-1" points="560.21 783.67 530.95 802 565.29 805.52 573.67 839.01 587.64 807.44 622.08 809.82 596.37 786.78 609.27 754.75 579.41 772.09 552.95 749.92 560.21 783.67"/><polygon class="cls-2" points="556.51 787.24 527.25 805.57 561.6 809.09 569.98 842.58 583.95 811.01 618.39 813.39 592.68 790.35 605.58 758.32 575.72 775.66 549.25 753.49 556.51 787.24"/><polygon class="cls-1" points="463.84 644.11 431.7 631.52 464.79 621.7 466.83 587.24 486.4 615.67 519.8 606.96 498.81 634.36 517.42 663.44 484.87 651.94 462.96 678.62 463.84 644.11"/><polygon class="cls-2" points="458.83 641.38 426.69 628.79 459.78 618.97 461.82 584.5 481.39 612.94 514.79 604.23 493.8 631.63 512.4 660.71 479.86 649.21 457.95 675.89 458.83 641.38"/><polygon class="cls-1" points="655.47 495.04 621.34 489.87 651.44 472.97 645.81 438.91 671.19 462.32 701.84 446.43 687.42 477.8 712 502.05 677.71 498.02 662.25 528.89 655.47 495.04"/><polygon class="cls-2" points="649.98 493.48 615.85 488.31 645.95 471.41 640.32 437.36 665.7 460.76 696.35 444.88 681.93 476.25 706.5 500.49 672.22 496.47 656.76 527.33 649.98 493.48"/><polygon class="cls-1" points="585.06 658.25 589.79 624.05 607.07 653.93 641.06 647.86 617.98 673.54 634.26 703.98 602.71 689.97 578.78 714.86 582.36 680.52 551.3 665.46 585.06 658.25"/><polygon class="cls-2" points="586.8 653.41 591.53 619.22 608.82 649.1 642.8 643.03 619.72 668.71 636 699.15 604.45 685.14 580.52 710.02 584.1 675.69 553.04 660.62 586.8 653.41"/><polygon class="cls-1" points="676.04 739.33 646.58 757.32 680.88 761.24 688.89 794.82 703.21 763.4 737.62 766.16 712.17 742.84 725.43 710.96 695.38 727.96 669.16 705.5 676.04 739.33"/><polygon class="cls-2" points="672.31 742.86 642.85 760.85 677.15 764.76 685.16 798.34 699.48 766.93 733.89 769.69 708.44 746.36 721.7 714.49 691.65 731.49 665.43 709.03 672.31 742.86"/><polygon class="cls-1" points="545.93 550.3 512.5 541.66 544.18 527.93 542.06 493.47 564.91 519.35 597.02 506.69 579.47 536.42 601.44 563.05 567.74 555.54 549.2 584.66 545.93 550.3"/><polygon class="cls-2" points="540.63 548.19 507.2 539.55 538.88 525.82 536.76 491.36 559.61 517.24 591.72 504.58 574.17 534.31 596.13 560.94 562.44 553.43 543.9 582.55 540.63 548.19"/><polygon class="cls-1" points="673.55 566.67 641.63 553.53 658.74 583.51 636.38 609.82 670.18 602.81 688.28 632.21 692.07 597.89 725.62 589.76 694.15 575.55 696.78 541.13 673.55 566.67"/><polygon class="cls-2" points="668.5 565.74 636.57 552.6 653.68 582.59 631.32 608.89 665.13 601.88 683.23 631.27 687.01 596.96 720.56 588.83 689.1 574.62 691.73 540.2 668.5 565.74"/></g></svg>