<svg id="Capa_1" data-name="Capa 1" xmlns="http://www.w3.org/2000/svg" viewBox="0 0 850.39 850.39"><defs><style>.cls-1{fill:#1d1d1b;}</style></defs><polygon class="cls-1" points="151.07 142.67 152.47 139.82 153.88 142.67 157.02 143.13 154.74 145.34 155.28 148.47 152.47 146.99 149.66 148.47 150.2 145.34 147.93 143.12 151.07 142.67"/><polygon class="cls-1" points="242.02 169.06 243.66 166.34 244.81 169.3 247.9 170.02 245.45 172.03 245.72 175.2 243.05 173.49 240.12 174.72 240.92 171.65 238.85 169.25 242.02 169.06"/><polygon class="cls-1" points="78.78 61.98 81.25 59.99 81.33 63.16 83.98 64.89 80.99 65.95 80.17 69.01 78.24 66.5 75.07 66.66 76.87 64.04 75.73 61.08 78.78 61.98"/><polygon class="cls-1" points="51.53 196.42 54.25 194.78 53.9 197.94 56.3 200.01 53.19 200.65 51.96 203.58 50.39 200.82 47.23 200.55 49.37 198.21 48.64 195.12 51.53 196.42"/><polygon class="cls-1" points="224.09 213.18 227.07 212.08 226.13 215.11 228.09 217.61 224.92 217.65 223.15 220.28 222.13 217.28 219.08 216.41 221.62 214.51 221.5 211.34 224.09 213.18"/><polygon class="cls-1" points="340.46 120.53 343.44 119.44 342.5 122.47 344.46 124.96 341.29 125 339.52 127.64 338.5 124.63 335.45 123.76 338 121.87 337.88 118.7 340.46 120.53"/><polygon class="cls-1" points="142.31 195.04 144.97 193.32 144.72 196.48 147.18 198.48 144.09 199.22 142.95 202.18 141.29 199.47 138.13 199.29 140.19 196.88 139.38 193.82 142.31 195.04"/><polygon class="cls-1" points="225.34 284.55 227.13 281.93 228.12 284.95 231.16 285.84 228.6 287.71 228.69 290.89 226.12 289.03 223.13 290.09 224.1 287.07 222.16 284.56 225.34 284.55"/><polygon class="cls-1" points="361.49 187.48 364.15 185.76 363.9 188.92 366.36 190.92 363.27 191.66 362.13 194.62 360.47 191.91 357.31 191.73 359.37 189.32 358.56 186.26 361.49 187.48"/><polygon class="cls-1" points="310.16 285.97 312.82 284.25 312.57 287.41 315.03 289.41 311.94 290.14 310.79 293.11 309.14 290.4 305.97 290.22 308.04 287.81 307.23 284.75 310.16 285.97"/><polygon class="cls-1" points="389.59 328.26 391.23 325.54 392.39 328.5 395.48 329.22 393.02 331.23 393.29 334.4 390.62 332.69 387.69 333.92 388.5 330.85 386.42 328.44 389.59 328.26"/><polygon class="cls-1" points="125.78 313.05 127.42 310.34 128.58 313.29 131.67 314.02 129.22 316.03 129.49 319.19 126.81 317.48 123.89 318.71 124.69 315.64 122.61 313.24 125.78 313.05"/><polygon class="cls-1" points="206.28 326.47 207.92 323.75 209.08 326.71 212.16 327.43 209.71 329.44 209.98 332.61 207.31 330.89 204.38 332.13 205.18 329.06 203.11 326.65 206.28 326.47"/><polygon class="cls-1" points="298.14 349.12 300.27 346.77 300.84 349.89 303.73 351.19 300.94 352.7 300.6 355.85 298.3 353.66 295.19 354.31 296.57 351.45 294.99 348.7 298.14 349.12"/><polygon class="cls-1" points="225.01 399.77 225.34 396.62 227.65 398.79 230.75 398.13 229.39 401 230.98 403.74 227.83 403.33 225.72 405.7 225.13 402.58 222.23 401.29 225.01 399.77"/><polygon class="cls-1" points="111.58 388.19 115.18 385.85 114.85 390.13 118.19 392.83 114.01 393.84 112.48 397.85 110.23 394.19 105.94 393.97 108.73 390.7 107.61 386.55 111.58 388.19"/><polygon class="cls-1" points="270.99 305.56 274.59 303.22 274.25 307.5 277.59 310.2 273.42 311.2 271.88 315.21 269.63 311.56 265.35 311.33 268.13 308.06 267.02 303.92 270.99 305.56"/><polygon class="cls-1" points="328.35 237.44 331.18 234.22 332.02 238.43 335.96 240.12 332.21 242.22 331.82 246.5 328.67 243.58 324.48 244.53 326.27 240.63 324.08 236.94 328.35 237.44"/><polygon class="cls-1" points="419.23 420.18 420.49 417.27 422.03 420.04 425.19 420.35 423.03 422.67 423.71 425.77 420.84 424.43 418.1 426.04 418.49 422.89 416.11 420.79 419.23 420.18"/><polygon class="cls-1" points="243.24 362.25 245.45 355.94 248.17 362.05 254.86 362.2 249.89 366.68 251.82 373.09 246.02 369.74 240.52 373.56 241.91 367.01 236.58 362.96 243.24 362.25"/><polygon class="cls-1" points="167.71 281.28 170.75 273.51 173.34 281.45 181.67 281.94 174.92 286.85 177.03 294.92 170.27 290.02 163.25 294.52 165.82 286.58 159.37 281.29 167.71 281.28"/><polygon class="cls-1" points="163.2 352.7 163.74 344.37 168.61 351.14 176.7 349.07 171.77 355.8 176.23 362.86 168.3 360.25 162.98 366.67 163.01 358.32 155.25 355.24 163.2 352.7"/><polygon class="cls-1" points="78.53 346.14 80.73 338.09 84.14 345.7 92.48 345.31 86.29 350.91 89.24 358.72 82 354.56 75.48 359.78 77.2 351.61 70.23 347.02 78.53 346.14"/><polygon class="cls-1" points="47.89 403.12 46.58 396.55 52.03 400.43 57.87 397.16 55.86 403.54 60.78 408.08 54.09 408.15 51.29 414.23 49.16 407.88 42.51 407.1 47.89 403.12"/><polygon class="cls-1" points="166.38 399.75 169.43 396.72 169.98 400.98 173.8 402.94 169.91 404.78 169.23 409.02 166.28 405.89 162.04 406.55 164.1 402.78 162.16 398.95 166.38 399.75"/><polygon class="cls-1" points="184.9 234.99 188.94 233.52 187.65 237.62 190.29 241 186 241.04 183.6 244.6 182.24 240.53 178.11 239.35 181.56 236.79 181.41 232.5 184.9 234.99"/><polygon class="cls-1" points="185.71 182.31 188.09 178.74 189.47 182.81 193.61 183.97 190.17 186.54 190.34 190.83 186.83 188.36 182.8 189.85 184.07 185.75 181.41 182.38 185.71 182.31"/><polygon class="cls-1" points="32.81 249.69 36.89 242.41 38.37 250.62 46.55 252.25 39.2 256.19 40.18 264.48 34.16 258.7 26.58 262.2 30.21 254.68 24.55 248.56 32.81 249.69"/><polygon class="cls-1" points="264.56 242.13 271.54 237.56 269.05 245.52 275.56 250.75 267.21 250.84 264.26 258.65 261.59 250.74 253.25 250.34 259.95 245.35 257.75 237.3 264.56 242.13"/><polygon class="cls-1" points="90.22 171.02 89.14 162.74 95.23 168.46 102.77 164.87 99.22 172.43 104.95 178.49 96.67 177.45 92.68 184.78 91.11 176.58 82.91 175.05 90.22 171.02"/><polygon class="cls-1" points="74.28 292.94 77.67 287.17 79.16 293.7 85.69 295.14 79.94 298.57 80.59 305.23 75.55 300.82 69.42 303.5 72.05 297.34 67.61 292.33 74.28 292.94"/><polygon class="cls-1" points="83.36 223.78 84.87 219.76 87.15 223.41 91.44 223.6 88.67 226.89 89.81 231.03 85.83 229.42 82.25 231.78 82.55 227.5 79.2 224.82 83.36 223.78"/><polygon class="cls-1" points="11.09 363.83 13.02 359.99 14.89 363.86 19.14 364.51 16.04 367.48 16.73 371.72 12.95 369.69 9.13 371.66 9.89 367.43 6.84 364.41 11.09 363.83"/><polygon class="cls-1" points="25.1 318.4 24.54 312.73 28.84 316.47 34.05 314.18 31.83 319.43 35.62 323.68 29.94 323.18 27.07 328.1 25.79 322.55 20.22 321.34 25.1 318.4"/><polygon class="cls-1" points="322.03 392.61 325.1 389.61 325.61 393.87 329.42 395.86 325.52 397.67 324.81 401.9 321.88 398.76 317.63 399.38 319.72 395.63 317.81 391.78 322.03 392.61"/><polygon class="cls-1" points="385.38 379.66 386.87 374.16 389.55 379.19 395.24 378.92 391.29 383.02 393.31 388.35 388.19 385.85 383.74 389.42 384.53 383.78 379.76 380.65 385.38 379.66"/><polygon class="cls-1" points="336.71 329.44 335.05 322.96 340.7 326.54 346.35 322.95 344.7 329.43 349.86 333.7 343.18 334.13 340.72 340.36 338.25 334.14 331.56 333.72 336.71 329.44"/><polygon class="cls-1" points="358.1 269.26 360.74 264.21 362.28 269.7 367.9 270.65 363.15 273.81 363.98 279.45 359.51 275.91 354.41 278.44 356.39 273.1 352.4 269.02 358.1 269.26"/><polygon class="cls-1" points="168.51 89.24 170.55 82.86 173.43 88.9 180.13 88.87 175.27 93.48 177.37 99.84 171.49 96.65 166.09 100.61 167.31 94.02 161.87 90.11 168.51 89.24"/><polygon class="cls-1" points="313.62 163.85 318.18 156.86 319.1 165.15 327.16 167.33 319.55 170.76 319.97 179.1 314.36 172.93 306.56 175.9 310.69 168.65 305.45 162.16 313.62 163.85"/><polygon class="cls-1" points="275.92 420.45 275.57 416.17 279.18 418.5 283.14 416.84 282.04 420.99 284.84 424.25 280.55 424.49 278.32 428.15 276.77 424.15 272.59 423.16 275.92 420.45"/><polygon class="cls-1" points="280.23 203.49 283.59 200.81 283.68 205.11 287.26 207.47 283.2 208.88 282.07 213.02 279.47 209.6 275.18 209.79 277.64 206.27 276.12 202.25 280.23 203.49"/><polygon class="cls-1" points="111.14 106.64 115.42 99.48 116.66 107.73 124.8 109.59 117.33 113.32 118.08 121.63 112.22 115.69 104.55 118.97 108.39 111.56 102.9 105.28 111.14 106.64"/><polygon class="cls-1" points="34.03 151.2 36.35 144.92 38.97 151.08 45.66 151.34 40.61 155.74 42.43 162.18 36.69 158.74 31.12 162.46 32.62 155.93 27.36 151.79 34.03 151.2"/><polygon class="cls-1" points="63.36 119.95 64.33 115.77 67.06 119.09 71.34 118.72 69.02 122.34 70.69 126.3 66.53 125.22 63.28 128.02 63.03 123.74 59.36 121.52 63.36 119.95"/><polygon class="cls-1" points="29.08 81.96 27.89 76.38 32.57 79.63 37.51 76.77 35.87 82.23 40.11 86.04 34.41 86.17 32.1 91.38 30.21 86 24.55 85.41 29.08 81.96"/><polygon class="cls-1" points="128.06 60.02 128.39 55.74 131.59 58.6 135.76 57.59 134.03 61.52 136.28 65.17 132.01 64.74 129.23 68.01 128.32 63.81 124.35 62.18 128.06 60.02"/><polygon class="cls-1" points="213.29 66.5 210.91 58.49 217.83 63.17 224.71 58.44 222.4 66.46 229.02 71.54 220.68 71.82 217.9 79.69 215.05 71.84 206.71 71.63 213.29 66.5"/><polygon class="cls-1" points="203.85 129.01 205.81 120.9 209.44 128.41 217.76 127.77 211.75 133.55 214.93 141.26 207.57 137.32 201.22 142.74 202.69 134.52 195.58 130.15 203.85 129.01"/><polygon class="cls-1" points="263.38 92.43 263.9 89.3 266.07 91.63 269.2 91.16 267.66 93.94 269.07 96.78 265.96 96.17 263.69 98.39 263.31 95.24 260.5 93.77 263.38 92.43"/><polygon class="cls-1" points="275.22 136.47 278.72 133.99 278.56 138.28 282.01 140.84 277.87 142.01 276.5 146.08 274.11 142.52 269.81 142.47 272.46 139.09 271.19 134.99 275.22 136.47"/><polygon class="cls-1" points="312.22 86.7 314.52 81.48 316.42 86.85 322.09 87.42 317.57 90.89 318.78 96.46 314.08 93.24 309.16 96.11 310.78 90.64 306.52 86.85 312.22 86.7"/><polygon class="cls-1" points="350.16 48.23 352.47 41.95 355.1 48.11 361.78 48.37 356.73 52.76 358.55 59.21 352.81 55.76 347.25 59.48 348.75 52.96 343.49 48.82 350.16 48.23"/><polygon class="cls-1" points="416.28 191.99 419.45 186.09 421.19 192.56 427.77 193.75 422.16 197.4 423.06 204.03 417.86 199.82 411.83 202.73 414.23 196.48 409.6 191.64 416.28 191.99"/><polygon class="cls-1" points="382.12 229.16 384.51 223.98 386.32 229.39 391.98 230.06 387.4 233.45 388.51 239.04 383.87 235.73 378.89 238.51 380.61 233.08 376.42 229.21 382.12 229.16"/><polygon class="cls-1" points="391.1 87.94 391.96 83.73 394.78 86.97 399.05 86.48 396.84 90.16 398.62 94.07 394.44 93.11 391.27 96.01 390.89 91.73 387.15 89.62 391.1 87.94"/><polygon class="cls-1" points="395.41 135.8 402.54 131.44 399.79 139.33 406.13 144.76 397.79 144.59 394.58 152.3 392.17 144.31 383.85 143.64 390.7 138.87 388.76 130.75 395.41 135.8"/><polygon class="cls-1" points="410.05 280.29 417.03 275.71 414.54 283.68 421.05 288.91 412.7 289 409.74 296.81 407.07 288.9 398.74 288.5 405.43 283.51 403.24 275.46 410.05 280.29"/><polygon class="cls-1" points="117.89 253.46 119.93 247.09 122.82 253.13 129.51 253.1 124.66 257.71 126.75 264.06 120.87 260.88 115.47 264.83 116.69 258.25 111.25 254.34 117.89 253.46"/><polygon class="cls-1" points="566.85 142.67 568.26 139.82 569.66 142.67 572.8 143.13 570.53 145.34 571.06 148.47 568.25 146.99 565.44 148.47 565.98 145.34 563.71 143.12 566.85 142.67"/><polygon class="cls-1" points="657.8 169.06 659.44 166.34 660.6 169.3 663.69 170.02 661.23 172.03 661.5 175.2 658.83 173.49 655.9 174.72 656.71 171.65 654.63 169.25 657.8 169.06"/><polygon class="cls-1" points="494.56 61.98 497.03 59.99 497.11 63.16 499.77 64.89 496.78 65.95 495.95 69.01 494.02 66.5 490.85 66.66 492.65 64.04 491.52 61.08 494.56 61.98"/><polygon class="cls-1" points="467.32 196.42 470.03 194.78 469.69 197.94 472.08 200.01 468.98 200.65 467.75 203.58 466.17 200.82 463.01 200.55 465.15 198.21 464.43 195.12 467.32 196.42"/><polygon class="cls-1" points="639.88 213.18 642.86 212.08 641.91 215.11 643.87 217.61 640.7 217.65 638.93 220.28 637.91 217.28 634.86 216.41 637.41 214.51 637.29 211.34 639.88 213.18"/><polygon class="cls-1" points="756.25 120.53 759.23 119.44 758.28 122.47 760.24 124.96 757.07 125 755.3 127.64 754.29 124.63 751.23 123.76 753.78 121.87 753.66 118.7 756.25 120.53"/><polygon class="cls-1" points="558.09 195.04 560.76 193.32 560.5 196.48 562.96 198.48 559.88 199.22 558.73 202.18 557.08 199.47 553.91 199.29 555.98 196.88 555.16 193.82 558.09 195.04"/><polygon class="cls-1" points="641.12 284.55 642.91 281.93 643.9 284.95 646.95 285.84 644.38 287.71 644.47 290.89 641.9 289.03 638.91 290.09 639.88 287.07 637.95 284.56 641.12 284.55"/><polygon class="cls-1" points="777.27 187.48 779.94 185.76 779.68 188.92 782.14 190.92 779.05 191.66 777.91 194.62 776.26 191.91 773.09 191.73 775.16 189.32 774.34 186.26 777.27 187.48"/><polygon class="cls-1" points="725.94 285.97 728.61 284.25 728.35 287.41 730.81 289.41 727.72 290.14 726.58 293.11 724.92 290.4 721.76 290.22 723.82 287.81 723.01 284.75 725.94 285.97"/><polygon class="cls-1" points="805.37 328.26 807.01 325.54 808.17 328.5 811.26 329.22 808.81 331.23 809.08 334.4 806.4 332.69 803.48 333.92 804.28 330.85 802.21 328.44 805.37 328.26"/><polygon class="cls-1" points="541.57 313.05 543.21 310.34 544.36 313.29 547.45 314.02 545 316.03 545.27 319.19 542.6 317.48 539.67 318.71 540.47 315.64 538.4 313.24 541.57 313.05"/><polygon class="cls-1" points="622.06 326.47 623.7 323.75 624.86 326.71 627.95 327.43 625.5 329.44 625.76 332.61 623.09 330.89 620.16 332.13 620.97 329.06 618.89 326.65 622.06 326.47"/><polygon class="cls-1" points="713.92 349.12 716.05 346.77 716.62 349.89 719.51 351.19 716.72 352.7 716.38 355.85 714.09 353.66 710.98 354.31 712.35 351.45 710.77 348.7 713.92 349.12"/><polygon class="cls-1" points="640.79 399.77 641.12 396.62 643.43 398.79 646.53 398.13 645.17 401 646.76 403.74 643.62 403.33 641.5 405.7 640.91 402.58 638.01 401.29 640.79 399.77"/><polygon class="cls-1" points="527.36 388.19 530.96 385.85 530.63 390.13 533.97 392.83 529.79 393.84 528.26 397.85 526.01 394.19 521.72 393.97 524.51 390.7 523.39 386.55 527.36 388.19"/><polygon class="cls-1" points="686.77 305.56 690.37 303.22 690.04 307.5 693.38 310.2 689.2 311.2 687.67 315.21 685.42 311.56 681.13 311.33 683.91 308.06 682.8 303.92 686.77 305.56"/><polygon class="cls-1" points="744.13 237.44 746.96 234.22 747.8 238.43 751.74 240.12 748 242.22 747.6 246.5 744.45 243.58 740.26 244.53 742.06 240.63 739.87 236.94 744.13 237.44"/><polygon class="cls-1" points="835.01 420.18 836.28 417.27 837.82 420.04 840.98 420.35 838.81 422.67 839.5 425.77 836.62 424.43 833.89 426.04 834.27 422.89 831.9 420.79 835.01 420.18"/><polygon class="cls-1" points="659.02 362.25 661.23 355.94 663.95 362.05 670.64 362.2 665.67 366.68 667.6 373.09 661.8 369.74 656.3 373.56 657.69 367.01 652.37 362.96 659.02 362.25"/><polygon class="cls-1" points="583.5 281.28 586.54 273.51 589.12 281.45 597.46 281.94 590.71 286.85 592.81 294.92 586.06 290.02 579.03 294.52 581.6 286.58 575.15 281.29 583.5 281.28"/><polygon class="cls-1" points="578.99 352.7 579.52 344.37 584.4 351.14 592.48 349.07 587.55 355.8 592.01 362.86 584.09 360.25 578.76 366.67 578.79 358.32 571.04 355.24 578.99 352.7"/><polygon class="cls-1" points="494.31 346.14 496.52 338.09 499.93 345.7 508.26 345.31 502.07 350.91 505.02 358.72 497.78 354.56 491.27 359.78 492.99 351.61 486.01 347.02 494.31 346.14"/><polygon class="cls-1" points="463.67 403.12 462.36 396.55 467.82 400.43 473.65 397.16 471.65 403.54 476.56 408.08 469.87 408.15 467.07 414.23 464.94 407.88 458.3 407.1 463.67 403.12"/><polygon class="cls-1" points="582.16 399.75 585.21 396.72 585.76 400.98 589.58 402.94 585.7 404.78 585.01 409.02 582.07 405.89 577.82 406.55 579.88 402.78 577.94 398.95 582.16 399.75"/><polygon class="cls-1" points="600.69 234.99 604.72 233.52 603.43 237.62 606.08 241 601.78 241.04 599.39 244.6 598.02 240.53 593.89 239.35 597.34 236.79 597.19 232.5 600.69 234.99"/><polygon class="cls-1" points="601.49 182.31 603.87 178.74 605.26 182.81 609.39 183.97 605.95 186.54 606.13 190.83 602.62 188.36 598.59 189.85 599.86 185.75 597.2 182.38 601.49 182.31"/><polygon class="cls-1" points="448.6 249.69 452.67 242.41 454.15 250.62 462.34 252.25 454.98 256.19 455.96 264.48 449.94 258.7 442.36 262.2 446 254.68 440.33 248.56 448.6 249.69"/><polygon class="cls-1" points="680.34 242.13 687.33 237.56 684.84 245.52 691.34 250.75 683 250.84 680.04 258.65 677.37 250.74 669.03 250.34 675.73 245.35 673.53 237.3 680.34 242.13"/><polygon class="cls-1" points="506 171.02 504.93 162.74 511.01 168.46 518.55 164.87 515 172.43 520.74 178.49 512.46 177.45 508.46 184.78 506.89 176.58 498.69 175.05 506 171.02"/><polygon class="cls-1" points="490.06 292.94 493.46 287.17 494.94 293.7 501.48 295.14 495.73 298.57 496.37 305.23 491.34 300.82 485.2 303.5 487.84 297.34 483.4 292.33 490.06 292.94"/><polygon class="cls-1" points="499.15 223.78 500.66 219.76 502.93 223.41 507.22 223.6 504.45 226.89 505.6 231.03 501.62 229.42 498.03 231.78 498.34 227.5 494.98 224.82 499.15 223.78"/><polygon class="cls-1" points="426.88 363.83 428.8 359.99 430.68 363.86 434.92 364.51 431.82 367.48 432.51 371.72 428.73 369.69 424.91 371.66 425.67 367.43 422.62 364.41 426.88 363.83"/><polygon class="cls-1" points="440.89 318.4 440.32 312.73 444.62 316.47 449.84 314.18 447.61 319.43 451.4 323.68 445.72 323.18 442.85 328.1 441.57 322.55 436 321.34 440.89 318.4"/><polygon class="cls-1" points="737.81 392.61 740.88 389.61 741.4 393.87 745.2 395.86 741.3 397.67 740.59 401.9 737.66 398.76 733.42 399.38 735.5 395.63 733.6 391.78 737.81 392.61"/><polygon class="cls-1" points="801.16 379.66 802.66 374.16 805.34 379.19 811.03 378.92 807.07 383.02 809.09 388.35 803.97 385.85 799.52 389.42 800.31 383.78 795.55 380.65 801.16 379.66"/><polygon class="cls-1" points="752.5 329.44 750.83 322.96 756.49 326.54 762.14 322.95 760.49 329.43 765.64 333.7 758.97 334.13 756.5 340.36 754.03 334.14 747.35 333.72 752.5 329.44"/><polygon class="cls-1" points="773.88 269.26 776.52 264.21 778.06 269.7 783.68 270.65 778.94 273.81 779.77 279.45 775.3 275.91 770.19 278.44 772.17 273.1 768.19 269.02 773.88 269.26"/><polygon class="cls-1" points="584.29 89.24 586.33 82.86 589.22 88.9 595.91 88.87 591.06 93.48 593.15 99.84 587.27 96.65 581.87 100.61 583.09 94.02 577.66 90.11 584.29 89.24"/><polygon class="cls-1" points="729.41 163.85 733.97 156.86 734.88 165.15 742.94 167.33 735.34 170.76 735.76 179.1 730.14 172.93 722.34 175.9 726.48 168.65 721.24 162.16 729.41 163.85"/><polygon class="cls-1" points="691.7 420.45 691.35 416.17 694.96 418.5 698.92 416.84 697.83 420.99 700.62 424.25 696.34 424.49 694.1 428.15 692.55 424.15 688.37 423.16 691.7 420.45"/><polygon class="cls-1" points="696.02 203.49 699.37 200.81 699.46 205.11 703.04 207.47 698.99 208.88 697.85 213.02 695.26 209.6 690.97 209.79 693.42 206.27 691.91 202.25 696.02 203.49"/><polygon class="cls-1" points="526.92 106.64 531.2 99.48 532.44 107.73 540.58 109.59 533.12 113.32 533.86 121.63 528.01 115.69 520.33 118.97 524.18 111.56 518.69 105.28 526.92 106.64"/><polygon class="cls-1" points="449.81 151.2 452.13 144.92 454.75 151.08 461.44 151.34 456.39 155.74 458.21 162.18 452.47 158.74 446.9 162.46 448.41 155.93 443.15 151.79 449.81 151.2"/><polygon class="cls-1" points="479.14 119.95 480.12 115.77 482.84 119.09 487.12 118.72 484.81 122.34 486.47 126.3 482.32 125.22 479.07 128.02 478.82 123.74 475.14 121.52 479.14 119.95"/><polygon class="cls-1" points="444.86 81.96 443.67 76.38 448.36 79.63 453.29 76.77 451.65 82.23 455.89 86.04 450.19 86.17 447.88 91.38 446 86 440.33 85.41 444.86 81.96"/><polygon class="cls-1" points="543.85 60.02 544.17 55.74 547.37 58.6 551.54 57.59 549.81 61.52 552.07 65.17 547.79 64.74 545.01 68.01 544.11 63.81 540.13 62.18 543.85 60.02"/><polygon class="cls-1" points="629.07 66.5 626.7 58.49 633.61 63.17 640.49 58.44 638.18 66.46 644.8 71.54 636.46 71.82 633.68 79.69 630.83 71.84 622.49 71.63 629.07 66.5"/><polygon class="cls-1" points="619.63 129.01 621.59 120.9 625.23 128.41 633.55 127.77 627.53 133.55 630.71 141.26 623.36 137.32 617 142.74 618.47 134.52 611.36 130.15 619.63 129.01"/><polygon class="cls-1" points="679.16 92.43 679.69 89.3 681.85 91.63 684.99 91.16 683.45 93.94 684.86 96.78 681.74 96.17 679.48 98.39 679.09 95.24 676.28 93.77 679.16 92.43"/><polygon class="cls-1" points="691 136.47 694.5 133.99 694.34 138.28 697.79 140.84 693.66 142.01 692.28 146.08 689.89 142.52 685.6 142.47 688.25 139.09 686.97 134.99 691 136.47"/><polygon class="cls-1" points="728 86.7 730.3 81.48 732.21 86.85 737.87 87.42 733.36 90.89 734.56 96.46 729.87 93.24 724.94 96.11 726.56 90.64 722.31 86.85 728 86.7"/><polygon class="cls-1" points="765.94 48.23 768.26 41.95 770.88 48.11 777.57 48.37 772.52 52.76 774.34 59.21 768.6 55.76 763.03 59.48 764.53 52.96 759.27 48.82 765.94 48.23"/><polygon class="cls-1" points="832.07 191.99 835.24 186.09 836.97 192.56 843.56 193.75 837.94 197.4 838.85 204.03 833.64 199.82 827.61 202.73 830.01 196.48 825.38 191.64 832.07 191.99"/><polygon class="cls-1" points="797.9 229.16 800.29 223.98 802.1 229.39 807.76 230.06 803.18 233.45 804.29 239.04 799.65 235.73 794.68 238.51 796.39 233.08 792.21 229.21 797.9 229.16"/><polygon class="cls-1" points="806.89 87.94 807.74 83.73 810.56 86.97 814.83 86.48 812.62 90.16 814.4 94.07 810.22 93.11 807.05 96.01 806.68 91.73 802.94 89.62 806.89 87.94"/><polygon class="cls-1" points="811.2 135.8 818.32 131.44 815.58 139.33 821.92 144.76 813.57 144.59 810.37 152.3 807.95 144.31 799.63 143.64 806.48 138.87 804.54 130.75 811.2 135.8"/><polygon class="cls-1" points="825.83 280.29 832.81 275.71 830.32 283.68 836.83 288.91 828.48 289 825.52 296.81 822.86 288.9 814.52 288.5 821.22 283.51 819.02 275.46 825.83 280.29"/><polygon class="cls-1" points="533.67 253.46 535.71 247.09 538.6 253.13 545.29 253.1 540.44 257.71 542.54 264.06 536.65 260.88 531.25 264.83 532.47 258.25 527.04 254.34 533.67 253.46"/><polygon class="cls-1" points="151.07 522.96 152.47 520.11 153.88 522.96 157.02 523.41 154.74 525.63 155.28 528.76 152.47 527.28 149.66 528.75 150.2 525.63 147.93 523.41 151.07 522.96"/><polygon class="cls-1" points="242.02 549.35 243.66 546.63 244.81 549.59 247.9 550.31 245.45 552.32 245.72 555.49 243.05 553.77 240.12 555.01 240.92 551.93 238.85 549.53 242.02 549.35"/><polygon class="cls-1" points="78.78 442.27 81.25 440.28 81.33 443.45 83.98 445.18 80.99 446.24 80.17 449.3 78.24 446.79 75.07 446.95 76.87 444.33 75.73 441.37 78.78 442.27"/><polygon class="cls-1" points="51.53 576.71 54.25 575.07 53.9 578.23 56.3 580.3 53.19 580.94 51.96 583.87 50.39 581.11 47.23 580.84 49.37 578.49 48.64 575.4 51.53 576.71"/><polygon class="cls-1" points="224.09 593.47 227.07 592.37 226.13 595.4 228.09 597.9 224.92 597.94 223.15 600.57 222.13 597.57 219.08 596.7 221.62 594.8 221.5 591.63 224.09 593.47"/><polygon class="cls-1" points="340.46 500.82 343.44 499.73 342.5 502.76 344.46 505.25 341.29 505.29 339.52 507.93 338.5 504.92 335.45 504.05 338 502.16 337.88 498.99 340.46 500.82"/><polygon class="cls-1" points="142.31 575.33 144.97 573.61 144.72 576.77 147.18 578.77 144.09 579.51 142.95 582.47 141.29 579.76 138.13 579.58 140.19 577.17 139.38 574.11 142.31 575.33"/><polygon class="cls-1" points="225.34 664.84 227.13 662.22 228.12 665.24 231.16 666.13 228.6 668 228.69 671.18 226.12 669.32 223.13 670.38 224.1 667.36 222.16 664.85 225.34 664.84"/><polygon class="cls-1" points="361.49 567.77 364.15 566.05 363.9 569.21 366.36 571.21 363.27 571.95 362.13 574.91 360.47 572.2 357.31 572.02 359.37 569.61 358.56 566.55 361.49 567.77"/><polygon class="cls-1" points="310.16 666.25 312.82 664.53 312.57 667.7 315.03 669.7 311.94 670.43 310.79 673.39 309.14 670.68 305.97 670.51 308.04 668.1 307.23 665.03 310.16 666.25"/><polygon class="cls-1" points="389.59 708.55 391.23 705.83 392.39 708.79 395.48 709.51 393.02 711.52 393.29 714.68 390.62 712.98 387.69 714.21 388.5 711.14 386.42 708.74 389.59 708.55"/><polygon class="cls-1" points="125.78 693.34 127.42 690.63 128.58 693.58 131.67 694.3 129.22 696.32 129.49 699.48 126.81 697.77 123.89 699 124.69 695.93 122.61 693.53 125.78 693.34"/><polygon class="cls-1" points="206.28 706.76 207.92 704.04 209.08 707 212.16 707.72 209.71 709.73 209.98 712.9 207.31 711.18 204.38 712.41 205.18 709.35 203.11 706.95 206.28 706.76"/><polygon class="cls-1" points="298.14 729.41 300.27 727.06 300.84 730.18 303.73 731.48 300.94 732.99 300.6 736.14 298.3 733.95 295.19 734.6 296.57 731.74 294.99 728.99 298.14 729.41"/><polygon class="cls-1" points="225.01 780.06 225.34 776.9 227.65 779.08 230.75 778.42 229.39 781.28 230.98 784.03 227.83 783.62 225.72 785.99 225.13 782.87 222.23 781.58 225.01 780.06"/><polygon class="cls-1" points="111.58 768.48 115.18 766.14 114.85 770.42 118.19 773.12 114.01 774.13 112.48 778.14 110.23 774.48 105.94 774.26 108.73 770.99 107.61 766.84 111.58 768.48"/><polygon class="cls-1" points="270.99 685.85 274.59 683.5 274.25 687.79 277.59 690.49 273.42 691.49 271.88 695.5 269.63 691.85 265.35 691.62 268.13 688.35 267.02 684.21 270.99 685.85"/><polygon class="cls-1" points="328.35 617.73 331.18 614.5 332.02 618.72 335.96 620.41 332.21 622.51 331.82 626.79 328.67 623.87 324.48 624.82 326.27 620.92 324.08 617.23 328.35 617.73"/><polygon class="cls-1" points="419.23 800.47 420.49 797.56 422.03 800.33 425.19 800.64 423.03 802.96 423.71 806.06 420.84 804.72 418.1 806.33 418.49 803.18 416.11 801.08 419.23 800.47"/><polygon class="cls-1" points="243.24 742.54 245.45 736.23 248.17 742.34 254.86 742.49 249.89 746.97 251.82 753.38 246.02 750.03 240.52 753.85 241.91 747.3 236.58 743.25 243.24 742.54"/><polygon class="cls-1" points="167.71 661.57 170.75 653.8 173.34 661.74 181.67 662.23 174.92 667.14 177.03 675.21 170.27 670.31 163.25 674.81 165.82 666.87 159.37 661.58 167.71 661.57"/><polygon class="cls-1" points="163.2 732.99 163.74 724.66 168.61 731.43 176.7 729.36 171.77 736.09 176.23 743.15 168.3 740.53 162.98 746.96 163.01 738.61 155.25 735.53 163.2 732.99"/><polygon class="cls-1" points="78.53 726.43 80.73 718.38 84.14 725.99 92.48 725.6 86.29 731.2 89.24 739.01 82 734.85 75.48 740.07 77.2 731.9 70.23 727.31 78.53 726.43"/><polygon class="cls-1" points="47.89 783.4 46.58 776.84 52.03 780.72 57.87 777.45 55.86 783.83 60.78 788.37 54.09 788.44 51.29 794.52 49.16 788.17 42.51 787.39 47.89 783.4"/><polygon class="cls-1" points="166.38 780.03 169.43 777.01 169.98 781.27 173.8 783.23 169.91 785.07 169.23 789.3 166.28 786.18 162.04 786.84 164.1 783.07 162.16 779.24 166.38 780.03"/><polygon class="cls-1" points="184.9 615.28 188.94 613.81 187.65 617.91 190.29 621.29 186 621.33 183.6 624.89 182.24 620.83 178.11 619.64 181.56 617.08 181.41 612.79 184.9 615.28"/><polygon class="cls-1" points="185.71 562.6 188.09 559.03 189.47 563.1 193.61 564.26 190.17 566.83 190.34 571.12 186.83 568.65 182.8 570.14 184.07 566.04 181.41 562.67 185.71 562.6"/><polygon class="cls-1" points="32.81 629.98 36.89 622.7 38.37 630.91 46.55 632.54 39.2 636.48 40.18 644.77 34.16 638.99 26.58 642.49 30.21 634.97 24.55 628.85 32.81 629.98"/><polygon class="cls-1" points="264.56 622.42 271.54 617.84 269.05 625.81 275.56 631.04 267.21 631.13 264.26 638.94 261.59 631.03 253.25 630.63 259.95 625.64 257.75 617.59 264.56 622.42"/><polygon class="cls-1" points="90.22 551.31 89.14 543.03 95.23 548.75 102.77 545.16 99.22 552.72 104.95 558.78 96.67 557.74 92.68 565.07 91.11 556.87 82.91 555.34 90.22 551.31"/><polygon class="cls-1" points="74.28 673.23 77.67 667.46 79.16 673.99 85.69 675.43 79.94 678.86 80.59 685.52 75.55 681.11 69.42 683.79 72.05 677.63 67.61 672.62 74.28 673.23"/><polygon class="cls-1" points="83.36 604.07 84.87 600.05 87.15 603.7 91.44 603.89 88.67 607.18 89.81 611.32 85.83 609.71 82.25 612.07 82.55 607.78 79.2 605.11 83.36 604.07"/><polygon class="cls-1" points="11.09 744.12 13.02 740.28 14.89 744.15 19.14 744.8 16.04 747.77 16.73 752.01 12.95 749.98 9.13 751.95 9.89 747.72 6.84 744.7 11.09 744.12"/><polygon class="cls-1" points="25.1 698.69 24.54 693.02 28.84 696.76 34.05 694.47 31.83 699.72 35.62 703.97 29.94 703.47 27.07 708.39 25.79 702.84 20.22 701.63 25.1 698.69"/><polygon class="cls-1" points="322.03 772.9 325.1 769.89 325.61 774.16 329.42 776.15 325.52 777.96 324.81 782.19 321.88 779.05 317.63 779.67 319.72 775.92 317.81 772.07 322.03 772.9"/><polygon class="cls-1" points="385.38 759.95 386.87 754.45 389.55 759.48 395.24 759.21 391.29 763.31 393.31 768.64 388.19 766.14 383.74 769.71 384.53 764.07 379.76 760.94 385.38 759.95"/><polygon class="cls-1" points="336.71 709.73 335.05 703.25 340.7 706.83 346.35 703.24 344.7 709.72 349.86 713.99 343.18 714.42 340.72 720.64 338.25 714.43 331.56 714.01 336.71 709.73"/><polygon class="cls-1" points="358.1 649.55 360.74 644.5 362.28 649.99 367.9 650.94 363.15 654.1 363.98 659.74 359.51 656.2 354.41 658.73 356.39 653.39 352.4 649.32 358.1 649.55"/><polygon class="cls-1" points="168.51 469.52 170.55 463.15 173.43 469.19 180.13 469.16 175.27 473.77 177.37 480.13 171.49 476.94 166.09 480.9 167.31 474.31 161.87 470.4 168.51 469.52"/><polygon class="cls-1" points="313.62 544.14 318.18 537.15 319.1 545.44 327.16 547.62 319.55 551.05 319.97 559.39 314.36 553.22 306.56 556.19 310.69 548.94 305.45 542.45 313.62 544.14"/><polygon class="cls-1" points="275.92 800.74 275.57 796.46 279.18 798.78 283.14 797.13 282.04 801.28 284.84 804.54 280.55 804.78 278.32 808.45 276.77 804.44 272.59 803.45 275.92 800.74"/><polygon class="cls-1" points="280.23 583.78 283.59 581.1 283.68 585.4 287.26 587.76 283.2 589.17 282.07 593.31 279.47 589.89 275.18 590.08 277.64 586.56 276.12 582.54 280.23 583.78"/><polygon class="cls-1" points="111.14 486.93 115.42 479.77 116.66 488.02 124.8 489.88 117.33 493.61 118.08 501.92 112.22 495.98 104.55 499.26 108.39 491.85 102.9 485.56 111.14 486.93"/><polygon class="cls-1" points="34.03 531.49 36.35 525.21 38.97 531.37 45.66 531.63 40.61 536.03 42.43 542.47 36.69 539.02 31.12 542.75 32.62 536.22 27.36 532.08 34.03 531.49"/><polygon class="cls-1" points="63.36 500.24 64.33 496.06 67.06 499.38 71.34 499.01 69.02 502.63 70.69 506.59 66.53 505.5 63.28 508.31 63.03 504.03 59.36 501.8 63.36 500.24"/><polygon class="cls-1" points="29.08 462.25 27.89 456.67 32.57 459.91 37.51 457.06 35.87 462.52 40.11 466.33 34.41 466.46 32.1 471.67 30.21 466.29 24.55 465.7 29.08 462.25"/><polygon class="cls-1" points="128.06 440.31 128.39 436.03 131.59 438.89 135.76 437.88 134.03 441.81 136.28 445.46 132.01 445.03 129.23 448.3 128.32 444.1 124.35 442.47 128.06 440.31"/><polygon class="cls-1" points="213.29 446.79 210.91 438.78 217.83 443.46 224.71 438.73 222.4 446.75 229.02 451.82 220.68 452.11 217.9 459.98 215.05 452.13 206.71 451.92 213.29 446.79"/><polygon class="cls-1" points="203.85 509.3 205.81 501.19 209.44 508.7 217.76 508.06 211.75 513.84 214.93 521.55 207.57 517.61 201.22 523.03 202.69 514.81 195.58 510.44 203.85 509.3"/><polygon class="cls-1" points="263.38 472.72 263.9 469.59 266.07 471.92 269.2 471.45 267.66 474.23 269.07 477.07 265.96 476.46 263.69 478.68 263.31 475.53 260.5 474.06 263.38 472.72"/><polygon class="cls-1" points="275.22 516.76 278.72 514.27 278.56 518.57 282.01 521.13 277.87 522.3 276.5 526.37 274.11 522.81 269.81 522.76 272.46 519.38 271.19 515.28 275.22 516.76"/><polygon class="cls-1" points="312.22 466.99 314.52 461.77 316.42 467.14 322.09 467.71 317.57 471.18 318.78 476.75 314.08 473.53 309.16 476.4 310.78 470.93 306.52 467.14 312.22 466.99"/><polygon class="cls-1" points="350.16 428.52 352.47 422.24 355.1 428.4 361.78 428.66 356.73 433.05 358.55 439.5 352.81 436.05 347.25 439.77 348.75 433.25 343.49 429.11 350.16 428.52"/><polygon class="cls-1" points="416.28 572.28 419.45 566.38 421.19 572.85 427.77 574.04 422.16 577.69 423.06 584.32 417.86 580.11 411.83 583.02 414.23 576.77 409.6 571.93 416.28 572.28"/><polygon class="cls-1" points="382.12 609.45 384.51 604.27 386.32 609.68 391.98 610.35 387.4 613.74 388.51 619.33 383.87 616.02 378.89 618.8 380.61 613.37 376.42 609.5 382.12 609.45"/><polygon class="cls-1" points="391.1 468.23 391.96 464.02 394.78 467.26 399.05 466.77 396.84 470.45 398.62 474.36 394.44 473.4 391.27 476.3 390.89 472.02 387.15 469.91 391.1 468.23"/><polygon class="cls-1" points="395.41 516.09 402.54 511.73 399.79 519.62 406.13 525.05 397.79 524.88 394.58 532.59 392.17 524.6 383.85 523.93 390.7 519.16 388.76 511.04 395.41 516.09"/><polygon class="cls-1" points="410.05 660.58 417.03 656 414.54 663.97 421.05 669.2 412.7 669.29 409.74 677.1 407.07 669.19 398.74 668.79 405.43 663.8 403.24 655.75 410.05 660.58"/><polygon class="cls-1" points="117.89 633.75 119.93 627.38 122.82 633.42 129.51 633.39 124.66 638 126.75 644.36 120.87 641.16 115.47 645.12 116.69 638.54 111.25 634.63 117.89 633.75"/><polygon class="cls-1" points="566.85 522.96 568.26 520.11 569.66 522.96 572.8 523.41 570.53 525.63 571.06 528.76 568.25 527.28 565.44 528.75 565.98 525.63 563.71 523.41 566.85 522.96"/><polygon class="cls-1" points="657.8 549.35 659.44 546.63 660.6 549.59 663.69 550.31 661.23 552.32 661.5 555.49 658.83 553.77 655.9 555.01 656.71 551.93 654.63 549.53 657.8 549.35"/><polygon class="cls-1" points="494.56 442.27 497.03 440.28 497.11 443.45 499.77 445.18 496.78 446.24 495.95 449.3 494.02 446.79 490.85 446.95 492.65 444.33 491.52 441.37 494.56 442.27"/><polygon class="cls-1" points="467.32 576.71 470.03 575.07 469.69 578.23 472.08 580.3 468.98 580.94 467.75 583.87 466.17 581.11 463.01 580.84 465.15 578.49 464.43 575.4 467.32 576.71"/><polygon class="cls-1" points="639.88 593.47 642.86 592.37 641.91 595.4 643.87 597.9 640.7 597.94 638.93 600.57 637.91 597.57 634.86 596.7 637.41 594.8 637.29 591.63 639.88 593.47"/><polygon class="cls-1" points="756.25 500.82 759.23 499.73 758.28 502.76 760.24 505.25 757.07 505.29 755.3 507.93 754.29 504.92 751.23 504.05 753.78 502.16 753.66 498.99 756.25 500.82"/><polygon class="cls-1" points="558.09 575.33 560.76 573.61 560.5 576.77 562.96 578.77 559.88 579.51 558.73 582.47 557.08 579.76 553.91 579.58 555.98 577.17 555.16 574.11 558.09 575.33"/><polygon class="cls-1" points="641.12 664.84 642.91 662.22 643.9 665.24 646.95 666.13 644.38 668 644.47 671.18 641.9 669.32 638.91 670.38 639.88 667.36 637.95 664.85 641.12 664.84"/><polygon class="cls-1" points="777.27 567.77 779.94 566.05 779.68 569.21 782.14 571.21 779.05 571.95 777.91 574.91 776.26 572.2 773.09 572.02 775.16 569.61 774.34 566.55 777.27 567.77"/><polygon class="cls-1" points="725.94 666.25 728.61 664.53 728.35 667.7 730.81 669.7 727.72 670.43 726.58 673.39 724.92 670.68 721.76 670.51 723.82 668.1 723.01 665.03 725.94 666.25"/><polygon class="cls-1" points="805.37 708.55 807.01 705.83 808.17 708.79 811.26 709.51 808.81 711.52 809.08 714.68 806.4 712.98 803.48 714.21 804.28 711.14 802.21 708.74 805.37 708.55"/><polygon class="cls-1" points="541.57 693.34 543.21 690.63 544.36 693.58 547.45 694.3 545 696.32 545.27 699.48 542.6 697.77 539.67 699 540.47 695.93 538.4 693.53 541.57 693.34"/><polygon class="cls-1" points="622.06 706.76 623.7 704.04 624.86 707 627.95 707.72 625.5 709.73 625.76 712.9 623.09 711.18 620.16 712.41 620.97 709.35 618.89 706.95 622.06 706.76"/><polygon class="cls-1" points="713.92 729.41 716.05 727.06 716.62 730.18 719.51 731.48 716.72 732.99 716.38 736.14 714.09 733.95 710.98 734.6 712.35 731.74 710.77 728.99 713.92 729.41"/><polygon class="cls-1" points="640.79 780.06 641.12 776.9 643.43 779.08 646.53 778.42 645.17 781.28 646.76 784.03 643.62 783.62 641.5 785.99 640.91 782.87 638.01 781.58 640.79 780.06"/><polygon class="cls-1" points="527.36 768.48 530.96 766.14 530.63 770.42 533.97 773.12 529.79 774.13 528.26 778.14 526.01 774.48 521.72 774.26 524.51 770.99 523.39 766.84 527.36 768.48"/><polygon class="cls-1" points="686.77 685.85 690.37 683.5 690.04 687.79 693.38 690.49 689.2 691.49 687.67 695.5 685.42 691.85 681.13 691.62 683.91 688.35 682.8 684.21 686.77 685.85"/><polygon class="cls-1" points="744.13 617.73 746.96 614.5 747.8 618.72 751.74 620.41 748 622.51 747.6 626.79 744.45 623.87 740.26 624.82 742.06 620.92 739.87 617.23 744.13 617.73"/><polygon class="cls-1" points="835.01 800.47 836.28 797.56 837.82 800.33 840.98 800.64 838.81 802.96 839.5 806.06 836.62 804.72 833.89 806.33 834.27 803.18 831.9 801.08 835.01 800.47"/><polygon class="cls-1" points="659.02 742.54 661.23 736.23 663.95 742.34 670.64 742.49 665.67 746.97 667.6 753.38 661.8 750.03 656.3 753.85 657.69 747.3 652.37 743.25 659.02 742.54"/><polygon class="cls-1" points="583.5 661.57 586.54 653.8 589.12 661.74 597.46 662.23 590.71 667.14 592.81 675.21 586.06 670.31 579.03 674.81 581.6 666.87 575.15 661.58 583.5 661.57"/><polygon class="cls-1" points="578.99 732.99 579.52 724.66 584.4 731.43 592.48 729.36 587.55 736.09 592.01 743.15 584.09 740.53 578.76 746.96 578.79 738.61 571.04 735.53 578.99 732.99"/><polygon class="cls-1" points="494.31 726.43 496.52 718.38 499.93 725.99 508.26 725.6 502.07 731.2 505.02 739.01 497.78 734.85 491.27 740.07 492.99 731.9 486.01 727.31 494.31 726.43"/><polygon class="cls-1" points="463.67 783.4 462.36 776.84 467.82 780.72 473.65 777.45 471.65 783.83 476.56 788.37 469.87 788.44 467.07 794.52 464.94 788.17 458.3 787.39 463.67 783.4"/><polygon class="cls-1" points="582.16 780.03 585.21 777.01 585.76 781.27 589.58 783.23 585.7 785.07 585.01 789.3 582.07 786.18 577.82 786.84 579.88 783.07 577.94 779.24 582.16 780.03"/><polygon class="cls-1" points="600.69 615.28 604.72 613.81 603.43 617.91 606.08 621.29 601.78 621.33 599.39 624.89 598.02 620.83 593.89 619.64 597.34 617.08 597.19 612.79 600.69 615.28"/><polygon class="cls-1" points="601.49 562.6 603.87 559.03 605.26 563.1 609.39 564.26 605.95 566.83 606.13 571.12 602.62 568.65 598.59 570.14 599.86 566.04 597.2 562.67 601.49 562.6"/><polygon class="cls-1" points="448.6 629.98 452.67 622.7 454.15 630.91 462.34 632.54 454.98 636.48 455.96 644.77 449.94 638.99 442.36 642.49 446 634.97 440.33 628.85 448.6 629.98"/><polygon class="cls-1" points="680.34 622.42 687.33 617.84 684.84 625.81 691.34 631.04 683 631.13 680.04 638.94 677.37 631.03 669.03 630.63 675.73 625.64 673.53 617.59 680.34 622.42"/><polygon class="cls-1" points="506 551.31 504.93 543.03 511.01 548.75 518.55 545.16 515 552.72 520.74 558.78 512.46 557.74 508.46 565.07 506.89 556.87 498.69 555.34 506 551.31"/><polygon class="cls-1" points="490.06 673.23 493.46 667.46 494.94 673.99 501.48 675.43 495.73 678.86 496.37 685.52 491.34 681.11 485.2 683.79 487.84 677.63 483.4 672.62 490.06 673.23"/><polygon class="cls-1" points="499.15 604.07 500.66 600.05 502.93 603.7 507.22 603.89 504.45 607.18 505.6 611.32 501.62 609.71 498.03 612.07 498.34 607.78 494.98 605.11 499.15 604.07"/><polygon class="cls-1" points="426.88 744.12 428.8 740.28 430.68 744.15 434.92 744.8 431.82 747.77 432.51 752.01 428.73 749.98 424.91 751.95 425.67 747.72 422.62 744.7 426.88 744.12"/><polygon class="cls-1" points="440.89 698.69 440.32 693.02 444.62 696.76 449.84 694.47 447.61 699.72 451.4 703.97 445.72 703.47 442.85 708.39 441.57 702.84 436 701.63 440.89 698.69"/><polygon class="cls-1" points="737.81 772.9 740.88 769.89 741.4 774.16 745.2 776.15 741.3 777.96 740.59 782.19 737.66 779.05 733.42 779.67 735.5 775.92 733.6 772.07 737.81 772.9"/><polygon class="cls-1" points="801.16 759.95 802.66 754.45 805.34 759.48 811.03 759.21 807.07 763.31 809.09 768.64 803.97 766.14 799.52 769.71 800.31 764.07 795.55 760.94 801.16 759.95"/><polygon class="cls-1" points="752.5 709.73 750.83 703.25 756.49 706.83 762.14 703.24 760.49 709.72 765.64 713.99 758.97 714.42 756.5 720.64 754.03 714.43 747.35 714.01 752.5 709.73"/><polygon class="cls-1" points="773.88 649.55 776.52 644.5 778.06 649.99 783.68 650.94 778.94 654.1 779.77 659.74 775.3 656.2 770.19 658.73 772.17 653.39 768.19 649.32 773.88 649.55"/><polygon class="cls-1" points="584.29 469.52 586.33 463.15 589.22 469.19 595.91 469.16 591.06 473.77 593.15 480.13 587.27 476.94 581.87 480.9 583.09 474.31 577.66 470.4 584.29 469.52"/><polygon class="cls-1" points="729.41 544.14 733.97 537.15 734.88 545.44 742.94 547.62 735.34 551.05 735.76 559.39 730.14 553.22 722.34 556.19 726.48 548.94 721.24 542.45 729.41 544.14"/><polygon class="cls-1" points="691.7 800.74 691.35 796.46 694.96 798.78 698.92 797.13 697.83 801.28 700.62 804.54 696.34 804.78 694.1 808.45 692.55 804.44 688.37 803.45 691.7 800.74"/><polygon class="cls-1" points="696.02 583.78 699.37 581.1 699.46 585.4 703.04 587.76 698.99 589.17 697.85 593.31 695.26 589.89 690.97 590.08 693.42 586.56 691.91 582.54 696.02 583.78"/><polygon class="cls-1" points="526.92 486.93 531.2 479.77 532.44 488.02 540.58 489.88 533.12 493.61 533.86 501.92 528.01 495.98 520.33 499.26 524.18 491.85 518.69 485.56 526.92 486.93"/><polygon class="cls-1" points="449.81 531.49 452.13 525.21 454.75 531.37 461.44 531.63 456.39 536.03 458.21 542.47 452.47 539.02 446.9 542.75 448.41 536.22 443.15 532.08 449.81 531.49"/><polygon class="cls-1" points="479.14 500.24 480.12 496.06 482.84 499.38 487.12 499.01 484.81 502.63 486.47 506.59 482.32 505.5 479.07 508.31 478.82 504.03 475.14 501.8 479.14 500.24"/><polygon class="cls-1" points="444.86 462.25 443.67 456.67 448.36 459.91 453.29 457.06 451.65 462.52 455.89 466.33 450.19 466.46 447.88 471.67 446 466.29 440.33 465.7 444.86 462.25"/><polygon class="cls-1" points="543.85 440.31 544.17 436.03 547.37 438.89 551.54 437.88 549.81 441.81 552.07 445.46 547.79 445.03 545.01 448.3 544.11 444.1 540.13 442.47 543.85 440.31"/><polygon class="cls-1" points="629.07 446.79 626.7 438.78 633.61 443.46 640.49 438.73 638.18 446.75 644.8 451.82 636.46 452.11 633.68 459.98 630.83 452.13 622.49 451.92 629.07 446.79"/><polygon class="cls-1" points="619.63 509.3 621.59 501.19 625.23 508.7 633.55 508.06 627.53 513.84 630.71 521.55 623.36 517.61 617 523.03 618.47 514.81 611.36 510.44 619.63 509.3"/><polygon class="cls-1" points="679.16 472.72 679.69 469.59 681.85 471.92 684.99 471.45 683.45 474.23 684.86 477.07 681.74 476.46 679.48 478.68 679.09 475.53 676.28 474.06 679.16 472.72"/><polygon class="cls-1" points="691 516.76 694.5 514.27 694.34 518.57 697.79 521.13 693.66 522.3 692.28 526.37 689.89 522.81 685.6 522.76 688.25 519.38 686.97 515.28 691 516.76"/><polygon class="cls-1" points="728 466.99 730.3 461.77 732.21 467.14 737.87 467.71 733.36 471.18 734.56 476.75 729.87 473.53 724.94 476.4 726.56 470.93 722.31 467.14 728 466.99"/><polygon class="cls-1" points="765.94 428.52 768.26 422.24 770.88 428.4 777.57 428.66 772.52 433.05 774.34 439.5 768.6 436.05 763.03 439.77 764.53 433.25 759.27 429.11 765.94 428.52"/><polygon class="cls-1" points="832.07 572.28 835.24 566.38 836.97 572.85 843.56 574.04 837.94 577.69 838.85 584.32 833.64 580.11 827.61 583.02 830.01 576.77 825.38 571.93 832.07 572.28"/><polygon class="cls-1" points="797.9 609.45 800.29 604.27 802.1 609.68 807.76 610.35 803.18 613.74 804.29 619.33 799.65 616.02 794.68 618.8 796.39 613.37 792.21 609.5 797.9 609.45"/><polygon class="cls-1" points="806.89 468.23 807.74 464.02 810.56 467.26 814.83 466.77 812.62 470.45 814.4 474.36 810.22 473.4 807.05 476.3 806.68 472.02 802.94 469.91 806.89 468.23"/><polygon class="cls-1" points="811.2 516.09 818.32 511.73 815.58 519.62 821.92 525.05 813.57 524.88 810.37 532.59 807.95 524.6 799.63 523.93 806.48 519.16 804.54 511.04 811.2 516.09"/><polygon class="cls-1" points="825.83 660.58 832.81 656 830.32 663.97 836.83 669.2 828.48 669.29 825.52 677.1 822.86 669.19 814.52 668.79 821.22 663.8 819.02 655.75 825.83 660.58"/><polygon class="cls-1" points="533.67 633.75 535.71 627.38 538.6 633.42 545.29 633.39 540.44 638 542.54 644.36 536.65 641.16 531.25 645.12 532.47 638.54 527.04 634.63 533.67 633.75"/></svg>