<svg xmlns="http://www.w3.org/2000/svg" viewBox="0 0 850.39 850.39"><defs><style>.cls-1{fill:#1d1d1b;fill-rule:evenodd;}</style></defs><g id="Capa_2" data-name="Capa 2"><path class="cls-1" d="M115.88,397.35A84.94,84.94,0,0,1,126,390.88c5.25-2.65,10.71-3.77,10.64-1.9-.13,3.49-6.83,8.68-9.34,11.32-1.85,1.94-5.81-1-5.81-1a2.07,2.07,0,0,1,.15.25,5.27,5.27,0,0,1-1,6.67,20.82,20.82,0,0,1-2.57,2.12,10,10,0,0,1-3.62,1.55c-.88,0-2.27-.1-2.87-.84s-.2-2.25-.09-3.15a15.15,15.15,0,0,1,.76-3.14,9.68,9.68,0,0,1,.65-2.06c.32-.53.85-.76,1.28-1.17A26.93,26.93,0,0,0,115.88,397.35Z"/><path class="cls-1" d="M117.62,393.32a.9.9,0,0,0,.3,1.28,1.06,1.06,0,0,0,1.4,0,.9.9,0,0,0-.31-1.27A1,1,0,0,0,117.62,393.32Z"/><path class="cls-1" d="M109.59,404.14c.74.16,8.82-8.46,8.82-8.46s.26-1-.28-1.29a1.11,1.11,0,0,0-1.11,0S108.86,404,109.59,404.14Z"/><path class="cls-1" d="M116.22,395.64s1.15-4.54-1.18-12.32-4.86-8.71-4.86-8.71-.69-.07-1,.19a3.15,3.15,0,0,0-.76,1.3c-.17.55-.88,3-1,3.6a12.35,12.35,0,0,1-1,3.37c-.39.9-1.35,2.21-1.36,3.2,0,.61-.38.77,0,1.44a6.07,6.07,0,0,0,2.56,2.11,3.75,3.75,0,0,1,1.93,1.81c-1.42-.33-2.9-.5-4.34-.89a4.87,4.87,0,0,0-3.65.9,4.13,4.13,0,0,0-.84,1.54,7.2,7.2,0,0,0-.57,3.82,5.64,5.64,0,0,0,.59,2.41,7.91,7.91,0,0,0,2,2.84,5.7,5.7,0,0,0,2.44.63,4.13,4.13,0,0,0,2.1-.69l7-3.56c.06,0,.27-.1.3-.15Z"/><path class="cls-1" d="M76.23,278.58a100.71,100.71,0,0,1-11.74-9.29c-5.26-5.17-8.84-11.39-6.62-12.25,4.11-1.6,12.94,4.09,17.06,5.87,3,1.31,1.23,7.72,1.23,7.72a3.55,3.55,0,0,1,.23-.31c2.26-2.8,5.23-3.65,8.18-2.2a24.82,24.82,0,0,1,3.53,2.12A12.15,12.15,0,0,1,91.41,274c.4,1.07.83,2.86.21,4s-2.54,1.38-3.64,1.71a18.66,18.66,0,0,1-4,.64,10.89,10.89,0,0,1-2.66.24,7.68,7.68,0,0,1-1.9-1A25.19,25.19,0,0,0,76.23,278.58Z"/><path class="cls-1" d="M70.82,278.46c.53.2,1.14-.26,1.35-1a1.4,1.4,0,0,0-.57-1.74c-.53-.2-1.14.26-1.36,1A1.41,1.41,0,0,0,70.82,278.46Z"/><path class="cls-1" d="M86.75,282.94c-.12-1-13.52-6.66-13.52-6.66s-1.23.16-1.39,1a1.51,1.51,0,0,0,.51,1.36S86.87,283.93,86.75,282.94Z"/><path class="cls-1" d="M74.1,279s-5.77.87-13.87,7.69-8.14,10.45-8.14,10.45.21.9.62,1.1a3.6,3.6,0,0,0,1.84.29c.7-.07,3.84-.42,4.59-.63a14.55,14.55,0,0,1,4.35-.46c1.2,0,3.13.55,4.29.06.71-.3,1,.09,1.68-.7a8.75,8.75,0,0,0,1.39-4.25,5.62,5.62,0,0,1,1.32-3.31c.2,1.94.62,3.86.76,5.84a6.19,6.19,0,0,0,2.57,4.08,4.77,4.77,0,0,0,2.13.27c1.88.13,2.94-.44,4.69-1.23a7.63,7.63,0,0,0,2.58-2,11.43,11.43,0,0,0,2.48-3.9,8.37,8.37,0,0,0-.27-3.34,5.17,5.17,0,0,0-1.68-2.25l-7.07-6.93c-.06-.06-.22-.29-.3-.3Z"/><path class="cls-1" d="M396.33,345.81a85.47,85.47,0,0,0-9.42-7.44c-5-3.16-10.28-4.83-10.4-2.95-.22,3.48,5.93,9.31,8.17,12.19,1.64,2.12,5.88-.43,5.88-.43l-.17.24a5.24,5.24,0,0,0,.28,6.73,20.86,20.86,0,0,0,2.34,2.36,9.93,9.93,0,0,0,3.45,1.91c.87.12,2.27.13,2.94-.55s.42-2.22.41-3.13a16.45,16.45,0,0,0-.45-3.2,9.51,9.51,0,0,0-.44-2.12c-.27-.55-.77-.83-1.16-1.29A27.2,27.2,0,0,1,396.33,345.81Z"/><path class="cls-1" d="M395,341.63a.91.91,0,0,1-.43,1.24,1.07,1.07,0,0,1-1.39-.13.9.9,0,0,1,.43-1.24A1,1,0,0,1,395,341.63Z"/><path class="cls-1" d="M401.92,353.19c-.75.09-7.94-9.29-7.94-9.29s-.16-1,.41-1.26a1.12,1.12,0,0,1,1.1.15S402.66,353.11,401.92,353.19Z"/><path class="cls-1" d="M396.17,344.08s-.7-4.63,2.4-12.14,5.7-8.18,5.7-8.18.7,0,1,.28a3.24,3.24,0,0,1,.63,1.37c.11.56.57,3.06.59,3.68a12.69,12.69,0,0,0,.66,3.45c.3.93,1.12,2.34,1,3.32-.06.61.3.8-.13,1.43a6,6,0,0,1-2.76,1.85,3.73,3.73,0,0,0-2.1,1.61c1.45-.19,2.94-.21,4.41-.46a4.82,4.82,0,0,1,3.54,1.27,4.17,4.17,0,0,1,.69,1.6A7.25,7.25,0,0,1,412,347a6,6,0,0,1-.82,2.34,8,8,0,0,1-2.26,2.62,5.7,5.7,0,0,1-2.49.39,4.11,4.11,0,0,1-2-.9l-6.65-4.24c-.06,0-.26-.12-.29-.19Z"/><path class="cls-1" d="M16.43,171.51a92.54,92.54,0,0,0,.64-13.91c-.41-6.84-2.59-13.15-4.55-12.12-3.63,1.91-5,11.58-6.29,15.55-.94,2.93,4.66,5.58,4.66,5.58l-.36,0C7.19,166.46,4.78,168,4,171a24.21,24.21,0,0,0-.67,3.77,11.25,11.25,0,0,0,.59,4.59c.5.94,1.5,2.33,2.66,2.58S9.11,181,10,180.41a16.24,16.24,0,0,0,2.88-2.4,9.8,9.8,0,0,0,1.8-1.72,7.22,7.22,0,0,0,.46-1.94A24.07,24.07,0,0,1,16.43,171.51Z"/><path class="cls-1" d="M19.65,167.64c-.19.5-.88.64-1.55.33s-1.06-1-.87-1.46.88-.64,1.55-.33S19.84,167.15,19.65,167.64Z"/><path class="cls-1" d="M13.07,181.56c-.62-.69,3.57-13.55,3.57-13.55s.87-.77,1.55-.37a1.35,1.35,0,0,1,.64,1.19S13.69,182.25,13.07,181.56Z"/><path class="cls-1" d="M18,170.29s4.13-3.52,13.87-5,12.29.66,12.29.66.5.69.4,1.11a3.37,3.37,0,0,1-.92,1.46c-.48.46-2.64,2.44-3.25,2.84a13.73,13.73,0,0,0-3,2.77c-.72.87-1.53,2.54-2.58,3.06-.64.31-.58.78-1.52.75a8.25,8.25,0,0,1-3.83-1.62,5.17,5.17,0,0,0-3.12-1.09c1.23,1.32,2.32,2.78,3.63,4.09a5.73,5.73,0,0,1,1.29,4.29c-.1.65-.73,1.16-1.11,1.66-1,1.4-2.1,1.8-3.73,2.55a7.24,7.24,0,0,1-2.94.61,10.78,10.78,0,0,1-4.25-.64,7.72,7.72,0,0,1-2.18-2.23,4.78,4.78,0,0,1-.56-2.55c-.18-3.07-.36-6.13-.55-9.2,0-.07-.06-.32,0-.39Z"/><path class="cls-1" d="M334.82,220a48.63,48.63,0,0,0,2.75,13.06c2.77,7.16,7.82,14.33,10.19,13.41,4.4-1.72,1.34-6.59,2.21-9.63s2.75-4.43,2-7.65a5.32,5.32,0,0,0-4-3.84s7.71.68,8.73-8.12c.41-3.56-1.82-8-7.17-9.61-3.64-1.09-6.91,2.07-9.11,4a14.92,14.92,0,0,1-2.78,1.82l-1.88,2.39Z"/><path class="cls-1" d="M333.43,219a49.09,49.09,0,0,1-12.75,4.35c-7.57,1.26-16.31.57-16.73-1.94-.76-4.66,5-4.51,7.16-6.81s2.41-4.62,5.55-5.64a5.31,5.31,0,0,1,5.34,1.49s-4.51-6.3,2.54-11.65c2.85-2.17,7.83-2.52,11.93,1.27,2.78,2.57,1.73,7,1.16,9.9a14.68,14.68,0,0,0-.15,3.32l-1.1,2.83Z"/><path class="cls-1" d="M332.12,220.32a1.34,1.34,0,1,1,.62,1.53A1.19,1.19,0,0,1,332.12,220.32Z"/><path class="cls-1" d="M341.31,206.63c.51.74-6.06,13.5-6.06,13.5s-1,.72-1.65.28a1.26,1.26,0,0,1-.44-1.24S340.81,205.9,341.31,206.63Z"/><path class="cls-1" d="M135,84.69a47.61,47.61,0,0,0,12.05,5.09c7.32,1.77,15.92,1.71,16.5-.71,1.08-4.51-4.55-4.77-6.52-7.17s-2-4.7-5-5.91a5.23,5.23,0,0,0-5.34,1.07s4.86-5.84-1.65-11.57c-2.64-2.32-7.48-3-11.76.4-2.91,2.32-2.19,6.73-1.84,9.6a14.68,14.68,0,0,1-.08,3.26l.87,2.84Z"/><path class="cls-1" d="M133.44,85.24A48.23,48.23,0,0,1,129.82,98c-3.22,6.8-8.66,13.46-10.92,12.39-4.18-2-.84-6.54-1.48-9.58S115,96.23,116,93.14a5.19,5.19,0,0,1,4.18-3.47s-7.59.11-8-8.56c-.15-3.51,2.35-7.72,7.7-8.9,3.63-.81,6.61,2.52,8.62,4.6a14.62,14.62,0,0,0,2.6,2l1.66,2.46Z"/><path class="cls-1" d="M133.77,87a1.31,1.31,0,1,1,1.58.35A1.15,1.15,0,0,1,133.77,87Z"/><path class="cls-1" d="M127.88,72c.87,0,7.48,12.43,7.48,12.43s0,1.23-.69,1.48a1.22,1.22,0,0,1-1.25-.33S127,72,127.88,72Z"/><path class="cls-1" d="M188.79,218.76a85.26,85.26,0,0,0-9.15-7.78c-4.84-3.33-10.1-5.18-10.29-3.32-.34,3.47,5.6,9.52,7.73,12.48,1.57,2.17,5.89-.22,5.89-.22l-.18.23a5.27,5.27,0,0,0,0,6.74,21.87,21.87,0,0,0,2.26,2.45,10,10,0,0,0,3.38,2,3.82,3.82,0,0,0,3-.44c.74-.7.5-2.2.51-3.11a15.17,15.17,0,0,0-.33-3.22,9.59,9.59,0,0,0-.36-2.13c-.25-.56-.75-.86-1.11-1.33A25,25,0,0,1,188.79,218.76Z"/><path class="cls-1" d="M187.62,214.54a.9.9,0,0,1-.48,1.22,1.05,1.05,0,0,1-1.38-.19.9.9,0,0,1,.47-1.22A1.06,1.06,0,0,1,187.62,214.54Z"/><path class="cls-1" d="M194.11,226.34c-.75,0-7.6-9.58-7.6-9.58s-.13-1,.45-1.24a1.13,1.13,0,0,1,1.1.19S194.85,226.28,194.11,226.34Z"/><path class="cls-1" d="M188.69,217s-.53-4.65,2.83-12.05,6-8,6-8,.69,0,.93.32a3.09,3.09,0,0,1,.58,1.39c.09.57.46,3.08.46,3.7a12.38,12.38,0,0,0,.54,3.47c.26.94,1,2.37.91,3.36-.07.6.27.8-.17,1.42a6,6,0,0,1-2.83,1.75,3.77,3.77,0,0,0-2.15,1.53c1.46-.13,2.94-.1,4.42-.3a4.89,4.89,0,0,1,3.5,1.39,4.23,4.23,0,0,1,.62,1.64,7.22,7.22,0,0,1,0,3.86,5.77,5.77,0,0,1-.91,2.31,8.09,8.09,0,0,1-2.35,2.55,5.86,5.86,0,0,1-2.5.29,4,4,0,0,1-2-1l-6.5-4.48s-.25-.12-.27-.19Z"/><path class="cls-1" d="M273.41,74.52a84.69,84.69,0,0,0,10.92,5c5.56,1.9,11.13,2.25,10.8.41-.61-3.44-8-7.65-10.82-9.91-2.1-1.67-5.61,1.8-5.61,1.8l.11-.27a5.26,5.26,0,0,0-1.87-6.48,22.86,22.86,0,0,0-2.83-1.74,10,10,0,0,0-3.8-1c-.88.09-2.24.41-2.73,1.23s.11,2.25.34,3.13a15.37,15.37,0,0,0,1.2,3,9.16,9.16,0,0,0,.92,2,7,7,0,0,0,1.43,1A23.43,23.43,0,0,1,273.41,74.52Z"/><path class="cls-1" d="M275.69,78.26a.9.9,0,0,1,.12-1.3,1.07,1.07,0,0,1,1.39-.2.91.91,0,0,1-.13,1.31A1,1,0,0,1,275.69,78.26Z"/><path class="cls-1" d="M266.24,68.67c.7-.26,9.9,7.15,9.9,7.15s.4.92-.09,1.32a1.12,1.12,0,0,1-1.11.11S265.54,68.92,266.24,68.67Z"/><path class="cls-1" d="M274,76.17s1.77,4.33.54,12.36-3.61,9.29-3.61,9.29-.67.17-1,0a3.08,3.08,0,0,1-.94-1.18c-.24-.52-1.27-2.83-1.44-3.43a12.87,12.87,0,0,0-1.46-3.2c-.51-.84-1.65-2-1.79-3-.09-.61-.48-.71-.22-1.43a6.06,6.06,0,0,1,2.25-2.44A3.74,3.74,0,0,0,268,81.05c-1.36.53-2.8.9-4.17,1.49a4.92,4.92,0,0,1-3.74-.39c-.5-.3-.74-1-1.05-1.41a7.21,7.21,0,0,1-1.09-3.7,5.74,5.74,0,0,1,.25-2.48,8,8,0,0,1,1.57-3.08,6,6,0,0,1,2.32-1,4.2,4.2,0,0,1,2.18.4l7.46,2.56c.06,0,.28,0,.32.1Z"/><path class="cls-1" d="M252,348a52.28,52.28,0,0,0-.15-14.37c-1.42-8.13-5.25-16.77-7.94-16.29-5,.88-2.8,6.67-4.36,9.7s-3.84,4.1-3.75,7.64a5.71,5.71,0,0,0,3.41,4.9s-8-2.33-10.92,6.73c-1.18,3.68.24,8.86,5.55,11.66,3.61,1.92,7.73-.73,10.47-2.35a16,16,0,0,1,3.32-1.34l2.48-2.12Z"/><path class="cls-1" d="M253.27,349.4a52.66,52.66,0,0,1,14.37-1.91c8.26.26,17.34,2.82,17.25,5.56-.17,5.08-6.21,3.71-9,5.68s-3.51,4.38-7,4.79a5.72,5.72,0,0,1-5.33-2.69s3.44,7.6-5.12,11.76c-3.47,1.69-8.8,1-12.33-3.84-2.4-3.31-.36-7.76.85-10.7a16.14,16.14,0,0,0,.86-3.48l1.75-2.75Z"/><path class="cls-1" d="M254.92,348.29a1.26,1.26,0,0,1-1.77-.09,1.13,1.13,0,1,1,1.77.09Z"/><path class="cls-1" d="M242.34,360.81c-.38-.88,9.24-13,9.24-13s1.23-.55,1.8.05a1.35,1.35,0,0,1,.2,1.4S242.72,361.69,242.34,360.81Z"/><path class="cls-1" d="M404.24,41.34a100.91,100.91,0,0,1-3.18-14.79c-.78-7.42.43-14.57,2.71-13.82,4.25,1.39,7.47,11.52,9.54,15.55,1.52,3-4,6.82-4,6.82l.38-.09c3.57-.73,6.43.51,7.8,3.55a25.33,25.33,0,0,1,1.39,3.92,12.12,12.12,0,0,1,.19,5c-.37,1.1-1.19,2.77-2.4,3.25s-2.87-.55-3.93-1a18.18,18.18,0,0,1-3.52-2.07A11.18,11.18,0,0,1,407,46.16a8.39,8.39,0,0,1-.84-2A26.17,26.17,0,0,0,404.24,41.34Z"/><path class="cls-1" d="M400.1,37.78c.28.49,1,.52,1.71.07a1.43,1.43,0,0,0,.67-1.73c-.29-.49-1.06-.53-1.72-.07A1.42,1.42,0,0,0,400.1,37.78Z"/><path class="cls-1" d="M409.64,51.53c.54-.85-6.26-13.9-6.26-13.9s-1.06-.67-1.72-.12a1.51,1.51,0,0,0-.48,1.39S409.1,52.38,409.64,51.53Z"/><path class="cls-1" d="M402.29,40.32s-5.05-3-15.77-2.92-13.07,2.92-13.07,2.92-.42.83-.23,1.26a3.63,3.63,0,0,0,1.25,1.4c.6.4,3.27,2.14,4,2.46a14.88,14.88,0,0,1,3.69,2.44c.92.8,2.09,2.45,3.31,2.81.75.23.76.74,1.76.54A9,9,0,0,0,391,48.81a5.59,5.59,0,0,1,3.16-1.73c-1.09,1.64-2,3.4-3.17,5a6.24,6.24,0,0,0-.61,4.83c.23.68,1,1.11,1.49,1.59,1.37,1.31,2.57,1.54,4.45,2.06a7.63,7.63,0,0,0,3.26.12,11.48,11.48,0,0,0,4.45-1.44A8.56,8.56,0,0,0,406,56.5a5.17,5.17,0,0,0,.14-2.84c-.35-3.32-.71-6.64-1.06-10,0-.08,0-.36,0-.42Z"/><path class="cls-1" d="M543.72,397.35a84.94,84.94,0,0,1,10.12-6.47c5.24-2.65,10.71-3.77,10.64-1.9-.13,3.49-6.83,8.68-9.34,11.32-1.85,1.94-5.81-1-5.81-1a2,2,0,0,1,.14.25,5.26,5.26,0,0,1-.94,6.67,21.59,21.59,0,0,1-2.57,2.12,10,10,0,0,1-3.62,1.55c-.88,0-2.27-.1-2.87-.84s-.21-2.25-.1-3.15a15.83,15.83,0,0,1,.77-3.14,9.12,9.12,0,0,1,.64-2.06c.33-.53.86-.76,1.28-1.17A24.9,24.9,0,0,0,543.72,397.35Z"/><path class="cls-1" d="M545.45,393.32a.91.91,0,0,0,.31,1.28,1.06,1.06,0,0,0,1.4,0,.9.9,0,0,0-.31-1.27A1,1,0,0,0,545.45,393.32Z"/><path class="cls-1" d="M537.43,404.14c.73.16,8.82-8.46,8.82-8.46s.26-1-.28-1.29a1.11,1.11,0,0,0-1.11,0S536.7,404,537.43,404.14Z"/><path class="cls-1" d="M544.05,395.64s1.16-4.54-1.17-12.32-4.87-8.71-4.87-8.71-.69-.07-1,.19a3.16,3.16,0,0,0-.77,1.3c-.16.55-.87,3-.95,3.6a12.73,12.73,0,0,1-1,3.37c-.39.9-1.34,2.21-1.36,3.2,0,.61-.37.77,0,1.44a6.1,6.1,0,0,0,2.57,2.11,3.73,3.73,0,0,1,1.92,1.81c-1.42-.33-2.89-.5-4.34-.89a4.88,4.88,0,0,0-3.65.9,4.27,4.27,0,0,0-.84,1.54A7.3,7.3,0,0,0,528,397a5.79,5.79,0,0,0,.59,2.41,8.06,8.06,0,0,0,2,2.84,5.69,5.69,0,0,0,2.43.63,4.1,4.1,0,0,0,2.1-.69l7-3.56c.06,0,.27-.1.3-.15Z"/><path class="cls-1" d="M504.06,278.58a100.08,100.08,0,0,1-11.73-9.29c-5.27-5.17-8.84-11.39-6.63-12.25,4.12-1.6,12.95,4.09,17.06,5.87,3,1.31,1.24,7.72,1.24,7.72a3.55,3.55,0,0,1,.23-.31c2.26-2.8,5.22-3.65,8.17-2.2a24.28,24.28,0,0,1,3.53,2.12,12,12,0,0,1,3.31,3.71c.4,1.07.83,2.86.22,4s-2.54,1.38-3.64,1.71a18.66,18.66,0,0,1-4,.64,11,11,0,0,1-2.67.24,8,8,0,0,1-1.9-1A24.72,24.72,0,0,0,504.06,278.58Z"/><path class="cls-1" d="M498.65,278.46c.54.2,1.14-.26,1.36-1a1.4,1.4,0,0,0-.57-1.74c-.54-.2-1.15.26-1.36,1A1.41,1.41,0,0,0,498.65,278.46Z"/><path class="cls-1" d="M514.59,282.94c-.12-1-13.52-6.66-13.52-6.66s-1.24.16-1.39,1a1.48,1.48,0,0,0,.51,1.36S514.71,283.93,514.59,282.94Z"/><path class="cls-1" d="M501.93,279s-5.76.87-13.87,7.69-8.13,10.45-8.13,10.45.2.9.62,1.1a3.56,3.56,0,0,0,1.83.29c.71-.07,3.84-.42,4.6-.63a14.52,14.52,0,0,1,4.34-.46c1.21,0,3.13.55,4.29.06.72-.3,1.05.09,1.69-.7a8.86,8.86,0,0,0,1.39-4.25,5.5,5.5,0,0,1,1.32-3.31c.2,1.94.62,3.86.75,5.84a6.22,6.22,0,0,0,2.57,4.08,4.81,4.81,0,0,0,2.14.27c1.87.13,2.93-.44,4.69-1.23a7.59,7.59,0,0,0,2.57-2,11.6,11.6,0,0,0,2.49-3.9,8.37,8.37,0,0,0-.28-3.34,5.17,5.17,0,0,0-1.68-2.25l-7.07-6.93c-.06-.06-.22-.29-.3-.3Z"/><path class="cls-1" d="M824.17,345.81a85,85,0,0,0-9.43-7.44c-5-3.16-10.28-4.83-10.39-2.95-.22,3.48,5.93,9.31,8.16,12.19,1.65,2.12,5.88-.43,5.88-.43l-.17.24a5.27,5.27,0,0,0,.28,6.73,20.15,20.15,0,0,0,2.35,2.36,10,10,0,0,0,3.44,1.91,3.81,3.81,0,0,0,3-.55c.71-.73.42-2.22.4-3.13a15.05,15.05,0,0,0-.45-3.2,9.5,9.5,0,0,0-.43-2.12c-.27-.55-.78-.83-1.16-1.29A24.88,24.88,0,0,1,824.17,345.81Z"/><path class="cls-1" d="M822.84,341.63a.89.89,0,0,1-.43,1.24,1.07,1.07,0,0,1-1.39-.13.91.91,0,0,1,.43-1.24A1,1,0,0,1,822.84,341.63Z"/><path class="cls-1" d="M829.75,353.19c-.74.09-7.93-9.29-7.93-9.29s-.17-1,.4-1.26a1.15,1.15,0,0,1,1.11.15S830.5,353.11,829.75,353.19Z"/><path class="cls-1" d="M824,344.08s-.69-4.63,2.4-12.14,5.71-8.18,5.71-8.18.7,0,.94.28a3.12,3.12,0,0,1,.63,1.37c.11.56.57,3.06.59,3.68a12.71,12.71,0,0,0,.67,3.45c.3.93,1.12,2.34,1,3.32-.05.61.3.8-.12,1.43a6.09,6.09,0,0,1-2.76,1.85,3.73,3.73,0,0,0-2.1,1.61c1.45-.19,2.93-.21,4.41-.46a4.85,4.85,0,0,1,3.54,1.27,4.15,4.15,0,0,1,.68,1.6,7.25,7.25,0,0,1,.19,3.87,5.81,5.81,0,0,1-.83,2.34,7.93,7.93,0,0,1-2.25,2.62,5.7,5.7,0,0,1-2.49.39,4.1,4.1,0,0,1-2-.9l-6.65-4.24c-.05,0-.25-.12-.28-.19Z"/><path class="cls-1" d="M444.27,171.51a94,94,0,0,0,.64-13.91c-.42-6.84-2.6-13.15-4.55-12.12-3.64,1.91-5,11.58-6.3,15.55-.93,2.93,4.67,5.58,4.67,5.58l-.36,0c-3.35-.13-5.75,1.43-6.53,4.39a22.07,22.07,0,0,0-.67,3.77,11.25,11.25,0,0,0,.58,4.59c.51.94,1.51,2.33,2.67,2.58s2.52-.93,3.42-1.51a16.61,16.61,0,0,0,2.88-2.4,9.8,9.8,0,0,0,1.8-1.72,8.07,8.07,0,0,0,.46-1.94A24.07,24.07,0,0,1,444.27,171.51Z"/><path class="cls-1" d="M447.49,167.64c-.19.5-.89.64-1.55.33s-1.06-1-.87-1.46.88-.64,1.55-.33A1.32,1.32,0,0,1,447.49,167.64Z"/><path class="cls-1" d="M440.91,181.56c-.62-.69,3.57-13.55,3.57-13.55s.87-.77,1.55-.37a1.38,1.38,0,0,1,.64,1.19S441.53,182.25,440.91,181.56Z"/><path class="cls-1" d="M445.88,170.29s4.12-3.52,13.86-5,12.3.66,12.3.66.5.69.39,1.11a3.24,3.24,0,0,1-.91,1.46c-.49.46-2.65,2.44-3.25,2.84a13.56,13.56,0,0,0-3,2.77c-.71.87-1.52,2.54-2.57,3.06-.65.31-.58.78-1.52.75a8.25,8.25,0,0,1-3.83-1.62,5.17,5.17,0,0,0-3.13-1.09c1.24,1.32,2.33,2.78,3.64,4.09a5.73,5.73,0,0,1,1.29,4.29c-.11.65-.74,1.16-1.12,1.66-1,1.4-2.1,1.8-3.72,2.55a7.24,7.24,0,0,1-2.94.61,10.83,10.83,0,0,1-4.26-.64,7.81,7.81,0,0,1-2.17-2.23,4.69,4.69,0,0,1-.56-2.55c-.18-3.07-.37-6.13-.55-9.2,0-.07-.07-.32,0-.39Z"/><path class="cls-1" d="M762.66,220a48.4,48.4,0,0,0,2.74,13.06c2.78,7.16,7.82,14.33,10.19,13.41,4.41-1.72,1.35-6.59,2.22-9.63s2.75-4.43,2-7.65a5.3,5.3,0,0,0-4-3.84s7.71.68,8.73-8.12c.41-3.56-1.82-8-7.17-9.61-3.64-1.09-6.92,2.07-9.12,4a14.58,14.58,0,0,1-2.78,1.82l-1.87,2.39Z"/><path class="cls-1" d="M761.26,219a48.94,48.94,0,0,1-12.74,4.35c-7.57,1.26-16.32.57-16.73-1.94-.77-4.66,5-4.51,7.16-6.81s2.41-4.62,5.54-5.64a5.32,5.32,0,0,1,5.35,1.49s-4.52-6.3,2.53-11.65c2.86-2.17,7.83-2.52,11.93,1.27,2.79,2.57,1.74,7,1.17,9.9a15,15,0,0,0-.16,3.32l-1.09,2.83Z"/><path class="cls-1" d="M760,220.32a1.33,1.33,0,1,1,.62,1.53A1.18,1.18,0,0,1,760,220.32Z"/><path class="cls-1" d="M769.15,206.63c.51.74-6.07,13.5-6.07,13.5s-1,.72-1.64.28a1.26,1.26,0,0,1-.44-1.24S768.64,205.9,769.15,206.63Z"/><path class="cls-1" d="M562.87,84.69a47.77,47.77,0,0,0,12.06,5.09c7.31,1.77,15.92,1.71,16.5-.71,1.08-4.51-4.56-4.77-6.52-7.17s-2-4.7-5-5.91a5.22,5.22,0,0,0-5.33,1.07s4.86-5.84-1.66-11.57c-2.64-2.32-7.48-3-11.75.4-2.91,2.32-2.2,6.73-1.84,9.6a15.07,15.07,0,0,1-.09,3.26l.87,2.84Z"/><path class="cls-1" d="M561.27,85.24A47.8,47.8,0,0,1,557.65,98c-3.21,6.8-8.66,13.46-10.91,12.39-4.19-2-.85-6.54-1.49-9.58s-2.37-4.53-1.44-7.62A5.21,5.21,0,0,1,548,89.67s-7.6.11-8-8.56c-.15-3.51,2.35-7.72,7.69-8.9,3.64-.81,6.62,2.52,8.63,4.6a14.34,14.34,0,0,0,2.59,2l1.67,2.46Z"/><path class="cls-1" d="M561.61,87a1.31,1.31,0,1,1,1.57.35A1.14,1.14,0,0,1,561.61,87Z"/><path class="cls-1" d="M555.72,72c.87,0,7.47,12.43,7.47,12.43s0,1.23-.69,1.48a1.2,1.2,0,0,1-1.24-.33S554.84,72,555.72,72Z"/><path class="cls-1" d="M616.63,218.76a85.26,85.26,0,0,0-9.15-7.78c-4.84-3.33-10.11-5.18-10.29-3.32-.35,3.47,5.6,9.52,7.72,12.48,1.57,2.17,5.9-.22,5.9-.22l-.18.23a5.27,5.27,0,0,0,0,6.74,21,21,0,0,0,2.26,2.45,10,10,0,0,0,3.37,2c.87.15,2.27.21,3-.44s.51-2.2.52-3.11a15.85,15.85,0,0,0-.33-3.22,9.59,9.59,0,0,0-.36-2.13c-.25-.56-.75-.86-1.11-1.33A21.29,21.29,0,0,1,616.63,218.76Z"/><path class="cls-1" d="M615.45,214.54a.89.89,0,0,1-.47,1.22,1.07,1.07,0,0,1-1.39-.19.9.9,0,0,1,.48-1.22A1.05,1.05,0,0,1,615.45,214.54Z"/><path class="cls-1" d="M621.94,226.34c-.74,0-7.59-9.58-7.59-9.58s-.13-1,.45-1.24a1.11,1.11,0,0,1,1.09.19S622.69,226.28,621.94,226.34Z"/><path class="cls-1" d="M616.53,217s-.53-4.65,2.83-12.05,6-8,6-8,.7,0,.93.32a3.09,3.09,0,0,1,.58,1.39c.09.57.47,3.08.46,3.7a12.76,12.76,0,0,0,.55,3.47c.26.94,1,2.37.91,3.36-.08.6.27.8-.18,1.42a6,6,0,0,1-2.82,1.75,3.71,3.71,0,0,0-2.15,1.53c1.45-.13,2.94-.1,4.42-.3a4.88,4.88,0,0,1,3.49,1.39,4.1,4.1,0,0,1,.63,1.64,7.32,7.32,0,0,1,.05,3.86,5.65,5.65,0,0,1-.92,2.31,8.06,8.06,0,0,1-2.34,2.55,5.86,5.86,0,0,1-2.5.29,4.08,4.08,0,0,1-2-1L618,220.23c-.05,0-.25-.12-.28-.19Z"/><path class="cls-1" d="M701.25,74.52a84.26,84.26,0,0,0,10.91,5c5.57,1.9,11.13,2.25,10.81.41-.61-3.44-8-7.65-10.82-9.91-2.1-1.67-5.61,1.8-5.61,1.8s.07-.18.1-.27a5.27,5.27,0,0,0-1.86-6.48,22.25,22.25,0,0,0-2.84-1.74,10,10,0,0,0-3.8-1c-.87.09-2.23.41-2.72,1.23s.11,2.25.34,3.13a16,16,0,0,0,1.19,3,9.71,9.71,0,0,0,.93,2,6.71,6.71,0,0,0,1.43,1A25.09,25.09,0,0,1,701.25,74.52Z"/><path class="cls-1" d="M703.52,78.26a.89.89,0,0,1,.13-1.3,1.06,1.06,0,0,1,1.38-.2.91.91,0,0,1-.12,1.31A1.06,1.06,0,0,1,703.52,78.26Z"/><path class="cls-1" d="M694.08,68.67c.7-.26,9.9,7.15,9.9,7.15s.4.92-.09,1.32a1.12,1.12,0,0,1-1.11.11S693.37,68.92,694.08,68.67Z"/><path class="cls-1" d="M701.82,76.17s1.77,4.33.54,12.36-3.61,9.29-3.61,9.29-.68.17-1,0a3.08,3.08,0,0,1-.94-1.18c-.24-.52-1.28-2.83-1.45-3.43a12.52,12.52,0,0,0-1.46-3.2c-.51-.84-1.64-2-1.79-3-.09-.61-.48-.71-.22-1.43a6.13,6.13,0,0,1,2.25-2.44,3.76,3.76,0,0,0,1.66-2.06c-1.37.53-2.8.9-4.18,1.49a4.93,4.93,0,0,1-3.74-.39c-.49-.3-.74-1-1-1.41a7.22,7.22,0,0,1-1.1-3.7,5.9,5.9,0,0,1,.25-2.48,8.11,8.11,0,0,1,1.57-3.08,6.08,6.08,0,0,1,2.33-1,4.16,4.16,0,0,1,2.17.4l7.47,2.56c.06,0,.27,0,.31.1Z"/><path class="cls-1" d="M679.85,348a52.5,52.5,0,0,0-.16-14.37c-1.42-8.13-5.24-16.77-7.94-16.29-5,.88-2.8,6.67-4.36,9.7s-3.83,4.1-3.74,7.64a5.71,5.71,0,0,0,3.41,4.9s-8-2.33-10.92,6.73c-1.19,3.68.23,8.86,5.54,11.66,3.61,1.92,7.74-.73,10.47-2.35a16.26,16.26,0,0,1,3.32-1.34L678,352.2Z"/><path class="cls-1" d="M681.11,349.4a52.63,52.63,0,0,1,14.36-1.91c8.26.26,17.35,2.82,17.26,5.56-.17,5.08-6.21,3.71-9,5.68s-3.52,4.38-7,4.79a5.72,5.72,0,0,1-5.33-2.69s3.44,7.6-5.13,11.76c-3.47,1.69-8.79,1-12.32-3.84-2.4-3.31-.36-7.76.85-10.7a16.14,16.14,0,0,0,.86-3.48l1.75-2.75Z"/><path class="cls-1" d="M682.76,348.29a1.44,1.44,0,1,1-.34-1.75A1.28,1.28,0,0,1,682.76,348.29Z"/><path class="cls-1" d="M670.18,360.81c-.38-.88,9.24-13,9.24-13s1.23-.55,1.79.05a1.34,1.34,0,0,1,.21,1.4S670.56,361.69,670.18,360.81Z"/><path class="cls-1" d="M832.08,41.34a100.91,100.91,0,0,1-3.18-14.79c-.79-7.42.43-14.57,2.71-13.82,4.24,1.39,7.47,11.52,9.54,15.55,1.52,3-4,6.82-4,6.82s.25-.06.38-.09c3.57-.73,6.43.51,7.79,3.55a23.4,23.4,0,0,1,1.39,3.92,12.3,12.3,0,0,1,.2,5c-.38,1.1-1.2,2.77-2.4,3.25s-2.87-.55-3.94-1A18.48,18.48,0,0,1,837,47.68a10.83,10.83,0,0,1-2.23-1.52,8,8,0,0,1-.84-2A27.73,27.73,0,0,0,832.08,41.34Z"/><path class="cls-1" d="M827.93,37.78c.29.49,1.06.52,1.72.07a1.43,1.43,0,0,0,.67-1.73c-.29-.49-1.06-.53-1.72-.07A1.43,1.43,0,0,0,827.93,37.78Z"/><path class="cls-1" d="M837.48,51.53c.54-.85-6.26-13.9-6.26-13.9s-1.07-.67-1.73-.12A1.49,1.49,0,0,0,829,38.9S836.93,52.38,837.48,51.53Z"/><path class="cls-1" d="M830.13,40.32s-5.06-3-15.77-2.92-13.07,2.92-13.07,2.92-.42.83-.23,1.26a3.55,3.55,0,0,0,1.25,1.4c.6.4,3.27,2.14,4,2.46A15.26,15.26,0,0,1,810,47.88c.92.8,2.08,2.45,3.3,2.81.75.23.76.74,1.77.54a9.06,9.06,0,0,0,3.82-2.42A5.59,5.59,0,0,1,822,47.08c-1.09,1.64-2,3.4-3.17,5a6.2,6.2,0,0,0-.62,4.83c.23.68,1,1.11,1.49,1.59,1.38,1.31,2.58,1.54,4.46,2.06a7.63,7.63,0,0,0,3.26.12,11.53,11.53,0,0,0,4.45-1.44,8.38,8.38,0,0,0,1.93-2.78,5.17,5.17,0,0,0,.14-2.84l-1.05-10c0-.08,0-.36,0-.42Z"/><path class="cls-1" d="M115.88,825.18A86.34,86.34,0,0,1,126,818.71c5.25-2.65,10.71-3.77,10.64-1.89-.13,3.48-6.83,8.67-9.34,11.31-1.85,2-5.81-1-5.81-1s.1.17.15.25a5.28,5.28,0,0,1-1,6.68,20.74,20.74,0,0,1-2.57,2.11,9.84,9.84,0,0,1-3.62,1.55,3.75,3.75,0,0,1-2.87-.83c-.64-.8-.2-2.25-.09-3.15a15.4,15.4,0,0,1,.76-3.15,9.68,9.68,0,0,1,.65-2.06c.32-.52.85-.75,1.28-1.17A23.8,23.8,0,0,0,115.88,825.18Z"/><path class="cls-1" d="M117.62,821.16a.88.88,0,0,0,.3,1.27,1,1,0,0,0,1.4,0,.91.91,0,0,0-.31-1.28A1,1,0,0,0,117.62,821.16Z"/><path class="cls-1" d="M109.59,832c.74.16,8.82-8.45,8.82-8.45s.26-1-.28-1.3a1.13,1.13,0,0,0-1.11,0S108.86,831.82,109.59,832Z"/><path class="cls-1" d="M116.22,823.47s1.15-4.53-1.18-12.31-4.86-8.71-4.86-8.71a1.61,1.61,0,0,0-1,.18,3.19,3.19,0,0,0-.76,1.31c-.17.55-.88,3-1,3.6a12.45,12.45,0,0,1-1,3.37c-.39.89-1.35,2.21-1.36,3.2,0,.61-.38.76,0,1.44a6.05,6.05,0,0,0,2.56,2.1,3.81,3.81,0,0,1,1.93,1.82c-1.42-.33-2.9-.5-4.34-.9a4.92,4.92,0,0,0-3.65.91,4.16,4.16,0,0,0-.84,1.53,7.23,7.23,0,0,0-.57,3.83,5.67,5.67,0,0,0,.59,2.41,8,8,0,0,0,2,2.84,6,6,0,0,0,2.44.63,4.22,4.22,0,0,0,2.1-.69l7-3.57c.06,0,.27-.09.3-.15Z"/><path class="cls-1" d="M76.23,706.41a99.52,99.52,0,0,1-11.74-9.29c-5.26-5.16-8.84-11.38-6.62-12.24,4.11-1.61,12.94,4.09,17.06,5.86,3,1.31,1.23,7.72,1.23,7.72l.23-.3c2.26-2.81,5.23-3.66,8.18-2.2a24.76,24.76,0,0,1,3.53,2.11,12.27,12.27,0,0,1,3.31,3.71c.4,1.07.83,2.87.21,4s-2.54,1.39-3.64,1.71a18.05,18.05,0,0,1-4,.64,10.42,10.42,0,0,1-2.66.24,8,8,0,0,1-1.9-1A27,27,0,0,0,76.23,706.41Z"/><path class="cls-1" d="M70.82,706.3c.53.19,1.14-.27,1.35-1a1.41,1.41,0,0,0-.57-1.74c-.53-.19-1.14.27-1.36,1A1.41,1.41,0,0,0,70.82,706.3Z"/><path class="cls-1" d="M86.75,710.78c-.12-1-13.52-6.66-13.52-6.66s-1.23.16-1.39,1a1.49,1.49,0,0,0,.51,1.36S86.87,711.77,86.75,710.78Z"/><path class="cls-1" d="M74.1,706.86s-5.77.86-13.87,7.69S52.09,725,52.09,725s.21.89.62,1.1a3.6,3.6,0,0,0,1.84.29c.7-.08,3.84-.43,4.59-.64a14.89,14.89,0,0,1,4.35-.46c1.2,0,3.13.56,4.29.07.71-.3,1,.08,1.68-.7a8.82,8.82,0,0,0,1.39-4.25,5.6,5.6,0,0,1,1.32-3.31c.2,1.94.62,3.85.76,5.84A6.14,6.14,0,0,0,75.5,727a4.63,4.63,0,0,0,2.13.27c1.88.14,2.94-.44,4.69-1.23a7.73,7.73,0,0,0,2.58-1.95,11.43,11.43,0,0,0,2.48-3.9,8.37,8.37,0,0,0-.27-3.34,5.06,5.06,0,0,0-1.68-2.25l-7.07-6.94c-.06,0-.22-.28-.3-.29Z"/><path class="cls-1" d="M396.33,773.64a85.47,85.47,0,0,0-9.42-7.44c-5-3.16-10.28-4.82-10.4-3-.22,3.48,5.93,9.32,8.17,12.19,1.64,2.12,5.88-.42,5.88-.42a2,2,0,0,0-.17.23,5.26,5.26,0,0,0,.28,6.74,21.73,21.73,0,0,0,2.34,2.36,9.9,9.9,0,0,0,3.45,1.9c.87.12,2.27.13,2.94-.55s.42-2.21.41-3.12a16.44,16.44,0,0,0-.45-3.21,9.43,9.43,0,0,0-.44-2.11c-.27-.55-.77-.84-1.16-1.29A25.89,25.89,0,0,1,396.33,773.64Z"/><path class="cls-1" d="M395,769.47a.91.91,0,0,1-.43,1.24,1.05,1.05,0,0,1-1.39-.14.9.9,0,0,1,.43-1.24A1.06,1.06,0,0,1,395,769.47Z"/><path class="cls-1" d="M401.92,781c-.75.08-7.94-9.3-7.94-9.3s-.16-1,.41-1.25a1.12,1.12,0,0,1,1.1.15S402.66,780.94,401.92,781Z"/><path class="cls-1" d="M396.17,771.91s-.7-4.63,2.4-12.14,5.7-8.18,5.7-8.18.7,0,1,.28a3.3,3.3,0,0,1,.63,1.37c.11.57.57,3.06.59,3.68a12.69,12.69,0,0,0,.66,3.46c.3.93,1.12,2.33,1,3.32-.06.6.3.79-.13,1.43a6,6,0,0,1-2.76,1.84,3.82,3.82,0,0,0-2.1,1.61c1.45-.18,2.94-.2,4.41-.45a4.85,4.85,0,0,1,3.54,1.26,4.15,4.15,0,0,1,.69,1.61,7.22,7.22,0,0,1,.18,3.86,5.94,5.94,0,0,1-.82,2.35,8.06,8.06,0,0,1-2.26,2.62,5.85,5.85,0,0,1-2.49.39,4.2,4.2,0,0,1-2-.9l-6.65-4.25c-.06,0-.26-.12-.29-.18Z"/><path class="cls-1" d="M16.43,599.34a92.37,92.37,0,0,0,.64-13.9c-.41-6.85-2.59-13.15-4.55-12.12-3.63,1.9-5,11.58-6.29,15.55-.94,2.93,4.66,5.58,4.66,5.58s-.24,0-.36,0c-3.34-.12-5.75,1.44-6.53,4.4a23.8,23.8,0,0,0-.67,3.77,11.18,11.18,0,0,0,.59,4.58c.5.94,1.5,2.34,2.66,2.59s2.53-.94,3.42-1.51a17.15,17.15,0,0,0,2.88-2.4,10.19,10.19,0,0,0,1.8-1.73,7,7,0,0,0,.46-1.94A24.07,24.07,0,0,1,16.43,599.34Z"/><path class="cls-1" d="M19.65,595.48c-.19.49-.88.64-1.55.33s-1.06-1-.87-1.47.88-.64,1.55-.33S19.84,595,19.65,595.48Z"/><path class="cls-1" d="M13.07,609.4c-.62-.69,3.57-13.55,3.57-13.55s.87-.77,1.55-.37a1.34,1.34,0,0,1,.64,1.18S13.69,610.09,13.07,609.4Z"/><path class="cls-1" d="M18,598.12s4.13-3.52,13.87-5,12.29.67,12.29.67.5.69.4,1.11a3.37,3.37,0,0,1-.92,1.46c-.48.45-2.64,2.44-3.25,2.84a13.73,13.73,0,0,0-3,2.77c-.72.86-1.53,2.54-2.58,3.05-.64.32-.58.78-1.52.75a8.23,8.23,0,0,1-3.83-1.61,5.12,5.12,0,0,0-3.12-1.1c1.23,1.33,2.32,2.79,3.63,4.1a5.73,5.73,0,0,1,1.29,4.29c-.1.65-.73,1.16-1.11,1.66-1,1.4-2.1,1.79-3.73,2.54a6.92,6.92,0,0,1-2.94.61,10.59,10.59,0,0,1-4.25-.63,7.72,7.72,0,0,1-2.18-2.23,4.83,4.83,0,0,1-.56-2.56c-.18-3.06-.36-6.13-.55-9.19,0-.08-.06-.33,0-.39Z"/><path class="cls-1" d="M334.82,647.86a48.7,48.7,0,0,0,2.75,13.06c2.77,7.15,7.82,14.33,10.19,13.4,4.4-1.71,1.34-6.58,2.21-9.63s2.75-4.43,2-7.64a5.32,5.32,0,0,0-4-3.84s7.71.67,8.73-8.12c.41-3.56-1.82-8-7.17-9.62-3.64-1.08-6.91,2.08-9.11,4a15.22,15.22,0,0,1-2.78,1.83l-1.88,2.38Z"/><path class="cls-1" d="M333.43,646.84a49.33,49.33,0,0,1-12.75,4.36c-7.57,1.26-16.31.57-16.73-1.94-.76-4.66,5-4.51,7.16-6.81s2.41-4.63,5.55-5.64a5.32,5.32,0,0,1,5.34,1.48s-4.51-6.29,2.54-11.65c2.85-2.16,7.83-2.52,11.93,1.27,2.78,2.58,1.73,7,1.16,9.9a14.77,14.77,0,0,0-.15,3.33l-1.1,2.82Z"/><path class="cls-1" d="M332.12,648.16a1.34,1.34,0,1,1,.62,1.53A1.19,1.19,0,0,1,332.12,648.16Z"/><path class="cls-1" d="M341.31,634.47c.51.73-6.06,13.49-6.06,13.49s-1,.73-1.65.28a1.26,1.26,0,0,1-.44-1.24S340.81,633.74,341.31,634.47Z"/><path class="cls-1" d="M135,512.53a47.37,47.37,0,0,0,12.05,5.08c7.32,1.77,15.92,1.72,16.5-.71,1.08-4.51-4.55-4.76-6.52-7.17s-2-4.69-5-5.9a5.2,5.2,0,0,0-5.34,1.07s4.86-5.84-1.65-11.57c-2.64-2.33-7.48-3-11.76.39-2.91,2.33-2.19,6.73-1.84,9.6a14.79,14.79,0,0,1-.08,3.27l.87,2.84Z"/><path class="cls-1" d="M133.44,513.08a48.21,48.21,0,0,1-3.62,12.7c-3.22,6.81-8.66,13.47-10.92,12.4-4.18-2-.84-6.54-1.48-9.58S115,524.07,116,521a5.21,5.21,0,0,1,4.18-3.48s-7.59.12-8-8.55c-.15-3.52,2.35-7.72,7.7-8.9,3.63-.81,6.61,2.51,8.62,4.59a14.92,14.92,0,0,0,2.6,2l1.66,2.46Z"/><path class="cls-1" d="M133.77,514.86a1.31,1.31,0,1,1,1.58.36A1.16,1.16,0,0,1,133.77,514.86Z"/><path class="cls-1" d="M127.88,499.81c.87,0,7.48,12.43,7.48,12.43s0,1.23-.69,1.48a1.24,1.24,0,0,1-1.25-.34S127,499.81,127.88,499.81Z"/><path class="cls-1" d="M188.79,646.59a85.69,85.69,0,0,0-9.15-7.77c-4.84-3.34-10.1-5.19-10.29-3.32C169,639,175,645,177.08,648c1.57,2.18,5.89-.21,5.89-.21l-.18.23a5.27,5.27,0,0,0,0,6.74,21.77,21.77,0,0,0,2.26,2.44,10,10,0,0,0,3.38,2c.86.15,2.26.21,3-.45s.5-2.2.51-3.11a15.17,15.17,0,0,0-.33-3.22,9.4,9.4,0,0,0-.36-2.12c-.25-.56-.75-.87-1.11-1.33A25.18,25.18,0,0,1,188.79,646.59Z"/><path class="cls-1" d="M187.62,642.37a.89.89,0,0,1-.48,1.22,1,1,0,0,1-1.38-.18.9.9,0,0,1,.47-1.22A1.05,1.05,0,0,1,187.62,642.37Z"/><path class="cls-1" d="M194.11,654.17c-.75.06-7.6-9.57-7.6-9.57s-.13-1,.45-1.24a1.13,1.13,0,0,1,1.1.19S194.85,654.11,194.11,654.17Z"/><path class="cls-1" d="M188.69,644.85s-.53-4.65,2.83-12,6-8,6-8,.69,0,.93.31a3.18,3.18,0,0,1,.58,1.4c.09.56.46,3.07.46,3.69a12.39,12.39,0,0,0,.54,3.48c.26.94,1,2.37.91,3.35-.07.61.27.81-.17,1.43a6.07,6.07,0,0,1-2.83,1.74,3.83,3.83,0,0,0-2.15,1.54c1.46-.14,2.94-.11,4.42-.3a4.89,4.89,0,0,1,3.5,1.39,4.19,4.19,0,0,1,.62,1.63,7.26,7.26,0,0,1,0,3.87,5.83,5.83,0,0,1-.91,2.31,8,8,0,0,1-2.35,2.54,5.71,5.71,0,0,1-2.5.3,4.1,4.1,0,0,1-2-1l-6.5-4.48s-.25-.13-.27-.19Z"/><path class="cls-1" d="M273.41,502.36a86.2,86.2,0,0,0,10.92,5c5.56,1.9,11.13,2.25,10.8.4-.61-3.43-8-7.64-10.82-9.91-2.1-1.67-5.61,1.8-5.61,1.8s.07-.17.11-.26a5.26,5.26,0,0,0-1.87-6.48,20.68,20.68,0,0,0-2.83-1.74,9.84,9.84,0,0,0-3.8-1c-.88.08-2.24.4-2.73,1.22s.11,2.26.34,3.14a15.62,15.62,0,0,0,1.2,3,9.08,9.08,0,0,0,.92,1.94,7,7,0,0,0,1.43,1A22,22,0,0,1,273.41,502.36Z"/><path class="cls-1" d="M275.69,506.1a.9.9,0,0,1,.12-1.3,1.05,1.05,0,0,1,1.39-.2.9.9,0,0,1-.13,1.3A1,1,0,0,1,275.69,506.1Z"/><path class="cls-1" d="M266.24,496.5c.7-.26,9.9,7.16,9.9,7.16s.4.92-.09,1.31a1.13,1.13,0,0,1-1.11.12S265.54,496.76,266.24,496.5Z"/><path class="cls-1" d="M274,504s1.77,4.33.54,12.36-3.61,9.3-3.61,9.3-.67.17-1,0a3.16,3.16,0,0,1-.94-1.18c-.24-.53-1.27-2.84-1.44-3.44a13,13,0,0,0-1.46-3.2c-.51-.83-1.65-2-1.79-3-.09-.6-.48-.7-.22-1.42a6,6,0,0,1,2.25-2.44,3.79,3.79,0,0,0,1.65-2.07c-1.36.53-2.8.9-4.17,1.49a4.83,4.83,0,0,1-3.74-.39c-.5-.29-.74-.94-1.05-1.4a7.21,7.21,0,0,1-1.09-3.71,5.71,5.71,0,0,1,.25-2.47,7.84,7.84,0,0,1,1.57-3.08,5.68,5.68,0,0,1,2.32-1,4.2,4.2,0,0,1,2.18.4l7.46,2.55c.06,0,.28.06.32.11Z"/><path class="cls-1" d="M252,775.87a52.22,52.22,0,0,0-.15-14.36c-1.42-8.14-5.25-16.77-7.94-16.3-5,.89-2.8,6.67-4.36,9.71s-3.84,4.1-3.75,7.64a5.73,5.73,0,0,0,3.41,4.9s-8-2.34-10.92,6.73c-1.18,3.67.24,8.85,5.55,11.66,3.61,1.91,7.73-.74,10.47-2.35a16,16,0,0,1,3.32-1.34l2.48-2.13Z"/><path class="cls-1" d="M253.27,777.24a52.9,52.9,0,0,1,14.37-1.92c8.26.26,17.34,2.83,17.25,5.56-.17,5.09-6.21,3.72-9,5.69s-3.51,4.38-7,4.79a5.72,5.72,0,0,1-5.33-2.69s3.44,7.59-5.12,11.76c-3.47,1.69-8.8,1-12.33-3.85-2.4-3.3-.36-7.76.85-10.69a16.14,16.14,0,0,0,.86-3.48l1.75-2.75Z"/><path class="cls-1" d="M254.92,776.12a1.44,1.44,0,1,1-.33-1.74A1.26,1.26,0,0,1,254.92,776.12Z"/><path class="cls-1" d="M242.34,788.64c-.38-.88,9.24-13,9.24-13s1.23-.55,1.8.05a1.35,1.35,0,0,1,.2,1.4S242.72,789.52,242.34,788.64Z"/><path class="cls-1" d="M404.24,469.18a100.84,100.84,0,0,1-3.18-14.8c-.78-7.42.43-14.57,2.71-13.82,4.25,1.4,7.47,11.52,9.54,15.56,1.52,3-4,6.82-4,6.82l.38-.09c3.57-.74,6.43.51,7.8,3.54a25.45,25.45,0,0,1,1.39,3.93,12.12,12.12,0,0,1,.19,5c-.37,1.09-1.19,2.77-2.4,3.25s-2.87-.55-3.93-1a18.14,18.14,0,0,1-3.52-2.06A10.82,10.82,0,0,1,407,474a8.15,8.15,0,0,1-.84-2A26.17,26.17,0,0,0,404.24,469.18Z"/><path class="cls-1" d="M400.1,465.61c.28.5,1,.53,1.71.07a1.41,1.41,0,0,0,.67-1.72c-.29-.5-1.06-.53-1.72-.07A1.41,1.41,0,0,0,400.1,465.61Z"/><path class="cls-1" d="M409.64,479.36c.54-.85-6.26-13.89-6.26-13.89s-1.06-.67-1.72-.12a1.5,1.5,0,0,0-.48,1.39S409.1,480.21,409.64,479.36Z"/><path class="cls-1" d="M402.29,468.16s-5.05-3-15.77-2.93-13.07,2.92-13.07,2.92-.42.83-.23,1.26a3.65,3.65,0,0,0,1.25,1.41c.6.4,3.27,2.14,4,2.46a14.34,14.34,0,0,1,3.69,2.44c.92.8,2.09,2.45,3.31,2.81.75.23.76.74,1.76.54a9,9,0,0,0,3.82-2.42,5.55,5.55,0,0,1,3.16-1.74c-1.09,1.64-2,3.41-3.17,5a6.24,6.24,0,0,0-.61,4.83c.23.68,1,1.11,1.49,1.58,1.37,1.31,2.57,1.55,4.45,2.06a7.63,7.63,0,0,0,3.26.13,11.48,11.48,0,0,0,4.45-1.44,8.6,8.6,0,0,0,1.94-2.79,5.14,5.14,0,0,0,.14-2.83c-.35-3.32-.71-6.64-1.06-10,0-.09,0-.37,0-.43Z"/><path class="cls-1" d="M543.72,825.18a86.34,86.34,0,0,1,10.12-6.47c5.24-2.65,10.71-3.77,10.64-1.89-.13,3.48-6.83,8.67-9.34,11.31-1.85,2-5.81-1-5.81-1l.14.25a5.27,5.27,0,0,1-.94,6.68,21.5,21.5,0,0,1-2.57,2.11,9.84,9.84,0,0,1-3.62,1.55,3.75,3.75,0,0,1-2.87-.83c-.65-.8-.21-2.25-.1-3.15a16.1,16.1,0,0,1,.77-3.15,9.12,9.12,0,0,1,.64-2.06c.33-.52.86-.75,1.28-1.17A22.21,22.21,0,0,0,543.72,825.18Z"/><path class="cls-1" d="M545.45,821.16a.9.9,0,0,0,.31,1.27,1,1,0,0,0,1.4,0,.91.91,0,0,0-.31-1.28A1.06,1.06,0,0,0,545.45,821.16Z"/><path class="cls-1" d="M537.43,832c.73.16,8.82-8.45,8.82-8.45s.26-1-.28-1.3a1.13,1.13,0,0,0-1.11,0S536.7,831.82,537.43,832Z"/><path class="cls-1" d="M544.05,823.47s1.16-4.53-1.17-12.31-4.87-8.71-4.87-8.71-.69-.07-1,.18a3.2,3.2,0,0,0-.77,1.31c-.16.55-.87,3-.95,3.6a12.84,12.84,0,0,1-1,3.37c-.39.89-1.34,2.21-1.36,3.2,0,.61-.37.76,0,1.44a6.08,6.08,0,0,0,2.57,2.1,3.79,3.79,0,0,1,1.92,1.82c-1.42-.33-2.89-.5-4.34-.9a4.93,4.93,0,0,0-3.65.91,4.31,4.31,0,0,0-.84,1.53,7.32,7.32,0,0,0-.57,3.83,5.82,5.82,0,0,0,.59,2.41,8.15,8.15,0,0,0,2,2.84,6,6,0,0,0,2.43.63,4.19,4.19,0,0,0,2.1-.69l7-3.57c.06,0,.27-.09.3-.15Z"/><path class="cls-1" d="M504.06,706.41a98.91,98.91,0,0,1-11.73-9.29c-5.27-5.16-8.84-11.38-6.63-12.24,4.12-1.61,12.95,4.09,17.06,5.86,3,1.31,1.24,7.72,1.24,7.72l.23-.3c2.26-2.81,5.22-3.66,8.17-2.2a24.22,24.22,0,0,1,3.53,2.11,12.14,12.14,0,0,1,3.31,3.71c.4,1.07.83,2.87.22,4s-2.54,1.39-3.64,1.71a18.05,18.05,0,0,1-4,.64,10.54,10.54,0,0,1-2.67.24,8.39,8.39,0,0,1-1.9-1A26.43,26.43,0,0,0,504.06,706.41Z"/><path class="cls-1" d="M498.65,706.3c.54.19,1.14-.27,1.36-1a1.41,1.41,0,0,0-.57-1.74c-.54-.19-1.15.27-1.36,1A1.41,1.41,0,0,0,498.65,706.3Z"/><path class="cls-1" d="M514.59,710.78c-.12-1-13.52-6.66-13.52-6.66s-1.24.16-1.39,1a1.47,1.47,0,0,0,.51,1.36S514.71,711.77,514.59,710.78Z"/><path class="cls-1" d="M501.93,706.86s-5.76.86-13.87,7.69S479.93,725,479.93,725s.2.89.62,1.1a3.56,3.56,0,0,0,1.83.29c.71-.08,3.84-.43,4.6-.64a14.86,14.86,0,0,1,4.34-.46c1.21,0,3.13.56,4.29.07.72-.3,1.05.08,1.69-.7a8.93,8.93,0,0,0,1.39-4.25A5.47,5.47,0,0,1,500,717.1c.2,1.94.62,3.85.75,5.84a6.18,6.18,0,0,0,2.57,4.07,4.68,4.68,0,0,0,2.14.27c1.87.14,2.93-.44,4.69-1.23a7.69,7.69,0,0,0,2.57-1.95,11.6,11.6,0,0,0,2.49-3.9,8.37,8.37,0,0,0-.28-3.34,5.06,5.06,0,0,0-1.68-2.25q-3.52-3.48-7.07-6.94c-.06,0-.22-.28-.3-.29Z"/><path class="cls-1" d="M824.17,773.64a85,85,0,0,0-9.43-7.44c-5-3.16-10.28-4.82-10.39-3-.22,3.48,5.93,9.32,8.16,12.19,1.65,2.12,5.88-.42,5.88-.42s-.11.15-.17.23a5.28,5.28,0,0,0,.28,6.74,21,21,0,0,0,2.35,2.36,10,10,0,0,0,3.44,1.9,3.81,3.81,0,0,0,3-.55c.71-.72.42-2.21.4-3.12a15.05,15.05,0,0,0-.45-3.21,9.41,9.41,0,0,0-.43-2.11c-.27-.55-.78-.84-1.16-1.29A23.79,23.79,0,0,1,824.17,773.64Z"/><path class="cls-1" d="M822.84,769.47a.89.89,0,0,1-.43,1.24,1.06,1.06,0,0,1-1.39-.14.91.91,0,0,1,.43-1.24A1.05,1.05,0,0,1,822.84,769.47Z"/><path class="cls-1" d="M829.75,781c-.74.08-7.93-9.3-7.93-9.3s-.17-1,.4-1.25a1.15,1.15,0,0,1,1.11.15S830.5,780.94,829.75,781Z"/><path class="cls-1" d="M824,771.91s-.69-4.63,2.4-12.14,5.71-8.18,5.71-8.18.7,0,.94.28a3.18,3.18,0,0,1,.63,1.37c.11.57.57,3.06.59,3.68a12.7,12.7,0,0,0,.67,3.46c.3.93,1.12,2.33,1,3.32-.05.6.3.79-.12,1.43a6.07,6.07,0,0,1-2.76,1.84,3.82,3.82,0,0,0-2.1,1.61c1.45-.18,2.93-.2,4.41-.45a4.88,4.88,0,0,1,3.54,1.26,4.13,4.13,0,0,1,.68,1.61,7.22,7.22,0,0,1,.19,3.86,5.8,5.8,0,0,1-.83,2.35,8,8,0,0,1-2.25,2.62,5.85,5.85,0,0,1-2.49.39,4.19,4.19,0,0,1-2-.9l-6.65-4.25c-.05,0-.25-.12-.28-.18Z"/><path class="cls-1" d="M444.27,599.34a93.85,93.85,0,0,0,.64-13.9c-.42-6.85-2.6-13.15-4.55-12.12-3.64,1.9-5,11.58-6.3,15.55-.93,2.93,4.67,5.58,4.67,5.58s-.24,0-.36,0c-3.35-.12-5.75,1.44-6.53,4.4a21.73,21.73,0,0,0-.67,3.77,11.18,11.18,0,0,0,.58,4.58c.51.94,1.51,2.34,2.67,2.59s2.52-.94,3.42-1.51a17.56,17.56,0,0,0,2.88-2.4,10.19,10.19,0,0,0,1.8-1.73,7.85,7.85,0,0,0,.46-1.94A24.07,24.07,0,0,1,444.27,599.34Z"/><path class="cls-1" d="M447.49,595.48c-.19.49-.89.64-1.55.33s-1.06-1-.87-1.47.88-.64,1.55-.33A1.33,1.33,0,0,1,447.49,595.48Z"/><path class="cls-1" d="M440.91,609.4c-.62-.69,3.57-13.55,3.57-13.55s.87-.77,1.55-.37a1.37,1.37,0,0,1,.64,1.18S441.53,610.09,440.91,609.4Z"/><path class="cls-1" d="M445.88,598.12s4.12-3.52,13.86-5,12.3.67,12.3.67.5.69.39,1.11a3.24,3.24,0,0,1-.91,1.46c-.49.45-2.65,2.44-3.25,2.84a13.56,13.56,0,0,0-3,2.77c-.71.86-1.52,2.54-2.57,3.05-.65.32-.58.78-1.52.75a8.23,8.23,0,0,1-3.83-1.61,5.12,5.12,0,0,0-3.13-1.1c1.24,1.33,2.33,2.79,3.64,4.1a5.73,5.73,0,0,1,1.29,4.29c-.11.65-.74,1.16-1.12,1.66-1,1.4-2.1,1.79-3.72,2.54a6.92,6.92,0,0,1-2.94.61,10.64,10.64,0,0,1-4.26-.63,7.81,7.81,0,0,1-2.17-2.23,4.74,4.74,0,0,1-.56-2.56c-.18-3.06-.37-6.13-.55-9.19,0-.08-.07-.33,0-.39Z"/><path class="cls-1" d="M762.66,647.86a48.47,48.47,0,0,0,2.74,13.06c2.78,7.15,7.82,14.33,10.19,13.4,4.41-1.71,1.35-6.58,2.22-9.63s2.75-4.43,2-7.64a5.3,5.3,0,0,0-4-3.84s7.71.67,8.73-8.12c.41-3.56-1.82-8-7.17-9.62-3.64-1.08-6.92,2.08-9.12,4a14.87,14.87,0,0,1-2.78,1.83l-1.87,2.38Z"/><path class="cls-1" d="M761.26,646.84a49.18,49.18,0,0,1-12.74,4.36c-7.57,1.26-16.32.57-16.73-1.94-.77-4.66,5-4.51,7.16-6.81s2.41-4.63,5.54-5.64a5.33,5.33,0,0,1,5.35,1.48s-4.52-6.29,2.53-11.65c2.86-2.16,7.83-2.52,11.93,1.27,2.79,2.58,1.74,7,1.17,9.9a15.07,15.07,0,0,0-.16,3.33L764.22,644Z"/><path class="cls-1" d="M760,648.16a1.33,1.33,0,1,1,.62,1.53A1.18,1.18,0,0,1,760,648.16Z"/><path class="cls-1" d="M769.15,634.47c.51.73-6.07,13.49-6.07,13.49s-1,.73-1.64.28A1.26,1.26,0,0,1,761,647S768.64,633.74,769.15,634.47Z"/><path class="cls-1" d="M562.87,512.53a47.53,47.53,0,0,0,12.06,5.08c7.31,1.77,15.92,1.72,16.5-.71,1.08-4.51-4.56-4.76-6.52-7.17s-2-4.69-5-5.9a5.19,5.19,0,0,0-5.33,1.07s4.86-5.84-1.66-11.57c-2.64-2.33-7.48-3-11.75.39-2.91,2.33-2.2,6.73-1.84,9.6a15.18,15.18,0,0,1-.09,3.27l.87,2.84Z"/><path class="cls-1" d="M561.27,513.08a47.77,47.77,0,0,1-3.62,12.7c-3.21,6.81-8.66,13.47-10.91,12.4-4.19-2-.85-6.54-1.49-9.58s-2.37-4.53-1.44-7.62A5.23,5.23,0,0,1,548,517.5s-7.6.12-8-8.55c-.15-3.52,2.35-7.72,7.69-8.9,3.64-.81,6.62,2.51,8.63,4.59a14.63,14.63,0,0,0,2.59,2l1.67,2.46Z"/><path class="cls-1" d="M561.61,514.86a1.3,1.3,0,1,1,1.57.36A1.15,1.15,0,0,1,561.61,514.86Z"/><path class="cls-1" d="M555.72,499.81c.87,0,7.47,12.43,7.47,12.43s0,1.23-.69,1.48a1.22,1.22,0,0,1-1.24-.34S554.84,499.81,555.72,499.81Z"/><path class="cls-1" d="M616.63,646.59a85.69,85.69,0,0,0-9.15-7.77c-4.84-3.34-10.11-5.19-10.29-3.32-.35,3.47,5.6,9.52,7.72,12.47,1.57,2.18,5.9-.21,5.9-.21a2,2,0,0,0-.18.23,5.27,5.27,0,0,0,0,6.74,20.87,20.87,0,0,0,2.26,2.44,10.06,10.06,0,0,0,3.37,2c.87.15,2.27.21,3-.45s.51-2.2.52-3.11a15.85,15.85,0,0,0-.33-3.22,9.4,9.4,0,0,0-.36-2.12c-.25-.56-.75-.87-1.11-1.33A21.43,21.43,0,0,1,616.63,646.59Z"/><path class="cls-1" d="M615.45,642.37a.89.89,0,0,1-.47,1.22,1.05,1.05,0,0,1-1.39-.18.9.9,0,0,1,.48-1.22A1,1,0,0,1,615.45,642.37Z"/><path class="cls-1" d="M621.94,654.17c-.74.06-7.59-9.57-7.59-9.57s-.13-1,.45-1.24a1.11,1.11,0,0,1,1.09.19S622.69,654.11,621.94,654.17Z"/><path class="cls-1" d="M616.53,644.85s-.53-4.65,2.83-12,6-8,6-8,.7,0,.93.31a3.18,3.18,0,0,1,.58,1.4c.09.56.47,3.07.46,3.69a12.77,12.77,0,0,0,.55,3.48c.26.94,1,2.37.91,3.35-.08.61.27.81-.18,1.43a6,6,0,0,1-2.82,1.74,3.77,3.77,0,0,0-2.15,1.54c1.45-.14,2.94-.11,4.42-.3a4.88,4.88,0,0,1,3.49,1.39,4.05,4.05,0,0,1,.63,1.63,7.36,7.36,0,0,1,.05,3.87,5.7,5.7,0,0,1-.92,2.31,7.92,7.92,0,0,1-2.34,2.54,5.71,5.71,0,0,1-2.5.3,4.17,4.17,0,0,1-2-1L618,648.07c-.05,0-.25-.13-.28-.19Z"/><path class="cls-1" d="M701.25,502.36a85.76,85.76,0,0,0,10.91,5c5.57,1.9,11.13,2.25,10.81.4-.61-3.43-8-7.64-10.82-9.91-2.1-1.67-5.61,1.8-5.61,1.8a2,2,0,0,0,.1-.26,5.27,5.27,0,0,0-1.86-6.48,20.19,20.19,0,0,0-2.84-1.74,9.79,9.79,0,0,0-3.8-1,3.72,3.72,0,0,0-2.72,1.22c-.53.88.11,2.26.34,3.14a16.25,16.25,0,0,0,1.19,3,9.62,9.62,0,0,0,.93,1.94,6.76,6.76,0,0,0,1.43,1A23.41,23.41,0,0,1,701.25,502.36Z"/><path class="cls-1" d="M703.52,506.1a.89.89,0,0,1,.13-1.3,1,1,0,0,1,1.38-.2.9.9,0,0,1-.12,1.3A1.05,1.05,0,0,1,703.52,506.1Z"/><path class="cls-1" d="M694.08,496.5c.7-.26,9.9,7.16,9.9,7.16s.4.92-.09,1.31a1.13,1.13,0,0,1-1.11.12S693.37,496.76,694.08,496.5Z"/><path class="cls-1" d="M701.82,504s1.77,4.33.54,12.36-3.61,9.3-3.61,9.3-.68.17-1,0a3.16,3.16,0,0,1-.94-1.18c-.24-.53-1.28-2.84-1.45-3.44a12.68,12.68,0,0,0-1.46-3.2c-.51-.83-1.64-2-1.79-3-.09-.6-.48-.7-.22-1.42a6.07,6.07,0,0,1,2.25-2.44,3.81,3.81,0,0,0,1.66-2.07c-1.37.53-2.8.9-4.18,1.49a4.84,4.84,0,0,1-3.74-.39c-.49-.29-.74-.94-1-1.4a7.22,7.22,0,0,1-1.1-3.71,5.87,5.87,0,0,1,.25-2.47,8,8,0,0,1,1.57-3.08,5.78,5.78,0,0,1,2.33-1,4.16,4.16,0,0,1,2.17.4l7.47,2.55c.06,0,.27.06.31.11Z"/><path class="cls-1" d="M679.85,775.87a52.44,52.44,0,0,0-.16-14.36c-1.42-8.14-5.24-16.77-7.94-16.3-5,.89-2.8,6.67-4.36,9.71s-3.83,4.1-3.74,7.64a5.73,5.73,0,0,0,3.41,4.9s-8-2.34-10.92,6.73c-1.19,3.67.23,8.85,5.54,11.66,3.61,1.91,7.74-.74,10.47-2.35a16.26,16.26,0,0,1,3.32-1.34L678,780Z"/><path class="cls-1" d="M681.11,777.24a52.87,52.87,0,0,1,14.36-1.92c8.26.26,17.35,2.83,17.26,5.56-.17,5.09-6.21,3.72-9,5.69s-3.52,4.38-7,4.79a5.72,5.72,0,0,1-5.33-2.69s3.44,7.59-5.13,11.76c-3.47,1.69-8.79,1-12.32-3.85-2.4-3.3-.36-7.76.85-10.69a16.14,16.14,0,0,0,.86-3.48l1.75-2.75Z"/><path class="cls-1" d="M682.76,776.12a1.44,1.44,0,1,1-.34-1.74A1.26,1.26,0,0,1,682.76,776.12Z"/><path class="cls-1" d="M670.18,788.64c-.38-.88,9.24-13,9.24-13s1.23-.55,1.79.05a1.34,1.34,0,0,1,.21,1.4S670.56,789.52,670.18,788.64Z"/><path class="cls-1" d="M832.08,469.18a100.84,100.84,0,0,1-3.18-14.8c-.79-7.42.43-14.57,2.71-13.82,4.24,1.4,7.47,11.52,9.54,15.56,1.52,3-4,6.82-4,6.82a2.34,2.34,0,0,1,.38-.09c3.57-.74,6.43.51,7.79,3.54a23.51,23.51,0,0,1,1.39,3.93,12.29,12.29,0,0,1,.2,5c-.38,1.09-1.2,2.77-2.4,3.25s-2.87-.55-3.94-1a18.44,18.44,0,0,1-3.52-2.06,10.49,10.49,0,0,1-2.23-1.53,7.78,7.78,0,0,1-.84-2A27.73,27.73,0,0,0,832.08,469.18Z"/><path class="cls-1" d="M827.93,465.61c.29.5,1.06.53,1.72.07a1.41,1.41,0,0,0,.67-1.72c-.29-.5-1.06-.53-1.72-.07A1.41,1.41,0,0,0,827.93,465.61Z"/><path class="cls-1" d="M837.48,479.36c.54-.85-6.26-13.89-6.26-13.89s-1.07-.67-1.73-.12a1.48,1.48,0,0,0-.47,1.39S836.93,480.21,837.48,479.36Z"/><path class="cls-1" d="M830.13,468.16s-5.06-3-15.77-2.93-13.07,2.92-13.07,2.92-.42.83-.23,1.26a3.57,3.57,0,0,0,1.25,1.41c.6.4,3.27,2.14,4,2.46a14.69,14.69,0,0,1,3.69,2.44c.92.8,2.08,2.45,3.3,2.81.75.23.76.74,1.77.54a9.06,9.06,0,0,0,3.82-2.42,5.55,5.55,0,0,1,3.16-1.74c-1.09,1.64-2,3.41-3.17,5a6.2,6.2,0,0,0-.62,4.83c.23.68,1,1.11,1.49,1.58,1.38,1.31,2.58,1.55,4.46,2.06a7.63,7.63,0,0,0,3.26.13,11.53,11.53,0,0,0,4.45-1.44,8.42,8.42,0,0,0,1.93-2.79,5.14,5.14,0,0,0,.14-2.83l-1.05-10c0-.09,0-.37,0-.43Z"/></g></svg>