<svg id="Capa_1" data-name="Capa 1" xmlns="http://www.w3.org/2000/svg" viewBox="0 0 850.39 850.39"><defs><style>.cls-1{fill:#fce8eb;}.cls-2{fill:#ecc4c4;fill-rule:evenodd;}</style></defs><rect class="cls-1" x="7.23" y="0.24" width="835.93" height="849.91"/><path class="cls-2" d="M95.87,195c-1.22-4.93,1.65-25.61,12.59-26.61,14.57-1.33,17.68,16.79,15.87,27-.51,2.92-3.84,1.43-3.72.35-.39-5.45.66-15.42-3.93-19.82-3.25-3.12-9.61-1.82-12.58,1.55-3.15,3.55-4.39,10.86-4.49,17,0,1.78-.3,4-2.41,4.16-1.38.1-1.08-2.62-1.33-3.63"/><path class="cls-2" d="M102.76,189.54c-.36,1.93-1.08,7.45.48,7.8s1.63-4.22,2-6.58c.61-3.65,1-5.29,2.68-6.71,3-2.54,6.43,2.08,5.82,6.84-.47,3.74-.24,5.53.59,5.86,1.3.51,2.08-.37,2.52-1.77a16.07,16.07,0,0,0,.24-6.64l-.06-.27c-.93-4.54-3.22-8.43-7.31-8.48s-6.64,8.12-7,9.95"/><path class="cls-2" d="M106.47,194.12c-.14.8-.4,2.17.25,2.2,1,.25,1.08-.61,1.23-1.58.23-1.51.19-2,.53-2.27.72-.61,1.46.08,1.21,2.05-.19,1.55,0,1.91.26,2a1,1,0,0,0,1.26-.6,6.76,6.76,0,0,0,.09-2.51c-.24-1.6-.84-3.39-2.4-3.51-1.77-.14-2.3,3.43-2.43,4.19"/><path class="cls-2" d="M143.84,94.22c-1.22-4.93,1.65-25.61,12.59-26.61,14.57-1.34,17.68,16.78,15.88,27-.52,2.93-3.85,1.44-3.72.36-.4-5.45.65-15.43-3.94-19.83-3.24-3.11-9.61-1.81-12.58,1.55-3.14,3.56-4.39,10.87-4.49,17,0,1.78-.3,4-2.41,4.15-1.38.11-1.08-2.61-1.33-3.62"/><path class="cls-2" d="M150.73,88.72c-.36,1.94-1.08,7.46.48,7.8s1.63-4.22,2-6.58c.61-3.65,1-5.28,2.68-6.71,3-2.53,6.43,2.08,5.83,6.85-.47,3.73-.25,5.53.59,5.86,1.29.51,2.07-.38,2.51-1.78a16,16,0,0,0,.24-6.63l-.06-.28c-.93-4.54-3.22-8.42-7.31-8.48s-6.64,8.13-7,10"/><path class="cls-2" d="M154.44,93.3c-.14.8-.39,2.18.25,2.21,1,.25,1.08-.61,1.23-1.58.23-1.52.19-2,.53-2.27.72-.61,1.46.08,1.22,2-.19,1.54,0,1.9.25,2a1,1,0,0,0,1.27-.6,6.74,6.74,0,0,0,.08-2.51c-.24-1.61-.84-3.39-2.4-3.52-1.77-.14-2.3,3.44-2.43,4.19"/><path class="cls-2" d="M56.16,307.61C57.38,302.68,54.51,282,43.57,281,29,279.66,25.89,297.78,27.69,308c.52,2.92,3.85,1.44,3.72.35.4-5.44-.65-15.42,3.94-19.82,3.24-3.12,9.61-1.81,12.58,1.55,3.14,3.55,4.39,10.86,4.49,17,0,1.78.3,4,2.41,4.15,1.38.11,1.08-2.61,1.33-3.62"/><path class="cls-2" d="M49.27,302.11c.36,1.94,1.08,7.46-.48,7.8s-1.63-4.22-2-6.58c-.61-3.65-1-5.29-2.68-6.71-3-2.53-6.43,2.08-5.83,6.85.47,3.73.25,5.53-.59,5.86-1.29.5-2.07-.38-2.51-1.78a16,16,0,0,1-.24-6.63l.06-.28c.93-4.54,3.22-8.43,7.31-8.48s6.64,8.13,7,9.95"/><path class="cls-2" d="M45.56,306.69c.14.8.39,2.18-.25,2.21-1,.25-1.08-.61-1.23-1.59-.23-1.51-.19-2-.53-2.26-.72-.62-1.46.08-1.22,2.05.19,1.54,0,1.9-.25,2a1,1,0,0,1-1.27-.59,6.79,6.79,0,0,1-.08-2.52c.24-1.6.84-3.39,2.4-3.51,1.77-.14,2.3,3.43,2.43,4.19"/><path class="cls-2" d="M211.55,257.27c-1.22-4.94,1.65-25.61,12.59-26.62,14.57-1.33,17.68,16.79,15.88,27-.52,2.92-3.85,1.44-3.72.35-.39-5.44.66-15.42-3.93-19.82-3.25-3.12-9.61-1.81-12.59,1.55-3.14,3.55-4.38,10.86-4.49,17,0,1.78-.3,4-2.41,4.15-1.38.11-1.08-2.61-1.33-3.62"/><path class="cls-2" d="M218.44,251.77c-.35,1.94-1.08,7.46.48,7.8s1.64-4.22,2-6.58c.6-3.65,1-5.29,2.67-6.71,3-2.53,6.43,2.08,5.83,6.85-.47,3.73-.25,5.53.59,5.85,1.29.51,2.08-.37,2.51-1.77a15.7,15.7,0,0,0,.24-6.63l-.06-.28c-.92-4.54-3.21-8.43-7.31-8.48s-6.64,8.12-7,10"/><path class="cls-2" d="M222.15,256.35c-.13.8-.39,2.17.25,2.2,1,.26,1.08-.6,1.23-1.58.24-1.51.2-2,.53-2.27.72-.61,1.46.09,1.22,2.06-.19,1.54,0,1.9.25,2a1,1,0,0,0,1.27-.59,6.8,6.8,0,0,0,.08-2.52c-.23-1.6-.84-3.39-2.4-3.51-1.77-.14-2.3,3.43-2.43,4.19"/><path class="cls-2" d="M281.86,330.37c-1.22-4.93,1.66-25.61,12.6-26.61,14.56-1.34,17.68,16.78,15.87,27-.52,2.92-3.84,1.44-3.72.35-.39-5.44.66-15.42-3.93-19.82-3.25-3.12-9.61-1.81-12.59,1.55-3.14,3.55-4.38,10.86-4.49,17,0,1.78-.29,4-2.4,4.15-1.39.11-1.09-2.61-1.34-3.62"/><path class="cls-2" d="M288.76,324.87c-.36,1.94-1.08,7.46.47,7.8s1.64-4.22,2-6.58c.6-3.65,1-5.29,2.67-6.71,3-2.53,6.43,2.08,5.83,6.85-.47,3.73-.24,5.53.59,5.86,1.29.5,2.08-.38,2.52-1.78a15.85,15.85,0,0,0,.23-6.63l-.05-.28c-.93-4.54-3.22-8.43-7.32-8.48s-6.64,8.13-7,9.95"/><path class="cls-2" d="M292.47,329.45c-.14.8-.4,2.18.25,2.21,1,.25,1.07-.61,1.23-1.59.23-1.51.19-2,.53-2.26.71-.62,1.45.08,1.21,2.05-.19,1.54,0,1.9.26,2a.94.94,0,0,0,1.26-.59,6.59,6.59,0,0,0,.08-2.52c-.23-1.6-.83-3.39-2.4-3.51-1.76-.14-2.3,3.43-2.42,4.19"/><path class="cls-2" d="M382.91,387.42c-1.22-4.93,1.65-25.61,12.59-26.61,14.57-1.33,17.69,16.79,15.88,27-.52,2.92-3.85,1.43-3.72.35-.39-5.45.66-15.42-3.93-19.83-3.25-3.11-9.61-1.81-12.59,1.55-3.14,3.56-4.38,10.87-4.49,17,0,1.78-.3,4-2.41,4.16-1.38.1-1.08-2.62-1.33-3.63"/><path class="cls-2" d="M389.8,381.93c-.35,1.93-1.08,7.45.48,7.8s1.64-4.23,2-6.58c.6-3.65,1-5.29,2.67-6.71,3-2.54,6.43,2.08,5.83,6.84-.47,3.74-.25,5.53.59,5.86,1.29.51,2.08-.37,2.52-1.77a15.89,15.89,0,0,0,.23-6.64l-.06-.27c-.92-4.54-3.21-8.43-7.31-8.49s-6.64,8.13-7,10"/><path class="cls-2" d="M393.51,386.5c-.13.81-.39,2.18.25,2.21,1,.25,1.08-.61,1.23-1.58.24-1.51.2-2,.53-2.27.72-.61,1.46.08,1.22,2.05-.19,1.55,0,1.91.25,2a1,1,0,0,0,1.27-.6,6.53,6.53,0,0,0,.08-2.51c-.23-1.6-.83-3.39-2.4-3.51-1.77-.14-2.3,3.43-2.43,4.18"/><path class="cls-2" d="M147.9,321.44c1.22-4.93-1.65-25.61-12.59-26.61-14.57-1.34-17.68,16.78-15.88,27,.52,2.92,3.85,1.44,3.72.35.4-5.44-.65-15.42,3.94-19.82,3.24-3.12,9.61-1.81,12.58,1.55,3.14,3.55,4.39,10.86,4.49,17,0,1.78.3,4,2.41,4.15,1.38.11,1.08-2.61,1.33-3.62"/><path class="cls-2" d="M141,315.94c.36,1.94,1.08,7.46-.48,7.8s-1.63-4.22-2-6.58c-.61-3.65-1-5.29-2.68-6.71-3-2.53-6.43,2.08-5.83,6.85.47,3.73.25,5.53-.59,5.86-1.29.5-2.07-.38-2.51-1.78a16,16,0,0,1-.24-6.63l.06-.28c.93-4.54,3.22-8.43,7.31-8.48s6.64,8.13,7,9.95"/><path class="cls-2" d="M137.3,320.52c.14.8.4,2.18-.25,2.21-1,.25-1.08-.61-1.23-1.59-.23-1.51-.19-2-.53-2.26-.72-.62-1.46.08-1.22,2.05.19,1.54,0,1.9-.25,2a1,1,0,0,1-1.27-.59,6.79,6.79,0,0,1-.08-2.52c.24-1.6.84-3.39,2.4-3.51,1.77-.14,2.3,3.43,2.43,4.19"/><path class="cls-2" d="M35.72,53c-1.22-4.93,1.65-25.61,12.59-26.61,14.57-1.33,17.68,16.79,15.88,27-.52,2.93-3.85,1.44-3.72.36-.4-5.45.65-15.43-3.94-19.83C53.29,30.8,46.92,32.1,44,35.46c-3.14,3.56-4.39,10.87-4.49,17,0,1.78-.3,4-2.41,4.16C35.67,56.72,36,54,35.72,53"/><path class="cls-2" d="M42.61,47.49c-.36,1.94-1.08,7.46.48,7.8s1.63-4.22,2-6.58c.61-3.65,1-5.28,2.68-6.71,3-2.53,6.43,2.08,5.83,6.85-.47,3.73-.25,5.53.59,5.86,1.29.51,2.07-.38,2.51-1.78A16,16,0,0,0,57,46.3L56.9,46c-.93-4.54-3.22-8.42-7.31-8.48s-6.64,8.13-7,10"/><path class="cls-2" d="M46.32,52.07c-.14.8-.4,2.18.25,2.21,1,.25,1.08-.61,1.23-1.58.23-1.52.19-2,.53-2.27.72-.61,1.46.08,1.22,2-.19,1.54,0,1.9.25,2a1,1,0,0,0,1.27-.6,6.74,6.74,0,0,0,.08-2.51c-.24-1.61-.84-3.39-2.4-3.52-1.77-.14-2.3,3.44-2.43,4.19"/><path class="cls-2" d="M251.36,161.14c-1.22-4.93,1.66-25.61,12.6-26.61,14.56-1.34,17.68,16.79,15.87,27-.52,2.93-3.84,1.44-3.72.36-.39-5.45.66-15.43-3.93-19.83-3.25-3.11-9.61-1.81-12.58,1.55-3.15,3.56-4.39,10.87-4.49,17,0,1.78-.3,4-2.41,4.16-1.39.1-1.09-2.62-1.34-3.63"/><path class="cls-2" d="M258.26,155.64c-.36,1.94-1.08,7.46.47,7.8s1.64-4.22,2-6.58c.6-3.65,1-5.28,2.68-6.71,3-2.53,6.42,2.08,5.82,6.85-.47,3.73-.24,5.53.59,5.86,1.29.51,2.08-.38,2.52-1.78a15.85,15.85,0,0,0,.23-6.63l-.05-.28c-.93-4.54-3.22-8.42-7.32-8.48s-6.64,8.13-7,9.95"/><path class="cls-2" d="M262,160.22c-.14.81-.4,2.18.25,2.21,1,.25,1.08-.61,1.23-1.58.23-1.52.19-2,.53-2.27.71-.61,1.45.08,1.21,2-.19,1.54,0,1.9.26,2a1,1,0,0,0,1.26-.6,6.54,6.54,0,0,0,.08-2.51c-.23-1.61-.83-3.39-2.4-3.52-1.76-.14-2.29,3.44-2.42,4.19"/><path class="cls-2" d="M267.18,48.2c-1.22-4.93,1.65-25.61,12.59-26.61,14.57-1.33,17.68,16.79,15.87,27-.51,2.92-3.84,1.44-3.71.35-.4-5.44.65-15.42-3.94-19.82-3.24-3.12-9.61-1.82-12.58,1.55-3.14,3.55-4.39,10.86-4.49,17,0,1.77-.3,4-2.41,4.15-1.38.1-1.08-2.61-1.33-3.63"/><path class="cls-2" d="M274.07,42.71c-.36,1.94-1.08,7.45.48,7.8s1.63-4.22,2-6.58c.61-3.65,1-5.29,2.68-6.71,3-2.54,6.43,2.08,5.83,6.85-.48,3.73-.25,5.52.59,5.85,1.29.51,2.07-.37,2.51-1.77a16.07,16.07,0,0,0,.24-6.64l-.06-.27c-.93-4.54-3.22-8.43-7.31-8.48s-6.64,8.12-7,10"/><path class="cls-2" d="M277.78,47.29c-.14.8-.4,2.17.25,2.2,1,.26,1.08-.6,1.23-1.58.23-1.51.19-2,.53-2.27.72-.61,1.46.08,1.22,2.06-.19,1.54,0,1.9.25,2a1,1,0,0,0,1.27-.6,6.74,6.74,0,0,0,.08-2.51c-.24-1.6-.84-3.39-2.4-3.51-1.77-.14-2.3,3.43-2.43,4.19"/><path class="cls-2" d="M161.91,417.23c-1.22-4.93,1.65-25.61,12.59-26.61,14.57-1.34,17.69,16.78,15.88,27-.52,2.93-3.85,1.44-3.72.36-.39-5.45.66-15.43-3.93-19.83-3.25-3.12-9.61-1.81-12.59,1.55-3.14,3.55-4.38,10.86-4.49,17,0,1.78-.3,4-2.41,4.15-1.38.11-1.08-2.61-1.33-3.62"/><path class="cls-2" d="M168.8,411.73c-.35,1.94-1.08,7.46.48,7.8s1.64-4.22,2-6.58c.6-3.65,1-5.28,2.67-6.71,3-2.53,6.43,2.08,5.83,6.85-.47,3.73-.25,5.53.59,5.86,1.29.51,2.08-.38,2.52-1.78a15.85,15.85,0,0,0,.23-6.63l-.06-.28c-.92-4.54-3.21-8.42-7.31-8.48s-6.64,8.13-7,10"/><path class="cls-2" d="M172.51,416.31c-.13.8-.39,2.18.25,2.21,1,.25,1.08-.61,1.23-1.59.24-1.51.2-2,.53-2.26.72-.61,1.46.08,1.22,2.05-.19,1.54,0,1.9.25,2a1,1,0,0,0,1.27-.6,6.74,6.74,0,0,0,.08-2.51c-.23-1.61-.83-3.4-2.4-3.52-1.77-.14-2.3,3.44-2.43,4.19"/><path class="cls-2" d="M372.24,220.88c-1.22-4.94,1.65-25.61,12.59-26.61,14.57-1.34,17.68,16.78,15.88,27-.52,2.92-3.85,1.44-3.72.35-.4-5.44.65-15.42-3.93-19.82-3.25-3.12-9.62-1.81-12.59,1.55-3.14,3.55-4.39,10.86-4.49,17,0,1.78-.3,4-2.41,4.15-1.38.11-1.08-2.61-1.33-3.62"/><path class="cls-2" d="M379.13,215.38c-.36,1.94-1.08,7.46.48,7.8s1.63-4.22,2-6.58c.61-3.65,1-5.29,2.68-6.71,3-2.53,6.43,2.08,5.83,6.85-.47,3.73-.25,5.53.59,5.86,1.29.5,2.07-.38,2.51-1.78a16,16,0,0,0,.24-6.63l-.06-.28c-.93-4.54-3.22-8.43-7.31-8.48s-6.64,8.13-7,9.95"/><path class="cls-2" d="M382.84,220c-.14.8-.39,2.17.25,2.2,1,.26,1.08-.6,1.23-1.58.23-1.51.19-2,.53-2.27.72-.61,1.46.09,1.22,2.06-.19,1.54,0,1.9.25,2a1,1,0,0,0,1.27-.59,6.79,6.79,0,0,0,.08-2.52c-.24-1.6-.84-3.39-2.4-3.51-1.77-.14-2.3,3.43-2.43,4.19"/><path class="cls-2" d="M401.84,97.68c1.22-4.93-1.65-25.61-12.59-26.61-14.57-1.33-17.68,16.79-15.87,27,.51,2.92,3.84,1.43,3.72.35C377.49,93,376.44,83,381,78.61c3.24-3.12,9.61-1.82,12.58,1.55,3.14,3.55,4.39,10.86,4.49,17,0,1.78.3,4,2.41,4.16,1.38.1,1.08-2.62,1.33-3.63"/><path class="cls-2" d="M395,92.19c.36,1.93,1.08,7.45-.48,7.8s-1.63-4.22-2-6.58c-.61-3.65-1-5.29-2.68-6.71-3-2.54-6.43,2.08-5.83,6.84.47,3.74.25,5.53-.59,5.86-1.29.51-2.07-.37-2.51-1.77A16.07,16.07,0,0,1,380.6,91l.06-.27c.93-4.54,3.22-8.43,7.31-8.48s6.64,8.12,7,10"/><path class="cls-2" d="M391.24,96.77c.14.8.4,2.17-.25,2.2-1,.25-1.08-.61-1.23-1.58-.23-1.51-.19-2-.53-2.27-.72-.61-1.46.08-1.22,2,.19,1.55,0,1.91-.25,2a1,1,0,0,1-1.27-.6,6.74,6.74,0,0,1-.08-2.51c.24-1.6.84-3.39,2.4-3.51,1.77-.14,2.3,3.43,2.43,4.19"/><path class="cls-2" d="M517.4,195c-1.22-4.93,1.65-25.61,12.59-26.61,14.57-1.33,17.68,16.79,15.88,27-.52,2.92-3.85,1.43-3.72.35-.4-5.45.65-15.42-3.94-19.82-3.24-3.12-9.61-1.82-12.58,1.55-3.14,3.55-4.39,10.86-4.49,17,0,1.78-.3,4-2.41,4.16-1.38.1-1.08-2.62-1.33-3.63"/><path class="cls-2" d="M524.29,189.54c-.36,1.93-1.08,7.45.48,7.8s1.63-4.22,2-6.58c.61-3.65,1-5.29,2.68-6.71,3-2.54,6.43,2.08,5.83,6.84-.47,3.74-.25,5.53.59,5.86,1.29.51,2.07-.37,2.51-1.77a16.07,16.07,0,0,0,.24-6.64l-.06-.27c-.93-4.54-3.22-8.43-7.31-8.48s-6.64,8.12-7,9.95"/><path class="cls-2" d="M528,194.12c-.14.8-.39,2.17.25,2.2,1,.25,1.08-.61,1.23-1.58.23-1.51.19-2,.53-2.27.72-.61,1.46.08,1.22,2.05-.19,1.55,0,1.91.25,2a1,1,0,0,0,1.27-.6,6.74,6.74,0,0,0,.08-2.51c-.24-1.6-.84-3.39-2.4-3.51-1.77-.14-2.3,3.43-2.43,4.19"/><path class="cls-2" d="M565.37,94.22C564.15,89.29,567,68.61,578,67.61c14.57-1.34,17.69,16.78,15.88,27-.52,2.93-3.85,1.44-3.72.36-.39-5.45.66-15.43-3.93-19.83-3.25-3.11-9.61-1.81-12.59,1.55-3.14,3.56-4.38,10.87-4.49,17,0,1.78-.3,4-2.41,4.15-1.38.11-1.08-2.61-1.33-3.62"/><path class="cls-2" d="M572.26,88.72c-.35,1.94-1.08,7.46.48,7.8s1.64-4.22,2-6.58c.6-3.65,1-5.28,2.67-6.71,3-2.53,6.43,2.08,5.83,6.85-.47,3.73-.25,5.53.59,5.86,1.29.51,2.08-.38,2.52-1.78a15.85,15.85,0,0,0,.23-6.63l-.06-.28c-.92-4.54-3.21-8.42-7.31-8.48s-6.64,8.13-7,10"/><path class="cls-2" d="M576,93.3c-.13.8-.39,2.18.25,2.21,1,.25,1.08-.61,1.23-1.58.24-1.52.2-2,.53-2.27.72-.61,1.46.08,1.22,2-.19,1.54,0,1.9.25,2a1,1,0,0,0,1.27-.6,6.74,6.74,0,0,0,.08-2.51c-.23-1.61-.83-3.39-2.4-3.52-1.77-.14-2.3,3.44-2.43,4.19"/><path class="cls-2" d="M477.69,307.61C478.91,302.68,476,282,465.1,281c-14.57-1.34-17.68,16.78-15.87,27,.51,2.92,3.84,1.44,3.72.35.39-5.44-.66-15.42,3.93-19.82,3.25-3.12,9.61-1.81,12.58,1.55,3.15,3.55,4.39,10.86,4.49,17,0,1.78.3,4,2.41,4.15,1.38.11,1.08-2.61,1.33-3.62"/><path class="cls-2" d="M470.8,302.11c.36,1.94,1.08,7.46-.48,7.8s-1.63-4.22-2-6.58c-.61-3.65-1-5.29-2.68-6.71-3-2.53-6.43,2.08-5.82,6.85.47,3.73.24,5.53-.59,5.86-1.3.5-2.08-.38-2.52-1.78a16,16,0,0,1-.24-6.63l.06-.28c.93-4.54,3.22-8.43,7.31-8.48s6.64,8.13,7,9.95"/><path class="cls-2" d="M467.09,306.69c.14.8.4,2.18-.25,2.21-1,.25-1.08-.61-1.23-1.59-.23-1.51-.19-2-.53-2.26-.72-.62-1.46.08-1.21,2.05.19,1.54,0,1.9-.26,2a1,1,0,0,1-1.27-.59,7,7,0,0,1-.08-2.52c.24-1.6.84-3.39,2.4-3.51,1.77-.14,2.3,3.43,2.43,4.19"/><path class="cls-2" d="M633.08,257.27c-1.22-4.94,1.66-25.61,12.6-26.62,14.56-1.33,17.68,16.79,15.87,27-.52,2.92-3.84,1.44-3.72.35-.39-5.44.66-15.42-3.93-19.82-3.25-3.12-9.61-1.81-12.59,1.55-3.14,3.55-4.38,10.86-4.49,17,0,1.78-.29,4-2.4,4.15-1.39.11-1.09-2.61-1.34-3.62"/><path class="cls-2" d="M640,251.77c-.36,1.94-1.08,7.46.47,7.8s1.64-4.22,2-6.58c.6-3.65,1-5.29,2.67-6.71,3-2.53,6.43,2.08,5.83,6.85-.47,3.73-.24,5.53.59,5.85,1.29.51,2.08-.37,2.52-1.77a15.85,15.85,0,0,0,.23-6.63l-.05-.28c-.93-4.54-3.22-8.43-7.32-8.48s-6.64,8.12-7,10"/><path class="cls-2" d="M643.69,256.35c-.14.8-.4,2.17.25,2.2,1,.26,1.07-.6,1.23-1.58.23-1.51.19-2,.52-2.27.72-.61,1.46.09,1.22,2.06-.19,1.54,0,1.9.26,2a.94.94,0,0,0,1.26-.59,6.59,6.59,0,0,0,.08-2.52c-.23-1.6-.83-3.39-2.4-3.51-1.76-.14-2.3,3.43-2.42,4.19"/><path class="cls-2" d="M703.4,330.37c-1.22-4.93,1.65-25.61,12.59-26.61,14.57-1.34,17.68,16.78,15.87,27-.51,2.92-3.84,1.44-3.72.35-.39-5.44.66-15.42-3.93-19.82-3.25-3.12-9.61-1.81-12.58,1.55-3.15,3.55-4.39,10.86-4.49,17,0,1.78-.3,4-2.41,4.15-1.38.11-1.08-2.61-1.33-3.62"/><path class="cls-2" d="M710.29,324.87c-.36,1.94-1.08,7.46.48,7.8s1.63-4.22,2-6.58c.6-3.65,1-5.29,2.68-6.71,3-2.53,6.43,2.08,5.82,6.85-.47,3.73-.24,5.53.59,5.86,1.29.5,2.08-.38,2.52-1.78a15.85,15.85,0,0,0,.23-6.63l0-.28c-.93-4.54-3.22-8.43-7.31-8.48s-6.64,8.13-7,9.95"/><path class="cls-2" d="M714,329.45c-.14.8-.4,2.18.25,2.21,1,.25,1.08-.61,1.23-1.59.23-1.51.19-2,.53-2.26.72-.62,1.46.08,1.21,2.05-.19,1.54,0,1.9.26,2a.94.94,0,0,0,1.26-.59,6.81,6.81,0,0,0,.09-2.52c-.24-1.6-.84-3.39-2.4-3.51-1.77-.14-2.3,3.43-2.43,4.19"/><path class="cls-2" d="M804.44,387.42c-1.22-4.93,1.66-25.61,12.6-26.61,14.56-1.33,17.68,16.79,15.87,27-.52,2.92-3.84,1.43-3.72.35-.39-5.45.66-15.42-3.93-19.83-3.25-3.11-9.61-1.81-12.58,1.55-3.15,3.56-4.39,10.87-4.5,17,0,1.78-.29,4-2.4,4.16-1.39.1-1.09-2.62-1.34-3.63"/><path class="cls-2" d="M811.34,381.93c-.36,1.93-1.08,7.45.47,7.8s1.64-4.23,2-6.58c.6-3.65,1-5.29,2.68-6.71,3-2.54,6.42,2.08,5.82,6.84-.47,3.74-.24,5.53.59,5.86,1.29.51,2.08-.37,2.52-1.77a15.89,15.89,0,0,0,.23-6.64l0-.27c-.93-4.54-3.22-8.43-7.32-8.49s-6.64,8.13-7,10"/><path class="cls-2" d="M815.05,386.5c-.14.81-.4,2.18.25,2.21,1,.25,1.07-.61,1.23-1.58.23-1.51.19-2,.53-2.27.71-.61,1.45.08,1.21,2.05-.19,1.55,0,1.91.26,2a1,1,0,0,0,1.26-.6,6.53,6.53,0,0,0,.08-2.51c-.23-1.6-.83-3.39-2.4-3.51-1.76-.14-2.3,3.43-2.42,4.18"/><path class="cls-2" d="M569.44,321.44c1.22-4.93-1.66-25.61-12.6-26.61-14.57-1.34-17.68,16.78-15.87,27,.51,2.92,3.84,1.44,3.72.35.39-5.44-.66-15.42,3.93-19.82,3.25-3.12,9.61-1.81,12.58,1.55,3.15,3.55,4.39,10.86,4.49,17,0,1.78.3,4,2.41,4.15,1.38.11,1.09-2.61,1.34-3.62"/><path class="cls-2" d="M562.54,315.94c.36,1.94,1.08,7.46-.48,7.8s-1.63-4.22-2-6.58c-.6-3.65-1-5.29-2.68-6.71-3-2.53-6.42,2.08-5.82,6.85.47,3.73.24,5.53-.59,5.86-1.29.5-2.08-.38-2.52-1.78a15.85,15.85,0,0,1-.23-6.63l0-.28c.93-4.54,3.22-8.43,7.32-8.48s6.64,8.13,7,9.95"/><path class="cls-2" d="M558.83,320.52c.14.8.4,2.18-.25,2.21-1,.25-1.08-.61-1.23-1.59-.23-1.51-.19-2-.53-2.26-.71-.62-1.46.08-1.21,2.05.19,1.54,0,1.9-.26,2a.94.94,0,0,1-1.26-.59,6.81,6.81,0,0,1-.09-2.52c.24-1.6.84-3.39,2.4-3.51,1.77-.14,2.3,3.43,2.43,4.19"/><path class="cls-2" d="M457.25,53c-1.22-4.93,1.65-25.61,12.59-26.61,14.57-1.33,17.68,16.79,15.88,27-.52,2.93-3.85,1.44-3.72.36-.39-5.45.66-15.43-3.93-19.83-3.25-3.11-9.62-1.81-12.59,1.55-3.14,3.56-4.38,10.87-4.49,17,0,1.78-.3,4-2.41,4.16-1.38.1-1.08-2.62-1.33-3.63"/><path class="cls-2" d="M464.14,47.49c-.35,1.94-1.08,7.46.48,7.8s1.64-4.22,2-6.58c.6-3.65,1-5.28,2.67-6.71,3-2.53,6.43,2.08,5.83,6.85-.47,3.73-.25,5.53.59,5.86,1.29.51,2.08-.38,2.51-1.78a15.86,15.86,0,0,0,.24-6.63l-.06-.28c-.92-4.54-3.21-8.42-7.31-8.48s-6.64,8.13-7,10"/><path class="cls-2" d="M467.85,52.07c-.13.8-.39,2.18.25,2.21,1,.25,1.08-.61,1.23-1.58.24-1.52.2-2,.53-2.27.72-.61,1.46.08,1.22,2-.19,1.54,0,1.9.25,2a1,1,0,0,0,1.27-.6,6.74,6.74,0,0,0,.08-2.51c-.23-1.61-.84-3.39-2.4-3.52-1.77-.14-2.3,3.44-2.43,4.19"/><path class="cls-2" d="M672.9,161.14c-1.22-4.93,1.65-25.61,12.59-26.61,14.57-1.34,17.68,16.79,15.87,27-.51,2.93-3.84,1.44-3.72.36-.39-5.45.66-15.43-3.93-19.83-3.25-3.11-9.61-1.81-12.58,1.55-3.14,3.56-4.39,10.87-4.49,17,0,1.78-.3,4-2.41,4.16-1.38.1-1.08-2.62-1.33-3.63"/><path class="cls-2" d="M679.79,155.64c-.36,1.94-1.08,7.46.48,7.8s1.63-4.22,2-6.58c.61-3.65,1-5.28,2.68-6.71,3-2.53,6.43,2.08,5.83,6.85-.48,3.73-.25,5.53.58,5.86,1.3.51,2.08-.38,2.52-1.78a16,16,0,0,0,.24-6.63l-.06-.28c-.93-4.54-3.22-8.42-7.31-8.48s-6.64,8.13-7,9.95"/><path class="cls-2" d="M683.5,160.22c-.14.81-.4,2.18.25,2.21,1,.25,1.08-.61,1.23-1.58.23-1.52.19-2,.53-2.27.72-.61,1.46.08,1.21,2-.19,1.54,0,1.9.26,2a1,1,0,0,0,1.27-.6,7,7,0,0,0,.08-2.51c-.24-1.61-.84-3.39-2.4-3.52-1.77-.14-2.3,3.44-2.43,4.19"/><path class="cls-2" d="M688.71,48.2c-1.22-4.93,1.65-25.61,12.59-26.61,14.57-1.33,17.68,16.79,15.88,27-.52,2.92-3.85,1.44-3.72.35-.39-5.44.65-15.42-3.93-19.82-3.25-3.12-9.62-1.82-12.59,1.55-3.14,3.55-4.38,10.86-4.49,17,0,1.77-.3,4-2.41,4.15-1.38.1-1.08-2.61-1.33-3.63"/><path class="cls-2" d="M695.6,42.71c-.35,1.94-1.08,7.45.48,7.8s1.63-4.22,2-6.58c.61-3.65,1-5.29,2.68-6.71,3-2.54,6.43,2.08,5.83,6.85-.47,3.73-.25,5.52.59,5.85,1.29.51,2.07-.37,2.51-1.77a16.07,16.07,0,0,0,.24-6.64l-.06-.27c-.93-4.54-3.22-8.43-7.31-8.48s-6.64,8.12-7,10"/><path class="cls-2" d="M699.31,47.29c-.14.8-.39,2.17.25,2.2,1,.26,1.08-.6,1.23-1.58.23-1.51.19-2,.53-2.27.72-.61,1.46.08,1.22,2.06-.19,1.54,0,1.9.25,2a1,1,0,0,0,1.27-.6,6.74,6.74,0,0,0,.08-2.51c-.23-1.6-.84-3.39-2.4-3.51-1.77-.14-2.3,3.43-2.43,4.19"/><path class="cls-2" d="M583.44,417.23c-1.22-4.93,1.66-25.61,12.6-26.61,14.56-1.34,17.68,16.78,15.87,27-.52,2.93-3.84,1.44-3.72.36-.39-5.45.66-15.43-3.93-19.83-3.25-3.12-9.61-1.81-12.59,1.55-3.14,3.55-4.38,10.86-4.49,17,0,1.78-.29,4-2.4,4.15-1.39.11-1.09-2.61-1.34-3.62"/><path class="cls-2" d="M590.34,411.73c-.36,1.94-1.08,7.46.47,7.8s1.64-4.22,2-6.58c.6-3.65,1-5.28,2.67-6.71,3-2.53,6.43,2.08,5.83,6.85-.47,3.73-.24,5.53.59,5.86,1.29.51,2.08-.38,2.52-1.78a15.85,15.85,0,0,0,.23-6.63l0-.28c-.93-4.54-3.22-8.42-7.32-8.48s-6.64,8.13-7,10"/><path class="cls-2" d="M594.05,416.31c-.14.8-.4,2.18.25,2.21,1,.25,1.07-.61,1.23-1.59.23-1.51.19-2,.53-2.26.71-.61,1.45.08,1.21,2.05-.19,1.54,0,1.9.26,2a1,1,0,0,0,1.26-.6,6.54,6.54,0,0,0,.08-2.51c-.23-1.61-.83-3.4-2.4-3.52-1.76-.14-2.3,3.44-2.42,4.19"/><path class="cls-2" d="M793.77,220.88c-1.22-4.94,1.65-25.61,12.59-26.61,14.57-1.34,17.69,16.78,15.88,27-.52,2.92-3.85,1.44-3.72.35-.39-5.44.66-15.42-3.93-19.82-3.25-3.12-9.61-1.81-12.59,1.55-3.14,3.55-4.38,10.86-4.49,17,0,1.78-.3,4-2.41,4.15-1.38.11-1.08-2.61-1.33-3.62"/><path class="cls-2" d="M800.66,215.38c-.35,1.94-1.08,7.46.48,7.8s1.64-4.22,2-6.58c.6-3.65,1-5.29,2.67-6.71,3-2.53,6.43,2.08,5.83,6.85-.47,3.73-.25,5.53.59,5.86,1.29.5,2.08-.38,2.51-1.78a15.7,15.7,0,0,0,.24-6.63l-.06-.28c-.92-4.54-3.21-8.43-7.31-8.48s-6.64,8.13-7,9.95"/><path class="cls-2" d="M804.37,220c-.13.8-.39,2.17.25,2.2,1,.26,1.08-.6,1.23-1.58.24-1.51.2-2,.53-2.27.72-.61,1.46.09,1.22,2.06-.19,1.54,0,1.9.25,2a1,1,0,0,0,1.27-.59,6.79,6.79,0,0,0,.08-2.52c-.23-1.6-.83-3.39-2.4-3.51-1.77-.14-2.3,3.43-2.43,4.19"/><path class="cls-2" d="M823.38,97.68c1.22-4.93-1.66-25.61-12.6-26.61-14.57-1.33-17.68,16.79-15.87,27,.51,2.92,3.84,1.43,3.72.35C799,93,798,83,802.56,78.61c3.25-3.12,9.61-1.82,12.58,1.55,3.15,3.55,4.39,10.86,4.49,17,0,1.78.3,4,2.41,4.16,1.39.1,1.09-2.62,1.34-3.63"/><path class="cls-2" d="M816.48,92.19c.36,1.93,1.08,7.45-.48,7.8s-1.63-4.22-2-6.58c-.6-3.65-1-5.29-2.68-6.71-3-2.54-6.42,2.08-5.82,6.84.47,3.74.24,5.53-.59,5.86-1.29.51-2.08-.37-2.52-1.77a15.89,15.89,0,0,1-.23-6.64l.05-.27c.93-4.54,3.22-8.43,7.32-8.48s6.64,8.12,7,10"/><path class="cls-2" d="M812.77,96.77c.14.8.4,2.17-.25,2.2-1,.25-1.08-.61-1.23-1.58-.23-1.51-.19-2-.53-2.27-.71-.61-1.46.08-1.21,2,.19,1.55,0,1.91-.26,2a1,1,0,0,1-1.26-.6,6.76,6.76,0,0,1-.09-2.51c.24-1.6.84-3.39,2.4-3.51,1.77-.14,2.3,3.43,2.43,4.19"/><path class="cls-2" d="M95.87,616.57C94.65,611.63,97.52,591,108.46,590c14.57-1.33,17.68,16.79,15.87,27-.51,2.92-3.84,1.44-3.72.35-.39-5.44.66-15.42-3.93-19.82-3.25-3.12-9.61-1.81-12.58,1.55-3.15,3.55-4.39,10.86-4.49,17,0,1.78-.3,4-2.41,4.15-1.38.1-1.08-2.61-1.33-3.62"/><path class="cls-2" d="M102.76,611.07c-.36,1.94-1.08,7.46.48,7.8s1.63-4.22,2-6.58c.61-3.65,1-5.29,2.68-6.71,3-2.53,6.43,2.08,5.82,6.85-.47,3.73-.24,5.53.59,5.85,1.3.51,2.08-.37,2.52-1.77a16,16,0,0,0,.24-6.63l-.06-.28c-.93-4.54-3.22-8.43-7.31-8.48s-6.64,8.12-7,10"/><path class="cls-2" d="M106.47,615.65c-.14.8-.4,2.17.25,2.2,1,.26,1.08-.6,1.23-1.58.23-1.51.19-2,.53-2.27.72-.61,1.46.09,1.21,2.06-.19,1.54,0,1.9.26,2a.94.94,0,0,0,1.26-.59,6.82,6.82,0,0,0,.09-2.52c-.24-1.6-.84-3.39-2.4-3.51-1.77-.14-2.3,3.43-2.43,4.19"/><path class="cls-2" d="M143.84,515.75c-1.22-4.93,1.65-25.61,12.59-26.61,14.57-1.33,17.68,16.79,15.88,27-.52,2.93-3.85,1.44-3.72.36-.4-5.45.65-15.42-3.94-19.83-3.24-3.11-9.61-1.81-12.58,1.55-3.14,3.56-4.39,10.87-4.49,17,0,1.78-.3,4-2.41,4.16-1.38.1-1.08-2.62-1.33-3.63"/><path class="cls-2" d="M150.73,510.26c-.36,1.93-1.08,7.45.48,7.79s1.63-4.22,2-6.57c.61-3.65,1-5.29,2.68-6.71,3-2.54,6.43,2.08,5.83,6.84-.47,3.73-.25,5.53.59,5.86,1.29.51,2.07-.38,2.51-1.77a16.08,16.08,0,0,0,.24-6.64l-.06-.28c-.93-4.53-3.22-8.42-7.31-8.48s-6.64,8.13-7,10"/><path class="cls-2" d="M154.44,514.83c-.14.81-.39,2.18.25,2.21,1,.25,1.08-.61,1.23-1.58.23-1.51.19-2,.53-2.27.72-.61,1.46.08,1.22,2-.19,1.55,0,1.9.25,2a1,1,0,0,0,1.27-.6,6.74,6.74,0,0,0,.08-2.51c-.24-1.6-.84-3.39-2.4-3.51-1.77-.14-2.3,3.43-2.43,4.18"/><path class="cls-2" d="M56.16,729.14c1.22-4.93-1.65-25.61-12.59-26.61-14.57-1.34-17.68,16.79-15.88,27,.52,2.93,3.85,1.44,3.72.36.4-5.45-.65-15.43,3.94-19.83,3.24-3.11,9.61-1.81,12.58,1.55,3.14,3.56,4.39,10.87,4.49,17,0,1.78.3,4,2.41,4.16,1.38.1,1.08-2.62,1.33-3.63"/><path class="cls-2" d="M49.27,723.64c.36,1.94,1.08,7.46-.48,7.8s-1.63-4.22-2-6.58c-.61-3.65-1-5.28-2.68-6.71-3-2.53-6.43,2.08-5.83,6.85.47,3.73.25,5.53-.59,5.86-1.29.51-2.07-.38-2.51-1.78a16,16,0,0,1-.24-6.63l.06-.28c.93-4.54,3.22-8.42,7.31-8.48s6.64,8.13,7,9.95"/><path class="cls-2" d="M45.56,728.22c.14.81.39,2.18-.25,2.21-1,.25-1.08-.61-1.23-1.58-.23-1.52-.19-2-.53-2.27-.72-.61-1.46.08-1.22,2,.19,1.54,0,1.9-.25,2a1,1,0,0,1-1.27-.6,6.74,6.74,0,0,1-.08-2.51c.24-1.61.84-3.39,2.4-3.52,1.77-.14,2.3,3.44,2.43,4.19"/><path class="cls-2" d="M211.55,678.8c-1.22-4.93,1.65-25.61,12.59-26.61,14.57-1.34,17.68,16.78,15.88,27-.52,2.93-3.85,1.44-3.72.36-.39-5.45.66-15.43-3.93-19.83-3.25-3.12-9.61-1.81-12.59,1.55-3.14,3.55-4.38,10.86-4.49,17,0,1.78-.3,4-2.41,4.15-1.38.11-1.08-2.61-1.33-3.62"/><path class="cls-2" d="M218.44,673.3c-.35,1.94-1.08,7.46.48,7.8s1.64-4.22,2-6.58c.6-3.65,1-5.28,2.67-6.71,3-2.53,6.43,2.08,5.83,6.85-.47,3.73-.25,5.53.59,5.86,1.29.51,2.08-.38,2.51-1.78a15.7,15.7,0,0,0,.24-6.63l-.06-.28c-.92-4.54-3.21-8.42-7.31-8.48s-6.64,8.13-7,9.95"/><path class="cls-2" d="M222.15,677.88c-.13.8-.39,2.18.25,2.21,1,.25,1.08-.61,1.23-1.59.24-1.51.2-2,.53-2.26.72-.61,1.46.08,1.22,2-.19,1.54,0,1.9.25,2a1,1,0,0,0,1.27-.6,6.79,6.79,0,0,0,.08-2.52c-.23-1.6-.84-3.39-2.4-3.51-1.77-.14-2.3,3.43-2.43,4.19"/><path class="cls-2" d="M281.86,751.9c-1.22-4.93,1.66-25.61,12.6-26.61,14.56-1.33,17.68,16.79,15.87,27-.52,2.93-3.84,1.44-3.72.36-.39-5.45.66-15.43-3.93-19.83-3.25-3.11-9.61-1.81-12.59,1.55-3.14,3.56-4.38,10.87-4.49,17,0,1.78-.29,4-2.4,4.16-1.39.1-1.09-2.62-1.34-3.63"/><path class="cls-2" d="M288.76,746.4c-.36,1.94-1.08,7.46.47,7.8s1.64-4.22,2-6.58c.6-3.64,1-5.28,2.67-6.71,3-2.53,6.43,2.08,5.83,6.85-.47,3.73-.24,5.53.59,5.86,1.29.51,2.08-.38,2.52-1.78a15.84,15.84,0,0,0,.23-6.63l-.05-.28c-.93-4.54-3.22-8.42-7.32-8.48s-6.64,8.13-7,9.95"/><path class="cls-2" d="M292.47,751c-.14.81-.4,2.18.25,2.21,1,.25,1.07-.61,1.23-1.58.23-1.52.19-2,.53-2.27.71-.61,1.45.08,1.21,2-.19,1.54,0,1.9.26,2a1,1,0,0,0,1.26-.6,6.54,6.54,0,0,0,.08-2.51c-.23-1.61-.83-3.39-2.4-3.52-1.76-.14-2.3,3.44-2.42,4.19"/><path class="cls-2" d="M382.91,809c-1.22-4.93,1.65-25.61,12.59-26.61,14.57-1.33,17.69,16.79,15.88,27-.52,2.92-3.85,1.44-3.72.35-.39-5.44.66-15.42-3.93-19.82-3.25-3.12-9.61-1.81-12.59,1.55-3.14,3.55-4.38,10.86-4.49,17,0,1.77-.3,4-2.41,4.15-1.38.1-1.08-2.61-1.33-3.63"/><path class="cls-2" d="M389.8,803.46c-.35,1.94-1.08,7.46.48,7.8s1.64-4.22,2-6.58c.6-3.65,1-5.29,2.67-6.71,3-2.53,6.43,2.08,5.83,6.85-.47,3.73-.25,5.53.59,5.85,1.29.51,2.08-.37,2.52-1.77a15.89,15.89,0,0,0,.23-6.64l-.06-.27c-.92-4.54-3.21-8.43-7.31-8.48s-6.64,8.12-7,10"/><path class="cls-2" d="M393.51,808c-.13.8-.39,2.17.25,2.2,1,.26,1.08-.6,1.23-1.58.24-1.51.2-2,.53-2.27.72-.61,1.46.08,1.22,2.06-.19,1.54,0,1.9.25,2a1,1,0,0,0,1.27-.6,6.53,6.53,0,0,0,.08-2.51c-.23-1.6-.83-3.39-2.4-3.51-1.77-.14-2.3,3.43-2.43,4.19"/><path class="cls-2" d="M147.9,743c1.22-4.93-1.65-25.61-12.59-26.61-14.57-1.33-17.68,16.79-15.88,27,.52,2.93,3.85,1.44,3.72.36.4-5.45-.65-15.43,3.94-19.83,3.24-3.11,9.61-1.81,12.58,1.55,3.14,3.56,4.39,10.87,4.49,17,0,1.78.3,4,2.41,4.16,1.38.1,1.08-2.62,1.33-3.63"/><path class="cls-2" d="M141,737.47c.36,1.94,1.08,7.46-.48,7.8s-1.63-4.22-2-6.58c-.61-3.64-1-5.28-2.68-6.71-3-2.53-6.43,2.08-5.83,6.85.47,3.73.25,5.53-.59,5.86-1.29.51-2.07-.38-2.51-1.78a16,16,0,0,1-.24-6.63l.06-.28c.93-4.54,3.22-8.42,7.31-8.48s6.64,8.13,7,10"/><path class="cls-2" d="M137.3,742.05c.14.81.4,2.18-.25,2.21-1,.25-1.08-.61-1.23-1.58-.23-1.52-.19-2-.53-2.27-.72-.61-1.46.08-1.22,2.05.19,1.54,0,1.9-.25,2a1,1,0,0,1-1.27-.6,6.74,6.74,0,0,1-.08-2.51c.24-1.61.84-3.39,2.4-3.52,1.77-.14,2.3,3.44,2.43,4.19"/><path class="cls-2" d="M35.72,474.52c-1.22-4.93,1.65-25.61,12.59-26.61,14.57-1.33,17.68,16.79,15.88,27-.52,2.92-3.85,1.43-3.72.35-.4-5.45.65-15.42-3.94-19.83-3.24-3.11-9.61-1.81-12.58,1.55-3.14,3.56-4.39,10.87-4.49,17,0,1.78-.3,4-2.41,4.16-1.38.1-1.08-2.62-1.33-3.63"/><path class="cls-2" d="M42.61,469c-.36,1.93-1.08,7.45.48,7.8s1.63-4.23,2-6.58c.61-3.65,1-5.29,2.68-6.71,3-2.54,6.43,2.08,5.83,6.84-.47,3.74-.25,5.53.59,5.86,1.29.51,2.07-.37,2.51-1.77a16.08,16.08,0,0,0,.24-6.64l-.06-.27c-.93-4.54-3.22-8.43-7.31-8.49s-6.64,8.13-7,10"/><path class="cls-2" d="M46.32,473.6c-.14.81-.4,2.18.25,2.21,1,.25,1.08-.61,1.23-1.58.23-1.51.19-2,.53-2.27.72-.61,1.46.08,1.22,2.05-.19,1.55,0,1.9.25,2a1,1,0,0,0,1.27-.6,6.74,6.74,0,0,0,.08-2.51c-.24-1.6-.84-3.39-2.4-3.51-1.77-.14-2.3,3.43-2.43,4.18"/><path class="cls-2" d="M251.36,582.67c-1.22-4.93,1.66-25.61,12.6-26.61,14.56-1.33,17.68,16.79,15.87,27-.52,2.93-3.84,1.44-3.72.36-.39-5.45.66-15.42-3.93-19.83-3.25-3.11-9.61-1.81-12.58,1.55-3.15,3.56-4.39,10.87-4.49,17,0,1.78-.3,4-2.41,4.16-1.39.1-1.09-2.62-1.34-3.63"/><path class="cls-2" d="M258.26,577.18c-.36,1.93-1.08,7.45.47,7.8s1.64-4.23,2-6.58c.6-3.65,1-5.29,2.68-6.71,3-2.54,6.42,2.08,5.82,6.84-.47,3.74-.24,5.53.59,5.86,1.29.51,2.08-.37,2.52-1.77a15.89,15.89,0,0,0,.23-6.64l-.05-.27c-.93-4.54-3.22-8.43-7.32-8.49s-6.64,8.13-7,10"/><path class="cls-2" d="M262,581.75c-.14.81-.4,2.18.25,2.21,1,.25,1.08-.61,1.23-1.58.23-1.51.19-2,.53-2.27.71-.61,1.45.08,1.21,2-.19,1.55,0,1.91.26,2a1,1,0,0,0,1.26-.6,6.53,6.53,0,0,0,.08-2.51c-.23-1.6-.83-3.39-2.4-3.51-1.76-.14-2.29,3.43-2.42,4.18"/><path class="cls-2" d="M267.18,469.74c-1.22-4.94,1.65-25.61,12.59-26.61,14.57-1.34,17.68,16.78,15.87,27-.51,2.92-3.84,1.44-3.71.35-.4-5.44.65-15.42-3.94-19.82-3.24-3.12-9.61-1.81-12.58,1.55-3.14,3.55-4.39,10.86-4.49,17,0,1.78-.3,4-2.41,4.15-1.38.11-1.08-2.61-1.33-3.62"/><path class="cls-2" d="M274.07,464.24c-.36,1.94-1.08,7.46.48,7.8s1.63-4.22,2-6.58c.61-3.65,1-5.29,2.68-6.71,3-2.53,6.43,2.08,5.83,6.85-.48,3.73-.25,5.53.59,5.86,1.29.5,2.07-.38,2.51-1.78a16,16,0,0,0,.24-6.63l-.06-.28c-.93-4.54-3.22-8.43-7.31-8.48s-6.64,8.13-7,9.95"/><path class="cls-2" d="M277.78,468.82c-.14.8-.4,2.17.25,2.2,1,.26,1.08-.6,1.23-1.58.23-1.51.19-2,.53-2.27.72-.61,1.46.09,1.22,2.06-.19,1.54,0,1.9.25,2a1,1,0,0,0,1.27-.59,6.79,6.79,0,0,0,.08-2.52c-.24-1.6-.84-3.39-2.4-3.51-1.77-.14-2.3,3.43-2.43,4.19"/><path class="cls-2" d="M161.91,838.76c-1.22-4.93,1.65-25.61,12.59-26.61,14.57-1.33,17.69,16.79,15.88,27-.52,2.93-3.85,1.44-3.72.36-.39-5.45.66-15.42-3.93-19.83-3.25-3.11-9.61-1.81-12.59,1.55-3.14,3.56-4.38,10.87-4.49,17,0,1.78-.3,4-2.41,4.16-1.38.1-1.08-2.62-1.33-3.63"/><path class="cls-2" d="M168.8,833.26c-.35,1.94-1.08,7.46.48,7.8s1.64-4.22,2-6.57c.6-3.65,1-5.29,2.67-6.71,3-2.54,6.43,2.08,5.83,6.84-.47,3.73-.25,5.53.59,5.86,1.29.51,2.08-.38,2.52-1.78a15.84,15.84,0,0,0,.23-6.63l-.06-.28c-.92-4.53-3.21-8.42-7.31-8.48s-6.64,8.13-7,10"/><path class="cls-2" d="M172.51,837.84c-.13.81-.39,2.18.25,2.21,1,.25,1.08-.61,1.23-1.58.24-1.51.2-2,.53-2.27.72-.61,1.46.08,1.22,2-.19,1.55,0,1.9.25,2a1,1,0,0,0,1.27-.6,6.74,6.74,0,0,0,.08-2.51c-.23-1.6-.83-3.39-2.4-3.52-1.77-.13-2.3,3.44-2.43,4.19"/><path class="cls-2" d="M372.24,642.41c-1.22-4.93,1.65-25.61,12.59-26.61,14.57-1.34,17.68,16.78,15.88,27-.52,2.93-3.85,1.44-3.72.36-.4-5.45.65-15.43-3.93-19.83-3.25-3.11-9.62-1.81-12.59,1.55-3.14,3.55-4.39,10.86-4.49,17,0,1.78-.3,4-2.41,4.15-1.38.11-1.08-2.61-1.33-3.62"/><path class="cls-2" d="M379.13,636.91c-.36,1.94-1.08,7.46.48,7.8s1.63-4.22,2-6.58c.61-3.65,1-5.28,2.68-6.71,3-2.53,6.43,2.08,5.83,6.85-.47,3.73-.25,5.53.59,5.86,1.29.51,2.07-.38,2.51-1.78a16,16,0,0,0,.24-6.63l-.06-.28c-.93-4.54-3.22-8.42-7.31-8.48s-6.64,8.13-7,9.95"/><path class="cls-2" d="M382.84,641.49c-.14.8-.39,2.18.25,2.21,1,.25,1.08-.61,1.23-1.59.23-1.51.19-2,.53-2.26.72-.61,1.46.08,1.22,2-.19,1.54,0,1.9.25,2a1,1,0,0,0,1.27-.6,6.74,6.74,0,0,0,.08-2.51c-.24-1.61-.84-3.4-2.4-3.52-1.77-.14-2.3,3.44-2.43,4.19"/><path class="cls-2" d="M401.84,519.22c1.22-4.94-1.65-25.61-12.59-26.62-14.57-1.33-17.68,16.79-15.87,27,.51,2.92,3.84,1.44,3.72.35.39-5.44-.66-15.42,3.93-19.82,3.24-3.12,9.61-1.81,12.58,1.55,3.14,3.55,4.39,10.86,4.49,17,0,1.78.3,4,2.41,4.15,1.38.1,1.08-2.61,1.33-3.62"/><path class="cls-2" d="M395,513.72c.36,1.94,1.08,7.46-.48,7.8s-1.63-4.22-2-6.58c-.61-3.65-1-5.29-2.68-6.71-3-2.53-6.43,2.08-5.83,6.85.47,3.73.25,5.53-.59,5.85-1.29.51-2.07-.37-2.51-1.77a16,16,0,0,1-.24-6.63l.06-.28c.93-4.54,3.22-8.43,7.31-8.48s6.64,8.12,7,10"/><path class="cls-2" d="M391.24,518.3c.14.8.4,2.17-.25,2.2-1,.26-1.08-.6-1.23-1.58-.23-1.51-.19-2-.53-2.27-.72-.61-1.46.09-1.22,2.06.19,1.54,0,1.9-.25,2a1,1,0,0,1-1.27-.59,6.8,6.8,0,0,1-.08-2.52c.24-1.6.84-3.39,2.4-3.51,1.77-.14,2.3,3.43,2.43,4.19"/><path class="cls-2" d="M517.4,616.57C516.18,611.63,519.05,591,530,590c14.57-1.33,17.68,16.79,15.88,27-.52,2.92-3.85,1.44-3.72.35-.4-5.44.65-15.42-3.94-19.82-3.24-3.12-9.61-1.81-12.58,1.55-3.14,3.55-4.39,10.86-4.49,17,0,1.78-.3,4-2.41,4.15-1.38.1-1.08-2.61-1.33-3.62"/><path class="cls-2" d="M524.29,611.07c-.36,1.94-1.08,7.46.48,7.8s1.63-4.22,2-6.58c.61-3.65,1-5.29,2.68-6.71,3-2.53,6.43,2.08,5.83,6.85-.47,3.73-.25,5.53.59,5.85,1.29.51,2.07-.37,2.51-1.77a16,16,0,0,0,.24-6.63l-.06-.28c-.93-4.54-3.22-8.43-7.31-8.48s-6.64,8.12-7,10"/><path class="cls-2" d="M528,615.65c-.14.8-.39,2.17.25,2.2,1,.26,1.08-.6,1.23-1.58.23-1.51.19-2,.53-2.27.72-.61,1.46.09,1.22,2.06-.19,1.54,0,1.9.25,2a1,1,0,0,0,1.27-.59,6.8,6.8,0,0,0,.08-2.52c-.24-1.6-.84-3.39-2.4-3.51-1.77-.14-2.3,3.43-2.43,4.19"/><path class="cls-2" d="M565.37,515.75c-1.22-4.93,1.65-25.61,12.59-26.61,14.57-1.33,17.69,16.79,15.88,27-.52,2.93-3.85,1.44-3.72.36-.39-5.45.66-15.42-3.93-19.83-3.25-3.11-9.61-1.81-12.59,1.55-3.14,3.56-4.38,10.87-4.49,17,0,1.78-.3,4-2.41,4.16-1.38.1-1.08-2.62-1.33-3.63"/><path class="cls-2" d="M572.26,510.26c-.35,1.93-1.08,7.45.48,7.79s1.64-4.22,2-6.57c.6-3.65,1-5.29,2.67-6.71,3-2.54,6.43,2.08,5.83,6.84-.47,3.73-.25,5.53.59,5.86,1.29.51,2.08-.38,2.52-1.77a15.89,15.89,0,0,0,.23-6.64l-.06-.28c-.92-4.53-3.21-8.42-7.31-8.48s-6.64,8.13-7,10"/><path class="cls-2" d="M576,514.83c-.13.81-.39,2.18.25,2.21,1,.25,1.08-.61,1.23-1.58.24-1.51.2-2,.53-2.27.72-.61,1.46.08,1.22,2-.19,1.55,0,1.9.25,2a1,1,0,0,0,1.27-.6,6.74,6.74,0,0,0,.08-2.51c-.23-1.6-.83-3.39-2.4-3.51-1.77-.14-2.3,3.43-2.43,4.18"/><path class="cls-2" d="M477.69,729.14c1.22-4.93-1.65-25.61-12.59-26.61-14.57-1.34-17.68,16.79-15.87,27,.51,2.93,3.84,1.44,3.72.36.39-5.45-.66-15.43,3.93-19.83,3.25-3.11,9.61-1.81,12.58,1.55,3.15,3.56,4.39,10.87,4.49,17,0,1.78.3,4,2.41,4.16,1.38.1,1.08-2.62,1.33-3.63"/><path class="cls-2" d="M470.8,723.64c.36,1.94,1.08,7.46-.48,7.8s-1.63-4.22-2-6.58c-.61-3.65-1-5.28-2.68-6.71-3-2.53-6.43,2.08-5.82,6.85.47,3.73.24,5.53-.59,5.86-1.3.51-2.08-.38-2.52-1.78a16,16,0,0,1-.24-6.63l.06-.28c.93-4.54,3.22-8.42,7.31-8.48s6.64,8.13,7,9.95"/><path class="cls-2" d="M467.09,728.22c.14.81.4,2.18-.25,2.21-1,.25-1.08-.61-1.23-1.58-.23-1.52-.19-2-.53-2.27-.72-.61-1.46.08-1.21,2,.19,1.54,0,1.9-.26,2a1,1,0,0,1-1.27-.6,7,7,0,0,1-.08-2.51c.24-1.61.84-3.39,2.4-3.52,1.77-.14,2.3,3.44,2.43,4.19"/><path class="cls-2" d="M633.08,678.8c-1.22-4.93,1.66-25.61,12.6-26.61,14.56-1.34,17.68,16.78,15.87,27-.52,2.93-3.84,1.44-3.72.36-.39-5.45.66-15.43-3.93-19.83-3.25-3.12-9.61-1.81-12.59,1.55-3.14,3.55-4.38,10.86-4.49,17,0,1.78-.29,4-2.4,4.15-1.39.11-1.09-2.61-1.34-3.62"/><path class="cls-2" d="M640,673.3c-.36,1.94-1.08,7.46.47,7.8s1.64-4.22,2-6.58c.6-3.65,1-5.28,2.67-6.71,3-2.53,6.43,2.08,5.83,6.85-.47,3.73-.24,5.53.59,5.86,1.29.51,2.08-.38,2.52-1.78a15.85,15.85,0,0,0,.23-6.63l-.05-.28c-.93-4.54-3.22-8.42-7.32-8.48s-6.64,8.13-7,9.95"/><path class="cls-2" d="M643.69,677.88c-.14.8-.4,2.18.25,2.21,1,.25,1.07-.61,1.23-1.59.23-1.51.19-2,.52-2.26.72-.61,1.46.08,1.22,2-.19,1.54,0,1.9.26,2a1,1,0,0,0,1.26-.6,6.59,6.59,0,0,0,.08-2.52c-.23-1.6-.83-3.39-2.4-3.51-1.76-.14-2.3,3.43-2.42,4.19"/><path class="cls-2" d="M703.4,751.9c-1.22-4.93,1.65-25.61,12.59-26.61,14.57-1.33,17.68,16.79,15.87,27-.51,2.93-3.84,1.44-3.72.36-.39-5.45.66-15.43-3.93-19.83-3.25-3.11-9.61-1.81-12.58,1.55-3.15,3.56-4.39,10.87-4.49,17,0,1.78-.3,4-2.41,4.16-1.38.1-1.08-2.62-1.33-3.63"/><path class="cls-2" d="M710.29,746.4c-.36,1.94-1.08,7.46.48,7.8s1.63-4.22,2-6.58c.6-3.64,1-5.28,2.68-6.71,3-2.53,6.43,2.08,5.82,6.85-.47,3.73-.24,5.53.59,5.86,1.29.51,2.08-.38,2.52-1.78a15.84,15.84,0,0,0,.23-6.63l0-.28c-.93-4.54-3.22-8.42-7.31-8.48s-6.64,8.13-7,9.95"/><path class="cls-2" d="M714,751c-.14.81-.4,2.18.25,2.21,1,.25,1.08-.61,1.23-1.58.23-1.52.19-2,.53-2.27.72-.61,1.46.08,1.21,2-.19,1.54,0,1.9.26,2a1,1,0,0,0,1.26-.6,6.76,6.76,0,0,0,.09-2.51c-.24-1.61-.84-3.39-2.4-3.52-1.77-.14-2.3,3.44-2.43,4.19"/><path class="cls-2" d="M804.44,809c-1.22-4.93,1.66-25.61,12.6-26.61,14.56-1.33,17.68,16.79,15.87,27-.52,2.92-3.84,1.44-3.72.35-.39-5.44.66-15.42-3.93-19.82-3.25-3.12-9.61-1.81-12.58,1.55-3.15,3.55-4.39,10.86-4.5,17,0,1.77-.29,4-2.4,4.15-1.39.1-1.09-2.61-1.34-3.63"/><path class="cls-2" d="M811.34,803.46c-.36,1.94-1.08,7.46.47,7.8s1.64-4.22,2-6.58c.6-3.65,1-5.29,2.68-6.71,3-2.53,6.42,2.08,5.82,6.85-.47,3.73-.24,5.53.59,5.85,1.29.51,2.08-.37,2.52-1.77a15.89,15.89,0,0,0,.23-6.64l0-.27c-.93-4.54-3.22-8.43-7.32-8.48s-6.64,8.12-7,10"/><path class="cls-2" d="M815.05,808c-.14.8-.4,2.17.25,2.2,1,.26,1.07-.6,1.23-1.58.23-1.51.19-2,.53-2.27.71-.61,1.45.08,1.21,2.06-.19,1.54,0,1.9.26,2a.94.94,0,0,0,1.26-.6,6.53,6.53,0,0,0,.08-2.51c-.23-1.6-.83-3.39-2.4-3.51-1.76-.14-2.3,3.43-2.42,4.19"/><path class="cls-2" d="M569.44,743c1.22-4.93-1.66-25.61-12.6-26.61-14.57-1.33-17.68,16.79-15.87,27,.51,2.93,3.84,1.44,3.72.36.39-5.45-.66-15.43,3.93-19.83,3.25-3.11,9.61-1.81,12.58,1.55,3.15,3.56,4.39,10.87,4.49,17,0,1.78.3,4,2.41,4.16,1.38.1,1.09-2.62,1.34-3.63"/><path class="cls-2" d="M562.54,737.47c.36,1.94,1.08,7.46-.48,7.8s-1.63-4.22-2-6.58c-.6-3.64-1-5.28-2.68-6.71-3-2.53-6.42,2.08-5.82,6.85.47,3.73.24,5.53-.59,5.86-1.29.51-2.08-.38-2.52-1.78a15.84,15.84,0,0,1-.23-6.63l0-.28c.93-4.54,3.22-8.42,7.32-8.48s6.64,8.13,7,10"/><path class="cls-2" d="M558.83,742.05c.14.81.4,2.18-.25,2.21-1,.25-1.08-.61-1.23-1.58-.23-1.52-.19-2-.53-2.27-.71-.61-1.46.08-1.21,2.05.19,1.54,0,1.9-.26,2a1,1,0,0,1-1.26-.6,6.76,6.76,0,0,1-.09-2.51c.24-1.61.84-3.39,2.4-3.52,1.77-.14,2.3,3.44,2.43,4.19"/><path class="cls-2" d="M457.25,474.52c-1.22-4.93,1.65-25.61,12.59-26.61,14.57-1.33,17.68,16.79,15.88,27-.52,2.92-3.85,1.43-3.72.35-.39-5.45.66-15.42-3.93-19.83-3.25-3.11-9.62-1.81-12.59,1.55-3.14,3.56-4.38,10.87-4.49,17,0,1.78-.3,4-2.41,4.16-1.38.1-1.08-2.62-1.33-3.63"/><path class="cls-2" d="M464.14,469c-.35,1.93-1.08,7.45.48,7.8s1.64-4.23,2-6.58c.6-3.65,1-5.29,2.67-6.71,3-2.54,6.43,2.08,5.83,6.84-.47,3.74-.25,5.53.59,5.86,1.29.51,2.08-.37,2.51-1.77a15.91,15.91,0,0,0,.24-6.64l-.06-.27c-.92-4.54-3.21-8.43-7.31-8.49s-6.64,8.13-7,10"/><path class="cls-2" d="M467.85,473.6c-.13.81-.39,2.18.25,2.21,1,.25,1.08-.61,1.23-1.58.24-1.51.2-2,.53-2.27.72-.61,1.46.08,1.22,2.05-.19,1.55,0,1.9.25,2a1,1,0,0,0,1.27-.6,6.74,6.74,0,0,0,.08-2.51c-.23-1.6-.84-3.39-2.4-3.51-1.77-.14-2.3,3.43-2.43,4.18"/><path class="cls-2" d="M672.9,582.67c-1.22-4.93,1.65-25.61,12.59-26.61,14.57-1.33,17.68,16.79,15.87,27-.51,2.93-3.84,1.44-3.72.36-.39-5.45.66-15.42-3.93-19.83-3.25-3.11-9.61-1.81-12.58,1.55-3.14,3.56-4.39,10.87-4.49,17,0,1.78-.3,4-2.41,4.16-1.38.1-1.08-2.62-1.33-3.63"/><path class="cls-2" d="M679.79,577.18c-.36,1.93-1.08,7.45.48,7.8s1.63-4.23,2-6.58c.61-3.65,1-5.29,2.68-6.71,3-2.54,6.43,2.08,5.83,6.84-.48,3.74-.25,5.53.58,5.86,1.3.51,2.08-.37,2.52-1.77a16.08,16.08,0,0,0,.24-6.64l-.06-.27c-.93-4.54-3.22-8.43-7.31-8.49s-6.64,8.13-7,10"/><path class="cls-2" d="M683.5,581.75c-.14.81-.4,2.18.25,2.21,1,.25,1.08-.61,1.23-1.58.23-1.51.19-2,.53-2.27.72-.61,1.46.08,1.21,2-.19,1.55,0,1.91.26,2a1,1,0,0,0,1.27-.6,7,7,0,0,0,.08-2.51c-.24-1.6-.84-3.39-2.4-3.51-1.77-.14-2.3,3.43-2.43,4.18"/><path class="cls-2" d="M688.71,469.74c-1.22-4.94,1.65-25.61,12.59-26.61,14.57-1.34,17.68,16.78,15.88,27-.52,2.92-3.85,1.44-3.72.35-.39-5.44.65-15.42-3.93-19.82-3.25-3.12-9.62-1.81-12.59,1.55-3.14,3.55-4.38,10.86-4.49,17,0,1.78-.3,4-2.41,4.15-1.38.11-1.08-2.61-1.33-3.62"/><path class="cls-2" d="M695.6,464.24c-.35,1.94-1.08,7.46.48,7.8s1.63-4.22,2-6.58c.61-3.65,1-5.29,2.68-6.71,3-2.53,6.43,2.08,5.83,6.85-.47,3.73-.25,5.53.59,5.86,1.29.5,2.07-.38,2.51-1.78a16,16,0,0,0,.24-6.63l-.06-.28c-.93-4.54-3.22-8.43-7.31-8.48s-6.64,8.13-7,9.95"/><path class="cls-2" d="M699.31,468.82c-.14.8-.39,2.17.25,2.2,1,.26,1.08-.6,1.23-1.58.23-1.51.19-2,.53-2.27.72-.61,1.46.09,1.22,2.06-.19,1.54,0,1.9.25,2a1,1,0,0,0,1.27-.59,6.79,6.79,0,0,0,.08-2.52c-.23-1.6-.84-3.39-2.4-3.51-1.77-.14-2.3,3.43-2.43,4.19"/><path class="cls-2" d="M583.44,838.76c-1.22-4.93,1.66-25.61,12.6-26.61,14.56-1.33,17.68,16.79,15.87,27-.52,2.93-3.84,1.44-3.72.36-.39-5.45.66-15.42-3.93-19.83-3.25-3.11-9.61-1.81-12.59,1.55-3.14,3.56-4.38,10.87-4.49,17,0,1.78-.29,4-2.4,4.16-1.39.1-1.09-2.62-1.34-3.63"/><path class="cls-2" d="M590.34,833.26c-.36,1.94-1.08,7.46.47,7.8s1.64-4.22,2-6.57c.6-3.65,1-5.29,2.67-6.71,3-2.54,6.43,2.08,5.83,6.84-.47,3.73-.24,5.53.59,5.86,1.29.51,2.08-.38,2.52-1.78a15.84,15.84,0,0,0,.23-6.63l0-.28c-.93-4.53-3.22-8.42-7.32-8.48s-6.64,8.13-7,10"/><path class="cls-2" d="M594.05,837.84c-.14.81-.4,2.18.25,2.21,1,.25,1.07-.61,1.23-1.58.23-1.51.19-2,.53-2.27.71-.61,1.45.08,1.21,2-.19,1.55,0,1.9.26,2a1,1,0,0,0,1.26-.6,6.54,6.54,0,0,0,.08-2.51c-.23-1.6-.83-3.39-2.4-3.52-1.76-.13-2.3,3.44-2.42,4.19"/><path class="cls-2" d="M793.77,642.41c-1.22-4.93,1.65-25.61,12.59-26.61,14.57-1.34,17.69,16.78,15.88,27-.52,2.93-3.85,1.44-3.72.36-.39-5.45.66-15.43-3.93-19.83-3.25-3.11-9.61-1.81-12.59,1.55-3.14,3.55-4.38,10.86-4.49,17,0,1.78-.3,4-2.41,4.15-1.38.11-1.08-2.61-1.33-3.62"/><path class="cls-2" d="M800.66,636.91c-.35,1.94-1.08,7.46.48,7.8s1.64-4.22,2-6.58c.6-3.65,1-5.28,2.67-6.71,3-2.53,6.43,2.08,5.83,6.85-.47,3.73-.25,5.53.59,5.86,1.29.51,2.08-.38,2.51-1.78a15.7,15.7,0,0,0,.24-6.63l-.06-.28c-.92-4.54-3.21-8.42-7.31-8.48s-6.64,8.13-7,9.95"/><path class="cls-2" d="M804.37,641.49c-.13.8-.39,2.18.25,2.21,1,.25,1.08-.61,1.23-1.59.24-1.51.2-2,.53-2.26.72-.61,1.46.08,1.22,2-.19,1.54,0,1.9.25,2a1,1,0,0,0,1.27-.6,6.74,6.74,0,0,0,.08-2.51c-.23-1.61-.83-3.4-2.4-3.52-1.77-.14-2.3,3.44-2.43,4.19"/><path class="cls-2" d="M823.38,519.22c1.22-4.94-1.66-25.61-12.6-26.62-14.57-1.33-17.68,16.79-15.87,27,.51,2.92,3.84,1.44,3.72.35.39-5.44-.66-15.42,3.93-19.82,3.25-3.12,9.61-1.81,12.58,1.55,3.15,3.55,4.39,10.86,4.49,17,0,1.78.3,4,2.41,4.15,1.39.1,1.09-2.61,1.34-3.62"/><path class="cls-2" d="M816.48,513.72c.36,1.94,1.08,7.46-.48,7.8s-1.63-4.22-2-6.58c-.6-3.65-1-5.29-2.68-6.71-3-2.53-6.42,2.08-5.82,6.85.47,3.73.24,5.53-.59,5.85-1.29.51-2.08-.37-2.52-1.77a15.85,15.85,0,0,1-.23-6.63l.05-.28c.93-4.54,3.22-8.43,7.32-8.48s6.64,8.12,7,10"/><path class="cls-2" d="M812.77,518.3c.14.8.4,2.17-.25,2.2-1,.26-1.08-.6-1.23-1.58-.23-1.51-.19-2-.53-2.27-.71-.61-1.46.09-1.21,2.06.19,1.54,0,1.9-.26,2a.94.94,0,0,1-1.26-.59,6.82,6.82,0,0,1-.09-2.52c.24-1.6.84-3.39,2.4-3.51,1.77-.14,2.3,3.43,2.43,4.19"/></svg>