<svg xmlns="http://www.w3.org/2000/svg" viewBox="0 0 850.39 850.39"><defs><style>.cls-1,.cls-2,.cls-3,.cls-4,.cls-5,.cls-6{fill:none;stroke:#1d1d1b;stroke-linecap:round;stroke-linejoin:round;}.cls-1{stroke-width:2px;}.cls-2{stroke-width:1.7px;}.cls-3{stroke-width:2.11px;}.cls-4{stroke-width:1.8px;}.cls-5{stroke-width:2.33px;}.cls-6{stroke-width:1.98px;}</style></defs><g id="Capa_2" data-name="Capa 2"><path class="cls-1" d="M79,372.85c.11-.19-3.62-3.49-3.9-3.76-.84-.81-1.66-1.63-2.51-2.42s-3-1-4.29-1c-1,0-2.52-.42-2.92-1.56a1.36,1.36,0,0,1,1.1-1.76,17.34,17.34,0,0,1,2.4,0s-.71-1.13-1-1.72c-.19-.35-1-2-.29-2.41s1.4.6,1.72.9a12.15,12.15,0,0,1,1.58,2.27,4.32,4.32,0,0,1,.62-2.53c1.59-2.21,1.48,2.76,1.42,3.69-.18,2.45,2.13,3.8,3.71,5.25l4,2.74a34.39,34.39,0,0,1,9.29-3.28,90.66,90.66,0,0,1,11.14-.7v-4.69L98.91,363a12.68,12.68,0,0,1,.88-5.13,4.34,4.34,0,0,1,3.19-2.83l-3.89-4a3.34,3.34,0,0,1,1.68-.71,6.79,6.79,0,0,1,5.39,1.5,29.07,29.07,0,0,1-.71-4.6,9.72,9.72,0,0,1,.62-3.71l2,2.83a10.49,10.49,0,0,1,6.46-4.51c4.77-1.33,11.31.49,13.62,1.24,2.74.88,9,4.42,9,4.42l-2.3.88c.54-.21,3.43,3,3.83,3.45,4.18,4.53,4.83,9.57,4.44,15.49-.09,1.43-.31,2.89-.31,4.33s-2.12-1.24-2.12-1.24.53,5.13.53,7.08a20.34,20.34,0,0,1-.53,4.42c-.18.79-3-2.48-3-2.48s1.24,8,1,8.23-3.6-2.21-3.72-2.3c.33.24.17,2.7.2,3.17a17.19,17.19,0,0,1,.12,3.51c-1.06.31-.85-3.53-2.77-3.19-1.75.31.25,7.42.41,8.59.36,2.63.71,5.27,1.07,7.91a3.63,3.63,0,0,1-3,3.54c-3.18.88-4.51-3.27-4.51-3.27l-1-7.38c-.22-1.57-.43-3.13-.65-4.7-.06-.43,0-1.23-.37-1.55-.64-.61-2.32-.22-3.08-.16-1.72.12-1.83.87-1.86,2.5,0,2.34.07,4.69.1,7,0,1.61,0,3.22.06,4.83a3.83,3.83,0,0,1-3.61,3.84,4.3,4.3,0,0,1-1.34,0,3.13,3.13,0,0,1-2.61-3.64,90.42,90.42,0,0,0-.32-10.5c-.1-1-.34-2.41-1.36-2.91-1.4-.69-3.35-.17-4.84-.29-2.06-.17-4-.15-6-.13-1.5,0-3,.2-3.1,2a45.27,45.27,0,0,0,.21,4.79c.07,1.5.62,7.46,0,8.72a4.5,4.5,0,0,1-2.21,2.71,4.68,4.68,0,0,1-4.89-1c-1.81-2.23-1.08-5.57-1.08-8.2v-7c0-1.62-1.12-2.42-2.52-2.78s-2.72-.07-2.85,1.53c-.23,2.66-.43,5.33-.65,8a23,23,0,0,1-.75,5.23c-.39,1.17-.55,2.78-1.82,3.31s-3.59.06-4.81-.58a3.15,3.15,0,0,1-1.57-2.94c0-1.35,0-2.69,0-4,0-5.63.48-21.37,4.29-27.38Z"/><path class="cls-1" d="M400.4,36.32c-.11-.19,3.62-3.48,3.9-3.76.84-.8,1.66-1.62,2.51-2.42s3-1,4.29-1c1,0,2.52-.41,2.92-1.55a1.35,1.35,0,0,0-1.09-1.76,16,16,0,0,0-2.41,0s.71-1.13,1-1.72c.19-.35,1-2,.29-2.42s-1.4.61-1.72.91a12.29,12.29,0,0,0-1.58,2.27,4.36,4.36,0,0,0-.61-2.53c-1.6-2.22-1.49,2.76-1.42,3.69.17,2.44-2.14,3.79-3.71,5.24l-4,2.74a34.56,34.56,0,0,0-9.28-3.27A89.61,89.61,0,0,0,378.37,30V25.35l2.12,1.15a12.69,12.69,0,0,0-.88-5.13,4.37,4.37,0,0,0-3.19-2.83l3.9-4a3.41,3.41,0,0,0-1.68-.71,6.8,6.8,0,0,0-5.4,1.51,29.3,29.3,0,0,0,.71-4.6A9.52,9.52,0,0,0,373.33,7l-1.95,2.83a10.53,10.53,0,0,0-6.46-4.51C360.15,4,353.61,5.85,351.3,6.6c-2.74.88-9,4.42-9,4.42l2.3.89c-.54-.21-3.43,3-3.83,3.45-4.18,4.53-4.83,9.57-4.44,15.49.09,1.43.31,2.89.31,4.32s2.12-1.24,2.12-1.24-.53,5.13-.53,7.08a20.16,20.16,0,0,0,.53,4.42c.18.8,3-2.47,3-2.47s-1.24,8-1,8.22,3.59-2.21,3.71-2.29c-.33.24-.17,2.69-.2,3.16a17.28,17.28,0,0,0-.12,3.52c1.06.31.85-3.53,2.77-3.2,1.76.31-.25,7.42-.41,8.59-.36,2.64-.71,5.27-1.07,7.92a3.62,3.62,0,0,0,3,3.53c3.19.89,4.51-3.27,4.51-3.27l1-7.38c.22-1.56.43-3.13.65-4.69.06-.44,0-1.23.37-1.55.65-.62,2.32-.23,3.08-.17,1.72.13,1.84.88,1.86,2.5,0,2.35-.07,4.7-.09,7l-.06,4.84a3.82,3.82,0,0,0,3.6,3.84,4.3,4.3,0,0,0,1.34,0,3.13,3.13,0,0,0,2.61-3.63,90.27,90.27,0,0,1,.32-10.5c.1-1,.35-2.42,1.36-2.92,1.4-.68,3.35-.16,4.84-.28,2.06-.17,4-.16,6-.13,1.5,0,3,.2,3.11,2a47.78,47.78,0,0,1-.22,4.78c-.07,1.51-.62,7.46,0,8.73A4.53,4.53,0,0,0,385,74.34a4.72,4.72,0,0,0,4.9-1c1.8-2.23,1.07-5.57,1.07-8.19v-7c0-1.61,1.12-2.41,2.52-2.77s2.72-.08,2.86,1.52c.22,2.67.42,5.34.64,8a22.55,22.55,0,0,0,.76,5.23c.38,1.16.54,2.77,1.81,3.31s3.59.06,4.81-.59a3.13,3.13,0,0,0,1.57-2.94c0-1.34,0-2.68,0-4,0-5.62-.48-21.36-4.29-27.38Z"/><path class="cls-1" d="M231.49,327.51l-.41,2.3h2.21A20.46,20.46,0,0,1,236,327.6a4.35,4.35,0,0,1,1.87-.64,1.61,1.61,0,0,1,1.43,2.15L237.73,333s-.15,5.66-.15,5.69a46,46,0,0,0,.49,5.36c.22,2.4.45,4.79.67,7.19s.38,4.74.66,7.1c.53,4.55,1.21,9.08,1.82,13.62l2,7.29,2.79,3.95,5.59,3.28a85.58,85.58,0,0,1,9,3.76,21.15,21.15,0,0,1,5.66,3.57,28,28,0,0,1,4,5.4c2.23,3.68,2.84,7.83,2.79,12.06,0,1.78-.07,3.56-.1,5.34,0,.42,0,.85,0,1.27.05,1.94.12,3.88.14,5.82a2.15,2.15,0,0,1-1.73,2.29c-.94.34-2.56.53-3-.64l-.58-5.09c0-.88.28-2.13-.34-2.85s-2.52-1.16-3.13-.51c-.45.5-.09,2.21-.11,2.9,0,1.16-.05,2.32-.07,3.47a6,6,0,0,1-.19,1.95c-.27.48-.48.39-1.1.33-.84-.09-2.82-.1-2.95-1-.33-2.3.13-4.38,0-5.83-.16-1.8-.17-4-1.8-5a7,7,0,0,0-3.62-.73,56.2,56.2,0,0,1-10.85-.09c-1-.08-2.42,1.74-2.78,2.52a6.67,6.67,0,0,0-.51,4.05,7.11,7.11,0,0,1-.27,4.73c-.78,1.53-4,1.28-5.07.21-.33-.33-.57-3.95-.57-4.28s-.08-4.58-.08-4.68c0-1.18-1.29-1.46-2.24-1.18a1.73,1.73,0,0,0-1.38,2.08c.08.91,0,5.76,0,5.76-.57,1-.57,2.15-2,2.31a4.44,4.44,0,0,1-3-.92s-1-.74-1-1.23-.41-21.12-.41-21.12c-.14-7.28.53-14.56.71-21.83.12-5,.29-10,.42-14.94,0-1.16,0-2.33.11-3.5l.82-15-3.37,1.39c-1.83.62-4.43,1.44-6.36,1.09-2.28-.42-5.77-1.08-7-3.3s-1.47-6.38.54-8.47c2.83-3,6.29-5,9.7-7.23a14.83,14.83,0,0,1-.46-3.33c.2-2.29,3-1.6,3.91.45.12.27,1.06,1.56,1.06,1.56l1.48-.16.17-1.48h1s-.1,2.16-.08,2.3c.08.57,2.14.82,2.39.57a7.85,7.85,0,0,0,1-2.13Z"/><path class="cls-1" d="M228.37,324.22a1.89,1.89,0,1,1-1.89-2A1.94,1.94,0,0,1,228.37,324.22Z"/><path class="cls-1" d="M233.79,325.7a1.89,1.89,0,1,1-1.89-2A1.93,1.93,0,0,1,233.79,325.7Z"/><path class="cls-1" d="M275,406.65a33.18,33.18,0,0,1-2.46-2.3"/><path class="cls-2" d="M276.93,408.87c-.4.65-.61,2.34.58,2.38s.78-2.21-.08-2.55"/><path class="cls-2" d="M278.09,407.06c-.06,1.46,3.19,1,2.3-.42C279.87,405.8,278.13,406,278.09,407.06Z"/><path class="cls-2" d="M278.27,408.56c-.54,1.13,1.16,2.06,2.11,1.87,1.47-.3,1-2.1-.23-2.42C279.53,407.85,278.59,407.89,278.27,408.56Z"/><path class="cls-2" d="M277.76,406.65a5.16,5.16,0,0,1-2.47,0"/><path class="cls-2" d="M276.93,409.11c.11-.48-1.14-2-1.64-2.3"/><path class="cls-1" d="M276.93,408.79c-.75-.77-2.93-2.43-3.61-3.29"/><path class="cls-1" d="M239.26,235c-.11-.19,3.62-3.48,3.91-3.76.83-.8,1.66-1.62,2.51-2.42s3-1,4.29-1c1,0,2.52-.41,2.91-1.56a1.33,1.33,0,0,0-1.09-1.75,15.83,15.83,0,0,0-2.4,0s.71-1.13,1-1.72c.18-.35,1-2,.29-2.42s-1.4.61-1.73.91a12.24,12.24,0,0,0-1.57,2.27,4.36,4.36,0,0,0-.62-2.53c-1.59-2.22-1.49,2.75-1.42,3.69.17,2.44-2.13,3.79-3.71,5.24l-4,2.74a34.69,34.69,0,0,0-9.29-3.27,89.4,89.4,0,0,0-11.14-.71V224l2.12,1.15a12.6,12.6,0,0,0-.89-5.13,4.36,4.36,0,0,0-3.18-2.83l3.89-4a3.38,3.38,0,0,0-1.68-.71,6.81,6.81,0,0,0-5.4,1.51,29.3,29.3,0,0,0,.71-4.6,9.52,9.52,0,0,0-.62-3.72l-1.94,2.83a10.53,10.53,0,0,0-6.46-4.51c-4.78-1.33-11.31.49-13.62,1.24-2.75.88-9,4.42-9,4.42l2.3.89c-.54-.21-3.43,3-3.82,3.44-4.18,4.54-4.83,9.58-4.44,15.5.09,1.43.3,2.89.3,4.32s2.13-1.24,2.13-1.24-.53,5.13-.53,7.08a20.16,20.16,0,0,0,.53,4.42c.17.8,3-2.47,3-2.47s-1.23,8-1,8.22,3.6-2.21,3.71-2.29c-.32.24-.16,2.69-.2,3.16a18.85,18.85,0,0,0-.12,3.52c1.07.31.86-3.53,2.77-3.2,1.76.31-.25,7.42-.4,8.59-.36,2.64-.71,5.27-1.07,7.92,0,0-.18,2.65,3,3.53s4.51-3.27,4.51-3.27l1-7.38c.21-1.56.43-3.13.65-4.69.06-.44,0-1.23.37-1.55.64-.62,2.32-.23,3.08-.17,1.71.13,1.83.88,1.86,2.5,0,2.35-.07,4.7-.1,7l-.06,4.84a3.82,3.82,0,0,0,3.61,3.84,4.24,4.24,0,0,0,1.33,0,3.13,3.13,0,0,0,2.62-3.63,90.27,90.27,0,0,1,.32-10.5c.1-1,.34-2.42,1.36-2.92,1.39-.68,3.35-.16,4.84-.28,2.06-.17,4-.16,6-.13,1.49,0,3,.2,3.1,2a42.48,42.48,0,0,1-.22,4.78c-.06,1.51-.62,7.46,0,8.73a4.55,4.55,0,0,0,2.22,2.71,4.7,4.7,0,0,0,4.89-1c1.8-2.23,1.08-5.57,1.08-8.19v-7c0-1.61,1.12-2.41,2.52-2.78s2.72-.07,2.85,1.53c.22,2.67.43,5.34.65,8a22,22,0,0,0,.75,5.23c.39,1.16.55,2.77,1.82,3.31s3.59.06,4.81-.59a3.15,3.15,0,0,0,1.57-2.94c0-1.34,0-2.68,0-4,0-5.62-.49-21.36-4.29-27.38Z"/><path class="cls-3" d="M92.71,151.44l.46-2.42-2.33,0a23.5,23.5,0,0,1-2.9,2.31,4.77,4.77,0,0,1-2,.65,1.69,1.69,0,0,1-1.49-2.28l1.72-4s.22-6,.22-6a51.39,51.39,0,0,0-.47-5.67l-.63-7.6c-.21-2.5-.36-5-.63-7.51-.51-4.81-1.19-9.6-1.78-14.4l-2.06-7.72-2.91-4.2L72.05,89a90,90,0,0,1-9.48-4,22.14,22.14,0,0,1-5.94-3.83,29.65,29.65,0,0,1-4.2-5.75c-2.32-3.91-2.93-8.3-2.83-12.77,0-1.88.11-3.76.16-5.64,0-.44,0-.89,0-1.33,0-2.06-.09-4.11-.09-6.16a2.26,2.26,0,0,1,1.85-2.4c1-.34,2.7-.53,3.17.7l.56,5.39c0,.94-.31,2.25.33,3s2.65,1.26,3.3.57c.49-.52.12-2.33.15-3.06,0-1.22.07-2.44.11-3.67a6.07,6.07,0,0,1,.22-2c.29-.51.51-.4,1.17-.33.89.09,3,.13,3.1,1.1.32,2.43-.19,4.62-.06,6.16.15,1.9.14,4.23,1.85,5.31a7.31,7.31,0,0,0,3.82.82,59.19,59.19,0,0,1,11.45.2c1,.1,2.58-1.81,3-2.63a7,7,0,0,0,.57-4.28,7.54,7.54,0,0,1,.34-5c.84-1.62,4.24-1.32,5.36-.17.34.35.56,4.17.56,4.51s0,4.85,0,4.95c0,1.25,1.34,1.56,2.34,1.28a1.85,1.85,0,0,0,1.49-2.2c-.08-1,.06-6.07.06-6.07.61-1.08.62-2.26,2.11-2.43a4.68,4.68,0,0,1,3.11,1s1,.8,1,1.32.22,22.31.22,22.31c.08,7.69-.71,15.37-1,23-.18,5.26-.41,10.52-.6,15.77,0,1.23-.06,2.47-.14,3.7l-1,15.88,3.57-1.45c1.93-.63,4.69-1.47,6.73-1.08,2.4.46,6.08,1.2,7.35,3.55,1.36,2.51,1.49,6.76-.65,8.95-3,3.08-6.7,5.24-10.31,7.54a16.38,16.38,0,0,1,.44,3.52c-.24,2.41-3.19,1.66-4.12-.52-.12-.29-1.11-1.66-1.11-1.66l-1.57.16-.19,1.56h-1s.13-2.29.11-2.43c-.08-.61-2.24-.89-2.51-.63A7.92,7.92,0,0,0,93.84,152Z"/><path class="cls-3" d="M96,155a2,2,0,1,1,2,2.1A2,2,0,0,1,96,155Z"/><path class="cls-3" d="M90.27,153.33a2,2,0,1,1,2,2.1A2,2,0,0,1,90.27,153.33Z"/><path class="cls-3" d="M47.51,67.41a33.23,33.23,0,0,1,2.58,2.46"/><path class="cls-4" d="M45.54,65.05c.43-.68.67-2.47-.58-2.52s-.85,2.32.06,2.69"/><path class="cls-4" d="M44.31,67c.07-1.55-3.37-1.12-2.44.42C42.41,68.26,44.25,68.11,44.31,67Z"/><path class="cls-4" d="M44.13,65.36c.57-1.19-1.21-2.19-2.22-2-1.55.3-1.09,2.2.22,2.55C42.79,66.1,43.78,66.07,44.13,65.36Z"/><path class="cls-4" d="M44.65,67.38a5.31,5.31,0,0,1,2.6,0"/><path class="cls-4" d="M45.54,64.79c-.11.51,1.19,2.09,1.71,2.45"/><path class="cls-3" d="M45.54,65.14c.79.81,3.07,2.59,3.78,3.5"/><path class="cls-5" d="M43.42,183.43l-.48,2.67h2.57a24.92,24.92,0,0,1,3.17-2.57,5.05,5.05,0,0,1,2.19-.74,1.86,1.86,0,0,1,1.66,2.49c0,.06-1.86,4.47-1.86,4.47s-.17,6.59-.17,6.62a54.62,54.62,0,0,0,.58,6.24q.38,4.19.77,8.35c.25,2.76.45,5.52.77,8.27.62,5.29,1.41,10.56,2.12,15.84l2.35,8.48,3.25,4.59,6.5,3.82a98.8,98.8,0,0,1,10.47,4.37c2.39,1.22,4.65,2.23,6.58,4.15a31.69,31.69,0,0,1,4.69,6.29c2.6,4.27,3.31,9.1,3.25,14,0,2.07-.08,4.14-.11,6.21,0,.49,0,1,0,1.47,0,2.26.14,4.52.16,6.78a2.5,2.5,0,0,1-2,2.66c-1.09.39-3,.61-3.5-.74l-.67-5.93c0-1,.32-2.48-.4-3.31s-2.93-1.36-3.64-.59c-.53.57-.11,2.56-.13,3.37l-.09,4a6.52,6.52,0,0,1-.22,2.26c-.31.56-.55.45-1.28.38-1-.1-3.27-.12-3.42-1.18-.38-2.68.15-5.1,0-6.79-.19-2.09-.21-4.65-2.1-5.83a8.13,8.13,0,0,0-4.21-.86,65.59,65.59,0,0,1-12.61-.09c-1.16-.1-2.82,2-3.25,2.92a7.76,7.76,0,0,0-.58,4.72,8.21,8.21,0,0,1-.32,5.49c-.91,1.79-4.65,1.5-5.89.25-.38-.39-.67-4.59-.67-5s-.09-5.34-.1-5.45c0-1.37-1.49-1.7-2.59-1.38a2,2,0,0,0-1.61,2.43c.09,1,0,6.69,0,6.69-.67,1.2-.67,2.5-2.31,2.7A5.2,5.2,0,0,1,36.82,295s-1.14-.86-1.14-1.44S35.2,269,35.2,269c-.17-8.47.61-16.94.82-25.4.14-5.79.34-11.58.49-17.37,0-1.35,0-2.72.12-4.07l1-17.49-3.92,1.62c-2.12.72-5.15,1.67-7.4,1.26-2.65-.48-6.71-1.25-8.14-3.83-1.51-2.74-1.7-7.43.63-9.85,3.29-3.43,7.32-5.85,11.28-8.42a17.84,17.84,0,0,1-.53-3.87c.23-2.66,3.49-1.86,4.54.53.14.31,1.24,1.81,1.24,1.81l1.72-.19.2-1.72h1.14s-.12,2.52-.09,2.68c.09.67,2.48,1,2.77.67a8.89,8.89,0,0,0,1.15-2.49Z"/><path class="cls-5" d="M39.79,179.6a2.2,2.2,0,1,1-2.2-2.29A2.26,2.26,0,0,1,39.79,179.6Z"/><path class="cls-5" d="M46.1,181.32A2.2,2.2,0,1,1,43.9,179,2.26,2.26,0,0,1,46.1,181.32Z"/><path class="cls-5" d="M94.08,275.48a38.1,38.1,0,0,1-2.87-2.68"/><path class="cls-6" d="M96.28,278.06c-.47.75-.72,2.72.67,2.77s.9-2.57-.1-3"/><path class="cls-6" d="M97.62,276c-.07,1.71,3.72,1.2,2.67-.48C99.69,274.49,97.67,274.67,97.62,276Z"/><path class="cls-6" d="M97.83,277.7c-.62,1.31,1.36,2.39,2.46,2.17,1.71-.35,1.18-2.44-.27-2.81C99.3,276.87,98.2,276.91,97.83,277.7Z"/><path class="cls-6" d="M97.23,275.48a5.89,5.89,0,0,1-2.86,0"/><path class="cls-6" d="M96.28,278.34c.12-.56-1.33-2.28-1.91-2.67"/><path class="cls-5" d="M96.28,278c-.88-.89-3.41-2.82-4.21-3.82"/><path class="cls-1" d="M173,72.07a4.3,4.3,0,0,1,3.76-1.25c1.39.51,2,2.74,2.78,3.84a14.46,14.46,0,0,0,4.54,3.72A8.84,8.84,0,0,0,191,79.56c2-.62,3.4-2.87,5.08-4.08A60.33,60.33,0,0,1,221.26,65a38.08,38.08,0,0,1,7.91-.43,29.27,29.27,0,0,1,12.63,3.32c4.37,2.43,6.63,6.2,10,9.7,2.83,3,5.54,7.27,7.27,9.24,1.48,1.69,3.7,2.2,5.09,4.17.35.49,1.71,2.78,1.17,3.32-.79.79-2.88-1.89-3.54-2.11.15.93,1,3.37-.49,3.84-1.75.54-1.53-2.9-1.89-3.79-.55.73-1.65,2.84-2.31,1.48s1.76-2.5,1.4-4.18c-.3-1.4-1.74-2.43-2.62-3.47l-3.1-3.7L254,88.59l-.74,7.52c-.44,1.46-.89,2.92-1.33,4.38-1.09,3.62-.11,8.35-2.74,11.27l-6.16.37-.5-6.53-5.91-.37-.25,6.16h-7.15l-.37-5.17q-7.16-.24-14.3-.62l.74,5.05-6.9.62-.37-4.81-3.7.5-.12,4.43c0,.24-5.51.5-6-.12-.74-.86,1.14-10.14.24-15.66-.67-4.15-5.35-5.72-8.77-7-6.13-2.27-13.25-6.52-16.13-12.73C173,74.75,172.07,73.46,173,72.07Z"/><path class="cls-1" d="M287.14,151.31l8.23.18v9.63l4.73-.17.35-7.88,9.11.08.08,8.06h7.1l.26-8.41h9.28l.61.44-.52,10,3-.08-.18-9.9,4.82-.09,3.68.35,1.4.18.78,12.43c3.38.36,8.91.54,12.26,1a31.16,31.16,0,0,1,15,7.1,18.05,18.05,0,0,1,6.39,10.51,86.4,86.4,0,0,1,.49,14.77,9.28,9.28,0,0,1-2.28,5.1,4.13,4.13,0,0,1-2.52,1.1c-1.35-.22.11-2.64.11-3.64s-.79-5-.79-5l-.26-.79-4.73.44a33.17,33.17,0,0,1-.57,5.1c-.85,3.1-3.29-1.27-3.87-2.24s-1.19-2-1.78-3c-.78,0-1.63-.07-2.4,0a49.49,49.49,0,0,0-5,.87s.27,4.82,0,5.34c-1,2.06-1.15,3.53-3.81,3.68-2.08.12-2.22-2.8-2.67-4.29l-.08-4.46-1.93-.27c.34,0-1.22,6.39-1.68,7-.85,1-3.2,2.81-4.33,1.35-.77-1-.85-2.72-.89-3.94,0-.41-.34-5.32-.19-5.35a50.28,50.28,0,0,1-20.46.26,39.54,39.54,0,0,1-17.11-8.4,38.14,38.14,0,0,1-5-5.9c-.5-.69-1-1.41-1.49-2.08-.82-1-1.88-1.29-3-1.84a9.65,9.65,0,0,1-3.36-2.44,17.78,17.78,0,0,1-2.83-4.71,6.66,6.66,0,0,0-.93-2.11c-.51-.6-1.26-1-1.75-1.59a6.84,6.84,0,0,1-1.39-2.52c-.65-3.06,2.66-1.34,3.43.22,0-.52-.8-4.95,1-3.38.45.4.51,1.47.64,2,.18.74-.14,1.28,0,2,.27-.76,1.91-3.52,2.62-1.55.53,1.49-1.38,2.64-1.56,3.85s1.17,3,1.83,3.9a7.68,7.68,0,0,0,4.56,2.67c-.23-.05-.71-2.75-.8-3.06a35.83,35.83,0,0,1-1.24-5.08c-.19-1.59-.23-3.21-.35-4.81C286.86,158.42,287.11,154.83,287.14,151.31Z"/><path class="cls-1" d="M413.64,340.79a4.3,4.3,0,0,1-3.76,1.25c-1.39-.51-2-2.74-2.78-3.84a14.38,14.38,0,0,0-4.54-3.73,8.86,8.86,0,0,0-6.9-1.18c-2,.62-3.41,2.87-5.09,4.08A60.48,60.48,0,0,1,365.4,347.8a38.82,38.82,0,0,1-7.91.43,29.25,29.25,0,0,1-12.63-3.34c-4.38-2.43-6.63-6.2-10-9.7-2.84-3-5.55-7.28-7.27-9.25-1.48-1.69-3.7-2.2-5.09-4.17-.35-.49-1.71-2.78-1.16-3.33.78-.79,2.87,1.9,3.53,2.12-.15-.93-1-3.37.5-3.84,1.75-.54,1.53,2.9,1.88,3.79.55-.73,1.65-2.84,2.32-1.47s-1.76,2.49-1.41,4.18c.3,1.4,1.74,2.42,2.62,3.47l3.09,3.69-1.22-6.16.74-7.52c.44-1.46.88-2.93,1.33-4.39,1.09-3.61.11-8.34,2.75-11.26l6.16-.37.49,6.53,5.92.38.25-6.16h7.15l.36,5.18q7.15.24,14.3.62l-.73-5.05,6.9-.61.37,4.81,3.7-.49.12-4.44c0-.24,5.5-.5,6,.13.74.85-1.15,10.14-.26,15.65.68,4.15,5.36,5.73,8.77,7,6.13,2.28,13.25,6.53,16.12,12.74C413.68,338.11,414.59,339.4,413.64,340.79Z"/><path class="cls-1" d="M498.31,372.85c.11-.19-3.62-3.49-3.9-3.76-.84-.81-1.67-1.63-2.52-2.42s-3-1-4.29-1c-1,0-2.51-.42-2.91-1.56a1.35,1.35,0,0,1,1.09-1.76,17.46,17.46,0,0,1,2.41,0s-.71-1.13-1-1.72c-.18-.35-1-2-.29-2.41s1.4.6,1.73.9a13.17,13.17,0,0,1,1.58,2.27,4.38,4.38,0,0,1,.61-2.53c1.59-2.21,1.49,2.76,1.42,3.69-.17,2.45,2.14,3.8,3.71,5.25l4,2.74a34.54,34.54,0,0,1,9.29-3.28,90.78,90.78,0,0,1,11.15-.7v-4.69L518.21,363a12.79,12.79,0,0,1,.89-5.13,4.34,4.34,0,0,1,3.18-2.83l-3.89-4a3.38,3.38,0,0,1,1.68-.71,6.8,6.8,0,0,1,5.4,1.5,29.07,29.07,0,0,1-.71-4.6,9.5,9.5,0,0,1,.62-3.71l2,2.83a10.49,10.49,0,0,1,6.45-4.51c4.78-1.33,11.31.49,13.63,1.24,2.74.88,9,4.42,9,4.42l-2.3.88c.54-.21,3.43,3,3.82,3.45,4.19,4.53,4.83,9.57,4.45,15.49-.1,1.43-.31,2.89-.31,4.33s-2.12-1.24-2.12-1.24.53,5.13.53,7.08A21,21,0,0,1,560,382c-.18.79-3-2.48-3-2.48s1.24,8,1,8.23-3.59-2.21-3.71-2.3c.33.24.17,2.7.2,3.17a18.74,18.74,0,0,1,.12,3.51c-1.07.31-.85-3.53-2.77-3.19-1.76.31.25,7.42.41,8.59.35,2.63.71,5.27,1.06,7.91a3.62,3.62,0,0,1-3,3.54c-3.19.88-4.52-3.27-4.52-3.27q-.51-3.69-1-7.38c-.22-1.57-.44-3.13-.65-4.7-.06-.43,0-1.23-.37-1.55-.65-.61-2.32-.22-3.08-.16-1.72.12-1.84.87-1.87,2.5,0,2.34.07,4.69.1,7l.06,4.83a3.81,3.81,0,0,1-3.6,3.84,4.3,4.3,0,0,1-1.34,0,3.14,3.14,0,0,1-2.62-3.64A86.18,86.18,0,0,0,531,396c-.1-1-.34-2.41-1.36-2.91-1.39-.69-3.34-.17-4.84-.29-2.06-.17-4-.15-6-.13-1.49,0-3,.2-3.1,2a45.28,45.28,0,0,0,.22,4.79c.07,1.5.62,7.46,0,8.72a4.48,4.48,0,0,1-2.22,2.71,4.68,4.68,0,0,1-4.89-1c-1.8-2.23-1.07-5.57-1.07-8.2v-7c0-1.62-1.12-2.42-2.52-2.78s-2.72-.07-2.86,1.53c-.22,2.66-.43,5.33-.65,8a21.94,21.94,0,0,1-.75,5.23c-.38,1.17-.55,2.78-1.81,3.31s-3.59.06-4.82-.58a3.16,3.16,0,0,1-1.56-2.94c0-1.35,0-2.69,0-4,0-5.63.48-21.37,4.28-27.38Z"/><path class="cls-1" d="M819.7,36.32c-.11-.19,3.62-3.48,3.91-3.76.83-.8,1.66-1.62,2.51-2.42s3-1,4.29-1c1,0,2.52-.41,2.91-1.55a1.34,1.34,0,0,0-1.09-1.76,15.83,15.83,0,0,0-2.4,0s.71-1.13,1-1.72c.18-.35,1-2,.29-2.42s-1.4.61-1.73.91a12.24,12.24,0,0,0-1.57,2.27,4.38,4.38,0,0,0-.62-2.53c-1.59-2.22-1.49,2.76-1.42,3.69.17,2.44-2.13,3.79-3.71,5.24l-4,2.74a34.69,34.69,0,0,0-9.29-3.27A89.4,89.4,0,0,0,797.68,30V25.35l2.12,1.15a12.6,12.6,0,0,0-.89-5.13,4.36,4.36,0,0,0-3.18-2.83l3.89-4a3.38,3.38,0,0,0-1.68-.71,6.81,6.81,0,0,0-5.4,1.51,29.3,29.3,0,0,0,.71-4.6A9.52,9.52,0,0,0,792.63,7l-1.94,2.83a10.53,10.53,0,0,0-6.46-4.51c-4.78-1.33-11.31.49-13.62,1.24-2.75.88-9,4.42-9,4.42l2.3.89c-.54-.21-3.43,3-3.82,3.45-4.18,4.53-4.83,9.57-4.44,15.49.09,1.43.3,2.89.3,4.32s2.13-1.24,2.13-1.24-.53,5.13-.53,7.08a20.16,20.16,0,0,0,.53,4.42c.17.8,3-2.47,3-2.47s-1.23,8-1,8.22,3.6-2.21,3.71-2.29c-.32.24-.16,2.69-.2,3.16a18.85,18.85,0,0,0-.12,3.52c1.07.31.86-3.53,2.77-3.2s-.25,7.42-.4,8.59c-.36,2.64-.72,5.27-1.07,7.92,0,0-.18,2.65,3,3.53s4.51-3.27,4.51-3.27l1-7.38c.21-1.56.43-3.13.65-4.69.06-.44,0-1.23.37-1.55.64-.62,2.32-.23,3.08-.17,1.71.13,1.83.88,1.86,2.5,0,2.35-.07,4.7-.1,7l-.06,4.84a3.82,3.82,0,0,0,3.61,3.84,4.24,4.24,0,0,0,1.33,0,3.13,3.13,0,0,0,2.62-3.63,90.27,90.27,0,0,1,.32-10.5c.1-1,.34-2.42,1.36-2.92,1.39-.68,3.35-.16,4.84-.28,2.06-.17,4-.16,6-.13,1.49,0,3,.2,3.1,2a42.48,42.48,0,0,1-.22,4.78c-.06,1.51-.62,7.46,0,8.73a4.55,4.55,0,0,0,2.22,2.71,4.7,4.7,0,0,0,4.89-1c1.8-2.23,1.08-5.57,1.08-8.19v-7c0-1.61,1.12-2.41,2.52-2.77s2.72-.08,2.85,1.52c.22,2.67.43,5.34.65,8a22,22,0,0,0,.75,5.23c.39,1.16.55,2.77,1.82,3.31s3.59.06,4.81-.59a3.15,3.15,0,0,0,1.57-2.94c0-1.34,0-2.68,0-4,0-5.62-.48-21.36-4.28-27.38Z"/><path class="cls-1" d="M650.8,327.51l-.42,2.3h2.21a21.12,21.12,0,0,1,2.73-2.21,4.39,4.39,0,0,1,1.88-.64,1.61,1.61,0,0,1,1.43,2.15L657,333s-.15,5.66-.15,5.69a48.32,48.32,0,0,0,.5,5.36l.66,7.19c.22,2.36.39,4.74.67,7.1.53,4.55,1.21,9.08,1.82,13.62l2,7.29,2.79,3.95,5.59,3.28a86.48,86.48,0,0,1,9,3.76,20.94,20.94,0,0,1,5.65,3.57,27.67,27.67,0,0,1,4,5.4c2.23,3.68,2.84,7.83,2.79,12.06,0,1.78-.07,3.56-.1,5.34,0,.42,0,.85,0,1.27,0,1.94.12,3.88.14,5.82a2.16,2.16,0,0,1-1.74,2.29c-.94.34-2.55.53-3-.64l-.57-5.09c0-.88.27-2.13-.34-2.85s-2.53-1.16-3.13-.51c-.46.5-.1,2.21-.11,2.9,0,1.16,0,2.32-.08,3.47a5.71,5.71,0,0,1-.19,1.95c-.27.48-.47.39-1.1.33-.84-.09-2.81-.1-2.94-1-.33-2.3.13-4.38,0-5.83-.16-1.8-.18-4-1.81-5a6.9,6.9,0,0,0-3.61-.73,56.19,56.19,0,0,1-10.85-.09c-1-.08-2.42,1.74-2.79,2.52a6.66,6.66,0,0,0-.5,4.05,7.11,7.11,0,0,1-.28,4.73c-.77,1.53-4,1.28-5.06.21-.33-.33-.58-3.95-.58-4.28s-.08-4.58-.08-4.68c0-1.18-1.28-1.46-2.23-1.18a1.73,1.73,0,0,0-1.38,2.08c.08.91,0,5.76,0,5.76-.58,1-.58,2.15-2,2.31a4.45,4.45,0,0,1-3-.92s-1-.74-1-1.23-.41-21.12-.41-21.12c-.15-7.28.52-14.56.7-21.83.13-5,.3-10,.43-14.94,0-1.16,0-2.33.1-3.5l.82-15-3.37,1.39c-1.82.62-4.43,1.44-6.36,1.09-2.28-.42-5.77-1.08-7-3.3s-1.47-6.38.53-8.47c2.84-3,6.3-5,9.7-7.23a15.4,15.4,0,0,1-.45-3.33c.2-2.29,3-1.6,3.9.45.12.27,1.07,1.56,1.07,1.56l1.48-.16.16-1.48h1s-.1,2.16-.08,2.3c.08.57,2.13.82,2.38.57a7.58,7.58,0,0,0,1-2.13Z"/><path class="cls-1" d="M647.67,324.22a1.89,1.89,0,1,1-1.89-2A1.93,1.93,0,0,1,647.67,324.22Z"/><path class="cls-1" d="M653.1,325.7a1.89,1.89,0,1,1-1.89-2A1.94,1.94,0,0,1,653.1,325.7Z"/><path class="cls-1" d="M694.35,406.65a31.43,31.43,0,0,1-2.47-2.3"/><path class="cls-2" d="M696.24,408.87c-.4.65-.61,2.34.58,2.38s.77-2.21-.09-2.55"/><path class="cls-2" d="M697.39,407.06c-.06,1.46,3.2,1,2.3-.42C699.17,405.8,697.44,406,697.39,407.06Z"/><path class="cls-2" d="M697.57,408.56c-.53,1.13,1.17,2.06,2.12,1.87,1.47-.3,1-2.1-.23-2.42C698.83,407.85,697.89,407.89,697.57,408.56Z"/><path class="cls-2" d="M697.06,406.65a5.12,5.12,0,0,1-2.46,0"/><path class="cls-2" d="M696.24,409.11c.1-.48-1.14-2-1.64-2.3"/><path class="cls-1" d="M696.24,408.79c-.76-.77-2.93-2.43-3.62-3.29"/><path class="cls-1" d="M658.57,235c-.11-.19,3.62-3.48,3.9-3.76l2.51-2.42c1-.89,3-1,4.29-1,1,0,2.52-.41,2.92-1.56a1.34,1.34,0,0,0-1.09-1.75,16,16,0,0,0-2.41,0s.71-1.13,1-1.72c.19-.35,1-2,.29-2.42s-1.39.61-1.72.91a12.29,12.29,0,0,0-1.58,2.27,4.35,4.35,0,0,0-.61-2.53c-1.6-2.22-1.49,2.75-1.42,3.69.17,2.44-2.14,3.79-3.71,5.24l-4,2.74a34.69,34.69,0,0,0-9.29-3.27,89.52,89.52,0,0,0-11.15-.71V224l2.12,1.15a12.69,12.69,0,0,0-.88-5.13,4.37,4.37,0,0,0-3.19-2.83l3.9-4a3.41,3.41,0,0,0-1.68-.71,6.8,6.8,0,0,0-5.4,1.51,29.3,29.3,0,0,0,.71-4.6,9.52,9.52,0,0,0-.62-3.72l-2,2.83A10.53,10.53,0,0,0,623.1,204c-4.78-1.33-11.32.49-13.63,1.24-2.74.88-9,4.42-9,4.42l2.3.89c-.54-.21-3.43,3-3.83,3.44-4.18,4.54-4.83,9.58-4.44,15.5.09,1.43.31,2.89.31,4.32s2.12-1.24,2.12-1.24-.53,5.13-.53,7.08a20.16,20.16,0,0,0,.53,4.42c.18.8,3-2.47,3-2.47s-1.24,8-1,8.22,3.59-2.21,3.71-2.29c-.33.24-.17,2.69-.2,3.16a18,18,0,0,0-.12,3.52c1.06.31.85-3.53,2.77-3.2,1.76.31-.25,7.42-.41,8.59-.35,2.64-.71,5.27-1.07,7.92a3.62,3.62,0,0,0,3,3.53c3.19.89,4.51-3.27,4.51-3.27l1-7.38c.22-1.56.43-3.13.65-4.69.06-.44,0-1.23.37-1.55.65-.62,2.32-.23,3.08-.17,1.72.13,1.84.88,1.86,2.5,0,2.35-.06,4.7-.09,7L618,268.4a3.82,3.82,0,0,0,3.6,3.84,4.3,4.3,0,0,0,1.34,0,3.13,3.13,0,0,0,2.61-3.63,87.94,87.94,0,0,1,.33-10.5c.09-1,.34-2.42,1.35-2.92,1.4-.68,3.35-.16,4.84-.28,2.06-.17,4-.16,6-.13,1.5,0,3,.2,3.11,2a47.78,47.78,0,0,1-.22,4.78c-.07,1.51-.62,7.46,0,8.73a4.53,4.53,0,0,0,2.21,2.71,4.72,4.72,0,0,0,4.9-1c1.8-2.23,1.07-5.57,1.07-8.19v-7c0-1.61,1.12-2.41,2.52-2.78s2.72-.07,2.86,1.53q.33,4,.64,8a22.55,22.55,0,0,0,.76,5.23c.38,1.16.54,2.77,1.81,3.31s3.59.06,4.81-.59a3.13,3.13,0,0,0,1.57-2.94c0-1.34,0-2.68,0-4,0-5.62-.48-21.36-4.28-27.38Z"/><path class="cls-3" d="M512,151.44l.46-2.42-2.34,0a22.1,22.1,0,0,1-2.9,2.31,4.68,4.68,0,0,1-2,.65,1.7,1.7,0,0,1-1.49-2.28l1.73-4s.21-6,.21-6a47,47,0,0,0-.47-5.67c-.21-2.53-.41-5.07-.62-7.6s-.36-5-.63-7.51c-.52-4.81-1.19-9.6-1.79-14.4l-2.06-7.72-2.91-4.2L491.35,89a89.84,89.84,0,0,1-9.47-4,22.14,22.14,0,0,1-5.94-3.83,29.7,29.7,0,0,1-4.21-5.75c-2.32-3.91-2.92-8.3-2.82-12.77,0-1.88.11-3.76.16-5.64,0-.44,0-.89,0-1.33,0-2.06-.09-4.11-.09-6.16a2.28,2.28,0,0,1,1.86-2.4c1-.34,2.7-.53,3.17.7l.55,5.39c0,.94-.31,2.25.33,3s2.66,1.26,3.31.57c.48-.52.12-2.33.14-3.06l.12-3.67a5.83,5.83,0,0,1,.22-2c.29-.51.5-.4,1.16-.33.89.09,3,.13,3.1,1.1.32,2.43-.18,4.62-.06,6.16.16,1.9.15,4.23,1.86,5.31a7.27,7.27,0,0,0,3.81.82,59.31,59.31,0,0,1,11.46.2c1,.1,2.57-1.81,3-2.63a7,7,0,0,0,.57-4.28,7.54,7.54,0,0,1,.34-5c.84-1.62,4.24-1.32,5.35-.17.34.35.57,4.17.56,4.51s0,4.85,0,4.95c0,1.25,1.35,1.56,2.35,1.28a1.84,1.84,0,0,0,1.48-2.2c-.08-1,.06-6.07.06-6.07.62-1.08.63-2.26,2.12-2.43a4.66,4.66,0,0,1,3.1,1s1,.8,1,1.32.22,22.31.22,22.31c.08,7.69-.7,15.37-1,23-.18,5.26-.41,10.52-.6,15.77,0,1.23,0,2.47-.14,3.7l-1,15.88,3.57-1.45c1.94-.63,4.7-1.47,6.73-1.08,2.41.46,6.09,1.2,7.36,3.55,1.35,2.51,1.48,6.76-.65,8.95-3,3.08-6.7,5.24-10.32,7.54a15.78,15.78,0,0,1,.44,3.52c-.23,2.41-3.18,1.66-4.11-.52-.13-.29-1.12-1.66-1.12-1.66l-1.56.16-.19,1.56h-1s.13-2.29.11-2.43c-.08-.61-2.25-.89-2.51-.63a7.93,7.93,0,0,0-1.07,2.25Z"/><path class="cls-3" d="M515.29,155a2,2,0,1,1,2,2.1A2,2,0,0,1,515.29,155Z"/><path class="cls-3" d="M509.57,153.33a2,2,0,1,1,2,2.1A2,2,0,0,1,509.57,153.33Z"/><path class="cls-3" d="M466.82,67.41a35.12,35.12,0,0,1,2.58,2.46"/><path class="cls-4" d="M464.84,65.05c.44-.68.68-2.47-.58-2.52s-.84,2.32.06,2.69"/><path class="cls-4" d="M463.61,67c.08-1.55-3.37-1.12-2.44.42C461.72,68.26,463.55,68.11,463.61,67Z"/><path class="cls-4" d="M463.43,65.36c.58-1.19-1.21-2.19-2.21-2-1.56.3-1.1,2.2.22,2.55C462.09,66.1,463.09,66.07,463.43,65.36Z"/><path class="cls-4" d="M464,67.38a5.35,5.35,0,0,1,2.61,0"/><path class="cls-4" d="M464.85,64.79c-.12.51,1.19,2.09,1.71,2.45"/><path class="cls-3" d="M464.84,65.14c.79.81,3.07,2.59,3.79,3.5"/><path class="cls-5" d="M462.73,183.43l-.48,2.67h2.57a24.24,24.24,0,0,1,3.17-2.57,5.06,5.06,0,0,1,2.18-.74,1.87,1.87,0,0,1,1.67,2.49c0,.06-1.86,4.47-1.86,4.47s-.17,6.59-.17,6.62a52.42,52.42,0,0,0,.57,6.24q.39,4.19.77,8.35c.26,2.76.45,5.52.78,8.27.61,5.29,1.41,10.56,2.11,15.84l2.35,8.48,3.25,4.59,6.5,3.82a98.1,98.1,0,0,1,10.48,4.37c2.39,1.22,4.64,2.23,6.58,4.15a32.49,32.49,0,0,1,4.69,6.29c2.59,4.27,3.31,9.1,3.25,14,0,2.07-.09,4.14-.12,6.21,0,.49,0,1,0,1.47.05,2.26.14,4.52.16,6.78a2.51,2.51,0,0,1-2,2.66c-1.09.39-3,.61-3.5-.74l-.67-5.93c0-1,.32-2.48-.39-3.31s-2.94-1.36-3.64-.59c-.53.57-.11,2.56-.13,3.37l-.09,4a6.52,6.52,0,0,1-.22,2.26c-.32.56-.55.45-1.28.38-1-.1-3.27-.12-3.42-1.18-.39-2.68.15-5.1,0-6.79-.19-2.09-.21-4.65-2.11-5.83a8.09,8.09,0,0,0-4.2-.86,65.69,65.69,0,0,1-12.62-.09c-1.15-.1-2.82,2-3.24,2.92a7.76,7.76,0,0,0-.58,4.72,8.28,8.28,0,0,1-.33,5.49c-.9,1.79-4.65,1.5-5.89.25-.38-.39-.66-4.59-.66-5s-.1-5.34-.1-5.45c0-1.37-1.5-1.7-2.6-1.38a2,2,0,0,0-1.61,2.43c.1,1,0,6.69,0,6.69-.66,1.2-.66,2.5-2.3,2.7a5.18,5.18,0,0,1-3.43-1.07s-1.15-.86-1.15-1.44S454.5,269,454.5,269c-.16-8.47.62-16.94.83-25.4.14-5.79.34-11.58.49-17.37,0-1.35,0-2.72.12-4.07l.95-17.49L453,206.27c-2.12.72-5.15,1.67-7.39,1.26-2.66-.48-6.72-1.25-8.14-3.83-1.52-2.74-1.71-7.43.62-9.85,3.3-3.43,7.32-5.85,11.28-8.42a17.22,17.22,0,0,1-.52-3.87c.23-2.66,3.49-1.86,4.54.53.14.31,1.24,1.81,1.24,1.81l1.72-.19.19-1.72h1.15s-.12,2.52-.1,2.68c.1.67,2.49,1,2.77.67a8.89,8.89,0,0,0,1.15-2.49Z"/><path class="cls-5" d="M459.09,179.6a2.2,2.2,0,1,1-2.2-2.29A2.25,2.25,0,0,1,459.09,179.6Z"/><path class="cls-5" d="M465.4,181.32a2.2,2.2,0,1,1-2.2-2.29A2.25,2.25,0,0,1,465.4,181.32Z"/><path class="cls-5" d="M513.39,275.48a38.1,38.1,0,0,1-2.87-2.68"/><path class="cls-6" d="M515.58,278.06c-.47.75-.71,2.72.67,2.77s.91-2.57-.09-3"/><path class="cls-6" d="M516.92,276c-.07,1.71,3.72,1.2,2.68-.48C519,274.49,517,274.67,516.92,276Z"/><path class="cls-6" d="M517.13,277.7c-.62,1.31,1.36,2.39,2.46,2.17,1.71-.35,1.19-2.44-.26-2.81C518.6,276.87,517.51,276.91,517.13,277.7Z"/><path class="cls-6" d="M516.54,275.48a5.93,5.93,0,0,1-2.87,0"/><path class="cls-6" d="M515.58,278.34c.12-.56-1.33-2.28-1.91-2.67"/><path class="cls-5" d="M515.58,278c-.88-.89-3.4-2.82-4.2-3.82"/><path class="cls-1" d="M592.32,72.07a4.3,4.3,0,0,1,3.76-1.25c1.4.51,2,2.74,2.78,3.84a14.5,14.5,0,0,0,4.55,3.72,8.83,8.83,0,0,0,6.9,1.18c2-.62,3.4-2.87,5.09-4.08A60.29,60.29,0,0,1,640.56,65a38.12,38.12,0,0,1,7.91-.43,29.23,29.23,0,0,1,12.63,3.32c4.38,2.43,6.64,6.2,10,9.7,2.84,3,5.55,7.27,7.28,9.24,1.47,1.69,3.69,2.2,5.09,4.17.35.49,1.71,2.78,1.16,3.32-.78.79-2.87-1.89-3.53-2.11.15.93,1,3.37-.5,3.84-1.74.54-1.53-2.9-1.89-3.79-.54.73-1.64,2.84-2.31,1.48s1.76-2.5,1.4-4.18c-.29-1.4-1.74-2.43-2.61-3.47-1-1.23-2.07-2.46-3.1-3.7l1.23,6.17-.74,7.52-1.32,4.38c-1.09,3.62-.11,8.35-2.75,11.27l-6.16.37-.49-6.53-5.92-.37-.25,6.16h-7.14l-.37-5.17q-7.17-.24-14.3-.62l.74,5.05-6.91.62-.37-4.81-3.7.5-.12,4.43c0,.24-5.5.5-6-.12-.74-.86,1.15-10.14.25-15.66-.68-4.15-5.36-5.72-8.78-7-6.13-2.27-13.25-6.52-16.12-12.73C592.29,74.75,591.37,73.46,592.32,72.07Z"/><path class="cls-1" d="M706.44,151.31l8.23.18v9.63l4.73-.17.35-7.88,9.11.08.09,8.06H736l.26-8.41h9.29l.61.44-.53,10,3-.08-.17-9.9,4.81-.09,3.68.35,1.4.18.79,12.43c3.37.36,8.91.54,12.26,1a31.17,31.17,0,0,1,15,7.1,18,18,0,0,1,6.4,10.51,87.43,87.43,0,0,1,.49,14.77,9.35,9.35,0,0,1-2.28,5.1,4.15,4.15,0,0,1-2.53,1.1c-1.35-.22.11-2.64.11-3.64s-.78-5-.78-5l-.27-.79-4.73.44a34.45,34.45,0,0,1-.56,5.1c-.86,3.1-3.3-1.27-3.87-2.24s-1.19-2-1.78-3c-.79,0-1.64-.07-2.41,0a49.8,49.8,0,0,0-4.95.87s.26,4.82,0,5.34c-1,2.06-1.15,3.53-3.81,3.68-2.08.12-2.23-2.8-2.67-4.29l-.09-4.46-1.92-.27c.33,0-1.22,6.39-1.69,7-.84,1-3.19,2.81-4.32,1.35-.78-1-.86-2.72-.9-3.94,0-.41-.33-5.32-.19-5.35a50.25,50.25,0,0,1-20.46.26,39.65,39.65,0,0,1-17.11-8.4,38.63,38.63,0,0,1-5-5.9c-.51-.69-1-1.41-1.5-2.08-.81-1-1.88-1.29-3-1.84a9.74,9.74,0,0,1-3.36-2.44,17.75,17.75,0,0,1-2.82-4.71,6.66,6.66,0,0,0-.93-2.11c-.52-.6-1.26-1-1.75-1.59a6.7,6.7,0,0,1-1.39-2.52c-.66-3.06,2.66-1.34,3.43.22-.05-.52-.8-4.95,1-3.38.45.4.5,1.47.63,2,.18.74-.13,1.28,0,2,.27-.76,1.9-3.52,2.61-1.55.54,1.49-1.38,2.64-1.56,3.85s1.17,3,1.84,3.9a7.65,7.65,0,0,0,4.56,2.67c-.24-.05-.72-2.75-.8-3.06a35.87,35.87,0,0,1-1.25-5.08c-.19-1.59-.23-3.21-.34-4.81C706.16,158.42,706.41,154.83,706.44,151.31Z"/><path class="cls-1" d="M833,340.79a4.31,4.31,0,0,1-3.76,1.25c-1.4-.51-2-2.74-2.78-3.84a14.49,14.49,0,0,0-4.54-3.73,8.88,8.88,0,0,0-6.91-1.18c-2,.62-3.4,2.87-5.08,4.08A60.46,60.46,0,0,1,784.7,347.8a38.78,38.78,0,0,1-7.91.43,29.29,29.29,0,0,1-12.63-3.34c-4.37-2.43-6.63-6.2-10-9.7-2.83-3-5.54-7.28-7.26-9.25-1.48-1.69-3.7-2.2-5.09-4.17-.35-.49-1.71-2.78-1.17-3.33.79-.79,2.88,1.9,3.53,2.12-.14-.93-1-3.37.51-3.84,1.74-.54,1.53,2.9,1.88,3.79.55-.73,1.65-2.84,2.31-1.47s-1.76,2.49-1.4,4.18c.29,1.4,1.74,2.42,2.61,3.47l3.1,3.69L752,324.22l.74-7.52c.45-1.46.89-2.93,1.33-4.39,1.09-3.61.12-8.34,2.75-11.26l6.17-.37.49,6.53,5.91.38.25-6.16h7.15l.37,5.18q7.15.24,14.3.62l-.74-5.05,6.91-.61.36,4.81,3.7-.49.13-4.44c0-.24,5.5-.5,6,.13.74.85-1.15,10.14-.26,15.65.67,4.15,5.35,5.73,8.77,7,6.13,2.28,13.25,6.53,16.12,12.74C833,338.11,833.9,339.4,833,340.79Z"/><path class="cls-1" d="M79,792.15c.11-.19-3.62-3.48-3.9-3.76-.84-.8-1.66-1.62-2.51-2.42s-3-1-4.29-1c-1,0-2.52-.41-2.92-1.55a1.35,1.35,0,0,1,1.1-1.76,15.87,15.87,0,0,1,2.4,0s-.71-1.13-1-1.72c-.19-.35-1-2-.29-2.42s1.4.61,1.72.91a11.83,11.83,0,0,1,1.58,2.27,4.3,4.3,0,0,1,.62-2.53c1.59-2.21,1.48,2.76,1.42,3.69-.18,2.44,2.13,3.79,3.71,5.24l4,2.74a34.54,34.54,0,0,1,9.29-3.27,89.4,89.4,0,0,1,11.14-.71v-4.69l-2.12,1.15a12.69,12.69,0,0,1,.88-5.13,4.37,4.37,0,0,1,3.19-2.83l-3.89-4a3.34,3.34,0,0,1,1.68-.71,6.79,6.79,0,0,1,5.39,1.51,29.3,29.3,0,0,1-.71-4.6,9.74,9.74,0,0,1,.62-3.72l2,2.83a10.53,10.53,0,0,1,6.46-4.51c4.77-1.32,11.31.49,13.62,1.24a79.07,79.07,0,0,1,9,4.42l-2.3.89c.54-.21,3.43,3,3.83,3.45,4.18,4.53,4.83,9.57,4.44,15.49-.09,1.43-.31,2.89-.31,4.32s-2.12-1.24-2.12-1.24.53,5.14.53,7.08a20.16,20.16,0,0,1-.53,4.42c-.18.8-3-2.47-3-2.47s1.24,8,1,8.22-3.6-2.21-3.72-2.29c.33.24.17,2.69.2,3.16a17.28,17.28,0,0,1,.12,3.52c-1.06.31-.85-3.53-2.77-3.2-1.75.31.25,7.42.41,8.6.36,2.63.71,5.26,1.07,7.91a3.62,3.62,0,0,1-3,3.53c-3.18.89-4.51-3.27-4.51-3.27l-1-7.38c-.22-1.56-.43-3.13-.65-4.69-.06-.44,0-1.23-.37-1.55-.64-.62-2.32-.23-3.08-.17-1.72.13-1.83.88-1.86,2.5,0,2.35.07,4.7.1,7,0,1.61,0,3.23.06,4.84A3.84,3.84,0,0,1,116,829.4a4.3,4.3,0,0,1-1.34,0,3.13,3.13,0,0,1-2.61-3.63,90.27,90.27,0,0,0-.32-10.5c-.1-1-.34-2.42-1.36-2.92-1.4-.68-3.35-.16-4.84-.28-2.06-.17-4-.16-6-.13-1.5,0-3,.2-3.1,2a45,45,0,0,0,.21,4.78c.07,1.51.62,7.46,0,8.73a4.53,4.53,0,0,1-2.21,2.71,4.7,4.7,0,0,1-4.89-1c-1.81-2.23-1.08-5.57-1.08-8.19v-7c0-1.61-1.12-2.41-2.52-2.77s-2.72-.08-2.85,1.52c-.23,2.67-.43,5.34-.65,8A23.08,23.08,0,0,1,81.7,826c-.39,1.16-.55,2.77-1.82,3.31s-3.59.06-4.81-.59a3.13,3.13,0,0,1-1.57-2.94c0-1.34,0-2.68,0-4,0-5.62.48-21.36,4.29-27.38Z"/><path class="cls-1" d="M400.4,455.63c-.11-.19,3.62-3.49,3.9-3.76.84-.81,1.66-1.62,2.51-2.42s3-1,4.29-1c1,0,2.52-.41,2.92-1.56a1.36,1.36,0,0,0-1.09-1.76,17.46,17.46,0,0,0-2.41,0s.71-1.13,1-1.72c.19-.35,1-2,.29-2.41s-1.4.6-1.72.9a12.71,12.71,0,0,0-1.58,2.28,4.39,4.39,0,0,0-.61-2.54c-1.6-2.21-1.49,2.76-1.42,3.7.17,2.44-2.14,3.79-3.71,5.24l-4,2.74a34.18,34.18,0,0,0-9.28-3.27,89.61,89.61,0,0,0-11.15-.71v-4.69l2.12,1.15a12.68,12.68,0,0,0-.88-5.13,4.34,4.34,0,0,0-3.19-2.83l3.9-4a3.41,3.41,0,0,0-1.68-.71,6.84,6.84,0,0,0-5.4,1.5,29.07,29.07,0,0,0,.71-4.6,9.5,9.5,0,0,0-.62-3.71l-1.95,2.83a10.49,10.49,0,0,0-6.46-4.51c-4.77-1.33-11.31.49-13.62,1.24-2.74.88-9,4.42-9,4.42l2.3.88c-.54-.2-3.43,3-3.83,3.45-4.18,4.53-4.83,9.58-4.44,15.49.09,1.43.31,2.9.31,4.33s2.12-1.24,2.12-1.24-.53,5.13-.53,7.08a20.34,20.34,0,0,0,.53,4.42c.18.8,3-2.48,3-2.48s-1.24,8-1,8.23,3.59-2.21,3.71-2.3c-.33.24-.17,2.7-.2,3.17a17.19,17.19,0,0,0-.12,3.51c1.06.31.85-3.52,2.77-3.19,1.76.31-.25,7.42-.41,8.59-.36,2.63-.71,5.27-1.07,7.91a3.63,3.63,0,0,0,3,3.54c3.19.88,4.51-3.27,4.51-3.27l1-7.38c.22-1.57.43-3.13.65-4.69.06-.44,0-1.24.37-1.55.65-.62,2.32-.23,3.08-.17,1.72.12,1.84.87,1.86,2.5,0,2.34-.07,4.69-.09,7l-.06,4.83a3.81,3.81,0,0,0,3.6,3.84,4.3,4.3,0,0,0,1.34,0,3.13,3.13,0,0,0,2.61-3.64,90.42,90.42,0,0,1,.32-10.5c.1-1,.35-2.41,1.36-2.91,1.4-.69,3.35-.17,4.84-.29,2.06-.16,4-.15,6-.13,1.5,0,3,.2,3.11,2,.09,1.56-.15,3.22-.22,4.79s-.62,7.46,0,8.72a4.5,4.5,0,0,0,2.21,2.71,4.7,4.7,0,0,0,4.9-1c1.8-2.23,1.07-5.57,1.07-8.2v-7c0-1.62,1.12-2.42,2.52-2.78s2.72-.07,2.86,1.53c.22,2.66.42,5.34.64,8a22.39,22.39,0,0,0,.76,5.23c.38,1.17.54,2.78,1.81,3.31s3.59.06,4.81-.58a3.15,3.15,0,0,0,1.57-2.94c0-1.35,0-2.69,0-4,0-5.63-.48-21.36-4.29-27.38Z"/><path class="cls-1" d="M231.49,746.82l-.41,2.3h2.21A22.17,22.17,0,0,1,236,746.9a4.33,4.33,0,0,1,1.87-.63,1.6,1.6,0,0,1,1.43,2.14l-1.59,3.85s-.15,5.66-.15,5.68a46.18,46.18,0,0,0,.49,5.37c.22,2.39.45,4.79.67,7.18s.38,4.75.66,7.11c.53,4.55,1.21,9.08,1.82,13.62l2,7.29,2.79,3.94,5.59,3.29a83.45,83.45,0,0,1,9,3.75,21.15,21.15,0,0,1,5.66,3.57,27.79,27.79,0,0,1,4,5.41c2.23,3.67,2.84,7.82,2.79,12.06,0,1.78-.07,3.56-.1,5.34,0,.42,0,.84,0,1.26.05,1.94.12,3.89.14,5.83a2.15,2.15,0,0,1-1.73,2.29c-.94.33-2.56.52-3-.64l-.58-5.1c0-.88.28-2.13-.34-2.84s-2.52-1.17-3.13-.51c-.45.49-.09,2.2-.11,2.9,0,1.15-.05,2.31-.07,3.47a5.91,5.91,0,0,1-.19,1.94c-.27.49-.48.39-1.1.33-.84-.08-2.82-.1-2.95-1-.33-2.3.13-4.38,0-5.84-.16-1.8-.17-4-1.8-5a7.07,7.07,0,0,0-3.62-.74,56.19,56.19,0,0,1-10.85-.08c-1-.08-2.42,1.74-2.78,2.51a6.7,6.7,0,0,0-.51,4.06,7.08,7.08,0,0,1-.27,4.72c-.78,1.54-4,1.29-5.07.21-.33-.33-.57-3.94-.57-4.27s-.08-4.59-.08-4.68c0-1.18-1.29-1.46-2.24-1.19a1.74,1.74,0,0,0-1.38,2.09c.08.9,0,5.75,0,5.75-.57,1-.57,2.15-2,2.32a4.44,4.44,0,0,1-3-.92s-1-.74-1-1.23-.41-21.12-.41-21.12c-.14-7.29.53-14.56.71-21.84.12-5,.29-9.95.42-14.93,0-1.17,0-2.34.11-3.5l.82-15-3.37,1.4c-1.83.62-4.43,1.43-6.36,1.08-2.28-.41-5.77-1.07-7-3.29s-1.47-6.39.54-8.48c2.83-2.94,6.29-5,9.7-7.23a14.75,14.75,0,0,1-.46-3.33c.2-2.28,3-1.6,3.91.46.12.27,1.06,1.56,1.06,1.56l1.48-.17.17-1.48h1s-.1,2.17-.08,2.31c.08.57,2.14.82,2.39.57a7.92,7.92,0,0,0,1-2.14Z"/><path class="cls-1" d="M228.37,743.53a1.89,1.89,0,1,1-1.89-2A1.93,1.93,0,0,1,228.37,743.53Z"/><path class="cls-1" d="M233.79,745a1.89,1.89,0,1,1-1.89-2A1.93,1.93,0,0,1,233.79,745Z"/><path class="cls-1" d="M275,826a33.33,33.33,0,0,1-2.46-2.31"/><path class="cls-2" d="M276.93,828.17c-.4.65-.61,2.35.58,2.39s.78-2.21-.08-2.55"/><path class="cls-2" d="M278.09,826.37c-.06,1.46,3.19,1,2.3-.43C279.87,825.11,278.13,825.26,278.09,826.37Z"/><path class="cls-2" d="M278.27,827.86c-.54,1.13,1.16,2.06,2.11,1.87,1.47-.3,1-2.09-.23-2.42C279.53,827.15,278.59,827.19,278.27,827.86Z"/><path class="cls-2" d="M277.76,826a5.16,5.16,0,0,1-2.47,0"/><path class="cls-2" d="M276.93,828.42c.11-.48-1.14-2-1.64-2.3"/><path class="cls-1" d="M276.93,828.09c-.75-.76-2.93-2.42-3.61-3.29"/><path class="cls-1" d="M239.26,654.3c-.11-.19,3.62-3.49,3.91-3.76.83-.81,1.66-1.63,2.51-2.42s3-1,4.29-1c1,0,2.52-.42,2.91-1.56a1.35,1.35,0,0,0-1.09-1.76,17.3,17.3,0,0,0-2.4,0s.71-1.13,1-1.72c.18-.35,1-2,.29-2.41s-1.4.6-1.73.9a12.58,12.58,0,0,0-1.57,2.27,4.4,4.4,0,0,0-.62-2.53c-1.59-2.21-1.49,2.76-1.42,3.7.17,2.44-2.13,3.79-3.71,5.24l-4,2.74a34.54,34.54,0,0,0-9.29-3.28,90.66,90.66,0,0,0-11.14-.7v-4.69l2.12,1.15a12.59,12.59,0,0,0-.89-5.13,4.34,4.34,0,0,0-3.18-2.83l3.89-4a3.38,3.38,0,0,0-1.68-.71,6.81,6.81,0,0,0-5.4,1.5,29.07,29.07,0,0,0,.71-4.6,9.5,9.5,0,0,0-.62-3.71l-1.94,2.83a10.49,10.49,0,0,0-6.46-4.51c-4.78-1.33-11.31.49-13.62,1.24-2.75.88-9,4.42-9,4.42l2.3.88c-.54-.21-3.43,3-3.82,3.45-4.18,4.53-4.83,9.57-4.44,15.49.09,1.43.3,2.9.3,4.33s2.13-1.24,2.13-1.24-.53,5.13-.53,7.08a20.34,20.34,0,0,0,.53,4.42c.17.8,3-2.48,3-2.48s-1.23,8-1,8.23,3.6-2.21,3.71-2.3c-.32.24-.16,2.7-.2,3.17a18.74,18.74,0,0,0-.12,3.51c1.07.31.86-3.52,2.77-3.19,1.76.31-.25,7.42-.4,8.59-.36,2.63-.71,5.27-1.07,7.91,0,0-.18,2.65,3,3.54s4.51-3.27,4.51-3.27l1-7.38c.21-1.57.43-3.13.65-4.69.06-.44,0-1.24.37-1.55.64-.62,2.32-.23,3.08-.17,1.71.12,1.83.87,1.86,2.5,0,2.34-.07,4.69-.1,7l-.06,4.83a3.81,3.81,0,0,0,3.61,3.84,4.24,4.24,0,0,0,1.33,0,3.13,3.13,0,0,0,2.62-3.64,90.42,90.42,0,0,1,.32-10.5c.1-1,.34-2.41,1.36-2.91,1.39-.69,3.35-.17,4.84-.29,2.06-.17,4-.15,6-.13,1.49,0,3,.2,3.1,2a42.77,42.77,0,0,1-.22,4.79c-.06,1.5-.62,7.46,0,8.72s.95,2.12,2.22,2.71a4.66,4.66,0,0,0,4.89-1c1.8-2.22,1.08-5.56,1.08-8.19v-7c0-1.62,1.12-2.42,2.52-2.78s2.72-.07,2.85,1.53c.22,2.66.43,5.33.65,8a21.87,21.87,0,0,0,.75,5.23c.39,1.17.55,2.78,1.82,3.31s3.59.06,4.81-.58a3.17,3.17,0,0,0,1.57-2.94c0-1.35,0-2.69,0-4,0-5.63-.49-21.37-4.29-27.38Z"/><path class="cls-3" d="M92.71,570.75l.46-2.43H90.84a23.41,23.41,0,0,1-2.9,2.3,4.65,4.65,0,0,1-2,.66A1.7,1.7,0,0,1,84.46,569l1.72-4s.22-6,.22-6a51.57,51.57,0,0,0-.47-5.68l-.63-7.59c-.21-2.5-.36-5-.63-7.51-.51-4.81-1.19-9.61-1.78-14.41L80.83,516l-2.91-4.19-5.87-3.53a88,88,0,0,1-9.48-4.06,22.14,22.14,0,0,1-5.94-3.83,29.29,29.29,0,0,1-4.2-5.74c-2.32-3.91-2.93-8.3-2.83-12.77,0-1.89.11-3.76.16-5.65,0-.44,0-.88,0-1.33,0-2.05-.09-4.1-.09-6.16a2.25,2.25,0,0,1,1.85-2.39c1-.35,2.7-.53,3.17.7l.56,5.39c0,.93-.31,2.24.33,3,.52.62,2.65,1.25,3.3.57.49-.52.12-2.33.15-3.06,0-1.22.07-2.45.11-3.67a6,6,0,0,1,.22-2.05c.29-.51.51-.41,1.17-.34.89.1,3,.14,3.1,1.1.32,2.44-.19,4.63-.06,6.17.15,1.9.14,4.22,1.85,5.31a7.41,7.41,0,0,0,3.82.82,59.19,59.19,0,0,1,11.45.2c1,.09,2.58-1.81,3-2.63a7,7,0,0,0,.57-4.28,7.57,7.57,0,0,1,.34-5c.84-1.61,4.24-1.32,5.36-.17.34.36.56,4.17.56,4.52s0,4.85,0,4.95c0,1.24,1.34,1.55,2.34,1.27A1.84,1.84,0,0,0,94.4,477c-.08-1,.06-6.08.06-6.08.61-1.08.62-2.26,2.11-2.42a4.68,4.68,0,0,1,3.11,1s1,.79,1,1.31.22,22.31.22,22.31c.08,7.7-.71,15.38-1,23.06-.18,5.26-.41,10.51-.6,15.77,0,1.23-.06,2.47-.14,3.69l-1,15.88,3.57-1.44c1.93-.64,4.69-1.47,6.73-1.08,2.4.46,6.08,1.19,7.35,3.55s1.49,6.76-.65,8.94c-3,3.09-6.7,5.24-10.31,7.54a16.55,16.55,0,0,1,.44,3.53c-.24,2.41-3.19,1.66-4.12-.52-.12-.29-1.11-1.66-1.11-1.66l-1.57.16-.19,1.56h-1s.13-2.29.11-2.43c-.08-.61-2.24-.89-2.51-.64a8.18,8.18,0,0,0-1.06,2.25Z"/><path class="cls-3" d="M96,574.25a2,2,0,1,1,2,2.11A2,2,0,0,1,96,574.25Z"/><path class="cls-3" d="M90.27,572.64a2,2,0,1,1,2,2.1A2,2,0,0,1,90.27,572.64Z"/><path class="cls-3" d="M47.51,486.72a31.32,31.32,0,0,1,2.58,2.45"/><path class="cls-4" d="M45.54,484.35c.43-.68.67-2.46-.58-2.52s-.85,2.33.06,2.69"/><path class="cls-4" d="M44.31,486.25c.07-1.54-3.37-1.12-2.44.42C42.41,487.56,44.25,487.42,44.31,486.25Z"/><path class="cls-4" d="M44.13,484.67c.57-1.19-1.21-2.19-2.22-2-1.55.3-1.09,2.21.22,2.56C42.79,485.41,43.78,485.38,44.13,484.67Z"/><path class="cls-4" d="M44.65,486.69a5.32,5.32,0,0,1,2.6,0"/><path class="cls-4" d="M45.54,484.09c-.11.51,1.19,2.09,1.71,2.45"/><path class="cls-3" d="M45.54,484.44c.79.82,3.07,2.59,3.78,3.51"/><path class="cls-5" d="M43.42,602.73l-.48,2.68h2.57a25.81,25.81,0,0,1,3.17-2.57,5.05,5.05,0,0,1,2.19-.74,1.87,1.87,0,0,1,1.66,2.5c0,.06-1.86,4.47-1.86,4.47s-.17,6.58-.17,6.61a54.79,54.79,0,0,0,.58,6.25c.25,2.78.51,5.57.77,8.35s.45,5.52.77,8.27c.62,5.29,1.41,10.56,2.12,15.84l2.35,8.48,3.25,4.58,6.5,3.83a98.74,98.74,0,0,1,10.47,4.36c2.39,1.22,4.65,2.24,6.58,4.16a31.63,31.63,0,0,1,4.69,6.28c2.6,4.28,3.31,9.1,3.25,14,0,2.07-.08,4.14-.11,6.22,0,.48,0,1,0,1.46,0,2.26.14,4.52.16,6.78a2.49,2.49,0,0,1-2,2.66c-1.09.39-3,.61-3.5-.74l-.67-5.93c0-1,.32-2.47-.4-3.31-.58-.68-2.93-1.35-3.64-.59-.53.58-.11,2.57-.13,3.37l-.09,4a6.5,6.5,0,0,1-.22,2.26c-.31.56-.55.46-1.28.38-1-.09-3.27-.11-3.42-1.17-.38-2.68.15-5.1,0-6.79-.19-2.1-.21-4.65-2.1-5.83a8.13,8.13,0,0,0-4.21-.86,65.59,65.59,0,0,1-12.61-.1c-1.16-.1-2.82,2-3.25,2.92a7.78,7.78,0,0,0-.58,4.72,8.25,8.25,0,0,1-.32,5.5c-.91,1.78-4.65,1.49-5.89.24-.38-.38-.67-4.58-.67-5s-.09-5.33-.1-5.44c0-1.38-1.49-1.7-2.59-1.38A2,2,0,0,0,42.56,706c.09,1,0,6.69,0,6.69-.67,1.2-.67,2.5-2.31,2.69a5.14,5.14,0,0,1-3.43-1.07s-1.14-.86-1.14-1.43-.48-24.57-.48-24.57c-.17-8.47.61-16.93.82-25.4.14-5.79.34-11.57.49-17.36,0-1.36,0-2.72.12-4.08l1-17.49-3.92,1.63c-2.12.72-5.15,1.67-7.4,1.26-2.65-.48-6.71-1.25-8.14-3.83-1.51-2.75-1.7-7.43.63-9.86,3.29-3.43,7.32-5.84,11.28-8.41a18,18,0,0,1-.53-3.88c.23-2.65,3.49-1.86,4.54.53.14.32,1.24,1.82,1.24,1.82L37,603l.2-1.72h1.14s-.12,2.52-.09,2.68c.09.66,2.48.95,2.77.66a8.83,8.83,0,0,0,1.15-2.48Z"/><path class="cls-5" d="M39.79,598.91a2.2,2.2,0,1,1-2.2-2.3A2.25,2.25,0,0,1,39.79,598.91Z"/><path class="cls-5" d="M46.1,600.63a2.2,2.2,0,1,1-2.2-2.29A2.25,2.25,0,0,1,46.1,600.63Z"/><path class="cls-5" d="M94.08,694.78a38,38,0,0,1-2.87-2.67"/><path class="cls-6" d="M96.28,697.36c-.47.76-.72,2.73.67,2.77s.9-2.57-.1-3"/><path class="cls-6" d="M97.62,695.26c-.07,1.7,3.72,1.2,2.67-.49C99.69,693.79,97.67,694,97.62,695.26Z"/><path class="cls-6" d="M97.83,697c-.62,1.32,1.36,2.4,2.46,2.18,1.71-.35,1.18-2.44-.27-2.82C99.3,696.17,98.2,696.22,97.83,697Z"/><path class="cls-6" d="M97.23,694.78a5.77,5.77,0,0,1-2.86,0"/><path class="cls-6" d="M96.28,697.65c.12-.56-1.33-2.29-1.91-2.68"/><path class="cls-5" d="M96.28,697.27c-.88-.89-3.41-2.82-4.21-3.83"/><path class="cls-1" d="M173,491.38a4.3,4.3,0,0,1,3.76-1.26c1.39.51,2,2.75,2.78,3.84a14.36,14.36,0,0,0,4.54,3.73,8.88,8.88,0,0,0,6.91,1.17c2-.61,3.4-2.87,5.08-4.08a60.59,60.59,0,0,1,25.17-10.45,38.78,38.78,0,0,1,7.91-.43,29.28,29.28,0,0,1,12.63,3.33c4.37,2.43,6.63,6.19,10,9.69,2.83,3,5.54,7.28,7.27,9.25,1.48,1.69,3.7,2.19,5.09,4.16.35.5,1.71,2.78,1.17,3.33-.79.79-2.88-1.9-3.54-2.12.15.93,1,3.38-.49,3.85-1.75.54-1.53-2.9-1.89-3.79-.55.73-1.65,2.83-2.31,1.47s1.76-2.5,1.4-4.18c-.3-1.4-1.74-2.43-2.62-3.47l-3.1-3.69,1.24,6.16-.74,7.52c-.44,1.47-.89,2.93-1.33,4.39-1.09,3.62-.11,8.34-2.74,11.27l-6.16.37-.5-6.54-5.91-.37-.25,6.17h-7.15l-.37-5.18q-7.16-.24-14.3-.62l.74,5.06-6.9.61-.37-4.8-3.7.49-.12,4.44c0,.24-5.51.5-6-.13-.74-.85,1.14-10.14.24-15.65-.67-4.15-5.35-5.72-8.77-7-6.13-2.28-13.25-6.53-16.13-12.73C173,494.05,172.07,492.77,173,491.38Z"/><path class="cls-1" d="M287.14,570.62l8.23.17v9.64l4.73-.18.35-7.88,9.11.09.08,8h7.1l.26-8.4h9.28l.61.44-.52,10,3-.09-.18-9.89,4.82-.09,3.68.35,1.4.17.78,12.44c3.38.35,8.91.54,12.26,1.05a31.05,31.05,0,0,1,15,7.09,18.11,18.11,0,0,1,6.39,10.51,86.48,86.48,0,0,1,.49,14.78,9.35,9.35,0,0,1-2.28,5.1,4.18,4.18,0,0,1-2.52,1.1c-1.35-.22.11-2.64.11-3.64s-.79-5-.79-5l-.26-.79-4.73.44a33.31,33.31,0,0,1-.57,5.1c-.85,3.09-3.29-1.27-3.87-2.24s-1.19-2-1.78-3c-.78,0-1.63-.07-2.4,0a46.8,46.8,0,0,0-5,.87s.27,4.81,0,5.34c-1,2.06-1.15,3.52-3.81,3.68-2.08.12-2.22-2.81-2.67-4.29l-.08-4.47-1.93-.26c.34,0-1.22,6.39-1.68,7-.85,1-3.2,2.81-4.33,1.36-.77-1-.85-2.73-.89-3.94,0-.41-.34-5.32-.19-5.35a50.37,50.37,0,0,1-20.46.25,39.43,39.43,0,0,1-17.11-8.4,37.23,37.23,0,0,1-5-5.9c-.5-.68-1-1.41-1.49-2.08-.82-1-1.88-1.28-3-1.83a9.67,9.67,0,0,1-3.36-2.45,17.73,17.73,0,0,1-2.83-4.7,6.57,6.57,0,0,0-.93-2.11c-.51-.61-1.26-1-1.75-1.6a6.77,6.77,0,0,1-1.39-2.52c-.65-3.05,2.66-1.33,3.43.23,0-.53-.8-5,1-3.38.45.39.51,1.46.64,2,.18.74-.14,1.28,0,2,.27-.76,1.91-3.52,2.62-1.55.53,1.5-1.38,2.65-1.56,3.86s1.17,3,1.83,3.89a7.75,7.75,0,0,0,4.56,2.68,16.9,16.9,0,0,1-.8-3.07,35.5,35.5,0,0,1-1.24-5.08c-.19-1.58-.23-3.2-.35-4.8C286.86,577.72,287.11,574.13,287.14,570.62Z"/><path class="cls-1" d="M413.64,760.1a4.3,4.3,0,0,1-3.76,1.25c-1.39-.51-2-2.75-2.78-3.84a14.25,14.25,0,0,0-4.54-3.73,8.82,8.82,0,0,0-6.9-1.18c-2,.61-3.41,2.87-5.09,4.08a60.48,60.48,0,0,1-25.17,10.43,38.81,38.81,0,0,1-7.91.42,29.24,29.24,0,0,1-12.63-3.33c-4.38-2.44-6.63-6.2-10-9.7-2.84-3-5.55-7.28-7.27-9.26-1.48-1.69-3.7-2.19-5.09-4.16-.35-.5-1.71-2.78-1.16-3.33.78-.79,2.87,1.9,3.53,2.12-.15-.93-1-3.38.5-3.85,1.75-.54,1.53,2.91,1.88,3.8.55-.74,1.65-2.84,2.32-1.48s-1.76,2.5-1.41,4.18c.3,1.4,1.74,2.43,2.62,3.47l3.09,3.7-1.22-6.17.74-7.52c.44-1.46.88-2.92,1.33-4.38,1.09-3.62.11-8.35,2.75-11.27l6.16-.36.49,6.53,5.92.37.25-6.16h7.15l.36,5.17q7.15.24,14.3.63l-.73-5,6.9-.62.37,4.81,3.7-.49.12-4.44c0-.24,5.5-.49,6,.13.74.86-1.15,10.14-.26,15.66.68,4.15,5.36,5.72,8.77,7,6.13,2.29,13.25,6.54,16.12,12.75C413.68,757.42,414.59,758.71,413.64,760.1Z"/><path class="cls-1" d="M498.31,792.15c.11-.19-3.62-3.48-3.9-3.76-.84-.8-1.67-1.62-2.52-2.42s-3-1-4.29-1c-1,0-2.51-.41-2.91-1.55a1.34,1.34,0,0,1,1.09-1.76,16,16,0,0,1,2.41,0s-.71-1.13-1-1.72c-.18-.35-1-2-.29-2.42s1.4.61,1.73.91a12.79,12.79,0,0,1,1.58,2.27,4.36,4.36,0,0,1,.61-2.53c1.59-2.21,1.49,2.76,1.42,3.69-.17,2.44,2.14,3.79,3.71,5.24l4,2.74a34.69,34.69,0,0,1,9.29-3.27,89.52,89.52,0,0,1,11.15-.71v-4.69l-2.13,1.15a12.81,12.81,0,0,1,.89-5.13,4.36,4.36,0,0,1,3.18-2.83l-3.89-4a3.38,3.38,0,0,1,1.68-.71,6.8,6.8,0,0,1,5.4,1.51,29.3,29.3,0,0,1-.71-4.6,9.52,9.52,0,0,1,.62-3.72l2,2.83a10.53,10.53,0,0,1,6.45-4.51c4.78-1.32,11.31.49,13.63,1.24a79.07,79.07,0,0,1,9,4.42l-2.3.89c.54-.21,3.43,3,3.82,3.45,4.19,4.53,4.83,9.57,4.45,15.49-.1,1.43-.31,2.89-.31,4.32s-2.12-1.24-2.12-1.24.53,5.14.53,7.08a20.8,20.8,0,0,1-.53,4.42c-.18.8-3-2.47-3-2.47s1.24,8,1,8.22-3.59-2.21-3.71-2.29c.33.24.17,2.69.2,3.16a18.85,18.85,0,0,1,.12,3.52c-1.07.31-.85-3.53-2.77-3.2-1.76.31.25,7.42.41,8.6.35,2.63.71,5.26,1.06,7.91a3.6,3.6,0,0,1-3,3.53c-3.19.89-4.52-3.27-4.52-3.27q-.51-3.69-1-7.38c-.22-1.56-.44-3.13-.65-4.69-.06-.44,0-1.23-.37-1.55-.65-.62-2.32-.23-3.08-.17-1.72.13-1.84.88-1.87,2.5,0,2.35.07,4.7.1,7l.06,4.84a3.82,3.82,0,0,1-3.6,3.84,4.3,4.3,0,0,1-1.34,0,3.14,3.14,0,0,1-2.62-3.63,86,86,0,0,0-.32-10.5c-.1-1-.34-2.42-1.36-2.92-1.39-.68-3.34-.16-4.84-.28-2.06-.17-4-.16-6-.13-1.49,0-3,.2-3.1,2a45,45,0,0,0,.22,4.78c.07,1.51.62,7.46,0,8.73a4.51,4.51,0,0,1-2.22,2.71,4.7,4.7,0,0,1-4.89-1c-1.8-2.23-1.07-5.57-1.07-8.19v-7c0-1.61-1.12-2.41-2.52-2.77s-2.72-.08-2.86,1.52c-.22,2.67-.43,5.34-.65,8A22,22,0,0,1,501,826c-.38,1.16-.55,2.77-1.81,3.31s-3.59.06-4.82-.59a3.14,3.14,0,0,1-1.56-2.94c0-1.34,0-2.68,0-4,0-5.62.48-21.36,4.28-27.38Z"/><path class="cls-1" d="M819.7,455.63c-.11-.19,3.62-3.49,3.91-3.76.83-.81,1.66-1.62,2.51-2.42s3-1,4.29-1c1,0,2.52-.41,2.91-1.56a1.35,1.35,0,0,0-1.09-1.76,17.3,17.3,0,0,0-2.4,0s.71-1.13,1-1.72c.18-.35,1-2,.29-2.41s-1.4.6-1.73.9a12.66,12.66,0,0,0-1.57,2.28,4.41,4.41,0,0,0-.62-2.54c-1.59-2.21-1.49,2.76-1.42,3.7.17,2.44-2.13,3.79-3.71,5.24l-4,2.74a34.31,34.31,0,0,0-9.29-3.27,89.4,89.4,0,0,0-11.14-.71v-4.69l2.12,1.15a12.59,12.59,0,0,0-.89-5.13,4.34,4.34,0,0,0-3.18-2.83l3.89-4a3.38,3.38,0,0,0-1.68-.71,6.85,6.85,0,0,0-5.4,1.5,29.07,29.07,0,0,0,.71-4.6,9.5,9.5,0,0,0-.62-3.71l-1.94,2.83a10.49,10.49,0,0,0-6.46-4.51c-4.78-1.33-11.31.49-13.62,1.24-2.75.88-9,4.42-9,4.42l2.3.88c-.54-.2-3.43,3-3.82,3.45-4.18,4.53-4.83,9.58-4.44,15.49.09,1.43.3,2.9.3,4.33s2.13-1.24,2.13-1.24-.53,5.13-.53,7.08a20.34,20.34,0,0,0,.53,4.42c.17.8,3-2.48,3-2.48s-1.23,8-1,8.23,3.6-2.21,3.71-2.3c-.32.24-.16,2.7-.2,3.17a18.74,18.74,0,0,0-.12,3.51c1.07.31.86-3.52,2.77-3.19s-.25,7.42-.4,8.59q-.54,3.94-1.07,7.91s-.18,2.65,3,3.54,4.51-3.27,4.51-3.27l1-7.38c.21-1.57.43-3.13.65-4.69.06-.44,0-1.24.37-1.55.64-.62,2.32-.23,3.08-.17,1.71.12,1.83.87,1.86,2.5,0,2.34-.07,4.69-.1,7l-.06,4.83a3.81,3.81,0,0,0,3.61,3.84,4.24,4.24,0,0,0,1.33,0,3.13,3.13,0,0,0,2.62-3.64,90.42,90.42,0,0,1,.32-10.5c.1-1,.34-2.41,1.36-2.91,1.39-.69,3.35-.17,4.84-.29,2.06-.16,4-.15,6-.13,1.49,0,3,.2,3.1,2a42.77,42.77,0,0,1-.22,4.79c-.06,1.5-.62,7.46,0,8.72s1,2.12,2.22,2.71a4.68,4.68,0,0,0,4.89-1c1.8-2.23,1.08-5.57,1.08-8.2v-7c0-1.62,1.12-2.42,2.52-2.78s2.72-.07,2.85,1.53c.22,2.66.43,5.34.65,8a21.87,21.87,0,0,0,.75,5.23c.39,1.17.55,2.78,1.82,3.31s3.59.06,4.81-.58a3.17,3.17,0,0,0,1.57-2.94c0-1.35,0-2.69,0-4,0-5.63-.48-21.36-4.28-27.38Z"/><path class="cls-1" d="M650.8,746.82l-.42,2.3h2.21a22.94,22.94,0,0,1,2.73-2.21,4.37,4.37,0,0,1,1.88-.63,1.6,1.6,0,0,1,1.43,2.14l-1.6,3.85s-.15,5.66-.15,5.68a48.5,48.5,0,0,0,.5,5.37l.66,7.18c.22,2.37.39,4.75.67,7.11.53,4.55,1.21,9.08,1.82,13.62l2,7.29,2.79,3.94,5.59,3.29a84.3,84.3,0,0,1,9,3.75,20.94,20.94,0,0,1,5.65,3.57,27.44,27.44,0,0,1,4,5.41c2.23,3.67,2.84,7.82,2.79,12.06,0,1.78-.07,3.56-.1,5.34,0,.42,0,.84,0,1.26,0,1.94.12,3.89.14,5.83a2.16,2.16,0,0,1-1.74,2.29c-.94.33-2.55.52-3-.64l-.57-5.1c0-.88.27-2.13-.34-2.84s-2.53-1.17-3.13-.51c-.46.49-.1,2.2-.11,2.9,0,1.15,0,2.31-.08,3.47a5.65,5.65,0,0,1-.19,1.94c-.27.49-.47.39-1.1.33-.84-.08-2.81-.1-2.94-1-.33-2.3.13-4.38,0-5.84-.16-1.8-.18-4-1.81-5a7,7,0,0,0-3.61-.74,56.19,56.19,0,0,1-10.85-.08c-1-.08-2.42,1.74-2.79,2.51a6.7,6.7,0,0,0-.5,4.06,7.09,7.09,0,0,1-.28,4.72c-.77,1.54-4,1.29-5.06.21-.33-.33-.58-3.94-.58-4.27s-.08-4.59-.08-4.68c0-1.18-1.28-1.46-2.23-1.19a1.74,1.74,0,0,0-1.38,2.09c.08.9,0,5.75,0,5.75-.58,1-.58,2.15-2,2.32a4.45,4.45,0,0,1-3-.92s-1-.74-1-1.23-.41-21.12-.41-21.12c-.15-7.29.52-14.56.7-21.84.13-5,.3-9.95.43-14.93,0-1.17,0-2.34.1-3.5l.82-15-3.37,1.4c-1.82.62-4.43,1.43-6.36,1.08-2.28-.41-5.77-1.07-7-3.29s-1.47-6.39.53-8.48c2.84-2.94,6.3-5,9.7-7.23a15.32,15.32,0,0,1-.45-3.33c.2-2.28,3-1.6,3.9.46.12.27,1.07,1.56,1.07,1.56l1.48-.17.16-1.48h1s-.1,2.17-.08,2.31c.08.57,2.13.82,2.38.57a7.64,7.64,0,0,0,1-2.14Z"/><path class="cls-1" d="M647.67,743.53a1.89,1.89,0,1,1-1.89-2A1.93,1.93,0,0,1,647.67,743.53Z"/><path class="cls-1" d="M653.1,745a1.89,1.89,0,1,1-1.89-2A1.93,1.93,0,0,1,653.1,745Z"/><path class="cls-1" d="M694.35,826a31.57,31.57,0,0,1-2.47-2.31"/><path class="cls-2" d="M696.24,828.17c-.4.65-.61,2.35.58,2.39s.77-2.21-.09-2.55"/><path class="cls-2" d="M697.39,826.37c-.06,1.46,3.2,1,2.3-.43C699.17,825.11,697.44,825.26,697.39,826.37Z"/><path class="cls-2" d="M697.57,827.86c-.53,1.13,1.17,2.06,2.12,1.87,1.47-.3,1-2.09-.23-2.42C698.83,827.15,697.89,827.19,697.57,827.86Z"/><path class="cls-2" d="M697.06,826a5.12,5.12,0,0,1-2.46,0"/><path class="cls-2" d="M696.24,828.42c.1-.48-1.14-2-1.64-2.3"/><path class="cls-1" d="M696.24,828.09c-.76-.76-2.93-2.42-3.62-3.29"/><path class="cls-1" d="M658.57,654.3c-.11-.19,3.62-3.49,3.9-3.76.84-.81,1.67-1.63,2.51-2.42s3-1,4.29-1c1,0,2.52-.42,2.92-1.56a1.36,1.36,0,0,0-1.09-1.76,17.46,17.46,0,0,0-2.41,0s.71-1.13,1-1.72c.19-.35,1-2,.29-2.41s-1.39.6-1.72.9a12.64,12.64,0,0,0-1.58,2.27,4.38,4.38,0,0,0-.61-2.53c-1.6-2.21-1.49,2.76-1.42,3.7.17,2.44-2.14,3.79-3.71,5.24L657,652a34.54,34.54,0,0,0-9.29-3.28,90.78,90.78,0,0,0-11.15-.7v-4.69l2.12,1.15a12.68,12.68,0,0,0-.88-5.13,4.34,4.34,0,0,0-3.19-2.83l3.9-4a3.41,3.41,0,0,0-1.68-.71,6.8,6.8,0,0,0-5.4,1.5,29.07,29.07,0,0,0,.71-4.6,9.5,9.5,0,0,0-.62-3.71l-2,2.83a10.49,10.49,0,0,0-6.45-4.51c-4.78-1.33-11.32.49-13.63,1.24-2.74.88-9,4.42-9,4.42l2.3.88c-.54-.21-3.43,3-3.83,3.45-4.18,4.53-4.83,9.57-4.44,15.49.09,1.43.31,2.9.31,4.33s2.12-1.24,2.12-1.24-.53,5.13-.53,7.08a20.34,20.34,0,0,0,.53,4.42c.18.8,3-2.48,3-2.48s-1.24,8-1,8.23,3.59-2.21,3.71-2.3c-.33.24-.17,2.7-.2,3.17a17.93,17.93,0,0,0-.12,3.51c1.06.31.85-3.52,2.77-3.19,1.76.31-.25,7.42-.41,8.59q-.53,3.94-1.07,7.91a3.63,3.63,0,0,0,3,3.54c3.19.88,4.51-3.27,4.51-3.27l1-7.38c.22-1.57.43-3.13.65-4.69.06-.44,0-1.24.37-1.55.65-.62,2.32-.23,3.08-.17,1.72.12,1.84.87,1.86,2.5,0,2.34-.06,4.69-.09,7L618,687.7a3.81,3.81,0,0,0,3.6,3.84,4.3,4.3,0,0,0,1.34,0,3.13,3.13,0,0,0,2.61-3.64,88.08,88.08,0,0,1,.33-10.5c.09-1,.34-2.41,1.35-2.91,1.4-.69,3.35-.17,4.84-.29,2.06-.17,4-.15,6-.13,1.5,0,3,.2,3.11,2,.09,1.56-.15,3.22-.22,4.79s-.62,7.46,0,8.72a4.5,4.5,0,0,0,2.21,2.71,4.68,4.68,0,0,0,4.9-1c1.8-2.22,1.07-5.56,1.07-8.19v-7c0-1.62,1.12-2.42,2.52-2.78s2.72-.07,2.86,1.53q.33,4,.64,8a22.39,22.39,0,0,0,.76,5.23c.38,1.17.54,2.78,1.81,3.31s3.59.06,4.81-.58a3.15,3.15,0,0,0,1.57-2.94c0-1.35,0-2.69,0-4,0-5.63-.48-21.37-4.28-27.38Z"/><path class="cls-3" d="M512,570.75l.46-2.43h-2.34a22,22,0,0,1-2.9,2.3,4.56,4.56,0,0,1-2,.66,1.7,1.7,0,0,1-1.49-2.29l1.73-4s.21-6,.21-6a47.11,47.11,0,0,0-.47-5.68c-.21-2.53-.41-5.06-.62-7.59s-.36-5-.63-7.51c-.52-4.81-1.19-9.61-1.79-14.41L500.13,516l-2.91-4.19-5.87-3.53a87.86,87.86,0,0,1-9.47-4.06,22.14,22.14,0,0,1-5.94-3.83,29.33,29.33,0,0,1-4.21-5.74c-2.32-3.91-2.92-8.3-2.82-12.77,0-1.89.11-3.76.16-5.65,0-.44,0-.88,0-1.33,0-2.05-.09-4.1-.09-6.16a2.27,2.27,0,0,1,1.86-2.39c1-.35,2.7-.53,3.17.7l.55,5.39c0,.93-.31,2.24.33,3,.53.62,2.66,1.25,3.31.57.48-.52.12-2.33.14-3.06l.12-3.67a5.8,5.8,0,0,1,.22-2.05c.29-.51.5-.41,1.16-.34.89.1,3,.14,3.1,1.1.32,2.44-.18,4.63-.06,6.17.16,1.9.15,4.22,1.86,5.31a7.37,7.37,0,0,0,3.81.82,59.31,59.31,0,0,1,11.46.2c1,.09,2.57-1.81,3-2.63a7,7,0,0,0,.57-4.28,7.57,7.57,0,0,1,.34-5c.84-1.61,4.24-1.32,5.35-.17.34.36.57,4.17.56,4.52s0,4.85,0,4.95c0,1.24,1.35,1.55,2.35,1.27A1.83,1.83,0,0,0,513.7,477c-.08-1,.06-6.08.06-6.08.62-1.08.63-2.26,2.12-2.42a4.66,4.66,0,0,1,3.1,1s1,.79,1,1.31.22,22.31.22,22.31c.08,7.7-.7,15.38-1,23.06-.18,5.26-.41,10.51-.6,15.77,0,1.23,0,2.47-.14,3.69l-1,15.88,3.57-1.44c1.94-.64,4.7-1.47,6.73-1.08,2.41.46,6.09,1.19,7.36,3.55s1.48,6.76-.65,8.94c-3,3.09-6.7,5.24-10.32,7.54a15.94,15.94,0,0,1,.44,3.53c-.23,2.41-3.18,1.66-4.11-.52-.13-.29-1.12-1.66-1.12-1.66l-1.56.16-.19,1.56h-1s.13-2.29.11-2.43c-.08-.61-2.25-.89-2.51-.64a8.2,8.2,0,0,0-1.07,2.25Z"/><path class="cls-3" d="M515.29,574.25a2,2,0,1,1,2,2.11A2,2,0,0,1,515.29,574.25Z"/><path class="cls-3" d="M509.57,572.64a2.05,2.05,0,0,1,2-2.07,2.09,2.09,0,1,1-2,2.07Z"/><path class="cls-3" d="M466.82,486.72a33,33,0,0,1,2.58,2.45"/><path class="cls-4" d="M464.84,484.35c.44-.68.68-2.46-.58-2.52s-.84,2.33.06,2.69"/><path class="cls-4" d="M463.61,486.25c.08-1.54-3.37-1.12-2.44.42C461.72,487.56,463.55,487.42,463.61,486.25Z"/><path class="cls-4" d="M463.43,484.67c.58-1.19-1.21-2.19-2.21-2-1.56.3-1.1,2.21.22,2.56C462.09,485.41,463.09,485.38,463.43,484.67Z"/><path class="cls-4" d="M464,486.69a5.36,5.36,0,0,1,2.61,0"/><path class="cls-4" d="M464.85,484.09c-.12.51,1.19,2.09,1.71,2.45"/><path class="cls-3" d="M464.84,484.44c.79.82,3.07,2.59,3.79,3.51"/><path class="cls-5" d="M462.73,602.73l-.48,2.68h2.57a25.08,25.08,0,0,1,3.17-2.57,5.06,5.06,0,0,1,2.18-.74,1.88,1.88,0,0,1,1.67,2.5c0,.06-1.86,4.47-1.86,4.47s-.17,6.58-.17,6.61a52.59,52.59,0,0,0,.57,6.25c.26,2.78.52,5.57.77,8.35s.45,5.52.78,8.27c.61,5.29,1.41,10.56,2.11,15.84l2.35,8.48,3.25,4.58,6.5,3.83a98,98,0,0,1,10.48,4.36c2.39,1.22,4.64,2.24,6.58,4.16a32.42,32.42,0,0,1,4.69,6.28c2.59,4.28,3.31,9.1,3.25,14,0,2.07-.09,4.14-.12,6.22,0,.48,0,1,0,1.46.05,2.26.14,4.52.16,6.78a2.5,2.5,0,0,1-2,2.66c-1.09.39-3,.61-3.5-.74l-.67-5.93c0-1,.32-2.47-.39-3.31-.58-.68-2.94-1.35-3.64-.59-.53.58-.11,2.57-.13,3.37l-.09,4a6.5,6.5,0,0,1-.22,2.26c-.32.56-.55.46-1.28.38-1-.09-3.27-.11-3.42-1.17-.39-2.68.15-5.1,0-6.79-.19-2.1-.21-4.65-2.11-5.83a8.09,8.09,0,0,0-4.2-.86,65.69,65.69,0,0,1-12.62-.1c-1.15-.1-2.82,2-3.24,2.92a7.78,7.78,0,0,0-.58,4.72,8.31,8.31,0,0,1-.33,5.5c-.9,1.78-4.65,1.49-5.89.24-.38-.38-.66-4.58-.66-5s-.1-5.33-.1-5.44c0-1.38-1.5-1.7-2.6-1.38a2,2,0,0,0-1.61,2.43c.1,1,0,6.69,0,6.69-.66,1.2-.66,2.5-2.3,2.69a5.13,5.13,0,0,1-3.43-1.07s-1.15-.86-1.15-1.43-.48-24.57-.48-24.57c-.16-8.47.62-16.93.83-25.4.14-5.79.34-11.57.49-17.36,0-1.36,0-2.72.12-4.08l.95-17.49L453,625.58c-2.12.72-5.15,1.67-7.39,1.26-2.66-.48-6.72-1.25-8.14-3.83-1.52-2.75-1.71-7.43.62-9.86,3.3-3.43,7.32-5.84,11.28-8.41a17.39,17.39,0,0,1-.52-3.88c.23-2.65,3.49-1.86,4.54.53.14.32,1.24,1.82,1.24,1.82l1.72-.19.19-1.72h1.15s-.12,2.52-.1,2.68c.1.66,2.49.95,2.77.66a8.83,8.83,0,0,0,1.15-2.48Z"/><path class="cls-5" d="M459.09,598.91a2.2,2.2,0,1,1-2.2-2.3A2.24,2.24,0,0,1,459.09,598.91Z"/><path class="cls-5" d="M465.4,600.63a2.2,2.2,0,1,1-2.2-2.29A2.24,2.24,0,0,1,465.4,600.63Z"/><path class="cls-5" d="M513.39,694.78a38,38,0,0,1-2.87-2.67"/><path class="cls-6" d="M515.58,697.36c-.47.76-.71,2.73.67,2.77s.91-2.57-.09-3"/><path class="cls-6" d="M516.92,695.26c-.07,1.7,3.72,1.2,2.68-.49C519,693.79,517,694,516.92,695.26Z"/><path class="cls-6" d="M517.13,697c-.62,1.32,1.36,2.4,2.46,2.18,1.71-.35,1.19-2.44-.26-2.82C518.6,696.17,517.51,696.22,517.13,697Z"/><path class="cls-6" d="M516.54,694.78a5.81,5.81,0,0,1-2.87,0"/><path class="cls-6" d="M515.58,697.65c.12-.56-1.33-2.29-1.91-2.68"/><path class="cls-5" d="M515.58,697.27c-.88-.89-3.4-2.82-4.2-3.83"/><path class="cls-1" d="M592.32,491.38a4.3,4.3,0,0,1,3.76-1.26c1.4.51,2,2.75,2.78,3.84a14.4,14.4,0,0,0,4.55,3.73,8.86,8.86,0,0,0,6.9,1.17c2-.61,3.4-2.87,5.09-4.08a60.55,60.55,0,0,1,25.16-10.45,38.82,38.82,0,0,1,7.91-.43,29.24,29.24,0,0,1,12.63,3.33c4.38,2.43,6.64,6.19,10,9.69,2.84,3,5.55,7.28,7.28,9.25,1.47,1.69,3.69,2.19,5.09,4.16.35.5,1.71,2.78,1.16,3.33-.78.79-2.87-1.9-3.53-2.12.15.93,1,3.38-.5,3.85-1.74.54-1.53-2.9-1.89-3.79-.54.73-1.64,2.83-2.31,1.47s1.76-2.5,1.4-4.18c-.29-1.4-1.74-2.43-2.61-3.47l-3.1-3.69,1.23,6.16-.74,7.52-1.32,4.39c-1.09,3.62-.11,8.34-2.75,11.27l-6.16.37-.49-6.54-5.92-.37-.25,6.17h-7.14l-.37-5.18q-7.17-.24-14.3-.62l.74,5.06-6.91.61-.37-4.8-3.7.49-.12,4.44c0,.24-5.5.5-6-.13-.74-.85,1.15-10.14.25-15.65-.68-4.15-5.36-5.72-8.78-7-6.13-2.28-13.25-6.53-16.12-12.73C592.29,494.05,591.37,492.77,592.32,491.38Z"/><path class="cls-1" d="M706.44,570.62l8.23.17v9.64l4.73-.18.35-7.88,9.11.09.09,8H736l.26-8.4h9.29l.61.44-.53,10,3-.09-.17-9.89,4.81-.09,3.68.35,1.4.17.79,12.44c3.37.35,8.91.54,12.26,1.05a31.06,31.06,0,0,1,15,7.09,18.08,18.08,0,0,1,6.4,10.51,87.52,87.52,0,0,1,.49,14.78A9.42,9.42,0,0,1,791,624a4.21,4.21,0,0,1-2.53,1.1c-1.35-.22.11-2.64.11-3.64s-.78-5-.78-5l-.27-.79-4.73.44a34.6,34.6,0,0,1-.56,5.1c-.86,3.09-3.3-1.27-3.87-2.24s-1.19-2-1.78-3c-.79,0-1.64-.07-2.41,0a47.07,47.07,0,0,0-4.95.87s.26,4.81,0,5.34c-1,2.06-1.15,3.52-3.81,3.68-2.08.12-2.23-2.81-2.67-4.29l-.09-4.47-1.92-.26c.33,0-1.22,6.39-1.69,7-.84,1-3.19,2.81-4.32,1.36-.78-1-.86-2.73-.9-3.94,0-.41-.33-5.32-.19-5.35a50.34,50.34,0,0,1-20.46.25,39.54,39.54,0,0,1-17.11-8.4,37.7,37.7,0,0,1-5-5.9c-.51-.68-1-1.41-1.5-2.08-.81-1-1.88-1.28-3-1.83a9.77,9.77,0,0,1-3.36-2.45,17.69,17.69,0,0,1-2.82-4.7,6.57,6.57,0,0,0-.93-2.11c-.52-.61-1.26-1-1.75-1.6a6.63,6.63,0,0,1-1.39-2.52c-.66-3.05,2.66-1.33,3.43.23-.05-.53-.8-5,1-3.38.45.39.5,1.46.63,2,.18.74-.13,1.28,0,2,.27-.76,1.9-3.52,2.61-1.55.54,1.5-1.38,2.65-1.56,3.86s1.17,3,1.84,3.89a7.72,7.72,0,0,0,4.56,2.68c-.24-.06-.72-2.76-.8-3.07a35.53,35.53,0,0,1-1.25-5.08c-.19-1.58-.23-3.2-.34-4.8C706.16,577.72,706.41,574.13,706.44,570.62Z"/><path class="cls-1" d="M833,760.1a4.31,4.31,0,0,1-3.76,1.25c-1.4-.51-2-2.75-2.78-3.84a14.36,14.36,0,0,0-4.54-3.73A8.84,8.84,0,0,0,815,752.6c-2,.61-3.4,2.87-5.08,4.08a60.46,60.46,0,0,1-25.18,10.43,38.77,38.77,0,0,1-7.91.42,29.28,29.28,0,0,1-12.63-3.33c-4.37-2.44-6.63-6.2-10-9.7-2.83-3-5.54-7.28-7.26-9.26-1.48-1.69-3.7-2.19-5.09-4.16-.35-.5-1.71-2.78-1.17-3.33.79-.79,2.88,1.9,3.53,2.12-.14-.93-1-3.38.51-3.85,1.74-.54,1.53,2.91,1.88,3.8.55-.74,1.65-2.84,2.31-1.48s-1.76,2.5-1.4,4.18c.29,1.4,1.74,2.43,2.61,3.47,1,1.23,2.07,2.46,3.1,3.7L752,743.52l.74-7.52c.45-1.46.89-2.92,1.33-4.38,1.09-3.62.12-8.35,2.75-11.27L763,720l.49,6.53,5.91.37.25-6.16h7.15l.37,5.17q7.15.24,14.3.63l-.74-5,6.91-.62.36,4.81,3.7-.49.13-4.44c0-.24,5.5-.49,6,.13.74.86-1.15,10.14-.26,15.66.67,4.15,5.35,5.72,8.77,7,6.13,2.29,13.25,6.54,16.12,12.75C833,757.42,833.9,758.71,833,760.1Z"/></g></svg>