<svg id="Capa_1" data-name="Capa 1" xmlns="http://www.w3.org/2000/svg" viewBox="0 0 850.39 850.39"><defs><style>.cls-1{fill:#1d1d1b;fill-rule:evenodd;}</style></defs><path class="cls-1" d="M256.85,153a20.77,20.77,0,0,0,3.67-1.42c3-1.29,1.77-3.45,3-4.62,1.41-1.32.52-.39,1.15-1.72s1-1.3,1.08-2.13a16.87,16.87,0,0,0,0-2.16c0-2.15.55-.6.7-2.48.11-1.41-.43-3.13-1.76-5.55a6,6,0,0,0-2.33-2.34c-1.32-.82-2.69-.1-4,.21-1,.25-2,0-2.9.72-1.57,1.38-1.59,2.66-1.91,4.62a25.78,25.78,0,0,0-.4,4.76c0,3.16.41,1.06.27,4.27a7.08,7.08,0,0,0,1.05,4.4c1.28,1.88-.06,2.37,2.3,3.44"/><path class="cls-1" d="M199.35,214.9c-.07.9.34,3.47.33,6.4,0,5.3,1.64,10.82,3.86,10.82,1.61-.4,1.17-.51,2.61-1.11,1.7-.72,2.75,2.11,6.24-3.76.58-1.88,1.52-1.52,1.28-4.14-.12-1.29-1-4.34-.82-5.37.5-2.88.67-4.37,0-6.11a6.5,6.5,0,0,0-2.07-3.42c-2.22-2,0-3.79-3-5.14-1.25-.55-2.37-.74-2.8-.43a3.65,3.65,0,0,1-2.49.94c-2.44-.09-2.63,3-3.29,7.59-.15,1.1.26,2.45.12,3.73"/><path class="cls-1" d="M11.78,170.06c0,3.56-.64,4.83-.89,8-.19,2.43.39,3.53.41,5.85l1,1.13c.46,2.44,2,2,3.55,2.29,1,.21,3.33,2.43,5.21.87,1.34-1.12.78-1.64,2.06-2.8,2-.92,1.4-.91,1.65-1.7a7,7,0,0,0,.12-3.95c-.65-2.89,1-6.69-.53-9.69a6.92,6.92,0,0,0-2.08-2.63c-.7-.46-1.56,0-2.62-.32-2.69-.91-4.05-1.9-5.37-1.45-.67.24-1.34,1.34-2.18,2-1.38,1.13-.33,1-.33,2.35"/><path class="cls-1" d="M120.92,198.76c1.75.93,2.64.57,4.85.62.71,0,.72,1.13,2.15.89.81-.13,1.4-2.35,2.35-5a27.17,27.17,0,0,0,.08-5.39c-.1-4.09-.91-5.25-2.28-7.23a1.11,1.11,0,0,0-.78-.32c-.67-.1.28-.12-.82-.38s-2.25-1.36-3.09-1.22c-5.78,1-4.13,7.15-4.12,10.62,0,3.14-.4,5,1.66,7.37"/><path class="cls-1" d="M157.37,27.66c2,0,4.42,1,5.81-1.22s-.22-1.23.89-5.86c.34-1.39,1-2.12,1.2-2.93a24.1,24.1,0,0,0-.09-3.53c0-1.46.65-1.07.65-2.87,0-1.45.2-1.12-1.49-2.77-.38-.38-.14-.79-.43-1.19-.5-.69-.2-1.13-.9-1.79-1.17-1.1-1.86-.41-4.24-.75-2.55.22-4.7,1.45-5.16,3-.66,2.17-.62,4.88-.74,7.29a76.74,76.74,0,0,0,.31,7.78c.1,1.63.54,4.88,4.19,4.88"/><path class="cls-1" d="M396.22,414.66c0,1.71.39,7.89,2.29,8.57a2.42,2.42,0,0,1,1.06.37c.78.43,1.63,1.4,3,1.43.71,0,1.48-.59,2.3-.83.64-.19,1.63,0,2.32-.36,1.44-5.58-.16-11.6-.24-16.3s.36-1.47-.93-5.37a4.73,4.73,0,0,0-3.1-2.65c-.64-.2-1.31.45-2,.52-.81.08-1.6-.34-2.25.27-1.06,1-1.78,2.74-1.77,5.58s-.74,6-.74,8.77"/><path class="cls-1" d="M219.7,54l-.11,1.89c.28,1.37-.29,2.38-.3,4,0,7.35,1.17,6.12,3.5,7,2,.76,2.91,1.24,4.74.67s4.43-2,3.9-3.63c-2-6.22-.4-2.52-.38-5.61a8.41,8.41,0,0,1,0-1.23c.13-.82,1-1.26-.34-3.5-.35-.6-1.32-1.37-1.32-1.91,0-1.55,1.62-1.75-3.39-3.44-3.27-1.09-5.41,0-6.63,2.12-.53.94.32,2.21.32,3.6"/><path class="cls-1" d="M45.31,94.63c1.31-.21,1.79-.47,3-.73s2.27.6,3.46.31a5.13,5.13,0,0,0,2-3.7L53.84,87l.59-1a8.52,8.52,0,0,0-.2-3.88c-.13-.57-.21-.69-.46-1.69s-.3-2.14-.63-3.28c-.69-2.46-1.21-3.82-2.49-5.24-.49-.22-.42-.45-.71-.43a8.8,8.8,0,0,1-2.3.11c-2-.32-3-.47-3.51,0a5.21,5.21,0,0,0-1.28,3.72c0,1.94-.71,3.56-.7,5.49-.28,3.88-.44,4.36.13,8.23L42.51,92c.14,1.52,1.11,2,2.8,2.65"/><path class="cls-1" d="M86.7,136.14l.18,6.75c0,1.22,1,4.87,3.12,4.89a9.81,9.81,0,0,1,1.76-.09c1.3.19,2,.83,3.28.94,1.64.15,4-2.27,4-3.91-.36-2.44.16-.68.17-2.18a31.22,31.22,0,0,1,.46-3.58c.13-1.3-1.09-2.35-.59-3.68.79-2.08,2.13-5.56-.18-7.78-.65-.63-1.59-.36-2.92-.72s-3.85-2.7-6.65-1.18c-.63.34-.92,1.87-1.36,3.67a51.64,51.64,0,0,0-1.32,6.87"/><path class="cls-1" d="M372.2,110.38c.17,6.17-.78,7.55-.79,14.94,0,2.07,2.11,6.64,3.48,8.2,4.68,0,2.16-1,4.64-1.47.64-.13,1.37,0,2.92-.06,2.55-.14,2.52-2.19,2.41-4.33-.09-1.62,1-3.31.57-4.26-2.09-4.85.12-.72-1.37-7.29-.77-3.41.11-6.43-2.38-8.49a3.86,3.86,0,0,0-2.52-1.07c-.9.13-1.8,1.3-2.66,1.32a15.5,15.5,0,0,0-2.51-.14,2.11,2.11,0,0,0-1.79,2.65"/><path class="cls-1" d="M107.26,343.23c2.46-1.14,2.61.21,4,.84,2.51,1.14,4.54-2.79,5-4a21.61,21.61,0,0,0,1.73-7.76c.12-3.21-1.25-3.69-1.55-6.49a19.23,19.23,0,0,0-1.46-4.65c-.08-.14-4.21-2.65-4.29-2.7-1.54-.88-2.9.09-3.92,1.22-.87,1-1.5,1.3-1.8,2.13-.6,1.69-.05,4.84.16,9.87.27,6.28.2,10.61,2.09,11.58"/><path class="cls-1" d="M242.92,416.92c3.16.49.76.06,5-.73,2.27-.68,3.06.72,3.78-1.6a6.16,6.16,0,0,1,.29-2.87c.44-1.45,1.52-2,1.57-3.91.07-2.43-1-4.77-1.27-7.14a14.23,14.23,0,0,1,.41-4.42,9.65,9.65,0,0,0-.56-3.27c-.41-1.51-2.44-2.91-4.39-2.91-.73,0-1.5.74-2.26.84-1.46.19-2.32.3-3.16,1.14a5.12,5.12,0,0,0-1.52,3.48c0,1.81.16,5.39-.26,7.19a18.26,18.26,0,0,0-1,5.3c0,2.22,1.15,4.45,1.19,5.55.07,2,.7,2.14,2.19,3.35"/><path class="cls-1" d="M96.68,34.94l.68,7.58-.42,8.39c.53,4.79,1.14,3.43,1.87,5.74,1.23.51,2.46-.24,4-.94.77-.34,2.62.65,3.54.24a2.89,2.89,0,0,0,1-1c1.15-7.15,1.66-5,1.68-9.7a25,25,0,0,0-.52-6.84c-.48-2.24-.63-7.24-3.17-8.83-.63-.39-1.44-.08-2.67-.08-1.61,0-2.92-.91-3.9.06a9.41,9.41,0,0,0-2.15,5.37"/><path class="cls-1" d="M171.53,126c0,2.41-.68,6.47-.24,9.5.11.77.51.47.77,1a2.9,2.9,0,0,0,1.74,1c.8.11,1.42-.3,2.33-.31s1.39.65,2.18,1a1.92,1.92,0,0,0,2.25-.31,9.76,9.76,0,0,0,1.78-5.46c0-1.21-.63-4.33-.8-6a26,26,0,0,1,0-4.2c0-2.23.67-3.93-1.26-5.42a6.71,6.71,0,0,0-2.13-1.39c-.61-.14-1,.58-1.55.53-1.11-.11-2.15-.8-3-.21a4.7,4.7,0,0,0-2.2,3.8c-.08,2,.15,4.38.15,6.46"/><path class="cls-1" d="M57.53,381c0,1.29.46.65.46,1.79l-.46,4.69c0,2.16.61,2.54.13,5.2-.36,2,.11,7,.25,8.6,2,7.2,7.7,2.41,9.07,1.94,3-1,2.11-3.88,2.11-6.83,0-2.52.24-5.16.41-7.25s-1.42-5.33-3.18-7.84c-.89-1.27-.9-2.31-2.08-2.82-2.55-1.1-6.71.49-6.71,2.52"/><path class="cls-1" d="M267.09,260.08c0,1.42,2.21,2.55,4.18,2.8,1.58-.6.34-.68,2.39-.92a4.7,4.7,0,0,0,3.89-3.57c.28-1-.1.24-.1-3.63A21.46,21.46,0,0,1,278,252c.75-3.93,4-7.23-1.56-11-1.64-1.12-1.18.44-3.62-.19a4.82,4.82,0,0,0-2.37-.06,3.62,3.62,0,0,0-3,3.86c.13,1.11-.19,1.29-.5,2.45,0,2.73.58,5.46.61,8.2,0,1.75-.48,3-.46,4.79"/><path class="cls-1" d="M295.78,352.32c0,4.14-.89,4.6-.29,8.62.46,3-.43,7.77,2.56,9.14,1,.47,1.67.29,4.14-.54,1.36-.21.4.08,1.68.15,1.49.08,2.26-2.32,1.73-5.53-.93-5.54-.05-2.06-.05-7.05,0-1.07-.33-.93-.3-1.67a6,6,0,0,0,.17-1.67c-.21-1.44.12-3.3-.36-5.08a2.89,2.89,0,0,0-.85-1.29,4.74,4.74,0,0,0-1.68-1.54c-.77-.3-1.77.44-3,.44a3.37,3.37,0,0,0-2.4.84c-1.41,1.17-1.32,3.39-1.32,5.18"/><path class="cls-1" d="M410.61,64.19c1.07-.47,1.33-1.1,2.11-1.23,1.86-.28,1.85.07,3.63.64.74.23,1.28-1.87,1.5-3.17.18-1.11.11-1.21.66-4.84a29.71,29.71,0,0,0,.42-3.33c0-2.18-.84-2.21-.84-6.94,0-1.43.57-1.39-.12-2-.29-.26-.81-1.29-1.71-1.53-.71-.2-1.39.28-2.15.27-.57,0-1.2-.62-1.86-.54a3.93,3.93,0,0,0-1.71,1c-2.41,2-1.74,5.32-2.11,8.49l.39,9.47c.21,2.35-.07,2.58,1.79,3.7"/><path class="cls-1" d="M178,372.38c1.37-.22,1.66-.69,2.84-.9,2.92.11,2.4,1.3,4.93-2,2.93-3.79.07-8.83.07-10.72,0-4.14.79-4-.2-8-.76-3.12-1.62-4.21-3-4.81a12.11,12.11,0,0,0-2.14.43c-.7.07-1.33-.19-1.81,0A4.17,4.17,0,0,0,176,350a26.23,26.23,0,0,0-.11,7.12c.23,1.44-.27,2.62-.27,4.05,0,2.74.13,9.35,2.43,11.2"/><path class="cls-1" d="M360.87,377.83c1.58,0,1.63,1.21,3.48.29,1.66-.84,1.33-1.79,1.32-2.69s.93-1.5.93-2.72a40,40,0,0,0-.46-5.31c-.21-1.85.3-3.92-.17-5.72s-1.76-2.94-1.76-4.92c-.76-1.12-2.85-1.35-3.23.44-.11.47-2.18-.81-3.17-.12-1.63,1.13-1.74,1-2,2.72-.36,2.29.52,10.52.88,13.06.09.68-.3,3.17-.14,3.5a3.12,3.12,0,0,0,2.79,1.76,13.57,13.57,0,0,0,1.55-.29"/><path class="cls-1" d="M407.94,349.3c1.16.35,2.14,0,3.16,0s.69,1,3,.55c.73-.14,1.47-1.22,2-1.67a2.72,2.72,0,0,0,.33-3.38c-.79-1.68-.83-1.67-.2-3.75,1.19-3.89.57-4.42.26-7.72-.2-2.09-.35-5.36-1.53-6.56-.85-.87-2-.38-3.16-.33-.8,0-1.59-1.38-2.26-1.26a5.41,5.41,0,0,0-2.47,1.5c-.77,1.16-1.11,11.39-1,13.7a40.05,40.05,0,0,0,1.95,8.94"/><path class="cls-1" d="M385.37,246.85c0,2.41-.55,6.47-.11,9.5.11.77.51.47.77,1a2.94,2.94,0,0,0,2,.92c.51,0,.59-.23,1.28-.24,1,0,1.55.92,2.4,1.24a1.91,1.91,0,0,0,2-.54,9.81,9.81,0,0,0,1.77-5.46c0-1.21-.37-3.66-.53-5.36-.23-2.37.48-3.4.48-5.12,0-2.23.14-4.59-1.77-6.08-.46-.36-.93-1-1.41-1-.84,0-1.7.77-2.52.69s-1.33-.7-1.93-.73c-.37,0-.72.43-1,.66a5,5,0,0,0-1.8,4.06c-.08,2,.41,4.38.41,6.46"/><path class="cls-1" d="M334,21.85a26.28,26.28,0,0,0-2.87-5.64c-.7-.71-.78-1.81-1.48-2.55v-.48c-1.33-.62-2.5.38-3.58.45-.82.06-1.59-.54-2.32.36a7.33,7.33,0,0,0-1.14,2.54,28.57,28.57,0,0,0-1.23,6.1c0,3.19.31,2.62,0,5.45-.32,3.05.23,4.51.32,6.76.05,1.22,1.12,2.27,2.33,1.5,1.47.24,2.73.94,3.92.83a4.58,4.58,0,0,0,1.68-.64v-.39c.28-.17.57-.33.86-.47,2.17-1,3.06-6.47,3.14-8.63s.5-.16.14-3.71C333.63,22.16,334,23.41,334,21.85Z"/><path class="cls-1" d="M330.65,169.25a3.05,3.05,0,0,0-1.71.59v.35a3.23,3.23,0,0,1-.7.27c-1.1.27-.15.28-.82.38a1.16,1.16,0,0,0-.78.32c-1.37,2-2.18,3.15-2.28,7.24a27.06,27.06,0,0,0,.08,5.38c.95,2.61,1.54,4.83,2.35,5,1.43.23,1.44-.86,2.15-.9H329c1.69,0,2.57.21,4.1-.62,2-2.33,1.65-4.22,1.65-7.37C334.76,176.39,336.4,170.22,330.65,169.25Z"/><path class="cls-1" d="M53.07,298.9a9.55,9.55,0,0,1-.52-2.49h0c.07-1.58.71-2.43.76-3.38a4.1,4.1,0,0,0-1.12-2.82,8.66,8.66,0,0,0-3.45-3.08c-1.32-.5-1.75.07-3.73.68-.95.3-1.69-.48-2.24-.15A5.83,5.83,0,0,0,41,291.6c0,1.07.08,3.11.24,5.48h.05c.06.92.14,1.86.23,2.82.27,2.89-.47,5.14-.24,6.38.4,2.07,1.17,2.4,2.25,2.79,3,.73,2.63,0,4.87-.73,1.63-.55,2.22.87,3,.52,2.7-1.24,1.45-3,2.42-5.42C54.91,300.7,53.88,301.1,53.07,298.9Z"/><path class="cls-1" d="M174.08,296.41H174c-.22-2.09-.48-4.1-.51-5.91-.08-4.7.37-1.48-.94-5.4a4.75,4.75,0,0,0-3.11-2.67c-.64-.19-1.32.46-2,.53-.81.08-1.6-.35-2.26.27-1.06,1-1.8,2.76-1.78,5.61,0,2.44-.53,5.12-.69,7.57h0c0,.2,0,.39,0,.58,0,1.71.38,7.89,2.3,8.57a2.51,2.51,0,0,1,1.07.37c.78.43,1.63,1.4,3,1.43.71,0,1.49-.59,2.32-.84.64-.19,1.63.05,2.32-.35A27.91,27.91,0,0,0,174.08,296.41Z"/><path class="cls-1" d="M334.2,297.88a8,8,0,0,1-.17-1.47h0c0-1.88.19-3.75-1.49-5.09a8.13,8.13,0,0,0-2.92-1.55v-.13a2,2,0,0,0-.49,0l-.18,0v.05a12.26,12.26,0,0,0-2.14.86c-1.4.57-1.61.49-2.1,1.56a17.43,17.43,0,0,0-.86,4.3h-.08a35.25,35.25,0,0,0-.21,5.91c.37,2.79-.92,5.71,2,7.62,2.46,1.66,2.2,1.82,4.06,1.2v-.23l1-.34c1.53-.48,1.29-.89,1.66-2.1S336.11,306.05,334.2,297.88Z"/><path class="cls-1" d="M289.16,91.16c1.08-.47,1.34-1.1,2.12-1.23,1.87-.28,1.86.07,3.65.64.74.23,1.28-1.87,1.51-3.17.18-1.11.11-1.21.66-4.84a29.71,29.71,0,0,0,.42-3.33c0-2.18-.84-2.21-.84-6.94,0-1.43.58-1.39-.12-2-.29-.26-.82-1.29-1.72-1.53-.71-.2-1.4.28-2.16.27-.57,0-1.2-.62-1.87-.54a4,4,0,0,0-1.72,1c-2.43,2-1.75,5.32-2.12,8.49l.39,9.47c.21,2.35-.07,2.58,1.8,3.7"/><path class="cls-1" d="M82.29,257.77c1.07-.47,1.33-1.11,2.11-1.23,1.87-.28,1.86.07,3.65.64.74.23,1.29-1.87,1.51-3.17.19-1.11.11-1.21.66-4.84a27.55,27.55,0,0,0,.42-3.33c0-2.18-.84-2.21-.84-6.94,0-1.43.58-1.39-.11-2-.3-.26-.83-1.29-1.73-1.53-.71-.2-1.4.28-2.16.27-.57,0-1.2-.62-1.87-.54a4,4,0,0,0-1.72,1c-2.42,2-1.74,5.32-2.12,8.49l.39,9.47c.21,2.35-.07,2.58,1.81,3.7"/><path class="cls-1" d="M246.68,332.39c1.74.93,2.64.58,4.85.62.71,0,.71,1.12,2.15.89.81-.13,1.39-2.34,2.34-4.94a25.24,25.24,0,0,0,.08-5.35c-.09-4.07-.91-5.22-2.28-7.19a1.09,1.09,0,0,0-.78-.32c-.66-.1.29-.12-.81-.38s-2.25-1.35-3.09-1.21c-5.78,1-4.13,7.1-4.13,10.55,0,3.13-.39,5,1.67,7.33"/><path class="cls-1" d="M677.46,153a20.77,20.77,0,0,0,3.67-1.42c3-1.29,1.77-3.45,3-4.62,1.41-1.32.52-.39,1.16-1.72s1-1.3,1.07-2.13a16.87,16.87,0,0,0,0-2.16c0-2.15.55-.6.7-2.48.11-1.41-.43-3.13-1.76-5.55a6,6,0,0,0-2.33-2.34c-1.32-.82-2.69-.1-4,.21-1,.25-2,0-2.9.72-1.57,1.38-1.59,2.66-1.91,4.62a25.78,25.78,0,0,0-.4,4.76c0,3.16.41,1.06.27,4.27a7.08,7.08,0,0,0,1,4.4c1.28,1.88-.06,2.37,2.3,3.44"/><path class="cls-1" d="M620,214.9c-.08.9.33,3.47.32,6.4,0,5.3,1.64,10.82,3.86,10.82,1.61-.4,1.17-.51,2.61-1.11,1.7-.72,2.75,2.11,6.24-3.76.58-1.88,1.52-1.52,1.28-4.14-.12-1.29-1-4.34-.81-5.37.49-2.88.66-4.37,0-6.11a6.43,6.43,0,0,0-2.07-3.42c-2.22-2,0-3.79-3-5.14-1.25-.55-2.37-.74-2.8-.43a3.65,3.65,0,0,1-2.49.94c-2.44-.09-2.63,3-3.29,7.59-.15,1.1.26,2.45.13,3.73"/><path class="cls-1" d="M432.39,170.06c0,3.56-.63,4.83-.88,8-.19,2.43.38,3.53.4,5.85l1,1.13c.46,2.44,2,2,3.56,2.29,1,.21,3.32,2.43,5.2.87,1.34-1.12.78-1.64,2.06-2.8,2-.92,1.4-.91,1.65-1.7a7,7,0,0,0,.12-3.95c-.65-2.89,1-6.69-.53-9.69a6.92,6.92,0,0,0-2.08-2.63c-.69-.46-1.55,0-2.62-.32-2.69-.91-4-1.9-5.36-1.45-.68.24-1.35,1.34-2.19,2-1.38,1.13-.33,1-.33,2.35"/><path class="cls-1" d="M541.54,198.76c1.74.93,2.63.57,4.84.62.72,0,.72,1.13,2.15.89.81-.13,1.4-2.35,2.35-5a27.17,27.17,0,0,0,.08-5.39c-.1-4.09-.91-5.25-2.28-7.23a1.11,1.11,0,0,0-.78-.32c-.67-.1.29-.12-.81-.38s-2.26-1.36-3.1-1.22c-5.78,1-4.13,7.15-4.12,10.62,0,3.14-.39,5,1.67,7.37"/><path class="cls-1" d="M578,27.66c2,0,4.41,1,5.8-1.22s-.22-1.23.89-5.86c.34-1.39,1-2.12,1.2-2.93s-.09-1.74-.09-3.53c0-1.46.65-1.07.65-2.87,0-1.45.2-1.12-1.48-2.77-.39-.38-.15-.79-.44-1.19-.5-.69-.2-1.13-.9-1.79-1.17-1.1-1.86-.41-4.24-.75-2.55.22-4.7,1.45-5.16,3-.66,2.17-.62,4.88-.74,7.29a76.74,76.74,0,0,0,.31,7.78c.1,1.63.54,4.88,4.2,4.88"/><path class="cls-1" d="M816.83,414.66c0,1.71.39,7.89,2.29,8.57a2.42,2.42,0,0,1,1.06.37c.78.43,1.63,1.4,3,1.43.71,0,1.49-.59,2.31-.83.64-.19,1.62,0,2.31-.36,1.44-5.58-.16-11.6-.24-16.3s.37-1.47-.93-5.37a4.7,4.7,0,0,0-3.1-2.65c-.64-.2-1.31.45-2,.52-.81.08-1.6-.34-2.25.27-1.06,1-1.78,2.74-1.76,5.58s-.75,6-.75,8.77"/><path class="cls-1" d="M640.31,54l-.11,1.89c.28,1.37-.29,2.38-.29,4,0,7.35,1.16,6.12,3.49,7,2,.76,2.91,1.24,4.74.67s4.43-2,3.9-3.63c-2-6.22-.4-2.52-.38-5.61a8.41,8.41,0,0,1,0-1.23c.13-.82,1-1.26-.34-3.5C651,53,650,52.22,650,51.68c0-1.55,1.62-1.75-3.39-3.44-3.27-1.09-5.41,0-6.63,2.12-.53.94.32,2.21.32,3.6"/><path class="cls-1" d="M465.92,94.63c1.31-.21,1.79-.47,3-.73s2.28.6,3.46.31a5.13,5.13,0,0,0,2-3.7l.13-3.52.59-1a8.38,8.38,0,0,0-.2-3.88c-.13-.57-.21-.69-.46-1.69s-.3-2.14-.63-3.28c-.69-2.46-1.21-3.82-2.49-5.24-.49-.22-.42-.45-.71-.43a8.8,8.8,0,0,1-2.3.11c-2-.32-3-.47-3.51,0a5.21,5.21,0,0,0-1.28,3.72c0,1.94-.71,3.56-.7,5.49-.28,3.88-.44,4.36.14,8.23l.22,2.92c.14,1.52,1.11,2,2.8,2.65"/><path class="cls-1" d="M507.31,136.14l.19,6.75c0,1.22,1,4.87,3.11,4.89a9.88,9.88,0,0,1,1.77-.09c1.29.19,2,.83,3.28.94,1.63.15,4-2.27,4.05-3.91-.37-2.44.15-.68.16-2.18a31.22,31.22,0,0,1,.46-3.58c.13-1.3-1.09-2.35-.59-3.68.79-2.08,2.13-5.56-.17-7.78-.66-.63-1.6-.36-2.93-.72s-3.85-2.7-6.65-1.18c-.63.34-.92,1.87-1.36,3.67a51.64,51.64,0,0,0-1.32,6.87"/><path class="cls-1" d="M792.81,110.38c.17,6.17-.78,7.55-.78,14.94,0,2.07,2.1,6.64,3.47,8.2,4.68,0,2.16-1,4.65-1.47.63-.13,1.36,0,2.92-.06,2.54-.14,2.51-2.19,2.4-4.33-.09-1.62,1-3.31.57-4.26-2.09-4.85.12-.72-1.37-7.29-.77-3.41.11-6.43-2.38-8.49a3.84,3.84,0,0,0-2.52-1.07c-.9.13-1.8,1.3-2.66,1.32a15.5,15.5,0,0,0-2.51-.14,2.11,2.11,0,0,0-1.79,2.65"/><path class="cls-1" d="M527.87,343.23c2.46-1.14,2.61.21,4,.84,2.51,1.14,4.54-2.79,5-4a21.38,21.38,0,0,0,1.73-7.76c.12-3.21-1.25-3.69-1.55-6.49a19.23,19.23,0,0,0-1.46-4.65c-.08-.14-4.21-2.65-4.29-2.7-1.54-.88-2.9.09-3.92,1.22-.87,1-1.5,1.3-1.79,2.13-.61,1.69-.06,4.84.15,9.87.27,6.28.2,10.61,2.09,11.58"/><path class="cls-1" d="M663.53,416.92c3.16.49.76.06,5-.73,2.27-.68,3.06.72,3.78-1.6a6,6,0,0,1,.3-2.87c.43-1.45,1.51-2,1.57-3.91.06-2.43-1-4.77-1.28-7.14a14.23,14.23,0,0,1,.41-4.42,9.65,9.65,0,0,0-.56-3.27c-.41-1.51-2.44-2.91-4.39-2.91-.72,0-1.5.74-2.26.84-1.45.19-2.32.3-3.16,1.14a5.12,5.12,0,0,0-1.52,3.48c0,1.81.16,5.39-.26,7.19a18.26,18.26,0,0,0-1,5.3c0,2.22,1.15,4.45,1.19,5.55.07,2,.7,2.14,2.19,3.35"/><path class="cls-1" d="M517.29,34.94l.68,7.58-.42,8.39c.53,4.79,1.14,3.43,1.87,5.74,1.23.51,2.46-.24,4-.94.77-.34,2.62.65,3.54.24a2.89,2.89,0,0,0,1-1c1.15-7.15,1.66-5,1.68-9.7a25,25,0,0,0-.52-6.84c-.48-2.24-.63-7.24-3.17-8.83-.63-.39-1.44-.08-2.67-.08-1.61,0-2.92-.91-3.9.06a9.41,9.41,0,0,0-2.15,5.37"/><path class="cls-1" d="M592.14,126c0,2.41-.68,6.47-.24,9.5.11.77.51.47.77,1a2.9,2.9,0,0,0,1.74,1c.8.11,1.42-.3,2.33-.31s1.39.65,2.19,1a1.9,1.9,0,0,0,2.24-.31A9.76,9.76,0,0,0,603,132.4c0-1.21-.63-4.33-.8-6a26,26,0,0,1,0-4.2c0-2.23.67-3.93-1.26-5.42a6.71,6.71,0,0,0-2.13-1.39c-.61-.14-1,.58-1.55.53-1.11-.11-2.15-.8-3-.21a4.7,4.7,0,0,0-2.2,3.8c-.08,2,.15,4.38.15,6.46"/><path class="cls-1" d="M478.14,381c0,1.29.46.65.46,1.79l-.46,4.69c0,2.16.61,2.54.13,5.2-.36,2,.11,7,.25,8.6,2,7.2,7.7,2.41,9.07,1.94,3-1,2.11-3.88,2.11-6.83,0-2.52.24-5.16.41-7.25s-1.42-5.33-3.18-7.84c-.89-1.27-.9-2.31-2.08-2.82-2.55-1.1-6.71.49-6.71,2.52"/><path class="cls-1" d="M687.7,260.08c0,1.42,2.21,2.55,4.18,2.8,1.58-.6.34-.68,2.39-.92a4.68,4.68,0,0,0,3.89-3.57c.28-1-.09.24-.09-3.63a21.3,21.3,0,0,1,.52-2.77c.75-3.93,4-7.23-1.56-11-1.64-1.12-1.18.44-3.61-.19a4.89,4.89,0,0,0-2.38-.06,3.62,3.62,0,0,0-3,3.86c.13,1.11-.19,1.29-.5,2.45,0,2.73.59,5.46.62,8.2,0,1.75-.49,3-.47,4.79"/><path class="cls-1" d="M716.39,352.32c0,4.14-.89,4.6-.29,8.62.46,3-.43,7.77,2.56,9.14,1,.47,1.67.29,4.15-.54,1.35-.21.39.08,1.67.15,1.49.08,2.26-2.32,1.73-5.53-.93-5.54-.05-2.06-.05-7.05,0-1.07-.32-.93-.3-1.67a6,6,0,0,0,.17-1.67c-.21-1.44.12-3.3-.36-5.08a2.89,2.89,0,0,0-.85-1.29,4.74,4.74,0,0,0-1.68-1.54c-.77-.3-1.76.44-3,.44a3.37,3.37,0,0,0-2.4.84c-1.41,1.17-1.32,3.39-1.32,5.18"/><path class="cls-1" d="M831.22,64.19c1.07-.47,1.33-1.1,2.11-1.23,1.86-.28,1.85.07,3.63.64.74.23,1.28-1.87,1.5-3.17.18-1.11.11-1.21.66-4.84a29.71,29.71,0,0,0,.42-3.33c0-2.18-.84-2.21-.84-6.94,0-1.43.57-1.39-.11-2-.3-.26-.82-1.29-1.72-1.53-.71-.2-1.39.28-2.15.27-.57,0-1.2-.62-1.86-.54a4,4,0,0,0-1.71,1c-2.41,2-1.74,5.32-2.11,8.49l.39,9.47c.21,2.35-.07,2.58,1.79,3.7"/><path class="cls-1" d="M598.64,372.38c1.37-.22,1.67-.69,2.84-.9,2.92.11,2.4,1.3,4.94-2,2.92-3.79.06-8.83.06-10.72,0-4.14.79-4-.2-8-.76-3.12-1.62-4.21-3-4.81a12.11,12.11,0,0,0-2.14.43c-.7.07-1.33-.19-1.81,0a4.17,4.17,0,0,0-2.71,3.65,26.23,26.23,0,0,0-.11,7.12c.23,1.44-.27,2.62-.27,4.05,0,2.74.13,9.35,2.43,11.2"/><path class="cls-1" d="M781.48,377.83c1.58,0,1.63,1.21,3.48.29,1.66-.84,1.33-1.79,1.32-2.69s.93-1.5.93-2.72a40,40,0,0,0-.46-5.31c-.2-1.85.3-3.92-.17-5.72s-1.76-2.94-1.76-4.92c-.76-1.12-2.85-1.35-3.23.44-.11.47-2.18-.81-3.17-.12-1.63,1.13-1.74,1-2,2.72-.36,2.29.52,10.52.88,13.06.09.68-.3,3.17-.14,3.5a3.12,3.12,0,0,0,2.79,1.76,13.57,13.57,0,0,0,1.55-.29"/><path class="cls-1" d="M828.56,349.3c1.16.35,2.13,0,3.15,0s.69,1,3,.55c.73-.14,1.47-1.22,2-1.67a2.72,2.72,0,0,0,.33-3.38c-.79-1.68-.83-1.67-.2-3.75,1.19-3.89.57-4.42.26-7.72-.2-2.09-.35-5.36-1.52-6.56-.86-.87-2-.38-3.17-.33-.8,0-1.59-1.38-2.26-1.26a5.41,5.41,0,0,0-2.47,1.5c-.77,1.16-1.11,11.39-1,13.7a39,39,0,0,0,1.95,8.94"/><path class="cls-1" d="M806,246.85c0,2.41-.54,6.47-.11,9.5.11.77.51.47.77,1a2.94,2.94,0,0,0,2,.92c.51,0,.59-.23,1.28-.24,1,0,1.55.92,2.4,1.24a1.91,1.91,0,0,0,2-.54,9.73,9.73,0,0,0,1.77-5.46c0-1.21-.37-3.66-.53-5.36-.23-2.37.48-3.4.48-5.12,0-2.23.14-4.59-1.77-6.08-.46-.36-.93-1-1.41-1-.84,0-1.7.77-2.52.69s-1.33-.7-1.93-.73c-.37,0-.71.43-1,.66a5,5,0,0,0-1.8,4.06c-.08,2,.41,4.38.41,6.46"/><path class="cls-1" d="M754.57,21.85a26.28,26.28,0,0,0-2.87-5.64c-.7-.71-.78-1.81-1.48-2.55v-.48c-1.33-.62-2.5.38-3.58.45-.82.06-1.59-.54-2.32.36a7.33,7.33,0,0,0-1.14,2.54,28.57,28.57,0,0,0-1.23,6.1c0,3.19.31,2.62,0,5.45-.32,3.05.24,4.51.32,6.76.05,1.22,1.12,2.27,2.33,1.5,1.47.24,2.73.94,3.92.83a4.58,4.58,0,0,0,1.68-.64v-.39c.28-.17.57-.33.86-.47,2.17-1,3.06-6.47,3.14-8.63s.5-.16.14-3.71C754.24,22.16,754.57,23.41,754.57,21.85Z"/><path class="cls-1" d="M751.26,169.25a3.05,3.05,0,0,0-1.71.59v.35a3.23,3.23,0,0,1-.7.27c-1.1.27-.15.28-.82.38a1.16,1.16,0,0,0-.78.32c-1.37,2-2.18,3.15-2.28,7.24a27.06,27.06,0,0,0,.08,5.38c1,2.61,1.54,4.83,2.35,5,1.44.23,1.44-.86,2.15-.9h.06c1.69,0,2.57.21,4.1-.62,2-2.33,1.65-4.22,1.65-7.37C755.37,176.39,757,170.22,751.26,169.25Z"/><path class="cls-1" d="M473.68,298.9a9.55,9.55,0,0,1-.52-2.49h0c.07-1.58.71-2.43.76-3.38a4,4,0,0,0-1.12-2.82,8.59,8.59,0,0,0-3.45-3.08c-1.32-.5-1.75.07-3.73.68-.95.3-1.69-.48-2.23-.15-.85.52-1.76,2.61-1.76,3.94,0,1.07.08,3.11.24,5.48h.05c.06.92.14,1.86.23,2.82.27,2.89-.47,5.14-.24,6.38.4,2.07,1.17,2.4,2.25,2.79,3,.73,2.63,0,4.87-.73,1.63-.55,2.22.87,3,.52,2.71-1.24,1.46-3,2.42-5.42C475.53,300.7,474.49,301.1,473.68,298.9Z"/><path class="cls-1" d="M594.69,296.41h-.07c-.22-2.09-.48-4.1-.51-5.91-.08-4.7.37-1.48-.94-5.4a4.75,4.75,0,0,0-3.11-2.67c-.64-.19-1.32.46-2,.53-.81.08-1.6-.35-2.26.27-1.06,1-1.79,2.76-1.77,5.61,0,2.44-.54,5.12-.7,7.57h0c0,.2,0,.39,0,.58,0,1.71.38,7.89,2.3,8.57a2.47,2.47,0,0,1,1.07.37c.78.43,1.63,1.4,3,1.43.71,0,1.49-.59,2.32-.84.64-.19,1.63.05,2.32-.35A27.91,27.91,0,0,0,594.69,296.41Z"/><path class="cls-1" d="M754.82,297.88a7.21,7.21,0,0,1-.18-1.47h0c0-1.88.19-3.75-1.49-5.09a8,8,0,0,0-2.92-1.55v-.13a2,2,0,0,0-.49,0l-.18,0v.05a12.26,12.26,0,0,0-2.14.86c-1.4.57-1.61.49-2.1,1.56a17.43,17.43,0,0,0-.86,4.3h-.08a35.25,35.25,0,0,0-.21,5.91c.38,2.79-.91,5.71,2,7.62,2.46,1.66,2.2,1.82,4.06,1.2v-.23l1-.34c1.54-.48,1.29-.89,1.67-2.1S756.73,306.05,754.82,297.88Z"/><path class="cls-1" d="M709.77,91.16c1.08-.47,1.34-1.1,2.12-1.23,1.87-.28,1.86.07,3.65.64.74.23,1.28-1.87,1.51-3.17.18-1.11.11-1.21.66-4.84a27.55,27.55,0,0,0,.42-3.33c0-2.18-.84-2.21-.84-6.94,0-1.43.58-1.39-.12-2-.29-.26-.82-1.29-1.72-1.53-.71-.2-1.4.28-2.16.27-.57,0-1.2-.62-1.87-.54a4,4,0,0,0-1.72,1c-2.43,2-1.75,5.32-2.12,8.49l.39,9.47c.21,2.35-.07,2.58,1.8,3.7"/><path class="cls-1" d="M502.9,257.77c1.07-.47,1.33-1.11,2.11-1.23,1.87-.28,1.86.07,3.65.64.74.23,1.29-1.87,1.51-3.17.19-1.11.11-1.21.66-4.84a27.55,27.55,0,0,0,.42-3.33c0-2.18-.84-2.21-.84-6.94,0-1.43.58-1.39-.11-2-.3-.26-.82-1.29-1.73-1.53-.71-.2-1.4.28-2.16.27-.57,0-1.2-.62-1.87-.54a4,4,0,0,0-1.72,1c-2.42,2-1.74,5.32-2.12,8.49l.39,9.47c.22,2.35-.07,2.58,1.81,3.7"/><path class="cls-1" d="M667.29,332.39c1.74.93,2.64.58,4.85.62.71,0,.71,1.12,2.15.89.81-.13,1.39-2.34,2.34-4.94a25.72,25.72,0,0,0,.09-5.35c-.1-4.07-.92-5.22-2.29-7.19a1.07,1.07,0,0,0-.78-.32c-.66-.1.29-.12-.81-.38s-2.25-1.35-3.09-1.21c-5.78,1-4.13,7.1-4.12,10.55,0,3.13-.4,5,1.66,7.33"/><path class="cls-1" d="M256.85,573.61a20.77,20.77,0,0,0,3.67-1.42c3-1.29,1.77-3.45,3-4.62,1.41-1.32.52-.39,1.15-1.72s1-1.3,1.08-2.13a16.75,16.75,0,0,0,0-2.15c0-2.16.55-.61.7-2.48.11-1.42-.43-3.14-1.76-5.56a6,6,0,0,0-2.33-2.34c-1.32-.82-2.69-.1-4,.21-1,.25-2,0-2.9.72-1.57,1.38-1.59,2.66-1.91,4.62a25.78,25.78,0,0,0-.4,4.76c0,3.16.41,1.07.27,4.27a7.08,7.08,0,0,0,1.05,4.4c1.28,1.88-.06,2.37,2.3,3.44"/><path class="cls-1" d="M199.35,635.51c-.07.9.34,3.47.33,6.4,0,5.3,1.64,10.82,3.86,10.82,1.61-.4,1.17-.51,2.61-1.11,1.7-.71,2.75,2.11,6.24-3.75.58-1.89,1.52-1.53,1.28-4.15-.12-1.29-1-4.33-.82-5.37.5-2.88.67-4.37,0-6.1a6.48,6.48,0,0,0-2.07-3.43c-2.22-2,0-3.79-3-5.13-1.25-.56-2.37-.75-2.8-.44a3.67,3.67,0,0,1-2.49,1c-2.44-.1-2.63,3-3.29,7.58-.15,1.1.26,2.45.12,3.73"/><path class="cls-1" d="M11.78,590.67c0,3.56-.64,4.83-.89,8-.19,2.43.39,3.53.41,5.85l1,1.13c.46,2.44,2,2,3.55,2.29,1,.21,3.33,2.43,5.21.87,1.34-1.12.78-1.64,2.06-2.79,2-.93,1.4-.92,1.65-1.71a7,7,0,0,0,.12-3.94c-.65-2.9,1-6.7-.53-9.7a6.92,6.92,0,0,0-2.08-2.63c-.7-.46-1.56,0-2.62-.32-2.69-.91-4.05-1.9-5.37-1.44-.67.23-1.34,1.33-2.18,2-1.38,1.13-.33,1-.33,2.35"/><path class="cls-1" d="M120.92,619.37c1.75.94,2.64.58,4.85.62.71,0,.72,1.13,2.15.89.81-.13,1.4-2.35,2.35-5a27.09,27.09,0,0,0,.08-5.38c-.1-4.1-.91-5.26-2.28-7.24a1.16,1.16,0,0,0-.78-.32c-.67-.1.28-.11-.82-.38s-2.25-1.36-3.09-1.22c-5.78,1-4.13,7.15-4.12,10.62,0,3.14-.4,5,1.66,7.37"/><path class="cls-1" d="M157.37,448.27c2,0,4.42,1,5.81-1.22s-.22-1.23.89-5.85c.34-1.4,1-2.13,1.2-2.94a24.1,24.1,0,0,0-.09-3.53c0-1.45.65-1.07.65-2.87,0-1.45.2-1.12-1.49-2.76-.38-.39-.14-.8-.43-1.2-.5-.69-.2-1.13-.9-1.79-1.17-1.1-1.86-.41-4.24-.75-2.55.22-4.7,1.45-5.16,3-.66,2.17-.62,4.88-.74,7.29a76.74,76.74,0,0,0,.31,7.78c.1,1.63.54,4.88,4.19,4.88"/><path class="cls-1" d="M396.22,835.27c0,1.71.39,7.89,2.29,8.57a2.42,2.42,0,0,1,1.06.37c.78.43,1.63,1.4,3,1.43.71,0,1.48-.59,2.3-.83.64-.19,1.63.05,2.32-.36,1.44-5.58-.16-11.6-.24-16.3s.36-1.47-.93-5.37a4.73,4.73,0,0,0-3.1-2.65c-.64-.19-1.31.46-2,.52-.81.08-1.6-.34-2.25.27-1.06,1-1.78,2.75-1.77,5.58s-.74,6-.74,8.77"/><path class="cls-1" d="M219.7,474.57l-.11,1.89c.28,1.37-.29,2.38-.3,4,0,7.35,1.17,6.12,3.5,7,2,.76,2.91,1.25,4.74.67s4.43-2,3.9-3.63c-2-6.22-.4-2.51-.38-5.61a8.41,8.41,0,0,1,0-1.23c.13-.82,1-1.26-.34-3.5-.35-.6-1.32-1.37-1.32-1.91,0-1.55,1.62-1.75-3.39-3.44-3.27-1.09-5.41,0-6.63,2.12-.53.94.32,2.21.32,3.6"/><path class="cls-1" d="M45.31,515.24c1.31-.21,1.79-.47,3-.72s2.27.59,3.46.3a5.13,5.13,0,0,0,2-3.7l.13-3.52.59-1a8.52,8.52,0,0,0-.2-3.88c-.13-.57-.21-.69-.46-1.69s-.3-2.14-.63-3.28c-.69-2.46-1.21-3.82-2.49-5.23-.49-.22-.42-.46-.71-.44a8.38,8.38,0,0,1-2.3.11c-2-.32-3-.47-3.51,0A5.22,5.22,0,0,0,42.85,496c0,1.93-.71,3.55-.7,5.48-.28,3.88-.44,4.37.13,8.24l.23,2.91c.14,1.52,1.11,2,2.8,2.65"/><path class="cls-1" d="M86.7,556.75l.18,6.75c0,1.23,1,4.87,3.12,4.89a9.81,9.81,0,0,1,1.76-.09c1.3.19,2,.83,3.28.94,1.64.15,4-2.27,4-3.91-.36-2.44.16-.68.17-2.18a30.73,30.73,0,0,1,.46-3.57c.13-1.31-1.09-2.36-.59-3.69.79-2.08,2.13-5.56-.18-7.78-.65-.62-1.59-.36-2.92-.72s-3.85-2.7-6.65-1.18c-.63.34-.92,1.87-1.36,3.67a51.64,51.64,0,0,0-1.32,6.87"/><path class="cls-1" d="M372.2,531c.17,6.18-.78,7.56-.79,14.94,0,2.07,2.11,6.64,3.48,8.2,4.68,0,2.16-1,4.64-1.47.64-.13,1.37,0,2.92-.06,2.55-.14,2.52-2.18,2.41-4.33-.09-1.62,1-3.31.57-4.26-2.09-4.85.12-.71-1.37-7.29-.77-3.41.11-6.43-2.38-8.49a3.86,3.86,0,0,0-2.52-1.07c-.9.13-1.8,1.3-2.66,1.32a15.5,15.5,0,0,0-2.51-.14A2.11,2.11,0,0,0,372.2,531"/><path class="cls-1" d="M107.26,763.84c2.46-1.13,2.61.21,4,.84,2.51,1.14,4.54-2.78,5-4a21.57,21.57,0,0,0,1.73-7.76c.12-3.21-1.25-3.69-1.55-6.49a19.37,19.37,0,0,0-1.46-4.65c-.08-.14-4.21-2.65-4.29-2.7-1.54-.88-2.9.1-3.92,1.22-.87,1-1.5,1.3-1.8,2.13-.6,1.69-.05,4.84.16,9.87.27,6.28.2,10.61,2.09,11.58"/><path class="cls-1" d="M242.92,837.53c3.16.49.76.06,5-.73,2.27-.68,3.06.72,3.78-1.6a6.16,6.16,0,0,1,.29-2.87c.44-1.45,1.52-2,1.57-3.91.07-2.43-1-4.77-1.27-7.14a14.23,14.23,0,0,1,.41-4.42,9.65,9.65,0,0,0-.56-3.27c-.41-1.51-2.44-2.91-4.39-2.91-.73,0-1.5.74-2.26.84-1.46.19-2.32.3-3.16,1.14a5.12,5.12,0,0,0-1.52,3.48c0,1.81.16,5.4-.26,7.19a18.26,18.26,0,0,0-1,5.3c0,2.22,1.15,4.46,1.19,5.56.07,2,.7,2.13,2.19,3.34"/><path class="cls-1" d="M96.68,455.55l.68,7.58-.42,8.4c.53,4.78,1.14,3.42,1.87,5.73,1.23.51,2.46-.24,4-.94.77-.34,2.62.65,3.54.24a2.89,2.89,0,0,0,1-1c1.15-7.15,1.66-5,1.68-9.69a25,25,0,0,0-.52-6.85c-.48-2.24-.63-7.24-3.17-8.83-.63-.39-1.44-.08-2.67-.08-1.61,0-2.92-.91-3.9.06a9.41,9.41,0,0,0-2.15,5.37"/><path class="cls-1" d="M171.53,546.56c0,2.41-.68,6.47-.24,9.5.11.77.51.47.77,1a2.9,2.9,0,0,0,1.74,1c.8.11,1.42-.3,2.33-.31s1.39.65,2.18,1a1.92,1.92,0,0,0,2.25-.31,9.76,9.76,0,0,0,1.78-5.46c0-1.21-.63-4.32-.8-6a26,26,0,0,1,0-4.2c0-2.23.67-3.93-1.26-5.42a6.71,6.71,0,0,0-2.13-1.39c-.61-.14-1,.58-1.55.53-1.11-.11-2.15-.8-3-.21a4.7,4.7,0,0,0-2.2,3.8c-.08,2,.15,4.38.15,6.46"/><path class="cls-1" d="M57.53,801.63c0,1.29.46.65.46,1.79l-.46,4.69c0,2.16.61,2.54.13,5.2-.36,2,.11,7,.25,8.6,2,7.2,7.7,2.41,9.07,1.94,3-1,2.11-3.88,2.11-6.83,0-2.52.24-5.16.41-7.25.16-1.93-1.42-5.33-3.18-7.84-.89-1.26-.9-2.31-2.08-2.82-2.55-1.1-6.71.49-6.71,2.52"/><path class="cls-1" d="M267.09,680.69c0,1.42,2.21,2.55,4.18,2.8,1.58-.6.34-.68,2.39-.92a4.7,4.7,0,0,0,3.89-3.57c.28-1-.1.24-.1-3.63a21.46,21.46,0,0,1,.53-2.77c.75-3.92,4-7.23-1.56-11-1.64-1.12-1.18.44-3.62-.19a4.82,4.82,0,0,0-2.37-.06,3.62,3.62,0,0,0-3,3.86c.13,1.11-.19,1.29-.5,2.45,0,2.73.58,5.46.61,8.2,0,1.75-.48,3-.46,4.79"/><path class="cls-1" d="M295.78,772.93c0,4.14-.89,4.6-.29,8.62.46,3-.43,7.77,2.56,9.14,1,.47,1.67.29,4.14-.54,1.36-.21.4.08,1.68.15,1.49.08,2.26-2.32,1.73-5.53-.93-5.54-.05-2-.05-7,0-1.07-.33-.93-.3-1.67a6,6,0,0,0,.17-1.67c-.21-1.44.12-3.3-.36-5.08a2.92,2.92,0,0,0-.85-1.28,4.68,4.68,0,0,0-1.68-1.55c-.77-.3-1.77.44-3,.44a3.37,3.37,0,0,0-2.4.84c-1.41,1.17-1.32,3.39-1.32,5.18"/><path class="cls-1" d="M410.61,484.8c1.07-.47,1.33-1.1,2.11-1.22,1.86-.29,1.85.06,3.63.63.74.23,1.28-1.87,1.5-3.17.18-1.1.11-1.21.66-4.84a29.71,29.71,0,0,0,.42-3.33c0-2.18-.84-2.21-.84-6.94,0-1.43.57-1.39-.12-2-.29-.26-.81-1.29-1.71-1.53-.71-.2-1.39.28-2.15.27-.57,0-1.2-.62-1.86-.54a3.93,3.93,0,0,0-1.71,1c-2.41,2-1.74,5.32-2.11,8.49l.39,9.47c.21,2.35-.07,2.58,1.79,3.7"/><path class="cls-1" d="M178,793c1.37-.23,1.66-.7,2.84-.91,2.92.11,2.4,1.3,4.93-2,2.93-3.79.07-8.83.07-10.72,0-4.14.79-4-.2-8-.76-3.12-1.62-4.21-3-4.81a12.11,12.11,0,0,0-2.14.43c-.7.07-1.33-.18-1.81,0a4.18,4.18,0,0,0-2.71,3.65,26.23,26.23,0,0,0-.11,7.12c.23,1.44-.27,2.62-.27,4,0,2.74.13,9.35,2.43,11.21"/><path class="cls-1" d="M360.87,798.44c1.58,0,1.63,1.22,3.48.29,1.66-.83,1.33-1.79,1.32-2.69s.93-1.5.93-2.72a40,40,0,0,0-.46-5.31c-.21-1.85.3-3.92-.17-5.72s-1.76-2.94-1.76-4.92c-.76-1.12-2.85-1.34-3.23.44-.11.47-2.18-.81-3.17-.12-1.63,1.13-1.74,1-2,2.72-.36,2.29.52,10.52.88,13.06.09.68-.3,3.17-.14,3.5a3.12,3.12,0,0,0,2.79,1.76,13.57,13.57,0,0,0,1.55-.29"/><path class="cls-1" d="M407.94,769.91c1.16.35,2.14,0,3.16,0s.69,1,3,.55c.73-.14,1.47-1.22,2-1.67a2.72,2.72,0,0,0,.33-3.38c-.79-1.68-.83-1.67-.2-3.75,1.19-3.89.57-4.42.26-7.72-.2-2.09-.35-5.36-1.53-6.55-.85-.88-2-.39-3.16-.34-.8,0-1.59-1.38-2.26-1.26a5.41,5.41,0,0,0-2.47,1.5c-.77,1.16-1.11,11.39-1,13.7a39.93,39.93,0,0,0,1.95,8.94"/><path class="cls-1" d="M385.37,667.46c0,2.41-.55,6.47-.11,9.5.11.77.51.47.77,1a2.94,2.94,0,0,0,2,.92c.51,0,.59-.23,1.28-.23,1,0,1.55.92,2.4,1.23a1.89,1.89,0,0,0,2-.54,9.81,9.81,0,0,0,1.77-5.46c0-1.21-.37-3.66-.53-5.36-.23-2.37.48-3.39.48-5.12,0-2.23.14-4.59-1.77-6.08-.46-.36-.93-1-1.41-1-.84,0-1.7.77-2.52.69s-1.33-.7-1.93-.73c-.37,0-.72.43-1,.66A5,5,0,0,0,385,661c-.08,2,.41,4.39.41,6.46"/><path class="cls-1" d="M334,442.47a26.09,26.09,0,0,0-2.87-5.65c-.7-.71-.78-1.81-1.48-2.55v-.48c-1.33-.62-2.5.38-3.58.46-.82.05-1.59-.54-2.32.36a7.17,7.17,0,0,0-1.14,2.54,28.48,28.48,0,0,0-1.23,6.09c0,3.19.31,2.62,0,5.45-.32,3.05.23,4.51.32,6.77.05,1.22,1.12,2.26,2.33,1.49,1.47.24,2.73.94,3.92.83a4.58,4.58,0,0,0,1.68-.64v-.39a7.94,7.94,0,0,1,.86-.46c2.17-1,3.06-6.48,3.14-8.64s.5-.16.14-3.71C333.63,442.77,334,444,334,442.47Z"/><path class="cls-1" d="M330.65,589.86a3.13,3.13,0,0,0-1.71.59v.35a3.23,3.23,0,0,1-.7.27c-1.1.27-.15.28-.82.38a1.21,1.21,0,0,0-.78.32c-1.37,2-2.18,3.15-2.28,7.24a27.06,27.06,0,0,0,.08,5.38c.95,2.61,1.54,4.83,2.35,5,1.43.23,1.44-.86,2.15-.9H329c1.69,0,2.57.21,4.1-.62,2-2.33,1.65-4.22,1.65-7.37C334.76,597,336.4,590.83,330.65,589.86Z"/><path class="cls-1" d="M53.07,719.52a9.69,9.69,0,0,1-.52-2.5h0c.07-1.58.71-2.43.76-3.37a4.11,4.11,0,0,0-1.12-2.83,8.57,8.57,0,0,0-3.45-3.07c-1.32-.51-1.75.06-3.73.68-.95.29-1.69-.49-2.24-.16A5.83,5.83,0,0,0,41,712.21c0,1.07.08,3.11.24,5.48h.05c.06.92.14,1.86.23,2.82.27,2.89-.47,5.14-.24,6.38.4,2.07,1.17,2.4,2.25,2.79,3,.73,2.63,0,4.87-.73,1.63-.55,2.22.87,3,.52,2.7-1.24,1.45-3,2.42-5.42C54.91,721.31,53.88,721.72,53.07,719.52Z"/><path class="cls-1" d="M174.08,717H174c-.22-2.09-.48-4.1-.51-5.91-.08-4.7.37-1.48-.94-5.4a4.75,4.75,0,0,0-3.11-2.67c-.64-.19-1.32.46-2,.53-.81.08-1.6-.35-2.26.27-1.06,1-1.8,2.76-1.78,5.61,0,2.44-.53,5.13-.69,7.57h0c0,.2,0,.39,0,.58,0,1.71.38,7.89,2.3,8.57a2.51,2.51,0,0,1,1.07.37c.78.43,1.63,1.4,3,1.43.71,0,1.49-.59,2.32-.84.64-.18,1.63,0,2.32-.35A27.91,27.91,0,0,0,174.08,717Z"/><path class="cls-1" d="M334.2,718.49A8,8,0,0,1,334,717h0c0-1.88.19-3.75-1.49-5.09a8,8,0,0,0-2.92-1.54v-.14a2.68,2.68,0,0,0-.49,0l-.18,0v0a13.1,13.1,0,0,0-2.14.86c-1.4.57-1.61.49-2.1,1.56a17.43,17.43,0,0,0-.86,4.3h-.08a35.25,35.25,0,0,0-.21,5.91c.37,2.79-.92,5.71,2,7.62,2.46,1.66,2.2,1.83,4.06,1.2v-.23l1-.34c1.53-.48,1.29-.89,1.66-2.1S336.11,726.67,334.2,718.49Z"/><path class="cls-1" d="M289.16,511.77c1.08-.47,1.34-1.1,2.12-1.22,1.87-.29,1.86.06,3.65.63.74.23,1.28-1.87,1.51-3.17.18-1.1.11-1.21.66-4.84a29.71,29.71,0,0,0,.42-3.33c0-2.18-.84-2.21-.84-6.94,0-1.43.58-1.39-.12-2-.29-.26-.82-1.29-1.72-1.53-.71-.2-1.4.28-2.16.27-.57,0-1.2-.62-1.87-.54a4,4,0,0,0-1.72,1c-2.43,2-1.75,5.32-2.12,8.49l.39,9.47c.21,2.35-.07,2.58,1.8,3.7"/><path class="cls-1" d="M82.29,678.38c1.07-.47,1.33-1.1,2.11-1.22,1.87-.29,1.86.06,3.65.63.74.23,1.29-1.87,1.51-3.17.19-1.1.11-1.21.66-4.84a27.55,27.55,0,0,0,.42-3.33c0-2.18-.84-2.21-.84-6.94,0-1.43.58-1.39-.11-2-.3-.26-.83-1.29-1.73-1.53-.71-.2-1.4.28-2.16.27-.57,0-1.2-.62-1.87-.54a4,4,0,0,0-1.72,1c-2.42,2-1.74,5.32-2.12,8.49l.39,9.47c.21,2.35-.07,2.58,1.81,3.7"/><path class="cls-1" d="M246.68,753c1.74.92,2.64.57,4.85.61.71,0,.71,1.12,2.15.89.81-.13,1.39-2.34,2.34-4.94a25.24,25.24,0,0,0,.08-5.35c-.09-4.07-.91-5.22-2.28-7.19a1.09,1.09,0,0,0-.78-.32c-.66-.1.29-.12-.81-.38s-2.25-1.35-3.09-1.21c-5.78,1-4.13,7.1-4.13,10.56,0,3.12-.39,5,1.67,7.33"/><path class="cls-1" d="M677.46,573.61a20.77,20.77,0,0,0,3.67-1.42c3-1.29,1.77-3.45,3-4.62,1.41-1.32.52-.39,1.16-1.72s1-1.3,1.07-2.13a16.75,16.75,0,0,0,0-2.15c0-2.16.55-.61.7-2.48.11-1.42-.43-3.14-1.76-5.56a6,6,0,0,0-2.33-2.34c-1.32-.82-2.69-.1-4,.21-1,.25-2,0-2.9.72-1.57,1.38-1.59,2.66-1.91,4.62a25.78,25.78,0,0,0-.4,4.76c0,3.16.41,1.07.27,4.27a7.08,7.08,0,0,0,1,4.4c1.28,1.88-.06,2.37,2.3,3.44"/><path class="cls-1" d="M620,635.51c-.08.9.33,3.47.32,6.4,0,5.3,1.64,10.82,3.86,10.82,1.61-.4,1.17-.51,2.61-1.11,1.7-.71,2.75,2.11,6.24-3.75.58-1.89,1.52-1.53,1.28-4.15-.12-1.29-1-4.33-.81-5.37.49-2.88.66-4.37,0-6.1a6.41,6.41,0,0,0-2.07-3.43c-2.22-2,0-3.79-3-5.13-1.25-.56-2.37-.75-2.8-.44a3.67,3.67,0,0,1-2.49,1c-2.44-.1-2.63,3-3.29,7.58-.15,1.1.26,2.45.13,3.73"/><path class="cls-1" d="M432.39,590.67c0,3.56-.63,4.83-.88,8-.19,2.43.38,3.53.4,5.85l1,1.13c.46,2.44,2,2,3.56,2.29,1,.21,3.32,2.43,5.2.87,1.34-1.12.78-1.64,2.06-2.79,2-.93,1.4-.92,1.65-1.71a7,7,0,0,0,.12-3.94c-.65-2.9,1-6.7-.53-9.7a6.92,6.92,0,0,0-2.08-2.63c-.69-.46-1.55,0-2.62-.32-2.69-.91-4-1.9-5.36-1.44-.68.23-1.35,1.33-2.19,2-1.38,1.13-.33,1-.33,2.35"/><path class="cls-1" d="M541.54,619.37c1.74.94,2.63.58,4.84.62.72,0,.72,1.13,2.15.89.81-.13,1.4-2.35,2.35-5a27.09,27.09,0,0,0,.08-5.38c-.1-4.1-.91-5.26-2.28-7.24a1.16,1.16,0,0,0-.78-.32c-.67-.1.29-.11-.81-.38s-2.26-1.36-3.1-1.22c-5.78,1-4.13,7.15-4.12,10.62,0,3.14-.39,5,1.67,7.37"/><path class="cls-1" d="M578,448.27c2,0,4.41,1,5.8-1.22s-.22-1.23.89-5.85c.34-1.4,1-2.13,1.2-2.94s-.09-1.74-.09-3.53c0-1.45.65-1.07.65-2.87,0-1.45.2-1.12-1.48-2.76-.39-.39-.15-.8-.44-1.2-.5-.69-.2-1.13-.9-1.79-1.17-1.1-1.86-.41-4.24-.75-2.55.22-4.7,1.45-5.16,3-.66,2.17-.62,4.88-.74,7.29a76.74,76.74,0,0,0,.31,7.78c.1,1.63.54,4.88,4.2,4.88"/><path class="cls-1" d="M816.83,835.27c0,1.71.39,7.89,2.29,8.57a2.42,2.42,0,0,1,1.06.37c.78.43,1.63,1.4,3,1.43.71,0,1.49-.59,2.31-.83.64-.19,1.62.05,2.31-.36,1.44-5.58-.16-11.6-.24-16.3s.37-1.47-.93-5.37a4.7,4.7,0,0,0-3.1-2.65c-.64-.19-1.31.46-2,.52-.81.08-1.6-.34-2.25.27-1.06,1-1.78,2.75-1.76,5.58s-.75,6-.75,8.77"/><path class="cls-1" d="M640.31,474.57l-.11,1.89c.28,1.37-.29,2.38-.29,4,0,7.35,1.16,6.12,3.49,7,2,.76,2.91,1.25,4.74.67s4.43-2,3.9-3.63c-2-6.22-.4-2.51-.38-5.61a8.41,8.41,0,0,1,0-1.23c.13-.82,1-1.26-.34-3.5-.35-.6-1.32-1.37-1.32-1.91,0-1.55,1.62-1.75-3.39-3.44-3.27-1.09-5.41,0-6.63,2.12-.53.94.32,2.21.32,3.6"/><path class="cls-1" d="M465.92,515.24c1.31-.21,1.79-.47,3-.72s2.28.59,3.46.3a5.13,5.13,0,0,0,2-3.7l.13-3.52.59-1a8.38,8.38,0,0,0-.2-3.88c-.13-.57-.21-.69-.46-1.69s-.3-2.14-.63-3.28c-.69-2.46-1.21-3.82-2.49-5.23-.49-.22-.42-.46-.71-.44a8.38,8.38,0,0,1-2.3.11c-2-.32-3-.47-3.51,0a5.22,5.22,0,0,0-1.28,3.73c0,1.93-.71,3.55-.7,5.48-.28,3.88-.44,4.37.14,8.24l.22,2.91c.14,1.52,1.11,2,2.8,2.65"/><path class="cls-1" d="M507.31,556.75l.19,6.75c0,1.23,1,4.87,3.11,4.89a9.88,9.88,0,0,1,1.77-.09c1.29.19,2,.83,3.28.94,1.63.15,4-2.27,4.05-3.91-.37-2.44.15-.68.16-2.18a30.73,30.73,0,0,1,.46-3.57c.13-1.31-1.09-2.36-.59-3.69.79-2.08,2.13-5.56-.17-7.78-.66-.62-1.6-.36-2.93-.72s-3.85-2.7-6.65-1.18c-.63.34-.92,1.87-1.36,3.67a51.64,51.64,0,0,0-1.32,6.87"/><path class="cls-1" d="M792.81,531c.17,6.18-.78,7.56-.78,14.94,0,2.07,2.1,6.64,3.47,8.2,4.68,0,2.16-1,4.65-1.47.63-.13,1.36,0,2.92-.06,2.54-.14,2.51-2.18,2.4-4.33-.09-1.62,1-3.31.57-4.26-2.09-4.85.12-.71-1.37-7.29-.77-3.41.11-6.43-2.38-8.49a3.84,3.84,0,0,0-2.52-1.07c-.9.13-1.8,1.3-2.66,1.32a15.5,15.5,0,0,0-2.51-.14,2.11,2.11,0,0,0-1.79,2.65"/><path class="cls-1" d="M527.87,763.84c2.46-1.13,2.61.21,4,.84,2.51,1.14,4.54-2.78,5-4a21.34,21.34,0,0,0,1.73-7.76c.12-3.21-1.25-3.69-1.55-6.49a19.37,19.37,0,0,0-1.46-4.65c-.08-.14-4.21-2.65-4.29-2.7-1.54-.88-2.9.1-3.92,1.22-.87,1-1.5,1.3-1.79,2.13-.61,1.69-.06,4.84.15,9.87.27,6.28.2,10.61,2.09,11.58"/><path class="cls-1" d="M663.53,837.53c3.16.49.76.06,5-.73,2.27-.68,3.06.72,3.78-1.6a6,6,0,0,1,.3-2.87c.43-1.45,1.51-2,1.57-3.91.06-2.43-1-4.77-1.28-7.14a14.23,14.23,0,0,1,.41-4.42,9.65,9.65,0,0,0-.56-3.27c-.41-1.51-2.44-2.91-4.39-2.91-.72,0-1.5.74-2.26.84-1.45.19-2.32.3-3.16,1.14a5.12,5.12,0,0,0-1.52,3.48c0,1.81.16,5.4-.26,7.19a18.26,18.26,0,0,0-1,5.3c0,2.22,1.15,4.46,1.19,5.56.07,2,.7,2.13,2.19,3.34"/><path class="cls-1" d="M517.29,455.55l.68,7.58-.42,8.4c.53,4.78,1.14,3.42,1.87,5.73,1.23.51,2.46-.24,4-.94.77-.34,2.62.65,3.54.24a2.89,2.89,0,0,0,1-1c1.15-7.15,1.66-5,1.68-9.69a25,25,0,0,0-.52-6.85c-.48-2.24-.63-7.24-3.17-8.83-.63-.39-1.44-.08-2.67-.08-1.61,0-2.92-.91-3.9.06a9.41,9.41,0,0,0-2.15,5.37"/><path class="cls-1" d="M592.14,546.56c0,2.41-.68,6.47-.24,9.5.11.77.51.47.77,1a2.9,2.9,0,0,0,1.74,1c.8.11,1.42-.3,2.33-.31s1.39.65,2.19,1a1.9,1.9,0,0,0,2.24-.31A9.76,9.76,0,0,0,603,553c0-1.21-.63-4.32-.8-6a26,26,0,0,1,0-4.2c0-2.23.67-3.93-1.26-5.42a6.71,6.71,0,0,0-2.13-1.39c-.61-.14-1,.58-1.55.53-1.11-.11-2.15-.8-3-.21a4.7,4.7,0,0,0-2.2,3.8c-.08,2,.15,4.38.15,6.46"/><path class="cls-1" d="M478.14,801.63c0,1.29.46.65.46,1.79l-.46,4.69c0,2.16.61,2.54.13,5.2-.36,2,.11,7,.25,8.6,2,7.2,7.7,2.41,9.07,1.94,3-1,2.11-3.88,2.11-6.83,0-2.52.24-5.16.41-7.25.16-1.93-1.42-5.33-3.18-7.84-.89-1.26-.9-2.31-2.08-2.82-2.55-1.1-6.71.49-6.71,2.52"/><path class="cls-1" d="M687.7,680.69c0,1.42,2.21,2.55,4.18,2.8,1.58-.6.34-.68,2.39-.92a4.68,4.68,0,0,0,3.89-3.57c.28-1-.09.24-.09-3.63a21.3,21.3,0,0,1,.52-2.77c.75-3.92,4-7.23-1.56-11-1.64-1.12-1.18.44-3.61-.19a4.89,4.89,0,0,0-2.38-.06,3.62,3.62,0,0,0-3,3.86c.13,1.11-.19,1.29-.5,2.45,0,2.73.59,5.46.62,8.2,0,1.75-.49,3-.47,4.79"/><path class="cls-1" d="M716.39,772.93c0,4.14-.89,4.6-.29,8.62.46,3-.43,7.77,2.56,9.14,1,.47,1.67.29,4.15-.54,1.35-.21.39.08,1.67.15,1.49.08,2.26-2.32,1.73-5.53-.93-5.54-.05-2-.05-7,0-1.07-.32-.93-.3-1.67a6,6,0,0,0,.17-1.67c-.21-1.44.12-3.3-.36-5.08a2.92,2.92,0,0,0-.85-1.28,4.68,4.68,0,0,0-1.68-1.55c-.77-.3-1.76.44-3,.44a3.37,3.37,0,0,0-2.4.84c-1.41,1.17-1.32,3.39-1.32,5.18"/><path class="cls-1" d="M831.22,484.8c1.07-.47,1.33-1.1,2.11-1.22,1.86-.29,1.85.06,3.63.63.74.23,1.28-1.87,1.5-3.17.18-1.1.11-1.21.66-4.84a29.71,29.71,0,0,0,.42-3.33c0-2.18-.84-2.21-.84-6.94,0-1.43.57-1.39-.11-2-.3-.26-.82-1.29-1.72-1.53-.71-.2-1.39.28-2.15.27-.57,0-1.2-.62-1.86-.54a4,4,0,0,0-1.71,1c-2.41,2-1.74,5.32-2.11,8.49l.39,9.47c.21,2.35-.07,2.58,1.79,3.7"/><path class="cls-1" d="M598.64,793c1.37-.23,1.67-.7,2.84-.91,2.92.11,2.4,1.3,4.94-2,2.92-3.79.06-8.83.06-10.72,0-4.14.79-4-.2-8-.76-3.12-1.62-4.21-3-4.81a12.11,12.11,0,0,0-2.14.43c-.7.07-1.33-.18-1.81,0a4.18,4.18,0,0,0-2.71,3.65,26.23,26.23,0,0,0-.11,7.12c.23,1.44-.27,2.62-.27,4,0,2.74.13,9.35,2.43,11.21"/><path class="cls-1" d="M781.48,798.44c1.58,0,1.63,1.22,3.48.29,1.66-.83,1.33-1.79,1.32-2.69s.93-1.5.93-2.72a40,40,0,0,0-.46-5.31c-.2-1.85.3-3.92-.17-5.72s-1.76-2.94-1.76-4.92c-.76-1.12-2.85-1.34-3.23.44-.11.47-2.18-.81-3.17-.12-1.63,1.13-1.74,1-2,2.72-.36,2.29.52,10.52.88,13.06.09.68-.3,3.17-.14,3.5a3.12,3.12,0,0,0,2.79,1.76,13.57,13.57,0,0,0,1.55-.29"/><path class="cls-1" d="M828.56,769.91c1.16.35,2.13,0,3.15,0s.69,1,3,.55c.73-.14,1.47-1.22,2-1.67a2.72,2.72,0,0,0,.33-3.38c-.79-1.68-.83-1.67-.2-3.75,1.19-3.89.57-4.42.26-7.72-.2-2.09-.35-5.36-1.52-6.55-.86-.88-2-.39-3.17-.34-.8,0-1.59-1.38-2.26-1.26a5.41,5.41,0,0,0-2.47,1.5c-.77,1.16-1.11,11.39-1,13.7a38.85,38.85,0,0,0,1.95,8.94"/><path class="cls-1" d="M806,667.46c0,2.41-.54,6.47-.11,9.5.11.77.51.47.77,1a2.94,2.94,0,0,0,2,.92c.51,0,.59-.23,1.28-.23,1,0,1.55.92,2.4,1.23a1.89,1.89,0,0,0,2-.54,9.73,9.73,0,0,0,1.77-5.46c0-1.21-.37-3.66-.53-5.36-.23-2.37.48-3.39.48-5.12,0-2.23.14-4.59-1.77-6.08-.46-.36-.93-1-1.41-1-.84,0-1.7.77-2.52.69s-1.33-.7-1.93-.73c-.37,0-.71.43-1,.66a5,5,0,0,0-1.8,4.06c-.08,2,.41,4.39.41,6.46"/><path class="cls-1" d="M754.57,442.47a26.09,26.09,0,0,0-2.87-5.65c-.7-.71-.78-1.81-1.48-2.55v-.48c-1.33-.62-2.5.38-3.58.46-.82.05-1.59-.54-2.32.36a7.17,7.17,0,0,0-1.14,2.54,28.48,28.48,0,0,0-1.23,6.09c0,3.19.31,2.62,0,5.45-.32,3.05.24,4.51.32,6.77.05,1.22,1.12,2.26,2.33,1.49,1.47.24,2.73.94,3.92.83a4.58,4.58,0,0,0,1.68-.64v-.39a7.94,7.94,0,0,1,.86-.46c2.17-1,3.06-6.48,3.14-8.64s.5-.16.14-3.71C754.24,442.77,754.57,444,754.57,442.47Z"/><path class="cls-1" d="M751.26,589.86a3.13,3.13,0,0,0-1.71.59v.35a3.23,3.23,0,0,1-.7.27c-1.1.27-.15.28-.82.38a1.21,1.21,0,0,0-.78.32c-1.37,2-2.18,3.15-2.28,7.24a27.06,27.06,0,0,0,.08,5.38c1,2.61,1.54,4.83,2.35,5,1.44.23,1.44-.86,2.15-.9h.06c1.69,0,2.57.21,4.1-.62,2-2.33,1.65-4.22,1.65-7.37C755.37,597,757,590.83,751.26,589.86Z"/><path class="cls-1" d="M473.68,719.52a9.69,9.69,0,0,1-.52-2.5h0c.07-1.58.71-2.43.76-3.37a4.05,4.05,0,0,0-1.12-2.83,8.5,8.5,0,0,0-3.45-3.07c-1.32-.51-1.75.06-3.73.68-.95.29-1.69-.49-2.23-.16-.85.52-1.76,2.61-1.76,3.94,0,1.07.08,3.11.24,5.48h.05c.06.92.14,1.86.23,2.82.27,2.89-.47,5.14-.24,6.38.4,2.07,1.17,2.4,2.25,2.79,3,.73,2.63,0,4.87-.73,1.63-.55,2.22.87,3,.52,2.71-1.24,1.46-3,2.42-5.42C475.53,721.31,474.49,721.72,473.68,719.52Z"/><path class="cls-1" d="M594.69,717h-.07c-.22-2.09-.48-4.1-.51-5.91-.08-4.7.37-1.48-.94-5.4a4.75,4.75,0,0,0-3.11-2.67c-.64-.19-1.32.46-2,.53-.81.08-1.6-.35-2.26.27-1.06,1-1.79,2.76-1.77,5.61,0,2.44-.54,5.13-.7,7.57h0c0,.2,0,.39,0,.58,0,1.71.38,7.89,2.3,8.57a2.47,2.47,0,0,1,1.07.37c.78.43,1.63,1.4,3,1.43.71,0,1.49-.59,2.32-.84.64-.18,1.63,0,2.32-.35A27.91,27.91,0,0,0,594.69,717Z"/><path class="cls-1" d="M754.82,718.49a7.21,7.21,0,0,1-.18-1.47h0c0-1.88.19-3.75-1.49-5.09a7.89,7.89,0,0,0-2.92-1.54v-.14a2.68,2.68,0,0,0-.49,0l-.18,0v0a13.1,13.1,0,0,0-2.14.86c-1.4.57-1.61.49-2.1,1.56a17.43,17.43,0,0,0-.86,4.3h-.08a35.25,35.25,0,0,0-.21,5.91c.38,2.79-.91,5.71,2,7.62,2.46,1.66,2.2,1.83,4.06,1.2v-.23l1-.34c1.54-.48,1.29-.89,1.67-2.1S756.73,726.67,754.82,718.49Z"/><path class="cls-1" d="M709.77,511.77c1.08-.47,1.34-1.1,2.12-1.22,1.87-.29,1.86.06,3.65.63.74.23,1.28-1.87,1.51-3.17.18-1.1.11-1.21.66-4.84a27.55,27.55,0,0,0,.42-3.33c0-2.18-.84-2.21-.84-6.94,0-1.43.58-1.39-.12-2-.29-.26-.82-1.29-1.72-1.53-.71-.2-1.4.28-2.16.27-.57,0-1.2-.62-1.87-.54a4,4,0,0,0-1.72,1c-2.43,2-1.75,5.32-2.12,8.49l.39,9.47c.21,2.35-.07,2.58,1.8,3.7"/><path class="cls-1" d="M502.9,678.38c1.07-.47,1.33-1.1,2.11-1.22,1.87-.29,1.86.06,3.65.63.74.23,1.29-1.87,1.51-3.17.19-1.1.11-1.21.66-4.84a27.55,27.55,0,0,0,.42-3.33c0-2.18-.84-2.21-.84-6.94,0-1.43.58-1.39-.11-2-.3-.26-.82-1.29-1.73-1.53-.71-.2-1.4.28-2.16.27-.57,0-1.2-.62-1.87-.54a4,4,0,0,0-1.72,1c-2.42,2-1.74,5.32-2.12,8.49l.39,9.47c.22,2.35-.07,2.58,1.81,3.7"/><path class="cls-1" d="M667.29,753c1.74.92,2.64.57,4.85.61.71,0,.71,1.12,2.15.89.81-.13,1.39-2.34,2.34-4.94a25.72,25.72,0,0,0,.09-5.35c-.1-4.07-.92-5.22-2.29-7.19a1.07,1.07,0,0,0-.78-.32c-.66-.1.29-.12-.81-.38s-2.25-1.35-3.09-1.21c-5.78,1-4.13,7.1-4.12,10.56,0,3.12-.4,5,1.66,7.33"/></svg>