<svg id="Capa_1" data-name="Capa 1" xmlns="http://www.w3.org/2000/svg" viewBox="0 0 850.39 850.39"><defs><style>.cls-1,.cls-2,.cls-3{fill:#1d1d1b;}.cls-1{fill-rule:evenodd;}.cls-2{stroke:#e4d6b9;stroke-miterlimit:22.93;stroke-width:0.57px;}</style></defs><path class="cls-1" d="M565,451.8a9.8,9.8,0,1,1-9.8,9.8A9.8,9.8,0,0,1,565,451.8Z"/><path class="cls-2" d="M565,451.8a9.8,9.8,0,1,1-9.8,9.8A9.8,9.8,0,0,1,565,451.8Z"/><path class="cls-1" d="M585.79,578.46a9.8,9.8,0,1,1-9.79,9.8A9.8,9.8,0,0,1,585.79,578.46Z"/><path class="cls-2" d="M585.79,578.46a9.8,9.8,0,1,1-9.79,9.8A9.8,9.8,0,0,1,585.79,578.46Z"/><path class="cls-1" d="M710.44,537.6a9.8,9.8,0,1,1-9.8,9.8A9.79,9.79,0,0,1,710.44,537.6Z"/><path class="cls-2" d="M710.44,537.6a9.8,9.8,0,1,1-9.8,9.8A9.79,9.79,0,0,1,710.44,537.6Z"/><path class="cls-1" d="M788.17,447.26a9.8,9.8,0,1,1-9.8,9.8A9.79,9.79,0,0,1,788.17,447.26Z"/><path class="cls-2" d="M788.17,447.26a9.8,9.8,0,1,1-9.8,9.8A9.79,9.79,0,0,1,788.17,447.26Z"/><path class="cls-1" d="M667.83,651.2A9.8,9.8,0,1,1,658,661,9.8,9.8,0,0,1,667.83,651.2Z"/><path class="cls-2" d="M667.83,651.2A9.8,9.8,0,1,1,658,661,9.8,9.8,0,0,1,667.83,651.2Z"/><path class="cls-1" d="M551.94,732.05a9.8,9.8,0,1,1-9.79,9.8A9.79,9.79,0,0,1,551.94,732.05Z"/><path class="cls-2" d="M551.94,732.05a9.8,9.8,0,1,1-9.79,9.8A9.79,9.79,0,0,1,551.94,732.05Z"/><path class="cls-1" d="M772,733.58a9.8,9.8,0,1,1-9.8,9.79A9.79,9.79,0,0,1,772,733.58Z"/><path class="cls-2" d="M772,733.58a9.8,9.8,0,1,1-9.8,9.79A9.79,9.79,0,0,1,772,733.58Z"/><circle class="cls-3" cx="705.4" cy="816.53" r="9.8" transform="translate(-13.23 11.62) rotate(-0.93)"/><circle class="cls-2" cx="705.4" cy="816.53" r="9.8" transform="translate(-13.23 11.62) rotate(-0.93)"/><path class="cls-1" d="M497.22,823.43a9.8,9.8,0,1,1-9.8,9.8A9.8,9.8,0,0,1,497.22,823.43Z"/><path class="cls-2" d="M497.22,823.43a9.8,9.8,0,1,1-9.8,9.8A9.8,9.8,0,0,1,497.22,823.43Z"/><path class="cls-1" d="M824,601.43a9.8,9.8,0,1,1-9.8,9.79A9.79,9.79,0,0,1,824,601.43Z"/><path class="cls-2" d="M824,601.43a9.8,9.8,0,1,1-9.8,9.79A9.79,9.79,0,0,1,824,601.43Z"/><path class="cls-1" d="M466.28,697.45a9.8,9.8,0,1,1-9.8,9.8A9.79,9.79,0,0,1,466.28,697.45Z"/><path class="cls-2" d="M466.28,697.45a9.8,9.8,0,1,1-9.8,9.8A9.79,9.79,0,0,1,466.28,697.45Z"/><circle class="cls-3" cx="484.82" cy="512.53" r="9.8" transform="translate(-6.88 6.59) rotate(-0.77)"/><circle class="cls-2" cx="484.82" cy="512.53" r="9.8" transform="translate(-6.88 6.59) rotate(-0.77)"/><circle class="cls-3" cx="125.12" cy="461.6" r="9.8" transform="translate(-339.46 575.15) rotate(-88.57)"/><circle class="cls-2" cx="125.12" cy="461.6" r="9.8" transform="translate(-339.46 575.15) rotate(-88.57)"/><path class="cls-1" d="M145.9,578.46a9.8,9.8,0,1,1-9.79,9.8A9.8,9.8,0,0,1,145.9,578.46Z"/><path class="cls-2" d="M145.9,578.46a9.8,9.8,0,1,1-9.79,9.8A9.8,9.8,0,0,1,145.9,578.46Z"/><path class="cls-1" d="M270.55,537.6a9.8,9.8,0,1,1-9.8,9.8A9.79,9.79,0,0,1,270.55,537.6Z"/><path class="cls-2" d="M270.55,537.6a9.8,9.8,0,1,1-9.8,9.8A9.79,9.79,0,0,1,270.55,537.6Z"/><path class="cls-1" d="M348.28,447.26a9.8,9.8,0,1,1-9.8,9.8A9.79,9.79,0,0,1,348.28,447.26Z"/><path class="cls-2" d="M348.28,447.26a9.8,9.8,0,1,1-9.8,9.8A9.79,9.79,0,0,1,348.28,447.26Z"/><circle class="cls-3" cx="227.94" cy="661" r="9.8"/><circle class="cls-2" cx="227.94" cy="661" r="9.8"/><circle class="cls-3" cx="112.05" cy="741.85" r="9.8" transform="translate(-632.14 837.02) rotate(-88.7)"/><circle class="cls-2" cx="112.05" cy="741.85" r="9.8" transform="translate(-632.14 837.02) rotate(-88.7)"/><path class="cls-1" d="M332.08,733.58a9.8,9.8,0,1,1-9.8,9.79A9.79,9.79,0,0,1,332.08,733.58Z"/><path class="cls-2" d="M332.08,733.58a9.8,9.8,0,1,1-9.8,9.79A9.79,9.79,0,0,1,332.08,733.58Z"/><circle class="cls-3" cx="265.51" cy="816.53" r="9.8" transform="translate(-554.61 1070.73) rotate(-89.21)"/><circle class="cls-2" cx="265.51" cy="816.53" r="9.8" transform="translate(-554.61 1070.73) rotate(-89.21)"/><path class="cls-1" d="M57.33,823.43a9.8,9.8,0,1,1-9.8,9.8A9.8,9.8,0,0,1,57.33,823.43Z"/><path class="cls-2" d="M57.33,823.43a9.8,9.8,0,1,1-9.8,9.8A9.8,9.8,0,0,1,57.33,823.43Z"/><path class="cls-1" d="M384.12,601.43a9.8,9.8,0,1,1-9.8,9.79A9.79,9.79,0,0,1,384.12,601.43Z"/><path class="cls-2" d="M384.12,601.43a9.8,9.8,0,1,1-9.8,9.79A9.79,9.79,0,0,1,384.12,601.43Z"/><path class="cls-1" d="M26.39,697.45a9.8,9.8,0,1,1-9.8,9.8A9.79,9.79,0,0,1,26.39,697.45Z"/><path class="cls-2" d="M26.39,697.45a9.8,9.8,0,1,1-9.8,9.8A9.79,9.79,0,0,1,26.39,697.45Z"/><circle class="cls-3" cx="44.93" cy="512.53" r="9.8" transform="translate(-468.61 543.98) rotate(-88.49)"/><circle class="cls-2" cx="44.93" cy="512.53" r="9.8" transform="translate(-468.61 543.98) rotate(-88.49)"/><path class="cls-1" d="M565,11.91a9.8,9.8,0,1,1-9.8,9.8A9.8,9.8,0,0,1,565,11.91Z"/><path class="cls-2" d="M565,11.91a9.8,9.8,0,1,1-9.8,9.8A9.8,9.8,0,0,1,565,11.91Z"/><path class="cls-1" d="M585.79,138.57a9.8,9.8,0,1,1-9.79,9.8A9.8,9.8,0,0,1,585.79,138.57Z"/><path class="cls-2" d="M585.79,138.57a9.8,9.8,0,1,1-9.79,9.8A9.8,9.8,0,0,1,585.79,138.57Z"/><path class="cls-1" d="M710.44,97.71a9.8,9.8,0,1,1-9.8,9.79A9.79,9.79,0,0,1,710.44,97.71Z"/><path class="cls-2" d="M710.44,97.71a9.8,9.8,0,1,1-9.8,9.79A9.79,9.79,0,0,1,710.44,97.71Z"/><path class="cls-1" d="M788.17,7.37a9.8,9.8,0,1,1-9.8,9.8A9.79,9.79,0,0,1,788.17,7.37Z"/><path class="cls-2" d="M788.17,7.37a9.8,9.8,0,1,1-9.8,9.8A9.79,9.79,0,0,1,788.17,7.37Z"/><path class="cls-1" d="M667.83,211.31a9.8,9.8,0,1,1-9.79,9.8A9.8,9.8,0,0,1,667.83,211.31Z"/><path class="cls-2" d="M667.83,211.31a9.8,9.8,0,1,1-9.79,9.8A9.8,9.8,0,0,1,667.83,211.31Z"/><path class="cls-1" d="M551.94,292.16a9.8,9.8,0,1,1-9.79,9.79A9.79,9.79,0,0,1,551.94,292.16Z"/><path class="cls-2" d="M551.94,292.16a9.8,9.8,0,1,1-9.79,9.79A9.79,9.79,0,0,1,551.94,292.16Z"/><path class="cls-1" d="M772,293.69a9.8,9.8,0,1,1-9.8,9.79A9.79,9.79,0,0,1,772,293.69Z"/><path class="cls-2" d="M772,293.69a9.8,9.8,0,1,1-9.8,9.79A9.79,9.79,0,0,1,772,293.69Z"/><path class="cls-1" d="M705.4,366.84a9.8,9.8,0,1,1-9.8,9.79A9.79,9.79,0,0,1,705.4,366.84Z"/><path class="cls-2" d="M705.4,366.84a9.8,9.8,0,1,1-9.8,9.79A9.79,9.79,0,0,1,705.4,366.84Z"/><path class="cls-1" d="M497.22,383.54a9.8,9.8,0,1,1-9.8,9.8A9.8,9.8,0,0,1,497.22,383.54Z"/><path class="cls-2" d="M497.22,383.54a9.8,9.8,0,1,1-9.8,9.8A9.8,9.8,0,0,1,497.22,383.54Z"/><path class="cls-1" d="M824,161.54a9.8,9.8,0,1,1-9.8,9.79A9.79,9.79,0,0,1,824,161.54Z"/><path class="cls-2" d="M824,161.54a9.8,9.8,0,1,1-9.8,9.79A9.79,9.79,0,0,1,824,161.54Z"/><path class="cls-1" d="M466.28,257.56a9.8,9.8,0,1,1-9.8,9.8A9.79,9.79,0,0,1,466.28,257.56Z"/><path class="cls-2" d="M466.28,257.56a9.8,9.8,0,1,1-9.8,9.8A9.79,9.79,0,0,1,466.28,257.56Z"/><circle class="cls-3" cx="484.82" cy="72.64" r="9.8" transform="translate(-1.66 12.13) rotate(-1.43)"/><circle class="cls-2" cx="484.82" cy="72.64" r="9.8" transform="translate(-1.66 12.13) rotate(-1.43)"/><path class="cls-1" d="M125.12,11.91a9.8,9.8,0,1,1-9.8,9.8A9.8,9.8,0,0,1,125.12,11.91Z"/><path class="cls-2" d="M125.12,11.91a9.8,9.8,0,1,1-9.8,9.8A9.8,9.8,0,0,1,125.12,11.91Z"/><path class="cls-1" d="M145.9,138.57a9.8,9.8,0,1,1-9.79,9.8A9.8,9.8,0,0,1,145.9,138.57Z"/><path class="cls-2" d="M145.9,138.57a9.8,9.8,0,1,1-9.79,9.8A9.8,9.8,0,0,1,145.9,138.57Z"/><path class="cls-1" d="M270.55,97.71a9.8,9.8,0,1,1-9.8,9.79A9.79,9.79,0,0,1,270.55,97.71Z"/><path class="cls-2" d="M270.55,97.71a9.8,9.8,0,1,1-9.8,9.79A9.79,9.79,0,0,1,270.55,97.71Z"/><path class="cls-1" d="M348.28,7.37a9.8,9.8,0,1,1-9.8,9.8A9.79,9.79,0,0,1,348.28,7.37Z"/><path class="cls-2" d="M348.28,7.37a9.8,9.8,0,1,1-9.8,9.8A9.79,9.79,0,0,1,348.28,7.37Z"/><circle class="cls-3" cx="227.94" cy="221.11" r="9.8"/><circle class="cls-2" cx="227.94" cy="221.11" r="9.8"/><circle class="cls-3" cx="112.05" cy="301.95" r="9.8" transform="translate(-203.95 364.19) rotate(-80.78)"/><circle class="cls-2" cx="112.05" cy="301.95" r="9.8" transform="translate(-203.95 364.19) rotate(-80.78)"/><path class="cls-1" d="M332.08,293.69a9.8,9.8,0,1,1-9.8,9.79A9.79,9.79,0,0,1,332.08,293.69Z"/><path class="cls-2" d="M332.08,293.69a9.8,9.8,0,1,1-9.8,9.79A9.79,9.79,0,0,1,332.08,293.69Z"/><path class="cls-1" d="M265.51,366.84a9.8,9.8,0,1,1-9.8,9.79A9.79,9.79,0,0,1,265.51,366.84Z"/><path class="cls-2" d="M265.51,366.84a9.8,9.8,0,1,1-9.8,9.79A9.79,9.79,0,0,1,265.51,366.84Z"/><path class="cls-1" d="M57.33,383.54a9.8,9.8,0,1,1-9.8,9.8A9.8,9.8,0,0,1,57.33,383.54Z"/><path class="cls-2" d="M57.33,383.54a9.8,9.8,0,1,1-9.8,9.8A9.8,9.8,0,0,1,57.33,383.54Z"/><path class="cls-1" d="M384.12,161.54a9.8,9.8,0,1,1-9.8,9.79A9.79,9.79,0,0,1,384.12,161.54Z"/><path class="cls-2" d="M384.12,161.54a9.8,9.8,0,1,1-9.8,9.79A9.79,9.79,0,0,1,384.12,161.54Z"/><circle class="cls-3" cx="26.39" cy="267.36" r="9.8" transform="translate(-181.32 96.96) rotate(-45)"/><circle class="cls-2" cx="26.39" cy="267.36" r="9.8" transform="translate(-181.32 96.96) rotate(-45)"/><circle class="cls-3" cx="44.93" cy="72.64" r="9.8" transform="translate(-36.15 99.53) rotate(-76.61)"/><circle class="cls-2" cx="44.93" cy="72.64" r="9.8" transform="translate(-36.15 99.53) rotate(-76.61)"/></svg>