<svg id="Capa_1" data-name="Capa 1" xmlns="http://www.w3.org/2000/svg" viewBox="0 0 850.39 850.39"><defs><style>.cls-1,.cls-3{opacity:0.6;}.cls-2,.cls-3{fill:#f9d0d2;}</style></defs><g class="cls-1"><path class="cls-2" d="M85,850.39H56.69V0H85ZM141.73,0H113.39V850.39h28.34Z"/><path class="cls-2" d="M198.43,850.39H170.08V0h28.35V850.39ZM255.12,0H226.77V850.39h28.35Z"/><path class="cls-2" d="M311.81,850.39H283.47V0h28.34ZM368.5,0H340.16V850.39H368.5Z"/><path class="cls-2" d="M425.2,850.39H396.85V0H425.2ZM481.89,0H453.54V850.39h28.35Z"/><path class="cls-2" d="M28.35,850.39H0V0H28.35ZM538.58,0H510.23V850.39h28.35Zm56.69,0H566.93V850.39h28.34Z"/></g><rect class="cls-3" x="623.62" width="28.35" height="850.39"/><rect class="cls-3" x="680.31" width="28.35" height="850.39"/><path class="cls-3" d="M765.35,850.39H737V0h28.34ZM822,0H793.7V850.39H822Z"/><g class="cls-1"><path class="cls-2" d="M850.39,737v28.34H0V737ZM0,680.31v28.35H850.39V680.31Z"/><path class="cls-2" d="M850.39,623.62V652H0V623.62H850.39ZM0,566.93v28.34H850.39V566.93Z"/><path class="cls-2" d="M850.39,510.23v28.35H0V510.23ZM0,453.54v28.35H850.39V453.54Z"/><path class="cls-2" d="M850.39,396.85v28.34H0V396.85ZM0,340.16V368.5H850.39V340.16Z"/><path class="cls-2" d="M850.39,793.7V822H0V793.7ZM0,283.47v28.34H850.39V283.47Zm0-56.7v28.35H850.39V226.77Z"/></g><rect class="cls-3" y="170.08" width="850.39" height="28.35"/><rect class="cls-3" y="113.39" width="850.39" height="28.35"/><path class="cls-3" d="M850.39,56.69V85H0V56.69ZM0,0V28.35H850.39V0Z"/></svg>