<svg xmlns="http://www.w3.org/2000/svg" viewBox="0 0 850.39 850.39"><defs><style>.cls-1{fill:#ff7f00;}.cls-2{fill:#00a33d;}</style></defs><g id="Capa_2" data-name="Capa 2"><path class="cls-1" d="M15.58,63.12a2.81,2.81,0,0,0-1.19-.28c-.3,0-1,.13-1.18-.07.32-.34,1.1-.43,1.52-.58a4,4,0,0,0,1.46-.83A1.59,1.59,0,0,0,16.38,60a2,2,0,0,0-.8-1c-.28-.22-.66-.41-.7-.78l-.09-.13c-.7-.93-1.9-.7-2.78-.21A2.79,2.79,0,0,0,10.91,59a4.62,4.62,0,0,0-.48,1.63c-.23.07-.32-1-.33-1.12A12,12,0,0,0,10,58.18a5,5,0,0,0-.31-1.27c-.31-.66-1.16-1.21-1.75-.5-.14.17-.18.39-.38.52-.45.32-.95.08-1.42.27-.69.28-.35,1.08,0,1.51.17.23.45.29.63.48s.23.28.35.42.24.18.3.28c.21.34-.1.46-.37.3-.65-.4-1.1-1-1.86-1.31A1.59,1.59,0,0,0,3.87,59c-.4.31-.31.82-.33,1.27a1.49,1.49,0,0,0-1.22,1,2.43,2.43,0,0,0,.27,1.93c.05.11.21.24.23.35s0,.15,0,.25a1,1,0,0,0,.08.63c.49.75,1.52.06,2-.26a1.28,1.28,0,0,1,.71-.21c.16,0,.78,0,.84.2s-.37.23-.57.27-.39.26-.6.4-.34.13-.46.27-.51.78-.16,1.08.85.38.87.83a2.05,2.05,0,0,1-.11.6,1.57,1.57,0,0,0,.19,1.3c.55.73,2.12.4,2.78,0s1-1.44,1.36-2.2c.18-.32.56-.69.92-.46a3.7,3.7,0,0,1,.69.9,3.11,3.11,0,0,0,2.26,1.64,1.7,1.7,0,0,0,1.87-1.48c0-.39-.26-.81-.05-1.16s.54-.5.76-.79A1.67,1.67,0,0,0,15.58,63.12ZM10,64.1a1.4,1.4,0,0,1-1.47-.35,1.3,1.3,0,0,1,.26-2,2,2,0,0,1,1.27,0,1.21,1.21,0,0,1,.8,1.08A1.19,1.19,0,0,1,10,64.1Z"/><path class="cls-2" d="M4.34,51.49c0-.25,0-.52.06-.77s.17-.44.1-.53c.56.83,1.38,1.53,2,2.33a5,5,0,0,1,.69,1.12,4.27,4.27,0,0,1-.08,2.55c0,.1-.11.62-.2.66s-.25-.15-.32-.23a3,3,0,0,0-.9-.72,3,3,0,0,1-1.12-1.52A6.4,6.4,0,0,1,4.34,51.49Z"/><path class="cls-2" d="M17.74,64.91c-.12-.23-.21-.47-.31-.71,0-.08-.18-.65-.18-.65a5.4,5.4,0,0,0,1.42.66c.47.14.93.34,1.37.51a3.63,3.63,0,0,1,2,2,3.48,3.48,0,0,1,.24.8,3.52,3.52,0,0,0,.23.93,3,3,0,0,1-1.14-.38,7,7,0,0,1-1.3-.55,4.51,4.51,0,0,1-1-.75,2.85,2.85,0,0,1-.68-.87A3.83,3.83,0,0,1,17.74,64.91Z"/><path class="cls-2" d="M17.24,70.91A4.79,4.79,0,0,0,17,69.77c-.1-.41-.34-.76-.43-1.17a3.3,3.3,0,0,1-.12-.95,3,3,0,0,1,.2-1c.14-.37.33-.71.46-1.1a7.63,7.63,0,0,0,.37-1,5.82,5.82,0,0,0,0-.59c.24.09.5.54.66.76a5.24,5.24,0,0,1,.76,2.56,4.62,4.62,0,0,1-.9,3.11c-.1.16-.5.78-.72.75a2.16,2.16,0,0,1,0-.57"/><path class="cls-1" d="M243.59,65c.22.29.59.5.76.79s-.09.77,0,1.16a1.7,1.7,0,0,0,1.87,1.48,3.11,3.11,0,0,0,2.26-1.64,3.7,3.7,0,0,1,.69-.9c.36-.23.74.14.92.46.41.76.56,1.71,1.36,2.2s2.23.73,2.78,0a1.56,1.56,0,0,0,.19-1.3,2,2,0,0,1-.11-.6c0-.45.58-.58.87-.83s.08-.78-.16-1.08c-.12-.14-.31-.17-.46-.27s-.33-.35-.6-.4-.66.08-.57-.27.68-.2.84-.2a1.28,1.28,0,0,1,.71.21c.5.32,1.53,1,2,.26a1,1,0,0,0,.09-.62c0-.11-.1-.12-.06-.25s.18-.25.23-.35a2.44,2.44,0,0,0,.27-1.93,1.48,1.48,0,0,0-1.22-1c0-.45.07-1-.33-1.27a1.59,1.59,0,0,0-1.25-.1c-.76.26-1.21.91-1.86,1.3-.27.17-.58,0-.37-.3.06-.1.22-.19.3-.28s.22-.29.35-.42.47-.25.63-.48c.32-.42.66-1.23,0-1.51-.47-.19-1,0-1.42-.27-.2-.13-.24-.35-.38-.52-.59-.71-1.44-.16-1.75.5a5,5,0,0,0-.31,1.28,11.86,11.86,0,0,0-.14,1.35c0,.16-.1,1.19-.33,1.12a4.57,4.57,0,0,0-.48-1.62,2.75,2.75,0,0,0-1.1-1.19c-.88-.48-2.08-.72-2.78.21l-.09.13c0,.38-.42.56-.7.78a2,2,0,0,0-.8,1,1.57,1.57,0,0,0,.19,1.34,3.84,3.84,0,0,0,1.46.83c.42.16,1.2.25,1.52.58-.21.2-.88.06-1.18.07a2.82,2.82,0,0,0-1.19.29A1.66,1.66,0,0,0,243.59,65Zm5.32-2.48a1.21,1.21,0,0,1,.8-1.08,2,2,0,0,1,1.27.06,1.29,1.29,0,0,1,.26,1.95,1.36,1.36,0,0,1-1.47.35A1.19,1.19,0,0,1,248.91,62.55Z"/><path class="cls-2" d="M255.42,51.22c0-.25,0-.51-.06-.76s-.17-.45-.1-.54c-.56.84-1.38,1.53-2,2.34a4.76,4.76,0,0,0-.69,1.12,4.24,4.24,0,0,0,.08,2.54c0,.1.11.62.2.67s.26-.16.32-.24a3.11,3.11,0,0,1,.9-.72,3,3,0,0,0,1.12-1.52A6.4,6.4,0,0,0,255.42,51.22Z"/><path class="cls-2" d="M242,64.64c.12-.23.21-.47.31-.7,0-.08.18-.65.18-.65a5.93,5.93,0,0,1-1.42.66c-.47.13-.93.33-1.37.5a3.61,3.61,0,0,0-2,2,3.21,3.21,0,0,0-.24.8,3.45,3.45,0,0,1-.23.92,3.18,3.18,0,0,0,1.14-.37,8.74,8.74,0,0,0,1.3-.55,4.87,4.87,0,0,0,1-.76,2.68,2.68,0,0,0,.67-.87A3.58,3.58,0,0,0,242,64.64Z"/><path class="cls-2" d="M242.52,70.64a4.71,4.71,0,0,1,.22-1.13c.1-.41.34-.77.43-1.18a3.26,3.26,0,0,0,.12-1,2.89,2.89,0,0,0-.2-1c-.14-.38-.33-.72-.46-1.1a8.94,8.94,0,0,1-.37-1c0-.2,0-.4,0-.6-.24.09-.5.54-.66.77a5.2,5.2,0,0,0-.76,2.55,4.62,4.62,0,0,0,.9,3.11c.1.16.5.78.72.75a2.16,2.16,0,0,0,0-.57"/><path class="cls-1" d="M134,202.19c-.26-.26-.65-.41-.87-.67s0-.77-.13-1.15a1.7,1.7,0,0,0-2.08-1.17c-1.07.25-1.54,1.1-2,2a3.49,3.49,0,0,1-.54,1c-.32.29-.75,0-1-.31-.53-.69-.83-1.6-1.69-2-.71-.29-2.32-.38-2.75.43a1.58,1.58,0,0,0,0,1.31,2.08,2.08,0,0,1,.19.58c.06.44-.48.66-.72.95s0,.79.33,1,.33.13.49.2.38.3.65.3.65-.18.61.18-.64.31-.8.33a1.22,1.22,0,0,1-.73-.1c-.55-.23-1.68-.76-2,.06a1,1,0,0,0,0,.63c0,.1.11.1.1.24s-.15.27-.18.38a2.41,2.41,0,0,0,0,2,1.46,1.46,0,0,0,1.35.75c.09.44.08,1,.52,1.2a1.55,1.55,0,0,0,1.26-.09c.7-.38,1-1.08,1.63-1.58.24-.2.56-.12.41.25,0,.1-.19.22-.26.32a4.39,4.39,0,0,1-.27.47c-.16.22-.42.32-.56.57-.24.47-.45,1.32.27,1.49.5.11,1-.2,1.45,0,.22.1.29.32.46.46.68.61,1.44-.06,1.65-.76a4.8,4.8,0,0,0,.1-1.31,12.38,12.38,0,0,0-.06-1.36c0-.16-.1-1.19.14-1.16a4.68,4.68,0,0,0,.73,1.53,2.83,2.83,0,0,0,1.27,1c.94.34,2.17.39,2.71-.64a.87.87,0,0,1,.08-.14c0-.38.32-.62.57-.88a2.08,2.08,0,0,0,.63-1.16,1.64,1.64,0,0,0-.4-1.3,3.87,3.87,0,0,0-1.58-.59c-.43-.09-1.22-.06-1.59-.34.18-.23.86-.19,1.15-.25a2.82,2.82,0,0,0,1.14-.47A1.63,1.63,0,0,0,134,202.19Zm-4.87,3.27a1.21,1.21,0,0,1-.61,1.19,2,2,0,0,1-1.27.14,1.29,1.29,0,0,1-.56-1.89,1.36,1.36,0,0,1,1.39-.57A1.17,1.17,0,0,1,129.14,205.46Z"/><path class="cls-2" d="M124.47,217.66c.06.25.1.51.18.75s.23.41.18.51c.42-.91,1.13-1.72,1.61-2.62a5.14,5.14,0,0,0,.5-1.21,4.29,4.29,0,0,0-.47-2.5c0-.1-.21-.59-.3-.62s-.23.19-.29.28a2.85,2.85,0,0,1-.77.85,2.92,2.92,0,0,0-.87,1.67A6.45,6.45,0,0,0,124.47,217.66Z"/><path class="cls-2" d="M135.62,202.33c-.08.24-.13.49-.19.74,0,.08-.08.67-.08.67a5.91,5.91,0,0,1,1.3-.87,14.43,14.43,0,0,0,1.28-.71,3.67,3.67,0,0,0,1.62-2.29,3.26,3.26,0,0,0,.12-.83,3.62,3.62,0,0,1,.08-.94c-.35,0-.78.38-1.07.54a7.7,7.7,0,0,0-1.19.75,4.32,4.32,0,0,0-.91.9,2.74,2.74,0,0,0-.54,1A4,4,0,0,0,135.62,202.33Z"/><path class="cls-2" d="M134.2,196.48a4.42,4.42,0,0,1,0,1.15c0,.42-.21.81-.24,1.23a3.45,3.45,0,0,0,0,1,3.37,3.37,0,0,0,.35.93c.2.35.45.66.63,1a7.39,7.39,0,0,1,.52.91c.05.19.07.4.11.59.22-.13.41-.61.53-.86a5.28,5.28,0,0,0,.36-2.64,4.68,4.68,0,0,0-1.37-2.94c-.13-.14-.61-.69-.83-.62a2.26,2.26,0,0,0,.06.57"/><path class="cls-1" d="M362.87,202.9a2.77,2.77,0,0,0,1.1.54c.29.09,1,.09,1.14.34a4.55,4.55,0,0,1-1.61.22,3.94,3.94,0,0,0-1.61.49,1.62,1.62,0,0,0-.49,1.27A2,2,0,0,0,362,207c.23.27.55.54.51.91,0,0,0,.09.06.15.47,1.06,1.7,1.1,2.67.82a2.85,2.85,0,0,0,1.33-.91,4.64,4.64,0,0,0,.83-1.48c.24,0,.1,1,.07,1.17a12.42,12.42,0,0,0-.16,1.35,5.22,5.22,0,0,0,0,1.31c.16.71.87,1.44,1.6.88.18-.14.26-.34.49-.43.51-.21.94.13,1.45.05.73-.11.58-1,.36-1.46-.11-.26-.37-.38-.51-.61s-.16-.32-.25-.48-.19-.24-.23-.35c-.13-.37.2-.43.43-.21.55.53.84,1.26,1.52,1.69a1.62,1.62,0,0,0,1.25.17c.45-.21.48-.73.6-1.16a1.48,1.48,0,0,0,1.4-.66,2.43,2.43,0,0,0,.17-1.94c0-.12-.16-.28-.16-.4s.08-.13.12-.23a1,1,0,0,0,.05-.63c-.3-.84-1.46-.39-2-.2a1.22,1.22,0,0,1-.73.06c-.16,0-.77-.15-.78-.38s.41-.15.62-.14.44-.17.67-.26a1.78,1.78,0,0,0,.51-.16c.3-.24.67-.65.4-1s-.75-.56-.67-1a2.31,2.31,0,0,1,.24-.56,1.59,1.59,0,0,0,.11-1.31c-.38-.83-2-.86-2.72-.61s-1.24,1.18-1.81,1.84c-.25.27-.7.55-1,.24a3.73,3.73,0,0,1-.47-1,3.1,3.1,0,0,0-1.84-2.1,1.71,1.71,0,0,0-2.16,1c-.12.37.08.84-.2,1.14s-.64.37-.91.6A1.65,1.65,0,0,0,362.87,202.9Zm5.67.29a1.39,1.39,0,0,1,1.36.67,1.3,1.3,0,0,1-.69,1.85,2.08,2.08,0,0,1-1.26-.23,1.21,1.21,0,0,1-.53-1.23A1.19,1.19,0,0,1,368.54,203.19Z"/><path class="cls-2" d="M371.25,216.74c-.08.24-.13.5-.23.73s-.26.4-.21.51c-.36-.94-1-1.8-1.43-2.73A5.18,5.18,0,0,1,369,214a4.21,4.21,0,0,1,.64-2.46c.06-.1.25-.58.35-.61s.21.21.26.3a3,3,0,0,0,.71.91,2.88,2.88,0,0,1,.76,1.72A6.45,6.45,0,0,1,371.25,216.74Z"/><path class="cls-2" d="M361.17,200.69c.06.25.1.5.14.75,0,.08,0,.67,0,.67a6.13,6.13,0,0,0-1.24-1,14.13,14.13,0,0,1-1.22-.79,3.61,3.61,0,0,1-1.46-2.39,3.37,3.37,0,0,1-.07-.84,3.77,3.77,0,0,0,0-.95c.34,0,.75.44,1,.62a8.45,8.45,0,0,1,1.14.82,4.84,4.84,0,0,1,.84,1,2.48,2.48,0,0,1,.47,1A4.17,4.17,0,0,1,361.17,200.69Z"/><path class="cls-2" d="M363,195a4.92,4.92,0,0,0,0,1.15c0,.42.15.82.15,1.24a3.07,3.07,0,0,1-.09.95,2.89,2.89,0,0,1-.41.91c-.22.34-.48.63-.69,1a6.27,6.27,0,0,0-.58.87c-.07.19-.1.39-.16.58-.21-.14-.36-.64-.46-.89a5.12,5.12,0,0,1-.18-2.66,4.64,4.64,0,0,1,1.56-2.84c.14-.13.66-.65.87-.57a1.9,1.9,0,0,1-.1.57"/><path class="cls-1" d="M488.09,63.12a2.81,2.81,0,0,0-1.19-.28c-.3,0-1,.13-1.18-.07.32-.34,1.1-.43,1.52-.58a4,4,0,0,0,1.46-.83,1.59,1.59,0,0,0,.19-1.35,2,2,0,0,0-.8-1c-.28-.22-.66-.41-.7-.78l-.09-.13c-.7-.93-1.9-.7-2.78-.21a2.79,2.79,0,0,0-1.1,1.18,4.62,4.62,0,0,0-.48,1.63c-.23.07-.32-1-.33-1.12a12,12,0,0,0-.14-1.36,5.47,5.47,0,0,0-.3-1.27c-.32-.66-1.17-1.21-1.76-.5-.14.17-.18.39-.38.52-.45.32-.95.08-1.42.27-.69.28-.35,1.08,0,1.51.17.23.45.29.63.48s.23.28.35.42.24.18.3.28c.21.34-.1.46-.37.3-.65-.4-1.1-1-1.86-1.31a1.59,1.59,0,0,0-1.25.11c-.4.31-.31.82-.33,1.27a1.49,1.49,0,0,0-1.22,1,2.43,2.43,0,0,0,.27,1.93c0,.11.21.24.24.35s0,.15-.06.25a1,1,0,0,0,.08.63c.49.75,1.52.06,2-.26a1.28,1.28,0,0,1,.71-.21c.16,0,.78,0,.84.2s-.37.23-.57.27-.39.26-.6.4-.34.13-.46.27-.51.78-.16,1.08.85.38.87.83a2.05,2.05,0,0,1-.11.6,1.57,1.57,0,0,0,.19,1.3c.55.73,2.12.4,2.78,0s.95-1.44,1.36-2.2c.18-.32.56-.69.92-.46a3.7,3.7,0,0,1,.69.9,3.11,3.11,0,0,0,2.26,1.64A1.7,1.7,0,0,0,488,67.25c0-.39-.26-.81-.05-1.16s.54-.5.76-.79A1.67,1.67,0,0,0,488.09,63.12Zm-5.59,1a1.4,1.4,0,0,1-1.47-.35,1.3,1.3,0,0,1,.26-2,2.07,2.07,0,0,1,1.28,0,1.22,1.22,0,0,1,.79,1.08A1.19,1.19,0,0,1,482.5,64.1Z"/><path class="cls-2" d="M476.86,51.49a6.64,6.64,0,0,1,.05-.77c0-.11.17-.44.1-.53.56.83,1.38,1.53,2,2.33a5,5,0,0,1,.69,1.12,4.27,4.27,0,0,1-.08,2.55c0,.1-.11.62-.2.66s-.25-.15-.32-.23a3,3,0,0,0-.9-.72,3,3,0,0,1-1.12-1.52A6.26,6.26,0,0,1,476.86,51.49Z"/><path class="cls-2" d="M490.25,64.91c-.12-.23-.21-.47-.31-.71,0-.08-.18-.65-.18-.65a5.4,5.4,0,0,0,1.42.66c.47.14.93.34,1.37.51a3.63,3.63,0,0,1,2,2,3.48,3.48,0,0,1,.24.8,4,4,0,0,0,.23.93,3,3,0,0,1-1.14-.38,7,7,0,0,1-1.3-.55,4.51,4.51,0,0,1-1-.75,2.85,2.85,0,0,1-.68-.87A3.83,3.83,0,0,1,490.25,64.91Z"/><path class="cls-2" d="M489.75,70.91a4.79,4.79,0,0,0-.22-1.14c-.1-.41-.34-.76-.43-1.17a3.3,3.3,0,0,1-.12-.95,3,3,0,0,1,.2-1c.14-.37.33-.71.46-1.1a7.63,7.63,0,0,0,.37-1,5.82,5.82,0,0,0,0-.59c.24.09.5.54.66.76a5.24,5.24,0,0,1,.76,2.56,4.62,4.62,0,0,1-.9,3.11c-.1.16-.5.78-.72.75a2.16,2.16,0,0,1,0-.57"/><path class="cls-1" d="M716.1,65c.22.29.59.5.76.79s-.09.77-.05,1.16a1.7,1.7,0,0,0,1.87,1.48,3.11,3.11,0,0,0,2.26-1.64,3.7,3.7,0,0,1,.69-.9c.36-.23.74.14.92.46.41.76.56,1.71,1.36,2.2s2.23.73,2.78,0a1.56,1.56,0,0,0,.19-1.3,2.36,2.36,0,0,1-.11-.6c0-.45.58-.58.87-.83s.08-.78-.16-1.08c-.12-.14-.31-.17-.46-.27s-.33-.35-.6-.4-.66.08-.57-.27.68-.2.84-.2a1.28,1.28,0,0,1,.71.21c.5.32,1.53,1,2,.26a1,1,0,0,0,.09-.62c0-.11-.1-.12-.06-.25s.18-.25.24-.35A2.48,2.48,0,0,0,730,61a1.48,1.48,0,0,0-1.22-1c0-.45.07-1-.33-1.27a1.59,1.59,0,0,0-1.25-.1c-.76.26-1.21.91-1.86,1.3-.27.17-.58,0-.37-.3.06-.1.22-.19.3-.28s.22-.29.35-.42.47-.25.63-.48c.32-.42.66-1.23,0-1.51-.47-.19-1,0-1.42-.27-.2-.13-.24-.35-.38-.52-.59-.71-1.44-.16-1.75.5a4.6,4.6,0,0,0-.3,1.28,10,10,0,0,0-.15,1.35c0,.16-.1,1.19-.33,1.12a4.57,4.57,0,0,0-.48-1.62,2.75,2.75,0,0,0-1.1-1.19c-.88-.48-2.08-.72-2.78.21l-.09.13c0,.38-.42.56-.7.78a2,2,0,0,0-.8,1,1.57,1.57,0,0,0,.19,1.34,3.84,3.84,0,0,0,1.46.83c.42.16,1.2.25,1.52.58-.21.2-.88.06-1.18.07a2.82,2.82,0,0,0-1.19.29A1.66,1.66,0,0,0,716.1,65Zm5.32-2.48a1.21,1.21,0,0,1,.8-1.08,2,2,0,0,1,1.27.06,1.29,1.29,0,0,1,.26,1.95,1.36,1.36,0,0,1-1.47.35A1.19,1.19,0,0,1,721.42,62.55Z"/><path class="cls-2" d="M727.93,51.22c0-.25,0-.51-.06-.76s-.17-.45-.1-.54c-.56.84-1.38,1.53-2,2.34a4.76,4.76,0,0,0-.69,1.12,4.24,4.24,0,0,0,.08,2.54c0,.1.11.62.2.67s.26-.16.32-.24a3.11,3.11,0,0,1,.9-.72,3,3,0,0,0,1.12-1.52A6.4,6.4,0,0,0,727.93,51.22Z"/><path class="cls-2" d="M714.53,64.64c.12-.23.21-.47.31-.7,0-.08.18-.65.18-.65a5.93,5.93,0,0,1-1.42.66c-.46.13-.93.33-1.37.5a3.57,3.57,0,0,0-2,2,2.86,2.86,0,0,0-.25.8,3.45,3.45,0,0,1-.23.92,3.18,3.18,0,0,0,1.14-.37,8.74,8.74,0,0,0,1.3-.55,4.87,4.87,0,0,0,1-.76,2.85,2.85,0,0,0,.68-.87A3.83,3.83,0,0,0,714.53,64.64Z"/><path class="cls-2" d="M715,70.64a4.71,4.71,0,0,1,.22-1.13c.1-.41.34-.77.43-1.18a3.26,3.26,0,0,0,.12-1,2.89,2.89,0,0,0-.2-1c-.14-.38-.33-.72-.46-1.1a8.94,8.94,0,0,1-.37-1c0-.2,0-.4,0-.6-.24.09-.5.54-.65.77a5.11,5.11,0,0,0-.77,2.55,4.62,4.62,0,0,0,.9,3.11c.1.16.5.78.72.75a2.16,2.16,0,0,0,0-.57"/><path class="cls-1" d="M606.52,202.19c-.26-.26-.65-.41-.87-.67s0-.77-.12-1.15a1.71,1.71,0,0,0-2.09-1.17c-1.07.25-1.54,1.1-2,2a3.49,3.49,0,0,1-.54,1c-.32.29-.75,0-1-.31-.53-.69-.83-1.6-1.69-2s-2.31-.38-2.75.43a1.58,1.58,0,0,0,0,1.31,2.49,2.49,0,0,1,.2.58c0,.44-.49.66-.73.95s0,.79.33,1c.14.13.33.13.49.2s.38.3.65.3.65-.18.61.18-.64.31-.8.33a1.22,1.22,0,0,1-.73-.1c-.55-.23-1.68-.76-2,.06a1,1,0,0,0,0,.63c0,.1.11.1.1.24s-.15.27-.18.38a2.41,2.41,0,0,0,0,2,1.47,1.47,0,0,0,1.35.75c.09.44.08,1,.52,1.2a1.55,1.55,0,0,0,1.26-.09c.7-.38,1-1.08,1.63-1.58.24-.2.56-.12.41.25,0,.1-.19.22-.26.32a4.39,4.39,0,0,1-.27.47c-.16.22-.42.32-.56.57-.24.47-.45,1.32.27,1.49.5.11.95-.2,1.45,0,.22.1.29.32.46.46.68.61,1.44-.06,1.65-.76a4.8,4.8,0,0,0,.1-1.31,12.38,12.38,0,0,0-.06-1.36c0-.16-.1-1.19.14-1.16a4.68,4.68,0,0,0,.73,1.53,2.83,2.83,0,0,0,1.27,1c.94.34,2.17.39,2.71-.64a.87.87,0,0,1,.08-.14c0-.38.32-.62.57-.88a2.08,2.08,0,0,0,.63-1.16,1.64,1.64,0,0,0-.4-1.3,3.87,3.87,0,0,0-1.58-.59c-.43-.09-1.22-.06-1.59-.34.18-.23.86-.19,1.15-.25a2.76,2.76,0,0,0,1.14-.47A1.63,1.63,0,0,0,606.52,202.19Zm-4.87,3.27a1.21,1.21,0,0,1-.61,1.19,2,2,0,0,1-1.27.14,1.29,1.29,0,0,1-.56-1.89,1.36,1.36,0,0,1,1.39-.57A1.17,1.17,0,0,1,601.65,205.46Z"/><path class="cls-2" d="M597,217.66c.06.25.1.51.18.75s.23.41.18.51c.42-.91,1.13-1.72,1.61-2.62a4.75,4.75,0,0,0,.5-1.21,4.29,4.29,0,0,0-.47-2.5c-.05-.1-.21-.59-.3-.62s-.23.19-.29.28a2.85,2.85,0,0,1-.77.85,2.92,2.92,0,0,0-.87,1.67A6.45,6.45,0,0,0,597,217.66Z"/><path class="cls-2" d="M608.13,202.33c-.08.24-.13.49-.19.74,0,.08-.08.67-.08.67a5.91,5.91,0,0,1,1.3-.87,14.43,14.43,0,0,0,1.28-.71,3.67,3.67,0,0,0,1.62-2.29,3.26,3.26,0,0,0,.12-.83,3.62,3.62,0,0,1,.08-.94c-.34,0-.78.38-1.07.54a7.7,7.7,0,0,0-1.19.75,4.32,4.32,0,0,0-.91.9,2.74,2.74,0,0,0-.54,1A4,4,0,0,0,608.13,202.33Z"/><path class="cls-2" d="M606.71,196.48a4.42,4.42,0,0,1,0,1.15c0,.42-.21.81-.24,1.23a3.45,3.45,0,0,0,0,1,3.37,3.37,0,0,0,.35.93c.2.35.45.66.63,1a6.29,6.29,0,0,1,.52.91c0,.19.07.4.11.59.22-.13.41-.61.53-.86a5.17,5.17,0,0,0,.36-2.64,4.68,4.68,0,0,0-1.37-2.94c-.13-.14-.61-.69-.83-.62a2.26,2.26,0,0,0,.06.57"/><path class="cls-1" d="M835.38,202.9a2.77,2.77,0,0,0,1.1.54c.29.09,1,.09,1.14.34A4.55,4.55,0,0,1,836,204a3.94,3.94,0,0,0-1.61.49,1.62,1.62,0,0,0-.49,1.27,2,2,0,0,0,.55,1.2c.23.27.55.54.51.91,0,0,0,.09.06.15.47,1.06,1.7,1.1,2.67.82a2.85,2.85,0,0,0,1.33-.91,4.64,4.64,0,0,0,.83-1.48c.24,0,.1,1,.07,1.17a12.42,12.42,0,0,0-.16,1.35,5.22,5.22,0,0,0,0,1.31c.16.71.87,1.44,1.6.88.18-.14.26-.34.49-.43.51-.21.94.13,1.45.05.73-.11.58-1,.36-1.46-.11-.26-.37-.38-.51-.61s-.16-.32-.24-.48a3.64,3.64,0,0,1-.24-.35c-.13-.37.2-.43.43-.21.55.53.84,1.26,1.52,1.69a1.62,1.62,0,0,0,1.25.17c.45-.21.48-.73.6-1.16a1.48,1.48,0,0,0,1.4-.66,2.43,2.43,0,0,0,.17-1.94c0-.12-.16-.28-.16-.4s.08-.13.12-.23a1,1,0,0,0,.05-.63c-.3-.84-1.46-.39-2-.2a1.22,1.22,0,0,1-.73.06c-.16,0-.77-.15-.78-.38s.41-.15.62-.14.44-.17.67-.26a1.78,1.78,0,0,0,.51-.16c.3-.24.67-.65.4-1s-.75-.56-.67-1a2.31,2.31,0,0,1,.24-.56,1.59,1.59,0,0,0,.11-1.31c-.38-.83-2-.86-2.72-.61-.88.29-1.24,1.18-1.81,1.84-.25.27-.7.55-1,.24a3.73,3.73,0,0,1-.47-1,3.1,3.1,0,0,0-1.84-2.1,1.71,1.71,0,0,0-2.16,1c-.12.37.08.84-.2,1.14s-.64.37-.91.6A1.65,1.65,0,0,0,835.38,202.9Zm5.67.29a1.39,1.39,0,0,1,1.36.67,1.3,1.3,0,0,1-.69,1.85,2,2,0,0,1-1.25-.23,1.25,1.25,0,0,1,.58-2.29Z"/><path class="cls-2" d="M843.76,216.74c-.08.24-.13.5-.23.73s-.26.4-.21.51c-.36-.94-1-1.8-1.43-2.73a5.18,5.18,0,0,1-.42-1.24,4.21,4.21,0,0,1,.64-2.46c.06-.1.25-.58.35-.61s.21.21.26.3a2.9,2.9,0,0,0,.72.91,2.93,2.93,0,0,1,.75,1.72A6.45,6.45,0,0,1,843.76,216.74Z"/><path class="cls-2" d="M833.68,200.69c.06.25.1.5.14.75,0,.08,0,.67,0,.67a6.13,6.13,0,0,0-1.24-1,14.13,14.13,0,0,1-1.22-.79,3.61,3.61,0,0,1-1.46-2.39,3.37,3.37,0,0,1-.07-.84,3.36,3.36,0,0,0,0-.95c.34,0,.75.44,1,.62a8.45,8.45,0,0,1,1.14.82,4.84,4.84,0,0,1,.84,1,2.48,2.48,0,0,1,.47,1A3.83,3.83,0,0,1,833.68,200.69Z"/><path class="cls-2" d="M835.49,195a4.92,4.92,0,0,0,0,1.15c0,.42.15.82.15,1.24a3.39,3.39,0,0,1-.08.95,3.15,3.15,0,0,1-.42.91c-.22.34-.48.63-.69,1a6.27,6.27,0,0,0-.58.87c-.07.19-.1.39-.15.58-.22-.14-.37-.64-.47-.89a5.12,5.12,0,0,1-.18-2.66,4.64,4.64,0,0,1,1.56-2.84c.14-.13.66-.65.87-.57a1.9,1.9,0,0,1-.1.57"/><path class="cls-1" d="M15.58,353.9a2.67,2.67,0,0,0-1.19-.28c-.3,0-1,.13-1.18-.08.32-.33,1.1-.42,1.52-.57a3.86,3.86,0,0,0,1.46-.84,1.57,1.57,0,0,0,.19-1.34,2,2,0,0,0-.8-1.05c-.28-.21-.66-.4-.7-.78a.92.92,0,0,1-.09-.13c-.7-.93-1.9-.69-2.78-.2a2.73,2.73,0,0,0-1.1,1.18,4.57,4.57,0,0,0-.48,1.62c-.23.07-.32-1-.33-1.12A12.11,12.11,0,0,0,10,349a5,5,0,0,0-.31-1.28c-.31-.66-1.16-1.2-1.75-.5-.14.17-.18.39-.38.53-.45.31-.95.08-1.42.27-.69.27-.35,1.08,0,1.51.17.23.45.28.63.48a4.71,4.71,0,0,1,.35.41c.08.1.24.19.3.29.21.33-.1.46-.37.3-.65-.4-1.1-1-1.86-1.31a1.55,1.55,0,0,0-1.25.11c-.4.3-.31.82-.33,1.26a1.5,1.5,0,0,0-1.22,1,2.43,2.43,0,0,0,.27,1.93c.05.11.21.24.23.35s0,.14,0,.25a.92.92,0,0,0,.08.62c.49.76,1.52.06,2-.25a1.22,1.22,0,0,1,.71-.22c.16,0,.78,0,.84.2s-.37.24-.57.28-.39.25-.6.39-.34.13-.46.27c-.24.3-.51.78-.16,1.08s.85.39.87.83a2.12,2.12,0,0,1-.11.61,1.54,1.54,0,0,0,.19,1.29c.55.73,2.12.4,2.78,0s1-1.43,1.36-2.2c.18-.32.56-.69.92-.45a3.46,3.46,0,0,1,.69.89,3.06,3.06,0,0,0,2.26,1.64A1.69,1.69,0,0,0,15.46,358c0-.39-.26-.81-.05-1.16s.54-.51.76-.8A1.66,1.66,0,0,0,15.58,353.9Zm-5.59,1a1.36,1.36,0,0,1-1.47-.35,1.29,1.29,0,0,1,.26-1.95,2,2,0,0,1,1.27-.05,1.25,1.25,0,0,1-.06,2.35Z"/><path class="cls-2" d="M4.34,342.27c0-.26,0-.52.06-.77s.17-.44.1-.54c.56.84,1.38,1.53,2,2.34a5,5,0,0,1,.69,1.12A4.24,4.24,0,0,1,7.1,347c0,.11-.11.62-.2.67s-.25-.15-.32-.23a3,3,0,0,0-.9-.73,2.9,2.9,0,0,1-1.12-1.51A6.42,6.42,0,0,1,4.34,342.27Z"/><path class="cls-2" d="M17.74,355.68c-.12-.23-.21-.46-.31-.7,0-.08-.18-.65-.18-.65a5.4,5.4,0,0,0,1.42.66,12.44,12.44,0,0,1,1.37.51,3.63,3.63,0,0,1,2,2,3.21,3.21,0,0,1,.24.8,3.45,3.45,0,0,0,.23.92c-.34,0-.83-.26-1.14-.37a7.8,7.8,0,0,1-1.3-.55,4.87,4.87,0,0,1-1-.76,2.81,2.81,0,0,1-.68-.86A4.07,4.07,0,0,1,17.74,355.68Z"/><path class="cls-2" d="M17.24,361.68a4.71,4.71,0,0,0-.22-1.13c-.1-.41-.34-.77-.43-1.17a3.35,3.35,0,0,1-.12-.95,3,3,0,0,1,.2-1c.14-.38.33-.72.46-1.1a7.63,7.63,0,0,0,.37-1,5.91,5.91,0,0,0,0-.6c.24.1.5.55.66.77a5.23,5.23,0,0,1,.76,2.55,4.66,4.66,0,0,1-.9,3.12c-.1.16-.5.77-.72.74a2.16,2.16,0,0,1,0-.57"/><path class="cls-1" d="M243.59,355.81c.22.29.59.5.76.79s-.09.77,0,1.16a1.7,1.7,0,0,0,1.87,1.47,3.06,3.06,0,0,0,2.26-1.64,3.85,3.85,0,0,1,.69-.89c.36-.24.74.13.92.46.41.76.56,1.71,1.36,2.19s2.23.74,2.78,0a1.54,1.54,0,0,0,.19-1.29,2.11,2.11,0,0,1-.11-.6c0-.45.58-.59.87-.83s.08-.79-.16-1.08-.31-.17-.46-.27-.33-.36-.6-.4-.66.08-.57-.27.68-.21.84-.2a1.14,1.14,0,0,1,.71.21c.5.31,1.53,1,2,.26a1,1,0,0,0,.09-.63c0-.11-.1-.11-.06-.25s.18-.24.23-.35a2.43,2.43,0,0,0,.27-1.93,1.49,1.49,0,0,0-1.22-1c0-.45.07-1-.33-1.27a1.59,1.59,0,0,0-1.25-.11c-.76.27-1.21.91-1.86,1.31-.27.16-.58,0-.37-.3.06-.1.22-.19.3-.29s.22-.28.35-.41.47-.25.63-.48c.32-.43.66-1.23,0-1.51-.47-.19-1,.05-1.42-.27-.2-.14-.24-.36-.38-.53-.59-.7-1.44-.15-1.75.5a5,5,0,0,0-.31,1.28,12.11,12.11,0,0,0-.14,1.35c0,.16-.1,1.19-.33,1.13a4.62,4.62,0,0,0-.48-1.63,2.79,2.79,0,0,0-1.1-1.18c-.88-.49-2.08-.72-2.78.21l-.09.13c0,.37-.42.56-.7.77a2,2,0,0,0-.8,1,1.59,1.59,0,0,0,.19,1.35,4,4,0,0,0,1.46.83c.42.15,1.2.24,1.52.58-.21.2-.88.05-1.18.07a2.67,2.67,0,0,0-1.19.28A1.67,1.67,0,0,0,243.59,355.81Zm5.32-2.48a1.21,1.21,0,0,1,.8-1.08,2,2,0,0,1,1.27.05,1.3,1.3,0,0,1,.26,2,1.4,1.4,0,0,1-1.47.35A1.19,1.19,0,0,1,248.91,353.33Z"/><path class="cls-2" d="M255.42,342c0-.26,0-.52-.06-.77s-.17-.44-.1-.54c-.56.84-1.38,1.54-2,2.34a5,5,0,0,0-.69,1.12,4.24,4.24,0,0,0,.08,2.54c0,.11.11.62.2.67s.26-.15.32-.23a2.81,2.81,0,0,1,.9-.72,3,3,0,0,0,1.12-1.52A6.41,6.41,0,0,0,255.42,342Z"/><path class="cls-2" d="M242,355.42c.12-.24.21-.47.31-.71,0-.08.18-.65.18-.65a5.25,5.25,0,0,1-1.42.66,12.44,12.44,0,0,0-1.37.51,3.63,3.63,0,0,0-2,2,3.34,3.34,0,0,0-.24.8,3.52,3.52,0,0,1-.23.93,3,3,0,0,0,1.14-.38,7.8,7.8,0,0,0,1.3-.55,4.51,4.51,0,0,0,1-.75,2.79,2.79,0,0,0,.67-.87A3.9,3.9,0,0,0,242,355.42Z"/><path class="cls-2" d="M242.52,361.41a4.81,4.81,0,0,1,.22-1.13c.1-.41.34-.76.43-1.17a3.35,3.35,0,0,0,.12-.95,3,3,0,0,0-.2-1c-.14-.37-.33-.72-.46-1.1a7.63,7.63,0,0,1-.37-1,5.91,5.91,0,0,1,0-.6c-.24.1-.5.55-.66.77a5.24,5.24,0,0,0-.76,2.56,4.62,4.62,0,0,0,.9,3.11c.1.16.5.78.72.75a2.24,2.24,0,0,0,0-.58"/><path class="cls-1" d="M134,493c-.26-.25-.65-.4-.87-.67s0-.77-.13-1.15a1.7,1.7,0,0,0-2.08-1.17c-1.07.26-1.54,1.1-2,2a3.55,3.55,0,0,1-.54,1c-.32.28-.75,0-1-.31-.53-.69-.83-1.61-1.69-2-.71-.3-2.32-.38-2.75.43a1.58,1.58,0,0,0,0,1.31,1.91,1.91,0,0,1,.19.57c.06.45-.48.67-.72,1s0,.79.33,1,.33.12.49.2.38.3.65.3.65-.18.61.18-.64.31-.8.33a1.23,1.23,0,0,1-.73-.11c-.55-.23-1.68-.75-2,.07a1,1,0,0,0,0,.63c0,.1.11.09.1.23s-.15.27-.18.39a2.38,2.38,0,0,0,0,1.94,1.48,1.48,0,0,0,1.35.76c.09.44.08,1,.52,1.2a1.63,1.63,0,0,0,1.26-.09c.7-.38,1-1.08,1.63-1.58.24-.2.56-.12.41.24,0,.11-.19.22-.26.33a4.25,4.25,0,0,1-.27.46c-.16.22-.42.32-.56.58-.24.47-.45,1.32.27,1.48.5.12,1-.19,1.45.05.22.1.29.31.46.46.68.6,1.44-.07,1.65-.77A4.74,4.74,0,0,0,129,501a12.49,12.49,0,0,0-.06-1.36c0-.16-.1-1.19.14-1.16a4.59,4.59,0,0,0,.73,1.53,2.7,2.7,0,0,0,1.27,1c.94.35,2.17.4,2.71-.63l.08-.15c0-.37.32-.62.57-.87a2.11,2.11,0,0,0,.63-1.16,1.61,1.61,0,0,0-.4-1.3,4,4,0,0,0-1.58-.6,4.26,4.26,0,0,1-1.59-.33c.18-.23.86-.19,1.15-.26a2.67,2.67,0,0,0,1.14-.46A1.65,1.65,0,0,0,134,493Zm-4.87,3.27a1.2,1.2,0,0,1-.61,1.19,2,2,0,0,1-1.27.15,1.29,1.29,0,0,1-.56-1.89,1.38,1.38,0,0,1,1.39-.58A1.18,1.18,0,0,1,129.14,496.23Z"/><path class="cls-2" d="M124.47,508.43c.06.25.1.51.18.75s.23.41.18.52c.42-.91,1.13-1.73,1.61-2.62a5.14,5.14,0,0,0,.5-1.21,4.26,4.26,0,0,0-.47-2.5c0-.1-.21-.6-.3-.63s-.23.19-.29.28a2.85,2.85,0,0,1-.77.85,3,3,0,0,0-.87,1.67A6.44,6.44,0,0,0,124.47,508.43Z"/><path class="cls-2" d="M135.62,493.1c-.08.25-.13.5-.19.75,0,.08-.08.67-.08.66a5.91,5.91,0,0,1,1.3-.87,14.43,14.43,0,0,0,1.28-.71,3.64,3.64,0,0,0,1.62-2.28,3.4,3.4,0,0,0,.12-.83,3.74,3.74,0,0,1,.08-.95c-.35,0-.78.39-1.07.55a7.64,7.64,0,0,0-1.19.74,4.36,4.36,0,0,0-.91.91,2.79,2.79,0,0,0-.54,1A4.19,4.19,0,0,0,135.62,493.1Z"/><path class="cls-2" d="M134.2,487.25a4.48,4.48,0,0,1,0,1.16c0,.42-.21.81-.24,1.22a2.94,2.94,0,0,0,.37,1.9c.2.34.45.65.63,1a6.72,6.72,0,0,1,.52.91c.05.19.07.39.11.59.22-.13.41-.62.53-.86a5.32,5.32,0,0,0,.36-2.65,4.68,4.68,0,0,0-1.37-2.93c-.13-.14-.61-.69-.83-.63a2.21,2.21,0,0,0,.06.57"/><path class="cls-1" d="M362.87,493.68a2.77,2.77,0,0,0,1.1.54c.29.08,1,.09,1.14.33a4.55,4.55,0,0,1-1.61.23,3.93,3.93,0,0,0-1.61.48,1.64,1.64,0,0,0-.49,1.27,2,2,0,0,0,.55,1.2c.23.28.55.54.51.92l.06.14c.47,1.07,1.7,1.1,2.67.82a2.77,2.77,0,0,0,1.33-.91,4.49,4.49,0,0,0,.83-1.47c.24,0,.1,1,.07,1.16a12.72,12.72,0,0,0-.16,1.35,5.29,5.29,0,0,0,0,1.32c.16.71.87,1.43,1.6.87.18-.13.26-.34.49-.43.51-.2.94.14,1.45.06.73-.12.58-1,.36-1.47-.11-.26-.37-.38-.51-.61s-.16-.32-.25-.48-.19-.23-.23-.34c-.13-.38.2-.43.43-.21.55.53.84,1.25,1.52,1.68a1.58,1.58,0,0,0,1.25.18c.45-.21.48-.73.6-1.17a1.48,1.48,0,0,0,1.4-.66,2.43,2.43,0,0,0,.17-1.94c0-.11-.16-.28-.16-.39s.08-.13.12-.23a1,1,0,0,0,.05-.63c-.3-.84-1.46-.39-2-.2a1.14,1.14,0,0,1-.73.05c-.16,0-.77-.15-.78-.38s.41-.15.62-.14.44-.16.67-.25.36-.05.51-.17c.3-.23.67-.64.4-1s-.75-.56-.67-1a2.22,2.22,0,0,1,.24-.57,1.56,1.56,0,0,0,.11-1.3c-.38-.84-2-.86-2.72-.62s-1.24,1.19-1.81,1.84c-.25.28-.7.55-1,.25a3.73,3.73,0,0,1-.47-1,3.1,3.1,0,0,0-1.84-2.1,1.71,1.71,0,0,0-2.16,1c-.12.37.08.85-.2,1.14s-.64.37-.91.61A1.65,1.65,0,0,0,362.87,493.68Zm5.67.29a1.39,1.39,0,0,1,1.36.67,1.29,1.29,0,0,1-.69,1.84,2,2,0,0,1-1.26-.23,1.2,1.2,0,0,1-.53-1.23A1.18,1.18,0,0,1,368.54,494Z"/><path class="cls-2" d="M371.25,507.51c-.08.25-.13.51-.23.74s-.26.39-.21.5c-.36-.94-1-1.8-1.43-2.72a5.26,5.26,0,0,1-.42-1.25,4.2,4.2,0,0,1,.64-2.45c.06-.1.25-.58.35-.61s.21.21.26.3a2.86,2.86,0,0,0,.71.9,2.88,2.88,0,0,1,.76,1.73A6.38,6.38,0,0,1,371.25,507.51Z"/><path class="cls-2" d="M361.17,491.46c.06.25.1.5.14.76,0,.08,0,.67,0,.67a5.49,5.49,0,0,0-1.24-1,14.23,14.23,0,0,1-1.22-.8,3.58,3.58,0,0,1-1.46-2.38,3.45,3.45,0,0,1-.07-.84,3.77,3.77,0,0,0,0-1c.34,0,.75.44,1,.62a7.66,7.66,0,0,1,1.14.82,4.58,4.58,0,0,1,.84,1,2.51,2.51,0,0,1,.47,1A4.42,4.42,0,0,1,361.17,491.46Z"/><path class="cls-2" d="M363,485.72a5,5,0,0,0,0,1.16c0,.42.15.82.15,1.23a3,3,0,0,1-.5,1.87c-.22.33-.48.62-.69,1a5.72,5.72,0,0,0-.58.87c-.07.18-.1.39-.16.58a2.35,2.35,0,0,1-.46-.89,5.15,5.15,0,0,1-.18-2.67,4.61,4.61,0,0,1,1.56-2.83c.14-.14.66-.65.87-.57a1.78,1.78,0,0,1-.1.56"/><path class="cls-1" d="M488.09,353.9a2.67,2.67,0,0,0-1.19-.28c-.3,0-1,.13-1.18-.08.32-.33,1.1-.42,1.52-.57a3.86,3.86,0,0,0,1.46-.84,1.57,1.57,0,0,0,.19-1.34,2,2,0,0,0-.8-1.05c-.28-.21-.66-.4-.7-.78a.92.92,0,0,1-.09-.13c-.7-.93-1.9-.69-2.78-.2a2.73,2.73,0,0,0-1.1,1.18,4.57,4.57,0,0,0-.48,1.62c-.23.07-.32-1-.33-1.12a12.11,12.11,0,0,0-.14-1.35,5.43,5.43,0,0,0-.3-1.28c-.32-.66-1.17-1.2-1.76-.5-.14.17-.18.39-.38.53-.45.31-.95.08-1.42.27-.69.27-.35,1.08,0,1.51.17.23.45.28.63.48a4.71,4.71,0,0,1,.35.41c.08.1.24.19.3.29.21.33-.1.46-.37.3-.65-.4-1.1-1-1.86-1.31a1.55,1.55,0,0,0-1.25.11c-.4.3-.31.82-.33,1.26a1.5,1.5,0,0,0-1.22,1,2.43,2.43,0,0,0,.27,1.93c0,.11.21.24.24.35s0,.14-.06.25a1,1,0,0,0,.08.62c.49.76,1.52.06,2-.25a1.22,1.22,0,0,1,.71-.22c.16,0,.78,0,.84.2s-.37.24-.57.28-.39.25-.6.39-.34.13-.46.27c-.24.3-.51.78-.16,1.08s.85.39.87.83a2.12,2.12,0,0,1-.11.61,1.54,1.54,0,0,0,.19,1.29c.55.73,2.12.4,2.78,0s.95-1.43,1.36-2.2c.18-.32.56-.69.92-.45a3.46,3.46,0,0,1,.69.89,3.06,3.06,0,0,0,2.26,1.64A1.69,1.69,0,0,0,488,358c0-.39-.26-.81-.05-1.16s.54-.51.76-.8A1.66,1.66,0,0,0,488.09,353.9Zm-5.59,1a1.36,1.36,0,0,1-1.47-.35,1.29,1.29,0,0,1,.26-1.95,2.07,2.07,0,0,1,1.28-.05,1.2,1.2,0,0,1,.79,1.08A1.18,1.18,0,0,1,482.5,354.87Z"/><path class="cls-2" d="M476.86,342.27a6.49,6.49,0,0,1,.05-.77c0-.12.17-.44.1-.54.56.84,1.38,1.53,2,2.34a5,5,0,0,1,.69,1.12,4.24,4.24,0,0,1-.08,2.54c0,.11-.11.62-.2.67s-.25-.15-.32-.23a3,3,0,0,0-.9-.73,2.9,2.9,0,0,1-1.12-1.51A6.28,6.28,0,0,1,476.86,342.27Z"/><path class="cls-2" d="M490.25,355.68c-.12-.23-.21-.46-.31-.7,0-.08-.18-.65-.18-.65a5.4,5.4,0,0,0,1.42.66,12.44,12.44,0,0,1,1.37.51,3.63,3.63,0,0,1,2,2,3.21,3.21,0,0,1,.24.8,3.88,3.88,0,0,0,.23.92c-.34,0-.83-.26-1.14-.37a7.8,7.8,0,0,1-1.3-.55,4.87,4.87,0,0,1-1-.76,2.81,2.81,0,0,1-.68-.86A4.07,4.07,0,0,1,490.25,355.68Z"/><path class="cls-2" d="M489.75,361.68a4.71,4.71,0,0,0-.22-1.13c-.1-.41-.34-.77-.43-1.17a3.35,3.35,0,0,1-.12-.95,3,3,0,0,1,.2-1c.14-.38.33-.72.46-1.1a7.63,7.63,0,0,0,.37-1,5.91,5.91,0,0,0,0-.6c.24.1.5.55.66.77a5.23,5.23,0,0,1,.76,2.55,4.66,4.66,0,0,1-.9,3.12c-.1.16-.5.77-.72.74a2.16,2.16,0,0,1,0-.57"/><path class="cls-1" d="M716.1,355.81c.22.29.59.5.76.79s-.09.77-.05,1.16a1.7,1.7,0,0,0,1.87,1.47,3.06,3.06,0,0,0,2.26-1.64,3.85,3.85,0,0,1,.69-.89c.36-.24.74.13.92.46.41.76.56,1.71,1.36,2.19s2.23.74,2.78,0a1.54,1.54,0,0,0,.19-1.29,2.53,2.53,0,0,1-.11-.6c0-.45.58-.59.87-.83s.08-.79-.16-1.08-.31-.17-.46-.27-.33-.36-.6-.4-.66.08-.57-.27.68-.21.84-.2a1.14,1.14,0,0,1,.71.21c.5.31,1.53,1,2,.26a1,1,0,0,0,.09-.63c0-.11-.1-.11-.06-.25s.18-.24.24-.35a2.47,2.47,0,0,0,.26-1.93,1.49,1.49,0,0,0-1.22-1c0-.45.07-1-.33-1.27a1.59,1.59,0,0,0-1.25-.11c-.76.27-1.21.91-1.86,1.31-.27.16-.58,0-.37-.3.06-.1.22-.19.3-.29s.22-.28.35-.41.47-.25.63-.48c.32-.43.66-1.23,0-1.51-.47-.19-1,.05-1.42-.27-.2-.14-.24-.36-.38-.53-.59-.7-1.44-.15-1.75.5a4.6,4.6,0,0,0-.3,1.28,10.14,10.14,0,0,0-.15,1.35c0,.16-.1,1.19-.33,1.13a4.62,4.62,0,0,0-.48-1.63,2.79,2.79,0,0,0-1.1-1.18c-.88-.49-2.08-.72-2.78.21l-.09.13c0,.37-.42.56-.7.77a2,2,0,0,0-.8,1,1.59,1.59,0,0,0,.19,1.35,4,4,0,0,0,1.46.83c.42.15,1.2.24,1.52.58-.21.2-.88.05-1.18.07a2.67,2.67,0,0,0-1.19.28A1.67,1.67,0,0,0,716.1,355.81Zm5.32-2.48a1.21,1.21,0,0,1,.8-1.08,2,2,0,0,1,1.27.05,1.3,1.3,0,0,1,.26,2,1.4,1.4,0,0,1-1.47.35A1.19,1.19,0,0,1,721.42,353.33Z"/><path class="cls-2" d="M727.93,342c0-.26,0-.52-.06-.77s-.17-.44-.1-.54c-.56.84-1.38,1.54-2,2.34a5,5,0,0,0-.69,1.12,4.24,4.24,0,0,0,.08,2.54c0,.11.11.62.2.67s.26-.15.32-.23a2.81,2.81,0,0,1,.9-.72,3,3,0,0,0,1.12-1.52A6.41,6.41,0,0,0,727.93,342Z"/><path class="cls-2" d="M714.53,355.42c.12-.24.21-.47.31-.71,0-.08.18-.65.18-.65a5.25,5.25,0,0,1-1.42.66,13.24,13.24,0,0,0-1.37.51,3.58,3.58,0,0,0-2,2,3,3,0,0,0-.25.8,3.52,3.52,0,0,1-.23.93,3,3,0,0,0,1.14-.38,7.8,7.8,0,0,0,1.3-.55,4.51,4.51,0,0,0,1-.75,3,3,0,0,0,.68-.87A4.19,4.19,0,0,0,714.53,355.42Z"/><path class="cls-2" d="M715,361.41a4.81,4.81,0,0,1,.22-1.13c.1-.41.34-.76.43-1.17a3.35,3.35,0,0,0,.12-.95,3,3,0,0,0-.2-1c-.14-.37-.33-.72-.46-1.1a7.63,7.63,0,0,1-.37-1,5.91,5.91,0,0,1,0-.6c-.24.1-.5.55-.65.77a5.14,5.14,0,0,0-.77,2.56,4.62,4.62,0,0,0,.9,3.11c.1.16.5.78.72.75a2.24,2.24,0,0,0,0-.58"/><path class="cls-1" d="M606.52,493c-.26-.25-.65-.4-.87-.67s0-.77-.12-1.15a1.72,1.72,0,0,0-2.09-1.17c-1.07.26-1.54,1.1-2,2a3.55,3.55,0,0,1-.54,1c-.32.28-.75,0-1-.31-.53-.69-.83-1.61-1.69-2s-2.31-.38-2.75.43a1.58,1.58,0,0,0,0,1.31,2.27,2.27,0,0,1,.2.57c0,.45-.49.67-.73,1s0,.79.33,1c.14.12.33.12.49.2s.38.3.65.3.65-.18.61.18-.64.31-.8.33a1.23,1.23,0,0,1-.73-.11c-.55-.23-1.68-.75-2,.07a1,1,0,0,0,0,.63c0,.1.11.09.1.23s-.15.27-.18.39a2.38,2.38,0,0,0,0,1.94,1.49,1.49,0,0,0,1.35.76c.09.44.08,1,.52,1.2a1.63,1.63,0,0,0,1.26-.09c.7-.38,1-1.08,1.63-1.58.24-.2.56-.12.41.24,0,.11-.19.22-.26.33a4.25,4.25,0,0,1-.27.46c-.16.22-.42.32-.56.58-.24.47-.45,1.32.27,1.48.5.12.95-.19,1.45.05.22.1.29.31.46.46.68.6,1.44-.07,1.65-.77a4.74,4.74,0,0,0,.1-1.31,12.49,12.49,0,0,0-.06-1.36c0-.16-.1-1.19.14-1.16a4.59,4.59,0,0,0,.73,1.53,2.7,2.7,0,0,0,1.27,1c.94.35,2.17.4,2.71-.63l.08-.15c0-.37.32-.62.57-.87a2.11,2.11,0,0,0,.63-1.16,1.61,1.61,0,0,0-.4-1.3,4,4,0,0,0-1.58-.6,4.26,4.26,0,0,1-1.59-.33c.18-.23.86-.19,1.15-.26a2.62,2.62,0,0,0,1.14-.46A1.65,1.65,0,0,0,606.52,493Zm-4.87,3.27a1.2,1.2,0,0,1-.61,1.19,2,2,0,0,1-1.27.15,1.29,1.29,0,0,1-.56-1.89,1.38,1.38,0,0,1,1.39-.58A1.18,1.18,0,0,1,601.65,496.23Z"/><path class="cls-2" d="M597,508.43c.06.25.1.51.18.75s.23.41.18.52c.42-.91,1.13-1.73,1.61-2.62a4.75,4.75,0,0,0,.5-1.21,4.26,4.26,0,0,0-.47-2.5c-.05-.1-.21-.6-.3-.63s-.23.19-.29.28a2.85,2.85,0,0,1-.77.85,3,3,0,0,0-.87,1.67A6.44,6.44,0,0,0,597,508.43Z"/><path class="cls-2" d="M608.13,493.1c-.08.25-.13.5-.19.75,0,.08-.08.67-.08.66a5.91,5.91,0,0,1,1.3-.87,14.43,14.43,0,0,0,1.28-.71,3.64,3.64,0,0,0,1.62-2.28,3.4,3.4,0,0,0,.12-.83,3.74,3.74,0,0,1,.08-.95c-.34,0-.78.39-1.07.55a7.64,7.64,0,0,0-1.19.74,4.36,4.36,0,0,0-.91.91,2.79,2.79,0,0,0-.54,1A4.19,4.19,0,0,0,608.13,493.1Z"/><path class="cls-2" d="M606.71,487.25a4.48,4.48,0,0,1,0,1.16c0,.42-.21.81-.24,1.22a2.94,2.94,0,0,0,.37,1.9c.2.34.45.65.63,1a5.8,5.8,0,0,1,.52.91c0,.19.07.39.11.59.22-.13.41-.62.53-.86a5.21,5.21,0,0,0,.36-2.65,4.68,4.68,0,0,0-1.37-2.93c-.13-.14-.61-.69-.83-.63a2.21,2.21,0,0,0,.06.57"/><path class="cls-1" d="M835.38,493.68a2.77,2.77,0,0,0,1.1.54c.29.08,1,.09,1.14.33a4.55,4.55,0,0,1-1.61.23,3.93,3.93,0,0,0-1.61.48,1.64,1.64,0,0,0-.49,1.27,2,2,0,0,0,.55,1.2c.23.28.55.54.51.92l.06.14c.47,1.07,1.7,1.1,2.67.82a2.77,2.77,0,0,0,1.33-.91,4.49,4.49,0,0,0,.83-1.47c.24,0,.1,1,.07,1.16a12.72,12.72,0,0,0-.16,1.35,5.29,5.29,0,0,0,0,1.32c.16.71.87,1.43,1.6.87.18-.13.26-.34.49-.43.51-.2.94.14,1.45.06.73-.12.58-1,.36-1.47-.11-.26-.37-.38-.51-.61a4.3,4.3,0,0,1-.24-.48c-.06-.11-.2-.23-.24-.34-.13-.38.2-.43.43-.21.55.53.84,1.25,1.52,1.68a1.58,1.58,0,0,0,1.25.18c.45-.21.48-.73.6-1.17a1.48,1.48,0,0,0,1.4-.66,2.43,2.43,0,0,0,.17-1.94c0-.11-.16-.28-.16-.39s.08-.13.12-.23a1,1,0,0,0,.05-.63c-.3-.84-1.46-.39-2-.2a1.14,1.14,0,0,1-.73.05c-.16,0-.77-.15-.78-.38s.41-.15.62-.14.44-.16.67-.25.36-.05.51-.17.67-.64.4-1-.75-.56-.67-1a2.22,2.22,0,0,1,.24-.57,1.56,1.56,0,0,0,.11-1.3c-.38-.84-2-.86-2.72-.62-.88.3-1.24,1.19-1.81,1.84-.25.28-.7.55-1,.25a3.73,3.73,0,0,1-.47-1,3.1,3.1,0,0,0-1.84-2.1,1.71,1.71,0,0,0-2.16,1c-.12.37.08.85-.2,1.14s-.64.37-.91.61A1.65,1.65,0,0,0,835.38,493.68Zm5.67.29a1.39,1.39,0,0,1,1.36.67,1.29,1.29,0,0,1-.69,1.84,1.91,1.91,0,0,1-1.25-.23,1.25,1.25,0,0,1,.58-2.28Z"/><path class="cls-2" d="M843.76,507.51c-.08.25-.13.51-.23.74s-.26.39-.21.5c-.36-.94-1-1.8-1.43-2.72a5.26,5.26,0,0,1-.42-1.25,4.2,4.2,0,0,1,.64-2.45c.06-.1.25-.58.35-.61s.21.21.26.3a2.76,2.76,0,0,0,.72.9,2.93,2.93,0,0,1,.75,1.73A6.38,6.38,0,0,1,843.76,507.51Z"/><path class="cls-2" d="M833.68,491.46c.06.25.1.5.14.76,0,.08,0,.67,0,.67a5.49,5.49,0,0,0-1.24-1,14.23,14.23,0,0,1-1.22-.8,3.58,3.58,0,0,1-1.46-2.38,3.45,3.45,0,0,1-.07-.84,3.35,3.35,0,0,0,0-1c.34,0,.75.44,1,.62a7.66,7.66,0,0,1,1.14.82,4.58,4.58,0,0,1,.84,1,2.51,2.51,0,0,1,.47,1A4,4,0,0,1,833.68,491.46Z"/><path class="cls-2" d="M835.49,485.72a5,5,0,0,0,0,1.16c0,.42.15.82.15,1.23a3.47,3.47,0,0,1-.08,1,3.42,3.42,0,0,1-.42.91c-.22.33-.48.62-.69,1a5.72,5.72,0,0,0-.58.87,5.47,5.47,0,0,0-.15.58c-.22-.15-.37-.64-.47-.89a5.15,5.15,0,0,1-.18-2.67A4.61,4.61,0,0,1,834.6,486c.14-.14.66-.65.87-.57a1.78,1.78,0,0,1-.1.56"/><path class="cls-1" d="M15.58,644.67a3,3,0,0,0-1.19-.28c-.3,0-1,.13-1.18-.07.32-.33,1.1-.42,1.52-.58a3.84,3.84,0,0,0,1.46-.83,1.59,1.59,0,0,0,.19-1.35,2,2,0,0,0-.8-1c-.28-.22-.66-.41-.7-.78l-.09-.13c-.7-.93-1.9-.7-2.78-.21a2.75,2.75,0,0,0-1.1,1.19,4.57,4.57,0,0,0-.48,1.62c-.23.07-.32-1-.33-1.12a11.63,11.63,0,0,0-.14-1.35,5,5,0,0,0-.31-1.28c-.31-.66-1.16-1.21-1.75-.5-.14.17-.18.39-.38.52-.45.32-.95.08-1.42.27-.69.28-.35,1.09,0,1.51.17.23.45.29.63.48s.23.28.35.42.24.18.3.28c.21.34-.1.47-.37.3-.65-.4-1.1-1-1.86-1.3a1.59,1.59,0,0,0-1.25.1c-.4.31-.31.82-.33,1.27a1.48,1.48,0,0,0-1.22,1,2.41,2.41,0,0,0,.27,1.92c.05.11.21.25.23.36s0,.14,0,.24a1,1,0,0,0,.08.63c.49.75,1.52.06,2-.26a1.28,1.28,0,0,1,.71-.21c.16,0,.78,0,.84.2s-.37.24-.57.27-.39.26-.6.4-.34.13-.46.27c-.24.3-.51.78-.16,1.08s.85.38.87.83a2,2,0,0,1-.11.6,1.57,1.57,0,0,0,.19,1.3c.55.73,2.12.4,2.78,0s1-1.44,1.36-2.2c.18-.32.56-.69.92-.46a3.7,3.7,0,0,1,.69.9,3.11,3.11,0,0,0,2.26,1.64,1.7,1.7,0,0,0,1.87-1.48c0-.39-.26-.81-.05-1.16s.54-.5.76-.79A1.67,1.67,0,0,0,15.58,644.67Zm-5.59,1a1.36,1.36,0,0,1-1.47-.35,1.29,1.29,0,0,1,.26-1.95,2,2,0,0,1,1.27-.06,1.21,1.21,0,0,1,.8,1.08A1.19,1.19,0,0,1,10,645.65Z"/><path class="cls-2" d="M4.34,633c0-.25,0-.51.06-.77s.17-.44.1-.53c.56.84,1.38,1.53,2,2.34a4.76,4.76,0,0,1,.69,1.12,4.24,4.24,0,0,1-.08,2.54c0,.1-.11.62-.2.66s-.25-.15-.32-.23a3.11,3.11,0,0,0-.9-.72,3,3,0,0,1-1.12-1.52A6.4,6.4,0,0,1,4.34,633Z"/><path class="cls-2" d="M17.74,646.46c-.12-.23-.21-.47-.31-.71,0-.07-.18-.65-.18-.64a6.12,6.12,0,0,0,1.42.66c.47.13.93.33,1.37.5a3.63,3.63,0,0,1,2,2,3.41,3.41,0,0,1,.24.81,3.55,3.55,0,0,0,.23.92,3.18,3.18,0,0,1-1.14-.37,8.74,8.74,0,0,1-1.3-.55,4.87,4.87,0,0,1-1-.76,2.85,2.85,0,0,1-.68-.87A3.83,3.83,0,0,1,17.74,646.46Z"/><path class="cls-2" d="M17.24,652.46a4.79,4.79,0,0,0-.22-1.14c-.1-.4-.34-.76-.43-1.17a3.3,3.3,0,0,1-.12-.95,3,3,0,0,1,.2-1c.14-.37.33-.71.46-1.09a8.94,8.94,0,0,0,.37-1c0-.2,0-.4,0-.6.24.09.5.54.66.77a5.2,5.2,0,0,1,.76,2.55A4.62,4.62,0,0,1,18,652c-.1.16-.5.78-.72.75a2.16,2.16,0,0,1,0-.57"/><path class="cls-1" d="M243.59,646.58c.22.29.59.5.76.8s-.09.76,0,1.15a1.7,1.7,0,0,0,1.87,1.48,3.08,3.08,0,0,0,2.26-1.64,3.46,3.46,0,0,1,.69-.89c.36-.24.74.13.92.45.41.77.56,1.71,1.36,2.2s2.23.73,2.78,0a1.56,1.56,0,0,0,.19-1.3,2,2,0,0,1-.11-.6c0-.44.58-.58.87-.83s.08-.78-.16-1.08c-.12-.14-.31-.17-.46-.27s-.33-.35-.6-.4-.66.08-.57-.27.68-.2.84-.2a1.22,1.22,0,0,1,.71.22c.5.31,1.53,1,2,.25A1,1,0,0,0,257,645c0-.11-.1-.11-.06-.25s.18-.25.23-.35a2.44,2.44,0,0,0,.27-1.93,1.48,1.48,0,0,0-1.22-1c0-.44.07-1-.33-1.26a1.55,1.55,0,0,0-1.25-.11c-.76.27-1.21.91-1.86,1.31-.27.16-.58,0-.37-.31.06-.1.22-.19.3-.28s.22-.29.35-.42.47-.25.63-.48c.32-.42.66-1.23,0-1.5-.47-.2-1,0-1.42-.27-.2-.14-.24-.36-.38-.53-.59-.71-1.44-.16-1.75.5a5,5,0,0,0-.31,1.28,11.86,11.86,0,0,0-.14,1.35c0,.16-.1,1.19-.33,1.12a4.57,4.57,0,0,0-.48-1.62,2.73,2.73,0,0,0-1.1-1.18c-.88-.49-2.08-.73-2.78.2a.92.92,0,0,1-.09.13c0,.38-.42.56-.7.78a2,2,0,0,0-.8,1,1.57,1.57,0,0,0,.19,1.34,3.86,3.86,0,0,0,1.46.84c.42.15,1.2.24,1.52.57-.21.21-.88.06-1.18.08a2.67,2.67,0,0,0-1.19.28A1.66,1.66,0,0,0,243.59,646.58Zm5.32-2.47a1.21,1.21,0,0,1,.8-1.09,2,2,0,0,1,1.27.06,1.29,1.29,0,0,1,.26,1.95,1.36,1.36,0,0,1-1.47.35A1.18,1.18,0,0,1,248.91,644.11Z"/><path class="cls-2" d="M255.42,632.78c0-.26,0-.52-.06-.77s-.17-.44-.1-.54c-.56.84-1.38,1.53-2,2.34a4.76,4.76,0,0,0-.69,1.12,4.24,4.24,0,0,0,.08,2.54c0,.11.11.62.2.67s.26-.16.32-.24a3.11,3.11,0,0,1,.9-.72,2.94,2.94,0,0,0,1.12-1.51A6.42,6.42,0,0,0,255.42,632.78Z"/><path class="cls-2" d="M242,646.19c.12-.23.21-.46.31-.7,0-.08.18-.65.18-.65a5.93,5.93,0,0,1-1.42.66c-.47.13-.93.33-1.37.5a3.68,3.68,0,0,0-2,2,3.21,3.21,0,0,0-.24.8,3.45,3.45,0,0,1-.23.92c.34,0,.83-.26,1.14-.37a8.74,8.74,0,0,0,1.3-.55,4.87,4.87,0,0,0,1-.76,2.57,2.57,0,0,0,.67-.87A3.58,3.58,0,0,0,242,646.19Z"/><path class="cls-2" d="M242.52,652.19a4.71,4.71,0,0,1,.22-1.13c.1-.41.34-.77.43-1.17a3.37,3.37,0,0,0,.12-1,3,3,0,0,0-.2-1c-.14-.38-.33-.72-.46-1.1a7.63,7.63,0,0,1-.37-1,5.91,5.91,0,0,1,0-.6c-.24.1-.5.55-.66.77a5.2,5.2,0,0,0-.76,2.55,4.62,4.62,0,0,0,.9,3.11c.1.17.5.78.72.75a2.16,2.16,0,0,0,0-.57"/><path class="cls-1" d="M134,783.74c-.26-.26-.65-.41-.87-.67s0-.77-.13-1.15a1.7,1.7,0,0,0-2.08-1.17c-1.07.26-1.54,1.1-2,2a3.49,3.49,0,0,1-.54,1c-.32.29-.75,0-1-.31-.53-.69-.83-1.6-1.69-2-.71-.29-2.32-.38-2.75.43a1.58,1.58,0,0,0,0,1.31,2.08,2.08,0,0,1,.19.58c.06.45-.48.67-.72,1s0,.78.33,1,.33.12.49.19.38.3.65.31.65-.19.61.17-.64.31-.8.33a1.15,1.15,0,0,1-.73-.1c-.55-.23-1.68-.76-2,.06a1,1,0,0,0,0,.63c0,.11.11.1.1.24s-.15.27-.18.38a2.41,2.41,0,0,0,0,1.95,1.46,1.46,0,0,0,1.35.75c.09.44.08,1,.52,1.21a1.63,1.63,0,0,0,1.26-.09c.7-.39,1-1.09,1.63-1.58.24-.21.56-.13.41.24,0,.11-.19.22-.26.33s-.16.31-.27.46-.42.32-.56.57c-.24.47-.45,1.32.27,1.49.5.11,1-.2,1.45,0,.22.11.29.32.46.46.68.61,1.44-.06,1.65-.76a4.77,4.77,0,0,0,.1-1.31,12.49,12.49,0,0,0-.06-1.36c0-.16-.1-1.19.14-1.16a4.59,4.59,0,0,0,.73,1.53,2.83,2.83,0,0,0,1.27,1c.94.34,2.17.39,2.71-.64a.87.87,0,0,1,.08-.14c0-.38.32-.62.57-.88a2,2,0,0,0,.63-1.16,1.6,1.6,0,0,0-.4-1.29,3.88,3.88,0,0,0-1.58-.6,4.7,4.7,0,0,1-1.59-.33c.18-.24.86-.2,1.15-.26a2.8,2.8,0,0,0,1.14-.46A1.65,1.65,0,0,0,134,783.74ZM129.14,787a1.21,1.21,0,0,1-.61,1.19,2,2,0,0,1-1.27.14,1.29,1.29,0,0,1-.56-1.89,1.36,1.36,0,0,1,1.39-.57A1.17,1.17,0,0,1,129.14,787Z"/><path class="cls-2" d="M124.47,799.21c.06.25.1.51.18.75s.23.41.18.52c.42-.92,1.13-1.73,1.61-2.62a5.22,5.22,0,0,0,.5-1.22,4.24,4.24,0,0,0-.47-2.49c0-.1-.21-.6-.3-.63s-.23.19-.29.28a2.85,2.85,0,0,1-.77.85,2.92,2.92,0,0,0-.87,1.67A6.45,6.45,0,0,0,124.47,799.21Z"/><path class="cls-2" d="M135.62,783.88c-.08.25-.13.49-.19.74,0,.09-.08.67-.08.67a5.91,5.91,0,0,1,1.3-.87,14.43,14.43,0,0,0,1.28-.71,3.67,3.67,0,0,0,1.62-2.28,3.41,3.41,0,0,0,.12-.84,3.62,3.62,0,0,1,.08-.94c-.35,0-.78.38-1.07.54a7.7,7.7,0,0,0-1.19.75,4.36,4.36,0,0,0-.91.91,2.62,2.62,0,0,0-.54,1A4,4,0,0,0,135.62,783.88Z"/><path class="cls-2" d="M134.2,778a4.4,4.4,0,0,1,0,1.15c0,.42-.21.81-.24,1.23a3.45,3.45,0,0,0,0,1,3.25,3.25,0,0,0,.35.93c.2.35.45.66.63,1a8.21,8.21,0,0,1,.52.91c.05.19.07.4.11.59.22-.13.41-.61.53-.86a5.28,5.28,0,0,0,.36-2.64,4.63,4.63,0,0,0-1.37-2.93c-.13-.15-.61-.7-.83-.63a2.26,2.26,0,0,0,.06.57"/><path class="cls-1" d="M362.87,784.46a2.89,2.89,0,0,0,1.1.53c.29.09,1,.09,1.14.34a4.33,4.33,0,0,1-1.61.22,3.94,3.94,0,0,0-1.61.49,1.62,1.62,0,0,0-.49,1.27,2,2,0,0,0,.55,1.2c.23.27.55.54.51.91,0,0,0,.09.06.15.47,1.06,1.7,1.1,2.67.82a2.77,2.77,0,0,0,1.33-.91,4.53,4.53,0,0,0,.83-1.48c.24,0,.1,1,.07,1.17a12.42,12.42,0,0,0-.16,1.35,5.22,5.22,0,0,0,0,1.31c.16.71.87,1.44,1.6.88.18-.14.26-.34.49-.43.51-.21.94.13,1.45.05.73-.11.58-1,.36-1.46-.11-.26-.37-.38-.51-.61s-.16-.32-.25-.48-.19-.23-.23-.35c-.13-.37.2-.43.43-.21.55.54.84,1.26,1.52,1.69a1.58,1.58,0,0,0,1.25.17c.45-.21.48-.73.6-1.16a1.48,1.48,0,0,0,1.4-.66,2.43,2.43,0,0,0,.17-1.94c0-.12-.16-.28-.16-.4s.08-.12.12-.23a1,1,0,0,0,.05-.63c-.3-.84-1.46-.39-2-.19a1.3,1.3,0,0,1-.73,0c-.16,0-.77-.15-.78-.38s.41-.15.62-.14.44-.17.67-.26a1.78,1.78,0,0,0,.51-.16c.3-.23.67-.65.4-1s-.75-.56-.67-1a2.31,2.31,0,0,1,.24-.56,1.59,1.59,0,0,0,.11-1.31c-.38-.83-2-.86-2.72-.61s-1.24,1.19-1.81,1.84c-.25.27-.7.55-1,.24a3.6,3.6,0,0,1-.47-1,3.1,3.1,0,0,0-1.84-2.1,1.71,1.71,0,0,0-2.16,1c-.12.37.08.84-.2,1.14s-.64.37-.91.61A1.65,1.65,0,0,0,362.87,784.46Zm5.67.28a1.39,1.39,0,0,1,1.36.67,1.3,1.3,0,0,1-.69,1.85A2.08,2.08,0,0,1,368,787a1.21,1.21,0,0,1-.53-1.23A1.19,1.19,0,0,1,368.54,784.74Z"/><path class="cls-2" d="M371.25,798.29c-.08.24-.13.5-.23.74s-.26.39-.21.5c-.36-.94-1-1.8-1.43-2.72a5.41,5.41,0,0,1-.42-1.25,4.23,4.23,0,0,1,.64-2.46c.06-.1.25-.58.35-.6s.21.2.26.29a2.9,2.9,0,0,0,.71.91,2.88,2.88,0,0,1,.76,1.72A6.43,6.43,0,0,1,371.25,798.29Z"/><path class="cls-2" d="M361.17,782.24c.06.25.1.5.14.75,0,.09,0,.68,0,.67a5.75,5.75,0,0,0-1.24-.95c-.42-.24-.83-.53-1.22-.8a3.61,3.61,0,0,1-1.46-2.39,3.33,3.33,0,0,1-.07-.83,3.77,3.77,0,0,0,0-1c.34,0,.75.43,1,.61a8.52,8.52,0,0,1,1.14.83,4.79,4.79,0,0,1,.84,1,2.48,2.48,0,0,1,.47,1A4.17,4.17,0,0,1,361.17,782.24Z"/><path class="cls-2" d="M363,776.5a4.93,4.93,0,0,0,0,1.15c0,.42.15.82.15,1.24a3.16,3.16,0,0,1-.09,1,2.94,2.94,0,0,1-.41.9c-.22.34-.48.63-.69,1a5.82,5.82,0,0,0-.58.88c-.07.18-.1.38-.16.57-.21-.14-.36-.64-.46-.89a5.12,5.12,0,0,1-.18-2.66,4.67,4.67,0,0,1,1.56-2.84c.14-.13.66-.64.87-.56a1.84,1.84,0,0,1-.1.56"/><path class="cls-1" d="M488.09,644.67a3,3,0,0,0-1.19-.28c-.3,0-1,.13-1.18-.07.32-.33,1.1-.42,1.52-.58a3.84,3.84,0,0,0,1.46-.83,1.59,1.59,0,0,0,.19-1.35,2,2,0,0,0-.8-1c-.28-.22-.66-.41-.7-.78l-.09-.13c-.7-.93-1.9-.7-2.78-.21a2.75,2.75,0,0,0-1.1,1.19,4.57,4.57,0,0,0-.48,1.62c-.23.07-.32-1-.33-1.12a11.63,11.63,0,0,0-.14-1.35,5.43,5.43,0,0,0-.3-1.28c-.32-.66-1.17-1.21-1.76-.5-.14.17-.18.39-.38.52-.45.32-.95.08-1.42.27-.69.28-.35,1.09,0,1.51.17.23.45.29.63.48s.23.28.35.42.24.18.3.28c.21.34-.1.47-.37.3-.65-.4-1.1-1-1.86-1.3a1.59,1.59,0,0,0-1.25.1c-.4.31-.31.82-.33,1.27a1.48,1.48,0,0,0-1.22,1,2.41,2.41,0,0,0,.27,1.92c0,.11.21.25.24.36s0,.14-.06.24a1,1,0,0,0,.08.63c.49.75,1.52.06,2-.26a1.28,1.28,0,0,1,.71-.21c.16,0,.78,0,.84.2s-.37.24-.57.27-.39.26-.6.4-.34.13-.46.27c-.24.3-.51.78-.16,1.08s.85.38.87.83a2,2,0,0,1-.11.6,1.57,1.57,0,0,0,.19,1.3c.55.73,2.12.4,2.78,0s.95-1.44,1.36-2.2c.18-.32.56-.69.92-.46a3.7,3.7,0,0,1,.69.9,3.11,3.11,0,0,0,2.26,1.64A1.7,1.7,0,0,0,488,648.8c0-.39-.26-.81-.05-1.16s.54-.5.76-.79A1.67,1.67,0,0,0,488.09,644.67Zm-5.59,1a1.36,1.36,0,0,1-1.47-.35,1.29,1.29,0,0,1,.26-1.95,2,2,0,0,1,1.28-.06,1.22,1.22,0,0,1,.79,1.08A1.19,1.19,0,0,1,482.5,645.65Z"/><path class="cls-2" d="M476.86,633a6.78,6.78,0,0,1,.05-.77c0-.11.17-.44.1-.53.56.84,1.38,1.53,2,2.34a4.76,4.76,0,0,1,.69,1.12,4.24,4.24,0,0,1-.08,2.54c0,.1-.11.62-.2.66s-.25-.15-.32-.23a3.11,3.11,0,0,0-.9-.72,3,3,0,0,1-1.12-1.52A6.26,6.26,0,0,1,476.86,633Z"/><path class="cls-2" d="M490.25,646.46c-.12-.23-.21-.47-.31-.71,0-.07-.18-.65-.18-.64a6.12,6.12,0,0,0,1.42.66c.47.13.93.33,1.37.5a3.63,3.63,0,0,1,2,2,3.41,3.41,0,0,1,.24.81,4,4,0,0,0,.23.92,3.18,3.18,0,0,1-1.14-.37,8.74,8.74,0,0,1-1.3-.55,4.87,4.87,0,0,1-1-.76,2.85,2.85,0,0,1-.68-.87A3.83,3.83,0,0,1,490.25,646.46Z"/><path class="cls-2" d="M489.75,652.46a4.79,4.79,0,0,0-.22-1.14c-.1-.4-.34-.76-.43-1.17a3.3,3.3,0,0,1-.12-.95,3,3,0,0,1,.2-1c.14-.37.33-.71.46-1.09a8.94,8.94,0,0,0,.37-1c0-.2,0-.4,0-.6.24.09.5.54.66.77a5.2,5.2,0,0,1,.76,2.55,4.62,4.62,0,0,1-.9,3.11c-.1.16-.5.78-.72.75a2.16,2.16,0,0,1,0-.57"/><path class="cls-1" d="M716.1,646.58c.22.29.59.5.76.8s-.09.76-.05,1.15a1.7,1.7,0,0,0,1.87,1.48,3.08,3.08,0,0,0,2.26-1.64,3.46,3.46,0,0,1,.69-.89c.36-.24.74.13.92.45.41.77.56,1.71,1.36,2.2s2.23.73,2.78,0a1.56,1.56,0,0,0,.19-1.3,2.36,2.36,0,0,1-.11-.6c0-.44.58-.58.87-.83s.08-.78-.16-1.08c-.12-.14-.31-.17-.46-.27s-.33-.35-.6-.4-.66.08-.57-.27.68-.2.84-.2a1.22,1.22,0,0,1,.71.22c.5.31,1.53,1,2,.25a1,1,0,0,0,.09-.62c0-.11-.1-.11-.06-.25s.18-.25.24-.35a2.48,2.48,0,0,0,.26-1.93,1.48,1.48,0,0,0-1.22-1c0-.44.07-1-.33-1.26a1.55,1.55,0,0,0-1.25-.11c-.76.27-1.21.91-1.86,1.31-.27.16-.58,0-.37-.31.06-.1.22-.19.3-.28s.22-.29.35-.42.47-.25.63-.48c.32-.42.66-1.23,0-1.5-.47-.2-1,0-1.42-.27-.2-.14-.24-.36-.38-.53-.59-.71-1.44-.16-1.75.5a4.6,4.6,0,0,0-.3,1.28,10,10,0,0,0-.15,1.35c0,.16-.1,1.19-.33,1.12a4.57,4.57,0,0,0-.48-1.62,2.73,2.73,0,0,0-1.1-1.18c-.88-.49-2.08-.73-2.78.2a.92.92,0,0,1-.09.13c0,.38-.42.56-.7.78a2,2,0,0,0-.8,1,1.57,1.57,0,0,0,.19,1.34,3.86,3.86,0,0,0,1.46.84c.42.15,1.2.24,1.52.57-.21.21-.88.06-1.18.08a2.67,2.67,0,0,0-1.19.28A1.66,1.66,0,0,0,716.1,646.58Zm5.32-2.47a1.21,1.21,0,0,1,.8-1.09,2,2,0,0,1,1.27.06,1.29,1.29,0,0,1,.26,1.95,1.36,1.36,0,0,1-1.47.35A1.18,1.18,0,0,1,721.42,644.11Z"/><path class="cls-2" d="M727.93,632.78c0-.26,0-.52-.06-.77s-.17-.44-.1-.54c-.56.84-1.38,1.53-2,2.34a4.76,4.76,0,0,0-.69,1.12,4.24,4.24,0,0,0,.08,2.54c0,.11.11.62.2.67s.26-.16.32-.24a3.11,3.11,0,0,1,.9-.72,2.94,2.94,0,0,0,1.12-1.51A6.42,6.42,0,0,0,727.93,632.78Z"/><path class="cls-2" d="M714.53,646.19c.12-.23.21-.46.31-.7,0-.08.18-.65.18-.65a5.93,5.93,0,0,1-1.42.66c-.46.13-.93.33-1.37.5a3.63,3.63,0,0,0-2,2,2.86,2.86,0,0,0-.25.8,3.45,3.45,0,0,1-.23.92c.34,0,.83-.26,1.14-.37a8.74,8.74,0,0,0,1.3-.55,4.87,4.87,0,0,0,1-.76,2.74,2.74,0,0,0,.68-.87A3.83,3.83,0,0,0,714.53,646.19Z"/><path class="cls-2" d="M715,652.19a4.71,4.71,0,0,1,.22-1.13c.1-.41.34-.77.43-1.17a3.37,3.37,0,0,0,.12-1,3,3,0,0,0-.2-1c-.14-.38-.33-.72-.46-1.1a7.63,7.63,0,0,1-.37-1,5.91,5.91,0,0,1,0-.6c-.24.1-.5.55-.65.77a5.11,5.11,0,0,0-.77,2.55,4.62,4.62,0,0,0,.9,3.11c.1.17.5.78.72.75a2.16,2.16,0,0,0,0-.57"/><path class="cls-1" d="M606.52,783.74c-.26-.26-.65-.41-.87-.67s0-.77-.12-1.15a1.71,1.71,0,0,0-2.09-1.17c-1.07.26-1.54,1.1-2,2a3.49,3.49,0,0,1-.54,1c-.32.29-.75,0-1-.31-.53-.69-.83-1.6-1.69-2s-2.31-.38-2.75.43a1.58,1.58,0,0,0,0,1.31,2.49,2.49,0,0,1,.2.58c0,.45-.49.67-.73,1s0,.78.33,1c.14.12.33.12.49.19s.38.3.65.31.65-.19.61.17-.64.31-.8.33a1.15,1.15,0,0,1-.73-.1c-.55-.23-1.68-.76-2,.06a1,1,0,0,0,0,.63c0,.11.11.1.1.24s-.15.27-.18.38a2.41,2.41,0,0,0,0,1.95,1.47,1.47,0,0,0,1.35.75c.09.44.08,1,.52,1.21a1.63,1.63,0,0,0,1.26-.09c.7-.39,1-1.09,1.63-1.58.24-.21.56-.13.41.24,0,.11-.19.22-.26.33s-.16.31-.27.46-.42.32-.56.57c-.24.47-.45,1.32.27,1.49.5.11.95-.2,1.45,0,.22.11.29.32.46.46.68.61,1.44-.06,1.65-.76a4.77,4.77,0,0,0,.1-1.31,12.49,12.49,0,0,0-.06-1.36c0-.16-.1-1.19.14-1.16a4.59,4.59,0,0,0,.73,1.53,2.83,2.83,0,0,0,1.27,1c.94.34,2.17.39,2.71-.64a.87.87,0,0,1,.08-.14c0-.38.32-.62.57-.88a2,2,0,0,0,.63-1.16,1.6,1.6,0,0,0-.4-1.29,3.88,3.88,0,0,0-1.58-.6,4.7,4.7,0,0,1-1.59-.33c.18-.24.86-.2,1.15-.26a2.74,2.74,0,0,0,1.14-.46A1.65,1.65,0,0,0,606.52,783.74ZM601.65,787a1.21,1.21,0,0,1-.61,1.19,2,2,0,0,1-1.27.14,1.29,1.29,0,0,1-.56-1.89,1.36,1.36,0,0,1,1.39-.57A1.17,1.17,0,0,1,601.65,787Z"/><path class="cls-2" d="M597,799.21c.06.25.1.51.18.75s.23.41.18.52c.42-.92,1.13-1.73,1.61-2.62a4.82,4.82,0,0,0,.5-1.22,4.24,4.24,0,0,0-.47-2.49c-.05-.1-.21-.6-.3-.63s-.23.19-.29.28a2.85,2.85,0,0,1-.77.85,2.92,2.92,0,0,0-.87,1.67A6.45,6.45,0,0,0,597,799.21Z"/><path class="cls-2" d="M608.13,783.88c-.08.25-.13.49-.19.74,0,.09-.08.67-.08.67a5.91,5.91,0,0,1,1.3-.87,14.43,14.43,0,0,0,1.28-.71,3.67,3.67,0,0,0,1.62-2.28,3.41,3.41,0,0,0,.12-.84,3.62,3.62,0,0,1,.08-.94c-.34,0-.78.38-1.07.54a7.7,7.7,0,0,0-1.19.75,4.36,4.36,0,0,0-.91.91,2.62,2.62,0,0,0-.54,1A4,4,0,0,0,608.13,783.88Z"/><path class="cls-2" d="M606.71,778a4.4,4.4,0,0,1,0,1.15c0,.42-.21.81-.24,1.23a3.45,3.45,0,0,0,0,1,3.25,3.25,0,0,0,.35.93c.2.35.45.66.63,1a6.88,6.88,0,0,1,.52.91c0,.19.07.4.11.59.22-.13.41-.61.53-.86a5.17,5.17,0,0,0,.36-2.64,4.63,4.63,0,0,0-1.37-2.93c-.13-.15-.61-.7-.83-.63a2.26,2.26,0,0,0,.06.57"/><path class="cls-1" d="M835.38,784.46a2.89,2.89,0,0,0,1.1.53c.29.09,1,.09,1.14.34a4.33,4.33,0,0,1-1.61.22,3.94,3.94,0,0,0-1.61.49,1.62,1.62,0,0,0-.49,1.27,2,2,0,0,0,.55,1.2c.23.27.55.54.51.91,0,0,0,.09.06.15.47,1.06,1.7,1.1,2.67.82a2.77,2.77,0,0,0,1.33-.91,4.53,4.53,0,0,0,.83-1.48c.24,0,.1,1,.07,1.17a12.42,12.42,0,0,0-.16,1.35,5.22,5.22,0,0,0,0,1.31c.16.71.87,1.44,1.6.88.18-.14.26-.34.49-.43.51-.21.94.13,1.45.05.73-.11.58-1,.36-1.46-.11-.26-.37-.38-.51-.61a4.3,4.3,0,0,1-.24-.48c-.06-.11-.2-.23-.24-.35-.13-.37.2-.43.43-.21.55.54.84,1.26,1.52,1.69a1.58,1.58,0,0,0,1.25.17c.45-.21.48-.73.6-1.16a1.48,1.48,0,0,0,1.4-.66,2.43,2.43,0,0,0,.17-1.94c0-.12-.16-.28-.16-.4s.08-.12.12-.23a1,1,0,0,0,.05-.63c-.3-.84-1.46-.39-2-.19a1.3,1.3,0,0,1-.73,0c-.16,0-.77-.15-.78-.38s.41-.15.62-.14.44-.17.67-.26a1.78,1.78,0,0,0,.51-.16c.3-.23.67-.65.4-1s-.75-.56-.67-1a2.31,2.31,0,0,1,.24-.56,1.59,1.59,0,0,0,.11-1.31c-.38-.83-2-.86-2.72-.61-.88.3-1.24,1.19-1.81,1.84-.25.27-.7.55-1,.24a3.6,3.6,0,0,1-.47-1,3.1,3.1,0,0,0-1.84-2.1,1.71,1.71,0,0,0-2.16,1c-.12.37.08.84-.2,1.14s-.64.37-.91.61A1.65,1.65,0,0,0,835.38,784.46Zm5.67.28a1.39,1.39,0,0,1,1.36.67,1.3,1.3,0,0,1-.69,1.85,2,2,0,0,1-1.25-.23,1.25,1.25,0,0,1,.58-2.29Z"/><path class="cls-2" d="M843.76,798.29c-.08.24-.13.5-.23.74s-.26.39-.21.5c-.36-.94-1-1.8-1.43-2.72a5.41,5.41,0,0,1-.42-1.25,4.23,4.23,0,0,1,.64-2.46c.06-.1.25-.58.35-.6s.21.2.26.29a2.79,2.79,0,0,0,.72.91,2.93,2.93,0,0,1,.75,1.72A6.43,6.43,0,0,1,843.76,798.29Z"/><path class="cls-2" d="M833.68,782.24c.06.25.1.5.14.75,0,.09,0,.68,0,.67a5.75,5.75,0,0,0-1.24-.95c-.42-.24-.83-.53-1.22-.8a3.61,3.61,0,0,1-1.46-2.39,3.33,3.33,0,0,1-.07-.83,3.35,3.35,0,0,0,0-1c.34,0,.75.43,1,.61a8.52,8.52,0,0,1,1.14.83,4.79,4.79,0,0,1,.84,1,2.48,2.48,0,0,1,.47,1A3.83,3.83,0,0,1,833.68,782.24Z"/><path class="cls-2" d="M835.49,776.5a4.93,4.93,0,0,0,0,1.15c0,.42.15.82.15,1.24a3.5,3.5,0,0,1-.08,1,3.22,3.22,0,0,1-.42.9c-.22.34-.48.63-.69,1a5.82,5.82,0,0,0-.58.88,5.29,5.29,0,0,0-.15.57c-.22-.14-.37-.64-.47-.89a5.12,5.12,0,0,1-.18-2.66,4.67,4.67,0,0,1,1.56-2.84c.14-.13.66-.64.87-.56a1.84,1.84,0,0,1-.1.56"/></g></svg>