<svg xmlns="http://www.w3.org/2000/svg" viewBox="0 0 850.39 850.39"><defs><style>.cls-1,.cls-4{fill:#0084b9;}.cls-1,.cls-2{fill-rule:evenodd;}.cls-2,.cls-3{fill:#316080;}</style></defs><g id="Capa_2" data-name="Capa 2"><path class="cls-1" d="M420.25,215a17.34,17.34,0,0,1-.13-1.91,9.72,9.72,0,0,0-.8-4,29.67,29.67,0,0,0-3.77-6.53,12.27,12.27,0,0,0-13.33-4.39c-1.26.38-2.5.81-3.77,1.15a8,8,0,0,0-4.79,3.53c-1.87,2.92-3.15,6-2.78,9.56a13.68,13.68,0,0,1,.23,1.9,15.25,15.25,0,0,0,1.32,6.13,7.62,7.62,0,0,0,2.39,3.36c1.4,1.09,2.82,2.14,4.28,3.15a7.51,7.51,0,0,0,4.59,1.33c3.12-.12,7.1-.58,9.72-2.33a13.3,13.3,0,0,0,2.89-2.18,20,20,0,0,0,3.32-5.08A7.09,7.09,0,0,0,420.25,215Z"/><path class="cls-1" d="M291.49,369.86a6.41,6.41,0,0,0,.16.76,31.81,31.81,0,0,0,5.4,10,19,19,0,0,0,18.29,7.13c4.32-.75,7.79-3.52,10.43-6.88a33.88,33.88,0,0,0,5.36-10.13,7.3,7.3,0,0,0,.22-1C329.52,369.52,292.31,369.61,291.49,369.86Z"/><path class="cls-1" d="M208.16,61.63h53.17a1.83,1.83,0,0,1,.51.2c-.27.7-.49,1.37-.77,2a36.42,36.42,0,0,1-8.62,12.57,23,23,0,0,1-12.55,6.23,26.84,26.84,0,0,1-22.22-6.48,33.81,33.81,0,0,1-9.12-13.27C208.43,62.55,208.34,62.19,208.16,61.63Z"/><path class="cls-1" d="M130.37,326.45H76.7c.24-.66.42-1.22.64-1.76a36.46,36.46,0,0,1,8.15-12.37,23.33,23.33,0,0,1,13.34-6.83,26.7,26.7,0,0,1,21.06,5.67,33.42,33.42,0,0,1,10.22,14.38C130.2,325.78,130.25,326,130.37,326.45Z"/><path class="cls-2" d="M102.58,79.5v53.76a5.09,5.09,0,0,1-.78-.16,36.93,36.93,0,0,1-13.41-8.57,23.46,23.46,0,0,1-6.9-13.79,26.83,26.83,0,0,1,6.1-21.17,33.62,33.62,0,0,1,14.11-9.82A7.78,7.78,0,0,1,102.58,79.5Z"/><path class="cls-1" d="M58.67,431.12a7.78,7.78,0,0,1-1.39,5.71A36.06,36.06,0,0,1,55,440.06,10.48,10.48,0,0,1,50.77,443a21.08,21.08,0,0,1-6,1.54,20.4,20.4,0,0,1-3.82.16,7.41,7.41,0,0,1-3.83-1.55c-1.18-.87-2.37-1.74-3.53-2.64a7.67,7.67,0,0,1-2.5-3.29A13.78,13.78,0,0,1,29.74,431a3,3,0,0,0-.11-.78,12.23,12.23,0,0,1,1.1-8.13A35,35,0,0,1,33,418.4a6.88,6.88,0,0,1,4.56-2.88,24.51,24.51,0,0,0,3.17-.8c4.68-1.67,10.5.3,13.53,4.54A51.26,51.26,0,0,1,57.57,425a9.87,9.87,0,0,1,1.11,5.13C58.66,430.43,58.67,430.73,58.67,431.12Z"/><path class="cls-2" d="M242,233.32V193c.29.07.54.09.78.17a32.38,32.38,0,0,1,12,6.77,16.54,16.54,0,0,1,5.6,10.17,17.91,17.91,0,0,1-3.63,13.59,26.64,26.64,0,0,1-11.22,8.3C244.49,232.48,243.35,232.84,242,233.32Z"/><path class="cls-2" d="M88.14,301.63a10.27,10.27,0,0,1,0-3.5,15.34,15.34,0,0,1,3.25-7.94,13.66,13.66,0,0,1,8-4.75,27.19,27.19,0,0,1,15.86,1.14,13.47,13.47,0,0,1,8.92,11.4,27.7,27.7,0,0,1,0,3.65Z"/><path class="cls-2" d="M254.15,89.62c.15,4.48-.82,8.44-3.71,11.79a12.42,12.42,0,0,1-6.21,3.94A26.49,26.49,0,0,1,226,104.22c-4.71-2.09-7.29-5.89-8-11a18.19,18.19,0,0,1-.08-3.62Z"/><path class="cls-2" d="M329.19,345.72c0,1.25.08,2.44.06,3.64a16.75,16.75,0,0,1-1.36,6.47,10.53,10.53,0,0,1-8.72,6.5c-4.24.62-8.31-.29-12.32-1.52a22.72,22.72,0,0,1-8.56-4.69,15.78,15.78,0,0,1-5.24-9.13,7,7,0,0,1-.11-.78,4.44,4.44,0,0,1,0-.49Z"/><path class="cls-2" d="M75.43,88.16V124.3a3.34,3.34,0,0,1-.82.25,20.48,20.48,0,0,1-9.2-1.31,10.34,10.34,0,0,1-6.58-9,28.86,28.86,0,0,1,4.61-18.49,15.92,15.92,0,0,1,9.67-7.14C73.83,88.41,74.57,88.32,75.43,88.16Z"/><path class="cls-2" d="M218.25,231.59V195.5a4.9,4.9,0,0,1,1-.24,22.13,22.13,0,0,1,7.8.88c5,1.62,7.76,5.48,7.9,10.87a31.58,31.58,0,0,1-2.93,13.9,19.34,19.34,0,0,1-5.61,7.39,15.39,15.39,0,0,1-7,3.2C219.06,231.56,218.72,231.55,218.25,231.59Z"/><path class="cls-2" d="M229.16,50.32c.88-.09,1.55-.19,2.22-.21a2.69,2.69,0,0,1,2.86,2.3,7.39,7.39,0,0,1,.16,2.48,3.3,3.3,0,0,1-1.62,2.74,6.86,6.86,0,0,1-3,.57A51.08,51.08,0,0,1,229.16,50.32Zm2.14,5.79a6.8,6.8,0,0,0,.84-.17c.88-.49,1-2.79.34-3.53-.08-.31-1.61-.53-1.65,0A8,8,0,0,0,231.3,56.11Z"/><path class="cls-2" d="M248.38,49.74c.38,0,.56-.05.75,0s.52,0,.94.08A72.2,72.2,0,0,1,252,57.51a2.54,2.54,0,0,1-1.43.28c-.15-.17-.08-.64-.24-.74a2.62,2.62,0,0,0-2-.2c-.16.16-.14.62-.29.88a6.33,6.33,0,0,1-.64.06c-.22,0-.44,0-.81-.09A78.38,78.38,0,0,1,248.38,49.74Zm1.07,3.55c-.12,0-.32,0-.44.07a12.06,12.06,0,0,0-.16,1.33c0,.11.86.11.94.08s0-.39,0-.51A4.41,4.41,0,0,0,249.45,53.29Z"/><path class="cls-2" d="M216.27,52.38a.15.15,0,0,1,0,.1,2.53,2.53,0,0,1-1.34.06c-.37-.15-.32-.66-.84-.49a1.85,1.85,0,0,0-.91,1,2.41,2.41,0,0,0,.05,2.38,2.51,2.51,0,0,0,.63.63.71.71,0,0,0,1-.25c.11-.22.18-.45,0-.63a2.25,2.25,0,0,0-.61-.1,1.69,1.69,0,0,1,.06-1c.11-.24,0-.18.32-.23a6.86,6.86,0,0,1,1.63.07,4.09,4.09,0,0,1-1.26,4.21A1.45,1.45,0,0,1,213,58a3.17,3.17,0,0,1-.58-.69,5.79,5.79,0,0,1-.24-5.6,2.12,2.12,0,0,1,2.09-1.45,2.07,2.07,0,0,1,1.6,1.11A2.35,2.35,0,0,1,216.27,52.38Z"/><path class="cls-2" d="M222.37,54.19a6.84,6.84,0,0,1-.78,3.06c-.88,1.55-2.55,1.61-3.36,0a5.79,5.79,0,0,1-.07-5.54,2,2,0,0,1,2.05-1.31A2.07,2.07,0,0,1,222,52.09,18.44,18.44,0,0,1,222.37,54.19Zm-1.26,0a2.45,2.45,0,0,0-.13-1c-.21-.57-.73-1-1.13-1a1.33,1.33,0,0,0-1,1.19,6.46,6.46,0,0,0,0,1.46,1.81,1.81,0,0,0,.42.88.8.8,0,0,0,1.4-.12A3.45,3.45,0,0,0,221.11,54.18Z"/><path class="cls-2" d="M228.22,54.05a6.82,6.82,0,0,1-.8,3.15c-.89,1.55-2.53,1.58-3.35,0a5.89,5.89,0,0,1-.07-5.52,2,2,0,0,1,2-1.34,2.16,2.16,0,0,1,1.85,1.75C228.05,52.71,228.11,53.39,228.22,54.05Zm-3.64-.26a4.3,4.3,0,0,0,.21,1.43,1,1,0,0,0,1.49.67,2.63,2.63,0,0,0,.16-3.39.91.91,0,0,0-1.41,0A1.81,1.81,0,0,0,224.58,53.79Z"/><path class="cls-2" d="M255.65,58l-1.33-.38a9.84,9.84,0,0,1,.64-1.83,2,2,0,0,0,.33-1.16l-2.42-3.35,1.29-1.23,2.11,2.78c.33-.69.57-1.17.79-1.67.42-1,.7-1,1.8-.77C258.89,51.21,256.67,56.34,255.65,58Z"/><path class="cls-2" d="M240.11,50.2c.89-.09,1.56-.18,2.23-.21a2.7,2.7,0,0,1,2.86,2.31,7.31,7.31,0,0,1,.16,2.47,3.27,3.27,0,0,1-1.62,2.74,7.08,7.08,0,0,1-3,.58A51.32,51.32,0,0,1,240.11,50.2ZM242.25,56a5.26,5.26,0,0,0,.85-.17c.87-.49,1-2.79.33-3.52-.08-.32-1.61-.54-1.65,0A8.24,8.24,0,0,0,242.25,56Z"/><path class="cls-2" d="M116.63,329.13a6.46,6.46,0,0,1,3.2.23,1.83,1.83,0,0,1,.78,3.19c-.13.18-.27.35-.43.55.19.27.5.5.67.74a1.83,1.83,0,0,1-1,2.92,6.7,6.7,0,0,1-3.19.24C116.65,334.45,116.63,331.73,116.63,329.13Zm1.41,6.56c.53,0,.93.05,1.18-.32a.94.94,0,0,0-.06-1c-.16-.23-.3-.19-.59-.22a1.07,1.07,0,0,0-.51,0S118,335.21,118,335.69Zm0-5.21v1.4s1.34.53,1.29-.6S118.06,330.48,118.06,330.48Z"/><path class="cls-2" d="M109.92,333.35c.25-1.3.5-2.61.77-4,.65,0,1.31-.07,2-.07a7.18,7.18,0,0,1-.2.8c-.62,1.93-1.23,3.87-1.88,5.79-.18.55-.36,1.29-1.1,1.24s-.68-.74-.85-1.22c-.56-1.59-1.08-3.2-1.6-4.81-.11-.35-.41-.89-.23-1.06.54-.42,1.31-.34,1.49,0s.55,1.46.75,2,.36,1.18.54,1.62C109.68,333.86,109.82,333.72,109.92,333.35Z"/><path class="cls-2" d="M123.76,331.92c.36.2.87-.05.88.25a9,9,0,0,1,0,1.71c-.25.16-.45,0-1.08.08.08.35,0,.78.06.78.75.13,1.79.06,1.71.26,0,.37-.07,1.55-.16,2-.4,0-.87.05-1.27.05h-1.38a46.81,46.81,0,0,1-.35-7.95,9.54,9.54,0,0,1,2.78.29c.07.55.12,1.19.18,1.71-.6.1-1,.07-1.46.14C123.67,331.35,123.78,331.81,123.76,331.92Z"/><path class="cls-2" d="M129.24,329.12c0,.56.08,1.1.11,1.5a.87.87,0,0,0-.59.1c-.44.28-.37.67-.08,1.06s.64.73.94,1.12a2.92,2.92,0,0,1,.75,2.49c-.31,1.4-1.38,1.93-3.25,1.71-.07-.44-.16-1.16-.22-1.59,1.71-.22,1.72-.79.67-2.1-.24-.29-.6-.57-.83-.87-1-1.31-.41-2.76,1.2-3.22A11.26,11.26,0,0,1,129.24,329.12Z"/><path class="cls-2" d="M115.79,337.08c-1.27.39-1.68.14-1.75-.74-.19-2.13-.31-4.27-.44-6.41a.84.84,0,0,1,.09-.52,2.47,2.47,0,0,1,1.57,0C115.46,331.93,115.58,334.6,115.79,337.08Z"/><path class="cls-2" d="M96.18,329.18c.88-.09,1.55-.19,2.22-.21a2.69,2.69,0,0,1,2.86,2.3,7.14,7.14,0,0,1,.16,2.48,3.3,3.3,0,0,1-1.62,2.74,7,7,0,0,1-3,.57A51.08,51.08,0,0,1,96.18,329.18ZM98.32,335a5.65,5.65,0,0,0,.85-.16c.87-.49,1-2.79.33-3.53-.08-.31-1.61-.53-1.65,0A8,8,0,0,0,98.32,335Z"/><path class="cls-2" d="M83.29,331.24a.15.15,0,0,1,0,.1,2.52,2.52,0,0,1-1.34.06c-.37-.15-.32-.66-.84-.49a1.85,1.85,0,0,0-.91,1,2.41,2.41,0,0,0,0,2.38,2.51,2.51,0,0,0,.63.63.73.73,0,0,0,1-.25c.11-.22.17-.45,0-.63a2.25,2.25,0,0,0-.61-.1,1.69,1.69,0,0,1,.06-1c.11-.24,0-.18.32-.23a6.86,6.86,0,0,1,1.63.07A4.09,4.09,0,0,1,82,336.93a1.45,1.45,0,0,1-1.95-.1,3.17,3.17,0,0,1-.58-.69,5.79,5.79,0,0,1-.24-5.6,2.12,2.12,0,0,1,2.09-1.45,2.07,2.07,0,0,1,1.6,1.11A2.35,2.35,0,0,1,83.29,331.24Z"/><path class="cls-2" d="M89.39,333.05a6.84,6.84,0,0,1-.78,3.06c-.88,1.55-2.55,1.61-3.36,0a5.82,5.82,0,0,1-.07-5.54,2,2,0,0,1,2-1.31A2.07,2.07,0,0,1,89,331,18.44,18.44,0,0,1,89.39,333.05Zm-1.26,0a2.45,2.45,0,0,0-.13-1,1.32,1.32,0,0,0-1.13-.95,1.35,1.35,0,0,0-1,1.2,7,7,0,0,0,0,1.45,1.74,1.74,0,0,0,.43.88.79.79,0,0,0,1.39-.11A3.54,3.54,0,0,0,88.13,333Z"/><path class="cls-2" d="M95.24,332.91a6.82,6.82,0,0,1-.8,3.15c-.89,1.55-2.53,1.57-3.35,0a5.89,5.89,0,0,1-.07-5.52,2,2,0,0,1,2-1.34,2.15,2.15,0,0,1,1.85,1.75C95.07,331.57,95.13,332.25,95.24,332.91Zm-3.64-.26a4.3,4.3,0,0,0,.21,1.43,1,1,0,0,0,1.5.67,2.65,2.65,0,0,0,.15-3.39.91.91,0,0,0-1.41.05A1.81,1.81,0,0,0,91.6,332.65Z"/><path class="cls-1" d="M821,215a15.19,15.19,0,0,1-.13-1.91,9.72,9.72,0,0,0-.8-4,29.32,29.32,0,0,0-3.78-6.53A12.25,12.25,0,0,0,803,198.22c-1.26.38-2.51.81-3.78,1.15a8,8,0,0,0-4.78,3.53c-1.87,2.92-3.16,6-2.78,9.56a15.39,15.39,0,0,1,.23,1.9,15.24,15.24,0,0,0,1.31,6.13,7.64,7.64,0,0,0,2.4,3.36q2.1,1.64,4.27,3.15a7.53,7.53,0,0,0,4.59,1.33c3.13-.12,7.1-.58,9.73-2.33a13.3,13.3,0,0,0,2.89-2.18,20,20,0,0,0,3.32-5.08A7.19,7.19,0,0,0,821,215Z"/><path class="cls-1" d="M692.23,369.86a6.41,6.41,0,0,0,.16.76,31.81,31.81,0,0,0,5.4,10,19,19,0,0,0,18.29,7.13c4.32-.75,7.79-3.52,10.42-6.88a34.13,34.13,0,0,0,5.37-10.13,9.39,9.39,0,0,0,.21-1C730.26,369.52,693,369.61,692.23,369.86Z"/><path class="cls-1" d="M608.9,61.63h53.17a1.8,1.8,0,0,1,.5.2c-.26.7-.49,1.37-.76,2a36.45,36.45,0,0,1-8.63,12.57,23,23,0,0,1-12.54,6.23,26.82,26.82,0,0,1-22.22-6.48,33.7,33.7,0,0,1-9.12-13.27C609.16,62.55,609.07,62.19,608.9,61.63Z"/><path class="cls-1" d="M531.1,326.45H477.44c.24-.66.41-1.22.64-1.76a36.58,36.58,0,0,1,8.14-12.37,23.4,23.4,0,0,1,13.34-6.83,26.72,26.72,0,0,1,21.07,5.67,33.31,33.31,0,0,1,10.21,14.38A7.92,7.92,0,0,1,531.1,326.45Z"/><path class="cls-2" d="M503.31,79.5v53.76a5.09,5.09,0,0,1-.78-.16,37,37,0,0,1-13.4-8.57,23.46,23.46,0,0,1-6.9-13.79,26.86,26.86,0,0,1,6.09-21.17,33.65,33.65,0,0,1,14.12-9.82A7.53,7.53,0,0,1,503.31,79.5Z"/><path class="cls-1" d="M459.41,431.12a7.78,7.78,0,0,1-1.39,5.71c-.71,1.11-1.46,2.2-2.27,3.23A10.44,10.44,0,0,1,451.5,443a21,21,0,0,1-6,1.54,20.26,20.26,0,0,1-3.81.16,7.41,7.41,0,0,1-3.83-1.55c-1.18-.87-2.37-1.74-3.53-2.64a7.69,7.69,0,0,1-2.51-3.29,13.91,13.91,0,0,1-1.37-6.22,3,3,0,0,0-.1-.78,12.17,12.17,0,0,1,1.1-8.13,34.87,34.87,0,0,1,2.21-3.66,6.88,6.88,0,0,1,4.56-2.88,24.11,24.11,0,0,0,3.17-.8c4.68-1.67,10.5.3,13.53,4.54a49.85,49.85,0,0,1,3.37,5.74,9.76,9.76,0,0,1,1.1,5.13C459.4,430.43,459.41,430.73,459.41,431.12Z"/><path class="cls-2" d="M642.77,233.32V193c.3.07.55.09.78.17a32.38,32.38,0,0,1,12,6.77,16.55,16.55,0,0,1,5.61,10.17,18,18,0,0,1-3.63,13.59,26.64,26.64,0,0,1-11.22,8.3C645.22,232.48,644.08,232.84,642.77,233.32Z"/><path class="cls-2" d="M488.88,301.63a9.79,9.79,0,0,1,.05-3.5,15.41,15.41,0,0,1,3.24-7.94,13.71,13.71,0,0,1,8-4.75A27.19,27.19,0,0,1,516,286.58,13.5,13.5,0,0,1,525,298a27.7,27.7,0,0,1,0,3.65Z"/><path class="cls-2" d="M654.88,89.62c.16,4.48-.82,8.44-3.7,11.79a12.45,12.45,0,0,1-6.22,3.94,26.5,26.5,0,0,1-18.21-1.13c-4.71-2.09-7.29-5.89-8-11a17.47,17.47,0,0,1-.08-3.62Z"/><path class="cls-2" d="M729.92,345.72c0,1.25.09,2.44.07,3.64a16.75,16.75,0,0,1-1.36,6.47,10.54,10.54,0,0,1-8.72,6.5c-4.25.62-8.31-.29-12.33-1.52a22.68,22.68,0,0,1-8.55-4.69,15.85,15.85,0,0,1-5.25-9.13,6.93,6.93,0,0,1-.1-.78,2.86,2.86,0,0,1,0-.49Z"/><path class="cls-2" d="M476.16,88.16V124.3a3.1,3.1,0,0,1-.82.25,20.44,20.44,0,0,1-9.19-1.31,10.33,10.33,0,0,1-6.59-9,28.87,28.87,0,0,1,4.62-18.49,15.89,15.89,0,0,1,9.67-7.14C474.57,88.41,475.31,88.32,476.16,88.16Z"/><path class="cls-2" d="M619,231.59V195.5a4.82,4.82,0,0,1,1-.24,22.11,22.11,0,0,1,7.8.88c5,1.62,7.76,5.48,7.91,10.87a31.86,31.86,0,0,1-2.93,13.9,19.44,19.44,0,0,1-5.61,7.39,15.39,15.39,0,0,1-7,3.2C619.8,231.56,619.46,231.55,619,231.59Z"/><path class="cls-2" d="M629.89,50.32c.89-.09,1.56-.19,2.23-.21a2.7,2.7,0,0,1,2.86,2.3,7.39,7.39,0,0,1,.16,2.48,3.3,3.3,0,0,1-1.62,2.74,6.92,6.92,0,0,1-3,.57A51.08,51.08,0,0,1,629.89,50.32ZM632,56.11a6.64,6.64,0,0,0,.85-.17c.88-.49,1-2.79.33-3.53-.08-.31-1.61-.53-1.65,0A8.29,8.29,0,0,0,632,56.11Z"/><path class="cls-2" d="M649.11,49.74c.38,0,.57-.05.75,0s.52,0,.95.08a74.66,74.66,0,0,1,1.94,7.73,2.56,2.56,0,0,1-1.43.28c-.16-.17-.09-.64-.24-.74a2.62,2.62,0,0,0-2-.2c-.16.16-.14.62-.29.88a6.33,6.33,0,0,1-.64.06c-.22,0-.44,0-.82-.09A78.38,78.38,0,0,1,649.11,49.74Zm1.08,3.55-.45.07a12,12,0,0,0-.15,1.33c0,.11.86.11.94.08s0-.39,0-.51A5.8,5.8,0,0,0,650.19,53.29Z"/><path class="cls-2" d="M617,52.38a.23.23,0,0,1,0,.1,2.53,2.53,0,0,1-1.34.06c-.37-.15-.32-.66-.85-.49a1.85,1.85,0,0,0-.91,1,2.43,2.43,0,0,0,.06,2.38,2.65,2.65,0,0,0,.62.63.72.72,0,0,0,1-.25c.11-.22.18-.45,0-.63a2.13,2.13,0,0,0-.6-.1,1.62,1.62,0,0,1,.05-1c.12-.24,0-.18.32-.23a6.83,6.83,0,0,1,1.63.07,4.07,4.07,0,0,1-1.26,4.21,1.45,1.45,0,0,1-1.95-.1,3.48,3.48,0,0,1-.58-.69,5.81,5.81,0,0,1-.23-5.6,2,2,0,0,1,3.69-.34A2.47,2.47,0,0,1,617,52.38Z"/><path class="cls-2" d="M623.11,54.19a6.85,6.85,0,0,1-.79,3.06c-.88,1.55-2.54,1.61-3.36,0a5.85,5.85,0,0,1-.07-5.54A2,2,0,0,1,621,50.43a2.08,2.08,0,0,1,1.79,1.66A21,21,0,0,1,623.11,54.19Zm-1.27,0a2.45,2.45,0,0,0-.13-1,1.08,1.08,0,0,0-2.14.24,6.47,6.47,0,0,0,0,1.46,1.82,1.82,0,0,0,.43.88.8.8,0,0,0,1.4-.12A3.44,3.44,0,0,0,621.84,54.18Z"/><path class="cls-2" d="M629,54.05a6.69,6.69,0,0,1-.79,3.15c-.9,1.55-2.53,1.58-3.35,0a5.89,5.89,0,0,1-.07-5.52,2,2,0,0,1,2-1.34,2.15,2.15,0,0,1,1.84,1.75A16.38,16.38,0,0,1,629,54.05Zm-3.64-.26a4.05,4.05,0,0,0,.22,1.43,1,1,0,0,0,1.49.67,2.63,2.63,0,0,0,.16-3.39.92.92,0,0,0-1.42,0A1.86,1.86,0,0,0,625.31,53.79Z"/><path class="cls-2" d="M656.38,58l-1.33-.38a9.84,9.84,0,0,1,.64-1.83,1.93,1.93,0,0,0,.34-1.16L653.6,51.3l1.3-1.23c.69.92,1.34,1.76,2.11,2.78.32-.69.57-1.17.79-1.67.42-1,.7-1,1.8-.77C659.63,51.21,657.41,56.34,656.38,58Z"/><path class="cls-2" d="M640.85,50.2c.88-.09,1.55-.18,2.23-.21a2.7,2.7,0,0,1,2.86,2.31,7.31,7.31,0,0,1,.15,2.47,3.26,3.26,0,0,1-1.61,2.74,7.08,7.08,0,0,1-3,.58A51.32,51.32,0,0,1,640.85,50.2ZM643,56a5.5,5.5,0,0,0,.85-.17c.87-.49,1-2.79.33-3.52-.08-.32-1.61-.54-1.65,0A8.24,8.24,0,0,0,643,56Z"/><path class="cls-2" d="M517.37,329.13a6.47,6.47,0,0,1,3.2.23,1.83,1.83,0,0,1,.78,3.19l-.43.55c.19.27.5.5.67.74a1.83,1.83,0,0,1-1,2.92,6.7,6.7,0,0,1-3.19.24C517.39,334.45,517.37,331.73,517.37,329.13Zm1.41,6.56c.53,0,.92.05,1.18-.32a1,1,0,0,0-.06-1c-.16-.23-.31-.19-.59-.22a1.07,1.07,0,0,0-.51,0S518.74,335.21,518.78,335.69Zm0-5.21v1.4s1.34.53,1.29-.6S518.8,330.48,518.8,330.48Z"/><path class="cls-2" d="M510.66,333.35l.76-4c.66,0,1.31-.07,2-.07a5.47,5.47,0,0,1-.21.8c-.61,1.93-1.22,3.87-1.87,5.79-.19.55-.36,1.29-1.11,1.24s-.68-.74-.84-1.22c-.56-1.59-1.08-3.2-1.61-4.81-.11-.35-.41-.89-.22-1.06.54-.42,1.3-.34,1.48,0s.55,1.46.75,2,.36,1.18.55,1.62C510.42,333.86,510.55,333.72,510.66,333.35Z"/><path class="cls-2" d="M524.49,331.92c.37.2.87-.05.89.25a9,9,0,0,1,0,1.71c-.25.16-.45,0-1.08.08.08.35,0,.78.06.78.74.13,1.78.06,1.7.26,0,.37-.06,1.55-.15,2-.41,0-.87.05-1.27.05h-1.38a45.8,45.8,0,0,1-.36-7.95,9.57,9.57,0,0,1,2.79.29c.07.55.11,1.19.18,1.71-.6.1-1,.07-1.46.14C524.41,331.35,524.51,331.81,524.49,331.92Z"/><path class="cls-2" d="M530,329.12c.06.56.08,1.1.12,1.5a.86.86,0,0,0-.59.1c-.45.28-.37.67-.09,1.06s.64.73.94,1.12a2.92,2.92,0,0,1,.75,2.49c-.3,1.4-1.37,1.93-3.25,1.71-.06-.44-.15-1.16-.21-1.59,1.7-.22,1.72-.79.66-2.1-.23-.29-.59-.57-.82-.87-1-1.31-.42-2.76,1.19-3.22A11.62,11.62,0,0,1,530,329.12Z"/><path class="cls-2" d="M516.52,337.08c-1.26.39-1.67.14-1.75-.74-.18-2.13-.3-4.27-.43-6.41,0-.14,0-.41.09-.52a2.44,2.44,0,0,1,1.56,0C516.2,331.93,516.32,334.6,516.52,337.08Z"/><path class="cls-2" d="M496.92,329.18c.88-.09,1.55-.19,2.22-.21a2.7,2.7,0,0,1,2.86,2.3,7.39,7.39,0,0,1,.16,2.48,3.3,3.3,0,0,1-1.62,2.74,7,7,0,0,1-3,.57A51.08,51.08,0,0,1,496.92,329.18Zm2.14,5.78a5.49,5.49,0,0,0,.84-.16c.88-.49,1-2.79.33-3.53-.08-.31-1.6-.53-1.65,0A8.1,8.1,0,0,0,499.06,335Z"/><path class="cls-2" d="M484,331.24a.23.23,0,0,1,0,.1,2.53,2.53,0,0,1-1.34.06c-.37-.15-.32-.66-.84-.49a1.84,1.84,0,0,0-.92,1,2.43,2.43,0,0,0,.06,2.38,2.65,2.65,0,0,0,.62.63.73.73,0,0,0,1-.25c.11-.22.18-.45,0-.63a2.13,2.13,0,0,0-.6-.1,1.62,1.62,0,0,1,.06-1c.11-.24,0-.18.32-.23a6.86,6.86,0,0,1,1.63.07,4.11,4.11,0,0,1-1.26,4.21,1.45,1.45,0,0,1-1.95-.1,3.17,3.17,0,0,1-.58-.69,5.79,5.79,0,0,1-.24-5.6,2.12,2.12,0,0,1,2.09-1.45,2.09,2.09,0,0,1,1.6,1.11A2.35,2.35,0,0,1,484,331.24Z"/><path class="cls-2" d="M490.13,333.05a7,7,0,0,1-.78,3.06c-.88,1.55-2.55,1.61-3.37,0a5.85,5.85,0,0,1-.07-5.54,2,2,0,0,1,2.06-1.31,2.07,2.07,0,0,1,1.79,1.66A18.44,18.44,0,0,1,490.13,333.05Zm-1.27,0a2.45,2.45,0,0,0-.13-1,1.08,1.08,0,0,0-2.14.25,5.86,5.86,0,0,0,0,1.45,1.72,1.72,0,0,0,.42.88.8.8,0,0,0,1.4-.11A3.39,3.39,0,0,0,488.86,333Z"/><path class="cls-2" d="M496,332.91a6.82,6.82,0,0,1-.8,3.15c-.9,1.55-2.53,1.57-3.35,0a5.89,5.89,0,0,1-.07-5.52,2,2,0,0,1,2-1.34,2.18,2.18,0,0,1,1.85,1.75C495.81,331.57,495.87,332.25,496,332.91Zm-3.64-.26a4.3,4.3,0,0,0,.21,1.43,1,1,0,0,0,1.49.67,2.63,2.63,0,0,0,.16-3.39.92.92,0,0,0-1.42.05A1.86,1.86,0,0,0,492.34,332.65Z"/><path class="cls-1" d="M420.25,615.74a17.68,17.68,0,0,1-.13-1.91,9.8,9.8,0,0,0-.8-4,29.9,29.9,0,0,0-3.77-6.53A12.24,12.24,0,0,0,402.22,599c-1.26.38-2.5.8-3.77,1.15a8,8,0,0,0-4.79,3.52c-1.87,2.92-3.15,6-2.78,9.56a13.87,13.87,0,0,1,.23,1.9,15.18,15.18,0,0,0,1.32,6.13,7.59,7.59,0,0,0,2.39,3.37c1.4,1.08,2.82,2.14,4.28,3.14a7.45,7.45,0,0,0,4.59,1.34c3.12-.12,7.1-.58,9.72-2.33a13.63,13.63,0,0,0,2.89-2.18,20.2,20.2,0,0,0,3.32-5.09A7.05,7.05,0,0,0,420.25,615.74Z"/><path class="cls-1" d="M291.49,770.6a6.24,6.24,0,0,0,.16.75,31.75,31.75,0,0,0,5.4,10,19,19,0,0,0,18.29,7.13c4.32-.75,7.79-3.53,10.43-6.88a34,34,0,0,0,5.36-10.14,7.15,7.15,0,0,0,.22-.94C329.52,770.26,292.31,770.35,291.49,770.6Z"/><path class="cls-1" d="M208.16,462.36h53.17a1.83,1.83,0,0,1,.51.2c-.27.7-.49,1.36-.77,2a36.52,36.52,0,0,1-8.62,12.57,23,23,0,0,1-12.55,6.22,26.83,26.83,0,0,1-22.22-6.47,33.84,33.84,0,0,1-9.12-13.28C208.43,463.28,208.34,462.92,208.16,462.36Z"/><path class="cls-1" d="M130.37,727.19H76.7c.24-.66.42-1.22.64-1.77a36.56,36.56,0,0,1,8.15-12.37,23.45,23.45,0,0,1,13.34-6.83,26.74,26.74,0,0,1,21.06,5.68,33.42,33.42,0,0,1,10.22,14.38C130.2,726.52,130.25,726.78,130.37,727.19Z"/><path class="cls-2" d="M102.58,480.24V534a4.12,4.12,0,0,1-.78-.16,36.91,36.91,0,0,1-13.41-8.56,23.46,23.46,0,0,1-6.9-13.79,26.81,26.81,0,0,1,6.1-21.17,33.64,33.64,0,0,1,14.11-9.83C102,480.39,102.2,480.34,102.58,480.24Z"/><path class="cls-1" d="M58.67,831.86a7.79,7.79,0,0,1-1.39,5.71A36.06,36.06,0,0,1,55,840.8a10.48,10.48,0,0,1-4.24,2.91,21.08,21.08,0,0,1-6,1.54,21.29,21.29,0,0,1-3.82.16,7.49,7.49,0,0,1-3.83-1.55c-1.18-.88-2.37-1.74-3.53-2.64a7.67,7.67,0,0,1-2.5-3.29,13.81,13.81,0,0,1-1.37-6.22,2.94,2.94,0,0,0-.11-.78,12.22,12.22,0,0,1,1.1-8.13A36.16,36.16,0,0,1,33,819.13a7,7,0,0,1,4.56-2.88,23,23,0,0,0,3.17-.79c4.68-1.67,10.5.3,13.53,4.54a52,52,0,0,1,3.36,5.73,9.92,9.92,0,0,1,1.11,5.14C58.66,831.17,58.67,831.47,58.67,831.86Z"/><path class="cls-2" d="M242,634.06V593.75a7,7,0,0,1,.78.17,32.22,32.22,0,0,1,12,6.76,16.59,16.59,0,0,1,5.6,10.18,17.88,17.88,0,0,1-3.63,13.58,26.56,26.56,0,0,1-11.22,8.3C244.49,633.21,243.35,633.58,242,634.06Z"/><path class="cls-2" d="M88.14,702.36a10.21,10.21,0,0,1,0-3.49,15.4,15.4,0,0,1,3.25-8,13.69,13.69,0,0,1,8-4.74,27.19,27.19,0,0,1,15.86,1.13,13.5,13.5,0,0,1,8.92,11.41,27.54,27.54,0,0,1,0,3.64Z"/><path class="cls-2" d="M254.15,490.36c.15,4.47-.82,8.44-3.71,11.79a12.49,12.49,0,0,1-6.21,3.94A26.44,26.44,0,0,1,226,505c-4.71-2.09-7.29-5.88-8-11a18.19,18.19,0,0,1-.08-3.62Z"/><path class="cls-2" d="M329.19,746.46c0,1.24.08,2.44.06,3.63a16.8,16.8,0,0,1-1.36,6.48,10.54,10.54,0,0,1-8.72,6.5c-4.24.61-8.31-.3-12.32-1.53a22.58,22.58,0,0,1-8.56-4.69,15.72,15.72,0,0,1-5.24-9.13,7,7,0,0,1-.11-.78,4.36,4.36,0,0,1,0-.48Z"/><path class="cls-2" d="M75.43,488.89V525a3.38,3.38,0,0,1-.82.26,20.35,20.35,0,0,1-9.2-1.32,10.33,10.33,0,0,1-6.58-9,28.83,28.83,0,0,1,4.61-18.48,16,16,0,0,1,9.67-7.15C73.83,489.15,74.57,489.05,75.43,488.89Z"/><path class="cls-2" d="M218.25,632.32V596.24a4.9,4.9,0,0,1,1-.24,22.13,22.13,0,0,1,7.8.87c5,1.62,7.76,5.49,7.9,10.88A31.51,31.51,0,0,1,232,621.64a19.37,19.37,0,0,1-5.61,7.4,15.38,15.38,0,0,1-7,3.19A10.57,10.57,0,0,1,218.25,632.32Z"/><path class="cls-2" d="M229.16,451.05c.88-.08,1.55-.18,2.22-.2a2.68,2.68,0,0,1,2.86,2.3,7.33,7.33,0,0,1,.16,2.47,3.3,3.3,0,0,1-1.62,2.75,7,7,0,0,1-3,.57A51.21,51.21,0,0,1,229.16,451.05Zm2.14,5.79a5.34,5.34,0,0,0,.84-.17c.88-.49,1-2.78.34-3.52-.08-.31-1.61-.53-1.65,0A8,8,0,0,0,231.3,456.84Z"/><path class="cls-2" d="M248.38,450.48c.38,0,.56-.05.75,0l.94.07a72.37,72.37,0,0,1,1.94,7.74,2.54,2.54,0,0,1-1.43.28c-.15-.17-.08-.64-.24-.75a2.61,2.61,0,0,0-2-.19c-.16.16-.14.62-.29.88a6.33,6.33,0,0,1-.64.06,7,7,0,0,1-.81-.1A78.19,78.19,0,0,1,248.38,450.48Zm1.07,3.54-.44.07a12.24,12.24,0,0,0-.16,1.34c0,.11.86.11.94.08s0-.4,0-.52A4.59,4.59,0,0,0,249.45,454Z"/><path class="cls-2" d="M216.27,453.12a.18.18,0,0,1,0,.1,2.63,2.63,0,0,1-1.34.06c-.37-.15-.32-.67-.84-.49a1.85,1.85,0,0,0-.91,1,2.39,2.39,0,0,0,.05,2.37,2.22,2.22,0,0,0,.63.63.7.7,0,0,0,1-.25c.11-.22.18-.44,0-.62a1.92,1.92,0,0,0-.61-.1,1.69,1.69,0,0,1,.06-1c.11-.24,0-.18.32-.24a6.86,6.86,0,0,1,1.63.08,4.09,4.09,0,0,1-1.26,4.21,1.45,1.45,0,0,1-1.95-.11,3.12,3.12,0,0,1-.58-.68,5.81,5.81,0,0,1-.24-5.61,2.12,2.12,0,0,1,2.09-1.45,2.09,2.09,0,0,1,1.6,1.11A2.39,2.39,0,0,1,216.27,453.12Z"/><path class="cls-2" d="M222.37,454.92a6.92,6.92,0,0,1-.78,3.07c-.88,1.55-2.55,1.6-3.36,0a5.79,5.79,0,0,1-.07-5.54,2,2,0,0,1,2.05-1.3,2.06,2.06,0,0,1,1.79,1.66A17.89,17.89,0,0,1,222.37,454.92Zm-1.26,0a2.53,2.53,0,0,0-.13-1c-.21-.56-.73-1-1.13-.95a1.36,1.36,0,0,0-1,1.2,6.48,6.48,0,0,0,0,1.46,1.85,1.85,0,0,0,.42.88.8.8,0,0,0,1.4-.12A3.45,3.45,0,0,0,221.11,454.92Z"/><path class="cls-2" d="M228.22,454.79a6.85,6.85,0,0,1-.8,3.15c-.89,1.54-2.53,1.57-3.35,0a5.89,5.89,0,0,1-.07-5.52,2,2,0,0,1,2-1.34,2.15,2.15,0,0,1,1.85,1.74C228.05,453.45,228.11,454.12,228.22,454.79Zm-3.64-.27a4.26,4.26,0,0,0,.21,1.43,1,1,0,0,0,1.49.67,2.62,2.62,0,0,0,.16-3.38.9.9,0,0,0-1.41.05A1.81,1.81,0,0,0,224.58,454.52Z"/><path class="cls-2" d="M255.65,458.76l-1.33-.39a10.09,10.09,0,0,1,.64-1.83,1.94,1.94,0,0,0,.33-1.15L252.87,452l1.29-1.23,2.11,2.77c.33-.68.57-1.17.79-1.67.42-1,.7-1,1.8-.76C258.89,452,256.67,457.08,255.65,458.76Z"/><path class="cls-2" d="M240.11,450.93c.89-.08,1.56-.18,2.23-.2a2.69,2.69,0,0,1,2.86,2.3,7.37,7.37,0,0,1,.16,2.48,3.3,3.3,0,0,1-1.62,2.74,7.08,7.08,0,0,1-3,.57A51.21,51.21,0,0,1,240.11,450.93Zm2.14,5.79a4.36,4.36,0,0,0,.85-.17c.87-.49,1-2.78.33-3.52-.08-.31-1.61-.53-1.65,0A8.23,8.23,0,0,0,242.25,456.72Z"/><path class="cls-2" d="M116.63,729.86a6.57,6.57,0,0,1,3.2.24c1.58.52,1.85,2,.78,3.19l-.43.55c.19.27.5.49.67.74a1.83,1.83,0,0,1-1,2.92,6.7,6.7,0,0,1-3.19.24C116.65,735.19,116.63,732.47,116.63,729.86Zm1.41,6.56c.53,0,.93.06,1.18-.31a.94.94,0,0,0-.06-1c-.16-.23-.3-.19-.59-.22a1.07,1.07,0,0,0-.51,0S118,736,118,736.42Zm0-5.2v1.39s1.34.53,1.29-.59S118.06,731.22,118.06,731.22Z"/><path class="cls-2" d="M109.92,734.09l.77-4c.65,0,1.31-.06,2-.06a7.79,7.79,0,0,1-.2.8c-.62,1.93-1.23,3.86-1.88,5.78-.18.55-.36,1.29-1.1,1.24s-.68-.74-.85-1.21c-.56-1.6-1.08-3.21-1.6-4.82-.11-.34-.41-.89-.23-1.05.54-.43,1.31-.35,1.49,0s.55,1.46.75,1.94.36,1.19.54,1.63C109.68,734.6,109.82,734.46,109.92,734.09Z"/><path class="cls-2" d="M123.76,732.65c.36.21.87,0,.88.26a9,9,0,0,1,0,1.71c-.25.16-.45,0-1.08.07.08.36,0,.79.06.79.75.13,1.79.06,1.71.26,0,.36-.07,1.54-.16,2l-1.27,0h-1.38a46.88,46.88,0,0,1-.35-8,9.57,9.57,0,0,1,2.78.3c.07.55.12,1.19.18,1.71-.6.1-1,.06-1.46.14C123.67,732.09,123.78,732.55,123.76,732.65Z"/><path class="cls-2" d="M129.24,729.86c0,.56.08,1.09.11,1.5-.25,0-.36-.05-.59.09-.44.29-.37.68-.08,1.06s.64.74.94,1.12a2.94,2.94,0,0,1,.75,2.5c-.31,1.4-1.38,1.93-3.25,1.71-.07-.44-.16-1.16-.22-1.59,1.71-.22,1.72-.79.67-2.1-.24-.29-.6-.57-.83-.87-1-1.31-.41-2.76,1.2-3.22A9.44,9.44,0,0,1,129.24,729.86Z"/><path class="cls-2" d="M115.79,737.82c-1.27.39-1.68.13-1.75-.74-.19-2.13-.31-4.27-.44-6.41a.84.84,0,0,1,.09-.52,2.34,2.34,0,0,1,1.57,0C115.46,732.67,115.58,735.33,115.79,737.82Z"/><path class="cls-2" d="M96.18,729.91c.88-.08,1.55-.18,2.22-.2a2.68,2.68,0,0,1,2.86,2.3,7.08,7.08,0,0,1,.16,2.47,3.3,3.3,0,0,1-1.62,2.75,7,7,0,0,1-3,.57A51.21,51.21,0,0,1,96.18,729.91Zm2.14,5.79a5.5,5.5,0,0,0,.85-.17c.87-.49,1-2.78.33-3.52-.08-.31-1.61-.53-1.65,0A8,8,0,0,0,98.32,735.7Z"/><path class="cls-2" d="M83.29,732a.18.18,0,0,1,0,.1,2.63,2.63,0,0,1-1.34.06c-.37-.15-.32-.67-.84-.49a1.85,1.85,0,0,0-.91,1,2.39,2.39,0,0,0,0,2.37,2.22,2.22,0,0,0,.63.63.71.71,0,0,0,1-.25c.11-.22.17-.44,0-.62a1.92,1.92,0,0,0-.61-.1,1.69,1.69,0,0,1,.06-1c.11-.24,0-.18.32-.24a6.86,6.86,0,0,1,1.63.08A4.09,4.09,0,0,1,82,737.67a1.45,1.45,0,0,1-1.95-.11,3.12,3.12,0,0,1-.58-.68,5.81,5.81,0,0,1-.24-5.61,2.12,2.12,0,0,1,2.09-1.45,2.09,2.09,0,0,1,1.6,1.11A2.39,2.39,0,0,1,83.29,732Z"/><path class="cls-2" d="M89.39,733.78a6.92,6.92,0,0,1-.78,3.07c-.88,1.55-2.55,1.6-3.36,0a5.82,5.82,0,0,1-.07-5.54,2,2,0,0,1,2-1.3A2.06,2.06,0,0,1,89,731.68,18.44,18.44,0,0,1,89.39,733.78Zm-1.26,0a2.53,2.53,0,0,0-.13-1,1.33,1.33,0,0,0-1.13-.95,1.37,1.37,0,0,0-1,1.2,7.13,7.13,0,0,0,0,1.46,1.78,1.78,0,0,0,.43.88.79.79,0,0,0,1.39-.12A3.45,3.45,0,0,0,88.13,733.78Z"/><path class="cls-2" d="M95.24,733.65a6.85,6.85,0,0,1-.8,3.15c-.89,1.54-2.53,1.57-3.35,0a5.89,5.89,0,0,1-.07-5.52,2,2,0,0,1,2-1.34,2.14,2.14,0,0,1,1.85,1.74C95.07,732.31,95.13,733,95.24,733.65Zm-3.64-.27a4.26,4.26,0,0,0,.21,1.43,1,1,0,0,0,1.5.67,2.63,2.63,0,0,0,.15-3.38.9.9,0,0,0-1.41,0A1.81,1.81,0,0,0,91.6,733.38Z"/><path class="cls-1" d="M821,615.74a15.45,15.45,0,0,1-.13-1.91,9.8,9.8,0,0,0-.8-4,29.54,29.54,0,0,0-3.78-6.53A12.23,12.23,0,0,0,803,599c-1.26.38-2.51.8-3.78,1.15a8,8,0,0,0-4.78,3.52c-1.87,2.92-3.16,6-2.78,9.56a15.62,15.62,0,0,1,.23,1.9,15.17,15.17,0,0,0,1.31,6.13,7.61,7.61,0,0,0,2.4,3.37c1.4,1.08,2.82,2.14,4.27,3.14a7.47,7.47,0,0,0,4.59,1.34c3.13-.12,7.1-.58,9.73-2.33a13.63,13.63,0,0,0,2.89-2.18,20.2,20.2,0,0,0,3.32-5.09A7.15,7.15,0,0,0,821,615.74Z"/><path class="cls-1" d="M692.23,770.6a6.24,6.24,0,0,0,.16.75,31.75,31.75,0,0,0,5.4,10,19,19,0,0,0,18.29,7.13c4.32-.75,7.79-3.53,10.42-6.88a34.31,34.31,0,0,0,5.37-10.14,9.2,9.2,0,0,0,.21-.94C730.26,770.26,693,770.35,692.23,770.6Z"/><path class="cls-1" d="M608.9,462.36h53.17a1.8,1.8,0,0,1,.5.2c-.26.7-.49,1.36-.76,2a36.55,36.55,0,0,1-8.63,12.57,22.94,22.94,0,0,1-12.54,6.22,26.81,26.81,0,0,1-22.22-6.47,33.74,33.74,0,0,1-9.12-13.28C609.16,463.28,609.07,462.92,608.9,462.36Z"/><path class="cls-1" d="M531.1,727.19H477.44c.24-.66.41-1.22.64-1.77a36.68,36.68,0,0,1,8.14-12.37,23.52,23.52,0,0,1,13.34-6.83,26.77,26.77,0,0,1,21.07,5.68,33.31,33.31,0,0,1,10.21,14.38A7.92,7.92,0,0,1,531.1,727.19Z"/><path class="cls-2" d="M503.31,480.24V534a4.12,4.12,0,0,1-.78-.16,37,37,0,0,1-13.4-8.56,23.46,23.46,0,0,1-6.9-13.79,26.84,26.84,0,0,1,6.09-21.17,33.67,33.67,0,0,1,14.12-9.83C502.68,480.39,502.94,480.34,503.31,480.24Z"/><path class="cls-1" d="M459.41,831.86a7.79,7.79,0,0,1-1.39,5.71c-.71,1.11-1.46,2.2-2.27,3.23a10.44,10.44,0,0,1-4.25,2.91,23.82,23.82,0,0,1-9.79,1.7,7.49,7.49,0,0,1-3.83-1.55c-1.18-.88-2.37-1.74-3.53-2.64a7.69,7.69,0,0,1-2.51-3.29,13.94,13.94,0,0,1-1.37-6.22,2.93,2.93,0,0,0-.1-.78,12.16,12.16,0,0,1,1.1-8.13,36.07,36.07,0,0,1,2.21-3.67,7,7,0,0,1,4.56-2.88,22.6,22.6,0,0,0,3.17-.79c4.68-1.67,10.5.3,13.53,4.54a50.58,50.58,0,0,1,3.37,5.73,9.82,9.82,0,0,1,1.1,5.14C459.4,831.17,459.41,831.47,459.41,831.86Z"/><path class="cls-2" d="M642.77,634.06V593.75a6.15,6.15,0,0,1,.78.17,32.22,32.22,0,0,1,12,6.76,16.6,16.6,0,0,1,5.61,10.18,18,18,0,0,1-3.63,13.58,26.56,26.56,0,0,1-11.22,8.3C645.22,633.21,644.08,633.58,642.77,634.06Z"/><path class="cls-2" d="M488.88,702.36a9.73,9.73,0,0,1,.05-3.49,15.47,15.47,0,0,1,3.24-8,13.75,13.75,0,0,1,8-4.74A27.19,27.19,0,0,1,516,687.31,13.53,13.53,0,0,1,525,698.72a27.54,27.54,0,0,1,0,3.64Z"/><path class="cls-2" d="M654.88,490.36c.16,4.47-.82,8.44-3.7,11.79a12.52,12.52,0,0,1-6.22,3.94A26.44,26.44,0,0,1,626.75,505c-4.71-2.09-7.29-5.88-8-11a17.47,17.47,0,0,1-.08-3.62Z"/><path class="cls-2" d="M729.92,746.46c0,1.24.09,2.44.07,3.63a16.8,16.8,0,0,1-1.36,6.48,10.56,10.56,0,0,1-8.72,6.5c-4.25.61-8.31-.3-12.33-1.53a22.54,22.54,0,0,1-8.55-4.69,15.79,15.79,0,0,1-5.25-9.13,6.93,6.93,0,0,1-.1-.78,2.78,2.78,0,0,1,0-.48Z"/><path class="cls-2" d="M476.16,488.89V525a3.13,3.13,0,0,1-.82.26,20.31,20.31,0,0,1-9.19-1.32,10.32,10.32,0,0,1-6.59-9,28.84,28.84,0,0,1,4.62-18.48,15.94,15.94,0,0,1,9.67-7.15C474.57,489.15,475.31,489.05,476.16,488.89Z"/><path class="cls-2" d="M619,632.32V596.24a4.82,4.82,0,0,1,1-.24,22.1,22.1,0,0,1,7.8.87c5,1.62,7.76,5.49,7.91,10.88a31.79,31.79,0,0,1-2.93,13.89,19.47,19.47,0,0,1-5.61,7.4,15.38,15.38,0,0,1-7,3.19A10.57,10.57,0,0,1,619,632.32Z"/><path class="cls-2" d="M629.89,451.05c.89-.08,1.56-.18,2.23-.2a2.69,2.69,0,0,1,2.86,2.3,7.33,7.33,0,0,1,.16,2.47,3.3,3.3,0,0,1-1.62,2.75,7.08,7.08,0,0,1-3,.57A51.21,51.21,0,0,1,629.89,451.05Zm2.14,5.79a5.26,5.26,0,0,0,.85-.17c.88-.49,1-2.78.33-3.52-.08-.31-1.61-.53-1.65,0A8.24,8.24,0,0,0,632,456.84Z"/><path class="cls-2" d="M649.11,450.48c.38,0,.57-.05.75,0l.95.07a74.84,74.84,0,0,1,1.94,7.74,2.56,2.56,0,0,1-1.43.28c-.16-.17-.09-.64-.24-.75a2.61,2.61,0,0,0-2-.19c-.16.16-.14.62-.29.88a6.33,6.33,0,0,1-.64.06,7.35,7.35,0,0,1-.82-.1A78.19,78.19,0,0,1,649.11,450.48Zm1.08,3.54-.45.07a12.21,12.21,0,0,0-.15,1.34c0,.11.86.11.94.08s0-.4,0-.52A6.11,6.11,0,0,0,650.19,454Z"/><path class="cls-2" d="M617,453.12a.3.3,0,0,1,0,.1,2.63,2.63,0,0,1-1.34.06c-.37-.15-.32-.67-.85-.49a1.85,1.85,0,0,0-.91,1,2.41,2.41,0,0,0,.06,2.37,2.32,2.32,0,0,0,.62.63.71.71,0,0,0,1-.25c.11-.22.18-.44,0-.62s-.6-.1-.6-.1a1.62,1.62,0,0,1,.05-1c.12-.24,0-.18.32-.24a6.84,6.84,0,0,1,1.63.08,4.07,4.07,0,0,1-1.26,4.21,1.45,1.45,0,0,1-1.95-.11,3.42,3.42,0,0,1-.58-.68,5.83,5.83,0,0,1-.23-5.61,2,2,0,0,1,3.69-.34A2.51,2.51,0,0,1,617,453.12Z"/><path class="cls-2" d="M623.11,454.92a6.93,6.93,0,0,1-.79,3.07c-.88,1.55-2.54,1.6-3.36,0a5.85,5.85,0,0,1-.07-5.54,2,2,0,0,1,2.06-1.3,2.07,2.07,0,0,1,1.79,1.66A20.26,20.26,0,0,1,623.11,454.92Zm-1.27,0a2.53,2.53,0,0,0-.13-1,1.33,1.33,0,0,0-1.13-.95,1.35,1.35,0,0,0-1,1.2,6.48,6.48,0,0,0,0,1.46,1.87,1.87,0,0,0,.43.88.8.8,0,0,0,1.4-.12A3.44,3.44,0,0,0,621.84,454.92Z"/><path class="cls-2" d="M629,454.79a6.72,6.72,0,0,1-.79,3.15c-.9,1.54-2.53,1.57-3.35,0a5.89,5.89,0,0,1-.07-5.52,2,2,0,0,1,2-1.34,2.14,2.14,0,0,1,1.84,1.74A16.54,16.54,0,0,1,629,454.79Zm-3.64-.27a4,4,0,0,0,.22,1.43,1,1,0,0,0,1.49.67,2.62,2.62,0,0,0,.16-3.38.91.91,0,0,0-1.42.05A1.86,1.86,0,0,0,625.31,454.52Z"/><path class="cls-2" d="M656.38,458.76l-1.33-.39a10.09,10.09,0,0,1,.64-1.83,1.91,1.91,0,0,0,.34-1.15S654.3,453,653.6,452l1.3-1.23,2.11,2.77c.32-.68.57-1.17.79-1.67.42-1,.7-1,1.8-.76C659.63,452,657.41,457.08,656.38,458.76Z"/><path class="cls-2" d="M640.85,450.93c.88-.08,1.55-.18,2.23-.2a2.69,2.69,0,0,1,2.86,2.3,7.37,7.37,0,0,1,.15,2.48,3.29,3.29,0,0,1-1.61,2.74,7.08,7.08,0,0,1-3,.57A51.21,51.21,0,0,1,640.85,450.93Zm2.14,5.79a4.52,4.52,0,0,0,.85-.17c.87-.49,1-2.78.33-3.52-.08-.31-1.61-.53-1.65,0A8.23,8.23,0,0,0,643,456.72Z"/><path class="cls-2" d="M517.37,729.86a6.58,6.58,0,0,1,3.2.24c1.57.52,1.84,2,.78,3.19l-.43.55c.19.27.5.49.67.74a1.83,1.83,0,0,1-1,2.92,6.7,6.7,0,0,1-3.19.24C517.39,735.19,517.37,732.47,517.37,729.86Zm1.41,6.56c.53,0,.92.06,1.18-.31a1,1,0,0,0-.06-1c-.16-.23-.31-.19-.59-.22a1.07,1.07,0,0,0-.51,0S518.74,736,518.78,736.42Zm0-5.2v1.39s1.34.53,1.29-.59S518.8,731.22,518.8,731.22Z"/><path class="cls-2" d="M510.66,734.09l.76-4c.66,0,1.31-.06,2-.06a5.82,5.82,0,0,1-.21.8c-.61,1.93-1.22,3.86-1.87,5.78-.19.55-.36,1.29-1.11,1.24s-.68-.74-.84-1.21c-.56-1.6-1.08-3.21-1.61-4.82-.11-.34-.41-.89-.22-1.05.54-.43,1.3-.35,1.48,0s.55,1.46.75,1.94.36,1.19.55,1.63C510.42,734.6,510.55,734.46,510.66,734.09Z"/><path class="cls-2" d="M524.49,732.65c.37.21.87,0,.89.26a9,9,0,0,1,0,1.71c-.25.16-.45,0-1.08.07.08.36,0,.79.06.79.74.13,1.78.06,1.7.26,0,.36-.06,1.54-.15,2l-1.27,0h-1.38a45.87,45.87,0,0,1-.36-8,9.6,9.6,0,0,1,2.79.3c.07.55.11,1.19.18,1.71-.6.1-1,.06-1.46.14C524.41,732.09,524.51,732.55,524.49,732.65Z"/><path class="cls-2" d="M530,729.86c.06.56.08,1.09.12,1.5-.26,0-.36-.05-.59.09-.45.29-.37.68-.09,1.06s.64.74.94,1.12a2.94,2.94,0,0,1,.75,2.5c-.3,1.4-1.37,1.93-3.25,1.71-.06-.44-.15-1.16-.21-1.59,1.7-.22,1.72-.79.66-2.1-.23-.29-.59-.57-.82-.87-1-1.31-.42-2.76,1.19-3.22A9.69,9.69,0,0,1,530,729.86Z"/><path class="cls-2" d="M516.52,737.82c-1.26.39-1.67.13-1.75-.74-.18-2.13-.3-4.27-.43-6.41,0-.14,0-.41.09-.52a2.31,2.31,0,0,1,1.56,0C516.2,732.67,516.32,735.33,516.52,737.82Z"/><path class="cls-2" d="M496.92,729.91c.88-.08,1.55-.18,2.22-.2A2.69,2.69,0,0,1,502,732a7.33,7.33,0,0,1,.16,2.47,3.3,3.3,0,0,1-1.62,2.75,7,7,0,0,1-3,.57A51.21,51.21,0,0,1,496.92,729.91Zm2.14,5.79a5.34,5.34,0,0,0,.84-.17c.88-.49,1-2.78.33-3.52-.08-.31-1.6-.53-1.65,0A8.11,8.11,0,0,0,499.06,735.7Z"/><path class="cls-2" d="M484,732a.3.3,0,0,1,0,.1,2.63,2.63,0,0,1-1.34.06c-.37-.15-.32-.67-.84-.49a1.84,1.84,0,0,0-.92,1A2.41,2.41,0,0,0,481,735a2.32,2.32,0,0,0,.62.63.71.71,0,0,0,1-.25c.11-.22.18-.44,0-.62s-.6-.1-.6-.1a1.61,1.61,0,0,1,.06-1c.11-.24,0-.18.32-.24a6.86,6.86,0,0,1,1.63.08,4.11,4.11,0,0,1-1.26,4.21,1.45,1.45,0,0,1-1.95-.11,3.12,3.12,0,0,1-.58-.68,5.81,5.81,0,0,1-.24-5.61,2,2,0,0,1,3.69-.34A2.39,2.39,0,0,1,484,732Z"/><path class="cls-2" d="M490.13,733.78a7.05,7.05,0,0,1-.78,3.07c-.88,1.55-2.55,1.6-3.37,0a5.85,5.85,0,0,1-.07-5.54A2,2,0,0,1,488,730a2.06,2.06,0,0,1,1.79,1.65A18.44,18.44,0,0,1,490.13,733.78Zm-1.27,0a2.53,2.53,0,0,0-.13-1c-.2-.56-.73-1-1.12-.95a1.34,1.34,0,0,0-1,1.2,6,6,0,0,0,0,1.46,1.76,1.76,0,0,0,.42.88.8.8,0,0,0,1.4-.12A3.31,3.31,0,0,0,488.86,733.78Z"/><path class="cls-2" d="M496,733.65a6.85,6.85,0,0,1-.8,3.15c-.9,1.54-2.53,1.57-3.35,0a5.89,5.89,0,0,1-.07-5.52,2,2,0,0,1,2-1.34,2.16,2.16,0,0,1,1.85,1.74C495.81,732.31,495.87,733,496,733.65Zm-3.64-.27a4.26,4.26,0,0,0,.21,1.43,1,1,0,0,0,1.49.67,2.62,2.62,0,0,0,.16-3.38.91.91,0,0,0-1.42,0A1.85,1.85,0,0,0,492.34,733.38Z"/><rect class="cls-3" x="237.06" y="4.95" width="13.36" height="13.36"/><rect class="cls-4" x="257.09" y="4.95" width="13.36" height="13.36"/></g></svg>