<svg xmlns="http://www.w3.org/2000/svg" viewBox="0 0 850.39 850.39"><defs><style>.cls-1{fill:#006396;}.cls-2{fill:#f3b5bb;}.cls-3{fill:#d4c639;}</style></defs><g id="Capa_2" data-name="Capa 2"><path class="cls-1" d="M43,43.91a5.29,5.29,0,0,1,.63.83,7.09,7.09,0,0,0,.74,1,14.89,14.89,0,0,0,2,1.73,20.72,20.72,0,0,0,6,2.89h0A.53.53,0,0,0,53,50a.54.54,0,0,0-.36-.67h0A19.86,19.86,0,0,1,47,46.6,14.36,14.36,0,0,1,45.12,45a6.42,6.42,0,0,1-.63-.83,5.78,5.78,0,0,0-.77-1h0a.53.53,0,1,0-.75.76Z"/><path class="cls-1" d="M44.17,57.26c-.08-.47-.17-.94-.26-1.39-.18-1-.36-1.89-.45-2.86s-.14-2.14-.17-3.4a9.79,9.79,0,0,1,.11-1.32,10.12,10.12,0,0,0,.12-1.38,11.7,11.7,0,0,1,.17-1.64,11.67,11.67,0,0,0,.19-1.8h0a.54.54,0,1,0-1.07,0h0a11.57,11.57,0,0,1-.17,1.63,10.55,10.55,0,0,0-.19,1.8,8.65,8.65,0,0,1-.11,1.24,10.1,10.1,0,0,0-.12,1.49c0,1.28.08,2.42.18,3.47s.28,2,.46,3c.09.45.18.91.25,1.37h0a.53.53,0,0,0,.62.43.53.53,0,0,0,.44-.61Z"/><path class="cls-1" d="M35.85,42.32c-.45.25-2.33,1.4-2,1.55a10.72,10.72,0,0,0,2.61.76,8.89,8.89,0,0,0,3.67,0,7.56,7.56,0,0,0,1.68-.57c.53-.26,1-.73,1.49-1-.12-.73-3-2.16-4.56-1.94A5.6,5.6,0,0,0,35.85,42.32Z"/><path class="cls-1" d="M44.48,41.91a4.88,4.88,0,0,0,1.92-2.4c.15-.42.17-1,.28-1.41s.39-.79.29-1.35a3.75,3.75,0,0,0-3.57,3.11,7.8,7.8,0,0,0,0,2.46A2.18,2.18,0,0,0,44.48,41.91Z"/><path class="cls-2" d="M47.1,59.64A4.11,4.11,0,1,1,43,55.5,4.13,4.13,0,0,1,47.1,59.64Z"/><path class="cls-2" d="M57.76,51.72a4.11,4.11,0,1,1-4.11-4.14A4.13,4.13,0,0,1,57.76,51.72Z"/><polygon class="cls-3" points="184.45 3.86 187.37 9.34 184.33 15 181.47 9.52 184.45 3.86"/><path class="cls-1" d="M257.67,151.56a1.91,1.91,0,1,1-1.91-1.92A1.91,1.91,0,0,1,257.67,151.56Z"/><path class="cls-2" d="M293.64,41.6a4,4,0,0,0-3.35,4.47h0s0,0,0,0c.43,6.72,7.8,10.74,8.06,10.83V45.67C298,43.37,296.23,41.33,293.64,41.6Z"/><path class="cls-3" d="M306.43,46.12v0a4,4,0,0,0-3.35-4.47c-2.61-.28-4.35,1.8-4.72,4.13a.13.13,0,0,1,0-.06V57h0S306,52.94,306.43,46.12Z"/><polygon class="cls-3" points="43.16 151.81 46.08 157.29 43.05 162.95 40.19 157.47 43.16 151.81"/><path class="cls-1" d="M247.26,235.41a9.68,9.68,0,0,1-9.29-9l-3.92,0c.39,7.35,6.12,13.24,13.23,13.33s13-5.63,13.55-13l-4.06-.05A9.67,9.67,0,0,1,247.26,235.41Z"/><path class="cls-3" d="M247.26,235.41a9.67,9.67,0,0,0,9.51-8.74l-3.31,0a6.06,6.06,0,0,1-12-.16l-3.54-.05A9.68,9.68,0,0,0,247.26,235.41Z"/><path class="cls-2" d="M247.42,231.58a6.13,6.13,0,0,0,6-5l-3.28,0a2.85,2.85,0,0,1-5.44-.07l-3.23,0A6.14,6.14,0,0,0,247.42,231.58Z"/><path class="cls-1" d="M134,97.9a9.68,9.68,0,0,1,9.2,9.08l3.92.1c-.31-7.36-6-13.31-13.09-13.48s-13,5.51-13.69,12.84l4.06.1A9.67,9.67,0,0,1,134,97.9Z"/><path class="cls-3" d="M134,97.9a9.67,9.67,0,0,0-9.6,8.64l3.31.08a6.06,6.06,0,0,1,12,.28l3.54.08A9.68,9.68,0,0,0,134,97.9Z"/><path class="cls-2" d="M133.75,101.72a6.13,6.13,0,0,0-6.09,4.9l3.28.07a2.85,2.85,0,0,1,5.44.13l3.23.08A6.15,6.15,0,0,0,133.75,101.72Z"/><path class="cls-1" d="M402.7,405.8a9.68,9.68,0,0,1,9.2,9.09l3.92.09c-.31-7.36-6-13.31-13.09-13.47s-13,5.5-13.69,12.83l4.06.1A9.66,9.66,0,0,1,402.7,405.8Z"/><path class="cls-3" d="M402.7,405.8a9.66,9.66,0,0,0-9.6,8.64l3.31.08a6.07,6.07,0,0,1,11.95.28l3.54.09A9.68,9.68,0,0,0,402.7,405.8Z"/><path class="cls-2" d="M402.5,409.63a6.13,6.13,0,0,0-6.09,4.89l3.28.08a2.85,2.85,0,0,1,5.44.13l3.23.07A6.14,6.14,0,0,0,402.5,409.63Z"/><polygon class="cls-3" points="6 256.17 8.92 261.65 5.88 267.31 3.02 261.83 6 256.17"/><path class="cls-3" d="M395.13,170.26a4,4,0,0,0-3.35,4.46h0v0c.43,6.72,7.8,10.74,8.06,10.84V174.33C399.45,172,397.72,170,395.13,170.26Z"/><path class="cls-1" d="M407.93,174.77a.43.43,0,0,1,0-.05,4,4,0,0,0-3.35-4.46c-2.61-.28-4.35,1.8-4.72,4.13,0,0,0,0,0-.06v11.28h0S407.49,181.6,407.93,174.77Z"/><path class="cls-1" d="M351.3,247.33a1.91,1.91,0,1,1-1.91-1.92A1.91,1.91,0,0,1,351.3,247.33Z"/><ellipse class="cls-1" cx="183.97" cy="338.65" rx="1.91" ry="1.92"/><path class="cls-3" d="M66.34,338.54A4,4,0,0,1,63,334.08h0v0c.43-6.72,7.8-10.74,8.06-10.84v11.28C70.66,336.78,68.93,338.82,66.34,338.54Z"/><path class="cls-2" d="M79.14,334v.05a4,4,0,0,1-3.35,4.46c-2.62.28-4.36-1.8-4.73-4.13a.13.13,0,0,1,0,.06V323.19h0S78.7,327.2,79.14,334Z"/><path class="cls-1" d="M119.61,225.75a5.82,5.82,0,0,1-1-.41,7.14,7.14,0,0,0-1.13-.49,15.41,15.41,0,0,0-2.57-.52,20.84,20.84,0,0,0-6.69.5h0a.53.53,0,0,0,.24,1h0a20.06,20.06,0,0,1,6.33-.48,15.38,15.38,0,0,1,2.39.49,6.39,6.39,0,0,1,1,.42,6,6,0,0,0,1.17.48h0a.53.53,0,0,0,.65-.38.54.54,0,0,0-.38-.65Z"/><path class="cls-1" d="M111.92,214.77l.92,1.08c.64.75,1.25,1.45,1.81,2.25s1.19,1.79,1.84,2.87a9.4,9.4,0,0,1,.56,1.2,9.36,9.36,0,0,0,.59,1.25,12.27,12.27,0,0,1,.66,1.51,12.58,12.58,0,0,0,.73,1.65h0a.54.54,0,0,0,.94-.53h0a11.36,11.36,0,0,1-.67-1.5,12.7,12.7,0,0,0-.73-1.66,9.77,9.77,0,0,1-.53-1.13,9.48,9.48,0,0,0-.63-1.34c-.66-1.11-1.27-2.06-1.88-2.93s-1.25-1.61-1.88-2.34l-.9-1.06h0A.53.53,0,0,0,112,214a.55.55,0,0,0-.08.76Z"/><path class="cls-1" d="M126.58,223.58c.26-.44,1.31-2.37,1-2.35a11.06,11.06,0,0,0-2.64.64,8.82,8.82,0,0,0-3.2,1.79,7.08,7.08,0,0,0-1.18,1.33c-.33.49-.46,1.11-.82,1.56.47.57,3.63.42,4.93-.58A5.77,5.77,0,0,0,126.58,223.58Z"/><path class="cls-1" d="M119.29,228.23a4.93,4.93,0,0,0-.47,3c.08.44.34.95.46,1.36s0,.89.42,1.32a3.76,3.76,0,0,0,1.55-4.47,8.2,8.2,0,0,0-1.24-2.13C120,227.3,119.52,227.77,119.29,228.23Z"/><path class="cls-2" d="M108.2,214.16a4.11,4.11,0,1,1,5.62,1.54A4.13,4.13,0,0,1,108.2,214.16Z"/><path class="cls-2" d="M102.89,226.33a4.11,4.11,0,1,1,5.63,1.55A4.13,4.13,0,0,1,102.89,226.33Z"/><path class="cls-1" d="M312.83,335a5.93,5.93,0,0,1-.3,1,7.67,7.67,0,0,0-.36,1.15,14.14,14.14,0,0,0-.24,2.54,19.41,19.41,0,0,0,1.17,6.3h0a.51.51,0,0,0,.67.28.55.55,0,0,0,.33-.68h0a18.15,18.15,0,0,1-1.12-5.95,13.08,13.08,0,0,1,.23-2.36,5.32,5.32,0,0,1,.3-1,6.46,6.46,0,0,0,.35-1.19h0a.48.48,0,0,0-.44-.57.55.55,0,0,0-.59.47Z"/><path class="cls-1" d="M302.92,344c.33-.34.65-.69,1-1a26.41,26.41,0,0,1,2-2.08c.76-.69,1.61-1.41,2.6-2.19a9.24,9.24,0,0,1,1.11-.73,10.7,10.7,0,0,0,1.16-.74,11.42,11.42,0,0,1,1.4-.87,13,13,0,0,0,1.54-.95h0a.53.53,0,0,0,.12-.73.51.51,0,0,0-.73-.08h0a12.17,12.17,0,0,1-1.4.86,11.92,11.92,0,0,0-1.54,1,9.37,9.37,0,0,1-1,.67,10.92,10.92,0,0,0-1.24.81c-1,.8-1.88,1.54-2.66,2.25s-1.44,1.43-2.09,2.15l-.94,1h0a.51.51,0,0,0,0,.73.52.52,0,0,0,.74-.05Z"/><path class="cls-1" d="M310,328.69c-.46-.18-2.45-.89-2.4-.57a10,10,0,0,0,.9,2.41,8,8,0,0,0,2.07,2.78,7.12,7.12,0,0,0,1.43.92c.5.24,1.12.27,1.6.53.51-.53,0-3.52-1.08-4.6A5.16,5.16,0,0,0,310,328.69Z"/><path class="cls-1" d="M315.28,334.92a4.91,4.91,0,0,0,3,0c.42-.14.89-.48,1.28-.65s.85-.19,1.24-.6a3.63,3.63,0,0,0-4.52-.79,8.49,8.49,0,0,0-1.94,1.51C314.31,334.43,314.81,334.77,315.28,334.92Z"/><path class="cls-2" d="M302.71,347.66a3.89,3.89,0,1,1,.93-5.6A4,4,0,0,1,302.71,347.66Z"/><path class="cls-2" d="M315.12,350.84a3.89,3.89,0,1,1,.93-5.6A4,4,0,0,1,315.12,350.84Z"/><path class="cls-1" d="M43,475.47a4.86,4.86,0,0,1,.63.83,7,7,0,0,0,.74,1,15.75,15.75,0,0,0,2,1.74,21,21,0,0,0,6,2.89h0a.54.54,0,0,0,.67-.36.55.55,0,0,0-.36-.67h0A19.6,19.6,0,0,1,47,478.15a13.53,13.53,0,0,1-1.83-1.61,5.93,5.93,0,0,1-.63-.84,6.19,6.19,0,0,0-.77-1h0a.54.54,0,0,0-.75.77Z"/><path class="cls-1" d="M44.17,488.81c-.08-.47-.17-.94-.26-1.39-.18-1-.36-1.89-.45-2.86s-.14-2.14-.17-3.4a9.93,9.93,0,0,1,.11-1.32,10,10,0,0,0,.12-1.38,11.57,11.57,0,0,1,.17-1.63,11.67,11.67,0,0,0,.19-1.8h0a.54.54,0,1,0-1.07,0h0a11.7,11.7,0,0,1-.17,1.64,10.55,10.55,0,0,0-.19,1.8,8.65,8.65,0,0,1-.11,1.24,10,10,0,0,0-.12,1.48c0,1.29.08,2.42.18,3.48s.28,2,.46,3c.09.44.18.9.25,1.36h0a.54.54,0,1,0,1.06-.18Z"/><path class="cls-1" d="M35.85,473.88c-.45.25-2.33,1.4-2,1.55a11.16,11.16,0,0,0,2.61.75,8.72,8.72,0,0,0,3.67.05,7.11,7.11,0,0,0,1.68-.58c.53-.25,1-.72,1.49-.94-.12-.73-3-2.17-4.56-1.95A5.59,5.59,0,0,0,35.85,473.88Z"/><path class="cls-1" d="M44.48,473.47a5,5,0,0,0,1.92-2.41c.15-.42.17-1,.28-1.41s.39-.79.29-1.35a3.77,3.77,0,0,0-3.57,3.11,7.87,7.87,0,0,0,0,2.47A2.3,2.3,0,0,0,44.48,473.47Z"/><path class="cls-2" d="M47.1,491.19A4.11,4.11,0,1,1,43,487.06,4.12,4.12,0,0,1,47.1,491.19Z"/><ellipse class="cls-2" cx="53.65" cy="483.27" rx="4.11" ry="4.14"/><polygon class="cls-3" points="184.45 435.41 187.37 440.89 184.33 446.55 181.47 441.07 184.45 435.41"/><path class="cls-1" d="M257.67,583.11a1.91,1.91,0,1,1-1.91-1.92A1.91,1.91,0,0,1,257.67,583.11Z"/><path class="cls-2" d="M293.64,473.16a4,4,0,0,0-3.35,4.46h0s0,0,0,0c.43,6.72,7.8,10.74,8.06,10.84V477.23C298,474.92,296.23,472.88,293.64,473.16Z"/><path class="cls-3" d="M306.43,477.67v-.05a4,4,0,0,0-3.35-4.46c-2.61-.28-4.35,1.8-4.72,4.13a.13.13,0,0,1,0-.06v11.28h0S306,484.5,306.43,477.67Z"/><polygon class="cls-3" points="43.16 583.37 46.08 588.85 43.05 594.51 40.19 589.03 43.16 583.37"/><path class="cls-1" d="M247.26,667a9.7,9.7,0,0,1-9.29-9l-3.92-.06c.39,7.36,6.12,13.25,13.23,13.34s13-5.64,13.55-13l-4.06-.06A9.68,9.68,0,0,1,247.26,667Z"/><path class="cls-3" d="M247.26,667a9.68,9.68,0,0,0,9.51-8.75l-3.31,0a6.06,6.06,0,0,1-12-.16L238,658A9.7,9.7,0,0,0,247.26,667Z"/><path class="cls-2" d="M247.42,663.14a6.13,6.13,0,0,0,6-5l-3.28,0a2.85,2.85,0,0,1-5.44-.07l-3.23-.05A6.15,6.15,0,0,0,247.42,663.14Z"/><path class="cls-1" d="M134,529.45a9.7,9.7,0,0,1,9.2,9.09l3.92.09c-.31-7.36-6-13.3-13.09-13.47s-13,5.5-13.69,12.84l4.06.09A9.68,9.68,0,0,1,134,529.45Z"/><path class="cls-3" d="M134,529.45a9.68,9.68,0,0,0-9.6,8.64l3.31.08a6.06,6.06,0,0,1,12,.29l3.54.08A9.7,9.7,0,0,0,134,529.45Z"/><path class="cls-2" d="M133.75,533.28a6.14,6.14,0,0,0-6.09,4.89l3.28.08a2.85,2.85,0,0,1,5.44.13l3.23.08A6.14,6.14,0,0,0,133.75,533.28Z"/><path class="cls-1" d="M402.7,837.35a9.7,9.7,0,0,1,9.2,9.09l3.92.1c-.31-7.36-6-13.31-13.09-13.48s-13,5.5-13.69,12.84l4.06.1A9.68,9.68,0,0,1,402.7,837.35Z"/><path class="cls-3" d="M402.7,837.35a9.68,9.68,0,0,0-9.6,8.65l3.31.07a6.06,6.06,0,0,1,11.95.29l3.54.08A9.7,9.7,0,0,0,402.7,837.35Z"/><path class="cls-2" d="M402.5,841.18a6.14,6.14,0,0,0-6.09,4.89l3.28.08a2.85,2.85,0,0,1,5.44.13l3.23.08A6.14,6.14,0,0,0,402.5,841.18Z"/><polygon class="cls-3" points="6 687.72 8.92 693.2 5.88 698.86 3.02 693.38 6 687.72"/><path class="cls-3" d="M395.13,601.81a4,4,0,0,0-3.35,4.47h0v.05c.43,6.72,7.8,10.74,8.06,10.83V605.88C399.45,603.58,397.72,601.54,395.13,601.81Z"/><path class="cls-1" d="M407.93,606.33s0,0,0-.05a4,4,0,0,0-3.35-4.47c-2.61-.28-4.35,1.8-4.72,4.13,0,0,0,0,0-.06v11.28h0S407.49,613.15,407.93,606.33Z"/><path class="cls-1" d="M351.3,678.89a1.91,1.91,0,1,1-1.91-1.92A1.91,1.91,0,0,1,351.3,678.89Z"/><ellipse class="cls-1" cx="183.97" cy="770.2" rx="1.91" ry="1.92"/><path class="cls-3" d="M66.34,770.1A4,4,0,0,1,63,765.63h0v0c.43-6.72,7.8-10.74,8.06-10.83V766C70.66,768.33,68.93,770.37,66.34,770.1Z"/><path class="cls-2" d="M79.14,765.58v0a4,4,0,0,1-3.35,4.47c-2.62.28-4.36-1.8-4.73-4.13a.13.13,0,0,1,0,.06V754.75h0S78.7,758.76,79.14,765.58Z"/><path class="cls-1" d="M119.61,657.3a5.82,5.82,0,0,1-1-.41,7.1,7.1,0,0,0-1.13-.48,16.55,16.55,0,0,0-2.57-.53,20.86,20.86,0,0,0-6.69.51h0a.52.52,0,0,0-.4.64.53.53,0,0,0,.64.4h0a19.78,19.78,0,0,1,6.33-.48,14.3,14.3,0,0,1,2.39.49,7.46,7.46,0,0,1,1,.41,6,6,0,0,0,1.17.49h0A.54.54,0,0,0,120,658a.55.55,0,0,0-.38-.66Z"/><path class="cls-1" d="M111.92,646.32l.92,1.08c.64.75,1.25,1.46,1.81,2.26s1.19,1.78,1.84,2.86a9.4,9.4,0,0,1,.56,1.2,9.47,9.47,0,0,0,.59,1.26,12.81,12.81,0,0,1,.66,1.5,12.7,12.7,0,0,0,.73,1.66h0a.54.54,0,0,0,.94-.53h0a11.5,11.5,0,0,1-.67-1.51,12.58,12.58,0,0,0-.73-1.65,10.62,10.62,0,0,1-.53-1.13,9.58,9.58,0,0,0-.63-1.35c-.66-1.1-1.27-2.06-1.88-2.92s-1.25-1.61-1.88-2.35c-.3-.34-.6-.7-.9-1.06h0a.53.53,0,0,0-.75-.07.54.54,0,0,0-.08.75Z"/><path class="cls-1" d="M126.58,655.14c.26-.44,1.31-2.37,1-2.36a11.08,11.08,0,0,0-2.64.65,8.8,8.8,0,0,0-3.2,1.78,6.83,6.83,0,0,0-1.18,1.34c-.33.48-.46,1.1-.82,1.56.47.57,3.63.41,4.93-.58A5.83,5.83,0,0,0,126.58,655.14Z"/><path class="cls-1" d="M119.29,659.79a4.91,4.91,0,0,0-.47,3c.08.44.34.95.46,1.36s0,.88.42,1.32a3.77,3.77,0,0,0,1.55-4.48A8.37,8.37,0,0,0,120,658.9,2.27,2.27,0,0,0,119.29,659.79Z"/><path class="cls-2" d="M108.2,645.71a4.11,4.11,0,1,1,5.62,1.55A4.12,4.12,0,0,1,108.2,645.71Z"/><path class="cls-2" d="M102.89,657.89a4.11,4.11,0,1,1,5.63,1.54A4.14,4.14,0,0,1,102.89,657.89Z"/><path class="cls-1" d="M312.83,766.55a6,6,0,0,1-.3,1,7.32,7.32,0,0,0-.36,1.15,14.12,14.12,0,0,0-.24,2.53,19.36,19.36,0,0,0,1.17,6.3h0a.5.5,0,0,0,.67.28.54.54,0,0,0,.33-.67h0a18.16,18.16,0,0,1-1.12-6,13.06,13.06,0,0,1,.23-2.35,5.41,5.41,0,0,1,.3-1,6.46,6.46,0,0,0,.35-1.19h0a.48.48,0,0,0-.44-.56.55.55,0,0,0-.59.46Z"/><path class="cls-1" d="M302.92,775.57l1-1a28.11,28.11,0,0,1,2-2.07c.76-.7,1.61-1.42,2.6-2.2a10.56,10.56,0,0,1,1.11-.72,9.47,9.47,0,0,0,1.16-.75,11.37,11.37,0,0,1,1.4-.86,11.92,11.92,0,0,0,1.54-1h0a.53.53,0,0,0,.12-.73.52.52,0,0,0-.73-.08h0a12.23,12.23,0,0,1-1.4.87,11.92,11.92,0,0,0-1.54,1,11.06,11.06,0,0,1-1,.67,10.92,10.92,0,0,0-1.24.81c-1,.8-1.88,1.53-2.66,2.24s-1.44,1.44-2.09,2.16c-.3.33-.62.68-.94,1h0a.51.51,0,0,0,0,.73.53.53,0,0,0,.74,0Z"/><path class="cls-1" d="M310,760.24c-.46-.18-2.45-.89-2.4-.57a10,10,0,0,0,.9,2.41,8,8,0,0,0,2.07,2.78,6.34,6.34,0,0,0,1.43.92c.5.24,1.12.27,1.6.54.51-.54,0-3.53-1.08-4.6A5.28,5.28,0,0,0,310,760.24Z"/><path class="cls-1" d="M315.28,766.47a4.91,4.91,0,0,0,3,0c.42-.15.89-.48,1.28-.65s.85-.19,1.24-.61a3.62,3.62,0,0,0-4.52-.78,8.18,8.18,0,0,0-1.94,1.5C314.31,766,314.81,766.32,315.28,766.47Z"/><path class="cls-2" d="M302.71,779.21a3.89,3.89,0,1,1,.93-5.6A4,4,0,0,1,302.71,779.21Z"/><path class="cls-2" d="M315.12,782.4a3.89,3.89,0,1,1,.93-5.6A4,4,0,0,1,315.12,782.4Z"/><path class="cls-1" d="M474.52,43.91a6,6,0,0,1,.64.83,6.38,6.38,0,0,0,.74,1,14.28,14.28,0,0,0,2,1.73,20.6,20.6,0,0,0,6.05,2.89h0a.53.53,0,1,0,.31-1h0a19.93,19.93,0,0,1-5.73-2.73A14.36,14.36,0,0,1,476.67,45a5.6,5.6,0,0,1-.62-.83,6.38,6.38,0,0,0-.78-1h0a.53.53,0,0,0-.75,0,.54.54,0,0,0,0,.76Z"/><path class="cls-1" d="M475.73,57.26c-.08-.47-.17-.94-.26-1.39A28.3,28.3,0,0,1,475,53c-.09-1-.15-2.14-.17-3.4a8.4,8.4,0,0,1,.11-1.32,10.12,10.12,0,0,0,.12-1.38,10.38,10.38,0,0,1,.17-1.64,13.05,13.05,0,0,0,.19-1.8h0a.54.54,0,0,0-1.08,0h0a10.25,10.25,0,0,1-.17,1.63,11.68,11.68,0,0,0-.18,1.8c0,.42-.06.82-.11,1.24a8.9,8.9,0,0,0-.12,1.49c0,1.28.08,2.42.17,3.47a27.49,27.49,0,0,0,.47,3c.08.45.17.91.25,1.37h0a.54.54,0,0,0,1.06-.18Z"/><path class="cls-1" d="M467.4,42.32c-.44.25-2.32,1.4-2,1.55a10.64,10.64,0,0,0,2.6.76,8.89,8.89,0,0,0,3.67,0,7.65,7.65,0,0,0,1.69-.57c.53-.26,1-.73,1.48-1-.12-.73-2.94-2.16-4.56-1.94A5.64,5.64,0,0,0,467.4,42.32Z"/><path class="cls-1" d="M476,41.91a5,5,0,0,0,1.93-2.4c.15-.42.17-1,.28-1.41s.39-.79.28-1.35A3.77,3.77,0,0,0,475,39.86a8.44,8.44,0,0,0,0,2.46A2.18,2.18,0,0,0,476,41.91Z"/><path class="cls-2" d="M478.65,59.64a4.11,4.11,0,1,1-4.11-4.14A4.13,4.13,0,0,1,478.65,59.64Z"/><path class="cls-2" d="M489.31,51.72a4.11,4.11,0,1,1-4.11-4.14A4.13,4.13,0,0,1,489.31,51.72Z"/><polygon class="cls-3" points="616 3.86 618.92 9.34 615.88 15 613.03 9.52 616 3.86"/><path class="cls-1" d="M689.22,151.56a1.91,1.91,0,1,1-1.9-1.92A1.91,1.91,0,0,1,689.22,151.56Z"/><path class="cls-2" d="M725.19,41.6a4,4,0,0,0-3.35,4.47h0v0c.43,6.72,7.8,10.74,8.06,10.83V45.67C729.51,43.37,727.78,41.33,725.19,41.6Z"/><path class="cls-3" d="M738,46.12a.43.43,0,0,0,0,0,4,4,0,0,0-3.35-4.47c-2.61-.28-4.35,1.8-4.72,4.13,0,0,0,0,0-.06V57h0C730,57,737.55,52.94,738,46.12Z"/><polygon class="cls-3" points="474.72 151.81 477.64 157.29 474.6 162.95 471.74 157.47 474.72 151.81"/><path class="cls-1" d="M678.82,235.41a9.7,9.7,0,0,1-9.3-9l-3.92,0c.39,7.35,6.12,13.24,13.23,13.33s13-5.63,13.55-13l-4-.05A9.68,9.68,0,0,1,678.82,235.41Z"/><path class="cls-3" d="M678.82,235.41a9.68,9.68,0,0,0,9.51-8.74l-3.31,0a6.07,6.07,0,0,1-12-.16l-3.54-.05A9.7,9.7,0,0,0,678.82,235.41Z"/><path class="cls-2" d="M679,231.58a6.14,6.14,0,0,0,6-5l-3.28,0a2.86,2.86,0,0,1-5.45-.07l-3.23,0A6.15,6.15,0,0,0,679,231.58Z"/><path class="cls-1" d="M565.51,97.9a9.7,9.7,0,0,1,9.2,9.08l3.92.1c-.32-7.36-6-13.31-13.09-13.48s-13,5.51-13.69,12.84l4.06.1A9.66,9.66,0,0,1,565.51,97.9Z"/><path class="cls-3" d="M565.51,97.9a9.66,9.66,0,0,0-9.6,8.64l3.31.08a6.06,6.06,0,0,1,11.95.28l3.54.08A9.7,9.7,0,0,0,565.51,97.9Z"/><path class="cls-2" d="M565.31,101.72a6.13,6.13,0,0,0-6.09,4.9l3.27.07a2.86,2.86,0,0,1,5.45.13l3.23.08A6.16,6.16,0,0,0,565.31,101.72Z"/><path class="cls-1" d="M834.26,405.8a9.68,9.68,0,0,1,9.19,9.09l3.92.09c-.31-7.36-6-13.31-13.08-13.47s-13,5.5-13.69,12.83l4,.1A9.67,9.67,0,0,1,834.26,405.8Z"/><path class="cls-3" d="M834.26,405.8a9.67,9.67,0,0,0-9.61,8.64l3.31.08a6.07,6.07,0,0,1,12,.28l3.53.09A9.68,9.68,0,0,0,834.26,405.8Z"/><path class="cls-2" d="M834.06,409.63a6.14,6.14,0,0,0-6.1,4.89l3.28.08a2.85,2.85,0,0,1,5.44.13l3.24.07A6.15,6.15,0,0,0,834.06,409.63Z"/><polygon class="cls-3" points="437.55 256.17 440.47 261.65 437.43 267.31 434.57 261.83 437.55 256.17"/><path class="cls-3" d="M826.69,170.26a4,4,0,0,0-3.35,4.46h0s0,0,0,0c.43,6.72,7.8,10.74,8.06,10.84V174.33C831,172,829.28,170,826.69,170.26Z"/><path class="cls-1" d="M839.48,174.77v-.05a4,4,0,0,0-3.35-4.46c-2.61-.28-4.35,1.8-4.72,4.13a.13.13,0,0,1,0-.06v11.28h0S839,181.6,839.48,174.77Z"/><path class="cls-1" d="M782.86,247.33a1.91,1.91,0,1,1-1.91-1.92A1.92,1.92,0,0,1,782.86,247.33Z"/><ellipse class="cls-1" cx="615.53" cy="338.65" rx="1.91" ry="1.92"/><path class="cls-3" d="M497.9,338.54a4,4,0,0,1-3.35-4.46h0v0c.43-6.72,7.8-10.74,8.06-10.84v11.28C502.22,336.78,500.49,338.82,497.9,338.54Z"/><path class="cls-2" d="M510.69,334v.05a4,4,0,0,1-3.35,4.46c-2.61.28-4.35-1.8-4.72-4.13,0,0,0,0,0,.06V323.19h0S510.26,327.2,510.69,334Z"/><path class="cls-1" d="M551.16,225.75a5.75,5.75,0,0,1-1-.41,7.25,7.25,0,0,0-1.14-.49,15.41,15.41,0,0,0-2.57-.52,20.78,20.78,0,0,0-6.68.5h0a.53.53,0,0,0-.4.64.52.52,0,0,0,.64.4h0a20,20,0,0,1,6.32-.48,15.38,15.38,0,0,1,2.39.49,5.61,5.61,0,0,1,1,.42,6.55,6.55,0,0,0,1.17.48h0a.53.53,0,0,0,.27-1Z"/><path class="cls-1" d="M543.48,214.77l.91,1.08a27.54,27.54,0,0,1,1.82,2.25c.59.85,1.19,1.79,1.83,2.87a9.45,9.45,0,0,1,.57,1.2,10.68,10.68,0,0,0,.58,1.25,9.84,9.84,0,0,1,.66,1.51,12.66,12.66,0,0,0,.74,1.65h0a.54.54,0,1,0,.93-.53h0a11.33,11.33,0,0,1-.66-1.5,11.56,11.56,0,0,0-.74-1.66,8.31,8.31,0,0,1-.52-1.13,9.57,9.57,0,0,0-.64-1.34c-.65-1.11-1.27-2.06-1.87-2.93a27.94,27.94,0,0,0-1.89-2.34c-.29-.35-.6-.7-.89-1.06h0a.54.54,0,1,0-.83.68Z"/><path class="cls-1" d="M558.13,223.58c.26-.44,1.32-2.37,1-2.35a11,11,0,0,0-2.63.64,8.82,8.82,0,0,0-3.2,1.79,7.5,7.5,0,0,0-1.19,1.33c-.33.49-.46,1.11-.81,1.56.47.57,3.63.42,4.92-.58A5.61,5.61,0,0,0,558.13,223.58Z"/><path class="cls-1" d="M550.85,228.23a4.94,4.94,0,0,0-.48,3c.08.44.35.95.46,1.36s.06.89.43,1.32a3.76,3.76,0,0,0,1.54-4.47,7.93,7.93,0,0,0-1.24-2.13S551.08,227.77,550.85,228.23Z"/><path class="cls-2" d="M539.75,214.16a4.11,4.11,0,1,1,5.63,1.54A4.14,4.14,0,0,1,539.75,214.16Z"/><path class="cls-2" d="M534.45,226.33a4.11,4.11,0,1,1,5.62,1.55A4.12,4.12,0,0,1,534.45,226.33Z"/><path class="cls-1" d="M744.38,335a5.11,5.11,0,0,1-.3,1,6.63,6.63,0,0,0-.35,1.15,14.18,14.18,0,0,0-.25,2.54,19.17,19.17,0,0,0,1.18,6.3h0a.5.5,0,0,0,.67.28.54.54,0,0,0,.32-.68h0a18.15,18.15,0,0,1-1.12-5.95,15.18,15.18,0,0,1,.23-2.36,6.34,6.34,0,0,1,.31-1,6.46,6.46,0,0,0,.35-1.19h0a.49.49,0,0,0-.44-.57.55.55,0,0,0-.6.47Z"/><path class="cls-1" d="M734.47,344c.33-.34.65-.69,1-1a28.33,28.33,0,0,1,2-2.08c.77-.69,1.62-1.41,2.6-2.19a8.62,8.62,0,0,1,1.12-.73,11.77,11.77,0,0,0,1.16-.74,11.42,11.42,0,0,1,1.4-.87,13.78,13.78,0,0,0,1.53-.95h0a.52.52,0,0,0,.12-.73.51.51,0,0,0-.73-.08h0a11.37,11.37,0,0,1-1.4.86,12.53,12.53,0,0,0-1.53,1,9.37,9.37,0,0,1-1.05.67,11,11,0,0,0-1.25.81c-1,.8-1.87,1.54-2.65,2.25a28,28,0,0,0-2.09,2.15l-.94,1h0a.51.51,0,0,0,0,.73.52.52,0,0,0,.74-.05Z"/><path class="cls-1" d="M741.55,328.69c-.45-.18-2.45-.89-2.39-.57a10,10,0,0,0,.89,2.41,7.94,7.94,0,0,0,2.08,2.78,6.78,6.78,0,0,0,1.42.92c.51.24,1.13.27,1.6.53.51-.53,0-3.52-1.07-4.6A5.19,5.19,0,0,0,741.55,328.69Z"/><path class="cls-1" d="M746.83,334.92a4.94,4.94,0,0,0,3,0c.42-.14.89-.48,1.28-.65s.85-.19,1.24-.6a3.64,3.64,0,0,0-4.53-.79,9,9,0,0,0-1.94,1.51C745.86,334.43,746.36,334.77,746.83,334.92Z"/><path class="cls-2" d="M734.26,347.66a3.89,3.89,0,1,1,.93-5.6A4,4,0,0,1,734.26,347.66Z"/><path class="cls-2" d="M746.68,350.84a3.89,3.89,0,1,1,.92-5.6A4,4,0,0,1,746.68,350.84Z"/><path class="cls-1" d="M474.52,475.47a5.44,5.44,0,0,1,.64.83,6.3,6.3,0,0,0,.74,1,15.07,15.07,0,0,0,2,1.74,20.85,20.85,0,0,0,6.05,2.89h0a.54.54,0,0,0,.67-.36.55.55,0,0,0-.36-.67h0a19.67,19.67,0,0,1-5.73-2.73,13.53,13.53,0,0,1-1.83-1.61,5.23,5.23,0,0,1-.62-.84,6.88,6.88,0,0,0-.78-1h0a.53.53,0,0,0-.75,0,.54.54,0,0,0,0,.76Z"/><path class="cls-1" d="M475.73,488.81c-.08-.47-.17-.94-.26-1.39a28.3,28.3,0,0,1-.45-2.86c-.09-1-.15-2.14-.17-3.4a8.5,8.5,0,0,1,.11-1.32,10,10,0,0,0,.12-1.38,10.25,10.25,0,0,1,.17-1.63,13.05,13.05,0,0,0,.19-1.8h0a.54.54,0,0,0-1.08,0h0a10.38,10.38,0,0,1-.17,1.64,11.68,11.68,0,0,0-.18,1.8c0,.42-.06.82-.11,1.24a8.78,8.78,0,0,0-.12,1.48c0,1.29.08,2.42.17,3.48a27.89,27.89,0,0,0,.47,3c.08.44.17.9.25,1.36h0a.54.54,0,0,0,.62.44.55.55,0,0,0,.44-.62Z"/><path class="cls-1" d="M467.4,473.88c-.44.25-2.32,1.4-2,1.55a11.08,11.08,0,0,0,2.6.75,8.73,8.73,0,0,0,3.67.05,7.19,7.19,0,0,0,1.69-.58c.53-.25,1-.72,1.48-.94-.12-.73-2.94-2.17-4.56-1.95A5.63,5.63,0,0,0,467.4,473.88Z"/><path class="cls-1" d="M476,473.47a5,5,0,0,0,1.93-2.41c.15-.42.17-1,.28-1.41s.39-.79.28-1.35a3.79,3.79,0,0,0-3.57,3.11,8.51,8.51,0,0,0,0,2.47A2.3,2.3,0,0,0,476,473.47Z"/><path class="cls-2" d="M478.65,491.19a4.11,4.11,0,1,1-4.11-4.13A4.12,4.12,0,0,1,478.65,491.19Z"/><ellipse class="cls-2" cx="485.2" cy="483.27" rx="4.11" ry="4.14"/><polygon class="cls-3" points="616 435.41 618.92 440.89 615.88 446.55 613.03 441.07 616 435.41"/><path class="cls-1" d="M689.22,583.11a1.91,1.91,0,1,1-1.9-1.92A1.91,1.91,0,0,1,689.22,583.11Z"/><path class="cls-2" d="M725.19,473.16a4,4,0,0,0-3.35,4.46h0v0c.43,6.72,7.8,10.74,8.06,10.84V477.23C729.51,474.92,727.78,472.88,725.19,473.16Z"/><path class="cls-3" d="M738,477.67s0,0,0-.05a4,4,0,0,0-3.35-4.46c-2.61-.28-4.35,1.8-4.72,4.13,0,0,0,0,0-.06v11.28h0C730,488.54,737.55,484.5,738,477.67Z"/><polygon class="cls-3" points="474.72 583.37 477.64 588.85 474.6 594.51 471.74 589.03 474.72 583.37"/><path class="cls-1" d="M678.82,667a9.71,9.71,0,0,1-9.3-9l-3.92-.06c.39,7.36,6.12,13.25,13.23,13.34s13-5.64,13.55-13l-4-.06A9.68,9.68,0,0,1,678.82,667Z"/><path class="cls-3" d="M678.82,667a9.68,9.68,0,0,0,9.51-8.75l-3.31,0a6.07,6.07,0,0,1-12-.16l-3.54,0A9.71,9.71,0,0,0,678.82,667Z"/><path class="cls-2" d="M679,663.14a6.14,6.14,0,0,0,6-5l-3.28,0a2.86,2.86,0,0,1-5.45-.07l-3.23-.05A6.16,6.16,0,0,0,679,663.14Z"/><path class="cls-1" d="M565.51,529.45a9.72,9.72,0,0,1,9.2,9.09l3.92.09c-.32-7.36-6-13.3-13.09-13.47s-13,5.5-13.69,12.84l4.06.09A9.68,9.68,0,0,1,565.51,529.45Z"/><path class="cls-3" d="M565.51,529.45a9.68,9.68,0,0,0-9.6,8.64l3.31.08a6.06,6.06,0,0,1,11.95.29l3.54.08A9.72,9.72,0,0,0,565.51,529.45Z"/><path class="cls-2" d="M565.31,533.28a6.14,6.14,0,0,0-6.09,4.89l3.27.08a2.86,2.86,0,0,1,5.45.13l3.23.08A6.15,6.15,0,0,0,565.31,533.28Z"/><path class="cls-1" d="M834.26,837.35a9.7,9.7,0,0,1,9.19,9.09l3.92.1c-.31-7.36-6-13.31-13.08-13.48s-13,5.5-13.69,12.84l4,.1A9.69,9.69,0,0,1,834.26,837.35Z"/><path class="cls-3" d="M834.26,837.35a9.69,9.69,0,0,0-9.61,8.65l3.31.07a6.07,6.07,0,0,1,12,.29l3.53.08A9.7,9.7,0,0,0,834.26,837.35Z"/><path class="cls-2" d="M834.06,841.18a6.15,6.15,0,0,0-6.1,4.89l3.28.08a2.85,2.85,0,0,1,5.44.13l3.24.08A6.15,6.15,0,0,0,834.06,841.18Z"/><polygon class="cls-3" points="437.55 687.72 440.47 693.2 437.43 698.86 434.57 693.38 437.55 687.72"/><path class="cls-3" d="M826.69,601.81a4,4,0,0,0-3.35,4.47h0s0,0,0,.05c.43,6.72,7.8,10.74,8.06,10.83V605.88C831,603.58,829.28,601.54,826.69,601.81Z"/><path class="cls-1" d="M839.48,606.33v-.05a4,4,0,0,0-3.35-4.47c-2.61-.28-4.35,1.8-4.72,4.13a.13.13,0,0,1,0-.06v11.28h0S839,613.15,839.48,606.33Z"/><path class="cls-1" d="M782.86,678.89A1.91,1.91,0,1,1,781,677,1.92,1.92,0,0,1,782.86,678.89Z"/><ellipse class="cls-1" cx="615.53" cy="770.2" rx="1.91" ry="1.92"/><path class="cls-3" d="M497.9,770.1a4,4,0,0,1-3.35-4.47h0v0c.43-6.72,7.8-10.74,8.06-10.83V766C502.22,768.33,500.49,770.37,497.9,770.1Z"/><path class="cls-2" d="M510.69,765.58v0a4,4,0,0,1-3.35,4.47c-2.61.28-4.35-1.8-4.72-4.13,0,0,0,0,0,.06V754.75h0S510.26,758.76,510.69,765.58Z"/><path class="cls-1" d="M551.16,657.3a5.75,5.75,0,0,1-1-.41,7.21,7.21,0,0,0-1.14-.48,16.55,16.55,0,0,0-2.57-.53,20.8,20.8,0,0,0-6.68.51h0a.53.53,0,1,0,.24,1h0a19.71,19.71,0,0,1,6.32-.48,14.3,14.3,0,0,1,2.39.49,6.43,6.43,0,0,1,1,.41,6.59,6.59,0,0,0,1.17.49h0a.54.54,0,0,0,.27-1Z"/><path class="cls-1" d="M543.48,646.32c.3.37.61.73.91,1.08a27.68,27.68,0,0,1,1.82,2.26c.59.85,1.19,1.78,1.83,2.86a9.45,9.45,0,0,1,.57,1.2,10.8,10.8,0,0,0,.58,1.26,10.16,10.16,0,0,1,.66,1.5,12.78,12.78,0,0,0,.74,1.66h0a.54.54,0,0,0,.73.2.53.53,0,0,0,.2-.73h0a11.47,11.47,0,0,1-.66-1.51,11.45,11.45,0,0,0-.74-1.65,8.91,8.91,0,0,1-.52-1.13A9.67,9.67,0,0,0,549,652c-.65-1.1-1.27-2.06-1.87-2.92a28.11,28.11,0,0,0-1.89-2.35c-.29-.34-.6-.7-.89-1.06h0a.54.54,0,0,0-.76-.07.53.53,0,0,0-.07.75Z"/><path class="cls-1" d="M558.13,655.14c.26-.44,1.32-2.37,1-2.36a11,11,0,0,0-2.63.65,8.8,8.8,0,0,0-3.2,1.78,7.23,7.23,0,0,0-1.19,1.34c-.33.48-.46,1.1-.81,1.56.47.57,3.63.41,4.92-.58A5.67,5.67,0,0,0,558.13,655.14Z"/><path class="cls-1" d="M550.85,659.79a4.91,4.91,0,0,0-.48,3c.08.44.35.95.46,1.36s.06.88.43,1.32A3.78,3.78,0,0,0,552.8,661a8.08,8.08,0,0,0-1.24-2.13A2.29,2.29,0,0,0,550.85,659.79Z"/><path class="cls-2" d="M539.75,645.71a4.11,4.11,0,1,1,5.63,1.55A4.13,4.13,0,0,1,539.75,645.71Z"/><path class="cls-2" d="M534.45,657.89a4.11,4.11,0,1,1,5.62,1.54A4.13,4.13,0,0,1,534.45,657.89Z"/><path class="cls-1" d="M744.38,766.55a5.18,5.18,0,0,1-.3,1,6.38,6.38,0,0,0-.35,1.15,14.16,14.16,0,0,0-.25,2.53,19.12,19.12,0,0,0,1.18,6.3h0a.5.5,0,0,0,.67.28.53.53,0,0,0,.32-.67h0a18.16,18.16,0,0,1-1.12-6,15.18,15.18,0,0,1,.23-2.35,6.44,6.44,0,0,1,.31-1,6.46,6.46,0,0,0,.35-1.19h0a.49.49,0,0,0-.44-.56.55.55,0,0,0-.6.46Z"/><path class="cls-1" d="M734.47,775.57l1-1c.67-.73,1.29-1.42,2-2.07s1.62-1.42,2.6-2.2a9.75,9.75,0,0,1,1.12-.72,10.3,10.3,0,0,0,1.16-.75,11.37,11.37,0,0,1,1.4-.86,12.53,12.53,0,0,0,1.53-1h0a.51.51,0,1,0-.61-.81h0a11.42,11.42,0,0,1-1.4.87,12.53,12.53,0,0,0-1.53,1,11.06,11.06,0,0,1-1.05.67,11,11,0,0,0-1.25.81c-1,.8-1.87,1.53-2.65,2.24a28.13,28.13,0,0,0-2.09,2.16c-.31.33-.62.68-.94,1h0a.51.51,0,0,0,0,.73.53.53,0,0,0,.74,0Z"/><path class="cls-1" d="M741.55,760.24c-.45-.18-2.45-.89-2.39-.57a10,10,0,0,0,.89,2.41,7.94,7.94,0,0,0,2.08,2.78,6.07,6.07,0,0,0,1.42.92c.51.24,1.13.27,1.6.54.51-.54,0-3.53-1.07-4.6A5.3,5.3,0,0,0,741.55,760.24Z"/><path class="cls-1" d="M746.83,766.47a4.94,4.94,0,0,0,3,0c.42-.15.89-.48,1.28-.65s.85-.19,1.24-.61a3.64,3.64,0,0,0-4.53-.78,8.6,8.6,0,0,0-1.94,1.5C745.86,766,746.36,766.32,746.83,766.47Z"/><path class="cls-2" d="M734.26,779.21a3.89,3.89,0,1,1,.93-5.6A4,4,0,0,1,734.26,779.21Z"/><path class="cls-2" d="M746.68,782.4a3.89,3.89,0,1,1,.92-5.6A4,4,0,0,1,746.68,782.4Z"/></g></svg>