<svg id="Capa_1" data-name="Capa 1" xmlns="http://www.w3.org/2000/svg" viewBox="0 0 850.39 850.39"><defs><style>.cls-1{fill:#1d1d1b;}.cls-2{fill:#fff;}</style></defs><path class="cls-1" d="M130.76,333.63H74.15v51.93l52-9L126,434.6,74.15,424.2v82.17H38V294.83h92.76Z"/><path class="cls-1" d="M226.13,454.76H166.34Q167.77,482,191.49,482a39.71,39.71,0,0,0,26.58-9.78v27.88q-12.7,9.28-33,9.3-22.18,0-34.46-16.82t-12.26-46.9q0-31.18,13.25-49.4t32.58-18.22q20,0,31,16.26t11,44.15ZM199.9,431q0-26.91-15.93-26.9-6.81,0-11.77,7.7t-6,19.2Z"/><path class="cls-1" d="M302.74,416a19.39,19.39,0,0,0-11.9-3.79q-9.22,0-14.41,9.23t-5.19,25.13v59.8H243V381.14h28.29v23.24h.35q6.72-25.44,24.17-25.43a14,14,0,0,1,7,1.46Z"/><path class="cls-1" d="M404.42,506.37H376.23V436.78q0-29.1-15.22-29.1-7.33,0-12.08,7.71T344.18,435v71.42H315.9V381.14h28.28V401h.36q10.13-22.87,29.45-22.87,30.43,0,30.43,51.61Z"/><path class="cls-1" d="M503.06,506.37H476.3v-18h-.36q-9.22,21-27.31,21-13.32,0-21-10.34T420,471.52q0-36.45,31.59-42.07l24.88-4.53q0-20.54-16.29-20.54T429,417.71v-29.1q5.91-4.16,16.16-7.34a63.53,63.53,0,0,1,18.66-3.18q39.21,0,39.21,53.44Zm-26.59-50.88v-8.43L459.83,450Q446,452.45,446,467a16.83,16.83,0,0,0,3.36,10.82,11,11,0,0,0,9.08,4.22q8,0,13-7.52T476.47,455.49Z"/><path class="cls-1" d="M580.84,504.89q-6.27,4.53-18.89,4.54-29.9,0-29.89-42.44V409.64H517.2v-28.5h14.86v-27l28.19-11v38h20.59v28.5H560.25v50.63q0,19.56,11.37,19.56,4.47,0,9.22-3.55Z"/><path class="cls-1" d="M679.11,454.76H619.32Q620.76,482,644.48,482a39.71,39.71,0,0,0,26.58-9.78v27.88q-12.7,9.28-33,9.3-22.2,0-34.46-16.82t-12.26-46.9q0-31.18,13.24-49.4t32.59-18.22q20,0,31,16.26t11,44.15ZM652.89,431q0-26.91-15.93-26.9-6.81,0-11.77,7.7T619.14,431Z"/><path class="cls-1" d="M779,524H749.52l-19-47.84a52,52,0,0,1-2.23-9.82H728a91,91,0,0,1-2.53,10.23l-38.59,98.11L657.8,558.29l54.14-107.73-32.12-73.44H710l15.76,44.05a94.76,94.76,0,0,1,3.3,12.39h.31q.92-4.31,3.46-12.81l17.52-43.63H778L745,450Z"/><polygon class="cls-1" points="787.68 333.28 121.84 333.28 121.84 294.83 809 294.83 787.68 333.28"/><polygon class="cls-1" points="685.91 578.31 38.01 581.6 38.01 544.7 697.54 545.48 685.91 578.31"/><polygon class="cls-1" points="74.14 506.37 74.14 549.26 38.01 549.26 38.01 502.26 74.14 506.37"/><polygon class="cls-1" points="749.98 378.09 783.66 294.83 817.34 294.83 778.03 377.12 749.98 378.09"/><rect class="cls-2" x="743.14" y="315.66" width="69.3" height="2.83" transform="translate(111.89 829.01) rotate(-59.73)"/><rect class="cls-2" x="734.99" y="309.04" width="70.9" height="5.67" transform="translate(112.92 820.3) rotate(-59.75)"/><rect class="cls-2" x="662.64" y="528.98" width="2.83" height="69.3" transform="translate(-205.69 610.51) rotate(-43.41)"/><rect class="cls-2" x="668.29" y="522.59" width="5.67" height="70.9" transform="translate(-199.91 613.94) rotate(-43.42)"/><rect class="cls-2" x="127.92" y="294.83" width="2.83" height="38.79"/><rect class="cls-2" x="135.48" y="294.83" width="5.67" height="39.69"/><rect class="cls-2" x="119" y="294.83" width="2.83" height="39.69"/><rect class="cls-2" x="55.68" y="513.82" width="2.83" height="38.8" transform="translate(-476.38 587.83) rotate(-89.73)"/><rect class="cls-2" x="54.75" y="504.4" width="5.67" height="39.69" transform="translate(-466.93 579.3) rotate(-89.72)"/><rect class="cls-2" x="56.08" y="522.3" width="2.83" height="39.69" transform="translate(-484.92 596.94) rotate(-89.71)"/></svg>